<?xml version="1.0" standalone="no"?>
<!DOCTYPE svg PUBLIC "-//W3C//DTD SVG 1.1//EN" "http://www.w3.org/Graphics/SVG/1.1/DTD/svg11.dtd" >
<svg>
<metadata>
Created by FontForge 20090914 at Thu Mar  7 11:37:29 2013
 By www-data
Copyleft 2002, 2003, 2005, 2008, 2009, 2010 Free Software Foundation.
</metadata>
<defs>
<font id="FreeSansBold" horiz-adv-x="0" >
  <font-face 
    font-family="FreeSans"
    font-weight="700"
    font-stretch="normal"
    units-per-em="1000"
    panose-1="2 11 7 4 2 2 2 2 2 4"
    ascent="800"
    descent="-200"
    x-height="540"
    cap-height="729"
    bbox="-967 -460.001 1556 1072"
    underline-thickness="69"
    underline-position="-155"
    unicode-range="U+0020-U+FFFD"
  />
<missing-glyph horiz-adv-x="700" 
d="M88 0v729h524v-729h-524zM218 102h264v525h-264v-525z" />
    <glyph glyph-name="IJ" unicode="IJ" horiz-adv-x="593" 
d="M213 729v-369h-150v369h150zM291 -23c-27.333 0 -53.5 3.33203 -78.5 9.99902s-49.167 17.834 -72.5 33.501s-42 38.667 -56 69s-21 66.5 -21 108.5v72h150v-70c0 -33.333 6.33301 -57.5 19 -72.5s33.334 -22.5 62.001 -22.5c26 0 46 7.33301 60 22s21 35.667 21 63v539
h150v-539c0 -68 -20.333 -120.5 -61 -157.5s-98.334 -55.5 -173.001 -55.5z" />
    <glyph glyph-name="ij" unicode="ij" horiz-adv-x="486" 
d="M418 540l-0.000976562 -633.999c0 -44 -9.66699 -75.667 -29 -95s-50.666 -29 -93.999 -29c-24 0 -51.667 1.66699 -83 5v112c8.66699 -2.66699 17 -4 25 -4c15.333 0 26 3.16699 32 9.5s9 17.166 9 32.499v603h140zM417.999 729.001v-125h-140v125h140zM206.999 540.001
v-540h-140v540h140zM206.999 729.001v-125h-140v125h140z" />
    <glyph glyph-name="ff" unicode="ff" horiz-adv-x="607" 
d="M587 529v-93h-83v-436h-140v436h-134v-436h-140v436h-76v93h76v65c0 90 46 135 138 135c27.333 0 54 -1 80 -3v-105c-12 2 -25.333 3 -40 3c-25.333 0 -38 -14 -38 -42v-53h134v65c0 90 46 135 138 135c27.333 0 54 -1 80 -3v-105c-12 2 -25.333 3 -40 3
c-25.333 0 -38 -14 -38 -42v-53h83z" />
    <glyph glyph-name="fi" unicode="fi" horiz-adv-x="576" 
d="M505 729v-125h-140v125h140zM505 529v-529h-140v436h-135v-436h-140v436h-76v93h76v65c0 90 46 135 138 135c27.333 0 54 -1 80 -3v-105c-12 2 -25.333 3 -40 3c-25.333 0 -38 -14 -38 -42v-53h275z" />
    <glyph glyph-name="fl" unicode="fl" horiz-adv-x="603" 
d="M532 729v-729h-140v436h-162v-436h-140v436h-76v93h76v65c0 90 46 135 138 135c27.333 0 54 -1 80 -3v-105c-12 2 -25.333 3 -40 3c-25.333 0 -38 -14 -38 -42v-53h162v200h140z" />
    <glyph glyph-name="ffi" unicode="ffi" horiz-adv-x="849" 
d="M778 729v-125h-140v125h140zM778 529v-529h-140v436h-134v-436h-140v436h-134v-436h-140v436h-76v93h76v65c0 90 46 135 138 135c27.333 0 54 -1 80 -3v-105c-12 2 -25.333 3 -40 3c-25.333 0 -38 -14 -38 -42v-53h134v65c0 90 46 135 138 135c27.333 0 54 -1 80 -3v-105
c-12 2 -25.333 3 -40 3c-25.333 0 -38 -14 -38 -42v-53h274z" />
    <glyph glyph-name="ffl" unicode="ffl" horiz-adv-x="849" 
d="M638 529v200h140v-729h-140v436h-134v-436h-140v436h-134v-436h-140v436h-76v93h76v65c0 90 46 135 138 135c27.333 0 54 -1 80 -3v-105c-12 2 -25.333 3 -40 3c-25.333 0 -38 -14 -38 -42v-53h134v65c0 90 46 135 138 135c27.333 0 54 -1 80 -3v-105
c-12 2 -25.333 3 -40 3c-25.333 0 -38 -14 -38 -42v-53h134z" />
    <glyph glyph-name="m_n_armenian" unicode="&#x574;&#x576;" horiz-adv-x="1243" 
d="M548 0h-139.999v64c-38.667 -58 -92.667 -87 -162 -87c-57.333 0 -101.833 16.333 -133.5 49s-47.5 78.667 -47.5 138v177h140v-148c0 -64.667 30 -97 90 -97c34 0 61.333 9.66699 82 29s31 45 31 77v229h-208c-90 0 -135 45.667 -135 137c0 7.33301 1 24 3 50h105
c-2 -12 -3 -25.333 -3 -40c0 -25.333 14 -38 42 -38h183c-3.33301 4 -9.5 9.83301 -18.5 17.5s-15.5 13.5 -19.5 17.5l-46 45c-20.667 19.333 -31 39 -31 59c0 14.667 6.5 26.667 19.5 36s32.167 14 57.5 14h191v-93c-26.667 0 -44.834 -1.66699 -54.501 -5
s-14.5 -11.333 -14.5 -24c0 -10.667 8 -23 24 -37s26 -24 30 -30h297v-347c0 -64.667 30 -97 90 -97c34 0 61.333 9.66699 82 29s31 45 31 77v338h140v-540h-140v64c-38.667 -58 -92.667 -87 -162 -87c-57.333 0 -101.833 16.333 -133.5 49s-47.5 78.667 -47.5 138v267h-142
v-431z" />
    <glyph glyph-name="m_e_armenian" unicode="&#x574;&#x565;" horiz-adv-x="1226" 
d="M548 0h-139.998v64c-38.667 -58 -92.667 -87 -162 -87c-57.333 0 -101.833 16.333 -133.5 49s-47.5 78.667 -47.5 138v376h140v-347c0 -64.667 30 -97 90 -97c34 0 61.333 9.66699 82 29s31 45 31 77v308c0 8.66699 -1.83301 16 -5.5 22s-11.5 14 -23.5 24
s-19.333 16.333 -22 19l-46 45c-20.667 19.333 -31 39 -31 59c0 14.667 6.5 26.667 19.5 36s32.167 14 57.5 14h476v-189h343v-93h-343v-254c0 -64.667 30 -97 90 -97c34 0 61.333 9.66699 82 29s31 45 31 77v58h140v-260h-140v64c-38.667 -58 -92.667 -87 -162 -87
c-57.333 0 -101.833 16.333 -133.5 49s-47.5 78.667 -47.5 138v472c-142.667 -1.33301 -214 -11 -214 -29c0 -8.66699 3.66699 -17 11 -25s15.166 -15 23.499 -21s16.166 -15.333 23.499 -28s11 -27 11 -43v-490z" />
    <glyph glyph-name="m_i_armenian" unicode="&#x574;&#x56b;" horiz-adv-x="1233" 
d="M548 0l-140 0.000976562v64c-38.667 -58 -92.667 -87 -162 -87c-57.333 0 -101.833 16.333 -133.5 49s-47.5 78.667 -47.5 138v376h140v-347c0 -64.667 30 -97 90 -97c34 0 61.333 9.66699 82 29s31 45 31 77v308c0 8.66699 -1.83301 16 -5.5 22s-11.5 14 -23.5 24
s-19.333 16.333 -22 19l-46 45c-20.667 19.333 -31 39 -31 59c0 14.667 6.5 26.667 19.5 36s32.167 14 57.5 14h477v-267c38.667 58 91.334 87 158.001 87c21.333 0 41.5 -2.83301 60.5 -8.5s37.667 -15 56 -28s32.833 -32.5 43.5 -58.5s16 -56.667 16 -92v-362h-140v330
c0 66.667 -28.667 100 -86 100c-31.333 0 -57.166 -10 -77.499 -30s-30.5 -45.333 -30.5 -76v-524h-140v836c-143.333 -0.666992 -215 -10.334 -215 -29.001c0 -8.66699 3.66699 -17 11 -25s15.166 -15 23.499 -21s16.166 -15.333 23.499 -28s11 -27 11 -43v-490z" />
    <glyph glyph-name="v_n_armenian" unicode="&#x57e;&#x576;" horiz-adv-x="1238" 
d="M200 436c-39.333 0 -71.667 13.166 -97 39.499s-38 60.833 -38 103.5c0 44.667 13.5 80.834 40.5 108.501s58.5 41.5 94.5 41.5h348v-189h282v-347c0 -64.667 30 -97 90 -97c34 0 61.333 9.66699 82 29s31 45 31 77v338h140v-540h-140v64
c-38.667 -58 -92.667 -87 -162 -87c-57.333 0 -101.833 16.333 -133.5 49s-47.5 78.667 -47.5 138v272h-142v-543h78v-93h-218v264c-38.667 -58 -92.667 -87 -162 -87c-57.333 0 -101.833 16.333 -133.5 49s-47.5 78.667 -47.5 138v208h140v-179c0 -64.667 30 -97 90 -97
c34 0 61.333 9.66699 82 29s31 45 31 77v234h-208zM407.999 539.999l-0.000976562 85h-196c-13.333 0 -23.666 -4.33301 -30.999 -13s-11 -19.667 -11 -33c0 -26 14 -39 42 -39h196z" />
    <glyph glyph-name="m_x_armenian" unicode="&#x574;&#x56d;" horiz-adv-x="1448" 
d="M548 0h-139.998v64c-38.667 -58 -92.667 -87 -162 -87c-57.333 0 -101.833 16.333 -133.5 49s-47.5 78.667 -47.5 138v376h140v-347c0 -64.667 30 -97 90 -97c34 0 61.333 9.66699 82 29s31 45 31 77v308c0 8.66699 -1.83301 16 -5.5 22s-11.5 14 -23.5 24
s-19.333 16.333 -22 19l-46 45c-20.667 19.333 -31 39 -31 59c0 14.667 6.5 26.667 19.5 36s32.167 14 57.5 14h465v-189h218v-347c0 -64.667 30 -97 90 -97c34 0 61.333 9.66699 82 29s31 45 31 77v338h140v-540h-140v64c-38.667 -58 -92.667 -87 -162 -87
c-57.333 0 -101.833 16.333 -133.5 49s-47.5 78.667 -47.5 138v283h-78v-647h-140v836c-135.333 0 -203 -9.66699 -203 -29c0 -8.66699 3.66699 -17 11 -25s15.166 -15 23.499 -21s16.166 -15.333 23.499 -28s11 -27 11 -43v-490z" />
    <glyph glyph-name="yodyodpatahhebrew" unicode="&#x5f2;&#x5b7;" horiz-adv-x="542" 
d="M212 333l-139 -57v324h139v-267zM470 333l-139 -57v324h139v-267zM161 220h200v-82h-200v82z" />
    <glyph glyph-name="yi_yi_lig_ukrainian" unicode="&#x457;&#x457;" horiz-adv-x="533" 
d="M398 743v-122h-110v122h110zM249 743v-122h-110v122h110zM533 743v-122h-110v122h110zM110 743v-122h-110v122h110zM482 540v-540h-140v540h140zM197 540v-540h-140v540h140z" />
    <glyph glyph-name=".notdef" horiz-adv-x="700" 
d="M88 0v729h524v-729h-524zM218 102h264v525h-264v-525z" />
    <glyph glyph-name="space" unicode=" " horiz-adv-x="278" 
 />
    <glyph glyph-name="exclam" unicode="!" horiz-adv-x="333" 
d="M262 726v-210l-42 -309h-67l-41 309v210h150zM262 146v-146h-150v146h150z" />
    <glyph glyph-name="quotedbl" unicode="&#x22;" horiz-adv-x="474" 
d="M188 729v-130l-42 -129h-56l-40 129v130h138zM424 729v-130l-42 -129h-56l-40 129v130h138z" />
    <glyph glyph-name="numbersign" unicode="#" horiz-adv-x="556" 
d="M146 -32h-106l40 204h-77v99h97l30 153h-99v99h119l34 174h105l-34 -174h103l34 174h105l-34 -174h90v-99h-109l-31 -153h100v-99h-119l-40 -204h-105l40 204h-103zM205 271h103l30 153h-103z" />
    <glyph glyph-name="dollar" unicode="$" horiz-adv-x="556" 
d="M243 -21c-70.667 6.66699 -125.166 29.668 -163.499 69.001s-57.5 89.333 -57.5 150v9h131c3.33301 -70.667 33.333 -111 90 -121v213c-136 31.333 -204 102.333 -204 213c0 56 17.833 101.333 53.5 136s85.834 55 150.501 61v54h68v-54
c63.333 -3.33301 113.333 -23.666 150 -60.999s55.334 -87.333 56.001 -150h-128v6c0 29.333 -6.83301 53.166 -20.5 71.499s-32.834 29.166 -57.501 32.499v-201c77.333 -21.333 132.666 -48.333 165.999 -81s50 -76.334 50 -131.001c0 -64 -18.833 -114.167 -56.5 -150.5
s-90.834 -58.166 -159.501 -65.499v-105h-68v105zM243.001 427.001v181.001c-54 -10.667 -81 -41.334 -81 -92.001c0 -42 27 -71.667 81 -89zM311.001 282.002v-196c56 14 84 46.333 84 97c0 48.667 -28 81.667 -84 99z" />
    <glyph glyph-name="percent" unicode="%" horiz-adv-x="889" 
d="M206 701c51.333 0 94.833 -17.832 130.5 -53.499s53.5 -79.167 53.5 -130.5c0 -48.667 -18.167 -90.834 -54.5 -126.501s-79.5 -53.5 -129.5 -53.5c-50.667 0 -94 17.833 -130 53.5s-54 78.5 -54 128.5s18 92.833 54 128.5s79.333 53.5 130 53.5zM206 602.001
c-23.333 0 -43.333 -8.16699 -60 -24.5s-25 -35.833 -25 -58.5c0 -23.333 8.33301 -43.166 25 -59.499s36.667 -24.5 60 -24.5s43.333 8.16699 60 24.5s25 35.833 25 58.5c0 23.333 -8.33301 43.166 -25 59.499s-36.667 24.5 -60 24.5zM606 709.001h76l-395 -729h-77z
M679 352.001c51.333 0 94.833 -17.833 130.5 -53.5s53.5 -79.5 53.5 -131.5c0 -48.667 -18.167 -90.834 -54.5 -126.501s-79.5 -53.5 -129.5 -53.5c-50.667 0 -94 17.833 -130 53.5s-54 78.834 -54 129.501c0 50 18 92.833 54 128.5s79.333 53.5 130 53.5zM679 253.001
c-23.333 0 -43.333 -8.16895 -60 -24.502s-25 -36.166 -25 -59.499s8.33301 -43.166 25 -59.499s36.667 -24.5 60 -24.5s43.333 8.16699 60 24.5s25 35.833 25 58.5c0 23.333 -8.33301 43.333 -25 60s-36.667 25 -60 25z" />
    <glyph glyph-name="ampersand" unicode="&#x26;" horiz-adv-x="722" 
d="M526 373l113.001 0.000976562v-16c-1.33301 -38.667 -8 -76.5 -20 -113.5s-28 -66.833 -48 -89.5l123 -154h-161l-46 56c-40 -30 -74 -50.667 -102 -62s-59 -17 -93 -17c-71.333 0 -128.666 19.833 -171.999 59.5s-65 91.834 -65 156.501
c0 47.333 11.5 86.166 34.5 116.499s63.833 60.833 122.5 91.5c-6 8 -10 13 -12 15l-28 34c-28 33.333 -42 68.666 -42 105.999c0 47.333 18.167 87 54.5 119s81.166 48 134.499 48s96.333 -14.167 129 -42.5s49 -65.833 49 -112.5c0 -36 -8.33301 -66.667 -25 -92
s-47.334 -53.333 -92.001 -84l116 -144c20 38 30 76.333 30 115v10zM278.001 319.001l-47 -29c-28.667 -19.333 -43 -46 -43 -80c0 -30 10.833 -57 32.5 -81s46.167 -36 73.5 -36c32 0 72 18.333 120 55zM317.001 470.001c40 22 60 50.668 60 86.001c0 18.667 -5 33 -15 43
s-24 15 -42 15c-16.667 0 -30.5 -4.5 -41.5 -13.5s-16.5 -20.5 -16.5 -34.5c0 -12.667 2.83301 -23.834 8.5 -33.501s21.167 -30.5 46.5 -62.5z" />
    <glyph glyph-name="quotesingle" unicode="'" horiz-adv-x="238" 
d="M188 729v-130l-42 -129h-56l-40 129v130h138z" />
    <glyph glyph-name="parenleft" unicode="(" horiz-adv-x="333" 
d="M203 729h100c-52.667 -102 -89.167 -186.5 -109.5 -253.5s-30.5 -137.167 -30.5 -210.5s10 -143.333 30 -210s56.667 -151.667 110 -255h-100c-57.333 86.667 -98.833 166.5 -124.5 239.5s-38.5 148.167 -38.5 225.5c0 76.667 12.833 151.667 38.5 225
s67.167 153 124.5 239z" />
    <glyph glyph-name="parenright" unicode=")" horiz-adv-x="333" 
d="M122 -200h-100c52.667 102 89.167 186.5 109.5 253.5s30.5 137.167 30.5 210.5s-10 143.333 -30 210s-56.667 151.667 -110 255h100c57.333 -86.667 98.833 -166.5 124.5 -239.5s38.5 -148.167 38.5 -225.5c0 -76.667 -12.833 -151.667 -38.5 -225
s-67.167 -153 -124.5 -239z" />
    <glyph glyph-name="asterisk" unicode="*" horiz-adv-x="389" 
d="M132 544l-109 36l22 69l109 -36v116h72v-116l109 36l22 -70l-109 -35l67 -94l-58 -43l-67 94l-67 -94l-58 43z" />
    <glyph glyph-name="plus" unicode="+" horiz-adv-x="584" 
d="M533 291v-119h-182v-182h-119v182h-182v119h182v182h119v-182h182z" />
    <glyph glyph-name="comma" unicode="," horiz-adv-x="278" 
d="M64 146l150 0.00195312v-137c0 -23.333 -1.5 -43.333 -4.5 -60s-9.33301 -34.334 -19 -53.001s-25 -34 -46 -46s-47.833 -20 -80.5 -24v56c57.333 11.333 86 49.666 86 114.999v3h-86v146z" />
    <glyph glyph-name="hyphen" unicode="-" horiz-adv-x="333" 
d="M298 342v-135h-272v135h272z" />
    <glyph glyph-name="period" unicode="." horiz-adv-x="278" 
d="M214 146v-146h-150v146h150z" />
    <glyph glyph-name="slash" unicode="/" horiz-adv-x="278" 
d="M208 714h67l-206 -728h-67z" />
    <glyph glyph-name="zero" unicode="0" horiz-adv-x="556" 
d="M273 -23c-47.333 0 -87.333 9.50391 -120 28.5039s-57.834 46.167 -75.501 81.5s-30.167 74.166 -37.5 116.499s-11 91.166 -11 146.499c0 135.333 20 229.666 60 282.999c44 60.667 105.333 91 184 91c86 0 150.667 -35 194 -105c33.333 -54 50 -145 50 -273
c0 -53.333 -3.66699 -100.833 -11 -142.5s-19.666 -80.334 -36.999 -116.001s-42.5 -63 -75.5 -82s-73.167 -28.5 -120.5 -28.5zM377 349.004c0 71.333 -4.5 126.668 -13.5 166.001s-20.5 65.166 -34.5 77.499s-32.667 18.5 -56 18.5c-37.333 0 -64 -18.833 -80 -56.5
s-24 -105.5 -24 -203.5c0 -68 4.33301 -121.167 13 -159.5s20.167 -63.666 34.5 -75.999s33.166 -18.5 56.499 -18.5c40.667 0 69.334 21.667 86.001 65c12 33.333 18 95.666 18 186.999z" />
    <glyph glyph-name="one" unicode="1" horiz-adv-x="556" 
d="M238 489h-170v93c122.667 0 195 42.333 217 127h93v-709h-140v489z" />
    <glyph glyph-name="two" unicode="2" horiz-adv-x="556" 
d="M515 499c0 -39.333 -8.50195 -74.9951 -25.502 -106.995s-38.5 -58.833 -64.5 -80.5s-52.667 -41.667 -80 -60s-53.666 -38.333 -78.999 -60s-43.333 -43.834 -54 -66.501h300v-125h-482c3.33301 65.333 16.5 117.166 39.5 155.499s64.5 78.5 124.5 120.5
c78 54.667 127.667 95.167 149 121.5s32 59.166 32 98.499c0 35.333 -8.83301 63.166 -26.5 83.499s-42.167 30.5 -73.5 30.5c-32 0 -56.833 -11 -74.5 -33s-26.5 -52.667 -26.5 -92v-23h-134c-0.666992 7.33301 -1 15.666 -1 24.999c0 74.667 20.5 132.834 61.5 174.501
s98.167 62.5 171.5 62.5c74.667 0 133.834 -20.333 177.501 -61s65.5 -95.334 65.5 -164.001z" />
    <glyph glyph-name="three" unicode="3" horiz-adv-x="556" 
d="M38 498c0 36.667 5.16504 69 15.498 97s23.333 50 39 66s34.167 28.833 55.5 38.5s41.5 16.167 60.5 19.5s38.833 5 59.5 5c68.667 0 123.334 -17.5 164.001 -52.5s61 -81.833 61 -140.5c0 -32.667 -7.33301 -60.834 -22 -84.501s-38.334 -45.834 -71.001 -66.501
c40 -19.333 69.333 -43.166 88 -71.499s28 -63.166 28 -104.499c0 -69.333 -22.5 -124.5 -67.5 -165.5s-105.167 -61.5 -180.5 -61.5c-72.667 0 -130.5 20.833 -173.5 62.5s-64.833 97.834 -65.5 168.501h136c4 -74 39.333 -111 106 -111c30.667 0 55.834 10 75.501 30
s29.5 45.667 29.5 77c0 26 -7 48.5 -21 67.5s-32.667 31.833 -56 38.5c-18.667 4.66699 -46 7 -82 7v94h12c82.667 0 124 35.667 124 107c0 29.333 -7.66699 52.166 -23 68.499s-37 24.5 -65 24.5c-36.667 0 -61.667 -10.333 -75 -31s-20.666 -52 -21.999 -94h-130v12z" />
    <glyph glyph-name="four" unicode="4" horiz-adv-x="556" 
d="M522 273v-116h-74v-157h-140v157h-284v118l259 434h165v-436h74zM308 273v303l-185 -303h185z" />
    <glyph glyph-name="five" unicode="5" horiz-adv-x="556" 
d="M489 709v-125h-293l-23 -148c38 28.667 79 43 123 43c65.333 0 118.5 -22.667 159.5 -68s61.5 -104.333 61.5 -177c0 -76.667 -23.667 -138.667 -71 -186s-109 -71 -185 -71c-68.667 0 -124.5 19.167 -167.5 57.5s-65.167 88.5 -66.5 150.5h138
c3.33301 -58.667 36 -88 98 -88c35.333 0 63.166 12 83.499 36s30.5 56.667 30.5 98c0 42.667 -10.167 76.167 -30.5 100.5s-48.166 36.5 -83.499 36.5c-44.667 0 -74.667 -18 -90 -54h-126l63 395h379z" />
    <glyph glyph-name="six" unicode="6" horiz-adv-x="556" 
d="M32 337c0 258 87.335 386.996 262.002 386.996c12.667 0 25 -0.666992 37 -2s28.167 -5.33301 48.5 -12s38.333 -15.667 54 -27s30.667 -28.666 45 -51.999s23.833 -51 28.5 -83h-130c-9.33301 22.667 -20.5 38.834 -33.5 48.501s-30.833 14.5 -53.5 14.5
c-28 0 -51.5 -9 -70.5 -27s-31.833 -43 -38.5 -75c-4 -20 -7 -55 -9 -105c22 22.667 43.667 38.834 65 48.501s46.666 14.5 75.999 14.5c60.667 0 110.167 -21.333 148.5 -64s57.5 -98 57.5 -166c0 -77.333 -21.833 -140 -65.5 -188s-100.834 -72 -171.501 -72
c-42 0 -80.5 9.33301 -115.5 28s-62.833 44.334 -83.5 77.001c-34 54 -51 139 -51 255zM279.002 356.996c-32.667 0 -58.999 -12.167 -78.999 -36.5s-30 -56.166 -30 -95.499c0 -37.333 10 -68 30 -92s46 -36 78 -36c31.333 0 57.166 12.333 77.499 37s30.5 56 30.5 94
c0 39.333 -9.66699 70.666 -29 93.999s-45.333 35 -78 35z" />
    <glyph glyph-name="seven" unicode="7" horiz-adv-x="556" 
d="M528 709l0.000976562 -110c-84 -101.333 -145.667 -198.5 -185 -291.5s-62.333 -195.5 -69 -307.5h-141c17.333 137.333 48.333 253 93 347c14 30.667 38.167 72 72.5 124s62.166 89.667 83.499 113h-353v125h499z" />
    <glyph glyph-name="eight" unicode="8" horiz-adv-x="556" 
d="M501 532c0 -37.333 -8.16602 -67.1689 -24.499 -89.502s-38.833 -41.166 -67.5 -56.499c40.667 -22 70.167 -47.333 88.5 -76s27.5 -64 27.5 -106c0 -66.667 -23.333 -121.167 -70 -163.5s-107 -63.5 -181 -63.5c-74.667 0 -135.334 21 -182.001 63s-70 96.667 -70 164
c0 42 9.16699 77.333 27.5 106s47.833 54 88.5 76c-32 17.333 -55.333 37.333 -70 60s-22 51 -22 85c0 56 21.5 102.167 64.5 138.5s97.5 54.5 163.5 54.5c65.333 0 119.5 -18.167 162.5 -54.5s64.5 -82.166 64.5 -137.499zM275.001 610.997
c-31.333 0 -56.835 -8.49805 -76.502 -25.498s-29.5 -39.167 -29.5 -66.5s9.83301 -49.833 29.5 -67.5s45.167 -26.5 76.5 -26.5c30.667 0 55.834 8.66699 75.501 26s29.5 39.666 29.5 66.999s-9.66699 49.666 -29 66.999s-44.666 26 -75.999 26zM272.999 329.999
c-33.333 0 -60.167 -10.668 -80.5 -32.001s-30.5 -50 -30.5 -86c0 -35.333 10 -63.333 30 -84s47 -31 81 -31s61.167 10.333 81.5 31s30.5 48 30.5 82c0 36.667 -10 65.834 -30 87.501s-47.333 32.5 -82 32.5z" />
    <glyph glyph-name="nine" unicode="9" horiz-adv-x="556" 
d="M516 370c0 -64 -5.66895 -120.329 -17.002 -168.996s-25.5 -87 -42.5 -115s-37.5 -50.5 -61.5 -67.5s-47 -28.333 -69 -34s-45.667 -8.5 -71 -8.5c-61.333 0 -112.5 17.833 -153.5 53.5s-62.167 80.834 -63.5 135.501h135c1.33301 -20.667 9.83301 -37.334 25.5 -50.001
s35.834 -19 60.501 -19c78 0 117 67.333 117 202c-0.666992 -0.666992 -3.33398 -3.83398 -8.00098 -9.50098s-8.5 -10 -11.5 -13l-13.5 -13c-6 -5.66699 -12.167 -10.167 -18.5 -13.5s-13.666 -6.83301 -21.999 -10.5s-17.833 -6.33398 -28.5 -8.00098s-22 -2.5 -34 -2.5
c-62.667 0 -113.667 22.667 -153 68s-59 104.666 -59 177.999c0 74 22.167 134.167 66.5 180.5s101.833 69.5 172.5 69.5c22.667 0 44.334 -2.5 65.001 -7.5s42.5 -15.333 65.5 -31s43 -35.834 60 -60.501s31 -59 42 -103s16.5 -94.667 16.5 -152zM262.998 610.004
c-31.333 0 -56.167 -12.166 -74.5 -36.499s-27.5 -56.833 -27.5 -97.5s9.33301 -72.834 28 -96.501s44 -35.5 76 -35.5s58 12 78 36s30 55.333 30 94c0 41.333 -9.83301 74.333 -29.5 99s-46.5 37 -80.5 37z" />
    <glyph glyph-name="colon" unicode=":" horiz-adv-x="333" 
d="M263 146v-146h-150v146h150zM263 520v-146h-150v146h150z" />
    <glyph glyph-name="semicolon" unicode=";" horiz-adv-x="333" 
d="M113 146l150 0.00195312v-137c0 -23.333 -1.5 -43.333 -4.5 -60s-9.33301 -34.334 -19 -53.001s-25 -34 -46 -46s-47.833 -20 -80.5 -24v56c57.333 11.333 86 49.666 86 114.999v3h-86v146zM263 520.002v-146h-150v146h150z" />
    <glyph glyph-name="less" unicode="&#x3c;" horiz-adv-x="584" 
d="M529 474v-109l-382 -133l382 -131v-111l-489 182v121z" />
    <glyph glyph-name="equal" unicode="=" horiz-adv-x="584" 
d="M534 411v-119h-484v119h484zM534 171v-119h-484v119h484z" />
    <glyph glyph-name="greater" unicode="&#x3e;" horiz-adv-x="584" 
d="M40 -10v109l382 133l-382 131v111l489 -182v-121z" />
    <glyph glyph-name="question" unicode="?" horiz-adv-x="611" 
d="M64 481c0.666992 43.333 6.49805 81.3369 17.498 114.004s24.667 58.167 41 76.5s35.833 33.166 58.5 44.499s43.834 18.833 63.501 22.5s40.5 5.5 62.5 5.5c73.333 0 133.166 -21.333 179.499 -64s69.5 -98 69.5 -166c0 -42 -8.33301 -76.667 -25 -104
s-48.334 -57.333 -95.001 -90c-30 -21.333 -48.667 -38.333 -56 -51s-11 -35.334 -11 -68.001h-124v14c0 33.333 5.83301 62.5 17.5 87.5s25.834 45.167 42.501 60.5s33.334 29.666 50.001 42.999s30.834 28.666 42.501 45.999s17.5 37 17.5 59c0 32.667 -10 60 -30 82
s-45 33 -75 33c-31.333 0 -57.5 -12.667 -78.5 -38s-31.5 -57.333 -31.5 -96v-9v-2h-136zM384.998 146.004v-146h-150v146h150z" />
    <glyph glyph-name="at" unicode="@" horiz-adv-x="975" 
d="M258 227c0 19.333 4.16797 43.5039 12.501 72.5039s21.333 60.667 39 95s44.5 63.5 80.5 87.5s77.333 36 124 36c52.667 0 90.667 -24 114 -72l16 62h90l-78 -280c-5.33301 -20 -8 -34 -8 -42c0 -14.667 4.33301 -26.5 13 -35.5s20.667 -13.5 36 -13.5
c35.333 0 71 23.5 107 70.5s54 101.167 54 162.5c0 78.667 -32.667 147.334 -98 206.001c-69.333 61.333 -152.333 92 -249 92c-74.667 0 -142 -18.833 -202 -56.5s-105.833 -87 -137.5 -148s-47.5 -126.833 -47.5 -197.5c0 -97.333 35.5 -176 106.5 -236
s156.167 -90 255.5 -90c77.333 0 146.333 13.667 207 41l28 -73c-67.333 -30.667 -146.333 -46 -237 -46c-137.333 0 -247.833 38.5 -331.5 115.5s-125.5 172.5 -125.5 286.5c0 58 12.833 117.333 38.5 178s60.5 113.667 104.5 159c92.667 96 208 144 346 144
c120.667 0 222.667 -36.833 306 -110.5s125 -166.834 125 -279.501c0 -44.667 -8 -86.334 -24 -125.001s-36.5 -70.334 -61.5 -95.001s-52 -44 -81 -58s-56.833 -21 -83.5 -21c-32.667 0 -59.834 7.16699 -81.501 21.5s-36.167 32.166 -43.5 53.499
c-41.333 -50 -91.333 -75 -150 -75c-45.333 0 -84 16.667 -116 50s-48 73.666 -48 120.999zM444.001 137.004c40 0 75.166 23.501 105.499 70.501s45.5 92.833 45.5 137.5c0 31.333 -7.5 56.166 -22.5 74.499s-35.5 27.5 -61.5 27.5
c-39.333 0 -75.166 -21.167 -107.499 -63.5s-48.5 -88.833 -48.5 -139.5c0 -30 8.66699 -55.333 26 -76s38.333 -31 63 -31z" />
    <glyph glyph-name="A" unicode="A" horiz-adv-x="722" 
d="M501 147h-273l-49 -147h-153l259 729h166l252 -729h-154zM460 272l-95 285l-95 -285h190z" />
    <glyph glyph-name="B" unicode="B" horiz-adv-x="722" 
d="M666 210c0 -24 -3.99902 -47.333 -11.999 -70s-20.833 -45 -38.5 -67s-44.167 -39.667 -79.5 -53s-77.333 -20 -126 -20h-328v729h325c45.333 0 84.5 -6.66699 117.5 -20s57.667 -30.5 74 -51.5s28.166 -41.5 35.499 -61.5s11 -39.667 11 -59
c0 -31.333 -7.66699 -58.333 -23 -81s-41 -45.667 -77 -69c80.667 -47.333 121 -106.333 121 -177zM232.001 604v-165h163c70.667 0 106 27.333 106 82c0 55.333 -35.333 83 -106 83h-163zM232.001 314v-189h179c74 0 111 31.333 111 94c0 63.333 -37 95 -111 95h-179z" />
    <glyph glyph-name="C" unicode="C" horiz-adv-x="722" 
d="M539 482c-18.667 87.333 -70.6689 131.001 -156.002 131.001c-59.333 0 -105.666 -22.667 -138.999 -68s-50 -108.333 -50 -189c0 -79.333 16.167 -141.333 48.5 -186s77.5 -67 135.5 -67c46.667 0 84 12.667 112 38s44.333 61.333 49 108h146
c-4.66699 -83.333 -35 -149.5 -91 -198.5s-129.333 -73.5 -220 -73.5c-101.333 0 -181.666 34.167 -240.999 102.5s-89 161.166 -89 278.499c0 118 30 211.333 90 280s141.333 103 244 103c86 0 156.5 -23 211.5 -69s85.833 -109.333 92.5 -190h-143z" />
    <glyph glyph-name="D" unicode="D" horiz-adv-x="722" 
d="M77 0v728.998h285c56 0 102.167 -6.66699 138.5 -20s66.833 -34.666 91.5 -63.999c59.333 -70.667 89 -164 89 -280c0 -117.333 -29.667 -210.666 -89 -279.999c-47.333 -56.667 -124 -85 -230 -85h-285zM227 124.998h135c112.667 0 169 79.667 169 239
c0 160 -56.333 240 -169 240h-135v-479z" />
    <glyph glyph-name="E" unicode="E" horiz-adv-x="667" 
d="M229 314v-189h395v-125h-545v729h527v-125h-377v-165h349v-125h-349z" />
    <glyph glyph-name="F" unicode="F" horiz-adv-x="611" 
d="M224 314v-314h-150v729h512v-125h-362v-165h319v-125h-319z" />
    <glyph glyph-name="G" unicode="G" horiz-adv-x="778" 
d="M570 498c-26.667 78 -84.666 117.003 -173.999 117.003c-63.333 0 -113.166 -22.333 -149.499 -67s-54.5 -106.334 -54.5 -185.001c0 -74.667 19.5 -136 58.5 -184s88.833 -72 149.5 -72c9.33301 0 20.166 1.16699 32.499 3.5s27.166 7 44.499 14s33.333 16.167 48 27.5
s27.667 27.166 39 47.499s18.333 43.5 21 69.5h-166v125h292v-394h-90l-18 96c-28 -40.667 -59.333 -70.334 -94 -89.001s-76.667 -28 -126 -28c-98.667 0 -180.167 36 -244.5 108s-96.5 163.333 -96.5 274c0 113.333 32.667 205.333 98 276s150.333 106 255 106
c88 0 160.333 -22 217 -66s89.667 -103.667 99 -179h-141z" />
    <glyph glyph-name="H" unicode="H" horiz-adv-x="722" 
d="M507 331h-289v-331h-150v729h150v-273h288v273h151v-729h-150v331z" />
    <glyph glyph-name="I" unicode="I" horiz-adv-x="278" 
d="M213 729v-729h-150v729h150z" />
    <glyph glyph-name="J" unicode="J" horiz-adv-x="556" 
d="M252 -23c-27.333 0 -53.5 3.33203 -78.5 9.99902s-49.167 17.834 -72.5 33.501s-42 38.667 -56 69s-21 66.5 -21 108.5v72h150v-70c0 -33.333 6.33301 -57.5 19 -72.5s33.334 -22.5 62.001 -22.5c26 0 46 7.33301 60 22s21 35.667 21 63v539h150v-539
c0 -68 -20.333 -120.5 -61 -157.5s-98.334 -55.5 -173.001 -55.5z" />
    <glyph glyph-name="K" unicode="K" horiz-adv-x="722" 
d="M224 244v-244h-150v729h150v-320l285 320h177l-291 -314l322 -415h-179l-239 322z" />
    <glyph glyph-name="L" unicode="L" horiz-adv-x="611" 
d="M230 729v-604h349v-125h-499v729h150z" />
    <glyph glyph-name="M" unicode="M" horiz-adv-x="833" 
d="M216 568v-568h-150v729h224l132 -580l128 580h226v-729h-150v568l-129 -568h-150z" />
    <glyph glyph-name="N" unicode="N" horiz-adv-x="722" 
d="M511 0l-293 504v-504h-150v729h154l289 -496v496h150v-729h-150z" />
    <glyph glyph-name="O" unicode="O" horiz-adv-x="778" 
d="M40 359c0 112 32.168 203.667 96.501 275s148.833 107 253.5 107c105.333 0 190.333 -35.5 255 -106.5s97 -164.5 97 -280.5c0 -108 -31.833 -197.833 -95.5 -269.5s-148.834 -107.5 -255.501 -107.5c-106 0 -191 35.667 -255 107s-96 163 -96 275zM391.001 613
c-60.667 0 -109.335 -23.168 -146.002 -69.501s-55 -107.833 -55 -184.5s18.333 -138.167 55 -184.5s85.334 -69.5 146.001 -69.5c60 0 108.5 23 145.5 69s55.5 106.333 55.5 181c0 78.667 -18.167 141.334 -54.5 188.001s-85.166 70 -146.499 70z" />
    <glyph glyph-name="P" unicode="P" horiz-adv-x="667" 
d="M226 260v-260h-150v729h322c76 0 134.167 -19.333 174.5 -58s60.5 -94.667 60.5 -168c0 -74 -20 -133 -60 -177s-93.333 -66 -160 -66h-187zM226 385h140c78 0 117 36.333 117 109c0 37.333 -9.5 65 -28.5 83s-48.5 27 -88.5 27h-140v-219z" />
    <glyph glyph-name="Q" unicode="Q" horiz-adv-x="778" 
d="M394 741c106 0 191 -36.001 255 -108.001s96 -162.667 96 -272c0 -49.333 -7.16699 -97.166 -21.5 -143.499s-33.833 -84.5 -58.5 -114.5l80 -76l-76 -81l-86 81c-55.333 -33.333 -118.333 -50 -189 -50c-105.333 0 -190.166 35.833 -254.499 107.5
s-96.5 163.167 -96.5 274.5s32.167 202.833 96.5 274.5s149.166 107.5 254.499 107.5zM480 277.999l82 -77.999c22 44 33 96.667 33 158c0 77.333 -18.167 139.166 -54.5 185.499s-85.166 69.5 -146.499 69.5c-60.667 0 -109.334 -23.167 -146.001 -69.5
s-55 -107.833 -55 -184.5s18.333 -138.167 55 -184.5s85 -69.5 145 -69.5c34.667 0 64 6.33301 88 19l-77 73z" />
    <glyph glyph-name="R" unicode="R" horiz-adv-x="722" 
d="M493 125c0 20 0.333008 35.667 1 47s1 21.333 1 30c0 30.667 -7.33301 52.834 -22 66.501s-38.334 20.5 -71.001 20.5h-172v-289h-150v729h391c37.333 0 69.5 -6.33301 96.5 -19s47.333 -29.334 61 -50.001s23.5 -41.5 29.5 -62.5s9 -42.833 9 -65.5
c0 -88 -41 -148 -123 -180c18 -7.33301 31.333 -13.166 40 -17.499s17.5 -11.5 26.5 -21.5s15 -19 18 -27s6 -22.667 9 -44s4.83301 -42.333 5.5 -63s1.33398 -51.334 2.00098 -92.001c0 -28 10.667 -48 32 -60v-27h-161c-9.33301 17.333 -15.5 34 -18.5 50s-4.5 41 -4.5 75
zM517 511c0 37.333 -8.66699 62.167 -26 74.5s-44 18.5 -80 18.5h-181v-190h181c35.333 0 61.833 6.33301 79.5 19s26.5 38.667 26.5 78z" />
    <glyph glyph-name="S" unicode="S" horiz-adv-x="667" 
d="M607 507l-139.996 -0.00292969c-5.33301 76 -56.333 114 -153 114c-38.667 0 -69.334 -8.16699 -92.001 -24.5s-34 -38.166 -34 -65.499c0 -26.667 9.66699 -46.5 29 -59.5s55.666 -24.833 108.999 -35.5l114 -22c67.333 -13.333 116.333 -35.833 147 -67.5
s46 -76.167 46 -133.5c0 -74 -26.333 -131.833 -79 -173.5s-126 -62.5 -220 -62.5c-93.333 0 -165.833 20.667 -217.5 62s-79.834 101 -84.501 179h146c2.66699 -39.333 18 -69.333 46 -90s67.333 -31 118 -31c45.333 0 81.166 8.66699 107.499 26s39.5 41.333 39.5 72
c0 29.333 -10.333 52 -31 68s-56 28.667 -106 38l-102 20c-74 14 -126.667 36 -158 66s-47 73.333 -47 130c0 71.333 24.167 126.5 72.5 165.5s116.166 58.5 203.499 58.5c25.333 0 49.833 -1.66699 73.5 -5s48.834 -10.166 75.501 -20.499s49.667 -23.666 69 -39.999
s35.5 -39 48.5 -68s19.5 -62.5 19.5 -100.5z" />
    <glyph glyph-name="T" unicode="T" horiz-adv-x="611" 
d="M385 604v-604h-150v604h-221v125h584v-125h-213z" />
    <glyph glyph-name="U" unicode="U" horiz-adv-x="722" 
d="M365 -23c-26.667 0 -52.5039 2.33301 -77.5039 7s-50.667 13 -77 25s-49.166 27.333 -68.499 46s-35.166 43.5 -47.499 74.5s-18.5 66.167 -18.5 105.5v494h150v-494c0 -86.667 46.333 -130 139 -130s139 43.333 139 130v494h150v-494
c0 -39.333 -6.16699 -74.5 -18.5 -105.5s-28.166 -55.833 -47.499 -74.5s-42.166 -34 -68.499 -46s-52 -20.333 -77 -25s-50.833 -7 -77.5 -7z" />
    <glyph glyph-name="V" unicode="V" horiz-adv-x="667" 
d="M397 0h-127l-246 729h151l162 -549l159 549h151z" />
    <glyph glyph-name="W" unicode="W" horiz-adv-x="944" 
d="M730 0h-135l-122 569l-119 -569h-135l-206 729h159l113 -546l113 546h148l118 -547l109 547h159z" />
    <glyph glyph-name="X" unicode="X" horiz-adv-x="667" 
d="M419 372l234 -372h-178l-140 253l-139 -253h-174l230 367l-222 362h178l128 -240l134 240h174z" />
    <glyph glyph-name="Y" unicode="Y" horiz-adv-x="667" 
d="M419 270v-270h-150v270l-242 459h167l149 -322l139 322h168z" />
    <glyph glyph-name="Z" unicode="Z" horiz-adv-x="611" 
d="M578 729v-125l-372 -479h372v-125h-548v125l373 479h-373v125h548z" />
    <glyph glyph-name="bracketleft" unicode="[" horiz-adv-x="333" 
d="M308 729v-102h-112v-725h112v-102h-242v929h242z" />
    <glyph glyph-name="backslash" unicode="\" horiz-adv-x="278" 
d="M55 714l234 -728h-67l-234 728h67z" />
    <glyph glyph-name="bracketright" unicode="]" horiz-adv-x="333" 
d="M18 -200v102h112v725h-112v102h242v-929h-242z" />
    <glyph glyph-name="asciicircum" unicode="^" horiz-adv-x="584" 
d="M522 270h-113l-121 300l-115 -300h-112l165 425h125z" />
    <glyph glyph-name="underscore" unicode="_" horiz-adv-x="556" 
d="M578 -120v-80h-600v80h600z" />
    <glyph glyph-name="grave" unicode="`" horiz-adv-x="333" 
d="M17 757h126l70 -150h-70z" />
    <glyph glyph-name="a" unicode="a" horiz-adv-x="556" 
d="M192 -23c-49.333 0 -89 14.832 -119 44.499s-45 68.834 -45 117.501c0 95.333 53 152 159 170l56 10c1.33301 0 8 0.833008 20 2.5s19.667 3 23 4s9.83301 2.5 19.5 4.5s16.5 4.33301 20.5 7s8.83301 6.16699 14.5 10.5s9.5 9.33301 11.5 15s3 12.167 3 19.5
c0 36 -27 54 -81 54c-34.667 0 -59 -5.33301 -73 -16s-22.667 -30 -26 -58h-135c8.66699 124.667 85.667 187 231 187c147.333 0 221 -55.333 221 -166v-300c0 -24.667 10.667 -46.667 32 -66v-17h-152c-10.667 13.333 -16 31.333 -16 54c-49.333 -51.333 -104 -77 -164 -77
zM355 216.999l0.00195312 38c-12.667 -6 -32.334 -11.667 -59.001 -17l-48 -9c-29.333 -6 -50 -14.667 -62 -26s-18 -27.333 -18 -48c0 -20 6.83301 -35.833 20.5 -47.5s32.167 -17.5 55.5 -17.5c35.333 0 62.666 11 81.999 33s29 53.333 29 94z" />
    <glyph glyph-name="b" unicode="b" horiz-adv-x="611" 
d="M348 549c64.667 0 118.667 -26.833 162 -80.5s65 -122.167 65 -205.5c0 -81.333 -21.667 -149.333 -65 -204s-97.333 -82 -162 -82c-66 0 -115.667 26 -149 78v-55h-140v729h140v-259c33.333 52.667 83 79 149 79zM317 432c-34.667 0 -63 -15.5 -85 -46.5
s-33 -71.167 -33 -120.5c0 -51.333 10.833 -92.666 32.5 -123.999s50.167 -47 85.5 -47c34.667 0 63 15.667 85 47s33 71.666 33 120.999c0 50 -11 90.833 -33 122.5s-50.333 47.5 -85 47.5z" />
    <glyph glyph-name="c" unicode="c" horiz-adv-x="556" 
d="M288 436c-76 0 -114.001 -58.998 -114.001 -176.998c0 -52.667 10.167 -94 30.5 -124s48.166 -45 83.499 -45c27.333 0 48.666 7.5 63.999 22.5s27.333 39.833 36 74.5h134c-6.66699 -64.667 -31.167 -115.834 -73.5 -153.501s-96.166 -56.5 -161.499 -56.5
c-80 0 -142.167 24.667 -186.5 74s-66.5 118.666 -66.5 207.999c0 92 22.333 163.333 67 214s107.334 76 188.001 76c67.333 0 121.833 -18.667 163.5 -56s64.834 -89 69.501 -155h-134c-8 35.333 -19.5 60.5 -34.5 75.5s-36.833 22.5 -65.5 22.5z" />
    <glyph glyph-name="d" unicode="d" horiz-adv-x="611" 
d="M256 -23c-66.667 0 -121.166 27.332 -163.499 81.999s-63.5 122.334 -63.5 203.001c0 81.333 21.667 149.5 65 204.5s97.333 82.5 162 82.5c65.333 0 115 -26.333 149 -79v259h140v-729h-140v55c-34.667 -52 -84.334 -78 -149.001 -78zM287.001 431.999
c-34.667 0 -63 -15.834 -85 -47.501s-33 -72.5 -33 -122.5c0 -49.333 11 -89.666 33 -120.999s50.333 -47 85 -47s63 15.333 85 46s33 70.667 33 120c0 51.333 -10.833 92.833 -32.5 124.5s-50.167 47.5 -85.5 47.5z" />
    <glyph glyph-name="e" unicode="e" horiz-adv-x="556" 
d="M272 549c23.333 0 45.999 -2.66699 67.999 -8s44.5 -15 67.5 -29s43 -31.833 60 -53.5s30.833 -50.334 41.5 -86.001s16 -76.5 16 -122.5c0 -8 -0.333008 -16 -1 -24h-362c0.666992 -20.667 2.5 -38.5 5.5 -53.5s8.33301 -29.667 16 -44s19 -25.333 34 -33
s33.833 -11.5 56.5 -11.5c53.333 0 89 22.667 107 68h138c-15.333 -53.333 -45.666 -95.833 -90.999 -127.5s-98.333 -47.5 -159 -47.5c-76.667 0 -137 24.833 -181 74.5s-66 117.834 -66 204.501c0 90.667 22.333 162.167 67 214.5s105.667 78.5 183 78.5zM378.999 319
c-3.33301 39.333 -14.168 69.667 -32.501 91s-43.833 32 -76.5 32c-61.333 0 -96.666 -41 -105.999 -123h215z" />
    <glyph glyph-name="f" unicode="f" horiz-adv-x="333" 
d="M313 529v-93h-83v-436h-140v436h-76v93h76v65c0 90 46 135 138 135c27.333 0 54 -1 80 -3v-105c-12 2 -25.333 3 -40 3c-25.333 0 -38 -14 -38 -42v-53h83z" />
    <glyph glyph-name="g" unicode="g" horiz-adv-x="611" 
d="M408 540l132.999 -0.00195312v-558c0 -63.333 -22.5 -112.5 -67.5 -147.5s-108.167 -52.5 -189.5 -52.5c-72 0 -129.667 13.833 -173 41.5s-65.333 64.834 -66 111.501h145c11.333 -42 44.333 -63 99 -63c35.333 0 64 10.167 86 30.5s33 46.833 33 79.5v73
c-26 -29.333 -50.167 -49.666 -72.5 -60.999s-49.166 -17 -80.499 -17c-66.667 0 -120.167 25.667 -160.5 77s-60.5 119 -60.5 203c0 83.333 21.333 152.833 64 208.5s96 83.5 160 83.5c60 0 110 -30.667 150 -92v83zM287.999 431.998c-34 0 -61.5 -16 -82.5 -48
s-31.5 -73.667 -31.5 -125c0 -48.667 10.333 -88.334 31 -119.001s47.667 -46 81 -46c36.667 0 66.5 15.333 89.5 46s34.5 70.334 34.5 119.001c0 50 -11.5 91.333 -34.5 124s-52.167 49 -87.5 49z" />
    <glyph glyph-name="h" unicode="h" horiz-adv-x="611" 
d="M401 330c0 66.667 -28.6689 100 -86.002 100c-31.333 0 -57.166 -10 -77.499 -30s-30.5 -45.333 -30.5 -76v-324h-140v729h140v-267c38.667 58 91.334 87 158.001 87c21.333 0 41.5 -2.83301 60.5 -8.5s37.667 -15 56 -28s32.833 -32.5 43.5 -58.5s16 -56.667 16 -92
v-362h-140v330z" />
    <glyph glyph-name="i" unicode="i" horiz-adv-x="278" 
d="M207 540v-540h-140v540h140zM207 729v-125h-140v125h140z" />
    <glyph glyph-name="j" unicode="j" horiz-adv-x="278" 
d="M210 540l-0.000976562 -633.999c0 -44 -9.66699 -75.667 -29 -95s-50.666 -29 -93.999 -29c-24 0 -51.667 1.66699 -83 5v112c8.66699 -2.66699 17 -4 25 -4c15.333 0 26 3.16699 32 9.5s9 17.166 9 32.499v603h140zM209.999 729.001v-125h-140v125h140z" />
    <glyph glyph-name="k" unicode="k" horiz-adv-x="556" 
d="M199 330l177 210h159l-184 -204l197 -336h-164l-129 238l-56 -61v-177h-140v729h140v-399z" />
    <glyph glyph-name="l" unicode="l" horiz-adv-x="278" 
d="M207 729v-729h-140v729h140z" />
    <glyph glyph-name="m" unicode="m" horiz-adv-x="889" 
d="M60 540h139.001v-67c23.333 27.333 46.166 46.833 68.499 58.5s48.833 17.5 79.5 17.5c70.667 0 119.667 -26.667 147 -80c40 53.333 92.667 80 158 80c54 0 96.167 -14.667 126.5 -44s45.5 -70.333 45.5 -123v-382h-140v360c0 21.333 -6.83301 38.333 -20.5 51
s-32.167 19 -55.5 19c-30 0 -53.5 -9.33301 -70.5 -28s-25.5 -44.667 -25.5 -78v-324h-140v360c0 21.333 -6.83301 38.333 -20.5 51s-32.167 19 -55.5 19c-30 0 -53.5 -9.33301 -70.5 -28s-25.5 -44.667 -25.5 -78v-324h-140v540z" />
    <glyph glyph-name="n" unicode="n" horiz-adv-x="611" 
d="M63 540h140v-78c38.667 58 92.667 87 162 87c57.333 0 101.833 -16.333 133.5 -49s47.5 -78.667 47.5 -138v-362h-140v333c0 64.667 -30 97 -90 97c-34 0 -61.333 -9.66699 -82 -29s-31 -45 -31 -77v-324h-140v540z" />
    <glyph glyph-name="o" unicode="o" horiz-adv-x="611" 
d="M301 549c84.667 0 150.499 -25.499 197.499 -76.499s70.5 -122.167 70.5 -213.5c0 -86.667 -24 -155.334 -72 -206.001s-113 -76 -195 -76c-83.333 0 -148.666 25.5 -195.999 76.5s-71 120.833 -71 209.5s23.667 158.5 71 209.5s112.333 76.5 195 76.5zM301.999 436.001
c-38 0 -68.667 -16.001 -92 -48.001s-35 -73.667 -35 -125s11.667 -93 35 -125s54 -48 92 -48c37.333 0 67.833 15.833 91.5 47.5s35.5 72.834 35.5 123.501c0 53.333 -11.5 95.833 -34.5 127.5s-53.833 47.5 -92.5 47.5z" />
    <glyph glyph-name="p" unicode="p" horiz-adv-x="611" 
d="M348 549c68 0 122.667 -27.333 164 -82s62 -123 62 -205s-21.5 -150.167 -64.5 -204.5s-96.833 -81.5 -161.5 -81.5c-66.667 0 -116.667 29.333 -150 88v-282h-140v758h140v-80c33.333 59.333 83.333 89 150 89zM316 432c-35.333 0 -63.833 -15.667 -85.5 -47
s-32.5 -72.333 -32.5 -123s10.833 -91.5 32.5 -122.5s50.167 -46.5 85.5 -46.5c34.667 0 63 15.667 85 47s33 71.333 33 120c0 51.333 -10.833 92.833 -32.5 124.5s-50.167 47.5 -85.5 47.5z" />
    <glyph glyph-name="q" unicode="q" horiz-adv-x="611" 
d="M253 -24c-66.667 0 -120.833 27 -162.5 81s-62.5 122.333 -62.5 205s21.5 151.167 64.5 205.5s96.833 81.5 161.5 81.5c66.667 0 116.667 -29.667 150 -89v80h140v-758h-140v282c-32.667 -58.667 -83 -88 -151 -88zM286.001 432c-35.333 0 -63.833 -15.667 -85.5 -47
s-32.5 -72.333 -32.5 -123s10.833 -91.5 32.5 -122.5s50.167 -46.5 85.5 -46.5c34.667 0 63 15.333 85 46s33 70.667 33 120c0 52.667 -10.833 94.667 -32.5 126s-50.167 47 -85.5 47z" />
    <glyph glyph-name="r" unicode="r" horiz-adv-x="389" 
d="M63 540h140v-106c14.667 36.667 35.334 65 62.001 85s56 30 88 30c6 0 11.667 -0.333008 17 -1v-142c-16.667 2.66699 -31.334 4 -44.001 4c-82 0 -123 -41 -123 -123v-287h-140v540z" />
    <glyph glyph-name="s" unicode="s" horiz-adv-x="556" 
d="M166 157c4.66699 -22.667 14.1699 -39.998 28.5029 -51.998s41.5 -18 81.5 -18c32.667 0 58.167 4.66699 76.5 14s27.5 22.333 27.5 39c0 10.667 -3.5 19.334 -10.5 26.001s-19.167 12.667 -36.5 18l-167 52c-0.666992 0 -4.66699 1.16699 -12 3.5
s-12.5 4.16602 -15.5 5.49902s-8.5 3.5 -16.5 6.5s-14.167 6.16699 -18.5 9.5l-16.5 12.5c-6.66699 5 -11.834 10.5 -15.501 16.5s-7.5 12.833 -11.5 20.5s-7 16.5 -9 26.5s-3 20.667 -3 32c0 55.333 19.833 99.166 59.5 131.499s93.834 48.5 162.501 48.5
c72.667 0 129.667 -16.167 171 -48.5s62.666 -77.166 63.999 -134.499h-135c-0.666992 48.667 -34.334 73 -101.001 73c-24.667 0 -44.334 -4.5 -59.001 -13.5s-22 -21.167 -22 -36.5c0 -10.667 3.33301 -18.834 10 -24.501s19.667 -11.5 39 -17.5l177 -51
c70.667 -20.667 106 -66 106 -136c0 -20.667 -3.66699 -40.834 -11 -60.501s-19.166 -39.167 -35.499 -58.5s-40.833 -34.833 -73.5 -46.5s-71.334 -17.5 -116.001 -17.5c-166 0 -251 60 -255 180h137z" />
    <glyph glyph-name="t" unicode="t" horiz-adv-x="333" 
d="M301 529v-93h-78v-294c0 -24 3 -39.833 9 -47.5s18.333 -11.5 37 -11.5c7.33301 0 18 1 32 3v-98c-22.667 -7.33301 -49.667 -11 -81 -11c-91.333 0 -137 42.333 -137 127v332h-69v93h69v145h140v-145h78z" />
    <glyph glyph-name="u" unicode="u" horiz-adv-x="611" 
d="M541 0h-140v64c-38.667 -58 -92.667 -87 -162 -87c-57.333 0 -101.833 16.333 -133.5 49s-47.5 78.667 -47.5 138v376h140v-347c0 -64.667 30 -97 90 -97c34 0 61.333 9.66699 82 29s31 45 31 77v338h140v-540z" />
    <glyph glyph-name="v" unicode="v" horiz-adv-x="556" 
d="M350 0h-147l-189 540h148l117 -395l109 395h148z" />
    <glyph glyph-name="w" unicode="w" horiz-adv-x="778" 
d="M613 0h-145l-81 381l-86 -381h-144l-152 540h145l86 -378l82 378h140l81 -378l82 378h145z" />
    <glyph glyph-name="x" unicode="x" horiz-adv-x="556" 
d="M355 272l180 -272h-168l-91 168l-92 -168h-168l180 272l-176 268h168l88 -163l87 163h168z" />
    <glyph glyph-name="y" unicode="y" horiz-adv-x="556" 
d="M210 -26l0.00195312 4.00098l-201 562h154l119 -393l112 393h144l-222 -639c0 -0.666992 -1.33301 -5.16699 -4 -13.5s-4.83398 -14 -6.50098 -17s-4.33398 -8.66699 -8.00098 -17s-7.5 -14.333 -11.5 -18s-9.33301 -9 -16 -16s-14.167 -12.333 -22.5 -16
s-17.833 -7.5 -28.5 -11.5s-23 -6.83301 -37 -8.5s-29.333 -2.5 -46 -2.5c-14.667 0 -31.334 1.33301 -50.001 4v105c14.667 -4 27 -6 37 -6c24.667 0 45.334 8.66699 62.001 26s25 38.666 25 63.999z" />
    <glyph glyph-name="z" unicode="z" horiz-adv-x="500" 
d="M459 540v-113l-265 -314h274v-113h-447v113l267 314h-249v113h420z" />
    <glyph glyph-name="braceleft" unicode="{" horiz-adv-x="389" 
d="M118 150c0 29.333 -5.16797 48.666 -15.501 57.999s-30.833 14 -61.5 14l-4 1v92h16c43.333 0.666992 65 21.667 65 63v211c0 40.667 11.5 74.167 34.5 100.5s52.5 39.5 88.5 39.5h76v-99h-37c-30 0 -45 -19 -45 -57v-195c0 -36.667 -6.83301 -62.667 -20.5 -78
s-39.167 -25.666 -76.5 -30.999c37.333 -6 62.833 -16.667 76.5 -32s20.5 -41.333 20.5 -78v-195c0 -24.667 3.33301 -41.667 10 -51s18.334 -14 35.001 -14h37v-99h-76c-36 0 -65.5 13.167 -88.5 39.5s-34.5 59.833 -34.5 100.5v210z" />
    <glyph glyph-name="bar" unicode="|" horiz-adv-x="280" 
d="M180 729v-929h-80v929h80z" />
    <glyph glyph-name="braceright" unicode="}" horiz-adv-x="389" 
d="M271 379c0 -29.333 5.16797 -48.666 15.501 -57.999s30.833 -14 61.5 -14l4 -1v-92h-16c-43.333 -0.666992 -65 -21.667 -65 -63v-211c0 -40.667 -11.5 -74.167 -34.5 -100.5s-52.5 -39.5 -88.5 -39.5h-76v99h37c30 0 45 19 45 57v195c0 36.667 6.83301 62.667 20.5 78
s39.167 25.666 76.5 30.999c-37.333 6 -62.833 16.667 -76.5 32s-20.5 41.333 -20.5 78v195c0 24.667 -3.33301 41.667 -10 51s-18.334 14 -35.001 14h-37v99h76c36 0 65.5 -13.167 88.5 -39.5s34.5 -59.833 34.5 -100.5v-210z" />
    <glyph glyph-name="asciitilde" unicode="~" horiz-adv-x="584" 
d="M388 222c22 0 36.1641 5.16797 42.4971 15.501s9.83301 27.166 10.5 50.499h78c-6 -97.333 -48.333 -146 -127 -146c-30 0 -57.667 8.66699 -83 26l-57 42c-21.333 16 -41.666 24 -60.999 24c-21.333 0 -35.166 -5 -41.499 -15s-10.166 -26.667 -11.499 -50h-78
c4.66699 96.667 47 145 127 145c32 0 59.667 -8.33301 83 -25l57 -42c22.667 -16.667 43 -25 61 -25z" />
    <glyph glyph-name="nonbreakingspace" unicode="&#xa0;" horiz-adv-x="278" 
 />
    <glyph glyph-name="exclamdown" unicode="&#xa1;" horiz-adv-x="333" 
d="M66 -186v210l42 309h67l41 -309v-210h-150zM66 394v146h150v-146h-150z" />
    <glyph glyph-name="cent" unicode="&#xa2;" horiz-adv-x="556" 
d="M303 435l0.000976562 -343.999c22.667 3.33301 40.667 12.5 54 27.5s23.666 37.833 30.999 68.5h134c-5.33301 -60 -28.333 -109.333 -69 -148s-90.667 -59.334 -150 -62.001v-101h-44v102c-69.333 4.66699 -123.833 31.834 -163.5 81.501s-59.5 116.167 -59.5 199.5
c0 86 19 153.833 57 203.5s93.333 78.167 166 85.5v86h44v-85c61.333 -0.666992 112.166 -20.5 152.499 -59.5s62.5 -89.5 66.5 -151.5h-134c-6.66699 30.667 -16.667 53.667 -30 69s-31.666 24.666 -54.999 27.999zM259.001 94.001v339.001
c-55.333 -14.667 -83 -72.334 -83 -173.001c0 -94 27.667 -149.333 83 -166z" />
    <glyph glyph-name="sterling" unicode="&#xa3;" horiz-adv-x="556" 
d="M179 513c0 -10.667 2.82617 -22.998 8.49316 -36.998s13.667 -31.5 24 -52.5s18.5 -38.5 24.5 -52.5h139v-55h-122c10 -21.333 15 -41 15 -59c0 -29.333 -8.66699 -56.833 -26 -82.5s-47.333 -55.167 -90 -88.5c52 24.667 89.333 37 112 37
c14.667 0 35.334 -3.5 62.001 -10.5s48.334 -10.5 65.001 -10.5c31.333 0 66.333 9.66699 105 29l41 -109c-50.667 -30 -99 -45 -145 -45c-23.333 0 -56.166 5.33301 -98.499 16s-75.166 16 -98.499 16c-32.667 0 -69 -10 -109 -30l-55 101c42 28.667 70.833 53.667 86.5 75
s23.5 46.666 23.5 75.999c0 22.667 -7 51 -21 85h-89v55h60c-22.667 39.333 -37.167 67.833 -43.5 85.5s-9.5 37.5 -9.5 59.5c0 56 21.667 103.167 65 141.5s101 57.5 173 57.5c40 0 75 -5.16699 105 -15.5s53.333 -22.833 70 -37.5s30.334 -33.167 41.001 -55.5
s17.834 -42.5 21.501 -60.5s6.5 -38.667 8.5 -62h-132l-1 11c-2 14 -4.66699 26.167 -8 36.5s-8.66602 21.666 -15.999 33.999s-18.5 21.833 -33.5 28.5s-33.167 10 -54.5 10c-28.667 0 -52.167 -8.5 -70.5 -25.5s-27.5 -38.833 -27.5 -65.5z" />
    <glyph glyph-name="currency" unicode="&#xa4;" horiz-adv-x="556" 
d="M388 528l73 73.001l69 -69l-75 -75c18 -36 27 -70.333 27 -103c0 -38 -9.66699 -74 -29 -108l77 -76l-69 -68l-75 75c-22.667 -12.667 -40.5 -20.834 -53.5 -24.501s-28.5 -5.5 -46.5 -5.5c-46 0 -83 10.333 -111 31l-79 -78l-68 69l78 77c-20 36.667 -30 72 -30 106
c0 39.333 9.66699 74.333 29 105l-79 79l69 68l77 -77c34 20.667 70.333 31 109 31c39.333 0 75 -10 107 -30zM280 460.001c-30 0 -55.5 -10.332 -76.5 -30.999s-31.5 -46.334 -31.5 -77.001c0 -29.333 10.5 -54.5 31.5 -75.5s46.167 -31.5 75.5 -31.5s54.5 10.5 75.5 31.5
s31.5 46.5 31.5 76.5c0 29.333 -10.5 54.5 -31.5 75.5s-45.833 31.5 -74.5 31.5z" />
    <glyph glyph-name="yen" unicode="&#xa5;" horiz-adv-x="556" 
d="M497 351v-59h-142v-53h142v-59h-142v-180h-140v180h-145v59h145v53h-145v59h138l-203 353h139l139 -254l134 254h135l-192 -353h137z" />
    <glyph glyph-name="brokenbar" unicode="&#xa6;" horiz-adv-x="280" 
d="M180 729v-389h-80v389h80zM180 189v-389h-80v389h80z" />
    <glyph glyph-name="section" unicode="&#xa7;" horiz-adv-x="556" 
d="M125 428c-0.666992 0.666992 -3.49902 3.33398 -8.49902 8.00098s-8.33301 8 -10 10l-9.5 11c-4.66699 5.33301 -8 10 -10 14s-4.83301 9.16699 -8.5 15.5s-6.33398 12.5 -8.00098 18.5s-3.16699 13 -4.5 21s-2 16.333 -2 25c0 50 19.667 91.167 59 123.5
s89.333 48.5 150 48.5c24.667 0 47.334 -2.5 68.001 -7.5s41.167 -13.5 61.5 -25.5s36.833 -30.5 49.5 -55.5s19.667 -55.167 21 -90.5h-127c-6.66699 51.333 -32.667 77 -78 77c-19.333 0 -34.833 -4.66699 -46.5 -14s-17.5 -21.666 -17.5 -36.999
c0 -14 6.16699 -26.833 18.5 -38.5s36.166 -27.167 71.499 -46.5l127 -70c64.667 -36 97 -87 97 -153c0 -33.333 -7.33301 -60.833 -22 -82.5s-38.667 -40.167 -72 -55.5c46.667 -32.667 70 -77.334 70 -134.001s-20 -102.667 -60 -138s-92.667 -53 -158 -53
c-139.333 0 -209.666 67 -210.999 201h131v-10c1.33301 -26 8 -45.833 20 -59.5s32.333 -20.5 61 -20.5c22.667 0 41 5.66699 55 17s21 26 21 44c0 5.33301 -0.666992 10.5 -2 15.5s-2.5 9.16699 -3.5 12.5s-3.5 7 -7.5 11s-6.83301 7 -8.5 9s-5.33398 4.83301 -11.001 8.5
s-9.33398 6 -11.001 7s-6.16699 3.5 -13.5 7.5s-11.666 6.33301 -12.999 7l-171 100c-52.667 30.667 -79 74.667 -79 132c0 30 6.5 55.167 19.5 75.5s37.167 44.166 72.5 71.499zM337.001 306l-143 76.001c-28 -16.667 -42 -38.334 -42 -65.001
c0 -15.333 3.83301 -28 11.5 -38s21.5 -20.667 41.5 -32l147 -80c30.667 21.333 46 43 46 65c0 16 -4.33301 29.167 -13 39.5s-24.667 21.833 -48 34.5z" />
    <glyph glyph-name="dieresis" unicode="&#xa8;" horiz-adv-x="333" 
d="M319 743v-122h-110v122h110zM123 743v-122h-110v122h110z" />
    <glyph glyph-name="copyright" unicode="&#xa9;" horiz-adv-x="737" 
d="M552 431l-90.0039 0.000976562c-10.667 52 -41.667 78 -93 78c-35.333 0 -63.166 -13.333 -83.499 -40s-30.5 -63.334 -30.5 -110.001s9.83301 -83 29.5 -109s46.834 -39 81.501 -39c58.667 0 90.667 28.667 96 86h92c-2.66699 -52.667 -21 -94 -55 -124
s-79 -45 -135 -45c-61.333 0 -110.166 21 -146.499 63s-54.5 98.333 -54.5 169c0 71.333 18.333 127.833 55 169.5s86.334 62.5 149.001 62.5c52 0 94.833 -14 128.5 -42s52.5 -67.667 56.5 -119zM368.996 743.001c105.333 0 195.332 -37.333 269.999 -112
s112 -164.667 112 -270c0 -106.667 -37.5 -197.167 -112.5 -271.5s-166.5 -111.5 -274.5 -111.5c-103.333 0 -192.166 37.667 -266.499 113s-111.5 165.333 -111.5 270c0 105.333 37.5 195.333 112.5 270s165.167 112 270.5 112zM367.995 671.001
c-83.333 0 -154.833 -30.333 -214.5 -91s-89.5 -133.667 -89.5 -219c0 -84.667 29.667 -157.667 89 -219s130 -92 212 -92c86 0 158.833 30.167 218.5 90.5s89.5 133.833 89.5 220.5c0 85.333 -29.833 158.333 -89.5 219s-131.5 91 -215.5 91z" />
    <glyph glyph-name="ordfeminine" unicode="&#xaa;" horiz-adv-x="370" 
d="M321 340v-78h-284v78h284zM329 410l0.000976562 -10.001h-92c-6 7.33301 -9.33301 18 -10 32c-28.667 -30.667 -61.334 -46 -98.001 -46c-29.333 0 -53 9 -71 27s-27 41.667 -27 71c0 58 31.667 92.333 95 103l34 6c2 0.666992 6 1.33398 12 2.00098
s10.5 1.33398 13.5 2.00098s7.16699 1.66699 12.5 3s9.33301 2.83301 12 4.5s5.5 3.66699 8.5 6s5.16699 5.16602 6.5 8.49902s2 7 2 11c0 20.667 -16.333 31 -49 31c-20 0 -34.333 -3.33301 -43 -10s-14 -18 -16 -34h-78c1.33301 74.667 46.333 112 135 112
s133 -33.333 133 -100v-179c0 -14.667 6.66699 -28 20 -40zM227.001 529.999l-0.00195312 23.001c-7.33301 -4 -19 -7.33301 -35 -10l-29 -6c-17.333 -3.33301 -29.666 -8.33301 -36.999 -15s-11 -16.334 -11 -29.001c0 -26 15.333 -39 46 -39
c20.667 0 36.834 6.66699 48.501 20s17.5 32 17.5 56z" />
    <glyph glyph-name="guillemotleft" unicode="&#xab;" horiz-adv-x="556" 
d="M88 218v114l167 149v-117l-101 -89l101 -89v-114zM301 218v114l167 149v-117l-101 -89l101 -89v-114z" />
    <glyph glyph-name="logicalnot" unicode="&#xac;" horiz-adv-x="584" 
d="M39 376h504l1 -290h-119v170h-385z" />
    <glyph glyph-name="softhyphen" unicode="&#xad;" horiz-adv-x="333" 
d="M298 342v-135h-272v135h272z" />
    <glyph glyph-name="registered" unicode="&#xae;" horiz-adv-x="737" 
d="M288 313v-173.004h-96v443h238c38 0 67.667 -10.667 89 -32s32 -51 32 -89c0 -49.333 -23.333 -85.333 -70 -108c12 -5.33301 20.667 -10.166 26 -14.499s10.5 -9.16602 15.5 -14.499s8.16699 -14.166 9.5 -26.499s2.5 -25.333 3.5 -39s1.83301 -35.167 2.5 -64.5
c0 -16 6.33301 -27.333 19 -34v-21h-103c-9.33301 18 -14 45 -14 81c0 2.66699 0.166992 6.83398 0.5 12.501s0.5 10.167 0.5 13.5v17c0 32.667 -20.333 49 -61 49h-92zM288 393.996l103 -0.00195312c24 0 40.667 3.83301 50 11.5s14 21.834 14 42.501
s-4.66699 34.834 -14 42.501s-26 11.5 -50 11.5h-103v-108zM369 742.994c105.333 0 195.332 -37.333 269.999 -112s112 -164.667 112 -270c0 -106.667 -37.5 -197.167 -112.5 -271.5s-166.5 -111.5 -274.5 -111.5c-103.333 0 -192.166 37.667 -266.499 113
s-111.5 165.333 -111.5 270c0 105.333 37.5 195.333 112.5 270s165.167 112 270.5 112zM367.999 670.994c-83.333 0 -154.833 -30.333 -214.5 -91s-89.5 -133.667 -89.5 -219c0 -84.667 29.667 -157.667 89 -219s130 -92 212 -92c86 0 158.833 30.167 218.5 90.5
s89.5 133.833 89.5 220.5c0 85.333 -29.833 158.333 -89.5 219s-131.5 91 -215.5 91z" />
    <glyph glyph-name="macron" unicode="&#xaf;" horiz-adv-x="333" 
d="M315 719v-79h-299v79h299z" />
    <glyph glyph-name="degree" unicode="&#xb0;" horiz-adv-x="606" 
d="M303 686c41.333 0 76.835 -14.833 106.502 -44.5s44.5 -65.167 44.5 -106.5c0 -42.667 -14.833 -78.667 -44.5 -108s-65.834 -44 -108.501 -44c-40.667 0 -75.834 15 -105.501 45s-44.5 65.667 -44.5 107s14.833 76.833 44.5 106.5s65.5 44.5 107.5 44.5zM303.002 623
c-24.667 0 -45.665 -8.66699 -62.998 -26s-26 -38.333 -26 -63c0 -23.333 8.66699 -43.833 26 -61.5s37.666 -26.5 60.999 -26.5c25.333 0 46.666 8.66699 63.999 26s26 38.333 26 63c0 24 -8.66699 44.667 -26 62s-38 26 -62 26z" />
    <glyph glyph-name="plusminus" unicode="&#xb1;" horiz-adv-x="584" 
d="M527 103v-119h-471v119h471zM527 432v-119h-176v-176h-119v176h-176v119h176v176h119v-176h176z" />
    <glyph glyph-name="twosuperior" unicode="&#xb2;" horiz-adv-x="351" 
d="M328 584c0 -28 -6.66992 -52.334 -20.0029 -73.001s-28.666 -36.667 -45.999 -48s-38.333 -26 -63 -44s-44.667 -36 -60 -54h187v-81h-310c1.33301 30.667 7.5 58 18.5 82s24.5 42.5 40.5 55.5s33.333 25.833 52 38.5s35.834 23.667 51.501 33s28.667 21.333 39 36
s15.5 31.667 15.5 51c0 20 -5.33301 35.667 -16 47s-25.667 17 -45 17s-34.166 -6.16699 -44.499 -18.5s-15.5 -29.833 -15.5 -52.5c0 -1.33301 0.666992 -6.66602 2 -15.999h-92c-0.666992 5.33301 -1 11.333 -1 18c0 46 13.5 81.333 40.5 106s65.5 37 115.5 37
c48.667 0 86 -11.5 112 -34.5s39 -56.167 39 -99.5z" />
    <glyph glyph-name="threesuperior" unicode="&#xb3;" horiz-adv-x="351" 
d="M22 571c4 98 53.332 146.998 147.999 146.998c44 0 79.167 -10.667 105.5 -32s39.5 -49.666 39.5 -84.999c0 -38 -17.333 -67.667 -52 -89c44 -21.333 66 -55.666 66 -102.999c0 -42 -14.5 -75.5 -43.5 -100.5s-67.5 -37.5 -115.5 -37.5
c-48.667 0 -86.5 12.5 -113.5 37.5s-40.833 60.167 -41.5 105.5h92c2.66699 -44 24.334 -66 65.001 -66c18 0 32.833 5.66699 44.5 17s17.5 25.666 17.5 42.999c0 40.667 -28 61.667 -84 63h-16v62h11c50 0 75 19.333 75 58c0 16.667 -4.83301 29.834 -14.5 39.501
s-22.5 14.5 -38.5 14.5c-22 0 -37 -6.33301 -45 -19s-12 -31 -12 -55h-88z" />
    <glyph glyph-name="acute" unicode="&#xb4;" horiz-adv-x="333" 
d="M317 757l-126 -150h-70l70 150h126z" />
    <glyph glyph-name="micro" unicode="&#xb5;" horiz-adv-x="611" 
d="M198 206c0 -73.333 27.9971 -110 83.9971 -110c29.333 0 53.5 10 72.5 30s28.5 45.333 28.5 76v338h140v-390c0 -29.333 2 -48.833 6 -58.5s12 -14.5 24 -14.5c4.66699 0 11.334 1.33301 20.001 4v-87c-22 -11.333 -45.333 -17 -70 -17c-23.333 0 -42 4 -56 12
s-27 22 -39 42c-19.333 -20 -37.666 -34 -54.999 -42s-37.666 -12 -60.999 -12c-40.667 0 -74 12.667 -100 38v-235h-134v760h140v-334z" />
    <glyph glyph-name="paragraph" unicode="&#xb6;" horiz-adv-x="556" 
d="M19 495c0 66 19.832 121.499 59.499 166.499s88.834 67.5 147.501 67.5h303v-72h-43v-848h-98v848h-63v-848h-98v458c-61.333 2.66699 -111.333 25.334 -150 68.001s-58 96 -58 160z" />
    <glyph glyph-name="periodcentered" unicode="&#xb7;" horiz-adv-x="278" 
d="M64 292h124v-123h-124v123z" />
    <glyph glyph-name="cedilla" unicode="&#xb8;" horiz-adv-x="333" 
d="M162 0h42.998l-29 -63c14 4.66699 28 7 42 7c23.333 0 41.833 -6.33301 55.5 -19s20.5 -30 20.5 -52c0 -30 -11.167 -53 -33.5 -69s-54.166 -24 -95.499 -24c-36.667 0 -82.667 9.33301 -138 28l19 52c46 -20 81 -30 105 -30c16 0 29.5 4 40.5 12s16.5 17.667 16.5 29
c0 10.667 -4.66699 19.167 -14 25.5s-21.666 9.5 -36.999 9.5c-16 0 -32.333 -4 -49 -12z" />
    <glyph glyph-name="onesuperior" unicode="&#xb9;" horiz-adv-x="300" 
d="M147 573h-107v61c78 0 124 25 138 75h64v-425h-95v289z" />
    <glyph glyph-name="ordmasculine" unicode="&#xba;" horiz-adv-x="365" 
d="M334 340v-78h-301v78h301zM183 729c50.667 0 90 -15.333 118 -46s42 -73.334 42 -128.001c0 -52 -14.333 -93.167 -43 -123.5s-67.667 -45.5 -117 -45.5s-88.333 15.333 -117 46s-43 72.334 -43 125.001c0 53.333 14.333 95.333 43 126s67.667 46 117 46zM183 661
c-22.667 0 -41 -9.49902 -55 -28.499s-21 -43.833 -21 -74.5s7 -55.667 21 -75s32.333 -29 55 -29s41 9.5 55 28.5s21 43.5 21 73.5c0 31.333 -7 56.666 -21 75.999s-32.333 29 -55 29z" />
    <glyph glyph-name="guillemotright" unicode="&#xbb;" horiz-adv-x="556" 
d="M255 335v-115l-167 -148v117l101 89l-101 89v114zM462 335v-115l-167 -148v117l101 89l-101 89v114z" />
    <glyph glyph-name="onequarter" unicode="&#xbc;" horiz-adv-x="869" 
d="M147 573h-107v61c78 0 124 25 138 75h64v-425h-95v289zM593 715h87l-423 -735h-87zM850 168v-75h-46v-93h-95v93h-179v74l165 258h109v-257h46zM709 168v164l-106 -164h106z" />
    <glyph glyph-name="onehalf" unicode="&#xbd;" horiz-adv-x="869" 
d="M147 573h-107v61c78 0 124 25 138 75h64v-425h-95v289zM587 715h87l-423 -735h-87zM846 300c0 -28 -6.66992 -52.334 -20.0029 -73.001s-28.666 -36.667 -45.999 -48s-38.333 -26 -63 -44s-44.667 -36 -60 -54h187v-81h-310c1.33301 30.667 7.5 58 18.5 82
s24.5 42.5 40.5 55.5s33.333 25.833 52 38.5s35.834 23.667 51.501 33s28.667 21.333 39 36s15.5 31.667 15.5 51c0 20 -5.33301 35.667 -16 47s-25.667 17 -45 17s-34.166 -6.16699 -44.499 -18.5s-15.5 -29.833 -15.5 -52.5c0 -1.33301 0.666992 -6.66602 2 -15.999h-92
c-0.666992 5.33301 -1 11.333 -1 18c0 46 13.5 81.333 40.5 106s65.5 37 115.5 37c48.667 0 86 -11.5 112 -34.5s39 -56.167 39 -99.5z" />
    <glyph glyph-name="threequarters" unicode="&#xbe;" horiz-adv-x="869" 
d="M22 571c4 98 53.332 146.998 147.999 146.998c44 0 79.167 -10.667 105.5 -32s39.5 -49.666 39.5 -84.999c0 -38 -17.333 -67.667 -52 -89c44 -21.333 66 -55.666 66 -102.999c0 -42 -14.5 -75.5 -43.5 -100.5s-67.5 -37.5 -115.5 -37.5
c-48.667 0 -86.5 12.5 -113.5 37.5s-40.833 60.167 -41.5 105.5h92c2.66699 -44 24.334 -66 65.001 -66c18 0 32.833 5.66699 44.5 17s17.5 25.666 17.5 42.999c0 40.667 -28 61.667 -84 63h-16v62h11c50 0 75 19.333 75 58c0 16.667 -4.83301 29.834 -14.5 39.501
s-22.5 14.5 -38.5 14.5c-22 0 -37 -6.33301 -45 -19s-12 -31 -12 -55h-88zM624.999 714.998h87l-423 -735h-87zM849.999 167.998v-75h-46v-93h-95v93h-179v74l165 258h109v-257h46zM708.999 167.998v164l-106 -164h106z" />
    <glyph glyph-name="questiondown" unicode="&#xbf;" horiz-adv-x="611" 
d="M544 59c-0.666992 -43.333 -6.49805 -81.3369 -17.498 -114.004s-24.667 -58.167 -41 -76.5s-35.833 -33.166 -58.5 -44.499s-43.834 -18.833 -63.501 -22.5s-40.5 -5.5 -62.5 -5.5c-73.333 0 -133.166 21.333 -179.499 64s-69.5 98 -69.5 166
c0 42 8.33301 76.667 25 104s48.334 57.333 95.001 90c30 21.333 48.667 38.333 56 51s11 35.334 11 68.001h124v-14c0 -33.333 -5.83301 -62.5 -17.5 -87.5s-25.834 -45.167 -42.501 -60.5s-33.334 -29.666 -50.001 -42.999s-30.834 -28.666 -42.501 -45.999
s-17.5 -37 -17.5 -59c0 -32.667 10 -60 30 -82s45 -33 75 -33c31.333 0 57.5 12.667 78.5 38s31.5 57.333 31.5 96v9v2h136zM223.002 393.996v146h150v-146h-150z" />
    <glyph glyph-name="Agrave" unicode="&#xc0;" horiz-adv-x="722" 
d="M221 936h126l70 -150h-70zM501 147h-273l-49 -147h-153l259 729h166l252 -729h-154zM460 272l-95 285l-95 -285h190z" />
    <glyph glyph-name="Aacute" unicode="&#xc1;" horiz-adv-x="722" 
d="M511 935l-126 -150h-70l70 150h126zM501 147h-273l-49 -147h-153l259 729h166l252 -729h-154zM460 272l-95 285l-95 -285h190z" />
    <glyph glyph-name="Acircumflex" unicode="&#xc2;" horiz-adv-x="722" 
d="M312 936h107l103 -150h-78l-82 100l-82 -100h-76zM501 147h-273l-49 -147h-153l259 729h166l252 -729h-154zM460 272l-95 285l-95 -285h190z" />
    <glyph glyph-name="Atilde" unicode="&#xc3;" horiz-adv-x="722" 
d="M484 928h63.001c-4 -84.667 -35.667 -127 -95 -127c-16 0 -34.333 4 -55 12l-71 26c-12 4 -22 6 -30 6c-12 0 -21 -3.5 -27 -10.5s-10.333 -18.5 -13 -34.5h-63c2 38.667 11.333 69 28 91s38.667 33 66 33c13.333 0 32 -4.33301 56 -13l71 -25
c9.33301 -4 20.666 -6 33.999 -6c21.333 0 33.333 16 36 48zM501.001 147h-273l-49 -147h-153l259 729h166l252 -729h-154zM460.001 272l-95 285l-95 -285h190z" />
    <glyph glyph-name="Adieresis" unicode="&#xc4;" horiz-adv-x="722" 
d="M517 922v-122h-110v122h110zM321 922v-122h-110v122h110zM501 147h-273l-49 -147h-153l259 729h166l252 -729h-154zM460 272l-95 285l-95 -285h190z" />
    <glyph glyph-name="Aring" unicode="&#xc5;" horiz-adv-x="722" 
d="M364 949c24.667 0 45.6689 -8.83105 63.002 -26.498s26 -39.167 26 -64.5c0 -24.667 -8.83301 -45.667 -26.5 -63s-38.834 -26 -63.501 -26s-45.834 8.66699 -63.501 26s-26.5 38.666 -26.5 63.999s8.83301 46.666 26.5 63.999s39.167 26 64.5 26zM364.002 901.002
c-12 0 -22.167 -4.16699 -30.5 -12.5s-12.5 -18.166 -12.5 -29.499s4.16699 -21.166 12.5 -29.499s18.5 -12.5 30.5 -12.5c11.333 0 21 4.16699 29 12.5s12 18.166 12 29.499s-4 21.166 -12 29.499s-17.667 12.5 -29 12.5zM501.002 147.002h-273l-49 -147h-153l259 729h166
l252 -729h-154zM460.002 272.002l-95 285l-95 -285h190z" />
    <glyph glyph-name="AE" unicode="&#xc6;" horiz-adv-x="1000" 
d="M430 152h-223l-53 -152h-153l263 729h682v-125h-366v-165h339v-125h-339v-189h386v-125h-536v152zM430 277v327h-67l-114 -327h181z" />
    <glyph glyph-name="Ccedilla" unicode="&#xc7;" horiz-adv-x="722" 
d="M539 482c-18.667 87.333 -70.6709 130.999 -156.004 130.999c-59.333 0 -105.666 -22.667 -138.999 -68s-50 -108.333 -50 -189c0 -79.333 16.167 -141.333 48.5 -186s77.5 -67 135.5 -67c46.667 0 84 12.667 112 38s44.333 61.333 49 108h146
c-4 -82.667 -33.167 -148.167 -87.5 -196.5s-127.166 -73.5 -218.499 -75.5l-19 -40c13.333 4.66699 27.333 7 42 7c23.333 0 41.833 -6.33301 55.5 -19s20.5 -30 20.5 -52c0 -30 -11.167 -53 -33.5 -69s-54.166 -24 -95.499 -24c-36.667 0 -82.667 9.33301 -138 28l19 52
c46 -20 81 -30 105 -30c16 0 29.5 4 40.5 12s16.5 17.667 16.5 29c0 10.667 -4.66699 19.167 -14 25.5s-21.666 9.5 -36.999 9.5c-16 0 -32.333 -4 -49 -12l43 83c-46 8 -81.5 17.5 -106.5 28.5s-49.5 27.833 -73.5 50.5c-74 70.667 -111 171.334 -111 302.001
c0 118 30 211.333 90 280s141.333 103 244 103c86 0 156.5 -23 211.5 -69s85.833 -109.333 92.5 -190h-143z" />
    <glyph glyph-name="Egrave" unicode="&#xc8;" horiz-adv-x="667" 
d="M207 936h126l70 -150h-70zM229 314v-189h395v-125h-545v729h527v-125h-377v-165h349v-125h-349z" />
    <glyph glyph-name="Eacute" unicode="&#xc9;" horiz-adv-x="667" 
d="M481 936l-126 -150h-70l70 150h126zM229 314v-189h395v-125h-545v729h527v-125h-377v-165h349v-125h-349z" />
    <glyph glyph-name="Ecircumflex" unicode="&#xca;" horiz-adv-x="667" 
d="M294 936h107l103 -150h-78l-82 100l-82 -100h-76zM229 314v-189h395v-125h-545v729h527v-125h-377v-165h349v-125h-349z" />
    <glyph glyph-name="Edieresis" unicode="&#xcb;" horiz-adv-x="667" 
d="M497 922v-122h-110v122h110zM301 922v-122h-110v122h110zM229 314v-189h395v-125h-545v729h527v-125h-377v-165h349v-125h-349z" />
    <glyph glyph-name="Igrave" unicode="&#xcc;" horiz-adv-x="278" 
d="M-10 936h126l70 -150h-70zM213 729v-729h-150v729h150z" />
    <glyph glyph-name="Iacute" unicode="&#xcd;" horiz-adv-x="278" 
d="M290 936l-126 -150h-70l70 150h126zM213 729v-729h-150v729h150z" />
    <glyph glyph-name="Icircumflex" unicode="&#xce;" horiz-adv-x="278" 
d="M89 936h107l103 -150h-78l-82 100l-82 -100h-76zM213 729v-729h-150v729h150z" />
    <glyph glyph-name="Idieresis" unicode="&#xcf;" horiz-adv-x="278" 
d="M292 922v-122h-110v122h110zM96 922v-122h-110v122h110zM213 729v-729h-150v729h150z" />
    <glyph glyph-name="Eth" unicode="&#xd0;" horiz-adv-x="722" 
d="M77 339h-77.001v80h77v310h285c58 0 105 -6.5 141 -19.5s66 -34.5 90 -64.5c28 -34 49.667 -75.667 65 -125s23 -101 23 -155s-7.83301 -105.5 -23.5 -154.5s-37.167 -90.833 -64.5 -125.5c-24 -30 -54.167 -51.667 -90.5 -65s-83.166 -20 -140.499 -20h-285v339z
M536.999 364c0 86 -15 147.5 -45 184.5s-73.333 55.5 -130 55.5h-135v-185h150v-80h-150v-214h135c54.667 0 97.5 17.667 128.5 53s46.5 97.333 46.5 186z" />
    <glyph glyph-name="Ntilde" unicode="&#xd1;" horiz-adv-x="722" 
d="M484 928h63.001c-4 -84.667 -35.667 -127 -95 -127c-16 0 -34.333 4 -55 12l-71 26c-12 4 -22 6 -30 6c-12 0 -21 -3.5 -27 -10.5s-10.333 -18.5 -13 -34.5h-63c2 38.667 11.333 69 28 91s38.667 33 66 33c13.333 0 32 -4.33301 56 -13l71 -25
c9.33301 -4 20.666 -6 33.999 -6c21.333 0 33.333 16 36 48zM511.001 0l-293 504v-504h-150v729h154l289 -496v496h150v-729h-150z" />
    <glyph glyph-name="Ograve" unicode="&#xd2;" horiz-adv-x="778" 
d="M254 936h126l70 -150h-70zM40 359c0 112 32.168 203.667 96.501 275s148.833 107 253.5 107c105.333 0 190.333 -35.5 255 -106.5s97 -164.5 97 -280.5c0 -108 -31.833 -197.833 -95.5 -269.5s-148.834 -107.5 -255.501 -107.5c-106 0 -191 35.667 -255 107
s-96 163 -96 275zM391.001 613c-60.667 0 -109.335 -23.168 -146.002 -69.501s-55 -107.833 -55 -184.5s18.333 -138.167 55 -184.5s85.334 -69.5 146.001 -69.5c60 0 108.5 23 145.5 69s55.5 106.333 55.5 181c0 78.667 -18.167 141.334 -54.5 188.001
s-85.166 70 -146.499 70z" />
    <glyph glyph-name="Oacute" unicode="&#xd3;" horiz-adv-x="778" 
d="M530 936l-126 -150h-70l70 150h126zM40 359c0 112 32.168 203.667 96.501 275s148.833 107 253.5 107c105.333 0 190.333 -35.5 255 -106.5s97 -164.5 97 -280.5c0 -108 -31.833 -197.833 -95.5 -269.5s-148.834 -107.5 -255.501 -107.5c-106 0 -191 35.667 -255 107
s-96 163 -96 275zM391.001 613c-60.667 0 -109.335 -23.168 -146.002 -69.501s-55 -107.833 -55 -184.5s18.333 -138.167 55 -184.5s85.334 -69.5 146.001 -69.5c60 0 108.5 23 145.5 69s55.5 106.333 55.5 181c0 78.667 -18.167 141.334 -54.5 188.001
s-85.166 70 -146.499 70z" />
    <glyph glyph-name="Ocircumflex" unicode="&#xd4;" horiz-adv-x="778" 
d="M340 936h107l103 -150h-78l-82 100l-82 -100h-76zM40 359c0 112 32.168 203.667 96.501 275s148.833 107 253.5 107c105.333 0 190.333 -35.5 255 -106.5s97 -164.5 97 -280.5c0 -108 -31.833 -197.833 -95.5 -269.5s-148.834 -107.5 -255.501 -107.5
c-106 0 -191 35.667 -255 107s-96 163 -96 275zM391.001 613c-60.667 0 -109.335 -23.168 -146.002 -69.501s-55 -107.833 -55 -184.5s18.333 -138.167 55 -184.5s85.334 -69.5 146.001 -69.5c60 0 108.5 23 145.5 69s55.5 106.333 55.5 181
c0 78.667 -18.167 141.334 -54.5 188.001s-85.166 70 -146.499 70z" />
    <glyph glyph-name="Otilde" unicode="&#xd5;" horiz-adv-x="778" 
d="M512 928h63.001c-4 -84.667 -35.667 -127 -95 -127c-16 0 -34.333 4 -55 12l-71 26c-12 4 -22 6 -30 6c-12 0 -21 -3.5 -27 -10.5s-10.333 -18.5 -13 -34.5h-63c2 38.667 11.333 69 28 91s38.667 33 66 33c13.333 0 32 -4.33301 56 -13l71 -25
c9.33301 -4 20.666 -6 33.999 -6c21.333 0 33.333 16 36 48zM40.001 359c0 112 32.168 203.667 96.501 275s148.833 107 253.5 107c105.333 0 190.333 -35.5 255 -106.5s97 -164.5 97 -280.5c0 -108 -31.833 -197.833 -95.5 -269.5s-148.834 -107.5 -255.501 -107.5
c-106 0 -191 35.667 -255 107s-96 163 -96 275zM391.002 613c-60.667 0 -109.335 -23.168 -146.002 -69.501s-55 -107.833 -55 -184.5s18.333 -138.167 55 -184.5s85.334 -69.5 146.001 -69.5c60 0 108.5 23 145.5 69s55.5 106.333 55.5 181
c0 78.667 -18.167 141.334 -54.5 188.001s-85.166 70 -146.499 70z" />
    <glyph glyph-name="Odieresis" unicode="&#xd6;" horiz-adv-x="778" 
d="M544 923v-122h-110v122h110zM348 923v-122h-110v122h110zM40 359c0 112 32.168 203.667 96.501 275s148.833 107 253.5 107c105.333 0 190.333 -35.5 255 -106.5s97 -164.5 97 -280.5c0 -108 -31.833 -197.833 -95.5 -269.5s-148.834 -107.5 -255.501 -107.5
c-106 0 -191 35.667 -255 107s-96 163 -96 275zM391.001 613c-60.667 0 -109.335 -23.168 -146.002 -69.501s-55 -107.833 -55 -184.5s18.333 -138.167 55 -184.5s85.334 -69.5 146.001 -69.5c60 0 108.5 23 145.5 69s55.5 106.333 55.5 181
c0 78.667 -18.167 141.334 -54.5 188.001s-85.166 70 -146.499 70z" />
    <glyph glyph-name="multiply" unicode="&#xd7;" horiz-adv-x="584" 
d="M421 444l84 -84l-129 -129l128 -129l-84 -84l-128 129l-128 -128l-84 84l128 128l-129 128l84 85l129 -129z" />
    <glyph glyph-name="Oslash" unicode="&#xd8;" horiz-adv-x="778" 
d="M740 357c0 -108.667 -31.999 -199.167 -95.999 -271.5s-149.333 -108.5 -256 -108.5c-90.667 0 -165 25 -223 75l-83 -91l-51 46l86 95c-54.667 73.333 -82 159 -82 257c0 111.333 32.333 202.833 97 274.5s150 107.5 256 107.5c91.333 0 168.666 -28 231.999 -84l83 92
l52 -45l-89 -99c49.333 -67.333 74 -150 74 -248zM567.001 497l-311 -344c33.333 -32 77.333 -48 132 -48c61.333 0 110.333 23.333 147 70s55 108.667 55 186c0 50 -7.66699 95.333 -23 136zM214.001 209l314.001 346c-36.667 38.667 -83.334 58 -140.001 58
c-62 0 -111.333 -23.333 -148 -70s-55 -109 -55 -187c0 -55.333 9.66699 -104.333 29 -147z" />
    <glyph glyph-name="Ugrave" unicode="&#xd9;" horiz-adv-x="722" 
d="M228 936h126l70 -150h-70zM365 -23c-26.667 0 -52.5039 2.33301 -77.5039 7s-50.667 13 -77 25s-49.166 27.333 -68.499 46s-35.166 43.5 -47.499 74.5s-18.5 66.167 -18.5 105.5v494h150v-494c0 -86.667 46.333 -130 139 -130s139 43.333 139 130v494h150v-494
c0 -39.333 -6.16699 -74.5 -18.5 -105.5s-28.166 -55.833 -47.499 -74.5s-42.166 -34 -68.499 -46s-52 -20.333 -77 -25s-50.833 -7 -77.5 -7z" />
    <glyph glyph-name="Uacute" unicode="&#xda;" horiz-adv-x="722" 
d="M504 936l-126 -150h-70l70 150h126zM365 -23c-26.667 0 -52.5039 2.33301 -77.5039 7s-50.667 13 -77 25s-49.166 27.333 -68.499 46s-35.166 43.5 -47.499 74.5s-18.5 66.167 -18.5 105.5v494h150v-494c0 -86.667 46.333 -130 139 -130s139 43.333 139 130v494h150v-494
c0 -39.333 -6.16699 -74.5 -18.5 -105.5s-28.166 -55.833 -47.499 -74.5s-42.166 -34 -68.499 -46s-52 -20.333 -77 -25s-50.833 -7 -77.5 -7z" />
    <glyph glyph-name="Ucircumflex" unicode="&#xdb;" horiz-adv-x="722" 
d="M314 936h107l103 -150h-78l-82 100l-82 -100h-76zM365 -23c-26.667 0 -52.5039 2.33301 -77.5039 7s-50.667 13 -77 25s-49.166 27.333 -68.499 46s-35.166 43.5 -47.499 74.5s-18.5 66.167 -18.5 105.5v494h150v-494c0 -86.667 46.333 -130 139 -130s139 43.333 139 130
v494h150v-494c0 -39.333 -6.16699 -74.5 -18.5 -105.5s-28.166 -55.833 -47.499 -74.5s-42.166 -34 -68.499 -46s-52 -20.333 -77 -25s-50.833 -7 -77.5 -7z" />
    <glyph glyph-name="Udieresis" unicode="&#xdc;" horiz-adv-x="722" 
d="M518 922v-122h-110v122h110zM322 922v-122h-110v122h110zM365 -23c-26.667 0 -52.5039 2.33301 -77.5039 7s-50.667 13 -77 25s-49.166 27.333 -68.499 46s-35.166 43.5 -47.499 74.5s-18.5 66.167 -18.5 105.5v494h150v-494c0 -86.667 46.333 -130 139 -130
s139 43.333 139 130v494h150v-494c0 -39.333 -6.16699 -74.5 -18.5 -105.5s-28.166 -55.833 -47.499 -74.5s-42.166 -34 -68.499 -46s-52 -20.333 -77 -25s-50.833 -7 -77.5 -7z" />
    <glyph glyph-name="Yacute" unicode="&#xdd;" horiz-adv-x="667" 
d="M479 936l-126 -150h-70l70 150h126zM419 270v-270h-150v270l-242 459h167l149 -322l139 322h168z" />
    <glyph glyph-name="Thorn" unicode="&#xde;" horiz-adv-x="667" 
d="M398 609c156.667 0 235 -75.667 235 -227c0 -74.667 -19.833 -133.667 -59.5 -177s-93.167 -65 -160.5 -65h-187v-140h-150v729h150v-120h172zM226 265h140c78 0 117 36.333 117 109c0 37.333 -9.5 65 -28.5 83s-48.5 27 -88.5 27h-140v-219z" />
    <glyph glyph-name="germandbls" unicode="&#xdf;" horiz-adv-x="611" 
d="M445 411c12 -2.66699 23.8311 -6.49902 35.498 -11.499s25.5 -13.5 41.5 -25.5s28.833 -29.833 38.5 -53.5s14.5 -51.834 14.5 -84.501c0 -76 -20 -137.167 -60 -183.5s-92.667 -69.5 -158 -69.5c-15.333 0 -39.333 2 -72 6v112c4 0.666992 8.33301 1 13 1l20 1
c34.667 0.666992 62.834 12.5 84.501 35.5s32.5 52.167 32.5 87.5c0 38 -12.167 68 -36.5 90s-57.833 33 -100.5 33h-13v95h9c30 0.666992 53.833 9 71.5 25s26.5 37.333 26.5 64c0 26 -8.66699 46.333 -26 61s-41.333 22 -72 22c-27.333 0 -48.666 -7 -63.999 -21
s-23 -33.333 -23 -58v-537h-140v518c0 64 17.5 115.167 52.5 153.5s96.167 57.5 183.5 57.5c67.333 0 122.333 -17 165 -51s64 -77.667 64 -131c0 -68 -29 -113.333 -87 -136z" />
    <glyph glyph-name="agrave" unicode="&#xe0;" horiz-adv-x="556" 
d="M132 757h126l70 -150h-70zM192 -23c-49.333 0 -89 14.832 -119 44.499s-45 68.834 -45 117.501c0 95.333 53 152 159 170l56 10c1.33301 0 8 0.833008 20 2.5s19.667 3 23 4s9.83301 2.5 19.5 4.5s16.5 4.33301 20.5 7s8.83301 6.16699 14.5 10.5s9.5 9.33301 11.5 15
s3 12.167 3 19.5c0 36 -27 54 -81 54c-34.667 0 -59 -5.33301 -73 -16s-22.667 -30 -26 -58h-135c8.66699 124.667 85.667 187 231 187c147.333 0 221 -55.333 221 -166v-300c0 -24.667 10.667 -46.667 32 -66v-17h-152c-10.667 13.333 -16 31.333 -16 54
c-49.333 -51.333 -104 -77 -164 -77zM355 216.999l0.00195312 38c-12.667 -6 -32.334 -11.667 -59.001 -17l-48 -9c-29.333 -6 -50 -14.667 -62 -26s-18 -27.333 -18 -48c0 -20 6.83301 -35.833 20.5 -47.5s32.167 -17.5 55.5 -17.5c35.333 0 62.666 11 81.999 33
s29 53.333 29 94z" />
    <glyph glyph-name="aacute" unicode="&#xe1;" horiz-adv-x="556" 
d="M411 757l-126 -150h-70l70 150h126zM192 -23c-49.333 0 -89 14.832 -119 44.499s-45 68.834 -45 117.501c0 95.333 53 152 159 170l56 10c1.33301 0 8 0.833008 20 2.5s19.667 3 23 4s9.83301 2.5 19.5 4.5s16.5 4.33301 20.5 7s8.83301 6.16699 14.5 10.5
s9.5 9.33301 11.5 15s3 12.167 3 19.5c0 36 -27 54 -81 54c-34.667 0 -59 -5.33301 -73 -16s-22.667 -30 -26 -58h-135c8.66699 124.667 85.667 187 231 187c147.333 0 221 -55.333 221 -166v-300c0 -24.667 10.667 -46.667 32 -66v-17h-152
c-10.667 13.333 -16 31.333 -16 54c-49.333 -51.333 -104 -77 -164 -77zM355 216.999l0.00195312 38c-12.667 -6 -32.334 -11.667 -59.001 -17l-48 -9c-29.333 -6 -50 -14.667 -62 -26s-18 -27.333 -18 -48c0 -20 6.83301 -35.833 20.5 -47.5s32.167 -17.5 55.5 -17.5
c35.333 0 62.666 11 81.999 33s29 53.333 29 94z" />
    <glyph glyph-name="acircumflex" unicode="&#xe2;" horiz-adv-x="556" 
d="M221 757h107l103 -150h-78l-82 100l-82 -100h-76zM192 -23c-49.333 0 -89 14.832 -119 44.499s-45 68.834 -45 117.501c0 95.333 53 152 159 170l56 10c1.33301 0 8 0.833008 20 2.5s19.667 3 23 4s9.83301 2.5 19.5 4.5s16.5 4.33301 20.5 7s8.83301 6.16699 14.5 10.5
s9.5 9.33301 11.5 15s3 12.167 3 19.5c0 36 -27 54 -81 54c-34.667 0 -59 -5.33301 -73 -16s-22.667 -30 -26 -58h-135c8.66699 124.667 85.667 187 231 187c147.333 0 221 -55.333 221 -166v-300c0 -24.667 10.667 -46.667 32 -66v-17h-152
c-10.667 13.333 -16 31.333 -16 54c-49.333 -51.333 -104 -77 -164 -77zM355 216.999l0.00195312 38c-12.667 -6 -32.334 -11.667 -59.001 -17l-48 -9c-29.333 -6 -50 -14.667 -62 -26s-18 -27.333 -18 -48c0 -20 6.83301 -35.833 20.5 -47.5s32.167 -17.5 55.5 -17.5
c35.333 0 62.666 11 81.999 33s29 53.333 29 94z" />
    <glyph glyph-name="atilde" unicode="&#xe3;" horiz-adv-x="556" 
d="M386 749h63.001c-4 -84.667 -35.667 -127 -95 -127c-16 0 -34.333 4 -55 12l-71 26c-12 4 -22 6 -30 6c-12 0 -21 -3.5 -27 -10.5s-10.333 -18.5 -13 -34.5h-63c2 38.667 11.333 69 28 91s38.667 33 66 33c13.333 0 32 -4.33301 56 -13l71 -25
c9.33301 -4 20.666 -6 33.999 -6c21.333 0 33.333 16 36 48zM192.001 -23c-49.333 0 -89 14.832 -119 44.499s-45 68.834 -45 117.501c0 95.333 53 152 159 170l56 10c1.33301 0 8 0.833008 20 2.5s19.667 3 23 4s9.83301 2.5 19.5 4.5s16.5 4.33301 20.5 7
s8.83301 6.16699 14.5 10.5s9.5 9.33301 11.5 15s3 12.167 3 19.5c0 36 -27 54 -81 54c-34.667 0 -59 -5.33301 -73 -16s-22.667 -30 -26 -58h-135c8.66699 124.667 85.667 187 231 187c147.333 0 221 -55.333 221 -166v-300c0 -24.667 10.667 -46.667 32 -66v-17h-152
c-10.667 13.333 -16 31.333 -16 54c-49.333 -51.333 -104 -77 -164 -77zM355.001 216.999l0.00195312 38c-12.667 -6 -32.334 -11.667 -59.001 -17l-48 -9c-29.333 -6 -50 -14.667 -62 -26s-18 -27.333 -18 -48c0 -20 6.83301 -35.833 20.5 -47.5s32.167 -17.5 55.5 -17.5
c35.333 0 62.666 11 81.999 33s29 53.333 29 94z" />
    <glyph glyph-name="adieresis" unicode="&#xe4;" horiz-adv-x="556" 
d="M425 743v-122h-110v122h110zM229 743v-122h-110v122h110zM192 -23c-49.333 0 -89 14.832 -119 44.499s-45 68.834 -45 117.501c0 95.333 53 152 159 170l56 10c1.33301 0 8 0.833008 20 2.5s19.667 3 23 4s9.83301 2.5 19.5 4.5s16.5 4.33301 20.5 7
s8.83301 6.16699 14.5 10.5s9.5 9.33301 11.5 15s3 12.167 3 19.5c0 36 -27 54 -81 54c-34.667 0 -59 -5.33301 -73 -16s-22.667 -30 -26 -58h-135c8.66699 124.667 85.667 187 231 187c147.333 0 221 -55.333 221 -166v-300c0 -24.667 10.667 -46.667 32 -66v-17h-152
c-10.667 13.333 -16 31.333 -16 54c-49.333 -51.333 -104 -77 -164 -77zM355 216.999l0.00195312 38c-12.667 -6 -32.334 -11.667 -59.001 -17l-48 -9c-29.333 -6 -50 -14.667 -62 -26s-18 -27.333 -18 -48c0 -20 6.83301 -35.833 20.5 -47.5s32.167 -17.5 55.5 -17.5
c35.333 0 62.666 11 81.999 33s29 53.333 29 94z" />
    <glyph glyph-name="aring" unicode="&#xe5;" horiz-adv-x="556" 
d="M273 770c24.667 0 45.6689 -8.83105 63.002 -26.498s26 -39.167 26 -64.5c0 -24.667 -8.83301 -45.667 -26.5 -63s-38.834 -26 -63.501 -26s-45.834 8.66699 -63.501 26s-26.5 38.666 -26.5 63.999s8.83301 46.666 26.5 63.999s39.167 26 64.5 26zM273.002 722.002
c-12 0 -22.167 -4.16699 -30.5 -12.5s-12.5 -18.166 -12.5 -29.499s4.16699 -21.166 12.5 -29.499s18.5 -12.5 30.5 -12.5c11.333 0 21 4.16699 29 12.5s12 18.166 12 29.499s-4 21.166 -12 29.499s-17.667 12.5 -29 12.5zM192.002 -22.998
c-49.333 0 -89 14.832 -119 44.499s-45 68.834 -45 117.501c0 95.333 53 152 159 170l56 10c1.33301 0 8 0.833008 20 2.5s19.667 3 23 4s9.83301 2.5 19.5 4.5s16.5 4.33301 20.5 7s8.83301 6.16699 14.5 10.5s9.5 9.33301 11.5 15s3 12.167 3 19.5c0 36 -27 54 -81 54
c-34.667 0 -59 -5.33301 -73 -16s-22.667 -30 -26 -58h-135c8.66699 124.667 85.667 187 231 187c147.333 0 221 -55.333 221 -166v-300c0 -24.667 10.667 -46.667 32 -66v-17h-152c-10.667 13.333 -16 31.333 -16 54c-49.333 -51.333 -104 -77 -164 -77zM355.002 217.001
l0.00195312 38c-12.667 -6 -32.334 -11.667 -59.001 -17l-48 -9c-29.333 -6 -50 -14.667 -62 -26s-18 -27.333 -18 -48c0 -20 6.83301 -35.833 20.5 -47.5s32.167 -17.5 55.5 -17.5c35.333 0 62.666 11 81.999 33s29 53.333 29 94z" />
    <glyph glyph-name="ae" unicode="&#xe6;" horiz-adv-x="889" 
d="M495 226c0 -94.667 37.9961 -142.001 113.996 -142.001c24 0 45.833 6.5 65.5 19.5s32.5 29.167 38.5 48.5h138c-15.333 -53.333 -45.666 -95.833 -90.999 -127.5s-98.333 -47.5 -159 -47.5c-90.667 0 -157.334 34.667 -200.001 104
c-59.333 -70 -127.666 -105 -204.999 -105c-51.333 0 -92.166 14.833 -122.499 44.5s-45.5 69.834 -45.5 120.501c0 96.667 53 153.667 159 171l56 10c3.33301 0.666992 10.833 1.83398 22.5 3.50098s19.5 3 23.5 4l20 5c9.33301 2.33301 15.833 4.66602 19.5 6.99902
s8 5.5 13 9.5s8.5 8.66699 10.5 14s3 11.333 3 18c0 35.333 -28.333 53 -85 53c-31.333 0 -54.166 -5.5 -68.499 -16.5s-23.166 -30.167 -26.499 -57.5h-131c2 124.667 78 187 228 187c78 0 136.333 -16.667 175 -50c41.333 33.333 93 50 155 50
c30.667 0 60 -4.66699 88 -14s55.167 -24.5 81.5 -45.5s47.333 -52 63 -93s23.5 -89.833 23.5 -146.5c0 -8 -0.333008 -16 -1 -24h-362zM354.996 215.999l0.000976562 38c-14.667 -8.66699 -34.334 -15 -59.001 -19l-48 -7c-53.333 -7.33301 -80 -31.666 -80 -72.999
c0 -20.667 6.83301 -36.834 20.5 -48.501s32.167 -17.5 55.5 -17.5c36 0 63.5 10.833 82.5 32.5s28.5 53.167 28.5 94.5zM495.997 318.999h215.999c-7.33301 82 -43.666 123 -108.999 123s-101 -41 -107 -123z" />
    <glyph glyph-name="ccedilla" unicode="&#xe7;" horiz-adv-x="556" 
d="M174 260c0 -28 2.99609 -53.833 8.99609 -77.5s18 -45 36 -64s41.333 -28.5 70 -28.5c26.667 0 47.667 7.5 63 22.5s27.333 39.833 36 74.5h134c-5.33301 -62 -29.333 -112.5 -72 -151.5s-95 -58.5 -157 -58.5h-2l-17 -40c12 4.66699 25.667 7 41 7
c24 0 42.833 -6.33301 56.5 -19s20.5 -30 20.5 -52c0 -30 -11.167 -53 -33.5 -69s-54.166 -24 -95.499 -24c-38.667 0 -84.667 9.33301 -138 28l19 52c44.667 -20 79.334 -30 104.001 -30c16 0 29.667 4 41 12s17 17.667 17 29c0 10.667 -4.66699 19.167 -14 25.5
s-21.666 9.5 -36.999 9.5c-16.667 0 -33.334 -4 -50.001 -12l43 85c-69.333 9.33301 -122.333 38 -159 86s-55 112.667 -55 194c0 92 22.333 163.333 67 214s107.334 76 188.001 76c67.333 0 121.833 -18.667 163.5 -56s64.834 -89 69.501 -155h-134
c-8 35.333 -19.5 60.5 -34.5 75.5s-36.833 22.5 -65.5 22.5c-76 0 -114 -58.667 -114 -176z" />
    <glyph glyph-name="egrave" unicode="&#xe8;" horiz-adv-x="556" 
d="M133 757h126l70 -150h-70zM272 549c23.333 0 45.999 -2.66699 67.999 -8s44.5 -15 67.5 -29s43 -31.833 60 -53.5s30.833 -50.334 41.5 -86.001s16 -76.5 16 -122.5c0 -8 -0.333008 -16 -1 -24h-362c0.666992 -20.667 2.5 -38.5 5.5 -53.5s8.33301 -29.667 16 -44
s19 -25.333 34 -33s33.833 -11.5 56.5 -11.5c53.333 0 89 22.667 107 68h138c-15.333 -53.333 -45.666 -95.833 -90.999 -127.5s-98.333 -47.5 -159 -47.5c-76.667 0 -137 24.833 -181 74.5s-66 117.834 -66 204.501c0 90.667 22.333 162.167 67 214.5
s105.667 78.5 183 78.5zM378.999 319c-3.33301 39.333 -14.168 69.667 -32.501 91s-43.833 32 -76.5 32c-61.333 0 -96.666 -41 -105.999 -123h215z" />
    <glyph glyph-name="eacute" unicode="&#xe9;" horiz-adv-x="556" 
d="M419 757l-126 -150h-70l70 150h126zM272 549c23.333 0 45.999 -2.66699 67.999 -8s44.5 -15 67.5 -29s43 -31.833 60 -53.5s30.833 -50.334 41.5 -86.001s16 -76.5 16 -122.5c0 -8 -0.333008 -16 -1 -24h-362c0.666992 -20.667 2.5 -38.5 5.5 -53.5
s8.33301 -29.667 16 -44s19 -25.333 34 -33s33.833 -11.5 56.5 -11.5c53.333 0 89 22.667 107 68h138c-15.333 -53.333 -45.666 -95.833 -90.999 -127.5s-98.333 -47.5 -159 -47.5c-76.667 0 -137 24.833 -181 74.5s-66 117.834 -66 204.501
c0 90.667 22.333 162.167 67 214.5s105.667 78.5 183 78.5zM378.999 319c-3.33301 39.333 -14.168 69.667 -32.501 91s-43.833 32 -76.5 32c-61.333 0 -96.666 -41 -105.999 -123h215z" />
    <glyph glyph-name="ecircumflex" unicode="&#xea;" horiz-adv-x="556" 
d="M229 757h107l103 -150h-78l-82 100l-82 -100h-76zM272 549c23.333 0 45.999 -2.66699 67.999 -8s44.5 -15 67.5 -29s43 -31.833 60 -53.5s30.833 -50.334 41.5 -86.001s16 -76.5 16 -122.5c0 -8 -0.333008 -16 -1 -24h-362c0.666992 -20.667 2.5 -38.5 5.5 -53.5
s8.33301 -29.667 16 -44s19 -25.333 34 -33s33.833 -11.5 56.5 -11.5c53.333 0 89 22.667 107 68h138c-15.333 -53.333 -45.666 -95.833 -90.999 -127.5s-98.333 -47.5 -159 -47.5c-76.667 0 -137 24.833 -181 74.5s-66 117.834 -66 204.501
c0 90.667 22.333 162.167 67 214.5s105.667 78.5 183 78.5zM378.999 319c-3.33301 39.333 -14.168 69.667 -32.501 91s-43.833 32 -76.5 32c-61.333 0 -96.666 -41 -105.999 -123h215z" />
    <glyph glyph-name="edieresis" unicode="&#xeb;" horiz-adv-x="556" 
d="M433 743v-122h-110v122h110zM237 743v-122h-110v122h110zM272 549c23.333 0 45.999 -2.66699 67.999 -8s44.5 -15 67.5 -29s43 -31.833 60 -53.5s30.833 -50.334 41.5 -86.001s16 -76.5 16 -122.5c0 -8 -0.333008 -16 -1 -24h-362c0.666992 -20.667 2.5 -38.5 5.5 -53.5
s8.33301 -29.667 16 -44s19 -25.333 34 -33s33.833 -11.5 56.5 -11.5c53.333 0 89 22.667 107 68h138c-15.333 -53.333 -45.666 -95.833 -90.999 -127.5s-98.333 -47.5 -159 -47.5c-76.667 0 -137 24.833 -181 74.5s-66 117.834 -66 204.501
c0 90.667 22.333 162.167 67 214.5s105.667 78.5 183 78.5zM378.999 319c-3.33301 39.333 -14.168 69.667 -32.501 91s-43.833 32 -76.5 32c-61.333 0 -96.666 -41 -105.999 -123h215z" />
    <glyph glyph-name="igrave" unicode="&#xec;" horiz-adv-x="278" 
d="M-10 757h126l70 -150h-70zM207 540v-540h-140v540h140z" />
    <glyph glyph-name="iacute" unicode="&#xed;" horiz-adv-x="278" 
d="M290 757l-126 -150h-70l70 150h126zM207 540v-540h-140v540h140z" />
    <glyph glyph-name="icircumflex" unicode="&#xee;" horiz-adv-x="278" 
d="M89 757h107l103 -150h-78l-82 100l-82 -100h-76zM207 540v-540h-140v540h140z" />
    <glyph glyph-name="idieresis" unicode="&#xef;" horiz-adv-x="278" 
d="M292 743v-122h-110v122h110zM96 743v-122h-110v122h110zM207 540v-540h-140v540h140z" />
    <glyph glyph-name="eth" unicode="&#xf0;" horiz-adv-x="611" 
d="M192 741c24.667 -9.33301 46.5 -19.334 65.5 -30.001s31.167 -17 36.5 -19l87 52l51 -34l-84 -50c75.333 -51.333 131 -108.666 167 -171.999s54 -136.333 54 -219c0 -92 -23.5 -163.667 -70.5 -215s-112.5 -77 -196.5 -77c-83.333 0 -148.666 25.5 -195.999 76.5
s-71 121.5 -71 211.5c0 80.667 22 145.667 66 195s101.667 74 173 74c24 0 52.333 -6.33301 85 -19c-26.667 42.667 -58.334 74.667 -95.001 96l-77 -46l-42 37l70 44c-25.333 15.333 -55.333 31.333 -90 48zM302 428.999c-38 0 -68.499 -15.5 -91.499 -46.5
s-34.5 -71.833 -34.5 -122.5c0 -51.333 11.5 -92.5 34.5 -123.5s53.5 -46.5 91.5 -46.5s68.5 15.333 91.5 46s34.5 71 34.5 121c0 52.667 -11.333 94.5 -34 125.5s-53.334 46.5 -92.001 46.5z" />
    <glyph glyph-name="ntilde" unicode="&#xf1;" horiz-adv-x="611" 
d="M416 749h63.001c-4 -84.667 -35.667 -127 -95 -127c-16 0 -34.333 4 -55 12l-71 26c-12 4 -22 6 -30 6c-12 0 -21 -3.5 -27 -10.5s-10.333 -18.5 -13 -34.5h-63c2 38.667 11.333 69 28 91s38.667 33 66 33c13.333 0 32 -4.33301 56 -13l71 -25
c9.33301 -4 20.666 -6 33.999 -6c21.333 0 33.333 16 36 48zM63.001 540h140v-78c38.667 58 92.667 87 162 87c57.333 0 101.833 -16.333 133.5 -49s47.5 -78.667 47.5 -138v-362h-140v333c0 64.667 -30 97 -90 97c-34 0 -61.333 -9.66699 -82 -29s-31 -45 -31 -77v-324
h-140v540z" />
    <glyph glyph-name="ograve" unicode="&#xf2;" horiz-adv-x="611" 
d="M165 757h126l70 -150h-70zM301 549c84.667 0 150.499 -25.499 197.499 -76.499s70.5 -122.167 70.5 -213.5c0 -86.667 -24 -155.334 -72 -206.001s-113 -76 -195 -76c-83.333 0 -148.666 25.5 -195.999 76.5s-71 120.833 -71 209.5s23.667 158.5 71 209.5
s112.333 76.5 195 76.5zM301.999 436.001c-38 0 -68.667 -16.001 -92 -48.001s-35 -73.667 -35 -125s11.667 -93 35 -125s54 -48 92 -48c37.333 0 67.833 15.833 91.5 47.5s35.5 72.834 35.5 123.501c0 53.333 -11.5 95.833 -34.5 127.5s-53.833 47.5 -92.5 47.5z" />
    <glyph glyph-name="oacute" unicode="&#xf3;" horiz-adv-x="611" 
d="M441 757l-126 -150h-70l70 150h126zM301 549c84.667 0 150.499 -25.499 197.499 -76.499s70.5 -122.167 70.5 -213.5c0 -86.667 -24 -155.334 -72 -206.001s-113 -76 -195 -76c-83.333 0 -148.666 25.5 -195.999 76.5s-71 120.833 -71 209.5s23.667 158.5 71 209.5
s112.333 76.5 195 76.5zM301.999 436.001c-38 0 -68.667 -16.001 -92 -48.001s-35 -73.667 -35 -125s11.667 -93 35 -125s54 -48 92 -48c37.333 0 67.833 15.833 91.5 47.5s35.5 72.834 35.5 123.501c0 53.333 -11.5 95.833 -34.5 127.5s-53.833 47.5 -92.5 47.5z" />
    <glyph glyph-name="ocircumflex" unicode="&#xf4;" horiz-adv-x="611" 
d="M250 759h107l103 -150h-78l-82 100l-82 -100h-76zM301 549c84.667 0 150.499 -25.499 197.499 -76.499s70.5 -122.167 70.5 -213.5c0 -86.667 -24 -155.334 -72 -206.001s-113 -76 -195 -76c-83.333 0 -148.666 25.5 -195.999 76.5s-71 120.833 -71 209.5
s23.667 158.5 71 209.5s112.333 76.5 195 76.5zM301.999 436.001c-38 0 -68.667 -16.001 -92 -48.001s-35 -73.667 -35 -125s11.667 -93 35 -125s54 -48 92 -48c37.333 0 67.833 15.833 91.5 47.5s35.5 72.834 35.5 123.501c0 53.333 -11.5 95.833 -34.5 127.5
s-53.833 47.5 -92.5 47.5z" />
    <glyph glyph-name="otilde" unicode="&#xf5;" horiz-adv-x="611" 
d="M419 749h63.001c-4 -84.667 -35.667 -127 -95 -127c-16 0 -34.333 4 -55 12l-71 26c-12 4 -22 6 -30 6c-12 0 -21 -3.5 -27 -10.5s-10.333 -18.5 -13 -34.5h-63c2 38.667 11.333 69 28 91s38.667 33 66 33c13.333 0 32 -4.33301 56 -13l71 -25
c9.33301 -4 20.666 -6 33.999 -6c21.333 0 33.333 16 36 48zM301.001 549c84.667 0 150.499 -25.499 197.499 -76.499s70.5 -122.167 70.5 -213.5c0 -86.667 -24 -155.334 -72 -206.001s-113 -76 -195 -76c-83.333 0 -148.666 25.5 -195.999 76.5s-71 120.833 -71 209.5
s23.667 158.5 71 209.5s112.333 76.5 195 76.5zM302 436.001c-38 0 -68.667 -16.001 -92 -48.001s-35 -73.667 -35 -125s11.667 -93 35 -125s54 -48 92 -48c37.333 0 67.833 15.833 91.5 47.5s35.5 72.834 35.5 123.501c0 53.333 -11.5 95.833 -34.5 127.5
s-53.833 47.5 -92.5 47.5z" />
    <glyph glyph-name="odieresis" unicode="&#xf6;" horiz-adv-x="611" 
d="M455 743v-122h-110v122h110zM259 743v-122h-110v122h110zM301 549c84.667 0 150.499 -25.499 197.499 -76.499s70.5 -122.167 70.5 -213.5c0 -86.667 -24 -155.334 -72 -206.001s-113 -76 -195 -76c-83.333 0 -148.666 25.5 -195.999 76.5s-71 120.833 -71 209.5
s23.667 158.5 71 209.5s112.333 76.5 195 76.5zM301.999 436.001c-38 0 -68.667 -16.001 -92 -48.001s-35 -73.667 -35 -125s11.667 -93 35 -125s54 -48 92 -48c37.333 0 67.833 15.833 91.5 47.5s35.5 72.834 35.5 123.501c0 53.333 -11.5 95.833 -34.5 127.5
s-53.833 47.5 -92.5 47.5z" />
    <glyph glyph-name="divide" unicode="&#xf7;" horiz-adv-x="584" 
d="M534 291v-119h-484v119h484zM230 474h124v-123h-124v123zM230 112h124v-123h-124v123z" />
    <glyph glyph-name="oslash" unicode="&#xf8;" horiz-adv-x="611" 
d="M126 35l-71.999 -73l-43 40l75 77c-33.333 48 -50 109.333 -50 184c0 88.667 24 158.5 72 209.5s113.667 76.5 197 76.5c71.333 0 132 -20.667 182 -62l68 70l43 -41l-72 -73c31.333 -48.667 47 -108.667 47 -180c0 -88.667 -23.833 -158.5 -71.5 -209.5
s-112.834 -76.5 -195.501 -76.5c-77.333 0 -137.333 19.333 -180 58zM421.001 336l-201 -204c24 -28 52.667 -42 86 -42c36.667 0 67 16 91 48s36 72.667 36 122c0 26.667 -4 52 -12 76zM190.001 184l202 206c-26 31.333 -55.667 47 -89 47c-37.333 0 -67.833 -16 -91.5 -48
s-35.5 -73 -35.5 -123c0 -30.667 4.66699 -58 14 -82z" />
    <glyph glyph-name="ugrave" unicode="&#xf9;" horiz-adv-x="611" 
d="M163 757h126l70 -150h-70zM541 0h-140v64c-38.667 -58 -92.667 -87 -162 -87c-57.333 0 -101.833 16.333 -133.5 49s-47.5 78.667 -47.5 138v376h140v-347c0 -64.667 30 -97 90 -97c34 0 61.333 9.66699 82 29s31 45 31 77v338h140v-540z" />
    <glyph glyph-name="uacute" unicode="&#xfa;" horiz-adv-x="611" 
d="M439 757l-126 -150h-70l70 150h126zM541 0h-140v64c-38.667 -58 -92.667 -87 -162 -87c-57.333 0 -101.833 16.333 -133.5 49s-47.5 78.667 -47.5 138v376h140v-347c0 -64.667 30 -97 90 -97c34 0 61.333 9.66699 82 29s31 45 31 77v338h140v-540z" />
    <glyph glyph-name="ucircumflex" unicode="&#xfb;" horiz-adv-x="611" 
d="M248 757h107l103 -150h-78l-82 100l-82 -100h-76zM541 0h-140v64c-38.667 -58 -92.667 -87 -162 -87c-57.333 0 -101.833 16.333 -133.5 49s-47.5 78.667 -47.5 138v376h140v-347c0 -64.667 30 -97 90 -97c34 0 61.333 9.66699 82 29s31 45 31 77v338h140v-540z" />
    <glyph glyph-name="udieresis" unicode="&#xfc;" horiz-adv-x="611" 
d="M451 743v-122h-110v122h110zM255 743v-122h-110v122h110zM541 0h-140v64c-38.667 -58 -92.667 -87 -162 -87c-57.333 0 -101.833 16.333 -133.5 49s-47.5 78.667 -47.5 138v376h140v-347c0 -64.667 30 -97 90 -97c34 0 61.333 9.66699 82 29s31 45 31 77v338h140v-540z
" />
    <glyph glyph-name="yacute" unicode="&#xfd;" horiz-adv-x="556" 
d="M411 757l-126 -150h-70l70 150h126zM210 -26l0.00195312 4.00098l-201 562h154l119 -393l112 393h144l-222 -639c0 -0.666992 -1.33301 -5.16699 -4 -13.5s-4.83398 -14 -6.50098 -17s-4.33398 -8.66699 -8.00098 -17s-7.5 -14.333 -11.5 -18s-9.33301 -9 -16 -16
s-14.167 -12.333 -22.5 -16s-17.833 -7.5 -28.5 -11.5s-23 -6.83301 -37 -8.5s-29.333 -2.5 -46 -2.5c-14.667 0 -31.334 1.33301 -50.001 4v105c14.667 -4 27 -6 37 -6c24.667 0 45.334 8.66699 62.001 26s25 38.666 25 63.999z" />
    <glyph glyph-name="thorn" unicode="&#xfe;" horiz-adv-x="611" 
d="M198 729v-269.001c33.333 59.333 83.333 89 150 89c64.667 0 118.5 -27.167 161.5 -81.5s64.5 -122.833 64.5 -205.5c0 -81.333 -21.5 -149.166 -64.5 -203.499s-96.833 -81.5 -161.5 -81.5c-66.667 0 -116.667 29 -150 87v-282h-140v947h140zM316 431.999
c-35.333 0 -63.833 -15.667 -85.5 -47s-32.5 -72.333 -32.5 -123c0 -50 10.833 -90.5 32.5 -121.5s50.167 -46.5 85.5 -46.5c34.667 0 63 15.5 85 46.5s33 70.833 33 119.5c0 51.333 -10.833 92.833 -32.5 124.5s-50.167 47.5 -85.5 47.5z" />
    <glyph glyph-name="ydieresis" unicode="&#xff;" horiz-adv-x="556" 
d="M427 743v-122h-110v122h110zM231 743v-122h-110v122h110zM210 -26l0.00195312 4.00098l-201 562h154l119 -393l112 393h144l-222 -639c0 -0.666992 -1.33301 -5.16699 -4 -13.5s-4.83398 -14 -6.50098 -17s-4.33398 -8.66699 -8.00098 -17s-7.5 -14.333 -11.5 -18
s-9.33301 -9 -16 -16s-14.167 -12.333 -22.5 -16s-17.833 -7.5 -28.5 -11.5s-23 -6.83301 -37 -8.5s-29.333 -2.5 -46 -2.5c-14.667 0 -31.334 1.33301 -50.001 4v105c14.667 -4 27 -6 37 -6c24.667 0 45.334 8.66699 62.001 26s25 38.666 25 63.999z" />
    <glyph glyph-name="Amacron" unicode="&#x100;" horiz-adv-x="722" 
d="M514 898v-79h-299v79h299zM501 147h-273l-49 -147h-153l259 729h166l252 -729h-154zM460 272l-95 285l-95 -285h190z" />
    <glyph glyph-name="amacron" unicode="&#x101;" horiz-adv-x="556" 
d="M421 719v-79h-299v79h299zM192 -23c-49.333 0 -89 14.832 -119 44.499s-45 68.834 -45 117.501c0 95.333 53 152 159 170l56 10c1.33301 0 8 0.833008 20 2.5s19.667 3 23 4s9.83301 2.5 19.5 4.5s16.5 4.33301 20.5 7s8.83301 6.16699 14.5 10.5s9.5 9.33301 11.5 15
s3 12.167 3 19.5c0 36 -27 54 -81 54c-34.667 0 -59 -5.33301 -73 -16s-22.667 -30 -26 -58h-135c8.66699 124.667 85.667 187 231 187c147.333 0 221 -55.333 221 -166v-300c0 -24.667 10.667 -46.667 32 -66v-17h-152c-10.667 13.333 -16 31.333 -16 54
c-49.333 -51.333 -104 -77 -164 -77zM355 216.999l0.00195312 38c-12.667 -6 -32.334 -11.667 -59.001 -17l-48 -9c-29.333 -6 -50 -14.667 -62 -26s-18 -27.333 -18 -48c0 -20 6.83301 -35.833 20.5 -47.5s32.167 -17.5 55.5 -17.5c35.333 0 62.666 11 81.999 33
s29 53.333 29 94z" />
    <glyph glyph-name="Abreve" unicode="&#x102;" horiz-adv-x="722" 
d="M493 927l-0.00195312 -11.001c0 -37.333 -12.667 -68.666 -38 -93.999s-56.666 -38 -93.999 -38s-68.666 12.667 -93.999 38s-38 57 -38 95v10h56c6 -44 31.667 -66 77 -66c42.667 0 67.667 22 75 66h56zM500.998 146.999h-273l-49 -147h-153l259 729h166l252 -729h-154z
M459.998 271.999l-95 285l-95 -285h190z" />
    <glyph glyph-name="abreve" unicode="&#x103;" horiz-adv-x="556" 
d="M407 748l-0.00195312 -11.001c0 -37.333 -12.667 -68.666 -38 -93.999s-56.666 -38 -93.999 -38s-68.666 12.667 -93.999 38s-38 57 -38 95v10h56c6 -44 31.667 -66 77 -66c42.667 0 67.667 22 75 66h56zM191.998 -23.001c-49.333 0 -89 14.832 -119 44.499
s-45 68.834 -45 117.501c0 95.333 53 152 159 170l56 10c1.33301 0 8 0.833008 20 2.5s19.667 3 23 4s9.83301 2.5 19.5 4.5s16.5 4.33301 20.5 7s8.83301 6.16699 14.5 10.5s9.5 9.33301 11.5 15s3 12.167 3 19.5c0 36 -27 54 -81 54c-34.667 0 -59 -5.33301 -73 -16
s-22.667 -30 -26 -58h-135c8.66699 124.667 85.667 187 231 187c147.333 0 221 -55.333 221 -166v-300c0 -24.667 10.667 -46.667 32 -66v-17h-152c-10.667 13.333 -16 31.333 -16 54c-49.333 -51.333 -104 -77 -164 -77zM354.998 216.998l0.00195312 38
c-12.667 -6 -32.334 -11.667 -59.001 -17l-48 -9c-29.333 -6 -50 -14.667 -62 -26s-18 -27.333 -18 -48c0 -20 6.83301 -35.833 20.5 -47.5s32.167 -17.5 55.5 -17.5c35.333 0 62.666 11 81.999 33s29 53.333 29 94z" />
    <glyph glyph-name="Aogonek" unicode="&#x104;" horiz-adv-x="722" 
d="M501 147l-273 0.000976562l-49 -147h-153l259 729h167l251 -729c-34.667 -15.333 -62.167 -34.5 -82.5 -57.5s-30.5 -46.833 -30.5 -71.5c0 -35.333 25.333 -53 76 -53c18 0 37 1.66699 57 5v-47c-24 -6 -49 -9 -75 -9c-46.667 0 -83 8.33301 -109 25s-39 40 -39 70
c0 29.333 10.833 56.166 32.5 80.499s52.167 43.5 91.5 57.5h-75zM461 272.001l-95 285l-96 -285h191z" />
    <glyph glyph-name="aogonek" unicode="&#x105;" horiz-adv-x="556" 
d="M192 -23c-49.333 0 -89 14.832 -119 44.499s-45 68.834 -45 117.501c0 95.333 53 152 159 170l56 10c1.33301 0 8 0.833008 20 2.5s19.667 3 23 4s9.83301 2.5 19.5 4.5s16.5 4.33301 20.5 7s8.83301 6.16699 14.5 10.5s9.5 9.33301 11.5 15s3 12.167 3 19.5
c0 36 -27 54 -81 54c-34.667 0 -59 -5.33301 -73 -16s-22.667 -30 -26 -58h-135c8.66699 124.667 85.667 187 231 187c147.333 0 221 -55.333 221 -166v-300c0 -24.667 10.667 -46.667 32 -66v-17c-72.667 -38.667 -109 -81.667 -109 -129c0 -35.333 25.333 -53 76 -53
c16.667 0 35.667 1.66699 57 5v-47c-24 -6 -49 -9 -75 -9c-46.667 0 -83 8.33301 -109 25s-39 39.667 -39 69s11 56.5 33 81.5s52.333 44.167 91 57.5h-77c-10.667 13.333 -16 31.333 -16 54c-49.333 -51.333 -104 -77 -164 -77zM355 216.999l0.00195312 38
c-12.667 -6 -32.334 -11.667 -59.001 -17l-48 -9c-29.333 -6 -50 -14.667 -62 -26s-18 -27.333 -18 -48c0 -20 6.83301 -35.833 20.5 -47.5s32.167 -17.5 55.5 -17.5c35.333 0 62.666 11 81.999 33s29 53.333 29 94z" />
    <glyph glyph-name="Cacute" unicode="&#x106;" horiz-adv-x="722" 
d="M510 936l-126 -150h-70l70 150h126zM539 482c-18.667 87.333 -70.6689 131.001 -156.002 131.001c-59.333 0 -105.666 -22.667 -138.999 -68s-50 -108.333 -50 -189c0 -79.333 16.167 -141.333 48.5 -186s77.5 -67 135.5 -67c46.667 0 84 12.667 112 38
s44.333 61.333 49 108h146c-4.66699 -83.333 -35 -149.5 -91 -198.5s-129.333 -73.5 -220 -73.5c-101.333 0 -181.666 34.167 -240.999 102.5s-89 161.166 -89 278.499c0 118 30 211.333 90 280s141.333 103 244 103c86 0 156.5 -23 211.5 -69s85.833 -109.333 92.5 -190
h-143z" />
    <glyph glyph-name="cacute" unicode="&#x107;" horiz-adv-x="556" 
d="M429 757l-126 -150h-70l70 150h126zM288 436c-76 0 -114.001 -58.998 -114.001 -176.998c0 -52.667 10.167 -94 30.5 -124s48.166 -45 83.499 -45c27.333 0 48.666 7.5 63.999 22.5s27.333 39.833 36 74.5h134c-6.66699 -64.667 -31.167 -115.834 -73.5 -153.501
s-96.166 -56.5 -161.499 -56.5c-80 0 -142.167 24.667 -186.5 74s-66.5 118.666 -66.5 207.999c0 92 22.333 163.333 67 214s107.334 76 188.001 76c67.333 0 121.833 -18.667 163.5 -56s64.834 -89 69.501 -155h-134c-8 35.333 -19.5 60.5 -34.5 75.5
s-36.833 22.5 -65.5 22.5z" />
    <glyph glyph-name="Ccircumflex" unicode="&#x108;" horiz-adv-x="722" 
d="M327 951h107l103 -150h-78l-82 100l-82 -100h-76zM539 482c-18.667 87.333 -70.6689 131.001 -156.002 131.001c-59.333 0 -105.666 -22.667 -138.999 -68s-50 -108.333 -50 -189c0 -79.333 16.167 -141.333 48.5 -186s77.5 -67 135.5 -67c46.667 0 84 12.667 112 38
s44.333 61.333 49 108h146c-4.66699 -83.333 -35 -149.5 -91 -198.5s-129.333 -73.5 -220 -73.5c-101.333 0 -181.666 34.167 -240.999 102.5s-89 161.166 -89 278.499c0 118 30 211.333 90 280s141.333 103 244 103c86 0 156.5 -23 211.5 -69s85.833 -109.333 92.5 -190
h-143z" />
    <glyph glyph-name="ccircumflex" unicode="&#x109;" horiz-adv-x="556" 
d="M238 759h107l103 -150h-78l-82 100l-82 -100h-76zM288 436c-76 0 -114.001 -58.998 -114.001 -176.998c0 -52.667 10.167 -94 30.5 -124s48.166 -45 83.499 -45c27.333 0 48.666 7.5 63.999 22.5s27.333 39.833 36 74.5h134
c-6.66699 -64.667 -31.167 -115.834 -73.5 -153.501s-96.166 -56.5 -161.499 -56.5c-80 0 -142.167 24.667 -186.5 74s-66.5 118.666 -66.5 207.999c0 92 22.333 163.333 67 214s107.334 76 188.001 76c67.333 0 121.833 -18.667 163.5 -56s64.834 -89 69.501 -155h-134
c-8 35.333 -19.5 60.5 -34.5 75.5s-36.833 22.5 -65.5 22.5z" />
    <glyph glyph-name="Cdotaccent" unicode="&#x10a;" horiz-adv-x="722" 
d="M433 923v-122h-110v122h110zM539 482c-18.667 87.333 -70.6689 131.001 -156.002 131.001c-59.333 0 -105.666 -22.667 -138.999 -68s-50 -108.333 -50 -189c0 -79.333 16.167 -141.333 48.5 -186s77.5 -67 135.5 -67c46.667 0 84 12.667 112 38s44.333 61.333 49 108
h146c-4.66699 -83.333 -35 -149.5 -91 -198.5s-129.333 -73.5 -220 -73.5c-101.333 0 -181.666 34.167 -240.999 102.5s-89 161.166 -89 278.499c0 118 30 211.333 90 280s141.333 103 244 103c86 0 156.5 -23 211.5 -69s85.833 -109.333 92.5 -190h-143z" />
    <glyph glyph-name="cdotaccent" unicode="&#x10b;" horiz-adv-x="556" 
d="M344 731v-122h-110v122h110zM288 436c-76 0 -114.001 -58.998 -114.001 -176.998c0 -52.667 10.167 -94 30.5 -124s48.166 -45 83.499 -45c27.333 0 48.666 7.5 63.999 22.5s27.333 39.833 36 74.5h134c-6.66699 -64.667 -31.167 -115.834 -73.5 -153.501
s-96.166 -56.5 -161.499 -56.5c-80 0 -142.167 24.667 -186.5 74s-66.5 118.666 -66.5 207.999c0 92 22.333 163.333 67 214s107.334 76 188.001 76c67.333 0 121.833 -18.667 163.5 -56s64.834 -89 69.501 -155h-134c-8 35.333 -19.5 60.5 -34.5 75.5
s-36.833 22.5 -65.5 22.5z" />
    <glyph glyph-name="Ccaron" unicode="&#x10c;" horiz-adv-x="722" 
d="M427 786h-107l-103 150h78l82 -97l82 97h76zM539 482c-18.667 87.333 -70.6689 131.001 -156.002 131.001c-59.333 0 -105.666 -22.667 -138.999 -68s-50 -108.333 -50 -189c0 -79.333 16.167 -141.333 48.5 -186s77.5 -67 135.5 -67c46.667 0 84 12.667 112 38
s44.333 61.333 49 108h146c-4.66699 -83.333 -35 -149.5 -91 -198.5s-129.333 -73.5 -220 -73.5c-101.333 0 -181.666 34.167 -240.999 102.5s-89 161.166 -89 278.499c0 118 30 211.333 90 280s141.333 103 244 103c86 0 156.5 -23 211.5 -69s85.833 -109.333 92.5 -190
h-143z" />
    <glyph glyph-name="ccaron" unicode="&#x10d;" horiz-adv-x="556" 
d="M341 607h-107l-103 150h78l82 -97l82 97h76zM288 436c-76 0 -114.001 -58.998 -114.001 -176.998c0 -52.667 10.167 -94 30.5 -124s48.166 -45 83.499 -45c27.333 0 48.666 7.5 63.999 22.5s27.333 39.833 36 74.5h134c-6.66699 -64.667 -31.167 -115.834 -73.5 -153.501
s-96.166 -56.5 -161.499 -56.5c-80 0 -142.167 24.667 -186.5 74s-66.5 118.666 -66.5 207.999c0 92 22.333 163.333 67 214s107.334 76 188.001 76c67.333 0 121.833 -18.667 163.5 -56s64.834 -89 69.501 -155h-134c-8 35.333 -19.5 60.5 -34.5 75.5
s-36.833 22.5 -65.5 22.5z" />
    <glyph glyph-name="Dcaron" unicode="&#x10e;" horiz-adv-x="722" 
d="M390 786h-107l-103 150h78l82 -97l82 97h76zM77 0v728.998h285c56 0 102.167 -6.66699 138.5 -20s66.833 -34.666 91.5 -63.999c59.333 -70.667 89 -164 89 -280c0 -117.333 -29.667 -210.666 -89 -279.999c-47.333 -56.667 -124 -85 -230 -85h-285zM227 124.998h135
c112.667 0 169 79.667 169 239c0 160 -56.333 240 -169 240h-135v-479z" />
    <glyph glyph-name="dcaron" unicode="&#x10f;" horiz-adv-x="723" 
d="M614 739l122 -0.000976562v-108c0 -33.333 -11.667 -62.166 -35 -86.499s-52.333 -36.833 -87 -37.5v46c24 4.66699 41.167 14.5 51.5 29.5s15.5 31.5 15.5 49.5h-67v107zM256 -23.001c-66.667 0 -121.166 27.332 -163.499 81.999s-63.5 122.334 -63.5 203.001
c0 81.333 21.667 149.5 65 204.5s97.333 82.5 162 82.5c65.333 0 115 -26.333 149 -79v259h140v-729h-140v55c-34.667 -52 -84.334 -78 -149.001 -78zM287.001 431.998c-34.667 0 -63 -15.834 -85 -47.501s-33 -72.5 -33 -122.5c0 -49.333 11 -89.666 33 -120.999
s50.333 -47 85 -47s63 15.333 85 46s33 70.667 33 120c0 51.333 -10.833 92.833 -32.5 124.5s-50.167 47.5 -85.5 47.5z" />
    <glyph glyph-name="Dcroat" unicode="&#x110;" horiz-adv-x="722" 
d="M77 339h-77.001v80h77v310h285c58 0 105 -6.5 141 -19.5s66 -34.5 90 -64.5c28 -34 49.667 -75.667 65 -125s23 -101 23 -155s-7.83301 -105.5 -23.5 -154.5s-37.167 -90.833 -64.5 -125.5c-24 -30 -54.167 -51.667 -90.5 -65s-83.166 -20 -140.499 -20h-285v339z
M536.999 364c0 86 -15 147.5 -45 184.5s-73.333 55.5 -130 55.5h-135v-185h150v-80h-150v-214h135c54.667 0 97.5 17.667 128.5 53s46.5 97.333 46.5 186z" />
    <glyph glyph-name="dcroat" unicode="&#x111;" horiz-adv-x="611" 
d="M405 596l-132.999 -0.000976562v67h133v66h140v-66h60v-67h-60v-596h-140v55c-34.667 -52 -84.334 -78 -149.001 -78s-118.667 27.333 -162 82s-65 122.334 -65 203.001c0 81.333 21.667 149.5 65 204.5s97.333 82.5 162 82.5c65.333 0 115 -26.333 149 -79v126z
M287.001 431.999c-34.667 0 -63 -15.834 -85 -47.501s-33 -72.5 -33 -122.5c0 -49.333 11 -89.666 33 -120.999s50.333 -47 85 -47s63 15.333 85 46s33 70.667 33 120c0 51.333 -10.833 92.833 -32.5 124.5s-50.167 47.5 -85.5 47.5z" />
    <glyph glyph-name="Emacron" unicode="&#x112;" horiz-adv-x="667" 
d="M494 898v-79h-299v79h299zM229 314v-189h395v-125h-545v729h527v-125h-377v-165h349v-125h-349z" />
    <glyph glyph-name="emacron" unicode="&#x113;" horiz-adv-x="556" 
d="M430 719v-79h-299v79h299zM272 549c23.333 0 45.999 -2.66699 67.999 -8s44.5 -15 67.5 -29s43 -31.833 60 -53.5s30.833 -50.334 41.5 -86.001s16 -76.5 16 -122.5c0 -8 -0.333008 -16 -1 -24h-362c0.666992 -20.667 2.5 -38.5 5.5 -53.5s8.33301 -29.667 16 -44
s19 -25.333 34 -33s33.833 -11.5 56.5 -11.5c53.333 0 89 22.667 107 68h138c-15.333 -53.333 -45.666 -95.833 -90.999 -127.5s-98.333 -47.5 -159 -47.5c-76.667 0 -137 24.833 -181 74.5s-66 117.834 -66 204.501c0 90.667 22.333 162.167 67 214.5
s105.667 78.5 183 78.5zM378.999 319c-3.33301 39.333 -14.168 69.667 -32.501 91s-43.833 32 -76.5 32c-61.333 0 -96.666 -41 -105.999 -123h215z" />
    <glyph glyph-name="Ebreve" unicode="&#x114;" horiz-adv-x="667" 
d="M475 972l-0.00195312 -11.001c0 -37.333 -12.667 -68.666 -38 -93.999s-56.666 -38 -93.999 -38s-68.666 12.667 -93.999 38s-38 57 -38 95v10h56c6 -44 31.667 -66 77 -66c42.667 0 67.667 22 75 66h56zM228.998 313.999v-189h395v-125h-545v729h527v-125h-377v-165h349
v-125h-349z" />
    <glyph glyph-name="ebreve" unicode="&#x115;" horiz-adv-x="556" 
d="M393 783l-0.00195312 -11.001c0 -37.333 -12.667 -68.666 -38 -93.999s-56.666 -38 -93.999 -38s-68.666 12.667 -93.999 38s-38 57 -38 95v10h56c6 -44 31.667 -66 77 -66c42.667 0 67.667 22 75 66h56zM271.998 548.999c23.333 0 45.999 -2.66699 67.999 -8
s44.5 -15 67.5 -29s43 -31.833 60 -53.5s30.833 -50.334 41.5 -86.001s16 -76.5 16 -122.5c0 -8 -0.333008 -16 -1 -24h-362c0.666992 -20.667 2.5 -38.5 5.5 -53.5s8.33301 -29.667 16 -44s19 -25.333 34 -33s33.833 -11.5 56.5 -11.5c53.333 0 89 22.667 107 68h138
c-15.333 -53.333 -45.666 -95.833 -90.999 -127.5s-98.333 -47.5 -159 -47.5c-76.667 0 -137 24.833 -181 74.5s-66 117.834 -66 204.501c0 90.667 22.333 162.167 67 214.5s105.667 78.5 183 78.5zM378.997 318.999c-3.33301 39.333 -14.168 69.667 -32.501 91
s-43.833 32 -76.5 32c-61.333 0 -96.666 -41 -105.999 -123h215z" />
    <glyph glyph-name="Edotaccent" unicode="&#x116;" horiz-adv-x="667" 
d="M400 922v-122h-110v122h110zM229 314v-189h395v-125h-545v729h527v-125h-377v-165h349v-125h-349z" />
    <glyph glyph-name="edotaccent" unicode="&#x117;" horiz-adv-x="556" 
d="M334 743v-122h-110v122h110zM272 549c23.333 0 45.999 -2.66699 67.999 -8s44.5 -15 67.5 -29s43 -31.833 60 -53.5s30.833 -50.334 41.5 -86.001s16 -76.5 16 -122.5c0 -8 -0.333008 -16 -1 -24h-362c0.666992 -20.667 2.5 -38.5 5.5 -53.5s8.33301 -29.667 16 -44
s19 -25.333 34 -33s33.833 -11.5 56.5 -11.5c53.333 0 89 22.667 107 68h138c-15.333 -53.333 -45.666 -95.833 -90.999 -127.5s-98.333 -47.5 -159 -47.5c-76.667 0 -137 24.833 -181 74.5s-66 117.834 -66 204.501c0 90.667 22.333 162.167 67 214.5
s105.667 78.5 183 78.5zM378.999 319c-3.33301 39.333 -14.168 69.667 -32.501 91s-43.833 32 -76.5 32c-61.333 0 -96.666 -41 -105.999 -123h215z" />
    <glyph glyph-name="Eogonek" unicode="&#x118;" horiz-adv-x="667" 
d="M229 314l0.000976562 -189h395v-125c-72.667 -38.667 -109 -81.667 -109 -129c0 -35.333 25.333 -53 76 -53c18 0 37 1.66699 57 5v-47c-26.667 -6 -51.334 -9 -74.001 -9c-47.333 0 -84 8.33301 -110 25s-39 40 -39 70c0 54 41.667 100 125 138h-471v729h527v-125h-377
v-165h349v-125h-349z" />
    <glyph glyph-name="eogonek" unicode="&#x119;" horiz-adv-x="556" 
d="M518 152c-8 -28 -22.001 -55.668 -42.001 -83.001s-39.333 -49.666 -58 -66.999s-35.5 -38 -50.5 -62s-22.5 -47.667 -22.5 -71c0 -34.667 25.333 -52 76 -52c19.333 0 38.333 2 57 6v-47c-26 -6.66699 -52.333 -10 -79 -10c-44.667 0 -79.834 8.66699 -105.501 26
s-38.5 41 -38.5 71c0 22.667 7 43.167 21 61.5s38.667 39.833 74 64.5c-31.333 -8.66699 -58.666 -13 -81.999 -13c-76 0 -136.167 25 -180.5 75s-66.5 118.333 -66.5 205c0 90.667 22.333 162.167 67 214.5s105.667 78.5 183 78.5c30.667 0 59.834 -4.66699 87.501 -14
s54.5 -24.5 80.5 -45.5s46.833 -52 62.5 -93s23.5 -89.833 23.5 -146.5c0 -8 -0.333008 -16 -1 -24h-362c2 -46 10.667 -81.333 26 -106s44 -37 86 -37c52.667 0 88 23 106 69h138zM378.999 318.999c-3.33301 40 -14.499 70.5 -33.499 91.5s-44.167 31.5 -75.5 31.5
c-62.667 0 -98.334 -41 -107.001 -123h216z" />
    <glyph glyph-name="Ecaron" unicode="&#x11a;" horiz-adv-x="667" 
d="M395 786h-107l-103 150h78l82 -97l82 97h76zM229 314v-189h395v-125h-545v729h527v-125h-377v-165h349v-125h-349z" />
    <glyph glyph-name="ecaron" unicode="&#x11b;" horiz-adv-x="556" 
d="M331 607h-107l-103 150h78l82 -97l82 97h76zM272 549c23.333 0 45.999 -2.66699 67.999 -8s44.5 -15 67.5 -29s43 -31.833 60 -53.5s30.833 -50.334 41.5 -86.001s16 -76.5 16 -122.5c0 -8 -0.333008 -16 -1 -24h-362c0.666992 -20.667 2.5 -38.5 5.5 -53.5
s8.33301 -29.667 16 -44s19 -25.333 34 -33s33.833 -11.5 56.5 -11.5c53.333 0 89 22.667 107 68h138c-15.333 -53.333 -45.666 -95.833 -90.999 -127.5s-98.333 -47.5 -159 -47.5c-76.667 0 -137 24.833 -181 74.5s-66 117.834 -66 204.501
c0 90.667 22.333 162.167 67 214.5s105.667 78.5 183 78.5zM378.999 319c-3.33301 39.333 -14.168 69.667 -32.501 91s-43.833 32 -76.5 32c-61.333 0 -96.666 -41 -105.999 -123h215z" />
    <glyph glyph-name="Gcircumflex" unicode="&#x11c;" horiz-adv-x="778" 
d="M330 979h107l103 -150h-78l-82 100l-82 -100h-76zM570 498c-26.667 78 -84.666 117.003 -173.999 117.003c-63.333 0 -113.166 -22.333 -149.499 -67s-54.5 -106.334 -54.5 -185.001c0 -74.667 19.5 -136 58.5 -184s88.833 -72 149.5 -72
c9.33301 0 20.166 1.16699 32.499 3.5s27.166 7 44.499 14s33.333 16.167 48 27.5s27.667 27.166 39 47.499s18.333 43.5 21 69.5h-166v125h292v-394h-90l-18 96c-28 -40.667 -59.333 -70.334 -94 -89.001s-76.667 -28 -126 -28c-98.667 0 -180.167 36 -244.5 108
s-96.5 163.333 -96.5 274c0 113.333 32.667 205.333 98 276s150.333 106 255 106c88 0 160.333 -22 217 -66s89.667 -103.667 99 -179h-141z" />
    <glyph glyph-name="gcircumflex" unicode="&#x11d;" horiz-adv-x="611" 
d="M306 790h107l103 -150h-78l-82 100l-82 -100h-76zM408 540l132.999 -0.00195312v-558c0 -63.333 -22.5 -112.5 -67.5 -147.5s-108.167 -52.5 -189.5 -52.5c-72 0 -129.667 13.833 -173 41.5s-65.333 64.834 -66 111.501h145c11.333 -42 44.333 -63 99 -63
c35.333 0 64 10.167 86 30.5s33 46.833 33 79.5v73c-26 -29.333 -50.167 -49.666 -72.5 -60.999s-49.166 -17 -80.499 -17c-66.667 0 -120.167 25.667 -160.5 77s-60.5 119 -60.5 203c0 83.333 21.333 152.833 64 208.5s96 83.5 160 83.5c60 0 110 -30.667 150 -92v83z
M287.999 431.998c-34 0 -61.5 -16 -82.5 -48s-31.5 -73.667 -31.5 -125c0 -48.667 10.333 -88.334 31 -119.001s47.667 -46 81 -46c36.667 0 66.5 15.333 89.5 46s34.5 70.334 34.5 119.001c0 50 -11.5 91.333 -34.5 124s-52.167 49 -87.5 49z" />
    <glyph glyph-name="Gbreve" unicode="&#x11e;" horiz-adv-x="778" 
d="M530 927l-0.00195312 -11.001c0 -37.333 -12.667 -68.666 -38 -93.999s-56.666 -38 -93.999 -38s-68.666 12.667 -93.999 38s-38 57 -38 95v10h56c6 -44 31.667 -66 77 -66c42.667 0 67.667 22 75 66h56zM569.998 497.999c-26.667 78 -84.666 117.003 -173.999 117.003
c-63.333 0 -113.166 -22.333 -149.499 -67s-54.5 -106.334 -54.5 -185.001c0 -74.667 19.5 -136 58.5 -184s88.833 -72 149.5 -72c9.33301 0 20.166 1.16699 32.499 3.5s27.166 7 44.499 14s33.333 16.167 48 27.5s27.667 27.166 39 47.499s18.333 43.5 21 69.5h-166v125
h292v-394h-90l-18 96c-28 -40.667 -59.333 -70.334 -94 -89.001s-76.667 -28 -126 -28c-98.667 0 -180.167 36 -244.5 108s-96.5 163.333 -96.5 274c0 113.333 32.667 205.333 98 276s150.333 106 255 106c88 0 160.333 -22 217 -66s89.667 -103.667 99 -179h-141z" />
    <glyph glyph-name="gbreve" unicode="&#x11f;" horiz-adv-x="611" 
d="M439 748l-0.00195312 -11.001c0 -37.333 -12.667 -68.666 -38 -93.999s-56.666 -38 -93.999 -38s-68.666 12.667 -93.999 38s-38 57 -38 95v10h56c6 -44 31.667 -66 77 -66c42.667 0 67.667 22 75 66h56zM407.998 539.999l132.999 -0.00195312v-558
c0 -63.333 -22.5 -112.5 -67.5 -147.5s-108.167 -52.5 -189.5 -52.5c-72 0 -129.667 13.833 -173 41.5s-65.333 64.834 -66 111.501h145c11.333 -42 44.333 -63 99 -63c35.333 0 64 10.167 86 30.5s33 46.833 33 79.5v73c-26 -29.333 -50.167 -49.666 -72.5 -60.999
s-49.166 -17 -80.499 -17c-66.667 0 -120.167 25.667 -160.5 77s-60.5 119 -60.5 203c0 83.333 21.333 152.833 64 208.5s96 83.5 160 83.5c60 0 110 -30.667 150 -92v83zM287.997 431.997c-34 0 -61.5 -16 -82.5 -48s-31.5 -73.667 -31.5 -125
c0 -48.667 10.333 -88.334 31 -119.001s47.667 -46 81 -46c36.667 0 66.5 15.333 89.5 46s34.5 70.334 34.5 119.001c0 50 -11.5 91.333 -34.5 124s-52.167 49 -87.5 49z" />
    <glyph glyph-name="Gdotaccent" unicode="&#x120;" horiz-adv-x="778" 
d="M436 951v-122h-110v122h110zM570 498c-26.667 78 -84.666 117.003 -173.999 117.003c-63.333 0 -113.166 -22.333 -149.499 -67s-54.5 -106.334 -54.5 -185.001c0 -74.667 19.5 -136 58.5 -184s88.833 -72 149.5 -72c9.33301 0 20.166 1.16699 32.499 3.5
s27.166 7 44.499 14s33.333 16.167 48 27.5s27.667 27.166 39 47.499s18.333 43.5 21 69.5h-166v125h292v-394h-90l-18 96c-28 -40.667 -59.333 -70.334 -94 -89.001s-76.667 -28 -126 -28c-98.667 0 -180.167 36 -244.5 108s-96.5 163.333 -96.5 274
c0 113.333 32.667 205.333 98 276s150.333 106 255 106c88 0 160.333 -22 217 -66s89.667 -103.667 99 -179h-141z" />
    <glyph glyph-name="gdotaccent" unicode="&#x121;" horiz-adv-x="611" 
d="M412 762v-122h-110v122h110zM408 540l132.999 -0.00195312v-558c0 -63.333 -22.5 -112.5 -67.5 -147.5s-108.167 -52.5 -189.5 -52.5c-72 0 -129.667 13.833 -173 41.5s-65.333 64.834 -66 111.501h145c11.333 -42 44.333 -63 99 -63c35.333 0 64 10.167 86 30.5
s33 46.833 33 79.5v73c-26 -29.333 -50.167 -49.666 -72.5 -60.999s-49.166 -17 -80.499 -17c-66.667 0 -120.167 25.667 -160.5 77s-60.5 119 -60.5 203c0 83.333 21.333 152.833 64 208.5s96 83.5 160 83.5c60 0 110 -30.667 150 -92v83zM287.999 431.998
c-34 0 -61.5 -16 -82.5 -48s-31.5 -73.667 -31.5 -125c0 -48.667 10.333 -88.334 31 -119.001s47.667 -46 81 -46c36.667 0 66.5 15.333 89.5 46s34.5 70.334 34.5 119.001c0 50 -11.5 91.333 -34.5 124s-52.167 49 -87.5 49z" />
    <glyph glyph-name="Gcommaaccent" unicode="&#x122;" horiz-adv-x="778" 
d="M320 -68l122 -0.000976562v-108c0 -33.333 -11.667 -62.166 -35 -86.499s-52.333 -36.833 -87 -37.5v46c24 4.66699 41.167 14.5 51.5 29.5s15.5 31.5 15.5 49.5h-67v107zM570 497.999c-26.667 78 -84.666 117.003 -173.999 117.003
c-63.333 0 -113.166 -22.333 -149.499 -67s-54.5 -106.334 -54.5 -185.001c0 -74.667 19.5 -136 58.5 -184s88.833 -72 149.5 -72c9.33301 0 20.166 1.16699 32.499 3.5s27.166 7 44.499 14s33.333 16.167 48 27.5s27.667 27.166 39 47.499s18.333 43.5 21 69.5h-166v125
h292v-394h-90l-18 96c-28 -40.667 -59.333 -70.334 -94 -89.001s-76.667 -28 -126 -28c-98.667 0 -180.167 36 -244.5 108s-96.5 163.333 -96.5 274c0 113.333 32.667 205.333 98 276s150.333 106 255 106c88 0 160.333 -22 217 -66s89.667 -103.667 99 -179h-141z" />
    <glyph glyph-name="gcommaaccent" unicode="&#x123;" horiz-adv-x="611" 
d="M361 619l-122 0.000976562v108c0 33.333 11.667 62.166 35 86.499s52.333 36.833 87 37.5v-46c-24 -4.66699 -41.167 -14.5 -51.5 -29.5s-15.5 -31.5 -15.5 -49.5h67v-107zM408 540.001l132.999 -0.00195312v-558c0 -63.333 -22.5 -112.5 -67.5 -147.5
s-108.167 -52.5 -189.5 -52.5c-72 0 -129.667 13.833 -173 41.5s-65.333 64.834 -66 111.501h145c11.333 -42 44.333 -63 99 -63c35.333 0 64 10.167 86 30.5s33 46.833 33 79.5v73c-26 -29.333 -50.167 -49.666 -72.5 -60.999s-49.166 -17 -80.499 -17
c-66.667 0 -120.167 25.667 -160.5 77s-60.5 119 -60.5 203c0 83.333 21.333 152.833 64 208.5s96 83.5 160 83.5c60 0 110 -30.667 150 -92v83zM287.999 431.999c-34 0 -61.5 -16 -82.5 -48s-31.5 -73.667 -31.5 -125c0 -48.667 10.333 -88.334 31 -119.001
s47.667 -46 81 -46c36.667 0 66.5 15.333 89.5 46s34.5 70.334 34.5 119.001c0 50 -11.5 91.333 -34.5 124s-52.167 49 -87.5 49z" />
    <glyph glyph-name="Hcircumflex" unicode="&#x124;" horiz-adv-x="722" 
d="M312 979h107l103 -150h-78l-82 100l-82 -100h-76zM507 331h-289v-331h-150v729h150v-273h288v273h151v-729h-150v331z" />
    <glyph glyph-name="hcircumflex" unicode="&#x125;" horiz-adv-x="611" 
d="M253 939h107l103 -150h-78l-82 100l-82 -100h-76zM401 330c0 66.667 -28.6689 100 -86.002 100c-31.333 0 -57.166 -10 -77.499 -30s-30.5 -45.333 -30.5 -76v-324h-140v729h140v-267c38.667 58 91.334 87 158.001 87c21.333 0 41.5 -2.83301 60.5 -8.5
s37.667 -15 56 -28s32.833 -32.5 43.5 -58.5s16 -56.667 16 -92v-362h-140v330z" />
    <glyph glyph-name="Hbar" unicode="&#x126;" horiz-adv-x="722" 
d="M657 599h60v-67h-60v-532h-150v331h-289v-331h-150v532h-60v67h60v130h150v-130h288v130h151v-130zM506 532h-288v-76h288v76z" />
    <glyph glyph-name="hbar" unicode="&#x127;" horiz-adv-x="611" 
d="M401 330c0 66.667 -28.6689 100 -86.002 100c-31.333 0 -57.166 -10 -77.499 -30s-30.5 -45.333 -30.5 -76v-324h-140v596h-59v67h59v66h140v-66h134v-67h-134v-134c38.667 58 91.334 87 158.001 87c21.333 0 41.5 -2.83301 60.5 -8.5s37.667 -15 56 -28
s32.833 -32.5 43.5 -58.5s16 -56.667 16 -92v-362h-140v330z" />
    <glyph glyph-name="Itilde" unicode="&#x128;" horiz-adv-x="278" 
d="M252 957h63.001c-4 -84.667 -35.667 -127 -95 -127c-16 0 -34.333 4 -55 12l-71 26c-12 4 -22 6 -30 6c-12 0 -21 -3.5 -27 -10.5s-10.333 -18.5 -13 -34.5h-63c2 38.667 11.333 69 28 91s38.667 33 66 33c13.333 0 32 -4.33301 56 -13l71 -25
c9.33301 -4 20.666 -6 33.999 -6c21.333 0 33.333 16 36 48zM213.001 729v-729h-150v729h150z" />
    <glyph glyph-name="itilde" unicode="&#x129;" horiz-adv-x="278" 
d="M251 768h63.001c-4 -84.667 -35.667 -127 -95 -127c-16 0 -34.333 4 -55 12l-71 26c-12 4 -22 6 -30 6c-12 0 -21 -3.5 -27 -10.5s-10.333 -18.5 -13 -34.5h-63c2 38.667 11.333 69 28 91s38.667 33 66 33c13.333 0 32 -4.33301 56 -13l71 -25
c9.33301 -4 20.666 -6 33.999 -6c21.333 0 33.333 16 36 48zM207.001 540v-540h-140v540h140z" />
    <glyph glyph-name="Imacron" unicode="&#x12a;" horiz-adv-x="278" 
d="M273.545 898v-79h-271.99v79h271.99zM213 729v-729h-150v729h150z" />
    <glyph glyph-name="imacron" unicode="&#x12b;" horiz-adv-x="278" 
d="M265.856 719v-79h-258.997v79h258.997zM207 540v-540h-140v540h140z" />
    <glyph glyph-name="Ibreve" unicode="&#x12c;" horiz-adv-x="278" 
d="M270 972l-0.00195312 -11.001c0 -37.333 -12.667 -68.666 -38 -93.999s-56.666 -38 -93.999 -38s-68.666 12.667 -93.999 38s-38 57 -38 95v10h56c6 -44 31.667 -66 77 -66c42.667 0 67.667 22 75 66h56zM212.998 728.999v-729h-150v729h150z" />
    <glyph glyph-name="ibreve" unicode="&#x12d;" horiz-adv-x="278" 
d="M269 783l-0.00195312 -11.001c0 -37.333 -12.667 -68.666 -38 -93.999s-56.666 -38 -93.999 -38s-68.666 12.667 -93.999 38s-38 57 -38 95v10h56c6 -44 31.667 -66 77 -66c42.667 0 67.667 22 75 66h56zM206.998 539.999v-540h-140v540h140z" />
    <glyph glyph-name="Iogonek" unicode="&#x12e;" horiz-adv-x="278" 
d="M213 729l-0.000976562 -728.998c-59.333 -42.667 -89 -86.334 -89 -131.001c0 -14.667 5.83301 -26.834 17.5 -36.501s26.834 -14.5 45.501 -14.5c15.333 0 32 1.66699 50 5v-47c-26 -6 -49.333 -9 -70 -9c-41.333 0 -73.833 8.66699 -97.5 26s-35.5 41 -35.5 71
c0 50.667 37.667 96 113 136h-84v729h150z" />
    <glyph glyph-name="iogonek" unicode="&#x12f;" horiz-adv-x="278" 
d="M124 -128c0 -20 6.33203 -33.998 18.999 -41.998s27.334 -12 44.001 -12c10 0 24.667 1.66699 44 5v-47c-26.667 -6 -47.667 -9 -63 -9c-41.333 0 -74 8.66699 -98 26s-36 41 -36 71c0 47.333 36.667 92.666 110 135.999h-77v540h140v-540
c-55.333 -38.667 -83 -81.334 -83 -128.001zM206.999 729.002v-125h-140v125h140z" />
    <glyph glyph-name="Idotaccent" unicode="&#x130;" horiz-adv-x="278" 
d="M193 922v-122h-110v122h110zM213 729v-729h-150v729h150z" />
    <glyph glyph-name="dotlessi" unicode="&#x131;" horiz-adv-x="278" 
d="M207 540v-540h-140v540h140z" />
    <glyph glyph-name="Jcircumflex" unicode="&#x134;" horiz-adv-x="556" 
d="M360 979h107l103 -150h-78l-82 100l-82 -100h-76zM252 -23c-27.333 0 -53.5 3.33203 -78.5 9.99902s-49.167 17.834 -72.5 33.501s-42 38.667 -56 69s-21 66.5 -21 108.5v72h150v-70c0 -33.333 6.33301 -57.5 19 -72.5s33.334 -22.5 62.001 -22.5c26 0 46 7.33301 60 22
s21 35.667 21 63v539h150v-539c0 -68 -20.333 -120.5 -61 -157.5s-98.334 -55.5 -173.001 -55.5z" />
    <glyph glyph-name="jcircumflex" unicode="&#x135;" horiz-adv-x="278" 
d="M89 782h107l103 -150h-78l-82 100l-82 -100h-76zM210 540l-0.000976562 -633.999c0 -44 -9.66699 -75.667 -29 -95s-50.666 -29 -93.999 -29c-24 0 -51.667 1.66699 -83 5v112c8.66699 -2.66699 17 -4 25 -4c15.333 0 26 3.16699 32 9.5s9 17.166 9 32.499v603h140z" />
    <glyph glyph-name="Kcommaaccent" unicode="&#x136;" horiz-adv-x="722" 
d="M320 -68l122 -0.000976562v-108c0 -33.333 -11.667 -62.166 -35 -86.499s-52.333 -36.833 -87 -37.5v46c24 4.66699 41.167 14.5 51.5 29.5s15.5 31.5 15.5 49.5h-67v107zM224 243.999v-244h-150v729h150v-320l285 320h177l-291 -314l322 -415h-179l-239 322z" />
    <glyph glyph-name="kcommaaccent" unicode="&#x137;" horiz-adv-x="556" 
d="M213 -68l122 -0.000976562v-108c0 -33.333 -11.667 -62.166 -35 -86.499s-52.333 -36.833 -87 -37.5v46c24 4.66699 41.167 14.5 51.5 29.5s15.5 31.5 15.5 49.5h-67v107zM199 329.999l177 210h159l-184 -204l197 -336h-164l-129 238l-56 -61v-177h-140v729h140v-399z
" />
    <glyph glyph-name="kgreenlandic" unicode="&#x138;" horiz-adv-x="559" 
d="M200 351l162 189h148l-214 -244l253 -296h-182l-167 198v-198h-140v540h140v-189z" />
    <glyph glyph-name="Lacute" unicode="&#x139;" horiz-adv-x="611" 
d="M298 936l-126 -150h-70l70 150h126zM230 729v-604h349v-125h-499v729h150z" />
    <glyph glyph-name="lacute" unicode="&#x13a;" horiz-adv-x="278" 
d="M278 936l-126 -150h-70l70 150h126zM207 729v-729h-140v729h140z" />
    <glyph glyph-name="Lcommaaccent" unicode="&#x13b;" horiz-adv-x="611" 
d="M271 -68l122 -0.000976562v-108c0 -33.333 -11.667 -62.166 -35 -86.499s-52.333 -36.833 -87 -37.5v46c24 4.66699 41.167 14.5 51.5 29.5s15.5 31.5 15.5 49.5h-67v107zM230 728.999v-604h349v-125h-499v729h150z" />
    <glyph glyph-name="lcommaaccent" unicode="&#x13c;" horiz-adv-x="278" 
d="M72 -68l122 -0.000976562v-108c0 -33.333 -11.667 -62.166 -35 -86.499s-52.333 -36.833 -87 -37.5v46c24 4.66699 41.167 14.5 51.5 29.5s15.5 31.5 15.5 49.5h-67v107zM207 728.999v-729h-140v729h140z" />
    <glyph glyph-name="Lcaron" unicode="&#x13d;" horiz-adv-x="611" 
d="M350 732l122 -0.000976562v-103c0 -40.667 -11.5 -74.5 -34.5 -101.5s-52.167 -41.167 -87.5 -42.5v46c44.667 8.66699 67 37.334 67 86.001v3h-67v112zM230 728.999v-604h349v-125h-499v729h150z" />
    <glyph glyph-name="lcaron" unicode="&#x13e;" horiz-adv-x="422" 
d="M276 732l122 -0.000976562v-103c0 -40.667 -11.5 -74.5 -34.5 -101.5s-52.167 -41.167 -87.5 -42.5v46c44.667 8.66699 67 37.334 67 86.001v3h-67v112zM207 728.999v-729h-140v729h140z" />
    <glyph glyph-name="Ldot" unicode="&#x13f;" horiz-adv-x="611" 
d="M336 442h124v-123h-124v123zM230 729v-604h349v-125h-499v729h150z" />
    <glyph glyph-name="ldot" unicode="&#x140;" horiz-adv-x="556" 
d="M320 428h124v-123h-124v123zM207 729v-729h-140v729h140z" />
    <glyph glyph-name="Lslash" unicode="&#x141;" horiz-adv-x="611" 
d="M230 423l165 112v-88l-165 -113v-209h367v-125h-517v257l-80 -56v89l80 56v383h150v-306z" />
    <glyph glyph-name="lslash" unicode="&#x142;" horiz-adv-x="278" 
d="M196 442l56 40v-79l-56 -40v-363h-140v294l-56 -40v79l56 40v356h140v-287z" />
    <glyph glyph-name="Nacute" unicode="&#x143;" horiz-adv-x="722" 
d="M501 936l-126 -150h-70l70 150h126zM511 0l-293 504v-504h-150v729h154l289 -496v496h150v-729h-150z" />
    <glyph glyph-name="nacute" unicode="&#x144;" horiz-adv-x="611" 
d="M441 757l-126 -150h-70l70 150h126zM63 540h140v-78c38.667 58 92.667 87 162 87c57.333 0 101.833 -16.333 133.5 -49s47.5 -78.667 47.5 -138v-362h-140v333c0 64.667 -30 97 -90 97c-34 0 -61.333 -9.66699 -82 -29s-31 -45 -31 -77v-324h-140v540z" />
    <glyph glyph-name="Ncommaaccent" unicode="&#x145;" horiz-adv-x="722" 
d="M320 -68l122 -0.000976562v-108c0 -33.333 -11.667 -62.166 -35 -86.499s-52.333 -36.833 -87 -37.5v46c24 4.66699 41.167 14.5 51.5 29.5s15.5 31.5 15.5 49.5h-67v107zM511 -0.000976562l-293 504v-504h-150v729h154l289 -496v496h150v-729h-150z" />
    <glyph glyph-name="ncommaaccent" unicode="&#x146;" horiz-adv-x="611" 
d="M240 -68l122 -0.000976562v-108c0 -33.333 -11.667 -62.166 -35 -86.499s-52.333 -36.833 -87 -37.5v46c24 4.66699 41.167 14.5 51.5 29.5s15.5 31.5 15.5 49.5h-67v107zM63 539.999h140v-78c38.667 58 92.667 87 162 87c57.333 0 101.833 -16.333 133.5 -49
s47.5 -78.667 47.5 -138v-362h-140v333c0 64.667 -30 97 -90 97c-34 0 -61.333 -9.66699 -82 -29s-31 -45 -31 -77v-324h-140v540z" />
    <glyph glyph-name="Ncaron" unicode="&#x147;" horiz-adv-x="722" 
d="M417 786h-107l-103 150h78l82 -97l82 97h76zM511 0l-293 504v-504h-150v729h154l289 -496v496h150v-729h-150z" />
    <glyph glyph-name="ncaron" unicode="&#x148;" horiz-adv-x="611" 
d="M351 607h-107l-103 150h78l82 -97l82 97h76zM63 540h140v-78c38.667 58 92.667 87 162 87c57.333 0 101.833 -16.333 133.5 -49s47.5 -78.667 47.5 -138v-362h-140v333c0 64.667 -30 97 -90 97c-34 0 -61.333 -9.66699 -82 -29s-31 -45 -31 -77v-324h-140v540z" />
    <glyph glyph-name="napostrophe" unicode="&#x149;" horiz-adv-x="701" 
d="M20 733l122 -0.000976562v-103c0 -40.667 -11.5 -74.5 -34.5 -101.5s-52.167 -41.167 -87.5 -42.5v46c44.667 8.66699 67 37.334 67 86.001v3h-67v112zM153 539.999h140v-78c38.667 58 92.667 87 162 87c57.333 0 101.833 -16.333 133.5 -49s47.5 -78.667 47.5 -138v-362
h-140v333c0 64.667 -30 97 -90 97c-34 0 -61.333 -9.66699 -82 -29s-31 -45 -31 -77v-324h-140v540z" />
    <glyph glyph-name="Eng" unicode="&#x14a;" horiz-adv-x="720" 
d="M410 -16c-14 0 -27.666 0.833008 -40.999 2.5s-23.5 3.33398 -30.5 5.00098s-14 3.5 -21 5.5s-10.833 3 -11.5 3v123c2 0 14 -2.33301 36 -7s42 -7 60 -7c34 0 64.333 25.333 91 76s40 119.334 40 206.001c0 30.667 -2.16699 58 -6.5 82s-9.66602 43.833 -15.999 59.5
s-14.833 29 -25.5 40s-20.667 19.167 -30 24.5s-20.666 9.5 -33.999 12.5s-24 4.83301 -32 5.5s-18.333 1 -31 1c-44 0 -81.167 -16.333 -111.5 -49s-45.5 -75.334 -45.5 -128.001v-439h-150v729h150v-77c21.333 34.667 46.333 58.167 75 70.5s64.334 18.5 107.001 18.5
c21.333 0 44.666 -3.5 69.999 -10.5s51.666 -18.667 78.999 -35s52.166 -36.333 74.499 -60s40.666 -53.834 54.999 -90.501s21.5 -77 21.5 -121c0 -77.333 -8 -145.5 -24 -204.5s-37.5 -105 -64.5 -138s-56 -57.5 -87 -73.5s-63.5 -24 -97.5 -24z" />
    <glyph glyph-name="eng" unicode="&#x14b;" horiz-adv-x="611" 
d="M63 540l139.999 0.000976562v-78c38.667 58 92.667 87 162 87c57.333 0 101.833 -16.333 133.5 -49s47.5 -78.667 47.5 -138v-456c0 -44 -9.66699 -75.667 -29 -95s-50.666 -29 -93.999 -29c-24 0 -51.667 1.66699 -83 5v112c8.66699 -2.66699 17 -4 25 -4
c15.333 0 26 3.16699 32 9.5s9 17.166 9 32.499v396c0 64.667 -30 97 -90 97c-34 0 -61.333 -9.66699 -82 -29s-31 -45 -31 -77v-324h-140v540z" />
    <glyph glyph-name="Omacron" unicode="&#x14c;" horiz-adv-x="778" 
d="M541 898v-79h-299v79h299zM40 359c0 112 32.168 203.667 96.501 275s148.833 107 253.5 107c105.333 0 190.333 -35.5 255 -106.5s97 -164.5 97 -280.5c0 -108 -31.833 -197.833 -95.5 -269.5s-148.834 -107.5 -255.501 -107.5c-106 0 -191 35.667 -255 107
s-96 163 -96 275zM391.001 613c-60.667 0 -109.335 -23.168 -146.002 -69.501s-55 -107.833 -55 -184.5s18.333 -138.167 55 -184.5s85.334 -69.5 146.001 -69.5c60 0 108.5 23 145.5 69s55.5 106.333 55.5 181c0 78.667 -18.167 141.334 -54.5 188.001
s-85.166 70 -146.499 70z" />
    <glyph glyph-name="omacron" unicode="&#x14d;" horiz-adv-x="611" 
d="M451 719v-79h-299v79h299zM301 549c84.667 0 150.499 -25.499 197.499 -76.499s70.5 -122.167 70.5 -213.5c0 -86.667 -24 -155.334 -72 -206.001s-113 -76 -195 -76c-83.333 0 -148.666 25.5 -195.999 76.5s-71 120.833 -71 209.5s23.667 158.5 71 209.5
s112.333 76.5 195 76.5zM301.999 436.001c-38 0 -68.667 -16.001 -92 -48.001s-35 -73.667 -35 -125s11.667 -93 35 -125s54 -48 92 -48c37.333 0 67.833 15.833 91.5 47.5s35.5 72.834 35.5 123.501c0 53.333 -11.5 95.833 -34.5 127.5s-53.833 47.5 -92.5 47.5z" />
    <glyph glyph-name="Obreve" unicode="&#x14e;" horiz-adv-x="778" 
d="M523 972l-0.00195312 -11.001c0 -37.333 -12.667 -68.666 -38 -93.999s-56.666 -38 -93.999 -38s-68.666 12.667 -93.999 38s-38 57 -38 95v10h56c6 -44 31.667 -66 77 -66c42.667 0 67.667 22 75 66h56zM39.998 358.999c0 112 32.168 203.667 96.501 275
s148.833 107 253.5 107c105.333 0 190.333 -35.5 255 -106.5s97 -164.5 97 -280.5c0 -108 -31.833 -197.833 -95.5 -269.5s-148.834 -107.5 -255.501 -107.5c-106 0 -191 35.667 -255 107s-96 163 -96 275zM390.999 612.999c-60.667 0 -109.335 -23.168 -146.002 -69.501
s-55 -107.833 -55 -184.5s18.333 -138.167 55 -184.5s85.334 -69.5 146.001 -69.5c60 0 108.5 23 145.5 69s55.5 106.333 55.5 181c0 78.667 -18.167 141.334 -54.5 188.001s-85.166 70 -146.499 70z" />
    <glyph glyph-name="obreve" unicode="&#x14f;" horiz-adv-x="611" 
d="M434 783l-0.00195312 -11.001c0 -37.333 -12.667 -68.666 -38 -93.999s-56.666 -38 -93.999 -38s-68.666 12.667 -93.999 38s-38 57 -38 95v10h56c6 -44 31.667 -66 77 -66c42.667 0 67.667 22 75 66h56zM300.998 548.999c84.667 0 150.499 -25.499 197.499 -76.499
s70.5 -122.167 70.5 -213.5c0 -86.667 -24 -155.334 -72 -206.001s-113 -76 -195 -76c-83.333 0 -148.666 25.5 -195.999 76.5s-71 120.833 -71 209.5s23.667 158.5 71 209.5s112.333 76.5 195 76.5zM301.997 436c-38 0 -68.667 -16.001 -92 -48.001s-35 -73.667 -35 -125
s11.667 -93 35 -125s54 -48 92 -48c37.333 0 67.833 15.833 91.5 47.5s35.5 72.834 35.5 123.501c0 53.333 -11.5 95.833 -34.5 127.5s-53.833 47.5 -92.5 47.5z" />
    <glyph glyph-name="Ohungarumlaut" unicode="&#x150;" horiz-adv-x="778" 
d="M461 936l-126 -147h-70l70 147h126zM649 936l-126 -147h-70l70 147h126zM40 359c0 112 32.168 203.667 96.501 275s148.833 107 253.5 107c105.333 0 190.333 -35.5 255 -106.5s97 -164.5 97 -280.5c0 -108 -31.833 -197.833 -95.5 -269.5
s-148.834 -107.5 -255.501 -107.5c-106 0 -191 35.667 -255 107s-96 163 -96 275zM391.001 613c-60.667 0 -109.335 -23.168 -146.002 -69.501s-55 -107.833 -55 -184.5s18.333 -138.167 55 -184.5s85.334 -69.5 146.001 -69.5c60 0 108.5 23 145.5 69
s55.5 106.333 55.5 181c0 78.667 -18.167 141.334 -54.5 188.001s-85.166 70 -146.499 70z" />
    <glyph glyph-name="ohungarumlaut" unicode="&#x151;" horiz-adv-x="611" 
d="M371 757l-126 -147h-70l70 147h126zM559 757l-126 -147h-70l70 147h126zM301 549c84.667 0 150.499 -25.499 197.499 -76.499s70.5 -122.167 70.5 -213.5c0 -86.667 -24 -155.334 -72 -206.001s-113 -76 -195 -76c-83.333 0 -148.666 25.5 -195.999 76.5
s-71 120.833 -71 209.5s23.667 158.5 71 209.5s112.333 76.5 195 76.5zM301.999 436.001c-38 0 -68.667 -16.001 -92 -48.001s-35 -73.667 -35 -125s11.667 -93 35 -125s54 -48 92 -48c37.333 0 67.833 15.833 91.5 47.5s35.5 72.834 35.5 123.501
c0 53.333 -11.5 95.833 -34.5 127.5s-53.833 47.5 -92.5 47.5z" />
    <glyph glyph-name="OE" unicode="&#x152;" horiz-adv-x="1000" 
d="M624 314l0.000976562 -189h346v-125h-490v59c-24.667 -30.667 -48.167 -52 -70.5 -64s-50.5 -18 -84.5 -18c-86.667 0 -157.834 35.833 -213.501 107.5s-83.5 163.167 -83.5 274.5c0 112.667 28 204.5 84 275.5s128.333 106.5 217 106.5c32 0 59.167 -4.83301 81.5 -14.5
s45.5 -26.167 69.5 -49.5v52h471v-125h-327v-165h299v-125h-299zM474.001 178l-0.000976562 362c-28 48.667 -67.333 73 -118 73c-53.333 0 -96.333 -23.167 -129 -69.5s-49 -107.833 -49 -184.5c0 -76 16.333 -137.333 49 -184s75.334 -70 128.001 -70
c51.333 0 91 24.333 119 73z" />
    <glyph glyph-name="oe" unicode="&#x153;" horiz-adv-x="953" 
d="M569 226c2 -94.667 40 -141.999 114 -141.999c24.667 0 46.667 6.33301 66 19s32.333 29 39 49h138c-16 -53.333 -46.667 -95.833 -92 -127.5s-98 -47.5 -158 -47.5c-75.333 0 -135 25 -179 75c-51.333 -50 -116.333 -75 -195 -75c-83.333 0 -148.666 25.5 -195.999 76.5
s-71 120.833 -71 209.5s23.667 158.5 71 209.5s112.666 76.5 195.999 76.5c81.333 0 146.333 -25.333 195 -76c43.333 50.667 103.333 76 180 76c24 0 47.167 -2.66699 69.5 -8s45 -15 68 -29s43 -31.833 60 -53.5s30.833 -50.334 41.5 -86.001s16 -76.5 16 -122.5
c0 -8 -0.333008 -16 -1 -24h-362zM302 436.001c-38 0 -68.667 -16.001 -92 -48.001s-35 -73.667 -35 -125s11.667 -93 35 -125s54 -48 92 -48c37.333 0 67.833 15.833 91.5 47.5s35.5 72.834 35.5 123.501c0 53.333 -11.5 95.833 -34.5 127.5s-53.833 47.5 -92.5 47.5z
M786 319c-4 40 -15.168 70.5 -33.501 91.5s-43.166 31.5 -74.499 31.5c-64 0 -99.667 -41 -107 -123h215z" />
    <glyph glyph-name="Racute" unicode="&#x154;" horiz-adv-x="722" 
d="M495 936l-126 -150h-70l70 150h126zM493 125c0 20 0.333008 35.667 1 47s1 21.333 1 30c0 30.667 -7.33301 52.834 -22 66.501s-38.334 20.5 -71.001 20.5h-172v-289h-150v729h391c37.333 0 69.5 -6.33301 96.5 -19s47.333 -29.334 61 -50.001s23.5 -41.5 29.5 -62.5
s9 -42.833 9 -65.5c0 -88 -41 -148 -123 -180c18 -7.33301 31.333 -13.166 40 -17.499s17.5 -11.5 26.5 -21.5s15 -19 18 -27s6 -22.667 9 -44s4.83301 -42.333 5.5 -63s1.33398 -51.334 2.00098 -92.001c0 -28 10.667 -48 32 -60v-27h-161
c-9.33301 17.333 -15.5 34 -18.5 50s-4.5 41 -4.5 75zM517 511c0 37.333 -8.66699 62.167 -26 74.5s-44 18.5 -80 18.5h-181v-190h181c35.333 0 61.833 6.33301 79.5 19s26.5 38.667 26.5 78z" />
    <glyph glyph-name="racute" unicode="&#x155;" horiz-adv-x="389" 
d="M349 757l-126 -150h-70l70 150h126zM63 540h140v-106c14.667 36.667 35.334 65 62.001 85s56 30 88 30c6 0 11.667 -0.333008 17 -1v-142c-16.667 2.66699 -31.334 4 -44.001 4c-82 0 -123 -41 -123 -123v-287h-140v540z" />
    <glyph glyph-name="Rcommaaccent" unicode="&#x156;" horiz-adv-x="722" 
d="M311 -68l122 -0.000976562v-108c0 -33.333 -11.667 -62.166 -35 -86.499s-52.333 -36.833 -87 -37.5v46c24 4.66699 41.167 14.5 51.5 29.5s15.5 31.5 15.5 49.5h-67v107zM493 124.999c0 20 0.333008 35.667 1 47s1 21.333 1 30c0 30.667 -7.33301 52.834 -22 66.501
s-38.334 20.5 -71.001 20.5h-172v-289h-150v729h391c37.333 0 69.5 -6.33301 96.5 -19s47.333 -29.334 61 -50.001s23.5 -41.5 29.5 -62.5s9 -42.833 9 -65.5c0 -88 -41 -148 -123 -180c18 -7.33301 31.333 -13.166 40 -17.499s17.5 -11.5 26.5 -21.5s15 -19 18 -27
s6 -22.667 9 -44s4.83301 -42.333 5.5 -63s1.33398 -51.334 2.00098 -92.001c0 -28 10.667 -48 32 -60v-27h-161c-9.33301 17.333 -15.5 34 -18.5 50s-4.5 41 -4.5 75zM517 510.999c0 37.333 -8.66699 62.167 -26 74.5s-44 18.5 -80 18.5h-181v-190h181
c35.333 0 61.833 6.33301 79.5 19s26.5 38.667 26.5 78z" />
    <glyph glyph-name="rcommaaccent" unicode="&#x157;" horiz-adv-x="389" 
d="M84 -68l122 -0.000976562v-108c0 -33.333 -11.667 -62.166 -35 -86.499s-52.333 -36.833 -87 -37.5v46c24 4.66699 41.167 14.5 51.5 29.5s15.5 31.5 15.5 49.5h-67v107zM63 539.999h140v-106c14.667 36.667 35.334 65 62.001 85s56 30 88 30c6 0 11.667 -0.333008 17 -1
v-142c-16.667 2.66699 -31.334 4 -44.001 4c-82 0 -123 -41 -123 -123v-287h-140v540z" />
    <glyph glyph-name="Rcaron" unicode="&#x158;" horiz-adv-x="722" 
d="M411 786h-107l-103 150h78l82 -97l82 97h76zM493 125c0 20 0.333008 35.667 1 47s1 21.333 1 30c0 30.667 -7.33301 52.834 -22 66.501s-38.334 20.5 -71.001 20.5h-172v-289h-150v729h391c37.333 0 69.5 -6.33301 96.5 -19s47.333 -29.334 61 -50.001
s23.5 -41.5 29.5 -62.5s9 -42.833 9 -65.5c0 -88 -41 -148 -123 -180c18 -7.33301 31.333 -13.166 40 -17.499s17.5 -11.5 26.5 -21.5s15 -19 18 -27s6 -22.667 9 -44s4.83301 -42.333 5.5 -63s1.33398 -51.334 2.00098 -92.001c0 -28 10.667 -48 32 -60v-27h-161
c-9.33301 17.333 -15.5 34 -18.5 50s-4.5 41 -4.5 75zM517 511c0 37.333 -8.66699 62.167 -26 74.5s-44 18.5 -80 18.5h-181v-190h181c35.333 0 61.833 6.33301 79.5 19s26.5 38.667 26.5 78z" />
    <glyph glyph-name="rcaron" unicode="&#x159;" horiz-adv-x="389" 
d="M265 607h-107l-103 150h78l82 -97l82 97h76zM63 540h140v-106c14.667 36.667 35.334 65 62.001 85s56 30 88 30c6 0 11.667 -0.333008 17 -1v-142c-16.667 2.66699 -31.334 4 -44.001 4c-82 0 -123 -41 -123 -123v-287h-140v540z" />
    <glyph glyph-name="Sacute" unicode="&#x15a;" horiz-adv-x="667" 
d="M465 936l-126 -150h-70l70 150h126zM607 507l-139.996 -0.00292969c-5.33301 76 -56.333 114 -153 114c-38.667 0 -69.334 -8.16699 -92.001 -24.5s-34 -38.166 -34 -65.499c0 -26.667 9.66699 -46.5 29 -59.5s55.666 -24.833 108.999 -35.5l114 -22
c67.333 -13.333 116.333 -35.833 147 -67.5s46 -76.167 46 -133.5c0 -74 -26.333 -131.833 -79 -173.5s-126 -62.5 -220 -62.5c-93.333 0 -165.833 20.667 -217.5 62s-79.834 101 -84.501 179h146c2.66699 -39.333 18 -69.333 46 -90s67.333 -31 118 -31
c45.333 0 81.166 8.66699 107.499 26s39.5 41.333 39.5 72c0 29.333 -10.333 52 -31 68s-56 28.667 -106 38l-102 20c-74 14 -126.667 36 -158 66s-47 73.333 -47 130c0 71.333 24.167 126.5 72.5 165.5s116.166 58.5 203.499 58.5c25.333 0 49.833 -1.66699 73.5 -5
s48.834 -10.166 75.501 -20.499s49.667 -23.666 69 -39.999s35.5 -39 48.5 -68s19.5 -62.5 19.5 -100.5z" />
    <glyph glyph-name="sacute" unicode="&#x15b;" horiz-adv-x="556" 
d="M419 757l-126 -150h-70l70 150h126zM166 157c4.66699 -22.667 14.1699 -39.998 28.5029 -51.998s41.5 -18 81.5 -18c32.667 0 58.167 4.66699 76.5 14s27.5 22.333 27.5 39c0 10.667 -3.5 19.334 -10.5 26.001s-19.167 12.667 -36.5 18l-167 52
c-0.666992 0 -4.66699 1.16699 -12 3.5s-12.5 4.16602 -15.5 5.49902s-8.5 3.5 -16.5 6.5s-14.167 6.16699 -18.5 9.5l-16.5 12.5c-6.66699 5 -11.834 10.5 -15.501 16.5s-7.5 12.833 -11.5 20.5s-7 16.5 -9 26.5s-3 20.667 -3 32c0 55.333 19.833 99.166 59.5 131.499
s93.834 48.5 162.501 48.5c72.667 0 129.667 -16.167 171 -48.5s62.666 -77.166 63.999 -134.499h-135c-0.666992 48.667 -34.334 73 -101.001 73c-24.667 0 -44.334 -4.5 -59.001 -13.5s-22 -21.167 -22 -36.5c0 -10.667 3.33301 -18.834 10 -24.501s19.667 -11.5 39 -17.5
l177 -51c70.667 -20.667 106 -66 106 -136c0 -20.667 -3.66699 -40.834 -11 -60.501s-19.166 -39.167 -35.499 -58.5s-40.833 -34.833 -73.5 -46.5s-71.334 -17.5 -116.001 -17.5c-166 0 -251 60 -255 180h137z" />
    <glyph glyph-name="Scircumflex" unicode="&#x15c;" horiz-adv-x="667" 
d="M282 979h107l103 -150h-78l-82 100l-82 -100h-76zM607 507l-139.996 -0.00292969c-5.33301 76 -56.333 114 -153 114c-38.667 0 -69.334 -8.16699 -92.001 -24.5s-34 -38.166 -34 -65.499c0 -26.667 9.66699 -46.5 29 -59.5s55.666 -24.833 108.999 -35.5l114 -22
c67.333 -13.333 116.333 -35.833 147 -67.5s46 -76.167 46 -133.5c0 -74 -26.333 -131.833 -79 -173.5s-126 -62.5 -220 -62.5c-93.333 0 -165.833 20.667 -217.5 62s-79.834 101 -84.501 179h146c2.66699 -39.333 18 -69.333 46 -90s67.333 -31 118 -31
c45.333 0 81.166 8.66699 107.499 26s39.5 41.333 39.5 72c0 29.333 -10.333 52 -31 68s-56 28.667 -106 38l-102 20c-74 14 -126.667 36 -158 66s-47 73.333 -47 130c0 71.333 24.167 126.5 72.5 165.5s116.166 58.5 203.499 58.5c25.333 0 49.833 -1.66699 73.5 -5
s48.834 -10.166 75.501 -20.499s49.667 -23.666 69 -39.999s35.5 -39 48.5 -68s19.5 -62.5 19.5 -100.5z" />
    <glyph glyph-name="scircumflex" unicode="&#x15d;" horiz-adv-x="556" 
d="M228 790h107l103 -150h-78l-82 100l-82 -100h-76zM166 157c4.66699 -22.667 14.1699 -39.998 28.5029 -51.998s41.5 -18 81.5 -18c32.667 0 58.167 4.66699 76.5 14s27.5 22.333 27.5 39c0 10.667 -3.5 19.334 -10.5 26.001s-19.167 12.667 -36.5 18l-167 52
c-0.666992 0 -4.66699 1.16699 -12 3.5s-12.5 4.16602 -15.5 5.49902s-8.5 3.5 -16.5 6.5s-14.167 6.16699 -18.5 9.5l-16.5 12.5c-6.66699 5 -11.834 10.5 -15.501 16.5s-7.5 12.833 -11.5 20.5s-7 16.5 -9 26.5s-3 20.667 -3 32c0 55.333 19.833 99.166 59.5 131.499
s93.834 48.5 162.501 48.5c72.667 0 129.667 -16.167 171 -48.5s62.666 -77.166 63.999 -134.499h-135c-0.666992 48.667 -34.334 73 -101.001 73c-24.667 0 -44.334 -4.5 -59.001 -13.5s-22 -21.167 -22 -36.5c0 -10.667 3.33301 -18.834 10 -24.501s19.667 -11.5 39 -17.5
l177 -51c70.667 -20.667 106 -66 106 -136c0 -20.667 -3.66699 -40.834 -11 -60.501s-19.166 -39.167 -35.499 -58.5s-40.833 -34.833 -73.5 -46.5s-71.334 -17.5 -116.001 -17.5c-166 0 -251 60 -255 180h137z" />
    <glyph glyph-name="Scedilla" unicode="&#x15e;" horiz-adv-x="667" 
d="M340 -23l-16.999 -39.001c15.333 4 29 6 41 6c24 0 42.833 -6.33301 56.5 -19s20.5 -30 20.5 -52c0 -30 -11.167 -53 -33.5 -69s-54.166 -24 -95.499 -24c-38 0 -84 9.33301 -138 28l19 52c45.333 -20 80.333 -30 105 -30c16 0 29.5 4 40.5 12s16.5 17.667 16.5 29
c0 10.667 -4.66699 19.167 -14 25.5s-21.666 9.5 -36.999 9.5c-16 0 -32.333 -4 -49 -12l42 83c-85.333 8.66699 -149.5 32.667 -192.5 72s-67.167 95.666 -72.5 168.999h146c2.66699 -39.333 18 -69.333 46 -90s67.333 -31 118 -31c45.333 0 81.166 8.66699 107.499 26
s39.5 41.333 39.5 72c0 29.333 -10.333 52 -31 68s-56 28.667 -106 38l-102 20c-74 14 -126.667 36 -158 66s-47 73.333 -47 130c0 71.333 24.167 126.5 72.5 165.5s116.166 58.5 203.499 58.5c25.333 0 49.833 -1.66699 73.5 -5s48.834 -10.166 75.501 -20.499
s49.667 -23.666 69 -39.999s35.5 -39 48.5 -68s19.5 -62.5 19.5 -100.5h-140c-5.33301 76 -56.333 114 -153 114c-38.667 0 -69.334 -8.16699 -92.001 -24.5s-34 -38.166 -34 -65.499c0 -26.667 9.66699 -46.5 29 -59.5s55.666 -24.833 108.999 -35.5l114 -22
c67.333 -13.333 116.333 -35.833 147 -67.5s46 -75.834 46 -132.501c0 -148.667 -97.667 -227.667 -293 -237z" />
    <glyph glyph-name="scedilla" unicode="&#x15f;" horiz-adv-x="556" 
d="M166 157c4.66699 -22.667 14.1689 -39.999 28.502 -51.999s41.5 -18 81.5 -18c32.667 0 58.167 4.66699 76.5 14s27.5 22.333 27.5 39c0 10.667 -3.5 19.334 -10.5 26.001s-19.167 12.667 -36.5 18l-167 52c-0.666992 0 -4.66699 1.16699 -12 3.5
s-12.5 4.16602 -15.5 5.49902s-8.5 3.5 -16.5 6.5s-14.167 6.16699 -18.5 9.5l-16.5 12.5c-6.66699 5 -11.834 10.5 -15.501 16.5s-7.5 12.833 -11.5 20.5s-7 16.5 -9 26.5s-3 20.667 -3 32c0 55.333 19.833 99.166 59.5 131.499s93.834 48.5 162.501 48.5
c72.667 0 129.667 -16.167 171 -48.5s62.666 -77.166 63.999 -134.499h-135c-0.666992 48.667 -34.334 73 -101.001 73c-24.667 0 -44.334 -4.5 -59.001 -13.5s-22 -21.167 -22 -36.5c0 -10.667 3.33301 -18.834 10 -24.501s19.667 -11.5 39 -17.5l177 -51
c70.667 -20.667 106 -66 106 -136c0 -54 -20.333 -98 -61 -132s-93.334 -51 -158.001 -51h-18l-19 -40c14 4.66699 28 7 42 7c23.333 0 41.833 -6.33301 55.5 -19s20.5 -30 20.5 -52c0 -30 -11 -53 -33 -69s-53.667 -24 -95 -24c-37.333 0 -83.666 9.33301 -138.999 28
l19 52c46 -20 81 -30 105 -30c16 0 29.5 4 40.5 12s16.5 17.667 16.5 29c0 10.667 -4.66699 19.167 -14 25.5s-21.666 9.5 -36.999 9.5c-16 0 -32.333 -4 -49 -12l43 84c-71.333 8.66699 -123.5 27 -156.5 55s-50.833 69.333 -53.5 124h137z" />
    <glyph glyph-name="Scaron" unicode="&#x160;" horiz-adv-x="667" 
d="M379 786h-107l-103 150h78l82 -97l82 97h76zM607 507l-139.996 -0.00292969c-5.33301 76 -56.333 114 -153 114c-38.667 0 -69.334 -8.16699 -92.001 -24.5s-34 -38.166 -34 -65.499c0 -26.667 9.66699 -46.5 29 -59.5s55.666 -24.833 108.999 -35.5l114 -22
c67.333 -13.333 116.333 -35.833 147 -67.5s46 -76.167 46 -133.5c0 -74 -26.333 -131.833 -79 -173.5s-126 -62.5 -220 -62.5c-93.333 0 -165.833 20.667 -217.5 62s-79.834 101 -84.501 179h146c2.66699 -39.333 18 -69.333 46 -90s67.333 -31 118 -31
c45.333 0 81.166 8.66699 107.499 26s39.5 41.333 39.5 72c0 29.333 -10.333 52 -31 68s-56 28.667 -106 38l-102 20c-74 14 -126.667 36 -158 66s-47 73.333 -47 130c0 71.333 24.167 126.5 72.5 165.5s116.166 58.5 203.499 58.5c25.333 0 49.833 -1.66699 73.5 -5
s48.834 -10.166 75.501 -20.499s49.667 -23.666 69 -39.999s35.5 -39 48.5 -68s19.5 -62.5 19.5 -100.5z" />
    <glyph glyph-name="scaron" unicode="&#x161;" horiz-adv-x="556" 
d="M332 607h-107l-103 150h78l82 -97l82 97h76zM166 157c4.66699 -22.667 14.1699 -39.998 28.5029 -51.998s41.5 -18 81.5 -18c32.667 0 58.167 4.66699 76.5 14s27.5 22.333 27.5 39c0 10.667 -3.5 19.334 -10.5 26.001s-19.167 12.667 -36.5 18l-167 52
c-0.666992 0 -4.66699 1.16699 -12 3.5s-12.5 4.16602 -15.5 5.49902s-8.5 3.5 -16.5 6.5s-14.167 6.16699 -18.5 9.5l-16.5 12.5c-6.66699 5 -11.834 10.5 -15.501 16.5s-7.5 12.833 -11.5 20.5s-7 16.5 -9 26.5s-3 20.667 -3 32c0 55.333 19.833 99.166 59.5 131.499
s93.834 48.5 162.501 48.5c72.667 0 129.667 -16.167 171 -48.5s62.666 -77.166 63.999 -134.499h-135c-0.666992 48.667 -34.334 73 -101.001 73c-24.667 0 -44.334 -4.5 -59.001 -13.5s-22 -21.167 -22 -36.5c0 -10.667 3.33301 -18.834 10 -24.501s19.667 -11.5 39 -17.5
l177 -51c70.667 -20.667 106 -66 106 -136c0 -20.667 -3.66699 -40.834 -11 -60.501s-19.166 -39.167 -35.499 -58.5s-40.833 -34.833 -73.5 -46.5s-71.334 -17.5 -116.001 -17.5c-166 0 -251 60 -255 180h137z" />
    <glyph glyph-name="Tcedilla" unicode="&#x162;" horiz-adv-x="611" 
d="M385 604l-0.00195312 -604h-30l-29 -63c14 4.66699 28 7 42 7c23.333 0 41.833 -6.33301 55.5 -19s20.5 -30 20.5 -52c0 -30 -11.167 -53 -33.5 -69s-54.166 -24 -95.499 -24c-36.667 0 -82.667 9.33301 -138 28l19 52c46 -20 81 -30 105 -30c16 0 29.5 4 40.5 12
s16.5 17.667 16.5 29c0 10.667 -4.66699 19.167 -14 25.5s-21.666 9.5 -36.999 9.5c-16 0 -32.333 -4 -49 -12l54 106h-77v604h-221v125h584v-125h-213z" />
    <glyph glyph-name="tcedilla" unicode="&#x163;" horiz-adv-x="333" 
d="M301 529l-0.00195312 -93h-78v-294c0 -24 3 -39.833 9 -47.5s18.333 -11.5 37 -11.5c7.33301 0 18 1 32 3v-98c-19.333 -6 -41 -9.66699 -65 -11l-28 -61c14 4.66699 28 7 42 7c23.333 0 41.833 -6.33301 55.5 -19s20.5 -30 20.5 -52c0 -30 -11.167 -53 -33.5 -69
s-54.166 -24 -95.499 -24c-36.667 0 -82.667 9.33301 -138 28l19 52c46 -20 81 -30 105 -30c16 0 29.5 4 40.5 12s16.5 17.667 16.5 29c0 10.667 -4.66699 19.167 -14 25.5s-21.666 9.5 -36.999 9.5c-16 0 -32.333 -4 -49 -12l54 105c-74 8 -111 50 -111 126v332h-69v93h69
v145h140v-145h78z" />
    <glyph glyph-name="Tcaron" unicode="&#x164;" horiz-adv-x="611" 
d="M361 786h-107l-103 150h78l82 -97l82 97h76zM385 604v-604h-150v604h-221v125h584v-125h-213z" />
    <glyph glyph-name="tcaron" unicode="&#x165;" horiz-adv-x="414" 
d="M306 802l122 -0.000976562v-103c0 -40.667 -11.5 -74.5 -34.5 -101.5s-52.167 -41.167 -87.5 -42.5v46c44.667 8.66699 67 37.334 67 86.001v3h-67v112zM301 528.999v-93h-78v-294c0 -24 3 -39.833 9 -47.5s18.333 -11.5 37 -11.5c7.33301 0 18 1 32 3v-98
c-22.667 -7.33301 -49.667 -11 -81 -11c-91.333 0 -137 42.333 -137 127v332h-69v93h69v145h140v-145h78z" />
    <glyph glyph-name="Tbar" unicode="&#x166;" horiz-adv-x="611" 
d="M385 604v-604h-150v604h-221v125h584v-125h-213z" />
    <glyph glyph-name="tbar" unicode="&#x167;" horiz-adv-x="333" 
d="M301 529v-93h-78v-294c0 -24 3 -39.833 9 -47.5s18.333 -11.5 37 -11.5c7.33301 0 18 1 32 3v-98c-22.667 -7.33301 -49.667 -11 -81 -11c-91.333 0 -137 42.333 -137 127v332h-69v93h69v145h140v-145h78z" />
    <glyph glyph-name="Utilde" unicode="&#x168;" horiz-adv-x="722" 
d="M479 957h63.001c-4 -84.667 -35.667 -127 -95 -127c-16 0 -34.333 4 -55 12l-71 26c-12 4 -22 6 -30 6c-12 0 -21 -3.5 -27 -10.5s-10.333 -18.5 -13 -34.5h-63c2 38.667 11.333 69 28 91s38.667 33 66 33c13.333 0 32 -4.33301 56 -13l71 -25
c9.33301 -4 20.666 -6 33.999 -6c21.333 0 33.333 16 36 48zM365.001 -23c-26.667 0 -52.5039 2.33301 -77.5039 7s-50.667 13 -77 25s-49.166 27.333 -68.499 46s-35.166 43.5 -47.499 74.5s-18.5 66.167 -18.5 105.5v494h150v-494c0 -86.667 46.333 -130 139 -130
s139 43.333 139 130v494h150v-494c0 -39.333 -6.16699 -74.5 -18.5 -105.5s-28.166 -55.833 -47.499 -74.5s-42.166 -34 -68.499 -46s-52 -20.333 -77 -25s-50.833 -7 -77.5 -7z" />
    <glyph glyph-name="utilde" unicode="&#x169;" horiz-adv-x="611" 
d="M414 768h63.001c-4 -84.667 -35.667 -127 -95 -127c-16 0 -34.333 4 -55 12l-71 26c-12 4 -22 6 -30 6c-12 0 -21 -3.5 -27 -10.5s-10.333 -18.5 -13 -34.5h-63c2 38.667 11.333 69 28 91s38.667 33 66 33c13.333 0 32 -4.33301 56 -13l71 -25
c9.33301 -4 20.666 -6 33.999 -6c21.333 0 33.333 16 36 48zM541.001 0h-140v64c-38.667 -58 -92.667 -87 -162 -87c-57.333 0 -101.833 16.333 -133.5 49s-47.5 78.667 -47.5 138v376h140v-347c0 -64.667 30 -97 90 -97c34 0 61.333 9.66699 82 29s31 45 31 77v338h140
v-540z" />
    <glyph glyph-name="Umacron" unicode="&#x16a;" horiz-adv-x="722" 
d="M515 898v-79h-299v79h299zM365 -23c-26.667 0 -52.5039 2.33301 -77.5039 7s-50.667 13 -77 25s-49.166 27.333 -68.499 46s-35.166 43.5 -47.499 74.5s-18.5 66.167 -18.5 105.5v494h150v-494c0 -86.667 46.333 -130 139 -130s139 43.333 139 130v494h150v-494
c0 -39.333 -6.16699 -74.5 -18.5 -105.5s-28.166 -55.833 -47.499 -74.5s-42.166 -34 -68.499 -46s-52 -20.333 -77 -25s-50.833 -7 -77.5 -7z" />
    <glyph glyph-name="umacron" unicode="&#x16b;" horiz-adv-x="611" 
d="M449 719v-79h-299v79h299zM541 0h-140v64c-38.667 -58 -92.667 -87 -162 -87c-57.333 0 -101.833 16.333 -133.5 49s-47.5 78.667 -47.5 138v376h140v-347c0 -64.667 30 -97 90 -97c34 0 61.333 9.66699 82 29s31 45 31 77v338h140v-540z" />
    <glyph glyph-name="Ubreve" unicode="&#x16c;" horiz-adv-x="722" 
d="M497 972l-0.00195312 -11.001c0 -37.333 -12.667 -68.666 -38 -93.999s-56.666 -38 -93.999 -38s-68.666 12.667 -93.999 38s-38 57 -38 95v10h56c6 -44 31.667 -66 77 -66c42.667 0 67.667 22 75 66h56zM364.998 -23.001c-26.667 0 -52.5039 2.33301 -77.5039 7
s-50.667 13 -77 25s-49.166 27.333 -68.499 46s-35.166 43.5 -47.499 74.5s-18.5 66.167 -18.5 105.5v494h150v-494c0 -86.667 46.333 -130 139 -130s139 43.333 139 130v494h150v-494c0 -39.333 -6.16699 -74.5 -18.5 -105.5s-28.166 -55.833 -47.499 -74.5
s-42.166 -34 -68.499 -46s-52 -20.333 -77 -25s-50.833 -7 -77.5 -7z" />
    <glyph glyph-name="ubreve" unicode="&#x16d;" horiz-adv-x="611" 
d="M431 783l-0.00195312 -11.001c0 -37.333 -12.667 -68.666 -38 -93.999s-56.666 -38 -93.999 -38s-68.666 12.667 -93.999 38s-38 57 -38 95v10h56c6 -44 31.667 -66 77 -66c42.667 0 67.667 22 75 66h56zM540.998 -0.000976562h-140v64c-38.667 -58 -92.667 -87 -162 -87
c-57.333 0 -101.833 16.333 -133.5 49s-47.5 78.667 -47.5 138v376h140v-347c0 -64.667 30 -97 90 -97c34 0 61.333 9.66699 82 29s31 45 31 77v338h140v-540z" />
    <glyph glyph-name="Uring" unicode="&#x16e;" horiz-adv-x="722" 
d="M366 949c24.667 0 45.6689 -8.83105 63.002 -26.498s26 -39.167 26 -64.5c0 -24.667 -8.83301 -45.667 -26.5 -63s-38.834 -26 -63.501 -26s-45.834 8.66699 -63.501 26s-26.5 38.666 -26.5 63.999s8.83301 46.666 26.5 63.999s39.167 26 64.5 26zM366.002 901.002
c-12 0 -22.167 -4.16699 -30.5 -12.5s-12.5 -18.166 -12.5 -29.499s4.16699 -21.166 12.5 -29.499s18.5 -12.5 30.5 -12.5c11.333 0 21 4.16699 29 12.5s12 18.166 12 29.499s-4 21.166 -12 29.499s-17.667 12.5 -29 12.5zM365.002 -22.998
c-26.667 0 -52.5039 2.33301 -77.5039 7s-50.667 13 -77 25s-49.166 27.333 -68.499 46s-35.166 43.5 -47.499 74.5s-18.5 66.167 -18.5 105.5v494h150v-494c0 -86.667 46.333 -130 139 -130s139 43.333 139 130v494h150v-494c0 -39.333 -6.16699 -74.5 -18.5 -105.5
s-28.166 -55.833 -47.499 -74.5s-42.166 -34 -68.499 -46s-52 -20.333 -77 -25s-50.833 -7 -77.5 -7z" />
    <glyph glyph-name="uring" unicode="&#x16f;" horiz-adv-x="611" 
d="M300 770c24.667 0 45.6689 -8.83105 63.002 -26.498s26 -39.167 26 -64.5c0 -24.667 -8.83301 -45.667 -26.5 -63s-38.834 -26 -63.501 -26s-45.834 8.66699 -63.501 26s-26.5 38.666 -26.5 63.999s8.83301 46.666 26.5 63.999s39.167 26 64.5 26zM300.002 722.002
c-12 0 -22.167 -4.16699 -30.5 -12.5s-12.5 -18.166 -12.5 -29.499s4.16699 -21.166 12.5 -29.499s18.5 -12.5 30.5 -12.5c11.333 0 21 4.16699 29 12.5s12 18.166 12 29.499s-4 21.166 -12 29.499s-17.667 12.5 -29 12.5zM541.002 0.00195312h-140v64
c-38.667 -58 -92.667 -87 -162 -87c-57.333 0 -101.833 16.333 -133.5 49s-47.5 78.667 -47.5 138v376h140v-347c0 -64.667 30 -97 90 -97c34 0 61.333 9.66699 82 29s31 45 31 77v338h140v-540z" />
    <glyph glyph-name="Uhungarumlaut" unicode="&#x170;" horiz-adv-x="722" 
d="M433 936l-126 -147h-70l70 147h126zM621 936l-126 -147h-70l70 147h126zM365 -23c-26.667 0 -52.5039 2.33301 -77.5039 7s-50.667 13 -77 25s-49.166 27.333 -68.499 46s-35.166 43.5 -47.499 74.5s-18.5 66.167 -18.5 105.5v494h150v-494
c0 -86.667 46.333 -130 139 -130s139 43.333 139 130v494h150v-494c0 -39.333 -6.16699 -74.5 -18.5 -105.5s-28.166 -55.833 -47.499 -74.5s-42.166 -34 -68.499 -46s-52 -20.333 -77 -25s-50.833 -7 -77.5 -7z" />
    <glyph glyph-name="uhungarumlaut" unicode="&#x171;" horiz-adv-x="611" 
d="M370 757l-126 -147h-70l70 147h126zM558 757l-126 -147h-70l70 147h126zM541 0h-140v64c-38.667 -58 -92.667 -87 -162 -87c-57.333 0 -101.833 16.333 -133.5 49s-47.5 78.667 -47.5 138v376h140v-347c0 -64.667 30 -97 90 -97c34 0 61.333 9.66699 82 29s31 45 31 77
v338h140v-540z" />
    <glyph glyph-name="Uogonek" unicode="&#x172;" horiz-adv-x="722" 
d="M654 235c0 -40 -6.66602 -76.001 -19.999 -108.001s-29.333 -58.5 -48 -79.5s-37.334 -40.5 -56.001 -58.5s-34.667 -37.167 -48 -57.5s-20 -41.5 -20 -63.5c0 -34 25.667 -51 77 -51c19.333 0 38.666 2 57.999 6v-47c-26 -6.66699 -52.667 -10 -80 -10
c-22.667 0 -44 2.5 -64 7.5s-38.333 15 -55 30s-25 34.5 -25 58.5s7.83301 45.833 23.5 65.5s42.5 41.5 80.5 65.5c-39.333 -10.667 -75.666 -16 -108.999 -16c-35.333 0 -68.833 4 -100.5 12s-62.5 21 -92.5 39s-54 44.833 -72 80.5s-27 77.834 -27 126.501v494h150v-494
c0 -86.667 46.333 -130 139 -130s139 43.333 139 130v494h150v-494z" />
    <glyph glyph-name="uogonek" unicode="&#x173;" horiz-adv-x="611" 
d="M340 -138c0 19.333 4.50098 37.333 13.501 54s21 30.5 36 41.5s28.333 19.667 40 26s23.5 11.833 35.5 16.5h-64v64c-38.667 -58 -92.667 -87 -162 -87c-57.333 0 -101.833 16.333 -133.5 49s-47.5 78.667 -47.5 138v376h140v-347c0 -64.667 30 -97 90 -97
c34 0 61.333 9.66699 82 29s31 45 31 77v338h140v-540c-74 -37.333 -111 -80.333 -111 -129c0 -35.333 25.333 -53 76 -53c17.333 0 36.666 1.66699 57.999 5v-47c-24 -6 -49 -9 -75 -9c-47.333 0 -84 8.33301 -110 25s-39 40 -39 70z" />
    <glyph glyph-name="Wcircumflex" unicode="&#x174;" horiz-adv-x="944" 
d="M422 979h107l103 -150h-78l-82 100l-82 -100h-76zM730 0h-135l-122 569l-119 -569h-135l-206 729h159l113 -546l113 546h148l118 -547l109 547h159z" />
    <glyph glyph-name="wcircumflex" unicode="&#x175;" horiz-adv-x="778" 
d="M334 790h107l103 -150h-78l-82 100l-82 -100h-76zM613 0h-145l-81 381l-86 -381h-144l-152 540h145l86 -378l82 378h140l81 -378l82 378h145z" />
    <glyph glyph-name="Ycircumflex" unicode="&#x176;" horiz-adv-x="667" 
d="M288 979h107l103 -150h-78l-82 100l-82 -100h-76zM419 270v-270h-150v270l-242 459h167l149 -322l139 322h168z" />
    <glyph glyph-name="ycircumflex" unicode="&#x177;" horiz-adv-x="556" 
d="M222 790h107l103 -150h-78l-82 100l-82 -100h-76zM210 -26l0.00195312 4.00098l-201 562h154l119 -393l112 393h144l-222 -639c0 -0.666992 -1.33301 -5.16699 -4 -13.5s-4.83398 -14 -6.50098 -17s-4.33398 -8.66699 -8.00098 -17s-7.5 -14.333 -11.5 -18
s-9.33301 -9 -16 -16s-14.167 -12.333 -22.5 -16s-17.833 -7.5 -28.5 -11.5s-23 -6.83301 -37 -8.5s-29.333 -2.5 -46 -2.5c-14.667 0 -31.334 1.33301 -50.001 4v105c14.667 -4 27 -6 37 -6c24.667 0 45.334 8.66699 62.001 26s25 38.666 25 63.999z" />
    <glyph glyph-name="Ydieresis" unicode="&#x178;" horiz-adv-x="667" 
d="M495 922v-122h-110v122h110zM299 922v-122h-110v122h110zM419 270v-270h-150v270l-242 459h167l149 -322l139 322h168z" />
    <glyph glyph-name="Zacute" unicode="&#x179;" horiz-adv-x="611" 
d="M441 936l-126 -150h-70l70 150h126zM578 729v-125l-372 -479h372v-125h-548v125l373 479h-373v125h548z" />
    <glyph glyph-name="zacute" unicode="&#x17a;" horiz-adv-x="500" 
d="M387 757l-126 -150h-70l70 150h126zM459 540v-113l-265 -314h274v-113h-447v113l267 314h-249v113h420z" />
    <glyph glyph-name="Zdotaccent" unicode="&#x17b;" horiz-adv-x="611" 
d="M362 922v-122h-110v122h110zM578 729v-125l-372 -479h372v-125h-548v125l373 479h-373v125h548z" />
    <glyph glyph-name="zdotaccent" unicode="&#x17c;" horiz-adv-x="500" 
d="M306 743v-122h-110v122h110zM459 540v-113l-265 -314h274v-113h-447v113l267 314h-249v113h420z" />
    <glyph glyph-name="Zcaron" unicode="&#x17d;" horiz-adv-x="611" 
d="M358 786h-107l-103 150h78l82 -97l82 97h76zM578 729v-125l-372 -479h372v-125h-548v125l373 479h-373v125h548z" />
    <glyph glyph-name="zcaron" unicode="&#x17e;" horiz-adv-x="500" 
d="M302 607h-107l-103 150h78l82 -97l82 97h76zM459 540v-113l-265 -314h274v-113h-447v113l267 314h-249v113h420z" />
    <glyph glyph-name="longs" unicode="&#x17f;" horiz-adv-x="333" 
d="M230 0h-140v436h-76v93h76v65c0 90 46 135 138 135c27.333 0 54 -1 80 -3v-105c-12 2 -25.333 3 -40 3c-25.333 0 -38 -14 -38 -42v-582z" />
    <glyph glyph-name="uni0180" unicode="&#x180;" horiz-adv-x="611" 
d="M317 432c-34.667 0 -63 -15.5 -85 -46.5s-33 -71.167 -33 -120.5c0 -51.333 10.833 -92.666 32.5 -123.999s50.167 -47 85.5 -47c34.667 0 63 15.667 85 47s33 71.666 33 120.999c0 50 -11 90.833 -33 122.5s-50.333 47.5 -85 47.5zM348 549
c64.667 0 118.667 -26.833 162 -80.5s65 -122.167 65 -205.5c0 -81.333 -21.667 -149.333 -65 -204s-97.333 -82 -162 -82c-66 0 -115.667 26 -149 78v-55h-140v596h-60v67h60v66h140v-66h133v-67h-133v-126c33.333 52.667 83 79 149 79z" />
    <glyph glyph-name="uni0181" unicode="&#x181;" horiz-adv-x="963" 
d="M473 314v-189h179c74 0 111 31.333 111 94c0 63.333 -37 95 -111 95h-179zM473 604v-165h163c70.667 0 106 27.333 106 82c0 55.333 -35.333 83 -106 83h-163zM267 316c-44.667 0 -82.666 6.66699 -113.999 20s-54.333 31 -69 53s-25 43.5 -31 64.5s-9 43.167 -9 66.5
c0 66.667 18.5 118.167 55.5 154.5s89.5 54.5 157.5 54.5h391c45.333 0 84.5 -6.66699 117.5 -20s57.667 -30.5 74 -51.5s28.166 -41.5 35.499 -61.5s11 -39.667 11 -59c0 -31.333 -7.66699 -58.333 -23 -81s-41 -45.667 -77 -69c80.667 -47.333 121 -106.333 121 -177
c0 -24 -4 -47.333 -12 -70s-20.833 -45 -38.5 -67s-44.167 -39.667 -79.5 -53s-77.333 -20 -126 -20h-328v579h-66c-56.667 0 -85 -19 -85 -57c0 -20 7.5 -34.333 22.5 -43s39.167 -13 72.5 -13v-150z" />
    <glyph glyph-name="uni0182" unicode="&#x182;" horiz-adv-x="704" 
d="M666 222c0 -26.667 -3.99707 -51.999 -11.9971 -75.999s-20.833 -47.5 -38.5 -70.5s-44.167 -41.333 -79.5 -55s-77.333 -20.5 -126 -20.5h-328v729h512v-125h-362v-141h163c42 0 79.667 -6.16699 113 -18.5s59.666 -27.5 78.999 -45.5s35.166 -38.5 47.499 -61.5
s20.666 -43.833 24.999 -62.5s6.5 -36.334 6.5 -53.001zM232.003 338.001v-213h179c35.333 0 62.666 9.83301 81.999 29.5s29 45.167 29 76.5c0 32 -9.66699 57.833 -29 77.5s-46.666 29.5 -81.999 29.5h-179z" />
    <glyph glyph-name="uni0183" unicode="&#x183;" horiz-adv-x="611" 
d="M317 432c-34.667 0 -63 -15.5 -85 -46.5s-33 -71.167 -33 -120.5c0 -51.333 10.833 -92.666 32.5 -123.999s50.167 -47 85.5 -47c34.667 0 63 15.667 85 47s33 71.666 33 120.999c0 50 -11 90.833 -33 122.5s-50.333 47.5 -85 47.5zM348 549
c64.667 0 118.667 -26.833 162 -80.5s65 -122.167 65 -205.5c0 -81.333 -21.667 -149.333 -65 -204s-97.333 -82 -162 -82c-66 0 -115.667 26 -149 78v-55h-140v729h379v-125h-239v-134c33.333 52.667 83 79 149 79z" />
    <glyph glyph-name="uni0184" unicode="&#x184;" horiz-adv-x="687" 
d="M226 729v-260h187c66.667 0 120 -22 160 -66s60 -103 60 -177c0 -73.333 -20.167 -129.333 -60.5 -168s-98.5 -58 -174.5 -58h-322v468l-97 75zM226 344v-219h140c40 0 69.5 9 88.5 27s28.5 45.667 28.5 83c0 72.667 -39 109 -117 109h-140z" />
    <glyph glyph-name="uni0185" unicode="&#x185;" horiz-adv-x="611" 
d="M317 432c-34.667 0 -63 -15.5 -85 -46.5s-33 -71.167 -33 -120.5c0 -51.333 10.833 -92.666 32.5 -123.999s50.167 -47 85.5 -47c34.667 0 63 15.667 85 47s33 71.666 33 120.999c0 50 -11 90.833 -33 122.5s-50.333 47.5 -85 47.5zM348 549
c64.667 0 118.667 -26.833 162 -80.5s65 -122.167 65 -205.5c0 -81.333 -21.667 -149.333 -65 -204s-97.333 -82 -162 -82c-66 0 -115.667 26 -149 78v-55h-140v493l-97 81l237 155v-259c33.333 52.667 83 79 149 79z" />
    <glyph glyph-name="uni0186" unicode="&#x186;" horiz-adv-x="722" 
d="M190 236c18.667 -87.333 70.6689 -131.001 156.002 -131.001c59.333 0 105.666 22.667 138.999 68s50 108.333 50 189c0 79.333 -16.167 141.333 -48.5 186s-77.5 67 -135.5 67c-46.667 0 -84 -12.667 -112 -38s-44.333 -61.333 -49 -108h-146
c4.66699 83.333 35 149.5 91 198.5s129.333 73.5 220 73.5c101.333 0 181.666 -34.167 240.999 -102.5s89 -161.166 89 -278.499c0 -118 -30 -211.333 -90 -280s-141.333 -103 -244 -103c-86 0 -156.5 23 -211.5 69s-85.833 109.333 -92.5 190h143z" />
    <glyph glyph-name="uni0187" unicode="&#x187;" horiz-adv-x="752" 
d="M539 482c-18.667 87.333 -70.6699 131 -156.003 131c-59.333 0 -105.666 -22.667 -138.999 -68s-50 -108.333 -50 -189c0 -79.333 16.167 -141.333 48.5 -186s77.5 -67 135.5 -67c48 0 86.833 13 116.5 39s44.5 61.667 44.5 107h146
c0 -82.667 -28.833 -148.667 -86.5 -198s-132.5 -74 -224.5 -74c-101.333 0 -181.666 34.167 -240.999 102.5s-89 161.166 -89 278.499c0 118 30 211.333 90 280s141.333 103 244 103c66.667 0 124.667 -14.667 174 -44c14 34 48.667 51 104 51c24 0 51.667 -1.66699 83 -5
v-112c-8.66699 2.66699 -13.667 4 -15 4c-15.333 0 -26.166 -3.16699 -32.499 -9.5s-9.5 -17.166 -9.5 -32.499v-111h-143z" />
    <glyph glyph-name="uni0188" unicode="&#x188;" horiz-adv-x="562" 
d="M288 436c-76 0 -114 -58.999 -114 -176.999c0 -52.667 10.167 -94 30.5 -124s48.166 -45 83.499 -45c27.333 0 48.666 7.5 63.999 22.5s27.333 39.833 36 74.5h134c-6.66699 -64.667 -31.167 -115.834 -73.5 -153.501s-96.166 -56.5 -161.499 -56.5
c-80 0 -142.167 24.667 -186.5 74s-66.5 118.666 -66.5 207.999c0 92 22.333 163.333 67 214s107.334 76 188.001 76c46.667 0 87 -9 121 -27c18 24 51.333 36 100 36c20 0 45.667 -1.66699 77 -5v-112c-8.66699 2.66699 -17 4 -25 4c-15.333 0 -26 -3.16699 -32 -9.5
s-9 -17.166 -9 -32.499l1 -65h-134c-8 35.333 -19.5 60.5 -34.5 75.5s-36.833 22.5 -65.5 22.5z" />
    <glyph glyph-name="uni0189" unicode="&#x189;" horiz-adv-x="722" 
d="M77 339h-77.001v80h77v310h285c58 0 105 -6.5 141 -19.5s66 -34.5 90 -64.5c28 -34 49.667 -75.667 65 -125s23 -101 23 -155s-7.83301 -105.5 -23.5 -154.5s-37.167 -90.833 -64.5 -125.5c-24 -30 -54.167 -51.667 -90.5 -65s-83.166 -20 -140.499 -20h-285v339z
M536.999 364c0 86 -15 147.5 -45 184.5s-73.333 55.5 -130 55.5h-135v-185h150v-80h-150v-214h135c54.667 0 97.5 17.667 128.5 53s46.5 97.333 46.5 186z" />
    <glyph glyph-name="uni018A" unicode="&#x18a;" horiz-adv-x="968" 
d="M473 125h135c112.667 0 169 79.667 169 239c0 160 -56.333 240 -169 240h-135v-479zM267 316c-44.667 0 -82.667 6.66504 -114 19.998s-54.333 31 -69 53s-25 43.5 -31 64.5s-9 43.167 -9 66.5c0 66.667 18.5 118.167 55.5 154.5s89.5 54.5 157.5 54.5h351
c56 0 102.167 -6.66699 138.5 -20s66.833 -34.666 91.5 -63.999c59.333 -70.667 89 -164 89 -280c0 -117.333 -29.667 -210.666 -89 -279.999c-47.333 -56.667 -124 -85 -230 -85h-285v579h-66c-56.667 0 -85 -19 -85 -57c0 -20 7.5 -34.333 22.5 -43s39.167 -13 72.5 -13
v-150z" />
    <glyph glyph-name="uni018B" unicode="&#x18b;" horiz-adv-x="722" 
d="M82 222c0 16.667 2.16992 34.333 6.50293 53s12.666 39.5 24.999 62.5s28.166 43.5 47.499 61.5s45.666 33.167 78.999 45.5s71 18.5 113 18.5h163v141h-362v125h512v-729h-328c-48.667 -0 -90.667 6.83301 -126 20.5s-61.833 32 -79.5 55s-30.5 46.5 -38.5 70.5
s-12 49.333 -12 76zM516.003 337.999h-179c-35.333 0 -62.666 -9.83301 -81.999 -29.5s-29 -45.5 -29 -77.5c0 -31.333 9.66699 -56.833 29 -76.5s46.666 -29.5 81.999 -29.5h179v213z" />
    <glyph glyph-name="uni018C" unicode="&#x18c;" horiz-adv-x="611" 
d="M317 432c-34.667 0 -63 -15.833 -85 -47.5s-33 -72.5 -33 -122.5c0 -49.333 11 -89.666 33 -120.999s50.333 -47 85 -47c35.333 0 63.833 15.667 85.5 47s32.5 72.666 32.5 123.999c0 49.333 -11 89.5 -33 120.5s-50.333 46.5 -85 46.5zM286 549
c66 0 115.667 -26.333 149 -79v134h-239v125h379v-729h-140v55c-33.333 -52 -83 -78 -149 -78c-64.667 0 -118.667 27.333 -162 82s-65 122.667 -65 204c0 83.333 21.667 151.833 65 205.5s97.333 80.5 162 80.5z" />
    <glyph glyph-name="uni018D" unicode="&#x18d;" horiz-adv-x="609" 
d="M302 424c-28.667 0 -52.834 -4.66602 -72.501 -13.999s-34.167 -22 -43.5 -38s-15.833 -31.833 -19.5 -47.5s-5.5 -32.167 -5.5 -49.5c0 -16.667 1.83301 -32.334 5.5 -47.001s9.83398 -30 18.501 -46s22.5 -28.667 41.5 -38s42.167 -14 69.5 -14c38 0 69 14 93 42
s36 62.667 36 104c0 98.667 -41 148 -123 148zM565 284.001c0 -39.333 -5.49805 -74.4961 -16.498 -105.496s-23.833 -55.167 -38.5 -72.5s-32 -32.333 -52 -45s-36.5 -21.167 -49.5 -25.5s-25.833 -7.83301 -38.5 -10.5l159 -105v-103h-448v114h217l-113 76l-9 6
c-14.667 10 -26.667 18.5 -36 25.5s-22.333 18.667 -39 35s-29.834 33 -39.501 50s-18.5 39 -26.5 66s-12 55.833 -12 86.5c0 52.667 7.16699 97.167 21.5 133.5s34.666 64.166 60.999 83.499s55.333 33.166 87 41.499s68.167 12.5 109.5 12.5
c22.667 0 44.667 -1.83301 66 -5.5s44.333 -11.334 69 -23.001s46.167 -26.667 64.5 -45s33.5 -43.833 45.5 -76.5s18 -70.334 18 -113.001z" />
    <glyph glyph-name="uni018E" unicode="&#x18e;" horiz-adv-x="667" 
d="M474 314h-349v125h349v165h-377v125h527v-729h-545v125h395v189z" />
    <glyph glyph-name="uni018F" unicode="&#x18f;" horiz-adv-x="778" 
d="M195 293c10 -58 32.334 -103.833 67.001 -137.5s77.667 -50.5 129 -50.5c50.667 0 93.667 17 129 51s57.666 79.667 66.999 137h-392zM391.001 -23c-105.333 0 -190.168 35.8311 -254.501 107.498s-96.5 163.167 -96.5 274.5c0 22.667 1.33301 42.334 4 59.001h150h393
c-9.33301 60.667 -31.166 108.334 -65.499 143.001s-77.833 52 -130.5 52c-78 0 -135 -36.333 -171 -109h-157c19.333 58 47.833 105.5 85.5 142.5s76.167 62 115.5 75s81.333 19.5 126 19.5c105.333 0 190.333 -35.5 255 -106.5s97 -164.5 97 -280.5
c0 -107.333 -32 -197 -96 -269s-149 -108 -255 -108z" />
    <glyph glyph-name="uni0190" unicode="&#x190;" horiz-adv-x="672" 
d="M620 507l-139.996 -0.00390625c-5.33301 76 -56.333 114 -153 114c-38.667 0 -69.334 -8.16699 -92.001 -24.5s-34 -38.166 -34 -65.499c0 -68.667 46 -103 138 -103h76v-120h-102c-47.333 0 -82 -10.667 -104 -32s-33 -48.333 -33 -81
c0 -30.667 13.167 -54.667 39.5 -72s62.166 -26 107.499 -26c50.667 0 90 10.333 118 31s43.333 50.667 46 90h146c-4.66699 -78 -32.834 -137.667 -84.501 -179s-124.167 -62 -217.5 -62c-94 0 -167.333 20.833 -220 62.5s-79 99.5 -79 173.5
c0 76.667 29.667 131.334 89 164.001c-42 31.333 -63 78 -63 140c0 71.333 24.167 126.5 72.5 165.5s116.166 58.5 203.499 58.5c26 0 50.667 -1.66699 74 -5s48.5 -10.166 75.5 -20.499s50.167 -23.666 69.5 -39.999s35.333 -39 48 -68s19 -62.5 19 -100.5z" />
    <glyph glyph-name="uni0191" unicode="&#x191;" horiz-adv-x="611" 
d="M224 439l318.998 0.000976562v-125h-318v-408c0 -44 -9.66699 -75.667 -29 -95s-50.666 -29 -93.999 -29c-24 0 -51.667 1.66699 -83 5v112c8.66699 -2.66699 13.334 -4 14.001 -4c15.333 0 26 3.16699 32 9.5s9 17.166 9 32.499v792h512v-125h-362v-165z" />
    <glyph glyph-name="florin" unicode="&#x192;" horiz-adv-x="333" 
d="M313 529l-0.000976562 -92.999h-83v-530c0 -44 -9.66699 -75.667 -29 -95s-50.666 -29 -93.999 -29c-24 0 -51.667 1.66699 -83 5v112c8.66699 -2.66699 17 -4 25 -4c15.333 0 26 3.16699 32 9.5s9 17.166 9 32.499v499h-76v93h76v65c0 90 46 135 138 135
c27.333 0 54 -1 80 -3v-105c-12 2 -25.333 3 -40 3c-25.333 0 -38 -14 -38 -42v-53h83z" />
    <glyph glyph-name="uni0193" unicode="&#x193;" horiz-adv-x="778" 
d="M570 496c-26.667 78 -84.6699 117 -174.003 117c-63.333 0 -113.166 -22.333 -149.499 -67s-54.5 -106.334 -54.5 -185.001c0 -74.667 19.5 -136 58.5 -184s88.833 -72 149.5 -72c53.333 0 97.5 17.333 132.5 52s52.5 71.334 52.5 110.001h-166v125h292v-392h-90l-18 94
c-28 -40.667 -59.333 -70.334 -94 -89.001s-76.667 -28 -126 -28c-98.667 0 -180.167 36 -244.5 108s-96.5 163.333 -96.5 274c0 113.333 32.667 205.333 98 276s150.333 106 255 106c71.333 0 133.333 -15 186 -45c14.667 34.667 49.334 52 104.001 52
c24 0 51.667 -1.66699 83 -5v-112c-8.66699 2.66699 -13.667 4 -15 4c-15.333 0 -26.166 -3.16699 -32.499 -9.5s-9.5 -17.166 -9.5 -32.499v-97h-141z" />
    <glyph glyph-name="uni0194" unicode="&#x194;" horiz-adv-x="667" 
d="M343 136c-13.333 -13.333 -20 -25.333 -20 -36c0 -6 2 -10.833 6 -14.5s8.66699 -5.5 14 -5.5c13.333 0 20 6.66699 20 20c0 10.667 -6.66699 22.667 -20 36zM419 270c21.333 -34 39.001 -68.668 53.001 -104.001s21 -63.666 21 -84.999c0 -28.667 -14 -52.667 -42 -72
s-64 -29 -108 -29c-46.667 0 -83.334 9.16699 -110.001 27.5s-40 42.833 -40 73.5c0 44.667 25.333 107.667 76 189l-242 459h167l149 -322l139 322h168z" />
    <glyph glyph-name="uni0195" unicode="&#x195;" horiz-adv-x="940" 
d="M401 330c0 66.667 -28.6699 100.001 -86.0029 100.001c-31.333 0 -57.166 -10 -77.499 -30s-30.5 -45.333 -30.5 -76v-324h-140v729h140v-267c38.667 58 91.334 87 158.001 87c21.333 0 41.5 -2.83301 60.5 -8.5s37.667 -15 56 -28s32.833 -32.5 43.5 -58.5
s16 -56.667 16 -92v-124c0 -48 6.33301 -82.167 19 -102.5s38.667 -30.5 78 -30.5c36.667 0 61.667 11.167 75 33.5s20 57.5 20 105.5v296h138v-328c0 -70 -18.167 -125.5 -54.5 -166.5s-95.166 -61.5 -176.499 -61.5c-48.667 0 -89.334 5.5 -122.001 16.5
s-57.167 27.5 -73.5 49.5s-27.666 45.667 -33.999 71s-9.5 55.666 -9.5 90.999v118z" />
    <glyph glyph-name="uni0196" unicode="&#x196;" horiz-adv-x="278" 
d="M174 97c0.666992 -11.333 1.66699 -17.999 3 -19.999c2.66699 -1.33301 8.66699 -2 18 -2c14.667 0 25.667 1 33 3l32 9v-124l-21 -4c-27.333 -4.66699 -51.333 -7 -72 -7c-40 0 -71 9.66699 -93 29s-33 45.666 -33 78.999v694h133v-657z" />
    <glyph glyph-name="uni0197" unicode="&#x197;" horiz-adv-x="395" 
d="M122 293h-122l-1 125h123v311h150v-311h120v-125h-120v-293h-150v293z" />
    <glyph glyph-name="uni0198" unicode="&#x198;" horiz-adv-x="778" 
d="M658 559c0 12 -5.16504 23.333 -15.498 34s-22.5 16 -36.5 16c-12 0 -25.667 -5 -41 -15l-170 -179l322 -415h-179l-239 322l-75 -78v-244h-150v729h150v-320l224 248c55.333 58.667 107.666 88 156.999 88c41.333 0 82.666 -19.333 123.999 -58
c21.333 -20 34.833 -38.167 40.5 -54.5s8.5 -39.5 8.5 -69.5c0 -53.333 -24.333 -106 -73 -158l-88 82c27.333 29.333 41 53.333 41 72z" />
    <glyph glyph-name="uni0199" unicode="&#x199;" horiz-adv-x="556" 
d="M199 330l177.001 209.999h159l-184 -204l197 -336h-164l-129 238l-56 -61v-177h-140v605c0 44 9.66699 75.667 29 95s50.666 29 93.999 29c24 0 51.667 -1.66699 83 -5v-112c-8.66699 2.66699 -17 4 -25 4c-15.333 0 -26 -3.16699 -32 -9.5s-9 -17.166 -9 -32.499v-244z
" />
    <glyph glyph-name="uni019a" unicode="&#x19a;" horiz-adv-x="333" 
d="M99 314h-124v117h124v323h134v-323h125v-117h-125v-339h-134v339z" />
    <glyph glyph-name="uni019B" unicode="&#x19b;" horiz-adv-x="620" 
d="M283 334l-121.996 -336h-144l178 464l-145 -91v89l153 95c-9.33301 22.667 -18.833 37.5 -28.5 44.5s-21.834 10.5 -36.501 10.5c-10.667 0 -22.834 -1.5 -36.501 -4.5s-27.834 -5.16699 -42.501 -6.5l15 122c33.333 12 58.666 18 75.999 18c39.333 0 71 -10.5 95 -31.5
s44.667 -50.5 62 -88.5l138 86v-88l-110 -69l6 -16l146 -389c7.33301 -20 13.333 -30 18 -30c8.66699 0 24.667 7 48 21l33 -112c-44.667 -23.333 -80.334 -35 -107.001 -35c-15.333 0 -28.5 2.16699 -39.5 6.5s-20.333 11.166 -28 20.499s-13.667 18.333 -18 27
s-9.16602 20.334 -14.499 35.001z" />
    <glyph glyph-name="uni019C" unicode="&#x19c;" horiz-adv-x="944" 
d="M876 0l-149.003 -0.00195312v72c-24.667 -29.333 -49 -50.333 -73 -63s-52.333 -19 -85 -19c-76 0 -128.667 28.667 -158 86c-43.333 -57.333 -99.666 -86 -168.999 -86c-58 0 -103.167 15.833 -135.5 47.5s-48.5 75.5 -48.5 131.5v560h150v-536
c0 -23.333 7.33301 -41.666 22 -54.999s34.334 -20 59.001 -20c32 0 57.167 10 75.5 30s27.5 47.667 27.5 83v498h150v-536c0 -23.333 7.33301 -41.666 22 -54.999s34.334 -20 59.001 -20c32.667 0 58 10 76 30s27 47.667 27 83v498h150v-729z" />
    <glyph glyph-name="uni019D" unicode="&#x19d;" horiz-adv-x="722" 
d="M70 729l151.999 0.000976562l289 -496v496h150v-729h-150l-292 502v-596c0 -44 -9.66699 -75.667 -29 -95s-50.666 -29 -93.999 -29c-24 0 -51.667 1.66699 -83 5v112c8.66699 -2.66699 14 -4 16 -4c15.333 0 26 3.16699 32 9.5s9 17.166 9 32.499v792z" />
    <glyph glyph-name="uni019E" unicode="&#x19e;" horiz-adv-x="611" 
d="M63 540h140v-78c38.667 58 92.667 87 162 87c57.333 0 101.833 -16.333 133.5 -49s47.5 -78.667 47.5 -138v-563h-140v534c0 64.667 -30 97 -90 97c-34 0 -61.333 -9.66699 -82 -29s-31 -45 -31 -77v-324h-140v540z" />
    <glyph glyph-name="Obar" unicode="&#x19f;" horiz-adv-x="778" 
d="M390 741c48 0 91.835 -7.33203 131.502 -21.999s73 -34.5 100 -59.5s49.667 -54.333 68 -88s31.666 -68.667 39.999 -105s12.5 -73.833 12.5 -112.5c0 -28.667 -3 -58.334 -9 -89.001s-17.333 -63.667 -34 -99s-37.5 -66.5 -62.5 -93.5s-58.833 -49.667 -101.5 -68
s-90.667 -27.5 -144 -27.5c-59.333 0 -112.333 11.333 -159 34s-83.5 52.667 -110.5 90s-47.333 78 -61 122s-20.5 89.333 -20.5 136c0 48 7.16699 94.167 21.5 138.5s35.166 85 62.499 122s64 66.5 110 88.5s98 33 156 33zM195.002 293.001
c10 -58 32.334 -103.833 67.001 -137.5s77.667 -50.5 129 -50.5c50.667 0 93.667 17 129 51s57.666 79.667 66.999 137h-392zM587.003 418.001c-9.33301 60.667 -31.167 108.333 -65.5 143s-77.833 52 -130.5 52c-52 0 -95.5 -17.5 -130.5 -52.5s-57.167 -82.5 -66.5 -142.5
h393z" />
    <glyph glyph-name="Ohorn" unicode="&#x1a0;" horiz-adv-x="811" 
d="M391 613c-60.667 0 -109.335 -23.168 -146.002 -69.501s-55 -107.833 -55 -184.5s18.333 -138.167 55 -184.5s85.334 -69.5 146.001 -69.5c60 0 108.5 23 145.5 69s55.5 106.333 55.5 181c0 78.667 -18.167 141.334 -54.5 188.001s-85.166 70 -146.499 70z
M39.999 358.999c0 112 32.168 203.668 96.501 275.001s148.833 107 253.5 107c100 0 181.667 -32 245 -96c11.333 19.333 17 44 17 74c0 12.667 -1.33301 27.334 -4 44.001h142c0.666992 -5.33301 1 -11 1 -17c0 -32 -10.167 -61.333 -30.5 -88
s-48.833 -47.334 -85.5 -62.001c44.667 -66.667 67 -147.334 67 -242.001c0 -108 -31.833 -197.833 -95.5 -269.5s-148.834 -107.5 -255.501 -107.5c-106 0 -191 35.667 -255 107s-96 163 -96 275z" />
    <glyph glyph-name="ohorn" unicode="&#x1a1;" horiz-adv-x="673" 
d="M302 436c-38 0 -68.667 -16.001 -92 -48.001s-35 -73.667 -35 -125s11.667 -93 35 -125s54 -48 92 -48c37.333 0 67.833 15.833 91.5 47.5s35.5 72.834 35.5 123.501c0 53.333 -11.5 95.833 -34.5 127.5s-53.833 47.5 -92.5 47.5zM536 417.999
c22 -44 33 -96.999 33 -158.999c0 -86.667 -24 -155.334 -72 -206.001s-113 -76 -195 -76c-83.333 0 -148.666 25.5 -195.999 76.5s-71 120.833 -71 209.5s23.667 158.5 71 209.5s112.333 76.5 195 76.5c85.333 0 151.666 -26 198.999 -78c9.33301 18.667 14 42 14 70
c0 12.667 -1.33301 27.334 -4 44.001h142c0.666992 -5.33301 1 -11 1 -17c0 -32 -10 -61.333 -30 -88s-48.333 -47.334 -85 -62.001h-2z" />
    <glyph glyph-name="uni01A2" unicode="&#x1a2;" horiz-adv-x="1111" 
d="M391 613c-60.667 0 -109.335 -23.168 -146.002 -69.501s-55 -107.833 -55 -184.5s18.333 -138.167 55 -184.5s85.334 -69.5 146.001 -69.5c60 0 108.5 23 145.5 69s55.5 106.333 55.5 181c0 78.667 -18.167 141.334 -54.5 188.001s-85.166 70 -146.499 70z
M39.999 358.999c0 112 32.167 203.667 96.5 275s148.833 107 253.5 107c92 0 167 -25.667 225 -77c41.333 58.667 105.666 88 192.999 88c74.667 0 132.334 -18.5 173.001 -55.5s61 -89.5 61 -157.5v-739h-150v739c0 27.333 -7 48.333 -21 63s-34 22 -60 22
c-28.667 0 -49.334 -7.5 -62.001 -22.5s-19 -39.167 -19 -72.5v-66c8 -34 12 -70.333 12 -109c0 -107.333 -32 -197 -96 -269s-149 -108 -255 -108c-105.333 0 -190.166 35.833 -254.499 107.5s-96.5 163.167 -96.5 274.5z" />
    <glyph glyph-name="uni01a3" unicode="&#x1a3;" horiz-adv-x="722" 
d="M273 437c-38.667 0 -69.167 -15.667 -91.5 -47s-33.5 -75.333 -33.5 -132c0 -57.333 11.167 -101.5 33.5 -132.5s52.833 -46.5 91.5 -46.5c38 0 68.333 15.5 91 46.5s34 74.167 34 129.5c0 30.667 -3.16699 58.667 -9.5 84s-19.333 48 -39 68s-45.167 30 -76.5 30z
M697 369l-0.000976562 -593.997h-134v614c0 18 -1.33301 31 -4 39c-2.66699 9.33301 -9 14.666 -19 15.999c-2 0.666992 -4.66699 1 -8 1c-14.667 0 -27.334 -1.66699 -38.001 -5c27.333 -50 41 -112 41 -186c0 -92.667 -23.5 -166.167 -70.5 -220.5
s-110.833 -81.5 -191.5 -81.5c-81.333 0 -145.333 27.167 -192 81.5s-70 129.166 -70 224.499s23.333 170.166 70 224.499s110.334 81.5 191.001 81.5c54.667 0 101.667 -12 141 -36c42 24 83.667 36 125 36c58.667 0 99.834 -16 123.501 -48s35.5 -81 35.5 -147z" />
    <glyph glyph-name="uni01A4" unicode="&#x1a4;" horiz-adv-x="914" 
d="M473 385h140c78 0 117 36.333 117 109c0 37.333 -9.5 65 -28.5 83s-48.5 27 -88.5 27h-140v-219zM267 316c-44.667 0 -82.667 6.66699 -114 20s-54.333 31 -69 53s-25 43.5 -31 64.5s-9 43.167 -9 66.5c0 66.667 18.5 118.167 55.5 154.5s89.5 54.5 157.5 54.5h388
c76 0 134.167 -19.333 174.5 -58s60.5 -94.667 60.5 -168c0 -74 -20 -133 -60 -177s-93.333 -66 -160 -66h-187v-260h-150v579h-66c-56.667 0 -85 -19 -85 -57c0 -20 7.5 -34.333 22.5 -43s39.167 -13 72.5 -13v-150z" />
    <glyph glyph-name="uni01A5" unicode="&#x1a5;" horiz-adv-x="611" 
d="M316 432c-35.333 0 -63.833 -15.667 -85.5 -47s-32.5 -72.333 -32.5 -123s10.833 -91.5 32.5 -122.5s50.167 -46.5 85.5 -46.5c34.667 0 63 15.667 85 47s33 71.333 33 120c0 51.333 -10.833 92.833 -32.5 124.5s-50.167 47.5 -85.5 47.5zM348 549
c68 0 122.668 -27.333 164.001 -82s62 -123 62 -205s-21.5 -150.167 -64.5 -204.5s-96.833 -81.5 -161.5 -81.5c-66.667 0 -116.667 29.333 -150 88v-282h-140v782c0 43.333 10.167 74.833 30.5 94.5s52.5 29.5 96.5 29.5c20 0 45.667 -1.66699 77 -5v-112
c-8.66699 2.66699 -16.334 4 -23.001 4c-27.333 0 -41 -11.667 -41 -35v-80c33.333 59.333 83.333 89 150 89z" />
    <glyph glyph-name="uni01A6" unicode="&#x1a6;" horiz-adv-x="647" 
d="M210 297l122 -0.000976562c27.333 0 47.333 4.83301 60 14.5s19 25.834 19 48.501c0 46.667 -26.333 70 -79 70h-122v-133zM210 186.999v-186.998h-150v729h150v-189h151c36 0 67 -5.33301 93 -16s45.5 -24.667 58.5 -42s22.5 -34.833 28.5 -52.5s9 -35.834 9 -54.501
c0 -28 -5 -54.333 -15 -79s-23 -44 -39 -58c51.333 -22.667 77 -76.334 77 -161.001v-169c0 -16 2 -29.167 6 -39.5s7.83301 -17 11.5 -20s9.16699 -6.83301 16.5 -11.5v-27h-161c-15.333 28 -23 63 -23 105v174c0 27.333 -11.5 50.5 -34.5 69.5s-49.167 28.5 -78.5 28.5
h-100z" />
    <glyph glyph-name="uni01A7" unicode="&#x1a7;" horiz-adv-x="667" 
d="M58 507c0 38 6.50391 71.5029 19.5039 100.503s29.167 51.667 48.5 68s42.333 29.666 69 39.999s51.834 17.166 75.501 20.499s48.167 5 73.5 5c87.333 0 155.166 -19.5 203.499 -58.5s72.5 -94.167 72.5 -165.5c0 -56.667 -15.667 -100 -47 -130s-84 -52 -158 -66
l-102 -20c-50 -9.33301 -85.333 -22 -106 -38s-31 -38.667 -31 -68c0 -30.667 13.167 -54.667 39.5 -72s62.166 -26 107.499 -26c50.667 0 90 10.333 118 31s43.333 50.667 46 90h146c-4.66699 -78 -32.834 -137.667 -84.501 -179s-124.167 -62 -217.5 -62
c-94 0 -167.333 20.833 -220 62.5s-79 99.5 -79 173.5c0 57.333 15.333 101.833 46 133.5s79.667 54.167 147 67.5l114 22c53.333 10.667 89.666 22.5 108.999 35.5s29 32.833 29 59.5c0 27.333 -11.333 49.166 -34 65.499s-53.334 24.5 -92.001 24.5
c-96.667 0 -147.667 -38 -153 -114h-140z" />
    <glyph glyph-name="uni01A8" unicode="&#x1a8;" horiz-adv-x="556" 
d="M383 157l137.003 -0.00195312c-4 -120 -89 -180 -255 -180c-44.667 0 -83.334 5.83301 -116.001 17.5s-57.167 27.167 -73.5 46.5s-28.166 38.833 -35.499 58.5s-11 39.834 -11 60.501c0 70 35.333 115.333 106 136l177 51c19.333 6 32.333 11.833 39 17.5
s10 13.834 10 24.501c0 15.333 -7.33301 27.5 -22 36.5s-34.334 13.5 -59.001 13.5c-66.667 0 -100.334 -24.333 -101.001 -73h-135c1.33301 57.333 22.666 102.166 63.999 134.499s98.333 48.5 171 48.5c68.667 0 122.834 -16.167 162.501 -48.5
s59.5 -76.166 59.5 -131.499c0 -11.333 -1 -22 -3 -32s-5 -18.833 -9 -26.5s-7.83301 -14.5 -11.5 -20.5s-8.83398 -11.5 -15.501 -16.5l-16.5 -12.5c-4.33301 -3.33301 -10.5 -6.5 -18.5 -9.5s-13.5 -5.16699 -16.5 -6.5s-8.16699 -3.16602 -15.5 -5.49902
s-11.333 -3.5 -12 -3.5l-167 -52c-17.333 -5.33301 -29.5 -11.333 -36.5 -18s-10.5 -15.334 -10.5 -26.001c0 -16.667 9.16699 -29.667 27.5 -39s43.833 -14 76.5 -14c40 0 67.167 6 81.5 18s23.833 29.333 28.5 52z" />
    <glyph glyph-name="uni01A9" unicode="&#x1a9;" horiz-adv-x="673" 
d="M410 390l-223 -262h429v-128h-616v117l229 273l-195 226v113h562v-128h-368z" />
    <glyph glyph-name="uni01aa" unicode="&#x1aa;" horiz-adv-x="441" 
d="M184 628c-10 0 -18.667 -3.50195 -26 -10.502s-11 -15.167 -11 -24.5s3.66699 -17.666 11 -24.999s16 -11 26 -11s18.667 3.5 26 10.5s11 15.167 11 24.5c0 10.667 -3.5 19.334 -10.5 26.001s-15.833 10 -26.5 10zM184 444.998c-40.667 0 -75.499 14.5 -104.499 43.5
s-43.5 63.833 -43.5 104.5c0 40 14.5 74.5 43.5 103.5s63.833 43.5 104.5 43.5c44.667 0 80.5 -13.5 107.5 -40.5s40.5 -63.167 40.5 -108.5v-637c0 -9.33301 0.666992 -17.333 2 -24c2 -10 8.33301 -16 19 -18c6 -1.33301 13.667 -2 23 -2
c1.33301 0 7.66602 0.333008 18.999 1l26 2v-118l-20 -5c-12 -2 -23 -3 -33 -3c-54 0 -95.667 11.667 -125 35s-44 56.333 -44 99v525c-4.66699 -0.666992 -9.66699 -1 -15 -1z" />
    <glyph glyph-name="uni01AB" unicode="&#x1ab;" horiz-adv-x="333" 
d="M301 529l-0.000976562 -92.999h-78v-294c0 -24 3 -39.833 9 -47.5s18.333 -11.5 37 -11.5c7.33301 0 18 1 32 3v-180c0 -44 -9.66699 -75.667 -29 -95s-50.666 -29 -93.999 -29c-24 0 -51.667 1.66699 -83 5v112c8.66699 -2.66699 17 -4 25 -4
c15.333 0 26 3.16699 32 9.5s9 17.166 9 32.499v48c-52 15.333 -78 55 -78 119v332h-69v93h69v145h140v-145h78z" />
    <glyph glyph-name="uni01AC" unicode="&#x1ac;" horiz-adv-x="742" 
d="M259 604c-26.667 0 -48.168 -5.33203 -64.501 -15.999s-24.5 -23.667 -24.5 -39c0 -16 8.5 -29.667 25.5 -41s41.5 -17 73.5 -17v-125c-73.333 0 -128.333 18 -165 54c-21.333 21.333 -36.666 41.166 -45.999 59.499s-14 41.833 -14 70.5c0 49.333 19.5 91.5 58.5 126.5
s91.167 52.5 156.5 52.5h470v-125h-213v-604h-150v604h-107z" />
    <glyph glyph-name="uni01AD" unicode="&#x1ad;" horiz-adv-x="333" 
d="M301 529l0.000976562 -93.001h-78v-294c0 -24 3 -39.833 9 -47.5s18.333 -11.5 37 -11.5c7.33301 0 18 1 32 3v-98c-22.667 -7.33301 -49.667 -11 -81 -11c-91.333 0 -137 42.333 -137 127v332h-69v93h69v76c0 44 9.66699 75.667 29 95s50.666 29 93.999 29
c24 0 51.667 -1.66699 83 -5v-112c-8.66699 2.66699 -17 4 -25 4c-15.333 0 -26 -3.16699 -32 -9.5s-9 -17.166 -9 -32.499v-45h78z" />
    <glyph glyph-name="uni01AE" unicode="&#x1ae;" horiz-adv-x="611" 
d="M235 -94l-0.000976562 698h-221v125h584v-125h-213v-667c0 -28 11.333 -42 34 -42c4 0 11.333 1.33301 22 4v-112c-31.333 -3.33301 -59 -5 -83 -5c-43.333 0 -74.666 9.66699 -93.999 29s-29 51 -29 95z" />
    <glyph glyph-name="Uhorn" unicode="&#x1af;" horiz-adv-x="789" 
d="M365 -23c-26.667 0 -52.5039 2.33301 -77.5039 7s-50.667 13 -77 25s-49.166 27.333 -68.499 46s-35.166 43.5 -47.499 74.5s-18.5 66.167 -18.5 105.5v494h150v-494c0 -86.667 46.333 -130 139 -130s139 43.333 139 130v494h3c82 0 123 41 123 123
c0 12.667 -1.33301 27.334 -4 44.001h142c0.666992 -5.33301 1 -11 1 -17c0 -32 -10 -61.333 -30 -88s-48.333 -47.334 -85 -62.001v-494c0 -39.333 -6.16699 -74.5 -18.5 -105.5s-28.166 -55.833 -47.499 -74.5s-42.166 -34 -68.499 -46s-52 -20.333 -77 -25
s-50.833 -7 -77.5 -7z" />
    <glyph glyph-name="uhorn" unicode="&#x1b0;" horiz-adv-x="676" 
d="M541 0l-140 0.000976562v64c-38.667 -58 -92.667 -87 -162 -87c-57.333 0 -101.833 16.333 -133.5 49s-47.5 78.667 -47.5 138v376h140v-347c0 -64.667 30 -97 90 -97c34 0 61.333 9.66699 82 29s31 45 31 77v338c40.667 0 70.167 10.167 88.5 30.5
s27.5 51.166 27.5 92.499c0 12.667 -1.33301 27.334 -4 44.001h142c0.666992 -5.33301 1 -11 1 -17c0 -32 -10 -61.333 -30 -88s-48.333 -47.334 -85 -62.001v-540z" />
    <glyph glyph-name="uni01B1" unicode="&#x1b1;" horiz-adv-x="766" 
d="M170 350c0 -70 20.168 -128.499 60.501 -175.499s94.166 -70.5 161.499 -70.5c62.667 0 113.5 23.667 152.5 71s58.5 106.666 58.5 177.999c0 125.333 -58 212 -174 260v118h317v-122h-123c78.667 -65.333 118 -151 118 -257c0 -65.333 -13.667 -125.833 -41 -181.5
s-67.833 -101 -121.5 -136s-115.167 -52.5 -184.5 -52.5c-111.333 0 -200.333 35 -267 105s-100 157 -100 261c0 111.333 40.667 198.333 122 261h-120v122h328v-117c-124.667 -50 -187 -138 -187 -264z" />
    <glyph glyph-name="uni01b2" unicode="&#x1b2;" horiz-adv-x="722" 
d="M60 243l-0.00195312 488h143v-528c0 -26 10.833 -46.333 32.5 -61s44.5 -22 68.5 -22c20.667 0 40.167 1.5 58.5 4.5s37.833 9.33301 58.5 19s38.334 22 53.001 37s26.834 35.667 36.501 62s14.5 56.833 14.5 91.5v2c0 36 -2.5 68.333 -7.5 97s-14.333 58 -28 88
s-27 55.833 -40 77.5s-33.167 52.834 -60.5 93.501l-25 39h167l7 -10c46 -62 79.167 -122.833 99.5 -182.5s30.5 -123.834 30.5 -192.501c0 -122.667 -29 -213 -87 -271s-140.333 -87 -247 -87c-182.667 0 -274 85 -274 255z" />
    <glyph glyph-name="uni01B3" unicode="&#x1b3;" horiz-adv-x="839" 
d="M671 546c0 18 -6.33301 30.833 -19 38.5s-24 11.5 -34 11.5c-24.667 0 -46 -18.667 -64 -56l-135 -270v-270h-150v270l-242 459h167l149 -322l84 194c40 85.333 98.333 128 175 128c26.667 0 52.167 -3.5 76.5 -10.5s47.333 -18 69 -33s39 -35.833 52 -62.5
s19.5 -57.667 19.5 -93c0 -30.667 -10.667 -69 -32 -115l-135 65c12.667 26 19 48 19 66z" />
    <glyph glyph-name="uni01B4" unicode="&#x1b4;" horiz-adv-x="620" 
d="M283 204l95.9971 258c5.33301 14.667 10.166 26.334 14.499 35.001s10.333 17.667 18 27s17 16.166 28 20.499s24.167 6.5 39.5 6.5c26.667 0 62.334 -11.667 107.001 -35l-33 -112c-23.333 14 -39.333 21 -48 21c-4.66699 0 -10.667 -10 -18 -30l-146 -389
c-24.667 -66 -43.334 -109 -56.001 -129c-32.667 -52 -77.667 -78 -135 -78c-17.333 0 -42.666 6 -75.999 18l-15 122c14.667 -1.33301 28.834 -3.5 42.501 -6.5s25.834 -4.5 36.501 -4.5c17.333 0 31.333 5.16699 42 15.5s21.334 32.833 32.001 67.5l4 12l-199 517h144z
" />
    <glyph glyph-name="uni01B5" unicode="&#x1b5;" horiz-adv-x="611" 
d="M578 729v-125l-159 -205h107v-67h-159l-161 -207h372v-125h-548v125l161 207h-103v67h155l160 205h-373v125h548z" />
    <glyph glyph-name="uni01B6" unicode="&#x1b6;" horiz-adv-x="500" 
d="M459 540v-113l-96 -114h51v-67h-108l-112 -133h274v-113h-447v113l113 133h-53v67h110l97 114h-249v113h420z" />
    <glyph glyph-name="Yogh" unicode="&#x1b7;" horiz-adv-x="556" 
d="M356 393c54.667 -14 94.999 -38.501 120.999 -73.501s39 -73.5 39 -115.5c0 -69.333 -22.5 -124.5 -67.5 -165.5s-105.167 -61.5 -180.5 -61.5c-72.667 0 -130.5 20.833 -173.5 62.5s-64.833 97.834 -65.5 168.501h136c4 -74 39.333 -111 106 -111
c30.667 0 55.834 10 75.501 30s29.5 45.667 29.5 77c0 26 -7 48.5 -21 67.5s-32.667 31.833 -56 38.5c-18.667 4.66699 -46 7 -82 7v94l108 193h-255v125h401v-125z" />
    <glyph glyph-name="uni01B8" unicode="&#x1b8;" horiz-adv-x="556" 
d="M29 204c0 40.667 12.832 78.834 38.499 114.501s66.167 60.5 121.5 74.5l-115 211v125h401v-125h-255l108 -193v-94c-36 0 -63.333 -2.33301 -82 -7c-23.333 -6.66699 -42 -19.5 -56 -38.5s-21 -41.5 -21 -67.5c0 -31.333 9.83301 -57 29.5 -77s44.834 -30 75.501 -30
c66.667 0 102 37 106 111h136c-0.666992 -70.667 -22.5 -126.834 -65.5 -168.501s-100.833 -62.5 -173.5 -62.5c-75.333 0 -135.5 20.5 -180.5 61.5s-67.5 96.167 -67.5 165.5z" />
    <glyph glyph-name="uni01b9" unicode="&#x1b9;" horiz-adv-x="645" 
d="M208 293l-129.999 132.002v99h491v-123h-296l135 -112v-109h-86c-52 0 -89 -8.83301 -111 -26.5s-33 -43.167 -33 -76.5c0 -30 12.667 -52.833 38 -68.5s60.666 -23.5 105.999 -23.5c46 0 81 7.66699 105 23s37.667 42.333 41 81l1 47h142l-2 -50
c-6 -78 -32 -135.667 -78 -173s-114.667 -56 -206 -56s-162.5 20 -213.5 60s-76.5 93.667 -76.5 161c0 57.333 14.667 104.166 44 140.499s72.333 61.166 129 74.499z" />
    <glyph glyph-name="uni01ba" unicode="&#x1ba;" horiz-adv-x="569" 
d="M529 108c0 -60 -23.5029 -108.832 -70.5029 -146.499s-106.5 -56.5 -178.5 -56.5c-10.667 0 -30.167 3.5 -58.5 10.5s-45.833 10.5 -52.5 10.5c-5.33301 0 -8 -1.33301 -8 -4c0 -11.333 9.33301 -23 28 -35s38.667 -18 60 -18c54.667 0 113.334 12 176.001 36l24 10
l39 -117l-22 -8l-55.5 -20c-11.667 -4 -33.5 -9 -65.5 -15s-64 -9 -96 -9c-70 0 -124 19 -162 57s-57 83.667 -57 137c0 11.333 1.33301 22.166 4 32.499s7.83398 21.333 15.501 33s20.167 21 37.5 28s38.666 10.5 63.999 10.5c20.667 0 46.334 -2.66699 77.001 -8
s48 -8 52 -8c24.667 0 50.834 6.5 78.501 19.5s41.5 31.5 41.5 55.5c0 22.667 -12.167 41.167 -36.5 55.5s-55.5 21.5 -93.5 21.5h-73v109l115 137h-264v123h441v-108l-121 -148c53.333 -12 93.5 -33.833 120.5 -65.5s40.5 -71.5 40.5 -119.5z" />
    <glyph glyph-name="uni01bb" unicode="&#x1bb;" horiz-adv-x="579" 
d="M297 740c74 0 134.497 -21.667 181.497 -65s70.5 -99.333 70.5 -168c0 -77.333 -34.333 -143 -103 -197l60 -24v-131l-191 77l-29 -15c-2 -1.33301 -5 -3 -9 -5c-24 -12.667 -40.833 -22 -50.5 -28s-19.167 -13.5 -28.5 -22.5s-16 -18.833 -20 -29.5h366v-131h-523l1 26
c2.66699 47.333 9.16699 86.5 19.5 117.5s25 57.333 44 79s46.167 44.834 81.5 69.501l-44 17v131l174 -70l29 16c55.333 31.333 83 70.666 83 117.999c0 31.333 -10.833 57.166 -32.5 77.499s-49.167 30.5 -82.5 30.5c-23.333 0 -43 -4.16699 -59 -12.5
s-27.833 -20.166 -35.5 -35.499s-13.167 -30.333 -16.5 -45s-5.66602 -32.334 -6.99902 -53.001l-1 -23h-138l1 26c0.666992 27.333 3.33398 52.833 8.00098 76.5s13 47.834 25 72.501s27.333 45.5 46 62.5s43.334 31 74.001 42s66 16.5 106 16.5z" />
    <glyph glyph-name="uni01be" unicode="&#x1be;" horiz-adv-x="611" 
d="M64 248l136.002 0.000976562c0 -48.667 10.667 -85 32 -109s47.333 -36 78 -36c30 0 55 11 75 33s30 49.333 30 82c0 23.333 -5.83301 43.5 -17.5 60.5s-25.834 31.667 -42.501 44s-33.334 26 -50.001 41s-30.834 36.333 -42.501 64s-17.5 61.167 -17.5 100.5v18h-88v93
h88v90h124v-90h87v-93h-87v-18c0 -32.667 3.66699 -55.334 11 -68.001s26 -29.667 56 -51c46.667 -32.667 78.334 -62.667 95.001 -90s25 -62 25 -104c0 -68 -23.167 -123.333 -69.5 -166s-106.166 -64 -179.499 -64c-28.667 0 -55.334 3.33301 -80.001 10
s-50.167 18.667 -76.5 36s-47.333 44.5 -63 81.5s-23.5 82.167 -23.5 135.5z" />
    <glyph glyph-name="uni01bf" unicode="&#x1bf;" horiz-adv-x="608" 
d="M189 340v-268.002l68.5 48c17.667 12.667 39.167 29.834 64.5 51.501s45.333 41.834 60 60.501s27.5 40.167 38.5 64.5s16.5 48.833 16.5 73.5c0 38 -24 57 -72 57c-23.333 0 -50.5 -6.5 -81.5 -19.5s-62.5 -35.5 -94.5 -67.5zM189 -77.002l-0.00195312 -123.001h-134
v739h134v-49c31.333 25.333 62.333 42.5 93 51.5s69.334 13.5 116.001 13.5c50.667 0 93 -18 127 -54s51 -83.667 51 -143c0 -30 -5.16699 -59.667 -15.5 -89s-22.833 -55.5 -37.5 -78.5s-34.167 -46.667 -58.5 -71s-46.166 -44.5 -65.499 -60.5s-43.333 -33.667 -72 -53
s-50.334 -33.166 -65.001 -41.499l-57 -32.5c-7.33301 -4.66699 -12.666 -7.66699 -15.999 -9z" />
    <glyph glyph-name="uni01c0" unicode="&#x1c0;" horiz-adv-x="260" 
d="M180 729v-929h-80v929h80z" />
    <glyph glyph-name="uni01c1" unicode="&#x1c1;" horiz-adv-x="370" 
d="M180 729v-929h-80v929h80zM290 729v-929h-80v929h80z" />
    <glyph glyph-name="uni01c2" unicode="&#x1c2;" horiz-adv-x="584" 
d="M255 731h70v-373h214v-80h-214v-92h214v-80h-214v-306h-70v306h-210v80h210v92h-210v80h210v373z" />
    <glyph glyph-name="uni01c3" unicode="&#x1c3;" horiz-adv-x="278" 
d="M262 726v-210l-42 -309h-67l-41 309v210h150zM262 146v-146h-150v146h150z" />
    <glyph glyph-name="uni01C4" unicode="&#x1c4;" horiz-adv-x="1333" 
d="M1080 786h-107l-103 150h78l82 -97l82 97h76zM1300 729v-125l-372 -479h372v-125h-548v125l373 479h-373v125h548zM77 0v728.998h285c56 0 102.167 -6.66699 138.5 -20s66.833 -34.666 91.5 -63.999c59.333 -70.667 89 -164 89 -280
c0 -117.333 -29.667 -210.666 -89 -279.999c-47.333 -56.667 -124 -85 -230 -85h-285zM227 124.998h135c112.667 0 169 79.667 169 239c0 160 -56.333 240 -169 240h-135v-479z" />
    <glyph glyph-name="uni01C5" unicode="&#x1c5;" horiz-adv-x="1222" 
d="M1024 607h-107l-103 150h78l82 -97l82 97h76zM1181 540v-113l-265 -314h274v-113h-447v113l267 314h-249v113h420zM77 0v728.998h285c56 0 102.167 -6.66699 138.5 -20s66.833 -34.666 91.5 -63.999c59.333 -70.667 89 -164 89 -280
c0 -117.333 -29.667 -210.666 -89 -279.999c-47.333 -56.667 -124 -85 -230 -85h-285zM227 124.998h135c112.667 0 169 79.667 169 239c0 160 -56.333 240 -169 240h-135v-479z" />
    <glyph glyph-name="uni01C6" unicode="&#x1c6;" horiz-adv-x="1111" 
d="M913 607h-107l-103 150h78l82 -97l82 97h76zM1070 540v-113l-265 -314h274v-113h-447v113l267 314h-249v113h420zM256 -23c-66.667 0 -121.166 27.332 -163.499 81.999s-63.5 122.334 -63.5 203.001c0 81.333 21.667 149.5 65 204.5s97.333 82.5 162 82.5
c65.333 0 115 -26.333 149 -79v259h140v-729h-140v55c-34.667 -52 -84.334 -78 -149.001 -78zM287.001 431.999c-34.667 0 -63 -15.834 -85 -47.501s-33 -72.5 -33 -122.5c0 -49.333 11 -89.666 33 -120.999s50.333 -47 85 -47s63 15.333 85 46s33 70.667 33 120
c0 51.333 -10.833 92.833 -32.5 124.5s-50.167 47.5 -85.5 47.5z" />
    <glyph glyph-name="uni01C7" unicode="&#x1c7;" horiz-adv-x="1167" 
d="M863 -23c-27.333 0 -53.5 3.33203 -78.5 9.99902s-49.167 17.834 -72.5 33.501s-42 38.667 -56 69s-21 66.5 -21 108.5v72h150v-70c0 -33.333 6.33301 -57.5 19 -72.5s33.334 -22.5 62.001 -22.5c26 0 46 7.33301 60 22s21 35.667 21 63v539h150v-539
c0 -68 -20.333 -120.5 -61 -157.5s-98.334 -55.5 -173.001 -55.5zM230 728.999v-604h349v-125h-499v729h150z" />
    <glyph glyph-name="uni01C8" unicode="&#x1c8;" horiz-adv-x="889" 
d="M821 540l-0.000976562 -633.999c0 -44 -9.66699 -75.667 -29 -95s-50.666 -29 -93.999 -29c-24 0 -51.667 1.66699 -83 5v112c8.66699 -2.66699 17 -4 25 -4c15.333 0 26 3.16699 32 9.5s9 17.166 9 32.499v603h140zM820.999 729.001v-125h-140v125h140zM229.999 729.001
v-604h349v-125h-499v729h150z" />
    <glyph glyph-name="uni01C9" unicode="&#x1c9;" horiz-adv-x="556" 
d="M488 540l-0.000976562 -633.999c0 -44 -9.66699 -75.667 -29 -95s-50.666 -29 -93.999 -29c-24 0 -51.667 1.66699 -83 5v112c8.66699 -2.66699 17 -4 25 -4c15.333 0 26 3.16699 32 9.5s9 17.166 9 32.499v603h140zM487.999 729.001v-125h-140v125h140zM206.999 729.001
v-729h-140v729h140z" />
    <glyph glyph-name="uni01CA" unicode="&#x1ca;" horiz-adv-x="1278" 
d="M974 -23c-27.333 0 -53.5 3.33203 -78.5 9.99902s-49.167 17.834 -72.5 33.501s-42 38.667 -56 69s-21 66.5 -21 108.5v72h150v-70c0 -33.333 6.33301 -57.5 19 -72.5s33.334 -22.5 62.001 -22.5c26 0 46 7.33301 60 22s21 35.667 21 63v539h150v-539
c0 -68 -20.333 -120.5 -61 -157.5s-98.334 -55.5 -173.001 -55.5zM511 -0.000976562l-293 504v-504h-150v729h154l289 -496v496h150v-729h-150z" />
    <glyph glyph-name="uni01CB" unicode="&#x1cb;" horiz-adv-x="1000" 
d="M932 540l-0.000976562 -633.999c0 -44 -9.66699 -75.667 -29 -95s-50.666 -29 -93.999 -29c-24 0 -51.667 1.66699 -83 5v112c8.66699 -2.66699 17 -4 25 -4c15.333 0 26 3.16699 32 9.5s9 17.166 9 32.499v603h140zM931.999 729.001v-125h-140v125h140z
M510.999 0.000976562l-293 504v-504h-150v729h154l289 -496v496h150v-729h-150z" />
    <glyph glyph-name="uni01CC" unicode="&#x1cc;" horiz-adv-x="889" 
d="M821 540l-0.000976562 -633.999c0 -44 -9.66699 -75.667 -29 -95s-50.666 -29 -93.999 -29c-24 0 -51.667 1.66699 -83 5v112c8.66699 -2.66699 17 -4 25 -4c15.333 0 26 3.16699 32 9.5s9 17.166 9 32.499v603h140zM820.999 729.001v-125h-140v125h140zM62.999 540.001
h140v-78c38.667 58 92.667 87 162 87c57.333 0 101.833 -16.333 133.5 -49s47.5 -78.667 47.5 -138v-362h-140v333c0 64.667 -30 97 -90 97c-34 0 -61.333 -9.66699 -82 -29s-31 -45 -31 -77v-324h-140v540z" />
    <glyph glyph-name="uni01CD" unicode="&#x1cd;" horiz-adv-x="722" 
d="M419 801h-107l-103 150h78l82 -97l82 97h76zM501 147h-273l-49 -147h-153l259 729h166l252 -729h-154zM460 272l-95 285l-95 -285h190z" />
    <glyph glyph-name="uni01CE" unicode="&#x1ce;" horiz-adv-x="556" 
d="M322 609h-107l-103 150h78l82 -97l82 97h76zM192 -23c-49.333 0 -89 14.832 -119 44.499s-45 68.834 -45 117.501c0 95.333 53 152 159 170l56 10c1.33301 0 8 0.833008 20 2.5s19.667 3 23 4s9.83301 2.5 19.5 4.5s16.5 4.33301 20.5 7s8.83301 6.16699 14.5 10.5
s9.5 9.33301 11.5 15s3 12.167 3 19.5c0 36 -27 54 -81 54c-34.667 0 -59 -5.33301 -73 -16s-22.667 -30 -26 -58h-135c8.66699 124.667 85.667 187 231 187c147.333 0 221 -55.333 221 -166v-300c0 -24.667 10.667 -46.667 32 -66v-17h-152
c-10.667 13.333 -16 31.333 -16 54c-49.333 -51.333 -104 -77 -164 -77zM355 216.999l0.00195312 38c-12.667 -6 -32.334 -11.667 -59.001 -17l-48 -9c-29.333 -6 -50 -14.667 -62 -26s-18 -27.333 -18 -48c0 -20 6.83301 -35.833 20.5 -47.5s32.167 -17.5 55.5 -17.5
c35.333 0 62.666 11 81.999 33s29 53.333 29 94z" />
    <glyph glyph-name="uni01CF" unicode="&#x1cf;" horiz-adv-x="278" 
d="M189 801h-107l-103 150h78l82 -97l82 97h76zM213 729v-729h-150v729h150z" />
    <glyph glyph-name="uni01D0" unicode="&#x1d0;" horiz-adv-x="278" 
d="M188 609h-107l-103 150h78l82 -97l82 97h76zM207 540v-540h-140v540h140z" />
    <glyph glyph-name="uni01D1" unicode="&#x1d1;" horiz-adv-x="778" 
d="M441 801h-107l-103 150h78l82 -97l82 97h76zM40 359c0 112 32.168 203.667 96.501 275s148.833 107 253.5 107c105.333 0 190.333 -35.5 255 -106.5s97 -164.5 97 -280.5c0 -108 -31.833 -197.833 -95.5 -269.5s-148.834 -107.5 -255.501 -107.5
c-106 0 -191 35.667 -255 107s-96 163 -96 275zM391.001 613c-60.667 0 -109.335 -23.168 -146.002 -69.501s-55 -107.833 -55 -184.5s18.333 -138.167 55 -184.5s85.334 -69.5 146.001 -69.5c60 0 108.5 23 145.5 69s55.5 106.333 55.5 181
c0 78.667 -18.167 141.334 -54.5 188.001s-85.166 70 -146.499 70z" />
    <glyph glyph-name="uni01D2" unicode="&#x1d2;" horiz-adv-x="611" 
d="M352 609h-107l-103 150h78l82 -97l82 97h76zM301 549c84.667 0 150.499 -25.499 197.499 -76.499s70.5 -122.167 70.5 -213.5c0 -86.667 -24 -155.334 -72 -206.001s-113 -76 -195 -76c-83.333 0 -148.666 25.5 -195.999 76.5s-71 120.833 -71 209.5
s23.667 158.5 71 209.5s112.333 76.5 195 76.5zM301.999 436.001c-38 0 -68.667 -16.001 -92 -48.001s-35 -73.667 -35 -125s11.667 -93 35 -125s54 -48 92 -48c37.333 0 67.833 15.833 91.5 47.5s35.5 72.834 35.5 123.501c0 53.333 -11.5 95.833 -34.5 127.5
s-53.833 47.5 -92.5 47.5z" />
    <glyph glyph-name="uni01D3" unicode="&#x1d3;" horiz-adv-x="722" 
d="M416 801h-107l-103 150h78l82 -97l82 97h76zM365 -23c-26.667 0 -52.5039 2.33301 -77.5039 7s-50.667 13 -77 25s-49.166 27.333 -68.499 46s-35.166 43.5 -47.499 74.5s-18.5 66.167 -18.5 105.5v494h150v-494c0 -86.667 46.333 -130 139 -130s139 43.333 139 130v494
h150v-494c0 -39.333 -6.16699 -74.5 -18.5 -105.5s-28.166 -55.833 -47.499 -74.5s-42.166 -34 -68.499 -46s-52 -20.333 -77 -25s-50.833 -7 -77.5 -7z" />
    <glyph glyph-name="uni01D4" unicode="&#x1d4;" horiz-adv-x="611" 
d="M351 609h-107l-103 150h78l82 -97l82 97h76zM541 0h-140v64c-38.667 -58 -92.667 -87 -162 -87c-57.333 0 -101.833 16.333 -133.5 49s-47.5 78.667 -47.5 138v376h140v-347c0 -64.667 30 -97 90 -97c34 0 61.333 9.66699 82 29s31 45 31 77v338h140v-540z" />
    <glyph glyph-name="uni01D5" unicode="&#x1d5;" horiz-adv-x="722" 
d="M518 886v-122h-110v122h110zM322 886v-122h-110v122h110zM365 -23c-26.667 0 -52.5039 2.33301 -77.5039 7s-50.667 13 -77 25s-49.166 27.333 -68.499 46s-35.166 43.5 -47.499 74.5s-18.5 66.167 -18.5 105.5v494h150v-494c0 -86.667 46.333 -130 139 -130
s139 43.333 139 130v494h150v-494c0 -39.333 -6.16699 -74.5 -18.5 -105.5s-28.166 -55.833 -47.499 -74.5s-42.166 -34 -68.499 -46s-52 -20.333 -77 -25s-50.833 -7 -77.5 -7zM514.996 999v-79h-299v79h299z" />
    <glyph glyph-name="uni01D6" unicode="&#x1d6;" horiz-adv-x="611" 
d="M448 882v-79h-299v79h299zM451 743v-122h-110v122h110zM255 743v-122h-110v122h110zM541 0h-140v64c-38.667 -58 -92.667 -87 -162 -87c-57.333 0 -101.833 16.333 -133.5 49s-47.5 78.667 -47.5 138v376h140v-347c0 -64.667 30 -97 90 -97c34 0 61.333 9.66699 82 29
s31 45 31 77v338h140v-540z" />
    <glyph glyph-name="uni01D7" unicode="&#x1d7;" horiz-adv-x="722" 
d="M518 892v-122h-110v122h110zM322 892v-122h-110v122h110zM365 -23c-26.667 0 -52.5039 2.33301 -77.5039 7s-50.667 13 -77 25s-49.166 27.333 -68.499 46s-35.166 43.5 -47.499 74.5s-18.5 66.167 -18.5 105.5v494h150v-494c0 -86.667 46.333 -130 139 -130
s139 43.333 139 130v494h150v-494c0 -39.333 -6.16699 -74.5 -18.5 -105.5s-28.166 -55.833 -47.499 -74.5s-42.166 -34 -68.499 -46s-52 -20.333 -77 -25s-50.833 -7 -77.5 -7zM525.996 1064l-126 -150h-70l70 150h126z" />
    <glyph glyph-name="uni01D8" unicode="&#x1d8;" horiz-adv-x="611" 
d="M459 953l-126 -150h-70l70 150h126zM451 743v-122h-110v122h110zM255 743v-122h-110v122h110zM541 0h-140v64c-38.667 -58 -92.667 -87 -162 -87c-57.333 0 -101.833 16.333 -133.5 49s-47.5 78.667 -47.5 138v376h140v-347c0 -64.667 30 -97 90 -97
c34 0 61.333 9.66699 82 29s31 45 31 77v338h140v-540z" />
    <glyph glyph-name="uni01D9" unicode="&#x1d9;" horiz-adv-x="722" 
d="M518 890v-122h-110v122h110zM322 890v-122h-110v122h110zM365 -23c-26.667 0 -52.5039 2.33301 -77.5039 7s-50.667 13 -77 25s-49.166 27.333 -68.499 46s-35.166 43.5 -47.499 74.5s-18.5 66.167 -18.5 105.5v494h150v-494c0 -86.667 46.333 -130 139 -130
s139 43.333 139 130v494h150v-494c0 -39.333 -6.16699 -74.5 -18.5 -105.5s-28.166 -55.833 -47.499 -74.5s-42.166 -34 -68.499 -46s-52 -20.333 -77 -25s-50.833 -7 -77.5 -7zM415.996 909h-107l-103 150h78l82 -97l82 97h76z" />
    <glyph glyph-name="uni01DA" unicode="&#x1da;" horiz-adv-x="611" 
d="M349 803h-107l-103 150h78l82 -97l82 97h76zM451 743v-122h-110v122h110zM255 743v-122h-110v122h110zM541 0h-140v64c-38.667 -58 -92.667 -87 -162 -87c-57.333 0 -101.833 16.333 -133.5 49s-47.5 78.667 -47.5 138v376h140v-347c0 -64.667 30 -97 90 -97
c34 0 61.333 9.66699 82 29s31 45 31 77v338h140v-540z" />
    <glyph glyph-name="uni01DB" unicode="&#x1db;" horiz-adv-x="722" 
d="M518 894v-122h-110v122h110zM322 894v-122h-110v122h110zM365 -23c-26.667 0 -52.5039 2.33301 -77.5039 7s-50.667 13 -77 25s-49.166 27.333 -68.499 46s-35.166 43.5 -47.499 74.5s-18.5 66.167 -18.5 105.5v494h150v-494c0 -86.667 46.333 -130 139 -130
s139 43.333 139 130v494h150v-494c0 -39.333 -6.16699 -74.5 -18.5 -105.5s-28.166 -55.833 -47.499 -74.5s-42.166 -34 -68.499 -46s-52 -20.333 -77 -25s-50.833 -7 -77.5 -7zM203.996 1068h126l70 -150h-70z" />
    <glyph glyph-name="uni01DC" unicode="&#x1dc;" horiz-adv-x="611" 
d="M137 953h126l70 -150h-70zM451 743v-122h-110v122h110zM255 743v-122h-110v122h110zM541 0h-140v64c-38.667 -58 -92.667 -87 -162 -87c-57.333 0 -101.833 16.333 -133.5 49s-47.5 78.667 -47.5 138v376h140v-347c0 -64.667 30 -97 90 -97c34 0 61.333 9.66699 82 29
s31 45 31 77v338h140v-540z" />
    <glyph glyph-name="uni01DD" unicode="&#x1dd;" horiz-adv-x="556" 
d="M275 -23c-23.333 0 -45.999 2.66699 -67.999 8s-44.5 15 -67.5 29s-43 31.833 -60 53.5s-30.833 50.334 -41.5 86.001s-16 76.5 -16 122.5c0 8 0.333008 16 1 24h362c-0.666992 20.667 -2.5 38.5 -5.5 53.5s-8.33301 29.667 -16 44s-19 25.333 -34 33
s-33.833 11.5 -56.5 11.5c-53.333 0 -89 -22.667 -107 -68h-138c15.333 53.333 45.666 95.833 90.999 127.5s98.333 47.5 159 47.5c76.667 0 137 -24.833 181 -74.5s66 -117.834 66 -204.501c0 -90.667 -22.333 -162.167 -67 -214.5s-105.667 -78.5 -183 -78.5zM168.001 207
c3.33301 -39.333 14.168 -69.667 32.501 -91s43.833 -32 76.5 -32c61.333 0 96.666 41 105.999 123h-215z" />
    <glyph glyph-name="uni01DE" unicode="&#x1de;" horiz-adv-x="722" 
d="M517 891v-122h-110v122h110zM321 891v-122h-110v122h110zM501 147h-273l-49 -147h-153l259 729h166l252 -729h-154zM460 272l-95 285l-95 -285h190zM514 1000v-79h-299v79h299z" />
    <glyph glyph-name="uni01DF" unicode="&#x1df;" horiz-adv-x="556" 
d="M421 882v-79h-299v79h299zM425 743v-122h-110v122h110zM229 743v-122h-110v122h110zM192 -23c-49.333 0 -89 14.832 -119 44.499s-45 68.834 -45 117.501c0 95.333 53 152 159 170l56 10c1.33301 0 8 0.833008 20 2.5s19.667 3 23 4s9.83301 2.5 19.5 4.5
s16.5 4.33301 20.5 7s8.83301 6.16699 14.5 10.5s9.5 9.33301 11.5 15s3 12.167 3 19.5c0 36 -27 54 -81 54c-34.667 0 -59 -5.33301 -73 -16s-22.667 -30 -26 -58h-135c8.66699 124.667 85.667 187 231 187c147.333 0 221 -55.333 221 -166v-300
c0 -24.667 10.667 -46.667 32 -66v-17h-152c-10.667 13.333 -16 31.333 -16 54c-49.333 -51.333 -104 -77 -164 -77zM355 216.999l0.00195312 38c-12.667 -6 -32.334 -11.667 -59.001 -17l-48 -9c-29.333 -6 -50 -14.667 -62 -26s-18 -27.333 -18 -48
c0 -20 6.83301 -35.833 20.5 -47.5s32.167 -17.5 55.5 -17.5c35.333 0 62.666 11 81.999 33s29 53.333 29 94z" />
    <glyph glyph-name="uni01E0" unicode="&#x1e0;" horiz-adv-x="722" 
d="M501 147h-273l-49 -147h-153l259 729h166l252 -729h-154zM460 272l-95 285l-95 -285h190zM423 890v-122h-110v122h110zM517 999v-79h-299v79h299z" />
    <glyph glyph-name="uni01E1" unicode="&#x1e1;" horiz-adv-x="556" 
d="M421 870v-79h-299v79h299zM326 731v-122h-110v122h110zM192 -23c-49.333 0 -89 14.832 -119 44.499s-45 68.834 -45 117.501c0 95.333 53 152 159 170l56 10c1.33301 0 8 0.833008 20 2.5s19.667 3 23 4s9.83301 2.5 19.5 4.5s16.5 4.33301 20.5 7
s8.83301 6.16699 14.5 10.5s9.5 9.33301 11.5 15s3 12.167 3 19.5c0 36 -27 54 -81 54c-34.667 0 -59 -5.33301 -73 -16s-22.667 -30 -26 -58h-135c8.66699 124.667 85.667 187 231 187c147.333 0 221 -55.333 221 -166v-300c0 -24.667 10.667 -46.667 32 -66v-17h-152
c-10.667 13.333 -16 31.333 -16 54c-49.333 -51.333 -104 -77 -164 -77zM355 216.999l0.00195312 38c-12.667 -6 -32.334 -11.667 -59.001 -17l-48 -9c-29.333 -6 -50 -14.667 -62 -26s-18 -27.333 -18 -48c0 -20 6.83301 -35.833 20.5 -47.5s32.167 -17.5 55.5 -17.5
c35.333 0 62.666 11 81.999 33s29 53.333 29 94z" />
    <glyph glyph-name="uni01E2" unicode="&#x1e2;" horiz-adv-x="1000" 
d="M755 880v-79h-299v79h299zM430 152h-223l-53 -152h-153l263 729h682v-125h-366v-165h339v-125h-339v-189h386v-125h-536v152zM430 277v327h-67l-114 -327h181z" />
    <glyph glyph-name="uni01E3" unicode="&#x1e3;" horiz-adv-x="889" 
d="M585 688v-79h-299v79h299zM495 226c0 -94.667 37.9961 -142.001 113.996 -142.001c24 0 45.833 6.5 65.5 19.5s32.5 29.167 38.5 48.5h138c-15.333 -53.333 -45.666 -95.833 -90.999 -127.5s-98.333 -47.5 -159 -47.5c-90.667 0 -157.334 34.667 -200.001 104
c-59.333 -70 -127.666 -105 -204.999 -105c-51.333 0 -92.166 14.833 -122.499 44.5s-45.5 69.834 -45.5 120.501c0 96.667 53 153.667 159 171l56 10c3.33301 0.666992 10.833 1.83398 22.5 3.50098s19.5 3 23.5 4l20 5c9.33301 2.33301 15.833 4.66602 19.5 6.99902
s8 5.5 13 9.5s8.5 8.66699 10.5 14s3 11.333 3 18c0 35.333 -28.333 53 -85 53c-31.333 0 -54.166 -5.5 -68.499 -16.5s-23.166 -30.167 -26.499 -57.5h-131c2 124.667 78 187 228 187c78 0 136.333 -16.667 175 -50c41.333 33.333 93 50 155 50
c30.667 0 60 -4.66699 88 -14s55.167 -24.5 81.5 -45.5s47.333 -52 63 -93s23.5 -89.833 23.5 -146.5c0 -8 -0.333008 -16 -1 -24h-362zM354.996 215.999l0.000976562 38c-14.667 -8.66699 -34.334 -15 -59.001 -19l-48 -7c-53.333 -7.33301 -80 -31.666 -80 -72.999
c0 -20.667 6.83301 -36.834 20.5 -48.501s32.167 -17.5 55.5 -17.5c36 0 63.5 10.833 82.5 32.5s28.5 53.167 28.5 94.5zM495.997 318.999h215.999c-7.33301 82 -43.666 123 -108.999 123s-101 -41 -107 -123z" />
    <glyph glyph-name="uni01E4" unicode="&#x1e4;" horiz-adv-x="778" 
d="M419 149v80.001h159c3.33301 10.667 5.66602 23.334 6.99902 38.001h-166v125h292v-163h85v-80h-85v-151h-90l-18 96c-28 -40.667 -59.333 -70.334 -94 -89.001s-76.667 -28 -126 -28c-98.667 0 -180.167 36 -244.5 108s-96.5 163.333 -96.5 274
c0 113.333 32.667 205.333 98 276s150.333 106 255 106c88 0 160.333 -22 217 -66s89.667 -103.667 99 -179h-141c-11.333 32.667 -26.333 57 -45 73c-33.333 29.333 -76.333 44 -129 44c-63.333 0 -113.166 -22.333 -149.499 -67s-54.5 -106.334 -54.5 -185.001
c0 -74.667 19.5 -136 58.5 -184s88.833 -72 149.5 -72c46.667 0 87.667 14.667 123 44h-104z" />
    <glyph glyph-name="uni01E5" unicode="&#x1e5;" horiz-adv-x="611" 
d="M288 432c-34 0 -61.5 -16 -82.5 -48s-31.5 -73.667 -31.5 -125c0 -48.667 10.333 -88.334 31 -119.001s47.667 -46 81 -46c36.667 0 66.5 15.333 89.5 46s34.5 70.334 34.5 119.001c0 50 -11.5 91.333 -34.5 124s-52.167 49 -87.5 49zM408 540l132.999 -0.00195312v-558
c0 -10 -0.666992 -19.667 -2 -29h93v-67h-114c-38 -69.333 -116 -104 -234 -104c-72 0 -129.667 13.833 -173 41.5s-65.333 64.834 -66 111.501h145c11.333 -42 44.333 -63 99 -63c23.333 0 44 4.66699 62 14h-52v67h105c2.66699 9.33301 4 19 4 29v73
c-26 -29.333 -50.167 -49.666 -72.5 -60.999s-49.166 -17 -80.499 -17c-66.667 0 -120.167 25.667 -160.5 77s-60.5 119 -60.5 203c0 83.333 21.333 152.833 64 208.5s96 83.5 160 83.5c60 0 110 -30.667 150 -92v83z" />
    <glyph glyph-name="Gcaron" unicode="&#x1e6;" horiz-adv-x="778" 
d="M446 801h-107l-103 150h78l82 -97l82 97h76zM570 498c-26.667 78 -84.666 117.003 -173.999 117.003c-63.333 0 -113.166 -22.333 -149.499 -67s-54.5 -106.334 -54.5 -185.001c0 -74.667 19.5 -136 58.5 -184s88.833 -72 149.5 -72c9.33301 0 20.166 1.16699 32.499 3.5
s27.166 7 44.499 14s33.333 16.167 48 27.5s27.667 27.166 39 47.499s18.333 43.5 21 69.5h-166v125h292v-394h-90l-18 96c-28 -40.667 -59.333 -70.334 -94 -89.001s-76.667 -28 -126 -28c-98.667 0 -180.167 36 -244.5 108s-96.5 163.333 -96.5 274
c0 113.333 32.667 205.333 98 276s150.333 106 255 106c88 0 160.333 -22 217 -66s89.667 -103.667 99 -179h-141z" />
    <glyph glyph-name="gcaron" unicode="&#x1e7;" horiz-adv-x="611" 
d="M309 609h-107l-103 150h78l82 -97l82 97h76zM408 540l132.999 -0.00195312v-558c0 -63.333 -22.5 -112.5 -67.5 -147.5s-108.167 -52.5 -189.5 -52.5c-72 0 -129.667 13.833 -173 41.5s-65.333 64.834 -66 111.501h145c11.333 -42 44.333 -63 99 -63
c35.333 0 64 10.167 86 30.5s33 46.833 33 79.5v73c-26 -29.333 -50.167 -49.666 -72.5 -60.999s-49.166 -17 -80.499 -17c-66.667 0 -120.167 25.667 -160.5 77s-60.5 119 -60.5 203c0 83.333 21.333 152.833 64 208.5s96 83.5 160 83.5c60 0 110 -30.667 150 -92v83z
M287.999 431.998c-34 0 -61.5 -16 -82.5 -48s-31.5 -73.667 -31.5 -125c0 -48.667 10.333 -88.334 31 -119.001s47.667 -46 81 -46c36.667 0 66.5 15.333 89.5 46s34.5 70.334 34.5 119.001c0 50 -11.5 91.333 -34.5 124s-52.167 49 -87.5 49z" />
    <glyph glyph-name="uni01E8" unicode="&#x1e8;" horiz-adv-x="722" 
d="M431 801h-107l-103 150h78l82 -97l82 97h76zM224 244v-244h-150v729h150v-320l285 320h177l-291 -314l322 -415h-179l-239 322z" />
    <glyph glyph-name="uni01E9" unicode="&#x1e9;" horiz-adv-x="556" 
d="M361 729h-107l-103 150h78l82 -97l82 97h76zM199 330l177 210h159l-184 -204l197 -336h-164l-129 238l-56 -61v-177h-140v729h140v-399z" />
    <glyph glyph-name="Oogonek" unicode="&#x1ea;" horiz-adv-x="778" 
d="M391 613c-60.667 0 -109.335 -23.168 -146.002 -69.501s-55 -107.833 -55 -184.5s18.333 -138.167 55 -184.5s85.334 -69.5 146.001 -69.5c60 0 108.5 23 145.5 69s55.5 106.333 55.5 181c0 78.667 -18.167 141.334 -54.5 188.001s-85.166 70 -146.499 70z
M39.999 358.999c0 112 32.167 203.668 96.5 275.001s148.833 107 253.5 107c105.333 0 190.333 -35.5 255 -106.5s97 -164.5 97 -280.5c0 -67.333 -12.833 -128.5 -38.5 -183.5s-63.334 -99.833 -113.001 -134.5s-107.5 -54 -173.5 -58
c-38 -24.667 -63.833 -45.667 -77.5 -63s-20.5 -38.333 -20.5 -63c0 -33.333 25.333 -50 76 -50c20 0 39 2 57 6v-47c-26 -6.66699 -52.333 -10 -79 -10c-44.667 0 -79.834 8.5 -105.501 25.5s-38.5 40.167 -38.5 69.5c0 28 9.83301 53.667 29.5 77s46.834 42.333 81.501 57
c-91.333 11.333 -164.166 51.666 -218.499 120.999s-81.5 155.333 -81.5 258z" />
    </font>
</defs>
</svg>
