<?xml version="1.0" standalone="no"?>
<!DOCTYPE svg PUBLIC "-//W3C//DTD SVG 1.1//EN" "http://www.w3.org/Graphics/SVG/1.1/DTD/svg11.dtd" >
<svg>
<metadata>
Created by FontForge 20090914 at Thu Mar  7 11:37:08 2013
 By www-data
Copyleft 2002, 2003, 2005, 2008, 2009, 2010 Free Software Foundation.
</metadata>
<defs>
<font id="FreeSans" horiz-adv-x="0" >
  <font-face 
    font-family="FreeSans"
    font-weight="400"
    font-stretch="normal"
    units-per-em="1000"
    panose-1="2 11 5 4 2 2 2 2 2 4"
    ascent="800"
    descent="-200"
    x-height="524"
    cap-height="729"
    bbox="-1166 -469.001 1518 1050"
    underline-thickness="50"
    underline-position="-151"
    unicode-range="U+0020-U+1091F"
  />
<missing-glyph horiz-adv-x="700" 
d="M88 0v729h524v-729h-524zM171 72h358v585h-358v-585z" />
    <glyph glyph-name="IJ" unicode="IJ" horiz-adv-x="740" 
d="M461 55c42.667 0 72 14.001 88 42.001s24 67.667 24 119v513h93v-547c0 -63.333 -18.5 -113.333 -55.5 -150s-87.167 -55 -150.5 -55c-62.667 0 -112.167 17.333 -148.5 52s-54.5 81.667 -54.5 141v64h95v-47c0 -42.667 9.33301 -75.334 28 -98.001s45.667 -34 81 -34z
M194 729.001v-729h-94v729h94z" />
    <glyph glyph-name="ij" unicode="ij" horiz-adv-x="384" 
d="M232 524h83v-633c0 -72.667 -47.667 -109 -143 -109c-8.66699 0 -18 1 -28 3v71c8 -1.33301 15.667 -2 23 -2c24 0 40.833 5.16699 50.5 15.5s14.5 28.5 14.5 54.5v600zM315 729v-105h-83v105h83zM150 524v-524h-83v524h83zM150 729v-105h-84v105h84z" />
    <glyph glyph-name="ff" unicode="ff" horiz-adv-x="495" 
d="M475 524v-68h-87v-456h-83v456h-134v-456h-83v456h-70v68h70v89c0 37.333 10.833 66.5 32.5 87.5s51.834 31.5 90.501 31.5c15.333 0 31 -1.66699 47 -5v-69c-12.667 0.666992 -22.334 1 -29.001 1c-38.667 0 -58 -17.667 -58 -53v-82h134v89
c0 37.333 10.833 66.5 32.5 87.5s51.834 31.5 90.501 31.5c15.333 0 31 -1.66699 47 -5v-69c-12.667 0.666992 -22.334 1 -29.001 1c-38.667 0 -58 -17.667 -58 -53v-82h87z" />
    <glyph glyph-name="fi" unicode="fi" horiz-adv-x="460" 
d="M388 524l-0.000976562 -524h-83v456h-140v-456h-83v456h-70v68h70v89c0 37.333 10.833 66.5 32.5 87.5s51.834 31.5 90.501 31.5h179v-102h-69c-2 5.33301 -15.5 11.5 -40.5 18.5s-42.167 10.5 -51.5 10.5c-38.667 0 -58 -17.667 -58 -53v-82h140h8h75z" />
    <glyph glyph-name="fl" unicode="fl" horiz-adv-x="465" 
d="M395 729l-0.000976562 -729h-83v456h-141v-456h-83v456h-70v68h70v89c0 37.333 10.833 66.5 32.5 87.5s51.834 31.5 90.501 31.5c51.333 0 85 -1.66699 101 -5v2h83zM311.999 658c-12.667 0.666992 -40.333 1 -83 1c-38.667 0 -58 -17.667 -58 -53v-82h141v134z" />
    <glyph glyph-name="ffi" unicode="ffi" horiz-adv-x="652" 
d="M580 729l-0.000976562 -105h-83v34c-14.667 0.666992 -36 1 -64 1c-38.667 0 -58 -17.667 -58 -53v-82h205v-524h-83v456h-122v-456h-83v456h-121v-456h-83v456h-70v68h70v89c0 37.333 10.833 66.5 32.5 87.5s51.834 31.5 90.501 31.5c15.333 0 31 -1.66699 47 -5v-69
c-12.667 0.666992 -22.334 1 -29.001 1c-38.667 0 -58 -17.667 -58 -53v-82h121v89c0 37.333 10.833 66.5 32.5 87.5s51.834 31.5 90.501 31.5c6.66699 0 23.167 -0.5 49.5 -1.5s39.833 -1.5 40.5 -1.5h75z" />
    <glyph glyph-name="ffl" unicode="ffl" horiz-adv-x="645" 
d="M575 729l0.000976562 -729h-83v456h-117v-456h-83v456h-121v-456h-83v456h-70v68h70v89c0 37.333 10.833 66.5 32.5 87.5s51.834 31.5 90.501 31.5c15.333 0 31 -1.66699 47 -5v-69c-12.667 0.666992 -22.334 1 -29.001 1c-38.667 0 -58 -17.667 -58 -53v-82h121v89
c0 37.333 10.833 66.5 32.5 87.5s51.834 31.5 90.501 31.5c3.33301 0 12.666 -0.5 27.999 -1.5s31.666 -1.5 48.999 -1.5h83zM492.001 524v134c-27.333 0.666992 -47 1 -59 1c-38.667 0 -58 -17.667 -58 -53v-82h117z" />
    <glyph glyph-name="m_n_armenian" unicode="&#x574;&#x576;" horiz-adv-x="1004" 
d="M635 524l0.00195312 -375.997c0 -32 8.16699 -54.167 24.5 -66.5s40.5 -18.5 72.5 -18.5c63.333 0 103 45 119 135v326h88v-524h-80v83c-58 -62 -113.333 -93 -166 -93c-43.333 0 -78.5 11.667 -105.5 35s-40.5 52.333 -40.5 87v324h-86v-436h-84v56
c-4.66699 -3.33301 -13.834 -9.5 -27.501 -18.5s-22.5 -14.667 -26.5 -17s-11.5 -6.33301 -22.5 -12s-20 -9.33398 -27 -11.001s-16 -3.33398 -27 -5.00098s-22.5 -2.5 -34.5 -2.5c-43.333 0 -78.666 11.833 -105.999 35.5s-41 53.5 -41 89.5v266h88v-228
c0 -30 6 -52.167 18 -66.5s32 -21.5 60 -21.5c29.333 0 53.666 4.33301 72.999 13s33.5 21.334 42.5 38.001s15.333 32 19 46s6.16699 31.333 7.5 52v222h-119c-14 0 -30.5 2.83301 -49.5 8.5s-39.5 14.667 -61.5 27s-40.5 31.333 -55.5 57s-22.5 55.5 -22.5 89.5v65h61
c0 -63.333 10 -105.666 30 -126.999s52.667 -32 98 -32h66c-0.666992 1.33301 -4.83398 5.16602 -12.501 11.499s-12.334 10.333 -14.001 12l-12 12c-6.33301 6.33301 -10.5 11 -12.5 14s-5.33301 7.5 -10 13.5s-8 11.333 -10 16s-4.16699 10.167 -6.5 16.5
s-4 12.666 -5 18.999s-1.5 13.166 -1.5 20.499c0 18 4 33 12 45s19.5 20.667 34.5 26s29.833 9 44.5 11s32.334 3 53.001 3h77v-68h-84c-36 0 -54 -7.66699 -54 -23c0 -10.667 5.5 -22.5 16.5 -35.5s26.167 -28.5 45.5 -46.5s34 -33.667 44 -47h210z" />
    <glyph glyph-name="m_e_armenian" unicode="&#x574;&#x565;" horiz-adv-x="1044" 
d="M373 436c0 19.333 -7.16895 38.0029 -21.502 56.0029s-30 33.333 -47 46s-32.667 29.667 -47 51s-21.5 44.666 -21.5 69.999c0 18 4 33 12 45s19.5 20.667 34.5 26s29.833 9 44.5 11s32.334 3 53.001 3h262v-261h337v-66h-337v-213
c0 -45.333 7.83301 -79.833 23.5 -103.5s43.834 -35.5 84.501 -35.5c92 0 138 57 138 171v97h87v-333h-79v74c-38.667 -56.667 -93.667 -85 -165 -85c-24 0 -45.5 2.66699 -64.5 8s-34.667 12 -47 20s-22.833 18.5 -31.5 31.5s-15.167 25 -19.5 36
s-7.66602 24.667 -9.99902 41s-3.66602 29.166 -3.99902 38.499s-0.5 21.333 -0.5 36v476h-181c-36 0 -54 -7.66699 -54 -23c0 -10 4.83301 -21.167 14.5 -33.5s21.5 -24.833 35.5 -37.5s28 -26.167 42 -40.5s25.833 -31 35.5 -50s14.5 -38.5 14.5 -58.5v-433h-84v56
c-4.66699 -3.33301 -13.834 -9.5 -27.501 -18.5s-22.5 -14.667 -26.5 -17s-11.5 -6.33301 -22.5 -12s-20 -9.33398 -27 -11.001s-16 -3.33398 -27 -5.00098s-22.5 -2.5 -34.5 -2.5c-43.333 0 -78.5 11.833 -105.5 35.5s-40.833 53.5 -41.5 89.5v409h88v-371
c0 -30 6 -52.167 18 -66.5s32 -21.5 60 -21.5c29.333 0 53.666 4.33301 72.999 13s33.5 21.334 42.5 38.001s15.333 32 19 46s6.16699 31.333 7.5 52v222z" />
    <glyph glyph-name="m_i_armenian" unicode="&#x574;&#x56b;" horiz-adv-x="1042" 
d="M373 436c0 19.333 -7.16602 38.002 -21.499 56.002s-30 33.333 -47 46s-32.667 29.667 -47 51s-21.5 44.666 -21.5 69.999c0 18 4 33 12 45s19.5 20.667 34.5 26s29.833 9 44.5 11s32.334 3 53.001 3h263v-285c41.333 47.333 93 71 155 71
c66.667 0 113.167 -17.333 139.5 -52s39.5 -84.334 39.5 -149.001v-329h-88v329c0 42 -8.66699 73.333 -26 94s-45 31.334 -83 32.001c-16 0 -31 -2.33301 -45 -7s-28.5 -12.667 -43.5 -24s-26.833 -29 -35.5 -53s-13 -53 -13 -87v-484h-88v876h-182
c-36 0 -54 -7.66699 -54 -23c0 -10 4.83301 -21.167 14.5 -33.5s21.5 -24.833 35.5 -37.5s28 -26.167 42 -40.5s25.833 -31 35.5 -50s14.5 -38.5 14.5 -58.5v-433h-84v56c-4.66699 -3.33301 -13.834 -9.5 -27.501 -18.5s-22.5 -14.667 -26.5 -17s-11.5 -6.33301 -22.5 -12
s-20 -9.33398 -27 -11.001s-16 -3.33398 -27 -5.00098s-22.5 -2.5 -34.5 -2.5c-43.333 0 -78.5 11.833 -105.5 35.5s-40.833 53.5 -41.5 89.5v409h88v-371c0 -30 6 -52.167 18 -66.5s32 -21.5 60 -21.5c29.333 0 53.666 4.33301 72.999 13s33.5 21.334 42.5 38.001
s15.333 32 19 46s6.16699 31.333 7.5 52v222z" />
    <glyph glyph-name="v_n_armenian" unicode="&#x57e;&#x576;" horiz-adv-x="1037" 
d="M668 524v-375.999c0 -32 8.16699 -54.167 24.5 -66.5s40.5 -18.5 72.5 -18.5c63.333 0 103 45 119 135v326h88v-524h-80v83c-58 -62 -113.333 -93 -166 -93c-43.333 0 -78.5 11.667 -105.5 35s-40.5 52.333 -40.5 87v324h-92v-580h86v-56h-174v266
c-40.667 -46 -92.667 -69.667 -156 -71c-36 0 -66.167 5 -90.5 15s-42.666 24.833 -54.999 44.5s-21 40.667 -26 63s-7.5 48.833 -7.5 79.5v184h88v-184c0 -84 36.667 -126 110 -126c15.333 0 30 2.33301 44 7s28.5 12.667 43.5 24s27 29 36 53s13.5 53 13.5 87v194h-146
c-67.333 0 -115.666 13.167 -144.999 39.5s-44 59.166 -44 98.499c0 19.333 2.33301 36.333 7 51s13.167 29.5 25.5 44.5s31.666 26.5 57.999 34.5s59.166 12 98.499 12h234v-192h180zM126 574.001c0 -14.667 11.167 -26.667 33.5 -36s53.833 -14 94.5 -14h146v104h-146
c-85.333 0 -128 -18 -128 -54z" />
    <glyph glyph-name="m_x_armenian" unicode="&#x574;&#x56d;" horiz-adv-x="1256" 
d="M373 436c0 19.333 -7.16504 38.002 -21.498 56.002s-30 33.333 -47 46s-32.667 29.667 -47 51s-21.5 44.666 -21.5 69.999c0 18 4 33 12 45s19.5 20.667 34.5 26s29.833 9 44.5 11s32.334 3 53.001 3h239v-220h239v-322c0 -44 7.16699 -77.667 21.5 -101
s42.833 -36 85.5 -38c92 0 138 57 138 171v290h88v-525h-79v74c-38 -57.333 -93 -86 -165 -86c-32.667 0 -60.334 4.5 -83.001 13.5s-40 19.667 -52 32s-21.167 29.833 -27.5 52.5s-10.333 43.167 -12 61.5s-2.5 42.5 -2.5 72.5l-1 224h-150v-643h-88v876h-158
c-36 0 -54 -7.66699 -54 -23c0 -10 4.83301 -21.167 14.5 -33.5s21.5 -24.833 35.5 -37.5s28 -26.167 42 -40.5s25.833 -31 35.5 -50s14.5 -38.5 14.5 -58.5v-433h-84v56c-4.66699 -3.33301 -13.834 -9.5 -27.501 -18.5s-22.5 -14.667 -26.5 -17s-11.5 -6.33301 -22.5 -12
s-20 -9.33398 -27 -11.001s-16 -3.33398 -27 -5.00098s-22.5 -2.5 -34.5 -2.5c-43.333 0 -78.5 11.833 -105.5 35.5s-40.833 53.5 -41.5 89.5v409h88v-371c0 -30 6 -52.167 18 -66.5s32 -21.5 60 -21.5c29.333 0 53.666 4.33301 72.999 13s33.5 21.334 42.5 38.001
s15.333 32 19 46s6.16699 31.333 7.5 52v222z" />
    <glyph glyph-name="yodyodpatahhebrew" unicode="&#x5f2;&#x5b7;" horiz-adv-x="400" 
d="M108 220h188v-71h-188v71zM256 600h87v-279l-87 -35v314zM56 600h87l1 -279l-88 -35v314z" />
    <glyph glyph-name="yi_yi_lig_ukrainian" unicode="&#x457;&#x457;" horiz-adv-x="526" 
d="M161 524v-524h-83v524h83zM442 524v-524h-83v524h83zM104 708v-104h-104v104h104zM525 708v-104h-104v104h104zM243 708v-104h-104v104h104zM387 708v-104h-104v104h104z" />
    <glyph glyph-name=".notdef" horiz-adv-x="700" 
d="M88 0v729h524v-729h-524zM171 72h358v585h-358v-585z" />
    <glyph glyph-name="space" unicode=" " horiz-adv-x="278" 
 />
    <glyph glyph-name="exclam" unicode="!" horiz-adv-x="278" 
d="M208 729v-338l-22 -223h-39l-22 223v338h83zM208 104v-104h-84v104h84z" />
    <glyph glyph-name="quotedbl" unicode="&#x22;" horiz-adv-x="355" 
d="M52 709h93v-111l-27 -134h-39l-27 134v111zM212 709h93v-111l-27 -134h-39l-27 134v111z" />
    <glyph glyph-name="numbersign" unicode="#" horiz-adv-x="556" 
d="M485 697l-36 -196h93v-68h-106l-31 -174h105v-68h-117l-39 -211h-76l38 211h-124l-39 -211h-76l38 211h-101v68h114l31 174h-108v68h121l36 196h76l-36 -196h125l35 196h77zM360 433h-124l-32 -174h125z" />
    <glyph glyph-name="dollar" unicode="$" horiz-adv-x="556" 
d="M518 195c0 -64 -18.498 -115.17 -55.498 -153.503s-90.5 -59.833 -160.5 -64.5v-103h-59v103c-67.333 4.66699 -119.166 25.334 -155.499 62.001s-54.5 87.334 -54.5 152.001v17h79c1.33301 -13.333 2.16602 -22.166 2.49902 -26.499s1.5 -12.666 3.5 -24.999
s4.16699 -21 6.5 -26l10 -22.5c4.33301 -10 9.5 -17.5 15.5 -22.5s13.333 -10.5 22 -16.5s19 -10.833 31 -14.5s25.333 -6.5 40 -8.5v272c-62 18.667 -104 36 -126 52c-47.333 34 -71 82.667 -71 146c0 56.667 16.833 102.167 50.5 136.5s82.5 55.5 146.5 63.5v54h59v-54
c60.667 -4.66699 108.167 -24.5 142.5 -59.5s51.5 -80.833 51.5 -137.5h-79c-0.666992 36.667 -11.667 66.667 -33 90s-48.666 35.666 -81.999 36.999v-249c2.66699 -0.666992 12.667 -3.33398 30 -8.00098s30.666 -8.66699 39.999 -12s22.5 -8.66602 39.5 -15.999
s30.667 -15.5 41 -24.5s21.166 -20 32.499 -33s19.666 -28.833 24.999 -47.5s8 -39 8 -61zM243.002 404.997v240.001c-37.333 -5.33301 -66 -18.333 -86 -39s-30 -47.334 -30 -80.001c0 -60 38.667 -100.333 116 -121zM302.002 45.998
c44.667 5.33301 78.167 20.332 100.5 44.999s33.5 55.334 33.5 92.001c0 32.667 -9.5 58 -28.5 76s-54.167 34.667 -105.5 50v-263z" />
    <glyph glyph-name="percent" unicode="%" horiz-adv-x="889" 
d="M199 685c48 0 88.501 -16.6689 121.501 -50.002s49.5 -74.333 49.5 -123c0 -46 -16.667 -85.667 -50 -119s-73.333 -50 -120 -50s-86.834 16.833 -120.501 50.5s-50.5 73.834 -50.5 120.501s16.667 86.834 50 120.501s73.333 50.5 120 50.5zM199.001 614.998
c-27.333 0 -50.999 -9.83398 -70.999 -29.501s-30 -43.5 -30 -71.5c0 -27.333 10 -51 30 -71s44 -30 72 -30c27.333 0 51 9.83301 71 29.5s30 43.167 30 70.5c0 28.667 -9.83301 52.834 -29.5 72.501s-43.834 29.5 -72.501 29.5zM609.002 708.997h66l-395 -729h-66z
M688.002 321.997c48 0 88.499 -16.668 121.499 -50.001s49.5 -74 49.5 -122c0 -46 -16.833 -85.667 -50.5 -119s-73.5 -50 -119.5 -50c-47.333 0 -87.666 16.833 -120.999 50.5s-50 73.834 -50 120.501s16.667 86.667 50 120s73.333 50 120 50zM688.001 251.996
c-27.333 0 -50.999 -9.83496 -70.999 -29.502s-30 -43.167 -30 -70.5c0 -28 10 -51.833 30 -71.5s44 -29.5 72 -29.5c27.333 0 51 9.83301 71 29.5s30 42.834 30 69.501c0 28.667 -9.83301 52.834 -29.5 72.501s-43.834 29.5 -72.501 29.5z" />
    <glyph glyph-name="ampersand" unicode="&#x26;" horiz-adv-x="667" 
d="M466 78c-33.333 -32.667 -60.668 -55 -82.001 -67c-39.333 -22.667 -81.666 -34 -126.999 -34c-61.333 0 -110.833 18.167 -148.5 54.5s-56.5 84.5 -56.5 144.5c0 45.333 11.5 83.166 34.5 113.499s65.5 63.5 127.5 99.5c-31.333 39.333 -52.666 70.5 -63.999 93.5
s-17 46.167 -17 69.5c0 44 16.667 81.167 50 111.5s73.666 45.5 120.999 45.5s86.333 -14.667 117 -44s46 -67 46 -113c0 -36 -10 -66.667 -30 -92s-56 -52.666 -108 -81.999l133 -163c20.667 36.667 31 75 31 115v4h80c0 -62.667 -19.333 -123.667 -58 -183l122 -151h-109z
M284.998 431c39.333 24.667 66.332 45.667 80.999 63s22 37.333 22 60c0 24.667 -8.16699 45 -24.5 61s-37.166 24 -62.499 24c-26 0 -46.833 -7.83301 -62.5 -23.5s-23.5 -36.5 -23.5 -62.5c0 -18 4.16699 -34.167 12.5 -48.5s27.5 -38.833 57.5 -73.5zM417.997 137
l-160 200c-45.333 -28.667 -77 -54.5 -95 -77.5s-27 -48.5 -27 -76.5c0 -35.333 12.833 -65.5 38.5 -90.5s56.5 -37.5 92.5 -37.5c48.667 0 99 27.333 151 82z" />
    <glyph glyph-name="quotesingle" unicode="'" horiz-adv-x="191" 
d="M48 709h94v-111l-27 -134h-40l-27 134v111z" />
    <glyph glyph-name="parenleft" unicode="(" horiz-adv-x="333" 
d="M236 729l55 -0.000976562c-91.333 -147.333 -137 -304 -137 -470c0 -165.333 45.667 -322.333 137 -471h-55c-50 65.333 -89.667 140.5 -119 225.5s-44 166.833 -44 245.5s14.667 160.334 44 245.001s69 159.667 119 225z" />
    <glyph glyph-name="parenright" unicode=")" horiz-adv-x="333" 
d="M93 -212l-55 0.000976562c91.333 147.333 137 304 137 470c0 165.333 -45.667 322.333 -137 471h55c50 -65.333 89.667 -140.5 119 -225.5s44 -166.833 44 -245.5s-14.667 -160.334 -44 -245.001s-69 -159.667 -119 -225z" />
    <glyph glyph-name="asterisk" unicode="*" horiz-adv-x="389" 
d="M160 729h63l-5 -112l106 38l19 -59l-108 -30l70 -89l-51 -36l-62 93l-63 -93l-50 36l69 89l-108 30l19 59l106 -38z" />
    <glyph glyph-name="plus" unicode="+" horiz-adv-x="584" 
d="M534 267v-70h-207v-207h-70v207h-207v70h207v207h70v-207h207z" />
    <glyph glyph-name="comma" unicode="," horiz-adv-x="278" 
d="M87 104l105.001 -0.00195312v-120c0 -87.333 -35 -131 -105 -131v38c23.333 0.666992 39.166 7.33398 47.499 20.001s12.5 36.334 12.5 71.001v18h-60v104z" />
    <glyph glyph-name="hyphen" unicode="-" horiz-adv-x="333" 
d="M284 312v-72h-238v72h238z" />
    <glyph glyph-name="period" unicode="." horiz-adv-x="278" 
d="M191 104v-104h-104v104h104z" />
    <glyph glyph-name="slash" unicode="/" horiz-adv-x="278" 
d="M229 729h55l-237 -749h-55z" />
    <glyph glyph-name="zero" unicode="0" horiz-adv-x="556" 
d="M43 343c0 59.333 5.00098 111.669 15.001 157.002s22.667 80.833 38 106.5s33.666 46.5 54.999 62.5s41.833 26.667 61.5 32s40.5 8 62.5 8c154.667 0 232 -124 232 -372c0 -116.667 -19.833 -205.834 -59.5 -267.501s-97.167 -92.5 -172.5 -92.5
c-76 0 -133.667 31.167 -173 93.5s-59 153.166 -59 272.499zM275.001 631.003c-94.667 0 -141.999 -96.333 -141.999 -289c0 -194.667 46.667 -292 140 -292c49.333 0 85.666 24 108.999 72s35 122.333 35 223c0 190.667 -47.333 286 -142 286z" />
    <glyph glyph-name="one" unicode="1" horiz-adv-x="556" 
d="M259 505h-157v63c68 8.66699 112.333 20.667 133 36s38.667 50.333 54 105h58v-709h-88v505z" />
    <glyph glyph-name="two" unicode="2" horiz-adv-x="556" 
d="M50 463c4.66699 164 82.6689 245.999 234.002 245.999c67.333 0 122 -19.333 164 -58s63 -88.667 63 -150c0 -88 -50 -159.333 -150 -214l-100 -54c-43.333 -23.333 -74.333 -46 -93 -68s-30.334 -48 -35.001 -78h373v-87h-472c4 78 19.667 138.167 47 180.5
s78 84.5 152 126.5l92 52c64 36.667 96 83.334 96 140.001c0 38 -13.333 69.667 -40 95s-60 38 -100 38c-88.667 0 -136.334 -56.333 -143.001 -169h-88z" />
    <glyph glyph-name="three" unicode="3" horiz-adv-x="556" 
d="M270 632c-50.667 0 -85.498 -13.833 -104.498 -41.5s-29.167 -64.5 -30.5 -110.5h-88c3.33301 152.667 77.333 229 222 229c67.333 0 120.166 -17.333 158.499 -52s57.5 -82.334 57.5 -143.001c0 -72 -33 -121 -99 -147c42.667 -14.667 73.334 -35.167 92.001 -61.5
s28 -62.166 28 -107.499c0 -67.333 -21.833 -121 -65.5 -161s-101.834 -60 -174.501 -60c-145.333 0 -223.333 76.333 -234 229h88c3.33301 -51.333 17 -89.333 41 -114s60 -37 108 -37c46 0 82 12.5 108 37.5s39 59.833 39 104.5c0 86 -49 129 -147 129l-37 -1h-11v75
c63.333 1.33301 108.166 9.33301 134.499 24s39.5 43.667 39.5 87c0 37.333 -11.167 66.833 -33.5 88.5s-52.833 32.5 -91.5 32.5z" />
    <glyph glyph-name="four" unicode="4" horiz-adv-x="556" 
d="M327 170h-299v93l322 446h65v-460h105v-79h-105v-170h-88v170zM327 249v310l-222 -310h222z" />
    <glyph glyph-name="five" unicode="5" horiz-adv-x="556" 
d="M476 709l-0.00292969 -86.999h-295l-28 -198c39.333 28.667 83 43 131 43c68 0 123.167 -21.833 165.5 -65.5s63.5 -100.5 63.5 -170.5c0 -74.667 -22.667 -135.667 -68 -183s-103.666 -71 -174.999 -71c-27.333 0 -52.5 3 -75.5 9s-42 13.167 -57 21.5
s-28.667 19.333 -41 33s-21.666 25.667 -27.999 36s-12.333 23.333 -18 39s-9.16699 26.5 -10.5 32.5s-3 14.667 -5 26h88c20.667 -79.333 69 -119 145 -119c48 0 85.833 14.667 113.5 44s41.5 69.333 41.5 120c0 52.667 -14 94.167 -42 124.5s-65.667 45.5 -113 45.5
c-27.333 0 -50.666 -4.83301 -69.999 -14.5s-39.333 -26.834 -60 -51.501h-81l53 386h366z" />
    <glyph glyph-name="six" unicode="6" horiz-adv-x="556" 
d="M43 323c0 62.667 5.66699 117.833 17 165.5s25.5 85.167 42.5 112.5s37.333 49.5 61 66.5s46 28.167 67 33.5s43.167 8 66.5 8c54 0 98.833 -16.333 134.5 -49s57.834 -78 66.501 -136h-88c-7.33301 34 -21.333 60.333 -42 79s-46.334 28 -77.001 28
c-50.667 0 -89.5 -23.167 -116.5 -69.5s-40.833 -112.833 -41.5 -199.5c38.667 52.667 93 79 163 79c63.333 0 115.333 -21 156 -63s61 -96 61 -162c0 -69.333 -21.833 -126.5 -65.5 -171.5s-99.167 -67.5 -166.5 -67.5c-158.667 0 -238 115.333 -238 346zM285 362.999
c-43.333 0 -78.666 -13.834 -105.999 -41.501s-41 -63.5 -41 -107.5c0 -45.333 13.667 -83.166 41 -113.499s61.666 -45.5 102.999 -45.5c40.667 0 74.334 14.5 101.001 43.5s40 65.833 40 110.5c0 47.333 -12.333 84.833 -37 112.5s-58.334 41.5 -101.001 41.5z" />
    <glyph glyph-name="seven" unicode="7" horiz-adv-x="556" 
d="M520 709l-0.000976562 -74.001c-80 -106.667 -143.167 -210.834 -189.5 -312.501s-79.166 -209.167 -98.499 -322.5h-94c26.667 116.667 60.667 219.334 102 308.001s104.333 193.334 189 314.001h-383v87h474z" />
    <glyph glyph-name="eight" unicode="8" horiz-adv-x="556" 
d="M391 373c81.333 -38.667 121.998 -97.668 121.998 -177.001c0 -64.667 -22.167 -117.334 -66.5 -158.001s-101.5 -61 -171.5 -61s-127.167 20.5 -171.5 61.5s-66.5 93.833 -66.5 158.5c0 78.667 40.333 137.334 121 176.001c-36 22.667 -61 44.667 -75 66
s-21 48.333 -21 81c0 55.333 19.833 100.666 59.5 135.999s90.834 53 153.501 53s113.834 -17.667 153.501 -53s59.5 -80.666 59.5 -135.999c0 -33.333 -7 -60.666 -21 -81.999s-39.333 -43 -76 -65zM274.998 630.999c-37.333 0 -67.168 -10.168 -89.501 -30.501
s-33.5 -47.5 -33.5 -81.5c0 -33.333 11.167 -60.166 33.5 -80.499s52.166 -30.5 89.499 -30.5c36.667 0 66.334 10 89.001 30s34 46.667 34 80c0 34.667 -11.167 62.167 -33.5 82.5s-52.166 30.5 -89.499 30.5zM274.996 333.998c-44 0 -79.668 -12.833 -107.001 -38.5
s-41 -59.167 -41 -100.5s13.5 -75 40.5 -101s62.167 -39 105.5 -39c44.667 0 80.834 12.833 108.501 38.5s41.5 59.5 41.5 101.5c0 41.333 -13.667 74.833 -41 100.5s-63 38.5 -107 38.5z" />
    <glyph glyph-name="nine" unicode="9" horiz-adv-x="556" 
d="M509 363c0 -62.667 -5.66797 -117.833 -17.001 -165.5s-25.5 -85.167 -42.5 -112.5s-37.333 -49.5 -61 -66.5s-46.167 -28.167 -67.5 -33.5s-43.666 -8 -66.999 -8c-54 0 -98.833 16.333 -134.5 49s-57.834 78 -66.501 136h88c7.33301 -34 21.333 -60.333 42 -79
s46.334 -28 77.001 -28c50.667 0 89.5 23.167 116.5 69.5s40.833 112.833 41.5 199.5c-44 -52.667 -98 -79 -162 -79s-116.333 21 -157 63s-61 96 -61 162c0 69.333 21.833 126.5 65.5 171.5s99.167 67.5 166.5 67.5c159.333 0 239 -115.333 239 -346zM268.999 632.001
c-40.667 0 -74.3359 -14.667 -101.003 -44s-40 -66.333 -40 -111c0 -47.333 12.333 -84.833 37 -112.5s58.334 -41.5 101.001 -41.5s77.834 14 105.501 42s41.5 63.667 41.5 107c0 46 -13.667 84.167 -41 114.5s-61.666 45.5 -102.999 45.5z" />
    <glyph glyph-name="colon" unicode=":" horiz-adv-x="278" 
d="M214 104v-104h-104v104h104zM214 524v-104h-104v104h104z" />
    <glyph glyph-name="semicolon" unicode=";" horiz-adv-x="278" 
d="M215 524v-104h-104v104h104zM110 104l105.001 -0.00195312v-120c0 -87.333 -35 -131 -105 -131v38c23.333 0.666992 39.166 7.33398 47.499 20.001s12.5 36.334 12.5 71.001v18h-60v104z" />
    <glyph glyph-name="less" unicode="&#x3c;" horiz-adv-x="584" 
d="M45 198v69l489 207v-79l-394 -161l394 -164v-79z" />
    <glyph glyph-name="equal" unicode="=" horiz-adv-x="584" 
d="M534 353v-70h-484v70h484zM534 181v-70h-484v70h484z" />
    <glyph glyph-name="greater" unicode="&#x3e;" horiz-adv-x="584" 
d="M539 267v-69l-489 -207v79l394 161l-394 164v79z" />
    <glyph glyph-name="question" unicode="?" horiz-adv-x="556" 
d="M509 549c0 -30.667 -6.16699 -58.333 -18.5 -83s-27.166 -45.167 -44.499 -61.5s-34.833 -32 -52.5 -47s-32.667 -32 -45 -51s-18.5 -39.167 -18.5 -60.5v-47h-90v55c0 24.667 6.16699 48 18.5 70s27.333 41 45 57l52.5 48c17.333 16 32.166 34.167 44.499 54.5
s18.5 42.166 18.5 65.499c0 34 -11.667 61.5 -35 82.5s-54.333 31.5 -93 31.5c-48.667 0 -82.334 -13.667 -101.001 -41s-28 -65.666 -28 -114.999h-85c0 76.667 18.5 134.834 55.5 174.501s91.5 59.5 163.5 59.5c64.667 0 116.334 -17.333 155.001 -52
s58 -81.334 58 -140.001zM330 104.001v-104h-90v104h90z" />
    <glyph glyph-name="at" unicode="@" horiz-adv-x="1015" 
d="M665 501l82.998 -0.000976562l-90 -280c-8 -23.333 -12 -40 -12 -50c0 -12 5 -22.333 15 -31s21.667 -13 35 -13c42.667 0 81.334 23.667 116.001 71s52 100.333 52 159c0 83.333 -34.833 155.333 -104.5 216s-152.167 91 -247.5 91
c-105.333 0 -197.166 -39 -275.499 -117s-117.5 -169.333 -117.5 -274c0 -95.333 36 -175.5 108 -240.5s161 -97.5 267 -97.5c52.667 0 117 10.667 193 32l28 -67c-74.667 -28 -150 -42 -226 -42c-82.667 0 -159 17.833 -229 53.5s-125.167 84.167 -165.5 145.5
s-60.5 128.333 -60.5 201c0 65.333 14 129.5 42 192.5s66.667 116.833 116 161.5c44 40 95.667 71.5 155 94.5s118.666 34.5 177.999 34.5c116.667 0 216.834 -36.667 300.501 -110s125.5 -160.666 125.5 -261.999c0 -82 -28.667 -156.333 -86 -223
c-50.667 -59.333 -112.667 -89 -186 -89c-64 0 -100.667 25.667 -110 77c-44 -48 -91.333 -72 -142 -72c-46.667 0 -85.5 17.5 -116.5 52.5s-46.5 78.5 -46.5 130.5c0 72.667 26 137 78 193s111.667 84 179 84c56 0 96.667 -29 122 -87zM452.998 125.999
c43.333 0 80.168 27.668 110.501 83.001s45.5 108.333 45.5 159c0 25.333 -9 46.666 -27 63.999s-40.333 26 -67 26c-42 0 -79.333 -21.667 -112 -65s-49 -93 -49 -149c0 -32.667 9.66699 -60.5 29 -83.5s42.666 -34.5 69.999 -34.5z" />
    <glyph glyph-name="A" unicode="A" horiz-adv-x="667" 
d="M474 219h-281l-77 -219h-99l260 729h120l256 -729h-104zM448 297l-112 332l-120 -332h232z" />
    <glyph glyph-name="B" unicode="B" horiz-adv-x="667" 
d="M623 208c0 -62.667 -19.667 -112.998 -59 -150.998s-91.333 -57 -156 -57h-329v729h296c40.667 0 76 -6 106 -18s52.5 -27.833 67.5 -47.5s25.833 -39.334 32.5 -59.001s10 -39.834 10 -60.501c0 -74.667 -33.667 -127.667 -101 -159c46.667 -18 80.5 -41 101.5 -69
s31.5 -64 31.5 -108zM498 531.002c0 77.333 -48.667 116 -146 116h-180v-232h180c97.333 0 146 38.667 146 116zM399 82.002c32.667 0 59.332 7.16797 79.999 21.501s34.334 30.166 41.001 47.499s10 36 10 56c0 38 -11.333 68.5 -34 91.5s-55 34.5 -97 34.5h-227v-251h227z
" />
    <glyph glyph-name="C" unicode="C" horiz-adv-x="722" 
d="M48 356c0 33.333 2.83398 66.334 8.50098 99.001s16.5 66.667 32.5 102s35.833 66.166 59.5 92.499s55.667 48.166 96 65.499s85.833 26 136.5 26c158.667 0 252.334 -79.333 281.001 -238h-95c-10.667 52 -31.667 91 -63 117s-76 39 -134 39
c-70.667 0 -126.5 -27 -167.5 -81s-61.5 -127.667 -61.5 -221c0 -91.333 21.333 -163.833 64 -217.5s100.334 -80.5 173.001 -80.5c60 0 106 16.833 138 50.5s53.667 85.834 65 156.501h96c-22 -192.667 -122 -289 -300 -289c-50 0 -94.833 8.5 -134.5 25.5
s-71.334 38.5 -95.001 64.5s-43.334 56.5 -59.001 91.5s-26.334 68.5 -32.001 100.5s-8.5 64.333 -8.5 97z" />
    <glyph glyph-name="D" unicode="D" horiz-adv-x="722" 
d="M89 0l-0.000976562 729h281c92.667 0 165.334 -32.333 218.001 -97s79 -153.667 79 -267s-26.5 -202.5 -79.5 -267.5s-125.5 -97.5 -217.5 -97.5h-281zM181.999 82h172c72 0 126.667 24 164 72s56 118 56 210c0 92.667 -18.667 163 -56 211s-92 72 -164 72h-172v-565z
" />
    <glyph glyph-name="E" unicode="E" horiz-adv-x="667" 
d="M183 332v-250h430v-82h-523v729h505v-82h-412v-233h397v-82h-397z" />
    <glyph glyph-name="F" unicode="F" horiz-adv-x="611" 
d="M183 332v-332h-93v729h489v-82h-396v-233h348v-82h-348z" />
    <glyph glyph-name="G" unicode="G" horiz-adv-x="778" 
d="M137 362c0 -25.333 2.33301 -50.834 7 -76.501s13 -52.5 25 -80.5s27.5 -52.5 46.5 -73.5s44.167 -38.333 75.5 -52s67 -20.5 107 -20.5c66.667 0 121.5 21 164.5 63s64.5 95.667 64.5 161v20h-222v82h304v-389h-59l-23 97c-69.333 -77.333 -152.333 -116 -249 -116
c-98.667 0 -179 35.333 -241 106s-93 162 -93 274c0 32 3 64.167 9 96.5s17.333 66.166 34 101.499s37.5 66.333 62.5 93s58.667 48.834 101 66.501s90.166 26.5 143.499 26.5c83.333 0 151.833 -20.333 205.5 -61s86.834 -98 99.501 -172h-95
c-10 46.667 -33.833 83.5 -71.5 110.5s-84.167 40.5 -139.5 40.5c-77.333 0 -139.333 -27.167 -186 -81.5s-70 -126.166 -70 -215.499z" />
    <glyph glyph-name="H" unicode="H" horiz-adv-x="722" 
d="M551 332h-375v-332h-93v729h93v-315h375v315h93v-729h-93v332z" />
    <glyph glyph-name="I" unicode="I" horiz-adv-x="278" 
d="M194 729v-729h-94v729h94z" />
    <glyph glyph-name="J" unicode="J" horiz-adv-x="500" 
d="M221 55c42.667 0 72 14.001 88 42.001s24 67.667 24 119v513h93v-547c0 -63.333 -18.5 -113.333 -55.5 -150s-87.167 -55 -150.5 -55c-62.667 0 -112.167 17.333 -148.5 52s-54.5 81.667 -54.5 141v64h95v-47c0 -42.667 9.33301 -75.334 28 -98.001s45.667 -34 81 -34z
" />
    <glyph glyph-name="K" unicode="K" horiz-adv-x="667" 
d="M172 255v-255h-93v729h93v-369l363 369h120l-297 -297l300 -432h-110l-257 374z" />
    <glyph glyph-name="L" unicode="L" horiz-adv-x="556" 
d="M173 729v-647h360v-82h-453v729h93z" />
    <glyph glyph-name="M" unicode="M" horiz-adv-x="833" 
d="M468 0h-98l-207 611v-611h-88v729h129l216 -635l212 635h129v-729h-88v611z" />
    <glyph glyph-name="N" unicode="N" horiz-adv-x="722" 
d="M646 729v-729h-105l-377 591v-591h-88v729h101l381 -596v596h88z" />
    <glyph glyph-name="O" unicode="O" horiz-adv-x="778" 
d="M742 353c0 -108 -32.001 -197.667 -96.001 -269s-149.333 -107 -256 -107c-105.333 0 -190.333 35.167 -255 105.5s-97 162.5 -97 276.5s32.333 206.167 97 276.5s149.334 105.5 254.001 105.5c106.667 0 192.167 -35.333 256.5 -106s96.5 -164.667 96.5 -282z
M388.999 659c-77.333 0 -139.667 -27.5 -187 -82.5s-71 -127.5 -71 -217.5s23.833 -162.5 71.5 -217.5s110.167 -82.5 187.5 -82.5s139.833 27.333 187.5 82s71.5 126 71.5 214c0 92 -23.667 165.667 -71 221s-110.333 83 -189 83z" />
    <glyph glyph-name="P" unicode="P" horiz-adv-x="667" 
d="M617 515c0 -62 -18.832 -111.833 -56.499 -149.5s-86.834 -56.5 -147.501 -56.5h-229v-309h-93v729h301c72 0 127.5 -18.5 166.5 -55.5s58.5 -89.833 58.5 -158.5zM184.001 391h194c44.667 0 79.5 11.333 104.5 34s37.5 54 37.5 94s-12.5 71.333 -37.5 94
s-59.833 34 -104.5 34h-194v-256z" />
    <glyph glyph-name="Q" unicode="Q" horiz-adv-x="778" 
d="M733 -1l-47 -58l-105 87c-57.333 -34 -121 -51 -191 -51c-105.333 0 -190.333 35.167 -255 105.5s-97 162.5 -97 276.5s32.333 206.167 97 276.5s149.667 105.5 255 105.5c104.667 0 189.5 -35 254.5 -105s97.5 -161.667 97.5 -275
c0 -114.667 -34.333 -209.667 -103 -285zM481 205l89.001 -73c52.667 59.333 79 135.333 79 228c0 89.333 -23.833 161.5 -71.5 216.5s-110.167 82.5 -187.5 82.5s-139.833 -27.5 -187.5 -82.5s-71.5 -127.5 -71.5 -217.5s23.667 -162.5 71 -217.5
s109.666 -82.5 186.999 -82.5c40 0 80 9.33301 120 28l-74 62z" />
    <glyph glyph-name="R" unicode="R" horiz-adv-x="722" 
d="M536 360c21.333 -9.33301 39.168 -20.335 53.501 -33.002s24.666 -27 30.999 -43s10.5 -31 12.5 -45s3 -30.667 3 -50c0 -6 -0.166992 -14.667 -0.5 -26s-0.5 -19.666 -0.5 -24.999c0 -27.333 3 -50.333 9 -69s17.667 -34 35 -46v-23h-113
c-13.333 30.667 -20 70.334 -20 119.001v65c0 44.667 -9.66699 77.5 -29 98.5s-49.666 31.5 -90.999 31.5h-240v-314h-93v729h336c71.333 0 126.166 -16.833 164.499 -50.5s57.5 -81.834 57.5 -144.501c0 -41.333 -9 -75.666 -27 -102.999s-47.333 -51 -88 -71z
M554.002 520.998c0 48 -12.667 81 -38 99s-60.333 27 -105 27h-225v-251h225c49.333 0 85.5 10 108.5 30s34.5 51.667 34.5 95z" />
    <glyph glyph-name="S" unicode="S" horiz-adv-x="667" 
d="M342 59c37.333 0 69.001 4.33203 95.001 12.999s45.167 20 57.5 34s21 27.833 26 41.5s7.5 28.167 7.5 43.5c0 55.333 -44.667 94.666 -134 117.999l-181 48c-95.333 24.667 -143 81.334 -143 170.001c0 66 23.167 118.167 69.5 156.5s109.5 57.5 189.5 57.5
c84 0 149.333 -19.833 196 -59.5s70.334 -95.167 71.001 -166.5h-88c-0.666992 47.333 -16.667 83.833 -48 109.5s-76 38.5 -134 38.5c-49.333 0 -88.833 -11.333 -118.5 -34s-44.5 -52.334 -44.5 -89.001c0 -28 9 -50 27 -66s49 -30 93 -42l183 -49
c49.333 -13.333 87.5 -36 114.5 -68s40.5 -70.333 40.5 -115c0 -19.333 -2.5 -38.5 -7.5 -57.5s-14.167 -38.667 -27.5 -59s-30.333 -38.166 -51 -53.499s-48.167 -28 -82.5 -38s-73.166 -15 -116.499 -15c-27.333 0 -53.5 2.16699 -78.5 6.5s-50.5 12.333 -76.5 24
s-48.333 26.667 -67 45s-34.167 42.833 -46.5 73.5s-18.833 66 -19.5 106h88v-5c0 -20.667 3.16699 -40 9.5 -58s16.666 -35.667 30.999 -53s35.666 -31.166 63.999 -41.499s62.166 -15.5 101.499 -15.5z" />
    <glyph glyph-name="T" unicode="T" horiz-adv-x="611" 
d="M354 647v-647h-93v647h-240v82h572v-82h-239z" />
    <glyph glyph-name="U" unicode="U" horiz-adv-x="722" 
d="M552 729l93 -0.000976562v-512c0 -73.333 -25.5 -131.666 -76.5 -174.999s-119.167 -65 -204.5 -65c-86.667 0 -154.834 21.5 -204.501 64.5s-74.5 101.5 -74.5 175.5v512h93v-512c0 -52.667 16.833 -92.167 50.5 -118.5s78.834 -39.5 135.501 -39.5
c58.667 0 104.667 14 138 42s50 66.667 50 116v512z" />
    <glyph glyph-name="V" unicode="V" horiz-adv-x="667" 
d="M392 0h-100l-262 729h100l214 -617l202 617h99z" />
    <glyph glyph-name="W" unicode="W" horiz-adv-x="944" 
d="M744 0h-102l-168 599l-163 -599h-102l-187 729h104l137 -592l162 592h100l166 -592l134 592h104z" />
    <glyph glyph-name="X" unicode="X" horiz-adv-x="667" 
d="M391 374l258 -374h-115l-199 304l-200 -304h-113l258 374l-242 355h113l187 -286l188 286h111z" />
    <glyph glyph-name="Y" unicode="Y" horiz-adv-x="667" 
d="M387 286v-286h-93v286l-281 443h115l214 -355l208 355h111z" />
    <glyph glyph-name="Z" unicode="Z" horiz-adv-x="611" 
d="M581 729v-84l-436 -563h438v-82h-555v82l438 565h-410v82h525z" />
    <glyph glyph-name="bracketleft" unicode="[" horiz-adv-x="278" 
d="M250 729v-72h-103v-797h103v-72h-186v941h186z" />
    <glyph glyph-name="backslash" unicode="\" horiz-adv-x="278" 
d="M47 729l237 -749h-55l-237 749h55z" />
    <glyph glyph-name="bracketright" unicode="]" horiz-adv-x="277" 
d="M22 -212v72h103v797h-103v72h186v-941h-186z" />
    <glyph glyph-name="asciicircum" unicode="^" horiz-adv-x="469" 
d="M197 709h73l155 -380h-69l-122 300l-121 -300h-69z" />
    <glyph glyph-name="underscore" unicode="_" horiz-adv-x="556" 
d="M578 -126v-50h-600v50h600z" />
    <glyph glyph-name="grave" unicode="`" horiz-adv-x="333" 
d="M135 740l96 -148h-60l-149 148h113z" />
    <glyph glyph-name="a" unicode="a" horiz-adv-x="556" 
d="M65 369c4 113.333 73.999 170.002 209.999 170.002c64.667 0 113.667 -12.167 147 -36.5s50 -59.833 50 -106.5v-308c0 -27.333 15 -41 45 -41c6 0 12 0.666992 18 2v-63c-23.333 -6 -42.333 -9 -57 -9c-26.667 0 -46.834 6.16699 -60.501 18.5
s-22.167 31.833 -25.5 58.5c-56 -51.333 -115.333 -77 -178 -77c-52.667 0 -94.5 14 -125.5 42s-46.5 65.667 -46.5 113c0 15.333 1.5 29.333 4.5 42s6.33301 23.834 10 33.501s10.167 18.667 19.5 27l23.5 20.5c6.33301 5.33301 17 10.5 32 15.5s26.5 8.66699 34.5 11
s22 5.16602 42 8.49902s34.667 5.66602 44 6.99902l50 7c32.667 4 55.334 10.333 68.001 19s19 21.667 19 39v22c0 25.333 -10.167 44.666 -30.5 57.999s-49.166 20 -86.499 20c-38.667 0 -68 -7.5 -88 -22.5s-31.667 -38.5 -35 -70.5h-84zM231.999 50.002
c46 0 83.668 12.168 113.001 36.501s44 50.5 44 78.5v94c-16.667 -8 -41.834 -14.667 -75.501 -20l-87.5 -14c-24.667 -4 -47 -13.5 -67 -28.5s-30 -35.833 -30 -62.5s9 -47.334 27 -62.001s43.333 -22 76 -22z" />
    <glyph glyph-name="b" unicode="b" horiz-adv-x="556" 
d="M54 729h82.998v-276c38 57.333 92 86 162 86c69.333 0 124 -24.667 164 -74s60 -116.333 60 -201c0 -86.667 -20.667 -156.167 -62 -208.5s-96.666 -78.5 -165.999 -78.5c-71.333 0 -126.666 30 -165.999 90v-67h-75v729zM282.998 461
c-44 0 -79.3311 -18.5 -105.998 -55.5s-40 -86.167 -40 -147.5s13.333 -110.5 40 -147.5s62 -55.5 106 -55.5c45.333 0 82.166 18.5 110.499 55.5s42.5 85.167 42.5 144.5c0 62.667 -13.833 112.667 -41.5 150s-64.834 56 -111.501 56z" />
    <glyph glyph-name="c" unicode="c" horiz-adv-x="500" 
d="M471 348l-84.002 -0.00195312c-5.33301 36.667 -18.666 64.834 -39.999 84.501s-49.333 29.5 -84 29.5c-45.333 0 -80.833 -18.5 -106.5 -55.5s-38.5 -88.167 -38.5 -153.5c0 -62 13 -110.667 39 -146s62 -53 108 -53c71.333 0 114 42 128 126h84
c-5.33301 -64 -26.666 -113.833 -63.999 -149.5s-87.333 -53.5 -150 -53.5c-71.333 0 -127.833 24.833 -169.5 74.5s-62.5 116.834 -62.5 201.501c0 86.667 21.167 156 63.5 208s98.833 78 169.5 78c60.667 0 109.167 -16.333 145.5 -49s56.833 -80 61.5 -142z" />
    <glyph glyph-name="d" unicode="d" horiz-adv-x="556" 
d="M495 729l0.000976562 -728.999h-74v69c-22.667 -32.667 -47.167 -56.167 -73.5 -70.5s-57.5 -21.5 -93.5 -21.5c-70.667 0 -126.334 25.5 -167.001 76.5s-61 120.833 -61 209.5c0 83.333 20.5 150.166 61.5 200.499s95.5 75.5 163.5 75.5c72 0 125.667 -27 161 -81v271
h83zM265.001 461.001c-45.333 0 -81.999 -18.668 -109.999 -56.001s-42 -86.333 -42 -147c0 -61.333 14 -110.5 42 -147.5s65 -55.5 111 -55.5c44 0 79.333 18.333 106 55s40 85.334 40 146.001c0 62.667 -13.333 112.5 -40 149.5s-62.334 55.5 -107.001 55.5z" />
    <glyph glyph-name="e" unicode="e" horiz-adv-x="556" 
d="M513 234l-386.002 0.00195312c0.666992 -48 10 -85.333 28 -112c28.667 -45.333 70.667 -68 126 -68c68 0 113.667 35 137 105h84c-10.667 -57.333 -35.667 -102 -75 -134s-89 -48 -149 -48c-73.333 0 -131.333 24.833 -174 74.5s-64 117.5 -64 203.5
s21.833 154.833 65.5 206.5s101.834 77.5 174.501 77.5c49.333 0 92.833 -12.333 130.5 -37s64.834 -58.334 81.501 -101.001c14 -36.667 21 -92.334 21 -167.001zM128.998 302.002h293.999c0.666992 1.33301 1 3.33301 1 6c0 43.333 -14 79.833 -42 109.5
s-62.333 44.5 -103 44.5c-42 0 -76.667 -14.5 -104 -43.5s-42.666 -67.833 -45.999 -116.5z" />
    <glyph glyph-name="f" unicode="f" horiz-adv-x="278" 
d="M258 524v-68h-87v-456h-83v456h-70v68h70v89c0 37.333 10.833 66.5 32.5 87.5s51.834 31.5 90.501 31.5c15.333 0 31 -1.66699 47 -5v-69c-12.667 0.666992 -22.334 1 -29.001 1c-38.667 0 -58 -17.667 -58 -53v-82h87z" />
    <glyph glyph-name="g" unicode="g" horiz-adv-x="556" 
d="M245 -23c-61.333 0 -112.663 25.168 -153.996 75.501s-62 117.166 -62 200.499c0 85.333 20.5 154.333 61.5 207s94.833 79 161.5 79c65.333 0 118.666 -30.333 159.999 -91v76h77v-438c0 -50 -3 -91.833 -9 -125.5s-17 -64.834 -33 -93.501s-39.833 -50 -71.5 -64
s-71.834 -21 -120.501 -21c-61.333 0 -110.333 14 -147 42s-57.334 66.667 -62.001 116h85c9.33301 -58.667 51.666 -88 126.999 -88c56 0 94.333 15.833 115 47.5s31 79.834 31 144.501v27c-23.333 -33.333 -47.5 -57.333 -72.5 -72s-53.833 -22 -86.5 -22z
M261.003 462.001c-44.667 0 -80 -18.333 -106 -55s-39 -86.334 -39 -149.001c0 -63.333 13 -113.166 39 -149.499s61.667 -54.5 107 -54.5c44 0 78.667 17.833 104 53.5s38 84.834 38 147.501c0 65.333 -12.5 116.166 -37.5 152.499s-60.167 54.5 -105.5 54.5z" />
    <glyph glyph-name="h" unicode="h" horiz-adv-x="556" 
d="M403 363c0 36.667 -11.1689 62.999 -33.502 78.999s-47.166 24 -74.499 24c-42.667 0 -77 -16.167 -103 -48.5s-39 -75.166 -39 -128.499v-289h-83v729h83v-277c24.667 32 49.5 54.5 74.5 67.5s56.167 19.5 93.5 19.5c50.667 0 90.834 -12.833 120.501 -38.5
s44.5 -60.5 44.5 -104.5v-396h-83v363z" />
    <glyph glyph-name="i" unicode="i" horiz-adv-x="222" 
d="M150 524v-524h-83v524h83zM150 729v-105h-84v105h84z" />
    <glyph glyph-name="j" unicode="j" horiz-adv-x="222" 
d="M70 524h83v-633c0 -72.667 -47.667 -109 -143 -109c-8.66699 0 -18 1 -28 3v71c8 -1.33301 15.667 -2 23 -2c24 0 40.833 5.16699 50.5 15.5s14.5 28.5 14.5 54.5v600zM153 729v-105h-83v105h83z" />
    <glyph glyph-name="k" unicode="k" horiz-adv-x="500" 
d="M141 729v-427l222 222h107l-182 -181l214 -343h-103l-177 284l-81 -80v-204h-83v729h83z" />
    <glyph glyph-name="l" unicode="l" horiz-adv-x="222" 
d="M152 729v-729h-84v729h84z" />
    <glyph glyph-name="m" unicode="m" horiz-adv-x="833" 
d="M70 524l77 0.00195312v-74c22.667 31.333 46.5 54 71.5 68s54.833 21 89.5 21c64.667 0 111.667 -26.667 141 -80c24.667 29.333 49 50 73 62s53.333 18 88 18c48.667 0 86.167 -12.5 112.5 -37.5s39.5 -61.167 39.5 -108.5v-393h-84v361
c0 33.333 -8.5 59.166 -25.5 77.499s-40.833 27.5 -71.5 27.5c-34 0 -63 -13.333 -87 -40s-36 -59 -36 -97v-329h-84v361c0 33.333 -8.5 59.166 -25.5 77.499s-40.833 27.5 -71.5 27.5c-34 0 -63 -13.333 -87 -40s-36 -59 -36 -97v-329h-84v524z" />
    <glyph glyph-name="n" unicode="n" horiz-adv-x="556" 
d="M70 524l76.999 -0.000976562v-88c23.333 36.667 48.5 63 75.5 79s59.833 24 98.5 24c50.667 0 91 -13 121 -39s45 -60.667 45 -104v-396h-83v363c0 31.333 -9.66699 56.333 -29 75s-45.666 28 -78.999 28c-42.667 0 -77 -16.167 -103 -48.5s-39 -75.166 -39 -128.499
v-289h-84v524z" />
    <glyph glyph-name="o" unicode="o" horiz-adv-x="556" 
d="M272 539c75.333 0 133.833 -24.832 175.5 -74.499s62.5 -119.834 62.5 -210.501c0 -86 -21.167 -153.667 -63.5 -203s-100.166 -74 -173.499 -74c-74.667 0 -132.834 24.833 -174.501 74.5s-62.5 118.5 -62.5 206.5s21 156.833 63 206.5s99.667 74.5 173 74.5z
M273 462.001c-46.667 0 -83.335 -18.1689 -110.002 -54.502s-40 -86.166 -40 -149.499s13.333 -113.166 40 -149.499s63.334 -54.5 110.001 -54.5c46 0 82.5 18.167 109.5 54.5s40.5 85.166 40.5 146.499c0 64.667 -13.167 115.334 -39.5 152.001s-63.166 55 -110.499 55z
" />
    <glyph glyph-name="p" unicode="p" horiz-adv-x="556" 
d="M54 -218l0.00195312 741.999h77v-79c39.333 62.667 95 94 167 94c69.333 0 124.166 -25.667 164.499 -77s60.5 -121 60.5 -209c0 -83.333 -20.5 -150.166 -61.5 -200.499s-95.167 -75.5 -162.5 -75.5c-64.667 0 -118.334 26 -161.001 78v-273h-84zM284.002 460.999
c-44 0 -79.333 -18.5 -106 -55.5s-40 -86.167 -40 -147.5s13.333 -110.5 40 -147.5s62 -55.5 106 -55.5c45.333 0 82 18.5 110 55.5s42 85.167 42 144.5c0 62.667 -13.833 112.667 -41.5 150s-64.5 56 -110.5 56z" />
    <glyph glyph-name="q" unicode="q" horiz-adv-x="556" 
d="M495 -218h-82.999v278c-38 -55.333 -92 -83 -162 -83c-69.333 0 -124 24.667 -164 74s-60 116.333 -60 201c0 86.667 20.667 156.167 62 208.5s96.666 78.5 165.999 78.5c71.333 0 127 -28.333 167 -85v70h74v-742zM266.001 461c-46 0 -83 -18.667 -111 -56
s-42 -86.333 -42 -147c0 -61.333 14 -110.5 42 -147.5s65 -55.5 111 -55.5c44 0 79.333 18.333 106 55s40 85 40 145c0 62.667 -13.167 112.667 -39.5 150s-61.833 56 -106.5 56z" />
    <glyph glyph-name="r" unicode="r" horiz-adv-x="333" 
d="M321 451c-56 -1.33301 -98 -14.332 -126 -38.999s-42 -71.334 -42 -140.001v-272h-84v524h77v-95c24 39.333 47.167 67.5 69.5 84.5s46.833 25.5 73.5 25.5c7.33301 0 18 -1 32 -3v-85z" />
    <glyph glyph-name="s" unicode="s" horiz-adv-x="500" 
d="M122 156c4 -31.333 14.8311 -56.1641 32.498 -74.4971s49.5 -27.5 95.5 -27.5c36.667 0 66.167 7.5 88.5 22.5s33.5 34.833 33.5 59.5c0 19.333 -6.33301 34.666 -19 45.999s-33.334 20.333 -62.001 27l-78 19c-62 14.667 -105.167 33.167 -129.5 55.5
s-36.5 54.166 -36.5 95.499c0 48.667 18.333 87.5 55 116.5s85.334 43.5 146.001 43.5s107.334 -14 140.001 -42s49.334 -67.667 50.001 -119h-88c-2 56 -37 84 -105 84c-34 0 -61 -7.16699 -81 -21.5s-30 -33.5 -30 -57.5c0 -18.667 7.66699 -33.834 23 -45.501
s40 -21.5 74 -29.5l80 -19c52 -12.667 89.667 -30.5 113 -53.5s35 -53.833 35 -92.5c0 -50.667 -19.5 -91 -58.5 -121s-91.5 -45 -157.5 -45c-135.333 0 -205 59.667 -209 179h88z" />
    <glyph glyph-name="t" unicode="t" horiz-adv-x="278" 
d="M254 524v-68h-86v-359c0 -18.667 3.16699 -31.167 9.5 -37.5s18.5 -9.5 36.5 -9.5c16.667 0 30 1.33301 40 4v-70c-26 -4.66699 -48.667 -7 -68 -7c-32.667 0 -57.667 7.16699 -75 21.5s-26 34.833 -26 61.5v396h-71v68h71v144h83v-144h86z" />
    <glyph glyph-name="u" unicode="u" horiz-adv-x="556" 
d="M482 0l-74.9971 0.00195312v73c-24.667 -34.667 -50.334 -59.334 -77.001 -74.001s-59.334 -22 -98.001 -22c-50.667 0 -91.167 13 -121.5 39s-45.5 60.667 -45.5 104v404h83v-371c0 -31.333 9.66699 -56.333 29 -75s45.666 -28 78.999 -28c43.333 0 78 16.167 104 48.5
s39 75.166 39 128.499v297h83v-524z" />
    <glyph glyph-name="v" unicode="v" horiz-adv-x="500" 
d="M285 0h-91l-184 524h94l140 -425l148 425h94z" />
    <glyph glyph-name="w" unicode="w" horiz-adv-x="722" 
d="M554 0h-95l-106 411l-101 -411h-94l-152 524h92l107 -408l100 408h102l103 -408l104 408h94z" />
    <glyph glyph-name="x" unicode="x" horiz-adv-x="500" 
d="M292 271l181 -271h-97l-131 201l-133 -201h-95l185 267l-175 257h95l126 -190l126 190h94z" />
    <glyph glyph-name="y" unicode="y" horiz-adv-x="500" 
d="M388 524l90.001 -0.000976562l-233 -634c-27.333 -72 -72.333 -108 -135 -108c-20.667 0 -39.334 4.33301 -56.001 13v75c18 -4 32.667 -6 44 -6c17.333 0 31 3.83301 41 11.5s18.667 20.834 26 39.501l32 83l-177 526h89l134 -408z" />
    <glyph glyph-name="z" unicode="z" horiz-adv-x="500" 
d="M443 524v-74l-311 -377h325v-73h-426v75l313 376h-292v73h391z" />
    <glyph glyph-name="braceleft" unicode="{" horiz-adv-x="334" 
d="M276 729v-65.001h-15c-24.667 0 -41.334 -4.66699 -50.001 -14s-13 -27 -13 -53v-181c0 -46 -6 -80.667 -18 -104s-33.333 -41 -64 -53c54.667 -25.333 82 -78 82 -158v-181c0 -26 4.33301 -43.667 13 -53s25.334 -14 50.001 -14h15v-65h-46
c-34.667 0 -61.5 11.5 -80.5 34.5s-28.5 55.167 -28.5 96.5v167c0 46 -5.66699 79 -17 99s-31.666 33 -60.999 39v69c29.333 6 49.666 18.833 60.999 38.5s17 52.834 17 99.501v167c0 41.333 9.5 73.5 28.5 96.5s45.833 34.5 80.5 34.5h46z" />
    <glyph glyph-name="bar" unicode="|" horiz-adv-x="260" 
d="M100 729h60v-941h-60v941z" />
    <glyph glyph-name="braceright" unicode="}" horiz-adv-x="334" 
d="M29 -212v65h16c24.667 0 41.5 4.66699 50.5 14s13.5 27 13.5 53v181c0 80 27.333 132.333 82 157c-54.667 25.333 -82 78 -82 158v181c0 26 -4.5 43.667 -13.5 53s-25.833 14 -50.5 14h-16v65h47c34.667 0 61.667 -11.5 81 -34.5s29 -55.167 29 -96.5v-167
c0 -46 5.5 -79 16.5 -99s30.833 -33 59.5 -39v-69c-28.667 -6 -48.5 -19 -59.5 -39s-16.5 -53 -16.5 -99v-167c0 -41.333 -9.66699 -73.5 -29 -96.5s-46.333 -34.5 -81 -34.5h-47z" />
    <glyph glyph-name="asciitilde" unicode="~" horiz-adv-x="584" 
d="M181 371c-31.333 0 -49.002 -25.999 -53.002 -77.999h-53c2.66699 46.667 13.167 82.5 31.5 107.5s43.833 37.5 76.5 37.5c18 0 36 -5.33301 54 -16l117 -69c18.667 -11.333 35.334 -17 50.001 -17c20 0 33.5 6.16699 40.5 18.5s10.5 31.166 10.5 56.499h53
c0 -95.333 -35 -143 -105 -143c-26 0 -53 8.66699 -81 26l-98 63c-15.333 9.33301 -29.666 14 -42.999 14z" />
    <glyph glyph-name="nonbreakingspace" unicode="&#xa0;" horiz-adv-x="278" 
 />
    <glyph glyph-name="exclamdown" unicode="&#xa1;" horiz-adv-x="278" 
d="M122 -205v338l22 223h39l22 -223v-338h-83zM122 420v104h84v-104h-84z" />
    <glyph glyph-name="cent" unicode="&#xa2;" horiz-adv-x="556" 
d="M312 462l-0.000976562 -408.999c64 7.33301 102 49.666 114 126.999h84c-3.33301 -60 -22.666 -108.167 -57.999 -144.5s-82 -55.833 -140 -58.5v-97h-42v98c-67.333 6 -120.5 33.5 -159.5 82.5s-58.5 113.167 -58.5 192.5c0 81.333 19.5 147.333 58.5 198
s92.167 79.667 159.5 87v90h42v-89c58.667 -4 104.5 -22.5 137.5 -55.5s51.167 -78.167 54.5 -135.5h-84c-3.33301 33.333 -14.5 60 -33.5 80s-43.833 31.333 -74.5 34zM269.999 55.001v406c-87.333 -16 -131 -85.333 -131 -208c0 -56.667 11.5 -102.167 34.5 -136.5
s55.167 -54.833 96.5 -61.5z" />
    <glyph glyph-name="sterling" unicode="&#xa3;" horiz-adv-x="556" 
d="M147 523c0 -18.667 2.49805 -35.332 7.49805 -49.999s13.833 -32.334 26.5 -53.001s21 -35.334 25 -44.001h160v-55h-136c10 -28.667 15 -52.334 15 -71.001c0 -26 -8.5 -52.667 -25.5 -80s-47.833 -63.666 -92.5 -108.999c39.333 26 80 39 122 39
c22 0 50.333 -5.16699 85 -15.5s60 -15.5 76 -15.5c26.667 0 54.334 10 83.001 30l42 -66c-38 -37.333 -81.667 -56 -131 -56c-28.667 0 -65.334 7.66699 -110.001 23s-78.667 23 -102 23c-35.333 0 -71.666 -12.333 -108.999 -37l-48 66c46 39.333 78.333 73.333 97 102
s28 58.334 28 89.001c0 25.333 -8 51.333 -24 78h-110v55h81c-22.667 38 -37.167 65.167 -43.5 81.5s-9.5 35.5 -9.5 57.5c0 60.667 22.833 111.5 68.5 152.5s102.167 61.5 169.5 61.5c19.333 0 37.833 -1.5 55.5 -4.5s36.834 -9.5 57.501 -19.5
s38.334 -23.167 53.001 -39.5s27.167 -39 37.5 -68s15.833 -62.5 16.5 -100.5h-88c-2.66699 102.667 -48 154 -136 154c-42.667 0 -76.834 -11.667 -102.501 -35s-38.5 -54.333 -38.5 -93z" />
    <glyph glyph-name="currency" unicode="&#xa4;" horiz-adv-x="556" 
d="M485 190l-58.001 -54.001l-53 53c-26.667 -20 -60 -30 -100 -30c-35.333 0 -66.666 8.33301 -93.999 25l-51 -51l-56 57l48 49c-21.333 28.667 -32 62.667 -32 102c0 38 10.667 72 32 102l-54 55l56 53l55 -55c29.333 17.333 61.666 26 96.999 26
c38.667 0 71.334 -9.33301 98.001 -28l59 53l57 -58l-55 -55c17.333 -27.333 26 -58.333 26 -93c0 -33.333 -9.66699 -65.666 -29 -96.999zM273.999 444.999c-29.333 0 -54.333 -10.332 -75 -30.999s-31 -45.334 -31 -74.001s10.5 -53.167 31.5 -73.5
s46.167 -30.5 75.5 -30.5c28.667 0 53.5 10.167 74.5 30.5s31.5 44.5 31.5 72.5c0 29.333 -10.333 54.333 -31 75s-46 31 -76 31z" />
    <glyph glyph-name="yen" unicode="&#xa5;" horiz-adv-x="556" 
d="M495 354v-51h-170v-77h170v-51h-170v-175h-88v175h-172v51h172v77h-172v51h151l-205 355h85l185 -322l179 322h85l-201 -355h151z" />
    <glyph glyph-name="brokenbar" unicode="&#xa6;" horiz-adv-x="260" 
d="M100 729h60v-401h-60v401zM100 189h60v-401h-60v401z" />
    <glyph glyph-name="section" unicode="&#xa7;" horiz-adv-x="556" 
d="M162 -14c0 -46 10.166 -77.833 30.499 -95.5s44.166 -26.5 71.499 -26.5c28.667 0 51.834 8 69.501 24s26.5 36.667 26.5 62c0 33.333 -18.333 62.666 -55 87.999l-170 117c-32.667 22.667 -56.167 46.334 -70.5 71.001s-21.5 53.334 -21.5 86.001
c0 33.333 8.33301 61.833 25 85.5s43.334 45.167 80.001 64.5c-29.333 34 -44 68 -44 102c0 46 17.833 85 53.5 117s79.5 48 131.5 48s94.167 -16.333 126.5 -49s48.5 -75.334 48.5 -128.001v-28h-84v26c0 31.333 -8.83301 56.166 -26.5 74.499s-41.167 27.5 -70.5 27.5
c-25.333 0 -46.5 -8 -63.5 -24s-25.5 -36.333 -25.5 -61c0 -14.667 4.16699 -27.667 12.5 -39s23.166 -24 44.499 -38l146 -94c40.667 -26 69 -51.333 85 -76s24 -55 24 -91c0 -76.667 -36.333 -128.667 -109 -156c20 -22.667 33.833 -42.667 41.5 -60
s11.5 -36.666 11.5 -57.999c0 -48 -17.833 -88 -53.5 -120s-80.167 -48 -133.5 -48c-16 0 -31.667 1.33301 -47 4s-31.666 8.5 -48.999 17.5s-32.5 20.5 -45.5 34.5s-23.667 33.333 -32 58s-12.5 53 -12.5 85h85zM187.999 229l165.999 -123.001c48.667 26 73 60 73 102
c0 40.667 -24.333 78 -73 112l-161 109c-26 -17.333 -44.333 -33.5 -55 -48.5s-16 -32.5 -16 -52.5s4.33301 -36.667 13 -50s26.334 -29.666 53.001 -48.999z" />
    <glyph glyph-name="dieresis" unicode="&#xa8;" horiz-adv-x="333" 
d="M308 716v-104h-104v104h104zM129 716v-104h-104v104h104z" />
    <glyph glyph-name="copyright" unicode="&#xa9;" horiz-adv-x="737" 
d="M552 312c-4 -18 -7.16504 -31.667 -9.49805 -41s-8 -24.666 -17 -45.999s-19 -38 -30 -50s-27.167 -23.167 -48.5 -33.5s-45.333 -15.5 -72 -15.5c-57.333 0 -104 21.5 -140 64.5s-54 98.5 -54 166.5c0 70 18.167 126.667 54.5 170s83.833 65 142.5 65
c87.333 0 142.666 -51.667 165.999 -155h-71c-8.66699 33.333 -20.5 57.166 -35.5 71.499s-35.833 21.5 -62.5 21.5c-38 0 -68.333 -15.5 -91 -46.5s-34 -72.833 -34 -125.5c0 -48 11.5 -88.333 34.5 -121s53.167 -49 90.5 -49c57.333 0 92.666 41.333 105.999 124h71z
M369.002 742c105.333 0 195.333 -37.168 270 -111.501s112 -164.166 112 -269.499c0 -106.667 -37.5 -197.167 -112.5 -271.5s-166.5 -111.5 -274.5 -111.5c-102.667 0 -191.167 37.667 -265.5 113s-111.5 165 -111.5 269c0 105.333 37.333 195.333 112 270
s164.667 112 270 112zM369.002 679.999c-86.667 0 -160.668 -31.332 -222.001 -93.999s-92 -138 -92 -226c0 -87.333 30.5 -162.5 91.5 -225.5s133.833 -94.5 218.5 -94.5c88.667 0 163.834 31.167 225.501 93.5s92.5 138.166 92.5 227.499
c0 87.333 -30.667 162.333 -92 225s-135.333 94 -222 94z" />
    <glyph glyph-name="ordfeminine" unicode="&#xaa;" horiz-adv-x="370" 
d="M320 354v-51h-277v51h277zM333 449l0.000976562 -43.999c-10.667 -4 -21.334 -6 -32.001 -6c-31.333 0 -49.666 14.333 -54.999 43c-32.667 -28.667 -67.667 -43 -105 -43c-32 0 -57.333 8.66699 -76 26s-28 40.666 -28 69.999c0 32.667 11.333 57.167 34 73.5
s63.667 26.833 123 31.5c18.667 1.33301 31.5 4.33301 38.5 9s10.5 12.667 10.5 24v13c0 29.333 -22.333 44 -67 44c-22.667 0 -38.834 -4 -48.501 -12s-16.167 -22.667 -19.5 -44h-59c2 72 45 108 129 108c81.333 0 122 -31.333 122 -94v-179c0 -15.333 7.66699 -23 23 -23
c2.66699 0 6 1 10 3zM243.001 568.001c-12.667 -5.33301 -32.833 -9.66602 -60.5 -12.999s-49.167 -8.83301 -64.5 -16.5s-23 -21.167 -23 -40.5c0 -31.333 19 -47 57 -47c24.667 0 46 6.66699 64 20s27 28.666 27 45.999v51z" />
    <glyph glyph-name="guillemotleft" unicode="&#xab;" horiz-adv-x="448" 
d="M45 227v89l152 122v-83l-106 -83l106 -83v-83zM250 227v89l152 122v-83l-106 -83l106 -83v-83z" />
    <glyph glyph-name="logicalnot" unicode="&#xac;" horiz-adv-x="584" 
d="M40 375h504v-289h-70v219h-434v70z" />
    <glyph glyph-name="softhyphen" unicode="&#xad;" horiz-adv-x="333" 
d="M284 312v-72h-238v72h238z" />
    <glyph glyph-name="registered" unicode="&#xae;" horiz-adv-x="737" 
d="M495 360c18 -12 30.168 -25.834 36.501 -41.501s9.5 -34.167 9.5 -55.5c0 -4 -0.166992 -10.167 -0.5 -18.5s-0.5 -14.166 -0.5 -17.499c0 -30 7.66699 -50.667 23 -62v-25h-79c-10 23.333 -15 47.333 -15 72v5l1 40c0 24 -5 41.333 -15 52s-26.333 16 -49 16h-134v-185
h-70v445h206c94 0 141 -42 141 -126c0 -22.667 -3.83301 -41 -11.5 -55s-21.834 -28.667 -42.501 -44zM272.001 387.999h129.001c50 0 75 22.333 75 67c0 23.333 -5.83301 40.333 -17.5 51s-30.834 16 -57.501 16h-129v-134zM369.002 741.999
c105.333 0 195.333 -37.168 270 -111.501s112 -164.166 112 -269.499c0 -106.667 -37.5 -197.167 -112.5 -271.5s-166.5 -111.5 -274.5 -111.5c-102.667 0 -191.167 37.667 -265.5 113s-111.5 165 -111.5 269c0 105.333 37.333 195.333 112 270s164.667 112 270 112z
M369.002 679.998c-86.667 0 -160.668 -31.332 -222.001 -93.999s-92 -138 -92 -226c0 -87.333 30.5 -162.5 91.5 -225.5s133.833 -94.5 218.5 -94.5c88.667 0 163.834 31.167 225.501 93.5s92.5 138.166 92.5 227.499c0 87.333 -30.667 162.333 -92 225s-135.333 94 -222 94
z" />
    <glyph glyph-name="macron" unicode="&#xaf;" horiz-adv-x="333" 
d="M302 701v-70h-274v70h274z" />
    <glyph glyph-name="degree" unicode="&#xb0;" horiz-adv-x="606" 
d="M303 686c41.333 0 76.835 -14.833 106.502 -44.5s44.5 -65.167 44.5 -106.5c0 -42.667 -14.833 -78.667 -44.5 -108s-65.834 -44 -108.501 -44c-40.667 0 -75.834 15 -105.501 45s-44.5 65.667 -44.5 107s14.833 76.833 44.5 106.5s65.5 44.5 107.5 44.5zM303.002 629
c-26 0 -48.333 -9.33301 -67 -28s-28 -40.667 -28 -66c0 -26 9.16699 -48.333 27.5 -67s40.166 -28 65.499 -28c26.667 0 49.334 9.16699 68.001 27.5s28 40.833 28 67.5c0 26 -9.16699 48.167 -27.5 66.5s-40.5 27.5 -66.5 27.5z" />
    <glyph glyph-name="plusminus" unicode="&#xb1;" horiz-adv-x="584" 
d="M534 416v-70h-207v-207h-70v207h-207v70h207v207h70v-207h207zM534 59v-70h-484v70h484z" />
    <glyph glyph-name="twosuperior" unicode="&#xb2;" horiz-adv-x="350" 
d="M178 656c-17.333 0 -32 -2.99609 -44 -8.99609s-20.833 -14.333 -26.5 -25s-9.66699 -20.834 -12 -30.501s-3.83301 -21.167 -4.5 -34.5h-62c2.66699 101.333 53 152 151 152c42.667 0 77.667 -11.667 105 -35s41 -53.666 41 -90.999c0 -54.667 -32 -97.667 -96 -129
l-63 -32c-22 -11.333 -38.167 -22.833 -48.5 -34.5s-18.5 -26.834 -24.5 -45.501h229v-58h-304c2.66699 48.667 12.5 85.667 29.5 111s49.5 50.666 97.5 75.999l58 31c39.333 21.333 59 47.666 59 78.999c0 21.333 -8.16699 39.166 -24.5 53.499s-36.5 21.5 -60.5 21.5z" />
    <glyph glyph-name="threesuperior" unicode="&#xb3;" horiz-adv-x="350" 
d="M169 656c-30.667 0 -51.833 -7.50098 -63.5 -22.501s-17.5 -37.167 -17.5 -66.5h-63c2 94.667 50 142 144 142c42.667 0 76.5 -10.667 101.5 -32s37.5 -50.666 37.5 -87.999c0 -39.333 -19 -67.666 -57 -84.999c47.333 -16 71 -49.333 71 -100
c0 -40.667 -14.167 -73.167 -42.5 -97.5s-65.833 -36.5 -112.5 -36.5c-48 0 -85.167 12.333 -111.5 37s-39.5 59.667 -39.5 105h62c1.33301 -30.667 9.33301 -53.167 24 -67.5s37 -21.5 67 -21.5c28 0 50 7.16699 66 21.5s24 34.166 24 59.499c0 18 -5.33301 33.5 -16 46.5
s-24.667 20.833 -42 23.5c-10 1.33301 -32 2 -66 2v51c42.667 0 71.667 4.33301 87 13s23 24.667 23 48c0 21.333 -6.83301 38 -20.5 50s-32.167 18 -55.5 18z" />
    <glyph glyph-name="acute" unicode="&#xb4;" horiz-adv-x="333" 
d="M188 740h113l-149 -148h-60z" />
    <glyph glyph-name="micro" unicode="&#xb5;" horiz-adv-x="556" 
d="M544 49l-0.000976562 -62.999c-22 -6 -41 -9 -57 -9c-55.333 0 -84 27.667 -86 83c-39.333 -55.333 -93.666 -83 -162.999 -83c-36 0 -66 8.66699 -90 26v-223h-83v744h83v-371c0 -31.333 9.66699 -56.333 29 -75s45.333 -28 78 -28c43.333 0 78 16.167 104 48.5
s39 75.166 39 128.499v297h83v-436c0 -27.333 15 -41 45 -41c5.33301 0 11.333 0.666992 18 2z" />
    <glyph glyph-name="paragraph" unicode="&#xb6;" horiz-adv-x="537" 
d="M255 259c-64.667 3.33301 -115.333 26.833 -152 70.5s-55 96.834 -55 159.501c0 67.333 21.667 124.166 65 170.499s96.333 69.5 159 69.5h250v-64h-57v-842h-64v842h-82v-842h-64v436z" />
    <glyph glyph-name="middot" unicode="&#xb7;" horiz-adv-x="278" 
d="M191 331v-104h-104v104h104z" />
    <glyph glyph-name="cedilla" unicode="&#xb8;" horiz-adv-x="333" 
d="M60 -140c6 -2.66699 14.499 -6.66797 25.499 -12.001s19.333 -9.16602 25 -11.499s12.834 -4.5 21.501 -6.5s17.334 -3 26.001 -3c15.333 0 28.166 4.33301 38.499 13s15.5 19.334 15.5 32.001c0 24.667 -15.333 37 -46 37c-10 0 -20.333 -2.66699 -31 -8l-12 7l42 92h38
l-23 -56c8.66699 1.33301 18 2 28 2c25.333 0 44.833 -5.83301 58.5 -17.5s20.5 -28.167 20.5 -49.5c0 -28.667 -11 -51.334 -33 -68.001s-52 -25 -90 -25c-31.333 0 -73 11.333 -125 34z" />
    <glyph glyph-name="onesuperior" unicode="&#xb9;" horiz-adv-x="350" 
d="M168 580h-99v46l15 1c36 3.33301 60 9.83301 72 19.5s22.333 30.5 31 62.5h43v-425h-62v296z" />
    <glyph glyph-name="ordmasculine" unicode="&#xba;" horiz-adv-x="365" 
d="M314 354v-51h-263v51h263zM182 742c45.333 0 80.333 -15 105 -45s37 -73 37 -129c0 -52.667 -12.5 -94 -37.5 -124s-59.833 -45 -104.5 -45s-79.5 15 -104.5 45s-37.5 72.333 -37.5 127c0 54 12.5 96 37.5 126s59.833 45 104.5 45zM182 690
c-26 0 -46.499 -10.668 -61.499 -32.001s-22.5 -50.333 -22.5 -87c0 -37.333 7.5 -66.666 22.5 -87.999s35.5 -32 61.5 -32s46.5 10.5 61.5 31.5s22.5 49.833 22.5 86.5c0 38 -7.33301 67.667 -22 89s-35.334 32 -62.001 32z" />
    <glyph glyph-name="guillemotright" unicode="&#xbb;" horiz-adv-x="448" 
d="M403 317v-89l-152 -122v83l106 83l-106 83v83zM198 317v-89l-152 -122v83l106 83l-106 83v83z" />
    <glyph glyph-name="onequarter" unicode="&#xbc;" horiz-adv-x="869" 
d="M160 580h-99v46l15 1c36 3.33301 60 9.83301 72 19.5s22.333 30.5 31 62.5h43v-425h-62v296zM643 709h58l-452 -729h-58zM720 100h-188v59l204 266h46v-272h67v-53h-67v-100h-62v100zM720 153v170l-129 -170h129z" />
    <glyph glyph-name="onehalf" unicode="&#xbd;" horiz-adv-x="869" 
d="M160 580h-99v46l15 1c36 3.33301 60 9.83301 72 19.5s22.333 30.5 31 62.5h43v-425h-62v296zM619 709h58l-452 -729h-58zM696 372c-17.333 0 -32 -2.99609 -44 -8.99609s-20.833 -14.333 -26.5 -25s-9.66699 -20.834 -12 -30.501s-3.83301 -21.167 -4.5 -34.5h-62
c2.66699 101.333 53 152 151 152c42.667 0 77.667 -11.667 105 -35s41 -53.666 41 -90.999c0 -54.667 -32 -97.667 -96 -129l-63 -32c-22 -11.333 -38.167 -22.833 -48.5 -34.5s-18.5 -26.834 -24.5 -45.501h229v-58h-304c2.66699 48.667 12.5 85.667 29.5 111
s49.5 50.666 97.5 75.999l58 31c39.333 21.333 59 47.666 59 78.999c0 21.333 -8.16699 39.166 -24.5 53.499s-36.5 21.5 -60.5 21.5z" />
    <glyph glyph-name="threequarters" unicode="&#xbe;" horiz-adv-x="879" 
d="M179 656c-30.667 0 -51.833 -7.50098 -63.5 -22.501s-17.5 -37.167 -17.5 -66.5h-63c2 94.667 50 142 144 142c42.667 0 76.5 -10.667 101.5 -32s37.5 -50.666 37.5 -87.999c0 -39.333 -19 -67.666 -57 -84.999c47.333 -16 71 -49.333 71 -100
c0 -40.667 -14.167 -73.167 -42.5 -97.5s-65.833 -36.5 -112.5 -36.5c-48 0 -85.167 12.333 -111.5 37s-39.5 59.667 -39.5 105h62c1.33301 -30.667 9.33301 -53.167 24 -67.5s37 -21.5 67 -21.5c28 0 50 7.16699 66 21.5s24 34.166 24 59.499c0 18 -5.33301 33.5 -16 46.5
s-24.667 20.833 -42 23.5c-10 1.33301 -32 2 -66 2v51c42.667 0 71.667 4.33301 87 13s23 24.667 23 48c0 21.333 -6.83301 38 -20.5 50s-32.167 18 -55.5 18zM640.001 708.999h58l-452 -729h-58zM707.001 99.999h-188v59l204 266h46v-272h67v-53h-67v-100h-62v100z
M707.001 152.999v170l-129 -170h129z" />
    <glyph glyph-name="questiondown" unicode="&#xbf;" horiz-adv-x="556" 
d="M96 -25c0 30.667 6.16699 58.333 18.5 83s27.166 45.167 44.499 61.5s34.833 32 52.5 47s32.667 32 45 51s18.5 39.167 18.5 60.5v47h90v-55c0 -24.667 -6.16699 -48 -18.5 -70s-27.333 -41 -45 -57l-52.5 -48c-17.333 -16 -32.166 -34.167 -44.499 -54.5
s-18.5 -42.166 -18.5 -65.499c0 -34 11.667 -61.5 35 -82.5s54.333 -31.5 93 -31.5c48.667 0 82.334 13.667 101.001 41s28 65.666 28 114.999h85c0 -76.667 -18.5 -134.834 -55.5 -174.501s-91.5 -59.5 -163.5 -59.5c-64.667 0 -116.334 17.333 -155.001 52
s-58 81.334 -58 140.001zM275 419.999v104h90v-104h-90z" />
    <glyph glyph-name="Agrave" unicode="&#xc0;" horiz-adv-x="667" 
d="M303 924l96 -148h-60l-149 148h113zM474 219h-281l-77 -219h-99l260 729h120l256 -729h-104zM448 297l-112 332l-120 -332h232z" />
    <glyph glyph-name="Aacute" unicode="&#xc1;" horiz-adv-x="667" 
d="M370 924h113l-149 -148h-60zM474 219h-281l-77 -219h-99l260 729h120l256 -729h-104zM448 297l-112 332l-120 -332h232z" />
    <glyph glyph-name="Acircumflex" unicode="&#xc2;" horiz-adv-x="667" 
d="M288 927h95l96 -150h-63l-81 96l-79 -96h-64zM474 219h-281l-77 -219h-99l260 729h120l256 -729h-104zM448 297l-112 332l-120 -332h232z" />
    <glyph glyph-name="Atilde" unicode="&#xc3;" horiz-adv-x="667" 
d="M266 887c16.667 0 39.666 -6.16699 68.999 -18.5s50.666 -18.5 63.999 -18.5c16.667 0 29 12.333 37 37h58c-10 -69.333 -39.667 -104 -89 -104c-13.333 0 -36.666 6.33301 -69.999 19s-54.666 19 -63.999 19c-15.333 0 -26.333 -12.333 -33 -37h-58
c5.33301 32.667 15.5 58 30.5 76s33.5 27 55.5 27zM473.999 219h-281l-77 -219h-99l260 729h120l256 -729h-104zM447.999 297l-112 332l-120 -332h232z" />
    <glyph glyph-name="Adieresis" unicode="&#xc4;" horiz-adv-x="667" 
d="M482 881v-104h-104v104h104zM303 881v-104h-104v104h104zM474 220h-281l-77 -219h-99l260 729h120l256 -729h-104zM448 298l-112 332l-120 -332h232z" />
    <glyph glyph-name="Aring" unicode="&#xc5;" horiz-adv-x="667" 
d="M335 966c29.333 0 54.333 -10.334 75 -31.001s31 -45.667 31 -75c0 -28.667 -10.5 -53.167 -31.5 -73.5s-45.833 -30.5 -74.5 -30.5s-53.5 10.333 -74.5 31s-31.5 45.334 -31.5 74.001c0 28 10.5 52.5 31.5 73.5s45.833 31.5 74.5 31.5zM335 903.999
c-12 0 -22.333 -4.33301 -31 -13s-13 -18.667 -13 -30c0 -12 4.33301 -22.333 13 -31s19 -13 31 -13s22.333 4.33301 31 13s13 18.667 13 30c0 12.667 -4.16699 23.167 -12.5 31.5s-18.833 12.5 -31.5 12.5zM474 218.999h-281l-77 -219h-99l260 729h120l256 -729h-104z
M448 296.999l-112 332l-120 -332h232z" />
    <glyph glyph-name="AE" unicode="&#xc6;" horiz-adv-x="1000" 
d="M468 214h-269l-85 -214h-103l299 729h622v-82h-371v-233h352v-82h-352v-250h389v-82h-482v214zM468 296v351h-100l-138 -351h238z" />
    <glyph glyph-name="Ccedilla" unicode="&#xc7;" horiz-adv-x="722" 
d="M378 58c60 0 105.834 16.6699 137.501 50.0029s53.5 86 65.5 158h96c-22 -192.667 -121.333 -289 -298 -289l-13 -33c8.66699 1.33301 18 2 28 2c25.333 0 44.833 -5.83301 58.5 -17.5s20.5 -28.167 20.5 -49.5c0 -28.667 -11 -51.334 -33 -68.001s-52 -25 -90 -25
c-32 0 -73.667 11.333 -125 34l21 40c4.66699 -2 12.167 -5.5 22.5 -10.5s18.5 -8.83301 24.5 -11.5s13.667 -5.16699 23 -7.5s18.666 -3.5 27.999 -3.5c15.333 0 28.166 4.33301 38.499 13s15.5 19.334 15.5 32.001c0 24.667 -15.333 37 -46 37
c-10 0 -20.333 -2.66699 -31 -8l-11 7l31 69c-37.333 5.33301 -66 11.5 -86 18.5s-41 18.167 -63 33.5c-45.333 32.667 -80.666 77.667 -105.999 135s-38 121.333 -38 192c0 33.333 2.83301 66.333 8.5 99s16.5 66.667 32.5 102s35.833 66.166 59.5 92.499
s55.667 48.166 96 65.499s85.833 26 136.5 26c158.667 0 252.334 -79.333 281.001 -238h-95c-10.667 51.333 -31.334 90.166 -62.001 116.499s-75.334 39.5 -134.001 39.5c-71.333 0 -127.5 -27 -168.5 -81s-61.5 -127.667 -61.5 -221c0 -91.333 21.333 -164 64 -218
s100.334 -81 173.001 -81z" />
    <glyph glyph-name="Egrave" unicode="&#xc8;" horiz-adv-x="667" 
d="M320 921l96 -148h-60l-149 148h113zM183 332v-250h430v-82h-523v729h505v-82h-412v-233h397v-82h-397z" />
    <glyph glyph-name="Eacute" unicode="&#xc9;" horiz-adv-x="667" 
d="M366 925h113l-149 -148h-60zM183 332v-250h430v-82h-523v729h505v-82h-412v-233h397v-82h-397z" />
    <glyph glyph-name="Ecircumflex" unicode="&#xca;" horiz-adv-x="667" 
d="M297 926h95l96 -150h-63l-81 96l-79 -96h-64zM183 332v-250h430v-82h-523v729h505v-82h-412v-233h397v-82h-397z" />
    <glyph glyph-name="Edieresis" unicode="&#xcb;" horiz-adv-x="667" 
d="M488 884v-104h-104v104h104zM309 884v-104h-104v104h104zM183 332v-250h430v-82h-523v729h505v-82h-412v-233h397v-82h-397z" />
    <glyph glyph-name="Igrave" unicode="&#xcc;" horiz-adv-x="278" 
d="M113 925l96 -148h-60l-149 148h113zM194 729v-729h-94v729h94z" />
    <glyph glyph-name="Iacute" unicode="&#xcd;" horiz-adv-x="278" 
d="M167 925h113l-149 -148h-60zM194 729v-729h-94v729h94z" />
    <glyph glyph-name="Icircumflex" unicode="&#xce;" horiz-adv-x="278" 
d="M95 925h95l96 -150h-63l-81 96l-79 -96h-64zM194 729v-729h-94v729h94z" />
    <glyph glyph-name="Idieresis" unicode="&#xcf;" horiz-adv-x="278" 
d="M292 882v-104h-104v104h104zM113 882v-104h-104v104h104zM194 729v-729h-94v729h94z" />
    <glyph glyph-name="Eth" unicode="&#xd0;" horiz-adv-x="722" 
d="M89 339h-69v67h69v323h282c92 0 164.333 -32.333 217 -97s79 -153.667 79 -267s-26.333 -202.5 -79 -267.5s-125 -97.5 -217 -97.5h-282v339zM182 339v-257.001h173c71.333 0 125.666 24 162.999 72s56 118.333 56 211s-18.667 162.834 -56 210.501
s-91.666 71.5 -162.999 71.5h-173v-241h171v-67h-171z" />
    <glyph glyph-name="Ntilde" unicode="&#xd1;" horiz-adv-x="722" 
d="M290 870c16.667 0 39.666 -6.16699 68.999 -18.5s50.666 -18.5 63.999 -18.5c16.667 0 29 12.333 37 37h58c-10 -69.333 -39.667 -104 -89 -104c-13.333 0 -36.666 6.33301 -69.999 19s-54.666 19 -63.999 19c-15.333 0 -26.333 -12.333 -33 -37h-58
c5.33301 32.667 15.5 58 30.5 76s33.5 27 55.5 27zM645.999 729v-729h-105l-377 591v-591h-88v729h101l381 -596v596h88z" />
    <glyph glyph-name="Ograve" unicode="&#xd2;" horiz-adv-x="778" 
d="M359 922l96 -148h-60l-149 148h113zM742 353c0 -108 -32.001 -197.667 -96.001 -269s-149.333 -107 -256 -107c-105.333 0 -190.333 35.167 -255 105.5s-97 162.5 -97 276.5s32.333 206.167 97 276.5s149.334 105.5 254.001 105.5c106.667 0 192.167 -35.333 256.5 -106
s96.5 -164.667 96.5 -282zM388.999 659c-77.333 0 -139.667 -27.5 -187 -82.5s-71 -127.5 -71 -217.5s23.833 -162.5 71.5 -217.5s110.167 -82.5 187.5 -82.5s139.833 27.333 187.5 82s71.5 126 71.5 214c0 92 -23.667 165.667 -71 221s-110.333 83 -189 83z" />
    <glyph glyph-name="Oacute" unicode="&#xd3;" horiz-adv-x="778" 
d="M417 923h113l-149 -148h-60zM742 353c0 -108 -32.001 -197.667 -96.001 -269s-149.333 -107 -256 -107c-105.333 0 -190.333 35.167 -255 105.5s-97 162.5 -97 276.5s32.333 206.167 97 276.5s149.334 105.5 254.001 105.5c106.667 0 192.167 -35.333 256.5 -106
s96.5 -164.667 96.5 -282zM388.999 659c-77.333 0 -139.667 -27.5 -187 -82.5s-71 -127.5 -71 -217.5s23.833 -162.5 71.5 -217.5s110.167 -82.5 187.5 -82.5s139.833 27.333 187.5 82s71.5 126 71.5 214c0 92 -23.667 165.667 -71 221s-110.333 83 -189 83z" />
    <glyph glyph-name="Ocircumflex" unicode="&#xd4;" horiz-adv-x="778" 
d="M343 928h95l96 -150h-63l-81 96l-79 -96h-64zM742 353c0 -108 -32.001 -197.667 -96.001 -269s-149.333 -107 -256 -107c-105.333 0 -190.333 35.167 -255 105.5s-97 162.5 -97 276.5s32.333 206.167 97 276.5s149.334 105.5 254.001 105.5
c106.667 0 192.167 -35.333 256.5 -106s96.5 -164.667 96.5 -282zM388.999 659c-77.333 0 -139.667 -27.5 -187 -82.5s-71 -127.5 -71 -217.5s23.833 -162.5 71.5 -217.5s110.167 -82.5 187.5 -82.5s139.833 27.333 187.5 82s71.5 126 71.5 214
c0 92 -23.667 165.667 -71 221s-110.333 83 -189 83z" />
    <glyph glyph-name="Otilde" unicode="&#xd5;" horiz-adv-x="778" 
d="M318 882c16.667 0 39.666 -6.16699 68.999 -18.5s50.666 -18.5 63.999 -18.5c16.667 0 29 12.333 37 37h58c-10 -69.333 -39.667 -104 -89 -104c-13.333 0 -36.666 6.33301 -69.999 19s-54.666 19 -63.999 19c-15.333 0 -26.333 -12.333 -33 -37h-58
c5.33301 32.667 15.5 58 30.5 76s33.5 27 55.5 27zM741.999 353c0 -108 -32.001 -197.667 -96.001 -269s-149.333 -107 -256 -107c-105.333 0 -190.333 35.167 -255 105.5s-97 162.5 -97 276.5s32.333 206.167 97 276.5s149.334 105.5 254.001 105.5
c106.667 0 192.167 -35.333 256.5 -106s96.5 -164.667 96.5 -282zM388.998 659c-77.333 0 -139.667 -27.5 -187 -82.5s-71 -127.5 -71 -217.5s23.833 -162.5 71.5 -217.5s110.167 -82.5 187.5 -82.5s139.833 27.333 187.5 82s71.5 126 71.5 214
c0 92 -23.667 165.667 -71 221s-110.333 83 -189 83z" />
    <glyph glyph-name="Odieresis" unicode="&#xd6;" horiz-adv-x="778" 
d="M534 884v-104h-104v104h104zM355 884v-104h-104v104h104zM742 353c0 -108 -32.001 -197.667 -96.001 -269s-149.333 -107 -256 -107c-105.333 0 -190.333 35.167 -255 105.5s-97 162.5 -97 276.5s32.333 206.167 97 276.5s149.334 105.5 254.001 105.5
c106.667 0 192.167 -35.333 256.5 -106s96.5 -164.667 96.5 -282zM388.999 659c-77.333 0 -139.667 -27.5 -187 -82.5s-71 -127.5 -71 -217.5s23.833 -162.5 71.5 -217.5s110.167 -82.5 187.5 -82.5s139.833 27.333 187.5 82s71.5 126 71.5 214
c0 92 -23.667 165.667 -71 221s-110.333 83 -189 83z" />
    <glyph glyph-name="multiply" unicode="&#xd7;" horiz-adv-x="584" 
d="M438 427l49 -50l-146 -146l147 -147l-50 -50l-147 147l-146 -146l-50 49l147 147l-146 146l49 49l146 -145z" />
    <glyph glyph-name="Oslash" unicode="&#xd8;" horiz-adv-x="778" 
d="M30 19l81 89c-50.667 70.667 -76 154.667 -76 252c0 113.333 32.5 205.166 97.5 275.499s149.833 105.5 254.5 105.5c91.333 0 168 -27 230 -81l87 95l40 -36l-89 -97c56 -70.667 84 -158.667 84 -264c0 -113.333 -32.5 -205.166 -97.5 -275.499
s-149.833 -105.5 -254.5 -105.5c-96 0 -176.333 30 -241 90l-77 -84zM174 176l384 418.999c-48.667 42.667 -105.667 64 -171 64c-77.333 0 -139.833 -27.5 -187.5 -82.5s-71.5 -127.167 -71.5 -216.5c0 -69.333 15.333 -130.666 46 -183.999zM593 553.999l-386.999 -421
c49.333 -49.333 109.666 -74 180.999 -74c77.333 0 139.833 27.5 187.5 82.5s71.5 127.167 71.5 216.5c0 76 -17.667 141.333 -53 196z" />
    <glyph glyph-name="Ugrave" unicode="&#xd9;" horiz-adv-x="722" 
d="M334 924l96 -148h-60l-149 148h113zM552 729l93 -0.000976562v-512c0 -73.333 -25.5 -131.666 -76.5 -174.999s-119.167 -65 -204.5 -65c-86.667 0 -154.834 21.5 -204.501 64.5s-74.5 101.5 -74.5 175.5v512h93v-512c0 -52.667 16.833 -92.167 50.5 -118.5
s78.834 -39.5 135.501 -39.5c58.667 0 104.667 14 138 42s50 66.667 50 116v512z" />
    <glyph glyph-name="Uacute" unicode="&#xda;" horiz-adv-x="722" 
d="M387 924h113l-149 -148h-60zM552 729l93 -0.000976562v-512c0 -73.333 -25.5 -131.666 -76.5 -174.999s-119.167 -65 -204.5 -65c-86.667 0 -154.834 21.5 -204.501 64.5s-74.5 101.5 -74.5 175.5v512h93v-512c0 -52.667 16.833 -92.167 50.5 -118.5
s78.834 -39.5 135.501 -39.5c58.667 0 104.667 14 138 42s50 66.667 50 116v512z" />
    <glyph glyph-name="Ucircumflex" unicode="&#xdb;" horiz-adv-x="722" 
d="M318 925h95l96 -150h-63l-81 96l-79 -96h-64zM552 729l93 -0.000976562v-512c0 -73.333 -25.5 -131.666 -76.5 -174.999s-119.167 -65 -204.5 -65c-86.667 0 -154.834 21.5 -204.501 64.5s-74.5 101.5 -74.5 175.5v512h93v-512c0 -52.667 16.833 -92.167 50.5 -118.5
s78.834 -39.5 135.501 -39.5c58.667 0 104.667 14 138 42s50 66.667 50 116v512z" />
    <glyph glyph-name="Udieresis" unicode="&#xdc;" horiz-adv-x="722" 
d="M552 729l93 -0.000976562v-512c0 -73.333 -25.5 -131.666 -76.5 -174.999s-119.167 -65 -204.5 -65c-86.667 0 -154.834 21.5 -204.501 64.5s-74.5 101.5 -74.5 175.5v512h93v-512c0 -52.667 16.833 -92.167 50.5 -118.5s78.834 -39.5 135.501 -39.5
c58.667 0 104.667 14 138 42s50 66.667 50 116v512zM510 880.999v-104h-104v104h104zM331 880.999v-104h-104v104h104z" />
    <glyph glyph-name="Yacute" unicode="&#xdd;" horiz-adv-x="667" 
d="M365 923h113l-149 -148h-60zM387 286v-286h-93v286l-281 443h115l214 -355l208 355h111z" />
    <glyph glyph-name="Thorn" unicode="&#xde;" horiz-adv-x="666" 
d="M184 189v-189h-93v729h93v-120h208c69.333 0 124 -18.833 164 -56.5s60 -89.5 60 -155.5c0 -60.667 -19 -110.5 -57 -149.5s-86.667 -58.5 -146 -58.5h-229zM184 271h194c43.333 0 77.166 11.333 101.499 34s36.5 54 36.5 94s-12.167 71.333 -36.5 94
s-58.166 34 -101.499 34h-194v-256z" />
    <glyph glyph-name="germandbls" unicode="&#xdf;" horiz-adv-x="611" 
d="M294 427c103.333 0 155 37.6699 155 113.003c0 34 -13.167 61.167 -39.5 81.5s-63.833 30.5 -112.5 30.5c-53.333 0 -90.333 -12 -111 -36s-31 -59.333 -31 -106v-510h-88v532c0 59.333 20.167 106.833 60.5 142.5s97.166 53.5 170.499 53.5s131.5 -16.333 174.5 -49
s64.5 -76.334 64.5 -131.001c0 -22.667 -2.83301 -43 -8.5 -61s-14 -33 -25 -45s-19.333 -20.333 -25 -25s-13.5 -10.334 -23.5 -17.001c34.667 -9.33301 62.667 -31 84 -65s32 -67.667 32 -101c0 -84.667 -23 -147.334 -69 -188.001s-107 -61 -183 -61
c-13.333 0 -31 2.33301 -53 7v75c14.667 -2 29.334 -3 44.001 -3c113.333 0 170 50 170 150c0 93.333 -56.667 140 -170 140h-16v73z" />
    <glyph glyph-name="agrave" unicode="&#xe0;" horiz-adv-x="556" 
d="M250 728l96 -148h-60l-149 148h113zM65 369c4 113.333 73.999 170.002 209.999 170.002c64.667 0 113.667 -12.167 147 -36.5s50 -59.833 50 -106.5v-308c0 -27.333 15 -41 45 -41c6 0 12 0.666992 18 2v-63c-23.333 -6 -42.333 -9 -57 -9
c-26.667 0 -46.834 6.16699 -60.501 18.5s-22.167 31.833 -25.5 58.5c-56 -51.333 -115.333 -77 -178 -77c-52.667 0 -94.5 14 -125.5 42s-46.5 65.667 -46.5 113c0 15.333 1.5 29.333 4.5 42s6.33301 23.834 10 33.501s10.167 18.667 19.5 27l23.5 20.5
c6.33301 5.33301 17 10.5 32 15.5s26.5 8.66699 34.5 11s22 5.16602 42 8.49902s34.667 5.66602 44 6.99902l50 7c32.667 4 55.334 10.333 68.001 19s19 21.667 19 39v22c0 25.333 -10.167 44.666 -30.5 57.999s-49.166 20 -86.499 20c-38.667 0 -68 -7.5 -88 -22.5
s-31.667 -38.5 -35 -70.5h-84zM231.999 50.002c46 0 83.668 12.168 113.001 36.501s44 50.5 44 78.5v94c-16.667 -8 -41.834 -14.667 -75.501 -20l-87.5 -14c-24.667 -4 -47 -13.5 -67 -28.5s-30 -35.833 -30 -62.5s9 -47.334 27 -62.001s43.333 -22 76 -22z" />
    <glyph glyph-name="aacute" unicode="&#xe1;" horiz-adv-x="556" 
d="M303 728h113l-149 -148h-60zM65 369c4 113.333 73.999 170.002 209.999 170.002c64.667 0 113.667 -12.167 147 -36.5s50 -59.833 50 -106.5v-308c0 -27.333 15 -41 45 -41c6 0 12 0.666992 18 2v-63c-23.333 -6 -42.333 -9 -57 -9
c-26.667 0 -46.834 6.16699 -60.501 18.5s-22.167 31.833 -25.5 58.5c-56 -51.333 -115.333 -77 -178 -77c-52.667 0 -94.5 14 -125.5 42s-46.5 65.667 -46.5 113c0 15.333 1.5 29.333 4.5 42s6.33301 23.834 10 33.501s10.167 18.667 19.5 27l23.5 20.5
c6.33301 5.33301 17 10.5 32 15.5s26.5 8.66699 34.5 11s22 5.16602 42 8.49902s34.667 5.66602 44 6.99902l50 7c32.667 4 55.334 10.333 68.001 19s19 21.667 19 39v22c0 25.333 -10.167 44.666 -30.5 57.999s-49.166 20 -86.499 20c-38.667 0 -68 -7.5 -88 -22.5
s-31.667 -38.5 -35 -70.5h-84zM231.999 50.002c46 0 83.668 12.168 113.001 36.501s44 50.5 44 78.5v94c-16.667 -8 -41.834 -14.667 -75.501 -20l-87.5 -14c-24.667 -4 -47 -13.5 -67 -28.5s-30 -35.833 -30 -62.5s9 -47.334 27 -62.001s43.333 -22 76 -22z" />
    <glyph glyph-name="acircumflex" unicode="&#xe2;" horiz-adv-x="556" 
d="M228 727h95l96 -150h-63l-81 96l-79 -96h-64zM65 369c4 113.333 73.999 170.002 209.999 170.002c64.667 0 113.667 -12.167 147 -36.5s50 -59.833 50 -106.5v-308c0 -27.333 15 -41 45 -41c6 0 12 0.666992 18 2v-63c-23.333 -6 -42.333 -9 -57 -9
c-26.667 0 -46.834 6.16699 -60.501 18.5s-22.167 31.833 -25.5 58.5c-56 -51.333 -115.333 -77 -178 -77c-52.667 0 -94.5 14 -125.5 42s-46.5 65.667 -46.5 113c0 15.333 1.5 29.333 4.5 42s6.33301 23.834 10 33.501s10.167 18.667 19.5 27l23.5 20.5
c6.33301 5.33301 17 10.5 32 15.5s26.5 8.66699 34.5 11s22 5.16602 42 8.49902s34.667 5.66602 44 6.99902l50 7c32.667 4 55.334 10.333 68.001 19s19 21.667 19 39v22c0 25.333 -10.167 44.666 -30.5 57.999s-49.166 20 -86.499 20c-38.667 0 -68 -7.5 -88 -22.5
s-31.667 -38.5 -35 -70.5h-84zM231.999 50.002c46 0 83.668 12.168 113.001 36.501s44 50.5 44 78.5v94c-16.667 -8 -41.834 -14.667 -75.501 -20l-87.5 -14c-24.667 -4 -47 -13.5 -67 -28.5s-30 -35.833 -30 -62.5s9 -47.334 27 -62.001s43.333 -22 76 -22z" />
    <glyph glyph-name="atilde" unicode="&#xe3;" horiz-adv-x="556" 
d="M204 709c16.667 0 39.666 -6.16699 68.999 -18.5s50.666 -18.5 63.999 -18.5c16.667 0 29 12.333 37 37h58c-10 -69.333 -39.667 -104 -89 -104c-13.333 0 -36.666 6.33301 -69.999 19s-54.666 19 -63.999 19c-15.333 0 -26.333 -12.333 -33 -37h-58
c5.33301 32.667 15.5 58 30.5 76s33.5 27 55.5 27zM64.999 369c4 113.333 73.999 170.002 209.999 170.002c64.667 0 113.667 -12.167 147 -36.5s50 -59.833 50 -106.5v-308c0 -27.333 15 -41 45 -41c6 0 12 0.666992 18 2v-63c-23.333 -6 -42.333 -9 -57 -9
c-26.667 0 -46.834 6.16699 -60.501 18.5s-22.167 31.833 -25.5 58.5c-56 -51.333 -115.333 -77 -178 -77c-52.667 0 -94.5 14 -125.5 42s-46.5 65.667 -46.5 113c0 15.333 1.5 29.333 4.5 42s6.33301 23.834 10 33.501s10.167 18.667 19.5 27l23.5 20.5
c6.33301 5.33301 17 10.5 32 15.5s26.5 8.66699 34.5 11s22 5.16602 42 8.49902s34.667 5.66602 44 6.99902l50 7c32.667 4 55.334 10.333 68.001 19s19 21.667 19 39v22c0 25.333 -10.167 44.666 -30.5 57.999s-49.166 20 -86.499 20c-38.667 0 -68 -7.5 -88 -22.5
s-31.667 -38.5 -35 -70.5h-84zM231.998 50.002c46 0 83.668 12.168 113.001 36.501s44 50.5 44 78.5v94c-16.667 -8 -41.834 -14.667 -75.501 -20l-87.5 -14c-24.667 -4 -47 -13.5 -67 -28.5s-30 -35.833 -30 -62.5s9 -47.334 27 -62.001s43.333 -22 76 -22z" />
    <glyph glyph-name="adieresis" unicode="&#xe4;" horiz-adv-x="556" 
d="M420 727v-104h-104v104h104zM241 727v-104h-104v104h104zM65 369c4 113.333 73.999 170.002 209.999 170.002c64.667 0 113.667 -12.167 147 -36.5s50 -59.833 50 -106.5v-308c0 -27.333 15 -41 45 -41c6 0 12 0.666992 18 2v-63c-23.333 -6 -42.333 -9 -57 -9
c-26.667 0 -46.834 6.16699 -60.501 18.5s-22.167 31.833 -25.5 58.5c-56 -51.333 -115.333 -77 -178 -77c-52.667 0 -94.5 14 -125.5 42s-46.5 65.667 -46.5 113c0 15.333 1.5 29.333 4.5 42s6.33301 23.834 10 33.501s10.167 18.667 19.5 27l23.5 20.5
c6.33301 5.33301 17 10.5 32 15.5s26.5 8.66699 34.5 11s22 5.16602 42 8.49902s34.667 5.66602 44 6.99902l50 7c32.667 4 55.334 10.333 68.001 19s19 21.667 19 39v22c0 25.333 -10.167 44.666 -30.5 57.999s-49.166 20 -86.499 20c-38.667 0 -68 -7.5 -88 -22.5
s-31.667 -38.5 -35 -70.5h-84zM231.999 50.002c46 0 83.668 12.168 113.001 36.501s44 50.5 44 78.5v94c-16.667 -8 -41.834 -14.667 -75.501 -20l-87.5 -14c-24.667 -4 -47 -13.5 -67 -28.5s-30 -35.833 -30 -62.5s9 -47.334 27 -62.001s43.333 -22 76 -22z" />
    <glyph glyph-name="aring" unicode="&#xe5;" horiz-adv-x="556" 
d="M275 772c29.333 0 54.333 -10.334 75 -31.001s31 -45.667 31 -75c0 -28.667 -10.5 -53.167 -31.5 -73.5s-45.833 -30.5 -74.5 -30.5s-53.5 10.333 -74.5 31s-31.5 45.334 -31.5 74.001c0 28 10.5 52.5 31.5 73.5s45.833 31.5 74.5 31.5zM275 709.999
c-12 0 -22.333 -4.33301 -31 -13s-13 -18.667 -13 -30c0 -12 4.33301 -22.333 13 -31s19 -13 31 -13s22.333 4.33301 31 13s13 18.667 13 30c0 12.667 -4.16699 23.167 -12.5 31.5s-18.833 12.5 -31.5 12.5zM65 368.999c4 113.333 73.999 170.002 209.999 170.002
c64.667 0 113.667 -12.167 147 -36.5s50 -59.833 50 -106.5v-308c0 -27.333 15 -41 45 -41c6 0 12 0.666992 18 2v-63c-23.333 -6 -42.333 -9 -57 -9c-26.667 0 -46.834 6.16699 -60.501 18.5s-22.167 31.833 -25.5 58.5c-56 -51.333 -115.333 -77 -178 -77
c-52.667 0 -94.5 14 -125.5 42s-46.5 65.667 -46.5 113c0 15.333 1.5 29.333 4.5 42s6.33301 23.834 10 33.501s10.167 18.667 19.5 27l23.5 20.5c6.33301 5.33301 17 10.5 32 15.5s26.5 8.66699 34.5 11s22 5.16602 42 8.49902s34.667 5.66602 44 6.99902l50 7
c32.667 4 55.334 10.333 68.001 19s19 21.667 19 39v22c0 25.333 -10.167 44.666 -30.5 57.999s-49.166 20 -86.499 20c-38.667 0 -68 -7.5 -88 -22.5s-31.667 -38.5 -35 -70.5h-84zM231.999 50.001c46 0 83.668 12.168 113.001 36.501s44 50.5 44 78.5v94
c-16.667 -8 -41.834 -14.667 -75.501 -20l-87.5 -14c-24.667 -4 -47 -13.5 -67 -28.5s-30 -35.833 -30 -62.5s9 -47.334 27 -62.001s43.333 -22 76 -22z" />
    <glyph glyph-name="ae" unicode="&#xe6;" horiz-adv-x="896" 
d="M467 234c0.666992 -34.667 6.00391 -64.5 16.0039 -89.5s23 -43.667 39 -56s32.167 -21.166 48.5 -26.499s33.166 -8 50.499 -8c67.333 0 113.333 35 138 105h84c-10.667 -56.667 -35.667 -101.167 -75 -133.5s-88.666 -48.5 -147.999 -48.5
c-90.667 0 -154.667 35.667 -192 107c-1.33301 1.33301 -2 2.33301 -2 3c-37.333 -38.667 -72.833 -66.667 -106.5 -84s-70.167 -26 -109.5 -26c-50.667 0 -91.334 14 -122.001 42s-46 65.667 -46 113c0 25.333 4.33301 47.5 13 66.5s20 34.5 34 46.5s32.667 22 56 30
s46.833 14 70.5 18s52.5 7.33301 86.5 10s57 8.33398 69 17.001s18 22.667 18 42v22c0 52 -39.333 78 -118 78c-74.667 0 -115.334 -31 -122.001 -93h-84c4 113.333 73.333 170 208 170c85.333 0 143.666 -27.333 174.999 -82c18 25.333 42.333 45.333 73 60s64 22 100 22
c48.667 0 91.667 -12.333 129 -37s64.666 -58.334 81.999 -101.001c14 -36.667 21 -92.334 21 -167.001h-386zM229.004 50c46.667 0 85.001 13.502 115.001 40.502s45 49.167 45 66.5v101c-20 -8.66699 -47.167 -15.834 -81.5 -21.501s-63.333 -10.167 -87 -13.5
s-44.834 -12.333 -63.501 -27s-28 -35.334 -28 -62.001c0 -26 9 -46.5 27 -61.5s42.333 -22.5 73 -22.5zM469.005 302.002h294c0 47.333 -13.333 85.833 -40 115.5s-61.334 44.5 -104.001 44.5c-42 0 -76.667 -14.5 -104 -43.5s-42.666 -67.833 -45.999 -116.5z" />
    <glyph glyph-name="ccedilla" unicode="&#xe7;" horiz-adv-x="500" 
d="M225 -21c-35.333 6.66699 -66 19.3311 -92 37.998s-45.333 38.167 -58 58.5s-22.5 43.833 -29.5 70.5s-11.167 47.334 -12.5 62.001s-2 29.667 -2 45c0 86.667 21.167 156 63.5 208s98.833 78 169.5 78c60.667 0 109.167 -16.333 145.5 -49s56.833 -80 61.5 -142h-84
c-5.33301 36.667 -18.666 64.834 -39.999 84.501s-49.333 29.5 -84 29.5c-45.333 0 -80.833 -18.5 -106.5 -55.5s-38.5 -88.5 -38.5 -154.5c0 -62 13 -110.667 39 -146s62 -53 108 -53c71.333 0 114 42.333 128 127h84c-3.33301 -62.667 -24.333 -112.167 -63 -148.5
s-88.667 -54.5 -150 -54.5l-13 -33c9.33301 1.33301 18.666 2 27.999 2c24.667 0 44 -5.83301 58 -17.5s21 -28.167 21 -49.5c0 -28.667 -11 -51.334 -33 -68.001s-52 -25 -90 -25c-31.333 0 -73 11 -125 33l21 41c4.66699 -2 12.167 -5.5 22.5 -10.5l24 -11.5
c5.66699 -2.66699 13.334 -5.16699 23.001 -7.5s19.167 -3.5 28.5 -3.5c15.333 0 28.166 4.33301 38.499 13s15.5 19.334 15.5 32.001c0 24.667 -15.333 37 -46 37c-10 0 -20.333 -2.66699 -31 -8l-12 7z" />
    <glyph glyph-name="egrave" unicode="&#xe8;" horiz-adv-x="556" 
d="M253 730l96 -148h-60l-149 148h113zM513 234l-386.002 0.00195312c0.666992 -48 10 -85.333 28 -112c28.667 -45.333 70.667 -68 126 -68c68 0 113.667 35 137 105h84c-10.667 -57.333 -35.667 -102 -75 -134s-89 -48 -149 -48c-73.333 0 -131.333 24.833 -174 74.5
s-64 117.5 -64 203.5s21.833 154.833 65.5 206.5s101.834 77.5 174.501 77.5c49.333 0 92.833 -12.333 130.5 -37s64.834 -58.334 81.501 -101.001c14 -36.667 21 -92.334 21 -167.001zM128.998 302.002h293.999c0.666992 1.33301 1 3.33301 1 6
c0 43.333 -14 79.833 -42 109.5s-62.333 44.5 -103 44.5c-42 0 -76.667 -14.5 -104 -43.5s-42.666 -67.833 -45.999 -116.5z" />
    <glyph glyph-name="eacute" unicode="&#xe9;" horiz-adv-x="556" 
d="M308 730h113l-149 -148h-60zM513 234l-386.002 0.00195312c0.666992 -48 10 -85.333 28 -112c28.667 -45.333 70.667 -68 126 -68c68 0 113.667 35 137 105h84c-10.667 -57.333 -35.667 -102 -75 -134s-89 -48 -149 -48c-73.333 0 -131.333 24.833 -174 74.5
s-64 117.5 -64 203.5s21.833 154.833 65.5 206.5s101.834 77.5 174.501 77.5c49.333 0 92.833 -12.333 130.5 -37s64.834 -58.334 81.501 -101.001c14 -36.667 21 -92.334 21 -167.001zM128.998 302.002h293.999c0.666992 1.33301 1 3.33301 1 6
c0 43.333 -14 79.833 -42 109.5s-62.333 44.5 -103 44.5c-42 0 -76.667 -14.5 -104 -43.5s-42.666 -67.833 -45.999 -116.5z" />
    <glyph glyph-name="ecircumflex" unicode="&#xea;" horiz-adv-x="556" 
d="M239 727h95l96 -150h-63l-81 96l-79 -96h-64zM513 234l-386.002 0.00195312c0.666992 -48 10 -85.333 28 -112c28.667 -45.333 70.667 -68 126 -68c68 0 113.667 35 137 105h84c-10.667 -57.333 -35.667 -102 -75 -134s-89 -48 -149 -48
c-73.333 0 -131.333 24.833 -174 74.5s-64 117.5 -64 203.5s21.833 154.833 65.5 206.5s101.834 77.5 174.501 77.5c49.333 0 92.833 -12.333 130.5 -37s64.834 -58.334 81.501 -101.001c14 -36.667 21 -92.334 21 -167.001zM128.998 302.002h293.999
c0.666992 1.33301 1 3.33301 1 6c0 43.333 -14 79.833 -42 109.5s-62.333 44.5 -103 44.5c-42 0 -76.667 -14.5 -104 -43.5s-42.666 -67.833 -45.999 -116.5z" />
    <glyph glyph-name="edieresis" unicode="&#xeb;" horiz-adv-x="556" 
d="M425 727v-104h-104v104h104zM246 727v-104h-104v104h104zM513 234l-386.002 0.00195312c0.666992 -48 10 -85.333 28 -112c28.667 -45.333 70.667 -68 126 -68c68 0 113.667 35 137 105h84c-10.667 -57.333 -35.667 -102 -75 -134s-89 -48 -149 -48
c-73.333 0 -131.333 24.833 -174 74.5s-64 117.5 -64 203.5s21.833 154.833 65.5 206.5s101.834 77.5 174.501 77.5c49.333 0 92.833 -12.333 130.5 -37s64.834 -58.334 81.501 -101.001c14 -36.667 21 -92.334 21 -167.001zM128.998 302.002h293.999
c0.666992 1.33301 1 3.33301 1 6c0 43.333 -14 79.833 -42 109.5s-62.333 44.5 -103 44.5c-42 0 -76.667 -14.5 -104 -43.5s-42.666 -67.833 -45.999 -116.5z" />
    <glyph glyph-name="igrave" unicode="&#xec;" horiz-adv-x="251" 
d="M113 730l96 -148h-60l-149 148h113zM167 524v-524h-83v524h83z" />
    <glyph glyph-name="iacute" unicode="&#xed;" horiz-adv-x="251" 
d="M137 730h113l-149 -148h-60zM167 524v-524h-83v524h83z" />
    <glyph glyph-name="icircumflex" unicode="&#xee;" horiz-adv-x="251" 
d="M89 729h95l96 -150h-63l-81 96l-79 -96h-64zM167 524v-524h-83v524h83z" />
    <glyph glyph-name="idieresis" unicode="&#xef;" horiz-adv-x="251" 
d="M267 728v-104h-104v104h104zM88 728v-104h-104v104h104zM167 524v-524h-83v524h83z" />
    <glyph glyph-name="eth" unicode="&#xf0;" horiz-adv-x="556" 
d="M36 258c0 42.667 4.83203 80.832 14.499 114.499s22 60.5 37 80.5s32.5 36.5 52.5 49.5s39.333 22 58 27s37.334 7.5 56.001 7.5c16 0 37 -4.33301 63 -13c-26 26.667 -58.667 56.334 -98 89.001l-97 -45l-36 39l85 40c-20 15.333 -47.333 32.666 -82 51.999l44 44
c24.667 -10.667 61.667 -31.667 111 -63l97 45l40 -37l-90 -41l51 -40.5c14 -11.667 32.667 -30.334 56 -56.001s42.166 -51.167 56.499 -76.5s27.166 -57.166 38.499 -95.499s17 -78.166 17 -119.499c0 -90 -20.667 -159.5 -62 -208.5s-99.666 -73.5 -174.999 -73.5
s-133.666 24.5 -174.999 73.5s-62 118.167 -62 207.5zM272.999 461.998c-46.667 0 -83.335 -18.1689 -110.002 -54.502s-40 -86.166 -40 -149.499s13.333 -113.166 40 -149.499s63.334 -54.5 110.001 -54.5c46 0 82.5 18.167 109.5 54.5s40.5 85.166 40.5 146.499
c0 64.667 -13.167 115.334 -39.5 152.001s-63.166 55 -110.499 55z" />
    <glyph glyph-name="ntilde" unicode="&#xf1;" horiz-adv-x="556" 
d="M207 706c16.667 0 39.666 -6.16699 68.999 -18.5s50.666 -18.5 63.999 -18.5c16.667 0 29 12.333 37 37h58c-10 -69.333 -39.667 -104 -89 -104c-13.333 0 -36.666 6.33301 -69.999 19s-54.666 19 -63.999 19c-15.333 0 -26.333 -12.333 -33 -37h-58
c5.33301 32.667 15.5 58 30.5 76s33.5 27 55.5 27zM69.999 524l76.999 -0.000976562v-88c23.333 36.667 48.5 63 75.5 79s59.833 24 98.5 24c50.667 0 91 -13 121 -39s45 -60.667 45 -104v-396h-83v363c0 31.333 -9.66699 56.333 -29 75s-45.666 28 -78.999 28
c-42.667 0 -77 -16.167 -103 -48.5s-39 -75.166 -39 -128.499v-289h-84v524z" />
    <glyph glyph-name="ograve" unicode="&#xf2;" horiz-adv-x="556" 
d="M244 729l96 -148h-60l-149 148h113zM272 539c75.333 0 133.833 -24.832 175.5 -74.499s62.5 -119.834 62.5 -210.501c0 -86 -21.167 -153.667 -63.5 -203s-100.166 -74 -173.499 -74c-74.667 0 -132.834 24.833 -174.501 74.5s-62.5 118.5 -62.5 206.5
s21 156.833 63 206.5s99.667 74.5 173 74.5zM273 462.001c-46.667 0 -83.335 -18.1689 -110.002 -54.502s-40 -86.166 -40 -149.499s13.333 -113.166 40 -149.499s63.334 -54.5 110.001 -54.5c46 0 82.5 18.167 109.5 54.5s40.5 85.166 40.5 146.499
c0 64.667 -13.167 115.334 -39.5 152.001s-63.166 55 -110.499 55z" />
    <glyph glyph-name="oacute" unicode="&#xf3;" horiz-adv-x="556" 
d="M298 730h113l-149 -148h-60zM272 539c75.333 0 133.833 -24.832 175.5 -74.499s62.5 -119.834 62.5 -210.501c0 -86 -21.167 -153.667 -63.5 -203s-100.166 -74 -173.499 -74c-74.667 0 -132.834 24.833 -174.501 74.5s-62.5 118.5 -62.5 206.5s21 156.833 63 206.5
s99.667 74.5 173 74.5zM273 462.001c-46.667 0 -83.335 -18.1689 -110.002 -54.502s-40 -86.166 -40 -149.499s13.333 -113.166 40 -149.499s63.334 -54.5 110.001 -54.5c46 0 82.5 18.167 109.5 54.5s40.5 85.166 40.5 146.499c0 64.667 -13.167 115.334 -39.5 152.001
s-63.166 55 -110.499 55z" />
    <glyph glyph-name="ocircumflex" unicode="&#xf4;" horiz-adv-x="556" 
d="M226 730h95l96 -150h-63l-81 96l-79 -96h-64zM272 539c75.333 0 133.833 -24.832 175.5 -74.499s62.5 -119.834 62.5 -210.501c0 -86 -21.167 -153.667 -63.5 -203s-100.166 -74 -173.499 -74c-74.667 0 -132.834 24.833 -174.501 74.5s-62.5 118.5 -62.5 206.5
s21 156.833 63 206.5s99.667 74.5 173 74.5zM273 462.001c-46.667 0 -83.335 -18.1689 -110.002 -54.502s-40 -86.166 -40 -149.499s13.333 -113.166 40 -149.499s63.334 -54.5 110.001 -54.5c46 0 82.5 18.167 109.5 54.5s40.5 85.166 40.5 146.499
c0 64.667 -13.167 115.334 -39.5 152.001s-63.166 55 -110.499 55z" />
    <glyph glyph-name="otilde" unicode="&#xf5;" horiz-adv-x="556" 
d="M201 708c16.667 0 39.666 -6.16699 68.999 -18.5s50.666 -18.5 63.999 -18.5c16.667 0 29 12.333 37 37h58c-10 -69.333 -39.667 -104 -89 -104c-13.333 0 -36.666 6.33301 -69.999 19s-54.666 19 -63.999 19c-15.333 0 -26.333 -12.333 -33 -37h-58
c5.33301 32.667 15.5 58 30.5 76s33.5 27 55.5 27zM271.999 539c75.333 0 133.833 -24.832 175.5 -74.499s62.5 -119.834 62.5 -210.501c0 -86 -21.167 -153.667 -63.5 -203s-100.166 -74 -173.499 -74c-74.667 0 -132.834 24.833 -174.501 74.5s-62.5 118.5 -62.5 206.5
s21 156.833 63 206.5s99.667 74.5 173 74.5zM272.999 462.001c-46.667 0 -83.335 -18.1689 -110.002 -54.502s-40 -86.166 -40 -149.499s13.333 -113.166 40 -149.499s63.334 -54.5 110.001 -54.5c46 0 82.5 18.167 109.5 54.5s40.5 85.166 40.5 146.499
c0 64.667 -13.167 115.334 -39.5 152.001s-63.166 55 -110.499 55z" />
    <glyph glyph-name="odieresis" unicode="&#xf6;" horiz-adv-x="556" 
d="M417 729v-104h-104v104h104zM238 729v-104h-104v104h104zM272 539c75.333 0 133.833 -24.832 175.5 -74.499s62.5 -119.834 62.5 -210.501c0 -86 -21.167 -153.667 -63.5 -203s-100.166 -74 -173.499 -74c-74.667 0 -132.834 24.833 -174.501 74.5
s-62.5 118.5 -62.5 206.5s21 156.833 63 206.5s99.667 74.5 173 74.5zM273 462.001c-46.667 0 -83.335 -18.1689 -110.002 -54.502s-40 -86.166 -40 -149.499s13.333 -113.166 40 -149.499s63.334 -54.5 110.001 -54.5c46 0 82.5 18.167 109.5 54.5
s40.5 85.166 40.5 146.499c0 64.667 -13.167 115.334 -39.5 152.001s-63.166 55 -110.499 55z" />
    <glyph glyph-name="divide" unicode="&#xf7;" horiz-adv-x="584" 
d="M534 271v-70h-484v70h484zM344 104v-104h-104v104h104zM344 472v-104h-104v104h104z" />
    <glyph glyph-name="oslash" unicode="&#xf8;" horiz-adv-x="611" 
d="M529 511l-62.999 -70.999c29.333 -48.667 44 -109.334 44 -182.001c0 -88 -20.833 -156.833 -62.5 -206.5s-99.5 -74.5 -173.5 -74.5c-68.667 0 -123 20.667 -163 62l-61 -69l-32 28l66 74c-32 47.333 -48 109.333 -48 186c0 88 21 156.833 63 206.5s100 74.5 174 74.5
c67.333 0 122.666 -21.667 165.999 -65l58 65zM405.001 371.001l-238.001 -268.999c28.667 -32 64 -48 106 -48c46.667 0 83.334 18.167 110.001 54.5s40 86.166 40 149.499c0 44 -6 81.667 -18 113zM144 141.002l239.001 268.999c-27.333 34.667 -64 52 -110 52
c-46.667 0 -83.334 -18.167 -110.001 -54.5s-40 -86.166 -40 -149.499c0 -45.333 7 -84.333 21 -117z" />
    <glyph glyph-name="ugrave" unicode="&#xf9;" horiz-adv-x="556" 
d="M243 729l96 -148h-60l-149 148h113zM482 0l-74.9971 0.00195312v73c-24.667 -34.667 -50.334 -59.334 -77.001 -74.001s-59.334 -22 -98.001 -22c-50.667 0 -91.167 13 -121.5 39s-45.5 60.667 -45.5 104v404h83v-371c0 -31.333 9.66699 -56.333 29 -75
s45.666 -28 78.999 -28c43.333 0 78 16.167 104 48.5s39 75.166 39 128.499v297h83v-524z" />
    <glyph glyph-name="uacute" unicode="&#xfa;" horiz-adv-x="556" 
d="M296 729h113l-149 -148h-60zM482 0l-74.9971 0.00195312v73c-24.667 -34.667 -50.334 -59.334 -77.001 -74.001s-59.334 -22 -98.001 -22c-50.667 0 -91.167 13 -121.5 39s-45.5 60.667 -45.5 104v404h83v-371c0 -31.333 9.66699 -56.333 29 -75s45.666 -28 78.999 -28
c43.333 0 78 16.167 104 48.5s39 75.166 39 128.499v297h83v-524z" />
    <glyph glyph-name="ucircumflex" unicode="&#xfb;" horiz-adv-x="556" 
d="M227 729h95l96 -150h-63l-81 96l-79 -96h-64zM482 0l-74.9971 0.00195312v73c-24.667 -34.667 -50.334 -59.334 -77.001 -74.001s-59.334 -22 -98.001 -22c-50.667 0 -91.167 13 -121.5 39s-45.5 60.667 -45.5 104v404h83v-371c0 -31.333 9.66699 -56.333 29 -75
s45.666 -28 78.999 -28c43.333 0 78 16.167 104 48.5s39 75.166 39 128.499v297h83v-524z" />
    <glyph glyph-name="udieresis" unicode="&#xfc;" horiz-adv-x="556" 
d="M412 729v-104h-104v104h104zM233 729v-104h-104v104h104zM482 0l-74.9971 0.00195312v73c-24.667 -34.667 -50.334 -59.334 -77.001 -74.001s-59.334 -22 -98.001 -22c-50.667 0 -91.167 13 -121.5 39s-45.5 60.667 -45.5 104v404h83v-371
c0 -31.333 9.66699 -56.333 29 -75s45.666 -28 78.999 -28c43.333 0 78 16.167 104 48.5s39 75.166 39 128.499v297h83v-524z" />
    <glyph glyph-name="yacute" unicode="&#xfd;" horiz-adv-x="500" 
d="M269 729h113l-149 -148h-60zM388 524l90.001 -0.000976562l-233 -634c-27.333 -72 -72.333 -108 -135 -108c-20.667 0 -39.334 4.33301 -56.001 13v75c18 -4 32.667 -6 44 -6c17.333 0 31 3.83301 41 11.5s18.667 20.834 26 39.501l32 83l-177 526h89l134 -408z" />
    <glyph glyph-name="thorn" unicode="&#xfe;" horiz-adv-x="555" 
d="M54 -218l0.000976562 931.999h83v-255c37.333 53.333 91 80 161 80c68 0 122.333 -26 163 -78s61 -121.333 61 -208c0 -83.333 -20.5 -150.166 -61.5 -200.499s-95.167 -75.5 -162.5 -75.5c-64.667 0 -118.334 26 -161.001 78v-273h-83zM283.001 460.999
c-44 0 -79.333 -18.5 -106 -55.5s-40 -86.167 -40 -147.5s13.333 -110.5 40 -147.5s62 -55.5 106 -55.5c45.333 0 82 18.5 110 55.5s42 85.167 42 144.5c0 62.667 -13.833 112.667 -41.5 150s-64.5 56 -110.5 56z" />
    <glyph glyph-name="ydieresis" unicode="&#xff;" horiz-adv-x="500" 
d="M394 729v-104h-104v104h104zM215 729v-104h-104v104h104zM388 524l90.001 -0.000976562l-233 -634c-27.333 -72 -72.333 -108 -135 -108c-20.667 0 -39.334 4.33301 -56.001 13v75c18 -4 32.667 -6 44 -6c17.333 0 31 3.83301 41 11.5s18.667 20.834 26 39.501l32 83
l-177 526h89l134 -408z" />
    <glyph glyph-name="Amacron" unicode="&#x100;" horiz-adv-x="667" 
d="M474 870v-70h-274v70h274zM474 219h-281l-77 -219h-99l260 729h120l256 -729h-104zM448 297l-112 332l-120 -332h232z" />
    <glyph glyph-name="amacron" unicode="&#x101;" horiz-adv-x="556" 
d="M412 669v-70h-274v70h274zM65 369c4 113.333 73.999 170.002 209.999 170.002c64.667 0 113.667 -12.167 147 -36.5s50 -59.833 50 -106.5v-308c0 -27.333 15 -41 45 -41c6 0 12 0.666992 18 2v-63c-23.333 -6 -42.333 -9 -57 -9c-26.667 0 -46.834 6.16699 -60.501 18.5
s-22.167 31.833 -25.5 58.5c-56 -51.333 -115.333 -77 -178 -77c-52.667 0 -94.5 14 -125.5 42s-46.5 65.667 -46.5 113c0 15.333 1.5 29.333 4.5 42s6.33301 23.834 10 33.501s10.167 18.667 19.5 27l23.5 20.5c6.33301 5.33301 17 10.5 32 15.5s26.5 8.66699 34.5 11
s22 5.16602 42 8.49902s34.667 5.66602 44 6.99902l50 7c32.667 4 55.334 10.333 68.001 19s19 21.667 19 39v22c0 25.333 -10.167 44.666 -30.5 57.999s-49.166 20 -86.499 20c-38.667 0 -68 -7.5 -88 -22.5s-31.667 -38.5 -35 -70.5h-84zM231.999 50.002
c46 0 83.668 12.168 113.001 36.501s44 50.5 44 78.5v94c-16.667 -8 -41.834 -14.667 -75.501 -20l-87.5 -14c-24.667 -4 -47 -13.5 -67 -28.5s-30 -35.833 -30 -62.5s9 -47.334 27 -62.001s43.333 -22 76 -22z" />
    <glyph glyph-name="Abreve" unicode="&#x102;" horiz-adv-x="667" 
d="M187 909l59 0.00195312c5.33301 -44 36 -66 92 -66c26.667 0 48 5.66699 64 17s25 27.666 27 48.999h59c-7.33301 -90 -58 -135 -152 -135c-24 0 -46 3.16699 -66 9.5s-38.667 20.166 -56 41.499s-26.333 49.333 -27 84zM474 219.002h-281l-77 -219h-99l260 729h120
l256 -729h-104zM448 297.002l-112 332l-120 -332h232z" />
    <glyph glyph-name="abreve" unicode="&#x103;" horiz-adv-x="556" 
d="M125 727l59 0.00195312c5.33301 -44 36 -66 92 -66c26.667 0 48 5.66699 64 17s25 27.666 27 48.999h59c-7.33301 -90 -58 -135 -152 -135c-24 0 -46 3.16699 -66 9.5s-38.667 20.166 -56 41.499s-26.333 49.333 -27 84zM65 369.002
c4 113.333 73.999 170.002 209.999 170.002c64.667 0 113.667 -12.167 147 -36.5s50 -59.833 50 -106.5v-308c0 -27.333 15 -41 45 -41c6 0 12 0.666992 18 2v-63c-23.333 -6 -42.333 -9 -57 -9c-26.667 0 -46.834 6.16699 -60.501 18.5s-22.167 31.833 -25.5 58.5
c-56 -51.333 -115.333 -77 -178 -77c-52.667 0 -94.5 14 -125.5 42s-46.5 65.667 -46.5 113c0 15.333 1.5 29.333 4.5 42s6.33301 23.834 10 33.501s10.167 18.667 19.5 27l23.5 20.5c6.33301 5.33301 17 10.5 32 15.5s26.5 8.66699 34.5 11s22 5.16602 42 8.49902
s34.667 5.66602 44 6.99902l50 7c32.667 4 55.334 10.333 68.001 19s19 21.667 19 39v22c0 25.333 -10.167 44.666 -30.5 57.999s-49.166 20 -86.499 20c-38.667 0 -68 -7.5 -88 -22.5s-31.667 -38.5 -35 -70.5h-84zM231.999 50.0039c46 0 83.668 12.168 113.001 36.501
s44 50.5 44 78.5v94c-16.667 -8 -41.834 -14.667 -75.501 -20l-87.5 -14c-24.667 -4 -47 -13.5 -67 -28.5s-30 -35.833 -30 -62.5s9 -47.334 27 -62.001s43.333 -22 76 -22z" />
    <glyph glyph-name="Aogonek" unicode="&#x104;" horiz-adv-x="667" 
d="M616 -205c-37.333 0 -68.667 8.66992 -94 26.0029s-38 40 -38 68c0 24 8.5 45.667 25.5 65s40.833 34.666 71.5 45.999h-32l-75 219h-281l-77 -219h-99l260 729h120l256 -729h-2c-36.667 -20.667 -61.5 -38.334 -74.5 -53.001s-19.5 -32.334 -19.5 -53.001
c0 -36 24 -54 72 -54c24.667 0 45.667 3.33301 63 10v-45c-32 -6.66699 -57.333 -10 -76 -10zM447.999 297.003l-112 332l-120 -332h232z" />
    <glyph glyph-name="aogonek" unicode="&#x105;" horiz-adv-x="556" 
d="M67 369c4 113.333 73.6699 170.001 209.003 170.001c64.667 0 113.667 -12.167 147 -36.5s50 -59.833 50 -106.5v-308c0 -27.333 15 -41 45 -41c6 0 12 0.666992 18 2v-63c-50.667 -20 -76 -50.333 -76 -91c0 -36.667 24 -55 72 -55c25.333 0 46.666 3.33301 63.999 10
v-45c-28 -6.66699 -51.667 -10 -71 -10c-20 0 -39.667 2.66699 -59 8s-37.166 15.333 -53.499 30s-24.5 33 -24.5 55c0 19.333 5.16699 35.666 15.5 48.999s27.833 26.666 52.5 39.999c-38 6.66699 -59 32.334 -63 77.001c-54 -51.333 -113.333 -77 -178 -77
c-52.667 0 -94.5 14 -125.5 42s-46.5 65.667 -46.5 113c0 22.667 2.83301 42.5 8.5 59.5s14.667 31.167 27 42.5s25.166 20.833 38.499 28.5s30.666 14 51.999 19s40.833 9 58.5 12s40.167 6.16699 67.5 9.5c4 0.666992 7 1 9 1c32.667 4 55.167 10.167 67.5 18.5
s18.5 21.5 18.5 39.5v22c0 52 -39 78 -117 78c-38.667 0 -67.834 -7.5 -87.501 -22.5s-31.167 -38.5 -34.5 -70.5h-84zM232.003 50.001c46 0 83.668 12.168 113.001 36.501s44 50.5 44 78.5v94c-16.667 -8 -41.834 -14.667 -75.501 -20l-87.5 -14
c-24.667 -4 -47 -13.5 -67 -28.5s-30 -35.833 -30 -62.5s9 -47.334 27 -62.001s43.333 -22 76 -22z" />
    <glyph glyph-name="Cacute" unicode="&#x106;" horiz-adv-x="722" 
d="M405 925h113l-149 -148h-60zM48 356c0 33.333 2.83398 66.334 8.50098 99.001s16.5 66.667 32.5 102s35.833 66.166 59.5 92.499s55.667 48.166 96 65.499s85.833 26 136.5 26c158.667 0 252.334 -79.333 281.001 -238h-95c-10.667 52 -31.667 91 -63 117s-76 39 -134 39
c-70.667 0 -126.5 -27 -167.5 -81s-61.5 -127.667 -61.5 -221c0 -91.333 21.333 -163.833 64 -217.5s100.334 -80.5 173.001 -80.5c60 0 106 16.833 138 50.5s53.667 85.834 65 156.501h96c-22 -192.667 -122 -289 -300 -289c-50 0 -94.833 8.5 -134.5 25.5
s-71.334 38.5 -95.001 64.5s-43.334 56.5 -59.001 91.5s-26.334 68.5 -32.001 100.5s-8.5 64.333 -8.5 97z" />
    <glyph glyph-name="cacute" unicode="&#x107;" horiz-adv-x="500" 
d="M298 730h113l-149 -148h-60zM471 348l-84.002 -0.00195312c-5.33301 36.667 -18.666 64.834 -39.999 84.501s-49.333 29.5 -84 29.5c-45.333 0 -80.833 -18.5 -106.5 -55.5s-38.5 -88.167 -38.5 -153.5c0 -62 13 -110.667 39 -146s62 -53 108 -53
c71.333 0 114 42 128 126h84c-5.33301 -64 -26.666 -113.833 -63.999 -149.5s-87.333 -53.5 -150 -53.5c-71.333 0 -127.833 24.833 -169.5 74.5s-62.5 116.834 -62.5 201.501c0 86.667 21.167 156 63.5 208s98.833 78 169.5 78c60.667 0 109.167 -16.333 145.5 -49
s56.833 -80 61.5 -142z" />
    <glyph glyph-name="Ccircumflex" unicode="&#x108;" horiz-adv-x="722" 
d="M323 924h95l96 -150h-63l-81 96l-79 -96h-64zM48 356c0 33.333 2.83398 66.334 8.50098 99.001s16.5 66.667 32.5 102s35.833 66.166 59.5 92.499s55.667 48.166 96 65.499s85.833 26 136.5 26c158.667 0 252.334 -79.333 281.001 -238h-95
c-10.667 52 -31.667 91 -63 117s-76 39 -134 39c-70.667 0 -126.5 -27 -167.5 -81s-61.5 -127.667 -61.5 -221c0 -91.333 21.333 -163.833 64 -217.5s100.334 -80.5 173.001 -80.5c60 0 106 16.833 138 50.5s53.667 85.834 65 156.501h96c-22 -192.667 -122 -289 -300 -289
c-50 0 -94.833 8.5 -134.5 25.5s-71.334 38.5 -95.001 64.5s-43.334 56.5 -59.001 91.5s-26.334 68.5 -32.001 100.5s-8.5 64.333 -8.5 97z" />
    <glyph glyph-name="ccircumflex" unicode="&#x109;" horiz-adv-x="500" 
d="M215 708h95l96 -150h-63l-81 96l-79 -96h-64zM471 348l-84.002 -0.00195312c-5.33301 36.667 -18.666 64.834 -39.999 84.501s-49.333 29.5 -84 29.5c-45.333 0 -80.833 -18.5 -106.5 -55.5s-38.5 -88.167 -38.5 -153.5c0 -62 13 -110.667 39 -146s62 -53 108 -53
c71.333 0 114 42 128 126h84c-5.33301 -64 -26.666 -113.833 -63.999 -149.5s-87.333 -53.5 -150 -53.5c-71.333 0 -127.833 24.833 -169.5 74.5s-62.5 116.834 -62.5 201.501c0 86.667 21.167 156 63.5 208s98.833 78 169.5 78c60.667 0 109.167 -16.333 145.5 -49
s56.833 -80 61.5 -142z" />
    <glyph glyph-name="Cdotaccent" unicode="&#x10a;" horiz-adv-x="722" 
d="M437 900v-104h-104v104h104zM48 356c0 33.333 2.83398 66.334 8.50098 99.001s16.5 66.667 32.5 102s35.833 66.166 59.5 92.499s55.667 48.166 96 65.499s85.833 26 136.5 26c158.667 0 252.334 -79.333 281.001 -238h-95c-10.667 52 -31.667 91 -63 117s-76 39 -134 39
c-70.667 0 -126.5 -27 -167.5 -81s-61.5 -127.667 -61.5 -221c0 -91.333 21.333 -163.833 64 -217.5s100.334 -80.5 173.001 -80.5c60 0 106 16.833 138 50.5s53.667 85.834 65 156.501h96c-22 -192.667 -122 -289 -300 -289c-50 0 -94.833 8.5 -134.5 25.5
s-71.334 38.5 -95.001 64.5s-43.334 56.5 -59.001 91.5s-26.334 68.5 -32.001 100.5s-8.5 64.333 -8.5 97z" />
    <glyph glyph-name="cdotaccent" unicode="&#x10b;" horiz-adv-x="500" 
d="M311 729v-104h-104v104h104zM471 348l-84.002 -0.00195312c-5.33301 36.667 -18.666 64.834 -39.999 84.501s-49.333 29.5 -84 29.5c-45.333 0 -80.833 -18.5 -106.5 -55.5s-38.5 -88.167 -38.5 -153.5c0 -62 13 -110.667 39 -146s62 -53 108 -53
c71.333 0 114 42 128 126h84c-5.33301 -64 -26.666 -113.833 -63.999 -149.5s-87.333 -53.5 -150 -53.5c-71.333 0 -127.833 24.833 -169.5 74.5s-62.5 116.834 -62.5 201.501c0 86.667 21.167 156 63.5 208s98.833 78 169.5 78c60.667 0 109.167 -16.333 145.5 -49
s56.833 -80 61.5 -142z" />
    <glyph glyph-name="Ccaron" unicode="&#x10c;" horiz-adv-x="722" 
d="M428 776h-95l-96 150h63l81 -96l79 96h64zM48 356c0 33.333 2.83398 66.334 8.50098 99.001s16.5 66.667 32.5 102s35.833 66.166 59.5 92.499s55.667 48.166 96 65.499s85.833 26 136.5 26c158.667 0 252.334 -79.333 281.001 -238h-95c-10.667 52 -31.667 91 -63 117
s-76 39 -134 39c-70.667 0 -126.5 -27 -167.5 -81s-61.5 -127.667 -61.5 -221c0 -91.333 21.333 -163.833 64 -217.5s100.334 -80.5 173.001 -80.5c60 0 106 16.833 138 50.5s53.667 85.834 65 156.501h96c-22 -192.667 -122 -289 -300 -289c-50 0 -94.833 8.5 -134.5 25.5
s-71.334 38.5 -95.001 64.5s-43.334 56.5 -59.001 91.5s-26.334 68.5 -32.001 100.5s-8.5 64.333 -8.5 97z" />
    <glyph glyph-name="ccaron" unicode="&#x10d;" horiz-adv-x="500" 
d="M313 582h-95l-96 150h63l81 -96l79 96h64zM471 348l-84.002 -0.00195312c-5.33301 36.667 -18.666 64.834 -39.999 84.501s-49.333 29.5 -84 29.5c-45.333 0 -80.833 -18.5 -106.5 -55.5s-38.5 -88.167 -38.5 -153.5c0 -62 13 -110.667 39 -146s62 -53 108 -53
c71.333 0 114 42 128 126h84c-5.33301 -64 -26.666 -113.833 -63.999 -149.5s-87.333 -53.5 -150 -53.5c-71.333 0 -127.833 24.833 -169.5 74.5s-62.5 116.834 -62.5 201.501c0 86.667 21.167 156 63.5 208s98.833 78 169.5 78c60.667 0 109.167 -16.333 145.5 -49
s56.833 -80 61.5 -142z" />
    <glyph glyph-name="Dcaron" unicode="&#x10e;" horiz-adv-x="722" 
d="M386 776h-95l-96 150h63l81 -96l79 96h64zM89 0l-0.000976562 729h281c92.667 0 165.334 -32.333 218.001 -97s79 -153.667 79 -267s-26.5 -202.5 -79.5 -267.5s-125.5 -97.5 -217.5 -97.5h-281zM181.999 82h172c72 0 126.667 24 164 72s56 118 56 210
c0 92.667 -18.667 163 -56 211s-92 72 -164 72h-172v-565z" />
    <glyph glyph-name="dcaron" unicode="&#x10f;" horiz-adv-x="722" 
d="M585 729l105.001 -0.00195312v-120c0 -87.333 -35 -131 -105 -131v38c23.333 0.666992 39.166 7.33398 47.499 20.001s12.5 36.334 12.5 71.001v18h-60v104zM495.001 728.998l0.000976562 -728.999h-74v69c-22.667 -32.667 -47.167 -56.167 -73.5 -70.5
s-57.5 -21.5 -93.5 -21.5c-70.667 0 -126.334 25.5 -167.001 76.5s-61 120.833 -61 209.5c0 83.333 20.5 150.166 61.5 200.499s95.5 75.5 163.5 75.5c72 0 125.667 -27 161 -81v271h83zM265.002 460.999c-45.333 0 -81.999 -18.668 -109.999 -56.001s-42 -86.333 -42 -147
c0 -61.333 14 -110.5 42 -147.5s65 -55.5 111 -55.5c44 0 79.333 18.333 106 55s40 85.334 40 146.001c0 62.667 -13.333 112.5 -40 149.5s-62.334 55.5 -107.001 55.5z" />
    <glyph glyph-name="Dcroat" unicode="&#x110;" horiz-adv-x="722" 
d="M89 339h-69v67h69v323h282c92 0 164.333 -32.333 217 -97s79 -153.667 79 -267s-26.333 -202.5 -79 -267.5s-125 -97.5 -217 -97.5h-282v339zM182 339v-257.001h173c71.333 0 125.666 24 162.999 72s56 118.333 56 211s-18.667 162.834 -56 210.501
s-91.666 71.5 -162.999 71.5h-173v-241h171v-67h-171z" />
    <glyph glyph-name="dcroat" unicode="&#x111;" horiz-adv-x="556" 
d="M494 653h62.999v-53h-63v-600h-74v59c-46.667 -54.667 -102.667 -82 -168 -82c-68 0 -122.667 26.167 -164 78.5s-62 121.833 -62 208.5c0 82.667 20.5 149.167 61.5 199.5s95.167 75.5 162.5 75.5c64.667 0 118.334 -26 161.001 -78v139h-150v53h150v76h83v-76z
M264.999 457c-45.333 0 -82 -18.332 -110 -54.999s-42 -84.667 -42 -144s14 -107.333 42 -144s64.667 -55 110 -55c44 0 79.333 18 106 54s40 83.667 40 143c0 61.333 -13.167 110.166 -39.5 146.499s-61.833 54.5 -106.5 54.5z" />
    <glyph glyph-name="Emacron" unicode="&#x112;" horiz-adv-x="667" 
d="M480 870v-70h-274v70h274zM183 332v-250h430v-82h-523v729h505v-82h-412v-233h397v-82h-397z" />
    <glyph glyph-name="emacron" unicode="&#x113;" horiz-adv-x="556" 
d="M417 679v-70h-274v70h274zM513 234l-386.002 0.00195312c0.666992 -48 10 -85.333 28 -112c28.667 -45.333 70.667 -68 126 -68c68 0 113.667 35 137 105h84c-10.667 -57.333 -35.667 -102 -75 -134s-89 -48 -149 -48c-73.333 0 -131.333 24.833 -174 74.5
s-64 117.5 -64 203.5s21.833 154.833 65.5 206.5s101.834 77.5 174.501 77.5c49.333 0 92.833 -12.333 130.5 -37s64.834 -58.334 81.501 -101.001c14 -36.667 21 -92.334 21 -167.001zM128.998 302.002h293.999c0.666992 1.33301 1 3.33301 1 6
c0 43.333 -14 79.833 -42 109.5s-62.333 44.5 -103 44.5c-42 0 -76.667 -14.5 -104 -43.5s-42.666 -67.833 -45.999 -116.5z" />
    <glyph glyph-name="Ebreve" unicode="&#x114;" horiz-adv-x="667" 
d="M192 905l59 0.00195312c5.33301 -44 36 -66 92 -66c26.667 0 48 5.66699 64 17s25 27.666 27 48.999h59c-7.33301 -90 -58 -135 -152 -135c-24 0 -46 3.16699 -66 9.5s-38.667 20.166 -56 41.499s-26.333 49.333 -27 84zM183 332.002v-250h430v-82h-523v729h505v-82h-412
v-233h397v-82h-397z" />
    <glyph glyph-name="ebreve" unicode="&#x115;" horiz-adv-x="556" 
d="M129 729l59 0.00195312c5.33301 -44 36 -66 92 -66c26.667 0 48 5.66699 64 17s25 27.666 27 48.999h59c-7.33301 -90 -58 -135 -152 -135c-24 0 -46 3.16699 -66 9.5s-38.667 20.166 -56 41.499s-26.333 49.333 -27 84zM513 234.002l-386.002 0.00195312
c0.666992 -48 10 -85.333 28 -112c28.667 -45.333 70.667 -68 126 -68c68 0 113.667 35 137 105h84c-10.667 -57.333 -35.667 -102 -75 -134s-89 -48 -149 -48c-73.333 0 -131.333 24.833 -174 74.5s-64 117.5 -64 203.5s21.833 154.833 65.5 206.5
s101.834 77.5 174.501 77.5c49.333 0 92.833 -12.333 130.5 -37s64.834 -58.334 81.501 -101.001c14 -36.667 21 -92.334 21 -167.001zM128.998 302.004h293.999c0.666992 1.33301 1 3.33301 1 6c0 43.333 -14 79.833 -42 109.5s-62.333 44.5 -103 44.5
c-42 0 -76.667 -14.5 -104 -43.5s-42.666 -67.833 -45.999 -116.5z" />
    <glyph glyph-name="Edotaccent" unicode="&#x116;" horiz-adv-x="667" 
d="M395 899v-104h-104v104h104zM183 332v-250h430v-82h-523v729h505v-82h-412v-233h397v-82h-397z" />
    <glyph glyph-name="edotaccent" unicode="&#x117;" horiz-adv-x="556" 
d="M332 729v-104h-104v104h104zM513 234l-386.002 0.00195312c0.666992 -48 10 -85.333 28 -112c28.667 -45.333 70.667 -68 126 -68c68 0 113.667 35 137 105h84c-10.667 -57.333 -35.667 -102 -75 -134s-89 -48 -149 -48c-73.333 0 -131.333 24.833 -174 74.5
s-64 117.5 -64 203.5s21.833 154.833 65.5 206.5s101.834 77.5 174.501 77.5c49.333 0 92.833 -12.333 130.5 -37s64.834 -58.334 81.501 -101.001c14 -36.667 21 -92.334 21 -167.001zM128.998 302.002h293.999c0.666992 1.33301 1 3.33301 1 6
c0 43.333 -14 79.833 -42 109.5s-62.333 44.5 -103 44.5c-42 0 -76.667 -14.5 -104 -43.5s-42.666 -67.833 -45.999 -116.5z" />
    <glyph glyph-name="Eogonek" unicode="&#x118;" horiz-adv-x="667" 
d="M576 -205c-37.333 0 -68.667 8.66992 -94 26.0029s-38 40 -38 68c0 24 8.5 45.667 25.5 65s40.833 34.666 71.5 45.999h-451v729h505v-82h-412v-233h397v-82h-397v-250h430v-82h-2c-36.667 -20.667 -61.5 -38.334 -74.5 -53.001s-19.5 -32.334 -19.5 -53.001
c0 -36 24 -54 72 -54c24.667 0 45.667 3.33301 63 10v-45c-32 -6.66699 -57.333 -10 -76 -10z" />
    <glyph glyph-name="eogonek" unicode="&#x119;" horiz-adv-x="556" 
d="M503 159c-4.66699 -27.333 -13.335 -52.001 -26.002 -74.001s-25.834 -40.333 -39.501 -55l-40.5 -42c-13.333 -13.333 -24.333 -28 -33 -44s-13 -33.667 -13 -53c0 -16 6.33301 -28.5 19 -37.5s30.334 -13.5 53.001 -13.5c25.333 0 46.666 3.33301 63.999 10v-45
c-27.333 -6 -50.333 -9 -69 -9c-42 0 -75.667 8 -101 24s-38 37.333 -38 64c0 8 0.833008 15.667 2.5 23s4.33398 14 8.00098 20s7.16699 11.333 10.5 16s7.83301 9.66699 13.5 15s9.83398 9 12.501 11l12 9l9 7c-26.667 -5.33301 -49.334 -8 -68.001 -8
c-74.667 0 -133.167 24.5 -175.5 73.5s-63.5 116.833 -63.5 203.5s21.833 155.834 65.5 207.501s101.834 77.5 174.501 77.5c49.333 0 92.833 -12.333 130.5 -37s64.834 -58.334 81.501 -101.001c14 -36 21 -86.667 21 -152v-15h-386
c0.666992 -34.667 6.16699 -64.5 16.5 -89.5s23.5 -43.667 39.5 -56s32.167 -21.166 48.5 -26.499s32.833 -8 49.5 -8c67.333 0 113.333 35 138 105h84zM423.999 301.999v6c0 43.333 -14 79.833 -42 109.5s-62.333 44.5 -103 44.5c-42 0 -76.667 -14.5 -104 -43.5
s-42.333 -67.833 -45 -116.5h294z" />
    <glyph glyph-name="Ecaron" unicode="&#x11a;" horiz-adv-x="667" 
d="M392 776h-95l-96 150h63l81 -96l79 96h64zM183 332v-250h430v-82h-523v729h505v-82h-412v-233h397v-82h-397z" />
    <glyph glyph-name="ecaron" unicode="&#x11b;" horiz-adv-x="556" 
d="M334 580h-95l-96 150h63l81 -96l79 96h64zM513 234l-386.002 0.00195312c0.666992 -48 10 -85.333 28 -112c28.667 -45.333 70.667 -68 126 -68c68 0 113.667 35 137 105h84c-10.667 -57.333 -35.667 -102 -75 -134s-89 -48 -149 -48
c-73.333 0 -131.333 24.833 -174 74.5s-64 117.5 -64 203.5s21.833 154.833 65.5 206.5s101.834 77.5 174.501 77.5c49.333 0 92.833 -12.333 130.5 -37s64.834 -58.334 81.501 -101.001c14 -36.667 21 -92.334 21 -167.001zM128.998 302.002h293.999
c0.666992 1.33301 1 3.33301 1 6c0 43.333 -14 79.833 -42 109.5s-62.333 44.5 -103 44.5c-42 0 -76.667 -14.5 -104 -43.5s-42.666 -67.833 -45.999 -116.5z" />
    <glyph glyph-name="Gcircumflex" unicode="&#x11c;" horiz-adv-x="778" 
d="M356 902.249h95l96 -128.998h-63l-81 82.5586l-79 -82.5586h-64zM137 362c0 -25.333 2.33301 -50.834 7 -76.501s13 -52.5 25 -80.5s27.5 -52.5 46.5 -73.5s44.167 -38.333 75.5 -52s67 -20.5 107 -20.5c66.667 0 121.5 21 164.5 63s64.5 95.667 64.5 161v20h-222v82h304
v-389h-59l-23 97c-69.333 -77.333 -152.333 -116 -249 -116c-98.667 0 -179 35.333 -241 106s-93 162 -93 274c0 32 3 64.167 9 96.5s17.333 66.166 34 101.499s37.5 66.333 62.5 93s58.667 48.834 101 66.501s90.166 26.5 143.499 26.5c83.333 0 151.833 -20.333 205.5 -61
s86.834 -98 99.501 -172h-95c-10 46.667 -33.833 83.5 -71.5 110.5s-84.167 40.5 -139.5 40.5c-77.333 0 -139.333 -27.167 -186 -81.5s-70 -126.166 -70 -215.499z" />
    <glyph glyph-name="gcircumflex" unicode="&#x11d;" horiz-adv-x="556" 
d="M233 719h95l96 -150h-63l-81 96l-79 -96h-64zM245 -23c-61.333 0 -112.663 25.168 -153.996 75.501s-62 117.166 -62 200.499c0 85.333 20.5 154.333 61.5 207s94.833 79 161.5 79c65.333 0 118.666 -30.333 159.999 -91v76h77v-438c0 -50 -3 -91.833 -9 -125.5
s-17 -64.834 -33 -93.501s-39.833 -50 -71.5 -64s-71.834 -21 -120.501 -21c-61.333 0 -110.333 14 -147 42s-57.334 66.667 -62.001 116h85c9.33301 -58.667 51.666 -88 126.999 -88c56 0 94.333 15.833 115 47.5s31 79.834 31 144.501v27
c-23.333 -33.333 -47.5 -57.333 -72.5 -72s-53.833 -22 -86.5 -22zM261.003 462.001c-44.667 0 -80 -18.333 -106 -55s-39 -86.334 -39 -149.001c0 -63.333 13 -113.166 39 -149.499s61.667 -54.5 107 -54.5c44 0 78.667 17.833 104 53.5s38 84.834 38 147.501
c0 65.333 -12.5 116.166 -37.5 152.499s-60.167 54.5 -105.5 54.5z" />
    <glyph glyph-name="Gbreve" unicode="&#x11e;" horiz-adv-x="778" 
d="M247 910l59 0.00195312c5.33301 -44 36 -66 92 -66c26.667 0 48 5.66699 64 17s25 27.666 27 48.999h59c-7.33301 -90 -58 -135 -152 -135c-24 0 -46 3.16699 -66 9.5s-38.667 20.166 -56 41.499s-26.333 49.333 -27 84zM137 362.002
c0 -25.333 2.33301 -50.834 7 -76.501s13 -52.5 25 -80.5s27.5 -52.5 46.5 -73.5s44.167 -38.333 75.5 -52s67 -20.5 107 -20.5c66.667 0 121.5 21 164.5 63s64.5 95.667 64.5 161v20h-222v82h304v-389h-59l-23 97c-69.333 -77.333 -152.333 -116 -249 -116
c-98.667 0 -179 35.333 -241 106s-93 162 -93 274c0 32 3 64.167 9 96.5s17.333 66.166 34 101.499s37.5 66.333 62.5 93s58.667 48.834 101 66.501s90.166 26.5 143.499 26.5c83.333 0 151.833 -20.333 205.5 -61s86.834 -98 99.501 -172h-95
c-10 46.667 -33.833 83.5 -71.5 110.5s-84.167 40.5 -139.5 40.5c-77.333 0 -139.333 -27.167 -186 -81.5s-70 -126.166 -70 -215.499z" />
    <glyph glyph-name="gbreve" unicode="&#x11f;" horiz-adv-x="556" 
d="M112 730l59 0.00195312c5.33301 -44 36 -66 92 -66c26.667 0 48 5.66699 64 17s25 27.666 27 48.999h59c-7.33301 -90 -58 -135 -152 -135c-24 0 -46 3.16699 -66 9.5s-38.667 20.166 -56 41.499s-26.333 49.333 -27 84zM245 -22.998
c-61.333 0 -112.663 25.168 -153.996 75.501s-62 117.166 -62 200.499c0 85.333 20.5 154.333 61.5 207s94.833 79 161.5 79c65.333 0 118.666 -30.333 159.999 -91v76h77v-438c0 -50 -3 -91.833 -9 -125.5s-17 -64.834 -33 -93.501s-39.833 -50 -71.5 -64
s-71.834 -21 -120.501 -21c-61.333 0 -110.333 14 -147 42s-57.334 66.667 -62.001 116h85c9.33301 -58.667 51.666 -88 126.999 -88c56 0 94.333 15.833 115 47.5s31 79.834 31 144.501v27c-23.333 -33.333 -47.5 -57.333 -72.5 -72s-53.833 -22 -86.5 -22z
M261.003 462.003c-44.667 0 -80 -18.333 -106 -55s-39 -86.334 -39 -149.001c0 -63.333 13 -113.166 39 -149.499s61.667 -54.5 107 -54.5c44 0 78.667 17.833 104 53.5s38 84.834 38 147.501c0 65.333 -12.5 116.166 -37.5 152.499s-60.167 54.5 -105.5 54.5z" />
    <glyph glyph-name="Gdotaccent" unicode="&#x120;" horiz-adv-x="778" 
d="M448 900v-104h-104v104h104zM137 362c0 -25.333 2.33301 -50.834 7 -76.501s13 -52.5 25 -80.5s27.5 -52.5 46.5 -73.5s44.167 -38.333 75.5 -52s67 -20.5 107 -20.5c66.667 0 121.5 21 164.5 63s64.5 95.667 64.5 161v20h-222v82h304v-389h-59l-23 97
c-69.333 -77.333 -152.333 -116 -249 -116c-98.667 0 -179 35.333 -241 106s-93 162 -93 274c0 32 3 64.167 9 96.5s17.333 66.166 34 101.499s37.5 66.333 62.5 93s58.667 48.834 101 66.501s90.166 26.5 143.499 26.5c83.333 0 151.833 -20.333 205.5 -61
s86.834 -98 99.501 -172h-95c-10 46.667 -33.833 83.5 -71.5 110.5s-84.167 40.5 -139.5 40.5c-77.333 0 -139.333 -27.167 -186 -81.5s-70 -126.166 -70 -215.499z" />
    <glyph glyph-name="gdotaccent" unicode="&#x121;" horiz-adv-x="556" 
d="M307 729v-104h-104v104h104zM245 -23c-61.333 0 -112.663 25.168 -153.996 75.501s-62 117.166 -62 200.499c0 85.333 20.5 154.333 61.5 207s94.833 79 161.5 79c65.333 0 118.666 -30.333 159.999 -91v76h77v-438c0 -50 -3 -91.833 -9 -125.5s-17 -64.834 -33 -93.501
s-39.833 -50 -71.5 -64s-71.834 -21 -120.501 -21c-61.333 0 -110.333 14 -147 42s-57.334 66.667 -62.001 116h85c9.33301 -58.667 51.666 -88 126.999 -88c56 0 94.333 15.833 115 47.5s31 79.834 31 144.501v27c-23.333 -33.333 -47.5 -57.333 -72.5 -72
s-53.833 -22 -86.5 -22zM261.003 462.001c-44.667 0 -80 -18.333 -106 -55s-39 -86.334 -39 -149.001c0 -63.333 13 -113.166 39 -149.499s61.667 -54.5 107 -54.5c44 0 78.667 17.833 104 53.5s38 84.834 38 147.501c0 65.333 -12.5 116.166 -37.5 152.499
s-60.167 54.5 -105.5 54.5z" />
    <glyph glyph-name="Gcommaaccent" unicode="&#x122;" horiz-adv-x="778" 
d="M325 -76h100v-103c0 -37.333 -8.66699 -66.833 -26 -88.5s-41.333 -32.5 -72 -32.5h-2v38c36.667 0 55 26 55 78v8h-55v100zM137 362c0 -25.333 2.33301 -50.834 7 -76.501s13 -52.5 25 -80.5s27.5 -52.5 46.5 -73.5s44.167 -38.333 75.5 -52s67 -20.5 107 -20.5
c66.667 0 121.5 21 164.5 63s64.5 95.667 64.5 161v20h-222v82h304v-389h-59l-23 97c-69.333 -77.333 -152.333 -116 -249 -116c-98.667 0 -179 35.333 -241 106s-93 162 -93 274c0 32 3 64.167 9 96.5s17.333 66.166 34 101.499s37.5 66.333 62.5 93
s58.667 48.834 101 66.501s90.166 26.5 143.499 26.5c83.333 0 151.833 -20.333 205.5 -61s86.834 -98 99.501 -172h-95c-10 46.667 -33.833 83.5 -71.5 110.5s-84.167 40.5 -139.5 40.5c-77.333 0 -139.333 -27.167 -186 -81.5s-70 -126.166 -70 -215.499z" />
    <glyph glyph-name="gcommaaccent" unicode="&#x123;" horiz-adv-x="556" 
d="M294 583l-87.999 -0.000976562v73c0 28.667 7.83301 50.834 23.5 66.501s37.167 23.5 64.5 23.5v-42c-16.667 0 -28.334 -3.5 -35.001 -10.5s-10 -19.167 -10 -36.5h45v-74zM245.001 -23.001c-61.333 0 -112.663 25.168 -153.996 75.501s-62 117.166 -62 200.499
c0 85.333 20.5 154.333 61.5 207s94.833 79 161.5 79c65.333 0 118.666 -30.333 159.999 -91v76h77v-438c0 -50 -3 -91.833 -9 -125.5s-17 -64.834 -33 -93.501s-39.833 -50 -71.5 -64s-71.834 -21 -120.501 -21c-61.333 0 -110.333 14 -147 42s-57.334 66.667 -62.001 116
h85c9.33301 -58.667 51.666 -88 126.999 -88c56 0 94.333 15.833 115 47.5s31 79.834 31 144.501v27c-23.333 -33.333 -47.5 -57.333 -72.5 -72s-53.833 -22 -86.5 -22zM261.004 462c-44.667 0 -80 -18.333 -106 -55s-39 -86.334 -39 -149.001
c0 -63.333 13 -113.166 39 -149.499s61.667 -54.5 107 -54.5c44 0 78.667 17.833 104 53.5s38 84.834 38 147.501c0 65.333 -12.5 116.166 -37.5 152.499s-60.167 54.5 -105.5 54.5z" />
    <glyph glyph-name="Hcircumflex" unicode="&#x124;" horiz-adv-x="722" 
d="M316 921h95l96 -150h-63l-81 96l-79 -96h-64zM551 332h-375v-332h-93v729h93v-315h375v315h93v-729h-93v332z" />
    <glyph glyph-name="hcircumflex" unicode="&#x125;" horiz-adv-x="556" 
d="M166 919h95l96 -150h-63l-81 96l-79 -96h-64zM403 363c0 36.667 -11.1689 62.999 -33.502 78.999s-47.166 24 -74.499 24c-42.667 0 -77 -16.167 -103 -48.5s-39 -75.166 -39 -128.499v-289h-83v729h83v-277c24.667 32 49.5 54.5 74.5 67.5s56.167 19.5 93.5 19.5
c50.667 0 90.834 -12.833 120.501 -38.5s44.5 -60.5 44.5 -104.5v-396h-83v363z" />
    <glyph glyph-name="Hbar" unicode="&#x126;" horiz-adv-x="722" 
d="M176 504v-90h375v90h-375zM83 576v153h93v-153h375v153h93v-153h44v-70h-44v-506h-93v332h-374v-332h-94v506h-44v70h44z" />
    <glyph glyph-name="hbar" unicode="&#x127;" horiz-adv-x="556" 
d="M403 363c0 36.667 -11.1689 62.999 -33.502 78.999s-47.166 24 -74.499 24c-42.667 0 -77 -16.167 -103 -48.5s-39 -75.166 -39 -128.499v-289h-83v600h-63v53h63v76h83v-76h150v-53h-150v-148c24.667 32 49.5 54.5 74.5 67.5s56.167 19.5 93.5 19.5
c50.667 0 90.834 -12.833 120.501 -38.5s44.5 -60.5 44.5 -104.5v-396h-83v363z" />
    <glyph glyph-name="Itilde" unicode="&#x128;" horiz-adv-x="278" 
d="M76 873c16.667 0 39.666 -6.16699 68.999 -18.5s50.666 -18.5 63.999 -18.5c16.667 0 29 12.333 37 37h58c-10 -69.333 -39.667 -104 -89 -104c-13.333 0 -36.666 6.33301 -69.999 19s-54.666 19 -63.999 19c-15.333 0 -26.333 -12.333 -33 -37h-58
c5.33301 32.667 15.5 58 30.5 76s33.5 27 55.5 27zM193.999 729v-729h-94v729h94z" />
    <glyph glyph-name="itilde" unicode="&#x129;" horiz-adv-x="251" 
d="M55 698c16.667 0 39.666 -6.16699 68.999 -18.5s50.666 -18.5 63.999 -18.5c16.667 0 29 12.333 37 37h58c-10 -69.333 -39.667 -104 -89 -104c-13.333 0 -36.666 6.33301 -69.999 19s-54.666 19 -63.999 19c-15.333 0 -26.333 -12.333 -33 -37h-58
c5.33301 32.667 15.5 58 30.5 76s33.5 27 55.5 27zM166.999 524v-524h-83v524h83z" />
    <glyph glyph-name="Imacron" unicode="&#x12a;" horiz-adv-x="278" 
d="M276 870v-70h-274v70h274zM194 729v-729h-94v729h94z" />
    <glyph glyph-name="imacron" unicode="&#x12b;" horiz-adv-x="251" 
d="M263 679v-70h-274v70h274zM167 524v-524h-83v524h83z" />
    <glyph glyph-name="Ibreve" unicode="&#x12c;" horiz-adv-x="278" 
d="M-3 904l59 0.00195312c5.33301 -44 36 -66 92 -66c26.667 0 48 5.66699 64 17s25 27.666 27 48.999h59c-7.33301 -90 -58 -135 -152 -135c-24 0 -46 3.16699 -66 9.5s-38.667 20.166 -56 41.499s-26.333 49.333 -27 84zM194 729.002v-729h-94v729h94z" />
    <glyph glyph-name="ibreve" unicode="&#x12d;" horiz-adv-x="251" 
d="M-25 729l59 0.00195312c5.33301 -44 36 -66 92 -66c26.667 0 48 5.66699 64 17s25 27.666 27 48.999h59c-7.33301 -90 -58 -135 -152 -135c-24 0 -46 3.16699 -66 9.5s-38.667 20.166 -56 41.499s-26.333 49.333 -27 84zM167 524.002v-524h-83v524h83z" />
    <glyph glyph-name="Iogonek" unicode="&#x12e;" horiz-adv-x="278" 
d="M158 -205c-37.333 0 -68.667 8.66992 -94 26.0029s-38 40 -38 68c0 24 8.5 45.667 25.5 65s40.833 34.666 71.5 45.999h-23v729h94v-729c-36.667 -20.667 -61.667 -38.334 -75 -53.001s-20 -32.334 -20 -53.001c0 -36 24 -54 72 -54c24.667 0 45.667 3.33301 63 10v-45
c-32 -6.66699 -57.333 -10 -76 -10z" />
    <glyph glyph-name="iogonek" unicode="&#x12f;" horiz-adv-x="222" 
d="M114 -205c-37.333 0 -68.667 8.66699 -94 26s-38 40 -38 68c0 22 7.5 42.333 22.5 61s35.833 33.667 62.5 45v523h83v-524h-12c-32 -18.667 -53.833 -35 -65.5 -49s-17.5 -31 -17.5 -51c0 -36 24 -54 72 -54c24.667 0 45.667 3.33301 63 10v-45
c-32 -6.66699 -57.333 -10 -76 -10zM149.999 729v-105h-84v105h84z" />
    <glyph glyph-name="Idotaccent" unicode="&#x130;" horiz-adv-x="278" 
d="M199 883v-104h-104v104h104zM194 729v-729h-94v729h94z" />
    <glyph glyph-name="dotlessi" unicode="&#x131;" horiz-adv-x="251" 
d="M167 524v-524h-83v524h83z" />
    <glyph glyph-name="Jcircumflex" unicode="&#x134;" horiz-adv-x="500" 
d="M332 923h95l96 -150h-63l-81 96l-79 -96h-64zM221 55c42.667 0 72 14.001 88 42.001s24 67.667 24 119v513h93v-547c0 -63.333 -18.5 -113.333 -55.5 -150s-87.167 -55 -150.5 -55c-62.667 0 -112.167 17.333 -148.5 52s-54.5 81.667 -54.5 141v64h95v-47
c0 -42.667 9.33301 -75.334 28 -98.001s45.667 -34 81 -34z" />
    <glyph glyph-name="jcircumflex" unicode="&#x135;" horiz-adv-x="222" 
d="M70 524h83v-633c0 -72.667 -47.667 -109 -143 -109c-8.66699 0 -18 1 -28 3v71c11.333 -0.666992 18 -1 20 -1c25.333 0 43 5 53 15s15 28 15 54v600zM64 719h95l96 -150h-63l-81 96l-79 -96h-64z" />
    <glyph glyph-name="Kcommaaccent" unicode="&#x136;" horiz-adv-x="667" 
d="M295 -76h100v-103c0 -37.333 -8.66699 -66.833 -26 -88.5s-41.333 -32.5 -72 -32.5h-2v38c36.667 0 55 26 55 78v8h-55v100zM172 255v-255h-93v729h93v-369l363 369h120l-297 -297l300 -432h-110l-257 374z" />
    <glyph glyph-name="kcommaaccent" unicode="&#x137;" horiz-adv-x="500" 
d="M227 -76h100v-103c0 -37.333 -8.66699 -66.833 -26 -88.5s-41.333 -32.5 -72 -32.5h-2v38c36.667 0 55 26 55 78v8h-55v100zM141 729v-427l222 222h107l-182 -181l214 -343h-103l-177 284l-81 -80v-204h-83v729h83z" />
    <glyph glyph-name="kgreenlandic" unicode="&#x138;" horiz-adv-x="500" 
d="M141 524v-222l222 222h107l-272 -260l304 -264h-103l-258 216v-216h-83v524h83z" />
    <glyph glyph-name="Lacute" unicode="&#x139;" horiz-adv-x="556" 
d="M166 939h113l-149 -148h-60zM173 729v-647h360v-82h-453v729h93z" />
    <glyph glyph-name="lacute" unicode="&#x13a;" horiz-adv-x="222" 
d="M160 939h113l-149 -148h-60zM152 729v-729h-84v729h84z" />
    <glyph glyph-name="Lcommaaccent" unicode="&#x13b;" horiz-adv-x="556" 
d="M255 -76h100v-103c0 -37.333 -8.66699 -66.833 -26 -88.5s-41.333 -32.5 -72 -32.5h-2v38c36.667 0 55 26 55 78v8h-55v100zM173 729v-647h360v-82h-453v729h93z" />
    <glyph glyph-name="lcommaaccent" unicode="&#x13c;" horiz-adv-x="222" 
d="M66 -76h100v-103c0 -37.333 -8.66699 -66.833 -26 -88.5s-41.333 -32.5 -72 -32.5h-2v38c36.667 0 55 26 55 78v8h-55v100zM152 729v-729h-84v729h84z" />
    <glyph glyph-name="Lcaron" unicode="&#x13d;" horiz-adv-x="556" 
d="M268 730l105.001 -0.00195312v-120c0 -87.333 -35 -131 -105 -131v38c23.333 0.666992 39.166 7.33398 47.499 20.001s12.5 36.334 12.5 71.001v18h-60v104zM173.001 728.998v-647h360v-82h-453v729h93z" />
    <glyph glyph-name="lcaron" unicode="&#x13e;" horiz-adv-x="367" 
d="M231 712l105.001 -0.00195312v-120c0 -87.333 -35 -131 -105 -131v38c23.333 0.666992 39.166 7.33398 47.499 20.001s12.5 36.334 12.5 71.001v18h-60v104zM152.001 728.998v-729h-84v729h84z" />
    <glyph glyph-name="Ldot" unicode="&#x13f;" horiz-adv-x="556" 
d="M447 331v-104h-104v104h104zM173 729v-647h360v-82h-453v729h93z" />
    <glyph glyph-name="ldot" unicode="&#x140;" horiz-adv-x="500" 
d="M413 331v-104h-104v104h104zM152 729v-729h-84v729h84z" />
    <glyph glyph-name="Lslash" unicode="&#x141;" horiz-adv-x="556" 
d="M173 406l171 121v-76l-171 -122v-247h379v-82h-472v280l-80 -57v77l80 56v373h93v-323z" />
    <glyph glyph-name="lslash" unicode="&#x142;" horiz-adv-x="222" 
d="M146 421l66 51v-64l-66 -51v-357h-83v313l-63 -50v64l63 50v352h83v-308z" />
    <glyph glyph-name="Nacute" unicode="&#x143;" horiz-adv-x="722" 
d="M389 925h113l-149 -148h-60zM646 729v-729h-105l-377 591v-591h-88v729h101l381 -596v596h88z" />
    <glyph glyph-name="nacute" unicode="&#x144;" horiz-adv-x="556" 
d="M310 733h113l-149 -148h-60zM70 524l76.999 -0.000976562v-88c23.333 36.667 48.5 63 75.5 79s59.833 24 98.5 24c50.667 0 91 -13 121 -39s45 -60.667 45 -104v-396h-83v363c0 31.333 -9.66699 56.333 -29 75s-45.666 28 -78.999 28c-42.667 0 -77 -16.167 -103 -48.5
s-39 -75.166 -39 -128.499v-289h-84v524z" />
    <glyph glyph-name="Ncommaaccent" unicode="&#x145;" horiz-adv-x="722" 
d="M305 -76h100v-103c0 -37.333 -8.66699 -66.833 -26 -88.5s-41.333 -32.5 -72 -32.5h-2v38c36.667 0 55 26 55 78v8h-55v100zM646 729v-729h-105l-377 591v-591h-88v729h101l381 -596v596h88z" />
    <glyph glyph-name="ncommaaccent" unicode="&#x146;" horiz-adv-x="556" 
d="M227 -76h100v-103c0 -37.333 -8.66699 -66.833 -26 -88.5s-41.333 -32.5 -72 -32.5h-2v38c36.667 0 55 26 55 78v8h-55v100zM70 524l76.999 -0.000976562v-88c23.333 36.667 48.5 63 75.5 79s59.833 24 98.5 24c50.667 0 91 -13 121 -39s45 -60.667 45 -104v-396h-83v363
c0 31.333 -9.66699 56.333 -29 75s-45.666 28 -78.999 28c-42.667 0 -77 -16.167 -103 -48.5s-39 -75.166 -39 -128.499v-289h-84v524z" />
    <glyph glyph-name="Ncaron" unicode="&#x147;" horiz-adv-x="722" 
d="M409 776h-95l-96 150h63l81 -96l79 96h64zM646 729v-729h-105l-377 591v-591h-88v729h101l381 -596v596h88z" />
    <glyph glyph-name="ncaron" unicode="&#x148;" horiz-adv-x="556" 
d="M326 581h-95l-96 150h63l81 -96l79 96h64zM70 524l76.999 -0.000976562v-88c23.333 36.667 48.5 63 75.5 79s59.833 24 98.5 24c50.667 0 91 -13 121 -39s45 -60.667 45 -104v-396h-83v363c0 31.333 -9.66699 56.333 -29 75s-45.666 28 -78.999 28
c-42.667 0 -77 -16.167 -103 -48.5s-39 -75.166 -39 -128.499v-289h-84v524z" />
    <glyph glyph-name="napostrophe" unicode="&#x149;" horiz-adv-x="702" 
d="M46 728l105.001 -0.00195312v-120c0 -87.333 -35 -131 -105 -131v38c23.333 0.666992 39.166 7.33398 47.499 20.001s12.5 36.334 12.5 71.001v18h-60v104zM190.001 523.998l76.999 -0.000976562v-88c23.333 36.667 48.5 63 75.5 79s59.833 24 98.5 24
c50.667 0 91 -13 121 -39s45 -60.667 45 -104v-396h-83v363c0 31.333 -9.66699 56.333 -29 75s-45.666 28 -78.999 28c-42.667 0 -77 -16.167 -103 -48.5s-39 -75.166 -39 -128.499v-289h-84v524z" />
    <glyph glyph-name="Eng" unicode="&#x14a;" horiz-adv-x="710" 
d="M410 -16c-14 0 -27.667 0.830078 -41 2.49707s-23.5 3.33398 -30.5 5.00098s-14 3.5 -21 5.5s-10.833 3 -11.5 3v71c2 0 14 -2.33301 36 -7s42 -7 60 -7c42 0 81 31.5 117 94.5s54 142.833 54 239.5c0 52 -6.83301 97.333 -20.5 136s-31.167 67.834 -52.5 87.501
s-42.333 34 -63 43s-40.334 13.5 -59.001 13.5c-45.333 0 -86.166 -16.667 -122.499 -50s-54.5 -75.666 -54.5 -126.999v-494h-93v729h93v-77c38.667 61.333 106 92 202 92c27.333 0 55.333 -6.16699 84 -18.5s56.667 -30.5 84 -54.5s49.833 -57.5 67.5 -100.5
s26.5 -91.833 26.5 -146.5c0 -77.333 -7.5 -145.5 -22.5 -204.5s-35.167 -105 -60.5 -138s-52.333 -57.5 -81 -73.5s-59 -24 -91 -24z" />
    <glyph glyph-name="eng" unicode="&#x14b;" horiz-adv-x="556" 
d="M487 396l-0.000976562 -505.001c0 -72.667 -47.667 -109 -143 -109c-8.66699 0 -18 1 -28 3v71c11.333 -0.666992 18 -1 20 -1c25.333 0 43 5 53 15s15 28 15 54v439c0 31.333 -9.66699 56.333 -29 75s-45.666 28 -78.999 28c-42.667 0 -77 -16.167 -103 -48.5
s-39 -75.166 -39 -128.499v-289h-84v524h77v-88c23.333 36.667 48.5 63 75.5 79s59.833 24 98.5 24c50.667 0 91 -13 121 -39s45 -60.667 45 -104z" />
    <glyph glyph-name="Omacron" unicode="&#x14c;" horiz-adv-x="778" 
d="M526 870v-70h-274v70h274zM742 353c0 -108 -32.001 -197.667 -96.001 -269s-149.333 -107 -256 -107c-105.333 0 -190.333 35.167 -255 105.5s-97 162.5 -97 276.5s32.333 206.167 97 276.5s149.334 105.5 254.001 105.5c106.667 0 192.167 -35.333 256.5 -106
s96.5 -164.667 96.5 -282zM388.999 659c-77.333 0 -139.667 -27.5 -187 -82.5s-71 -127.5 -71 -217.5s23.833 -162.5 71.5 -217.5s110.167 -82.5 187.5 -82.5s139.833 27.333 187.5 82s71.5 126 71.5 214c0 92 -23.667 165.667 -71 221s-110.333 83 -189 83z" />
    <glyph glyph-name="omacron" unicode="&#x14d;" horiz-adv-x="556" 
d="M409 679v-70h-274v70h274zM272 539c75.333 0 133.833 -24.832 175.5 -74.499s62.5 -119.834 62.5 -210.501c0 -86 -21.167 -153.667 -63.5 -203s-100.166 -74 -173.499 -74c-74.667 0 -132.834 24.833 -174.501 74.5s-62.5 118.5 -62.5 206.5s21 156.833 63 206.5
s99.667 74.5 173 74.5zM273 462.001c-46.667 0 -83.335 -18.1689 -110.002 -54.502s-40 -86.166 -40 -149.499s13.333 -113.166 40 -149.499s63.334 -54.5 110.001 -54.5c46 0 82.5 18.167 109.5 54.5s40.5 85.166 40.5 146.499c0 64.667 -13.167 115.334 -39.5 152.001
s-63.166 55 -110.499 55z" />
    <glyph glyph-name="Obreve" unicode="&#x14e;" horiz-adv-x="778" 
d="M239 904l59 0.00195312c5.33301 -44 36 -66 92 -66c26.667 0 48 5.66699 64 17s25 27.666 27 48.999h59c-7.33301 -90 -58 -135 -152 -135c-24 0 -46 3.16699 -66 9.5s-38.667 20.166 -56 41.499s-26.333 49.333 -27 84zM742 353.002
c0 -108 -32.001 -197.667 -96.001 -269s-149.333 -107 -256 -107c-105.333 0 -190.333 35.167 -255 105.5s-97 162.5 -97 276.5s32.333 206.167 97 276.5s149.334 105.5 254.001 105.5c106.667 0 192.167 -35.333 256.5 -106s96.5 -164.667 96.5 -282zM388.999 659.002
c-77.333 0 -139.667 -27.5 -187 -82.5s-71 -127.5 -71 -217.5s23.833 -162.5 71.5 -217.5s110.167 -82.5 187.5 -82.5s139.833 27.333 187.5 82s71.5 126 71.5 214c0 92 -23.667 165.667 -71 221s-110.333 83 -189 83z" />
    <glyph glyph-name="obreve" unicode="&#x14f;" horiz-adv-x="556" 
d="M123 729l59 0.00195312c5.33301 -44 36 -66 92 -66c26.667 0 48 5.66699 64 17s25 27.666 27 48.999h59c-7.33301 -90 -58 -135 -152 -135c-24 0 -46 3.16699 -66 9.5s-38.667 20.166 -56 41.499s-26.333 49.333 -27 84zM272 539.002
c75.333 0 133.833 -24.832 175.5 -74.499s62.5 -119.834 62.5 -210.501c0 -86 -21.167 -153.667 -63.5 -203s-100.166 -74 -173.499 -74c-74.667 0 -132.834 24.833 -174.501 74.5s-62.5 118.5 -62.5 206.5s21 156.833 63 206.5s99.667 74.5 173 74.5zM273 462.003
c-46.667 0 -83.335 -18.1689 -110.002 -54.502s-40 -86.166 -40 -149.499s13.333 -113.166 40 -149.499s63.334 -54.5 110.001 -54.5c46 0 82.5 18.167 109.5 54.5s40.5 85.166 40.5 146.499c0 64.667 -13.167 115.334 -39.5 152.001s-63.166 55 -110.499 55z" />
    <glyph glyph-name="Ohungarumlaut" unicode="&#x150;" horiz-adv-x="778" 
d="M364 925h113l-149 -150h-60zM538 925h113l-149 -150h-60zM742 353c0 -108 -32.001 -197.667 -96.001 -269s-149.333 -107 -256 -107c-105.333 0 -190.333 35.167 -255 105.5s-97 162.5 -97 276.5s32.333 206.167 97 276.5s149.334 105.5 254.001 105.5
c106.667 0 192.167 -35.333 256.5 -106s96.5 -164.667 96.5 -282zM388.999 659c-77.333 0 -139.667 -27.5 -187 -82.5s-71 -127.5 -71 -217.5s23.833 -162.5 71.5 -217.5s110.167 -82.5 187.5 -82.5s139.833 27.333 187.5 82s71.5 126 71.5 214
c0 92 -23.667 165.667 -71 221s-110.333 83 -189 83z" />
    <glyph glyph-name="ohungarumlaut" unicode="&#x151;" horiz-adv-x="556" 
d="M239 740h113l-149 -150h-60zM413 740h113l-149 -150h-60zM272 539c75.333 0 133.833 -24.832 175.5 -74.499s62.5 -119.834 62.5 -210.501c0 -86 -21.167 -153.667 -63.5 -203s-100.166 -74 -173.499 -74c-74.667 0 -132.834 24.833 -174.501 74.5
s-62.5 118.5 -62.5 206.5s21 156.833 63 206.5s99.667 74.5 173 74.5zM273 462.001c-46.667 0 -83.335 -18.1689 -110.002 -54.502s-40 -86.166 -40 -149.499s13.333 -113.166 40 -149.499s63.334 -54.5 110.001 -54.5c46 0 82.5 18.167 109.5 54.5
s40.5 85.166 40.5 146.499c0 64.667 -13.167 115.334 -39.5 152.001s-63.166 55 -110.499 55z" />
    <glyph glyph-name="OE" unicode="&#x152;" horiz-adv-x="1000" 
d="M43 356c0 58.667 6.66992 111.167 20.0029 157.5s30.166 83.5 50.499 111.5s44.166 51 71.499 69s53.833 30.333 79.5 37s51.5 10 77.5 10c80.667 0 141.667 -29.333 183 -88v76h429v-82h-336v-238h328v-82h-328v-245h341v-82h-434v74c-44.667 -62.667 -106 -94 -184 -94
c-26.667 0 -52.834 3.33301 -78.501 10s-52.167 18.834 -79.5 36.501s-51 40 -71 67s-36.5 63.167 -49.5 108.5s-19.5 96.666 -19.5 153.999zM136.003 360c0 -48.667 4.33496 -91.333 13.002 -128s19.834 -65.5 33.501 -86.5s30 -38 49 -51s37.167 -21.667 54.5 -26
s35.666 -6.5 54.999 -6.5c83.333 0 144.666 40 183.999 120v357c-39.333 80 -100.333 120 -183 120c-20.667 0 -39.834 -2.33301 -57.501 -7s-36 -13.5 -55 -26.5s-35 -30.167 -48 -51.5s-23.833 -50.333 -32.5 -87s-13 -79 -13 -127z" />
    <glyph glyph-name="oe" unicode="&#x153;" horiz-adv-x="938" 
d="M509 234c0.666992 -34.667 5.99707 -64.499 15.9971 -89.499s23 -43.667 39 -56s32.167 -21.166 48.5 -26.499s33.166 -8 50.499 -8c68 0 113.667 35 137 105h84c-10.667 -57.333 -35.667 -102 -75 -134s-88.666 -48 -147.999 -48c-88 0 -152.667 34.333 -194 103
c-42 -68.667 -106.667 -103 -194 -103c-75.333 0 -133.666 24.5 -174.999 73.5s-62 118.5 -62 208.5c0 89.333 20.667 158.333 62 207s99.666 73 174.999 73c90 0 155.333 -35.333 196 -106c20.667 33.333 47.834 59.333 81.501 78s70.834 28 111.501 28
c49.333 0 92.833 -12.333 130.5 -37s64.834 -58.334 81.501 -101.001c14 -36.667 21 -92.334 21 -167.001h-386zM272.997 462.001c-46.667 0 -83.333 -18.167 -110 -54.5s-40 -85.833 -40 -148.5c0 -64 13.333 -114.167 40 -150.5s63.334 -54.5 110.001 -54.5
c46 0 82.5 18 109.5 54s40.5 85.333 40.5 148c0 64.667 -13.333 115.167 -40 151.5s-63.334 54.5 -110.001 54.5zM510.998 302.001h294c0 47.333 -13.333 85.833 -40 115.5s-61.334 44.5 -104.001 44.5c-42 0 -76.667 -14.5 -104 -43.5s-42.666 -67.833 -45.999 -116.5z" />
    <glyph glyph-name="Racute" unicode="&#x154;" horiz-adv-x="722" 
d="M383 924h113l-149 -148h-60zM536 360c21.333 -9.33301 39.168 -20.335 53.501 -33.002s24.666 -27 30.999 -43s10.5 -31 12.5 -45s3 -30.667 3 -50c0 -6 -0.166992 -14.667 -0.5 -26s-0.5 -19.666 -0.5 -24.999c0 -27.333 3 -50.333 9 -69s17.667 -34 35 -46v-23h-113
c-13.333 30.667 -20 70.334 -20 119.001v65c0 44.667 -9.66699 77.5 -29 98.5s-49.666 31.5 -90.999 31.5h-240v-314h-93v729h336c71.333 0 126.166 -16.833 164.499 -50.5s57.5 -81.834 57.5 -144.501c0 -41.333 -9 -75.666 -27 -102.999s-47.333 -51 -88 -71z
M554.002 520.998c0 48 -12.667 81 -38 99s-60.333 27 -105 27h-225v-251h225c49.333 0 85.5 10 108.5 30s34.5 51.667 34.5 95z" />
    <glyph glyph-name="racute" unicode="&#x155;" horiz-adv-x="333" 
d="M218 739h113l-149 -148h-60zM321 451c-56 -1.33301 -98 -14.332 -126 -38.999s-42 -71.334 -42 -140.001v-272h-84v524h77v-95c24 39.333 47.167 67.5 69.5 84.5s46.833 25.5 73.5 25.5c7.33301 0 18 -1 32 -3v-85z" />
    <glyph glyph-name="Rcommaaccent" unicode="&#x156;" horiz-adv-x="722" 
d="M315 -76h100v-103c0 -37.333 -8.66699 -66.833 -26 -88.5s-41.333 -32.5 -72 -32.5h-2v38c36.667 0 55 26 55 78v8h-55v100zM536 360c21.333 -9.33301 39.168 -20.335 53.501 -33.002s24.666 -27 30.999 -43s10.5 -31 12.5 -45s3 -30.667 3 -50
c0 -6 -0.166992 -14.667 -0.5 -26s-0.5 -19.666 -0.5 -24.999c0 -27.333 3 -50.333 9 -69s17.667 -34 35 -46v-23h-113c-13.333 30.667 -20 70.334 -20 119.001v65c0 44.667 -9.66699 77.5 -29 98.5s-49.666 31.5 -90.999 31.5h-240v-314h-93v729h336
c71.333 0 126.166 -16.833 164.499 -50.5s57.5 -81.834 57.5 -144.501c0 -41.333 -9 -75.666 -27 -102.999s-47.333 -51 -88 -71zM554.002 520.998c0 48 -12.667 81 -38 99s-60.333 27 -105 27h-225v-251h225c49.333 0 85.5 10 108.5 30s34.5 51.667 34.5 95z" />
    <glyph glyph-name="rcommaaccent" unicode="&#x157;" horiz-adv-x="333" 
d="M70 -76h100v-103c0 -37.333 -8.66699 -66.833 -26 -88.5s-41.333 -32.5 -72 -32.5h-2v38c36.667 0 55 26 55 78v8h-55v100zM321 451c-56 -1.33301 -98 -14.332 -126 -38.999s-42 -71.334 -42 -140.001v-272h-84v524h77v-95c24 39.333 47.167 67.5 69.5 84.5
s46.833 25.5 73.5 25.5c7.33301 0 18 -1 32 -3v-85z" />
    <glyph glyph-name="Rcaron" unicode="&#x158;" horiz-adv-x="722" 
d="M404 776h-95l-96 150h63l81 -96l79 96h64zM536 360c21.333 -9.33301 39.168 -20.335 53.501 -33.002s24.666 -27 30.999 -43s10.5 -31 12.5 -45s3 -30.667 3 -50c0 -6 -0.166992 -14.667 -0.5 -26s-0.5 -19.666 -0.5 -24.999c0 -27.333 3 -50.333 9 -69
s17.667 -34 35 -46v-23h-113c-13.333 30.667 -20 70.334 -20 119.001v65c0 44.667 -9.66699 77.5 -29 98.5s-49.666 31.5 -90.999 31.5h-240v-314h-93v729h336c71.333 0 126.166 -16.833 164.499 -50.5s57.5 -81.834 57.5 -144.501c0 -41.333 -9 -75.666 -27 -102.999
s-47.333 -51 -88 -71zM554.002 520.998c0 48 -12.667 81 -38 99s-60.333 27 -105 27h-225v-251h225c49.333 0 85.5 10 108.5 30s34.5 51.667 34.5 95z" />
    <glyph glyph-name="rcaron" unicode="&#x159;" horiz-adv-x="333" 
d="M240 591h-95l-96 150h63l81 -96l79 96h64zM321 451c-56 -1.33301 -98 -14.332 -126 -38.999s-42 -71.334 -42 -140.001v-272h-84v524h77v-95c24 39.333 47.167 67.5 69.5 84.5s46.833 25.5 73.5 25.5c7.33301 0 18 -1 32 -3v-85z" />
    <glyph glyph-name="Sacute" unicode="&#x15a;" horiz-adv-x="667" 
d="M362 922h113l-149 -148h-60zM342 59c37.333 0 69.001 4.33203 95.001 12.999s45.167 20 57.5 34s21 27.833 26 41.5s7.5 28.167 7.5 43.5c0 55.333 -44.667 94.666 -134 117.999l-181 48c-95.333 24.667 -143 81.334 -143 170.001c0 66 23.167 118.167 69.5 156.5
s109.5 57.5 189.5 57.5c84 0 149.333 -19.833 196 -59.5s70.334 -95.167 71.001 -166.5h-88c-0.666992 47.333 -16.667 83.833 -48 109.5s-76 38.5 -134 38.5c-49.333 0 -88.833 -11.333 -118.5 -34s-44.5 -52.334 -44.5 -89.001c0 -28 9 -50 27 -66s49 -30 93 -42l183 -49
c49.333 -13.333 87.5 -36 114.5 -68s40.5 -70.333 40.5 -115c0 -19.333 -2.5 -38.5 -7.5 -57.5s-14.167 -38.667 -27.5 -59s-30.333 -38.166 -51 -53.499s-48.167 -28 -82.5 -38s-73.166 -15 -116.499 -15c-27.333 0 -53.5 2.16699 -78.5 6.5s-50.5 12.333 -76.5 24
s-48.333 26.667 -67 45s-34.167 42.833 -46.5 73.5s-18.833 66 -19.5 106h88v-5c0 -20.667 3.16699 -40 9.5 -58s16.666 -35.667 30.999 -53s35.666 -31.166 63.999 -41.499s62.166 -15.5 101.499 -15.5z" />
    <glyph glyph-name="sacute" unicode="&#x15b;" horiz-adv-x="500" 
d="M275 740h113l-149 -148h-60zM122 156c4 -31.333 14.8311 -56.1641 32.498 -74.4971s49.5 -27.5 95.5 -27.5c36.667 0 66.167 7.5 88.5 22.5s33.5 34.833 33.5 59.5c0 19.333 -6.33301 34.666 -19 45.999s-33.334 20.333 -62.001 27l-78 19
c-62 14.667 -105.167 33.167 -129.5 55.5s-36.5 54.166 -36.5 95.499c0 48.667 18.333 87.5 55 116.5s85.334 43.5 146.001 43.5s107.334 -14 140.001 -42s49.334 -67.667 50.001 -119h-88c-2 56 -37 84 -105 84c-34 0 -61 -7.16699 -81 -21.5s-30 -33.5 -30 -57.5
c0 -18.667 7.66699 -33.834 23 -45.501s40 -21.5 74 -29.5l80 -19c52 -12.667 89.667 -30.5 113 -53.5s35 -53.833 35 -92.5c0 -50.667 -19.5 -91 -58.5 -121s-91.5 -45 -157.5 -45c-135.333 0 -205 59.667 -209 179h88z" />
    <glyph glyph-name="Scircumflex" unicode="&#x15c;" horiz-adv-x="667" 
d="M288 924h95l96 -150h-63l-81 96l-79 -96h-64zM342 59c37.333 0 69.001 4.33203 95.001 12.999s45.167 20 57.5 34s21 27.833 26 41.5s7.5 28.167 7.5 43.5c0 55.333 -44.667 94.666 -134 117.999l-181 48c-95.333 24.667 -143 81.334 -143 170.001
c0 66 23.167 118.167 69.5 156.5s109.5 57.5 189.5 57.5c84 0 149.333 -19.833 196 -59.5s70.334 -95.167 71.001 -166.5h-88c-0.666992 47.333 -16.667 83.833 -48 109.5s-76 38.5 -134 38.5c-49.333 0 -88.833 -11.333 -118.5 -34s-44.5 -52.334 -44.5 -89.001
c0 -28 9 -50 27 -66s49 -30 93 -42l183 -49c49.333 -13.333 87.5 -36 114.5 -68s40.5 -70.333 40.5 -115c0 -19.333 -2.5 -38.5 -7.5 -57.5s-14.167 -38.667 -27.5 -59s-30.333 -38.166 -51 -53.499s-48.167 -28 -82.5 -38s-73.166 -15 -116.499 -15
c-27.333 0 -53.5 2.16699 -78.5 6.5s-50.5 12.333 -76.5 24s-48.333 26.667 -67 45s-34.167 42.833 -46.5 73.5s-18.833 66 -19.5 106h88v-5c0 -20.667 3.16699 -40 9.5 -58s16.666 -35.667 30.999 -53s35.666 -31.166 63.999 -41.499s62.166 -15.5 101.499 -15.5z" />
    <glyph glyph-name="scircumflex" unicode="&#x15d;" horiz-adv-x="500" 
d="M202 720h95l96 -150h-63l-81 96l-79 -96h-64zM122 156c4 -31.333 14.8311 -56.1641 32.498 -74.4971s49.5 -27.5 95.5 -27.5c36.667 0 66.167 7.5 88.5 22.5s33.5 34.833 33.5 59.5c0 19.333 -6.33301 34.666 -19 45.999s-33.334 20.333 -62.001 27l-78 19
c-62 14.667 -105.167 33.167 -129.5 55.5s-36.5 54.166 -36.5 95.499c0 48.667 18.333 87.5 55 116.5s85.334 43.5 146.001 43.5s107.334 -14 140.001 -42s49.334 -67.667 50.001 -119h-88c-2 56 -37 84 -105 84c-34 0 -61 -7.16699 -81 -21.5s-30 -33.5 -30 -57.5
c0 -18.667 7.66699 -33.834 23 -45.501s40 -21.5 74 -29.5l80 -19c52 -12.667 89.667 -30.5 113 -53.5s35 -53.833 35 -92.5c0 -50.667 -19.5 -91 -58.5 -121s-91.5 -45 -157.5 -45c-135.333 0 -205 59.667 -209 179h88z" />
    <glyph glyph-name="Scedilla" unicode="&#x15e;" horiz-adv-x="667" 
d="M342 59c37.333 0 69.0039 4.33105 95.0039 12.998s45.167 20 57.5 34s21 27.833 26 41.5s7.5 28.167 7.5 43.5c0 55.333 -44.667 94.666 -134 117.999l-181 48c-95.333 24.667 -143 81.334 -143 170.001c0 66 23.167 118.167 69.5 156.5s109.5 57.5 189.5 57.5
c84 0 149.333 -19.833 196 -59.5s70.334 -95.167 71.001 -166.5h-88c-0.666992 47.333 -16.667 83.833 -48 109.5s-76 38.5 -134 38.5c-49.333 0 -88.833 -11.333 -118.5 -34s-44.5 -52.334 -44.5 -89.001c0 -28 9 -50 27 -66s49 -30 93 -42l183 -49
c49.333 -13.333 87.5 -36 114.5 -68s40.5 -70.333 40.5 -115c0 -26.667 -4 -51.5 -12 -74.5s-21.833 -45.833 -41.5 -68.5s-49.334 -41.167 -89.001 -55.5s-87.5 -22.833 -143.5 -25.5l-15 -32c9.33301 1.33301 18.666 2 27.999 2c25.333 0 44.833 -5.83301 58.5 -17.5
s20.5 -28.167 20.5 -49.5c0 -28.667 -11 -51.334 -33 -68.001s-52 -25 -90 -25c-31.333 0 -73 11.333 -125 34l21 40c4.66699 -2 12.167 -5.5 22.5 -10.5s18.5 -8.83301 24.5 -11.5s13.667 -5.16699 23 -7.5s18.666 -3.5 27.999 -3.5c15.333 0 28.166 4.33301 38.499 13
s15.5 19.334 15.5 32.001c0 24.667 -15.333 37 -46 37c-9.33301 0 -19.666 -2.33301 -30.999 -7l-11 6l31 69c-6 2 -9.66699 3 -11 3l-44 7c-59.333 12.667 -106.166 40.334 -140.499 83.001s-51.5 94.334 -51.5 155.001v7h88v-5c0 -20.667 3.16699 -40 9.5 -58
s16.666 -35.667 30.999 -53s35.666 -31.166 63.999 -41.499s62.166 -15.5 101.499 -15.5z" />
    <glyph glyph-name="scedilla" unicode="&#x15f;" horiz-adv-x="500" 
d="M122 156c4 -31.333 14.833 -56.165 32.5 -74.498s49.5 -27.5 95.5 -27.5c36.667 0 66.167 7.5 88.5 22.5s33.5 34.833 33.5 59.5c0 19.333 -6.33301 34.666 -19 45.999s-33.334 20.333 -62.001 27l-78 19c-62 14.667 -105.167 33.167 -129.5 55.5
s-36.5 54.166 -36.5 95.499c0 48.667 18.333 87.5 55 116.5s85.334 43.5 146.001 43.5s107.334 -14 140.001 -42s49.334 -67.667 50.001 -119h-88c-2 56 -37 84 -105 84c-34 0 -61 -7.16699 -81 -21.5s-30 -33.5 -30 -57.5c0 -18.667 7.66699 -33.834 23 -45.501
s40 -21.5 74 -29.5l80 -19c52 -12.667 89.667 -30.5 113 -53.5s35 -53.833 35 -92.5c0 -31.333 -8.66699 -60 -26 -86s-41.333 -45.667 -72 -59c-25.333 -11.333 -64.333 -18.666 -117 -21.999l-14 -32c9.33301 1.33301 18.666 2 27.999 2
c25.333 0 44.833 -5.83301 58.5 -17.5s20.5 -28.167 20.5 -49.5c0 -28.667 -11 -51.334 -33 -68.001s-52 -25 -90 -25c-31.333 0 -73 11.333 -125 34l21 40c4.66699 -2 12.167 -5.5 22.5 -10.5s18.5 -8.83301 24.5 -11.5s13.667 -5.16699 23 -7.5s18.666 -3.5 27.999 -3.5
c15.333 0 28.166 4.33301 38.499 13s15.5 19.334 15.5 32.001c0 24.667 -15.333 37 -46 37c-9.33301 0 -19.666 -2.33301 -30.999 -7l-11 6l31 71c-112 11.333 -169 70.333 -171 177h88z" />
    <glyph glyph-name="Scaron" unicode="&#x160;" horiz-adv-x="667" 
d="M380 775h-95l-96 150h63l81 -96l79 96h64zM342 59c37.333 0 69.001 4.33203 95.001 12.999s45.167 20 57.5 34s21 27.833 26 41.5s7.5 28.167 7.5 43.5c0 55.333 -44.667 94.666 -134 117.999l-181 48c-95.333 24.667 -143 81.334 -143 170.001
c0 66 23.167 118.167 69.5 156.5s109.5 57.5 189.5 57.5c84 0 149.333 -19.833 196 -59.5s70.334 -95.167 71.001 -166.5h-88c-0.666992 47.333 -16.667 83.833 -48 109.5s-76 38.5 -134 38.5c-49.333 0 -88.833 -11.333 -118.5 -34s-44.5 -52.334 -44.5 -89.001
c0 -28 9 -50 27 -66s49 -30 93 -42l183 -49c49.333 -13.333 87.5 -36 114.5 -68s40.5 -70.333 40.5 -115c0 -19.333 -2.5 -38.5 -7.5 -57.5s-14.167 -38.667 -27.5 -59s-30.333 -38.166 -51 -53.499s-48.167 -28 -82.5 -38s-73.166 -15 -116.499 -15
c-27.333 0 -53.5 2.16699 -78.5 6.5s-50.5 12.333 -76.5 24s-48.333 26.667 -67 45s-34.167 42.833 -46.5 73.5s-18.833 66 -19.5 106h88v-5c0 -20.667 3.16699 -40 9.5 -58s16.666 -35.667 30.999 -53s35.666 -31.166 63.999 -41.499s62.166 -15.5 101.499 -15.5z" />
    <glyph glyph-name="scaron" unicode="&#x161;" horiz-adv-x="500" 
d="M294 583h-95l-96 150h63l81 -96l79 96h64zM122 156c4 -31.333 14.8311 -56.1641 32.498 -74.4971s49.5 -27.5 95.5 -27.5c36.667 0 66.167 7.5 88.5 22.5s33.5 34.833 33.5 59.5c0 19.333 -6.33301 34.666 -19 45.999s-33.334 20.333 -62.001 27l-78 19
c-62 14.667 -105.167 33.167 -129.5 55.5s-36.5 54.166 -36.5 95.499c0 48.667 18.333 87.5 55 116.5s85.334 43.5 146.001 43.5s107.334 -14 140.001 -42s49.334 -67.667 50.001 -119h-88c-2 56 -37 84 -105 84c-34 0 -61 -7.16699 -81 -21.5s-30 -33.5 -30 -57.5
c0 -18.667 7.66699 -33.834 23 -45.501s40 -21.5 74 -29.5l80 -19c52 -12.667 89.667 -30.5 113 -53.5s35 -53.833 35 -92.5c0 -50.667 -19.5 -91 -58.5 -121s-91.5 -45 -157.5 -45c-135.333 0 -205 59.667 -209 179h88z" />
    <glyph glyph-name="Tcedilla" unicode="&#x162;" horiz-adv-x="611" 
d="M188 -139c6 -2.66699 14.499 -6.66797 25.499 -12.001s19.333 -9.16602 25 -11.499s12.834 -4.5 21.501 -6.5s17.334 -3 26.001 -3c15.333 0 28.166 4.33301 38.499 13s15.5 19.334 15.5 32.001c0 24.667 -15.333 37 -46 37c-10 0 -20.333 -2.66699 -31 -8l-12 7l42 91
h-32v647h-240v82h572v-82h-239v-647h-23l-23 -55c8.66699 1.33301 18 2 28 2c25.333 0 44.833 -5.83301 58.5 -17.5s20.5 -28.167 20.5 -49.5c0 -28.667 -11 -51.334 -33 -68.001s-52 -25 -90 -25c-31.333 0 -73 11.333 -125 34z" />
    <glyph glyph-name="tcedilla" unicode="&#x163;" horiz-adv-x="278" 
d="M66 -153c6 -2.66699 14.499 -6.66797 25.499 -12.001s19.333 -9.16602 25 -11.499s12.834 -4.5 21.501 -6.5s17.334 -3 26.001 -3c15.333 0 28.166 4.33301 38.499 13s15.5 19.334 15.5 32.001c0 24.667 -15.333 37 -46 37c-10 0 -20.333 -2.66699 -31 -8l-12 7l38 83
c-26.667 2.66699 -47 11 -61 25s-21 33 -21 57v396h-71v68h71v144h83v-144h86v-68h-86v-359c0 -18.667 3.16699 -31.167 9.5 -37.5s18.5 -9.5 36.5 -9.5c16.667 0 30 1.33301 40 4v-70c-18.667 -3.33301 -35 -5.33301 -49 -6l-19 -47c8.66699 1.33301 18 2 28 2
c25.333 0 44.833 -5.83301 58.5 -17.5s20.5 -28.167 20.5 -49.5c0 -28.667 -11 -51.334 -33 -68.001s-52 -25 -90 -25c-31.333 0 -73 11.333 -125 34z" />
    <glyph glyph-name="Tcaron" unicode="&#x164;" horiz-adv-x="611" 
d="M355 776h-95l-96 150h63l81 -96l79 96h64zM354 647v-647h-93v647h-240v82h572v-82h-239z" />
    <glyph glyph-name="tcaron" unicode="&#x165;" horiz-adv-x="443" 
d="M305 710l105.001 -0.00195312v-120c0 -87.333 -35 -131 -105 -131v38c23.333 0.666992 39.166 7.33398 47.499 20.001s12.5 36.334 12.5 71.001v18h-60v104zM254.001 523.998v-68h-86v-359c0 -18.667 3.16699 -31.167 9.5 -37.5s18.5 -9.5 36.5 -9.5
c16.667 0 30 1.33301 40 4v-70c-26 -4.66699 -48.667 -7 -68 -7c-32.667 0 -57.667 7.16699 -75 21.5s-26 34.833 -26 61.5v396h-71v68h71v144h83v-144h86z" />
    <glyph glyph-name="Tbar" unicode="&#x166;" horiz-adv-x="611" 
d="M120 357v72h141v218h-240v82h572v-82h-239v-218h141v-72h-141v-357h-93v357h-141z" />
    <glyph glyph-name="tbar" unicode="&#x167;" horiz-adv-x="278" 
d="M254 524v-68h-86v-144h79v-72h-79v-143c0 -18.667 3.16699 -31.167 9.5 -37.5s18.5 -9.5 36.5 -9.5c16.667 0 30 1.33301 40 4v-70c-26 -4.66699 -48.667 -7 -68 -7c-32.667 0 -57.667 7.16699 -75 21.5s-26 34.833 -26 61.5v180h-76v72h76v144h-71v68h71v144h83v-144h86
z" />
    <glyph glyph-name="Utilde" unicode="&#x168;" horiz-adv-x="722" 
d="M294 873c16.667 0 39.666 -6.16699 68.999 -18.5s50.666 -18.5 63.999 -18.5c16.667 0 29 12.333 37 37h58c-10 -69.333 -39.667 -104 -89 -104c-13.333 0 -36.666 6.33301 -69.999 19s-54.666 19 -63.999 19c-15.333 0 -26.333 -12.333 -33 -37h-58
c5.33301 32.667 15.5 58 30.5 76s33.5 27 55.5 27zM551.999 729l93 -0.000976562v-512c0 -73.333 -25.5 -131.666 -76.5 -174.999s-119.167 -65 -204.5 -65c-86.667 0 -154.834 21.5 -204.501 64.5s-74.5 101.5 -74.5 175.5v512h93v-512
c0 -52.667 16.833 -92.167 50.5 -118.5s78.834 -39.5 135.501 -39.5c58.667 0 104.667 14 138 42s50 66.667 50 116v512z" />
    <glyph glyph-name="utilde" unicode="&#x169;" horiz-adv-x="556" 
d="M203 703c16.667 0 39.666 -6.16699 68.999 -18.5s50.666 -18.5 63.999 -18.5c16.667 0 29 12.333 37 37h58c-10 -69.333 -39.667 -104 -89 -104c-13.333 0 -36.666 6.33301 -69.999 19s-54.666 19 -63.999 19c-15.333 0 -26.333 -12.333 -33 -37h-58
c5.33301 32.667 15.5 58 30.5 76s33.5 27 55.5 27zM481.999 0l-74.9971 0.00195312v73c-24.667 -34.667 -50.334 -59.334 -77.001 -74.001s-59.334 -22 -98.001 -22c-50.667 0 -91.167 13 -121.5 39s-45.5 60.667 -45.5 104v404h83v-371c0 -31.333 9.66699 -56.333 29 -75
s45.666 -28 78.999 -28c43.333 0 78 16.167 104 48.5s39 75.166 39 128.499v297h83v-524z" />
    <glyph glyph-name="Umacron" unicode="&#x16a;" horiz-adv-x="722" 
d="M502 870v-70h-274v70h274zM552 729l93 -0.000976562v-512c0 -73.333 -25.5 -131.666 -76.5 -174.999s-119.167 -65 -204.5 -65c-86.667 0 -154.834 21.5 -204.501 64.5s-74.5 101.5 -74.5 175.5v512h93v-512c0 -52.667 16.833 -92.167 50.5 -118.5
s78.834 -39.5 135.501 -39.5c58.667 0 104.667 14 138 42s50 66.667 50 116v512z" />
    <glyph glyph-name="umacron" unicode="&#x16b;" horiz-adv-x="556" 
d="M410 669v-70h-274v70h274zM482 0l-74.9971 0.00195312v73c-24.667 -34.667 -50.334 -59.334 -77.001 -74.001s-59.334 -22 -98.001 -22c-50.667 0 -91.167 13 -121.5 39s-45.5 60.667 -45.5 104v404h83v-371c0 -31.333 9.66699 -56.333 29 -75s45.666 -28 78.999 -28
c43.333 0 78 16.167 104 48.5s39 75.166 39 128.499v297h83v-524z" />
    <glyph glyph-name="Ubreve" unicode="&#x16c;" horiz-adv-x="722" 
d="M215 904l59 0.00195312c5.33301 -44 36 -66 92 -66c26.667 0 48 5.66699 64 17s25 27.666 27 48.999h59c-7.33301 -90 -58 -135 -152 -135c-24 0 -46 3.16699 -66 9.5s-38.667 20.166 -56 41.499s-26.333 49.333 -27 84zM552 729.002l93 -0.000976562v-512
c0 -73.333 -25.5 -131.666 -76.5 -174.999s-119.167 -65 -204.5 -65c-86.667 0 -154.834 21.5 -204.501 64.5s-74.5 101.5 -74.5 175.5v512h93v-512c0 -52.667 16.833 -92.167 50.5 -118.5s78.834 -39.5 135.501 -39.5c58.667 0 104.667 14 138 42s50 66.667 50 116v512z
" />
    <glyph glyph-name="ubreve" unicode="&#x16d;" horiz-adv-x="556" 
d="M123 727l59 0.00195312c5.33301 -44 36 -66 92 -66c26.667 0 48 5.66699 64 17s25 27.666 27 48.999h59c-7.33301 -90 -58 -135 -152 -135c-24 0 -46 3.16699 -66 9.5s-38.667 20.166 -56 41.499s-26.333 49.333 -27 84zM482 0.00195312l-74.9971 0.00195312v73
c-24.667 -34.667 -50.334 -59.334 -77.001 -74.001s-59.334 -22 -98.001 -22c-50.667 0 -91.167 13 -121.5 39s-45.5 60.667 -45.5 104v404h83v-371c0 -31.333 9.66699 -56.333 29 -75s45.666 -28 78.999 -28c43.333 0 78 16.167 104 48.5s39 75.166 39 128.499v297h83v-524
z" />
    <glyph glyph-name="Uring" unicode="&#x16e;" horiz-adv-x="722" 
d="M365 965c29.333 0 54.333 -10.334 75 -31.001s31 -45.667 31 -75c0 -28.667 -10.5 -53.167 -31.5 -73.5s-45.833 -30.5 -74.5 -30.5s-53.5 10.333 -74.5 31s-31.5 45.334 -31.5 74.001c0 28 10.5 52.5 31.5 73.5s45.833 31.5 74.5 31.5zM365 902.999
c-12 0 -22.333 -4.33301 -31 -13s-13 -18.667 -13 -30c0 -12 4.33301 -22.333 13 -31s19 -13 31 -13s22.333 4.33301 31 13s13 18.667 13 30c0 12.667 -4.16699 23.167 -12.5 31.5s-18.833 12.5 -31.5 12.5zM552 728.999l93 -0.000976562v-512
c0 -73.333 -25.5 -131.666 -76.5 -174.999s-119.167 -65 -204.5 -65c-86.667 0 -154.834 21.5 -204.501 64.5s-74.5 101.5 -74.5 175.5v512h93v-512c0 -52.667 16.833 -92.167 50.5 -118.5s78.834 -39.5 135.501 -39.5c58.667 0 104.667 14 138 42s50 66.667 50 116v512z
" />
    <glyph glyph-name="uring" unicode="&#x16f;" horiz-adv-x="556" 
d="M273 772c29.333 0 54.333 -10.334 75 -31.001s31 -45.667 31 -75c0 -28.667 -10.5 -53.167 -31.5 -73.5s-45.833 -30.5 -74.5 -30.5s-53.5 10.333 -74.5 31s-31.5 45.334 -31.5 74.001c0 28 10.5 52.5 31.5 73.5s45.833 31.5 74.5 31.5zM273 709.999
c-12 0 -22.333 -4.33301 -31 -13s-13 -18.667 -13 -30c0 -12 4.33301 -22.333 13 -31s19 -13 31 -13s22.333 4.33301 31 13s13 18.667 13 30c0 12.667 -4.16699 23.167 -12.5 31.5s-18.833 12.5 -31.5 12.5zM482 -0.000976562l-74.9971 0.00195312v73
c-24.667 -34.667 -50.334 -59.334 -77.001 -74.001s-59.334 -22 -98.001 -22c-50.667 0 -91.167 13 -121.5 39s-45.5 60.667 -45.5 104v404h83v-371c0 -31.333 9.66699 -56.333 29 -75s45.666 -28 78.999 -28c43.333 0 78 16.167 104 48.5s39 75.166 39 128.499v297h83v-524
z" />
    <glyph glyph-name="Uhungarumlaut" unicode="&#x170;" horiz-adv-x="722" 
d="M329 924h113l-149 -150h-60zM503 924h113l-149 -150h-60zM552 729l93 -0.000976562v-512c0 -73.333 -25.5 -131.666 -76.5 -174.999s-119.167 -65 -204.5 -65c-86.667 0 -154.834 21.5 -204.501 64.5s-74.5 101.5 -74.5 175.5v512h93v-512
c0 -52.667 16.833 -92.167 50.5 -118.5s78.834 -39.5 135.501 -39.5c58.667 0 104.667 14 138 42s50 66.667 50 116v512z" />
    <glyph glyph-name="uhungarumlaut" unicode="&#x171;" horiz-adv-x="556" 
d="M243 731h113l-149 -150h-60zM417 731h113l-149 -150h-60zM482 0l-74.9971 0.00195312v73c-24.667 -34.667 -50.334 -59.334 -77.001 -74.001s-59.334 -22 -98.001 -22c-50.667 0 -91.167 13 -121.5 39s-45.5 60.667 -45.5 104v404h83v-371
c0 -31.333 9.66699 -56.333 29 -75s45.666 -28 78.999 -28c43.333 0 78 16.167 104 48.5s39 75.166 39 128.499v297h83v-524z" />
    <glyph glyph-name="Uogonek" unicode="&#x172;" horiz-adv-x="722" 
d="M527 -205c-38 0 -69.6709 8.66602 -95.0039 25.999s-38 39.666 -38 66.999c0 20.667 5.66699 38.834 17 54.501s30 31.5 56 47.5c-38 -8.66699 -71.667 -13 -101 -13c-87.333 0 -156 21.333 -206 64s-75 101.334 -75 176.001v512h93v-512
c0 -52.667 16.833 -92.167 50.5 -118.5s78.834 -39.5 135.501 -39.5c58.667 0 104.667 14 138 42s50 66.667 50 116v512h93v-512c0 -34.667 -6.16699 -66.5 -18.5 -95.5s-27.166 -53 -44.499 -72s-34.666 -36.5 -51.999 -52.5s-32.166 -32.667 -44.499 -50
s-18.5 -35 -18.5 -53c0 -36 24 -54 72 -54c24.667 0 45.667 3.33301 63 10v-45c-32 -6.66699 -57 -10 -75 -10z" />
    <glyph glyph-name="uogonek" unicode="&#x173;" horiz-adv-x="556" 
d="M482 524l0.00390625 -523.999c-23.333 -13.333 -42 -29.833 -56 -49.5s-21 -39.167 -21 -58.5c0 -16 6 -28.667 18 -38s28.333 -14 49 -14c15.333 0 31.666 3.33301 48.999 10v-45l-24.5 -5c-13 -2.66699 -22.167 -4 -27.5 -4c-41.333 0 -74.333 8.33301 -99 25
s-37 39.334 -37 68.001c0 41.333 32 78.333 96 111h-22v73c-24.667 -34.667 -50.334 -59.334 -77.001 -74.001s-59.334 -22 -98.001 -22c-50.667 0 -91.167 13 -121.5 39s-45.5 60.667 -45.5 104v404h83v-371c0 -31.333 9.66699 -56.333 29 -75s45.666 -28 78.999 -28
c43.333 0 78 16.167 104 48.5s39 75.166 39 128.499v297h83z" />
    <glyph glyph-name="Wcircumflex" unicode="&#x174;" horiz-adv-x="944" 
d="M428 923h95l96 -150h-63l-81 96l-79 -96h-64zM744 0h-102l-168 599l-163 -599h-102l-187 729h104l137 -592l162 592h100l166 -592l134 592h104z" />
    <glyph glyph-name="wcircumflex" unicode="&#x175;" horiz-adv-x="722" 
d="M310 721h95l96 -150h-63l-81 96l-79 -96h-64zM554 0h-95l-106 411l-101 -411h-94l-152 524h92l107 -408l100 408h102l103 -408l104 408h94z" />
    <glyph glyph-name="Ycircumflex" unicode="&#x176;" horiz-adv-x="667" 
d="M290 920h95l96 -150h-63l-81 96l-79 -96h-64zM387 286v-286h-93v286l-281 443h115l214 -355l208 355h111z" />
    <glyph glyph-name="ycircumflex" unicode="&#x177;" horiz-adv-x="500" 
d="M202 719h95l96 -150h-63l-81 96l-79 -96h-64zM388 524l90.001 -0.000976562l-233 -634c-27.333 -72 -72.333 -108 -135 -108c-20.667 0 -39.334 4.33301 -56.001 13v75c18 -4 32.667 -6 44 -6c17.333 0 31 3.83301 41 11.5s18.667 20.834 26 39.501l32 83l-177 526h89
l134 -408z" />
    <glyph glyph-name="Ydieresis" unicode="&#x178;" horiz-adv-x="667" 
d="M482 881v-104h-104v104h104zM303 881v-104h-104v104h104zM387 286v-286h-93v286l-281 443h115l214 -355l208 355h111z" />
    <glyph glyph-name="Zacute" unicode="&#x179;" horiz-adv-x="611" 
d="M348 925h113l-149 -148h-60zM581 729v-84l-436 -563h438v-82h-555v82l438 565h-410v82h525z" />
    <glyph glyph-name="zacute" unicode="&#x17a;" horiz-adv-x="500" 
d="M278 731h113l-149 -148h-60zM443 524v-74l-311 -377h325v-73h-426v75l313 376h-292v73h391z" />
    <glyph glyph-name="Zdotaccent" unicode="&#x17b;" horiz-adv-x="611" 
d="M371 881v-104h-104v104h104zM581 729v-84l-436 -563h438v-82h-555v82l438 565h-410v82h525z" />
    <glyph glyph-name="zdotaccent" unicode="&#x17c;" horiz-adv-x="500" 
d="M299 729v-104h-104v104h104zM443 524v-74l-311 -377h325v-73h-426v75l313 376h-292v73h391z" />
    <glyph glyph-name="Zcaron" unicode="&#x17d;" horiz-adv-x="611" 
d="M366 776h-95l-96 150h63l81 -96l79 96h64zM581 729v-84l-436 -563h438v-82h-555v82l438 565h-410v82h525z" />
    <glyph glyph-name="zcaron" unicode="&#x17e;" horiz-adv-x="500" 
d="M298 583h-95l-96 150h63l81 -96l79 96h64zM443 524v-74l-311 -377h325v-73h-426v75l313 376h-292v73h391z" />
    <glyph glyph-name="longs" unicode="&#x17f;" horiz-adv-x="278" 
d="M171 0h-83v456h-70v68h70v89c0 37.333 10.833 66.5 32.5 87.5s51.834 31.5 90.501 31.5c15.333 0 31 -1.66699 47 -5v-69c-12.667 0.666992 -22.334 1 -29.001 1c-38.667 0 -58 -17.667 -58 -53v-606z" />
    <glyph glyph-name="uni0180" unicode="&#x180;" horiz-adv-x="556" 
d="M89 653l-0.000976562 76h83v-76h150v-53h-150v-139c42.667 52 96.334 78 161.001 78c67.333 0 121.5 -25.167 162.5 -75.5s61.5 -116.833 61.5 -199.5c0 -86.667 -20.667 -156.167 -62 -208.5s-96 -78.5 -164 -78.5c-65.333 0 -121.333 27.333 -168 82v-59h-74v600h-63
v53h63zM317.999 457c-44.667 0 -80.167 -18.168 -106.5 -54.501s-39.5 -85.166 -39.5 -146.499c0 -59.333 13.333 -107 40 -143s62 -54 106 -54c45.333 0 82 18.333 110 55s42 84.667 42 144s-14 107.333 -42 144s-64.667 55 -110 55z" />
    <glyph glyph-name="uni0181" unicode="&#x181;" horiz-adv-x="854" 
d="M586 82c32.667 0 59.332 7.16797 79.999 21.501s34.334 30.166 41.001 47.499s10 36 10 56c0 38 -11.333 68.5 -34 91.5s-55 34.5 -97 34.5h-227v-251h227zM684.998 531.001c0 77.333 -48.667 116 -146 116h-180v-232h180c97.333 0 146 38.667 146 116zM170.998 448.001
c-82 0 -122.997 51.335 -122.997 154.002c0 32.667 10.167 62 30.5 88s54.166 39 101.499 39h382c40.667 0 76 -6 106 -18s52.5 -27.833 67.5 -47.5s25.833 -39.334 32.5 -59.001s10 -39.834 10 -60.501c0 -74.667 -33.667 -127.667 -101 -159
c46.667 -18 80.5 -41 101.5 -69s31.5 -64 31.5 -108c0 -62.667 -19.667 -113 -59 -151s-91.333 -57 -156 -57h-329v642h-82c-32.667 0 -49 -19.333 -49 -58c0 -15.333 4.5 -28 13.5 -38s22.5 -15 40.5 -15c1.33301 0 4.66602 0.166992 9.99902 0.5s11.666 0.5 18.999 0.5
v-79c-16 -3.33301 -31.667 -5 -47 -5z" />
    <glyph glyph-name="uni0182" unicode="&#x182;" horiz-adv-x="668" 
d="M624 218c0 -24 -3.33203 -47.667 -9.99902 -71s-17.5 -46.5 -32.5 -69.5s-37.333 -41.667 -67 -56s-64.834 -21.5 -105.501 -21.5h-329v729h489v-82h-396v-212h180c180.667 0 271 -71.667 271 -215v-2zM531.001 217c0 15.333 -1.83301 30 -5.5 44s-9.66699 28.333 -18 43
s-21.833 26.5 -40.5 35.5s-41 13.5 -67 13.5h-227v-271h227c26 0 48.333 4.33301 67 13s32.167 20.5 40.5 35.5s14.333 29.333 18 43s5.5 28.167 5.5 43.5z" />
    <glyph glyph-name="uni0183" unicode="&#x183;" horiz-adv-x="556" 
d="M283 461c-44 0 -79.3311 -18.5 -105.998 -55.5s-40 -86.167 -40 -147.5s13.333 -110.5 40 -147.5s62 -55.5 106 -55.5c45.333 0 82.166 18.5 110.499 55.5s42.5 85.167 42.5 144.5c0 62.667 -13.833 112.667 -41.5 150s-64.834 56 -111.501 56zM54.002 0l-0.00195312 729
h391v-73h-308v-203c38 57.333 92 86 162 86c69.333 0 124 -24.667 164 -74s60 -116.333 60 -201c0 -86.667 -20.667 -156.167 -62 -208.5s-96.666 -78.5 -165.999 -78.5c-71.333 0 -126.666 30 -165.999 90v-67h-75z" />
    <glyph glyph-name="uni0184" unicode="&#x184;" horiz-adv-x="717" 
d="M222 82l212 -0.000976562c42.667 0 77.667 13.667 105 41s41 61.333 41 102c0 42.667 -13.5 77.334 -40.5 104.001s-62.167 40 -105.5 40h-212v-287zM129 728.999h93v-278h165c100 0 172.667 -20 218 -60s68 -94 68 -162v-3c0 -66 -21.667 -120.167 -65 -162.5
s-98.333 -63.5 -165 -63.5h-314v451l-128 139z" />
    <glyph glyph-name="uni0185" unicode="&#x185;" horiz-adv-x="596" 
d="M323 461c-44 0 -79.3311 -18.5 -105.998 -55.5s-40 -86.167 -40 -147.5s13.333 -110.5 40 -147.5s62 -55.5 106 -55.5c45.333 0 82.166 18.5 110.499 55.5s42.5 85.167 42.5 144.5c0 62.667 -13.833 112.667 -41.5 150s-64.834 56 -111.501 56zM94.002 729h82.998v-276
c38 57.333 92 86 162 86c69.333 0 124 -24.667 164 -74s60 -116.333 60 -201c0 -86.667 -20.667 -156.167 -62 -208.5s-96.666 -78.5 -165.999 -78.5c-71.333 0 -126.666 30 -165.999 90v-67h-75v451l-93 139z" />
    <glyph glyph-name="uni0186" unicode="&#x186;" horiz-adv-x="722" 
d="M677 362c0 -33.333 -2.83398 -66.334 -8.50098 -99.001s-16.5 -66.667 -32.5 -102s-35.833 -66.166 -59.5 -92.499s-55.667 -48.166 -96 -65.499s-85.833 -26 -136.5 -26c-158.667 0 -252.334 79.333 -281.001 238h95c10.667 -52 31.667 -91 63 -117s76 -39 134 -39
c70.667 0 126.5 27 167.5 81s61.5 127.667 61.5 221c0 91.333 -21.333 163.833 -64 217.5s-100.334 80.5 -173.001 80.5c-60 0 -106 -16.833 -138 -50.5s-53.667 -85.834 -65 -156.501h-96c22 192.667 122 289 300 289c50 0 94.833 -8.5 134.5 -25.5
s71.334 -38.5 95.001 -64.5s43.334 -56.5 59.001 -91.5s26.334 -68.5 32.001 -100.5s8.5 -64.333 8.5 -97z" />
    <glyph glyph-name="uni0187" unicode="&#x187;" horiz-adv-x="767" 
d="M48 356c0 33.333 2.83594 66.334 8.50293 99.001s16.5 66.667 32.5 102s35.833 66.166 59.5 92.499s55.667 48.166 96 65.499s85.833 26 136.5 26c92 0 162 -26.333 210 -79c20.667 39.333 57.667 59 111 59c15.333 0 31 -1.66699 47 -5v-79
c-12.667 0.666992 -22.334 1 -29.001 1c-20 0 -34.667 -4 -44 -12s-14 -21.667 -14 -41v-82h-95c-10.667 52 -31.667 91 -63 117s-76 39 -134 39c-70.667 0 -126.5 -27 -167.5 -81s-61.5 -127.667 -61.5 -221c0 -91.333 21.333 -163.833 64 -217.5
s100.334 -80.5 173.001 -80.5c60 0 106 16.833 138 50.5s53.667 85.834 65 156.501h96c-22 -192.667 -122 -289 -300 -289c-50 0 -94.833 8.5 -134.5 25.5s-71.334 38.5 -95.001 64.5s-43.334 56.5 -59.001 91.5s-26.334 68.5 -32.001 100.5s-8.5 64.333 -8.5 97z" />
    <glyph glyph-name="uni0188" unicode="&#x188;" horiz-adv-x="575" 
d="M404 494c16.667 41.333 52.332 61.998 106.999 61.998c15.333 0 31 -1.66699 47 -5v-69c-12.667 0.666992 -22.334 1 -29.001 1c-20 0 -34.667 -4 -44 -12s-14 -21.667 -14 -41v-82h-84c-5.33301 36.667 -18.666 64.834 -39.999 84.501s-49.333 29.5 -84 29.5
c-45.333 0 -80.833 -18.5 -106.5 -55.5s-38.5 -88.167 -38.5 -153.5c0 -62 13 -110.667 39 -146s62 -53 108 -53c71.333 0 114 42 128 126h84c-5.33301 -64 -26.666 -113.833 -63.999 -149.5s-87.333 -53.5 -150 -53.5c-71.333 0 -127.833 24.833 -169.5 74.5
s-62.5 116.834 -62.5 201.501c0 86.667 21.167 156 63.5 208s98.833 78 169.5 78c56 0 102.667 -15 140 -45z" />
    <glyph glyph-name="uni0189" unicode="&#x189;" horiz-adv-x="722" 
d="M89 339h-69v67h69v323h282c92 0 164.333 -32.333 217 -97s79 -153.667 79 -267s-26.333 -202.5 -79 -267.5s-125 -97.5 -217 -97.5h-282v339zM182 339v-257.001h173c71.333 0 125.666 24 162.999 72s56 118.333 56 211s-18.667 162.834 -56 210.501
s-91.666 71.5 -162.999 71.5h-173v-241h171v-67h-171z" />
    <glyph glyph-name="uni018A" unicode="&#x18a;" horiz-adv-x="899" 
d="M359 82h172c72 0 126.667 24 164 72s56 118 56 210c0 92.667 -18.667 163 -56 211s-92 72 -164 72h-172v-565zM171 448c-82 0 -122.998 51.333 -122.998 154c0 32.667 10.167 62 30.5 88s54.166 39 101.499 39h367c92.667 0 165.334 -32.333 218.001 -97
s79 -153.667 79 -267s-26.5 -202.5 -79.5 -267.5s-125.5 -97.5 -217.5 -97.5h-281v642h-82c-32.667 0 -49 -19.333 -49 -58c0 -15.333 4.5 -28 13.5 -38s22.5 -15 40.5 -15c1.33301 0 4.66602 0.166992 9.99902 0.5s11.666 0.5 18.999 0.5v-79
c-16 -3.33301 -31.667 -5 -47 -5z" />
    <glyph glyph-name="uni018B" unicode="&#x18b;" horiz-adv-x="667" 
d="M79 218l0.000976562 2c0 143.333 90.333 215 271 215h180v212h-396v82h489v-729h-329c-40.667 0 -75.834 7.16699 -105.501 21.5s-52 33 -67 56s-25.833 46.167 -32.5 69.5s-10 47 -10 71zM172.001 217c0 -15.333 1.83301 -29.833 5.5 -43.5s9.66699 -28 18 -43
s21.833 -26.833 40.5 -35.5s41 -13 67 -13h227v271h-227c-26 0 -48.333 -4.5 -67 -13.5s-32.167 -20.833 -40.5 -35.5s-14.333 -29 -18 -43s-5.5 -28.667 -5.5 -44z" />
    <glyph glyph-name="uni018C" unicode="&#x18c;" horiz-adv-x="556" 
d="M294 461c-46.667 0 -83.832 -18.667 -111.499 -56s-41.5 -87.333 -41.5 -150c0 -59.333 14.167 -107.5 42.5 -144.5s65.166 -55.5 110.499 -55.5c44 0 79.333 18.5 106 55.5s40 86.167 40 147.5s-13.333 110.5 -40 147.5s-62 55.5 -106 55.5zM523.002 0h-75.002v67
c-39.333 -60 -94.666 -90 -165.999 -90c-69.333 0 -124.666 26.167 -165.999 78.5s-62 121.833 -62 208.5c0 84.667 20 151.667 60 201s94.667 74 164 74c70 0 124 -28.667 162 -86v203h-308v73h391v-729z" />
    <glyph glyph-name="uni018D" unicode="&#x18d;" horiz-adv-x="564" 
d="M530 290c0 -76.667 -19.666 -138.668 -58.999 -186.001s-90.666 -71 -153.999 -71c-6.66699 0 -18 1.33301 -34 4l211 -162v-72h-398v72h269l-175 138c-0.666992 0.666992 -6 4.66699 -16 12s-16.5 12 -19.5 14s-9.33301 7.16699 -19 15.5s-16.667 15 -21 20l-19 22.5
c-8.33301 10 -14.5 19.167 -18.5 27.5l-15 31c-6 12.333 -10.333 24.5 -13 36.5s-5.16699 25.833 -7.5 41.5s-3.5 31.834 -3.5 48.501c0 91.333 20.167 158.5 60.5 201.5s104.833 64.5 193.5 64.5c21.333 0 42.166 -2.33301 62.499 -7s41.333 -13 63 -25
s40.667 -27.333 57 -46s29.666 -43.5 39.999 -74.5s15.5 -66.167 15.5 -105.5zM286.001 99.999c46.667 0 83.667 17.168 111 51.501s41.666 77.833 42.999 130.5c0 60.667 -13.333 106.5 -40 137.5s-62.667 46.5 -108 46.5h-28c-31.333 0 -54.333 -5.33301 -69 -16
c-21.333 -16 -38.166 -39.5 -50.499 -70.5s-18.5 -64.167 -18.5 -99.5c0 -54.667 13.667 -98.334 41 -131.001s67 -49 119 -49z" />
    <glyph glyph-name="uni018E" unicode="&#x18e;" horiz-adv-x="667" 
d="M520 332h-397v82h397v233h-412v82h505v-729h-523v82h430v250z" />
    <glyph glyph-name="uni018F" unicode="&#x18f;" horiz-adv-x="722" 
d="M155 252c3.33301 -22 6.66699 -40.5 10 -55.5s9.5 -32 18.5 -51s19.833 -34.167 32.5 -45.5s30.167 -21 52.5 -29s48.5 -12 78.5 -12c57.333 0 105.5 17 144.5 51s65.833 81.333 80.5 142h-417zM677.001 356c0 -32.667 -2.83105 -65.001 -8.49805 -97.001
s-16.334 -65.5 -32.001 -100.5s-35.334 -65.5 -59.001 -91.5s-55.334 -47.5 -95.001 -64.5s-84.5 -25.5 -134.5 -25.5c-200 0 -300.333 119 -301 357h536c0.666992 5.33301 1 13 1 23c0 93.333 -20.5 167 -61.5 221s-96.833 81 -167.5 81c-58 0 -102.667 -12.833 -134 -38.5
s-52.333 -64.834 -63 -117.501h-95c28.667 158.667 122.334 238 281.001 238c50.667 0 96.167 -8.66699 136.5 -26s72.333 -39.166 96 -65.499s43.5 -57.166 59.5 -92.499s26.833 -69.333 32.5 -102s8.5 -65.667 8.5 -99z" />
    <glyph glyph-name="Epsilonlatin" unicode="&#x190;" horiz-adv-x="667" 
d="M333 -23c-54 0 -100.663 7.16992 -139.996 21.5029s-69 33.333 -89 57s-34.333 47.334 -43 71.001s-13 48.167 -13 73.5c0 83.333 43.333 141.333 130 174c-70 30 -105 81 -105 153c0 66 23.167 118.167 69.5 156.5s109.5 57.5 189.5 57.5
c84 0 149.333 -19.833 196 -59.5s70.334 -95.167 71.001 -166.5h-88c-0.666992 47.333 -16.667 83.833 -48 109.5s-76 38.5 -134 38.5c-49.333 0 -88.833 -11.333 -118.5 -34s-44.5 -52.334 -44.5 -89.001c0 -30.667 15.833 -61.167 47.5 -91.5s68.5 -45.5 110.5 -45.5h88
v-82h-108c-44.667 0 -83 -14 -115 -42s-48 -57.333 -48 -88c0 -14.667 2.5 -28.834 7.5 -42.501s13.667 -27.667 26 -42s31.5 -25.833 57.5 -34.5s57.667 -13 95 -13c39.333 0 73.166 5 101.499 15s49.666 23.667 63.999 41s24.666 35.166 30.999 53.499
s9.5 37.833 9.5 58.5v5h88c-0.666992 -49.333 -10 -91.5 -28 -126.5s-41.833 -61.333 -71.5 -79s-59.834 -30.334 -90.501 -38.001s-63.334 -11.5 -98.001 -11.5z" />
    <glyph glyph-name="uni0191" unicode="&#x191;" horiz-adv-x="611" 
d="M90 -76v805h489v-82h-396v-233h348v-82h-348v-441c0 -35.333 -13.5 -62.333 -40.5 -81s-64.5 -28 -112.5 -28c-8.66699 0 -18 1 -28 3v81c11.333 -0.666992 18 -1 20 -1c45.333 0 68 19.667 68 59z" />
    <glyph glyph-name="florin" unicode="&#x192;" horiz-adv-x="278" 
d="M258 524v-68h-87v-565c0 -72.667 -47.667 -109 -143 -109c-8.66699 0 -18 1 -28 3v71c11.333 -0.666992 18 -1 20 -1c25.333 0 43 5 53 15s15 28 15 54v532h-70v68h70v89c0 37.333 10.833 66.5 32.5 87.5s51.834 31.5 90.501 31.5c15.333 0 31 -1.66699 47 -5v-69
c-12.667 0.666992 -22.334 1 -29.001 1c-38.667 0 -58 -17.667 -58 -53v-82h87z" />
    <glyph glyph-name="uni0193" unicode="&#x193;" horiz-adv-x="802" 
d="M137 362c0 -25.333 2.33496 -50.834 7.00195 -76.501s13 -52.5 25 -80.5s27.5 -52.5 46.5 -73.5s44.167 -38.333 75.5 -52s67 -20.5 107 -20.5c66.667 0 121.5 21 164.5 63s64.5 95.667 64.5 161v20h-222v82h304v-389h-59l-23 97
c-69.333 -77.333 -152.333 -116 -249 -116c-98.667 0 -179 35.333 -241 106s-93 162 -93 274c0 32 3 64.167 9 96.5s17.333 66.166 34 101.499s37.5 66.333 62.5 93s58.667 48.834 101 66.501s90.166 26.5 143.499 26.5c97.333 0 174 -27.333 230 -82
c18.667 44.667 57 67 115 67c15.333 0 31 -1.66699 47 -5v-79c-12.667 0.666992 -22.334 1 -29.001 1c-20 0 -34.667 -4 -44 -12s-14 -21.667 -14 -41v-82h-95c-10 46.667 -33.833 83.5 -71.5 110.5s-84.167 40.5 -139.5 40.5c-77.333 0 -139.333 -27.167 -186 -81.5
s-70 -126.166 -70 -215.499z" />
    <glyph glyph-name="uni0194" unicode="&#x194;" horiz-adv-x="667" 
d="M342 67c19.333 0 29 12 29 36c0 23.333 -9.33301 53.666 -28 90.999c-21.333 -39.333 -32 -69.666 -32 -90.999c0 -12 3.16699 -21 9.5 -27s13.5 -9 21.5 -9zM217 102c0 20.667 3.99902 41.333 11.999 62s29.667 61.334 65 122.001l-281 443h115l214 -355l208 355h111
l-274 -443c51.333 -68.667 77 -127.334 77 -176.001c0 -41.333 -12 -74.5 -36 -99.5s-52.667 -37.5 -86 -37.5c-29.333 0 -54.166 8.83301 -74.499 26.5s-33.833 35.667 -40.5 54s-10 34.5 -10 48.5z" />
    <glyph glyph-name="uni0195" unicode="&#x195;" horiz-adv-x="889" 
d="M559 -23h-55.0029c-32.667 0 -57.667 7.16699 -75 21.5s-26 34.833 -26 61.5v303c0 36.667 -11.167 63 -33.5 79s-47.166 24 -74.499 24c-42.667 0 -77 -16.167 -103 -48.5s-39 -75.166 -39 -128.499v-289h-83v729h83v-277c24.667 32 49.5 54.5 74.5 67.5
s56.167 19.5 93.5 19.5c50.667 0 90.834 -12.833 120.501 -38.5s44.5 -60.5 44.5 -104.5v-299c0 -31.333 24.333 -47 73 -47c30 0 56.667 5.83301 80 17.5s41.333 25.667 54 42s23 34.666 31 54.999s13.333 37.666 16 51.999s4 26.833 4 37.5
c0 30.667 -8.83301 65.334 -26.5 104.001s-50.5 75 -98.5 109l102 4c32.667 -25.333 59.5 -58.833 80.5 -100.5s31.5 -82.167 31.5 -121.5c0 -12.667 -2.33301 -29 -7 -49s-13.5 -43.333 -26.5 -70s-29.333 -51 -49 -73s-46.167 -40.833 -79.5 -56.5
s-70.666 -23.5 -111.999 -23.5z" />
    <glyph glyph-name="uni0196" unicode="&#x196;" horiz-adv-x="278" 
d="M149 729v-632c0 -18.667 3.16699 -31.167 9.5 -37.5s18.5 -9.5 36.5 -9.5c16.667 0 30 1.33301 40 4v-70c-26 -4.66699 -48.667 -7 -68 -7c-32.667 0 -57.667 7.16699 -75 21.5s-26 34.833 -26 61.5v669h83z" />
    <glyph glyph-name="uni0197" unicode="&#x197;" horiz-adv-x="345" 
d="M125 339h-119v67h119v323h94v-323h120v-67h-120v-339h-94v339z" />
    <glyph glyph-name="uni0198" unicode="&#x198;" horiz-adv-x="667" 
d="M172 255v-255h-93v729h93v-369l288 295c43.333 40.667 85.333 61 126 61c34.667 0 63.334 -10.333 86.001 -31l-56 -62c-6.66699 6.66699 -15.334 10 -26.001 10c-21.333 0 -42.333 -10.333 -63 -31l-169 -170l300 -432h-110l-257 374z" />
    <glyph glyph-name="uni0199" unicode="&#x199;" horiz-adv-x="500" 
d="M58 0v613c0 37.333 10.833 66.5 32.5 87.5s51.834 31.5 90.501 31.5c15.333 0 31 -1.66699 47 -5v-69c-12.667 0.666992 -22.334 1 -29.001 1c-38.667 0 -58 -17.667 -58 -53v-304l222 222h107l-182 -181l214 -343h-103l-177 284l-81 -80v-204h-83z" />
    <glyph glyph-name="uni019A" unicode="&#x19a;" horiz-adv-x="345" 
d="M130 339h-124v67h124v323h84v-323h125v-67h-125v-339h-84v339z" />
    <glyph glyph-name="uni019B" unicode="&#x19b;" horiz-adv-x="560" 
d="M132 732c28 0 51.668 -6 71.001 -18s39 -35.667 59 -71l136 95v-76l-111 -77l187 -493c5.33301 -12.667 14.666 -19 27.999 -19c3.33301 0 9.33301 1.33301 18 4s14 5 16 7l20 -70c-32 -16 -59 -24 -81 -24c-16.667 0 -30.5 4 -41.5 12s-18.833 16.5 -23.5 25.5
s-10 22.5 -16 40.5l-122 354l-146 -420h-96l198 520l-6 18l-168 -116v77c3.33301 0 51.333 32.667 144 98c-10.667 19.333 -22.167 32 -34.5 38s-26.833 9 -43.5 9l-54 -8l10 82c22 8 40.667 12 56 12z" />
    <glyph glyph-name="uni019C" unicode="&#x19c;" horiz-adv-x="833" 
d="M768 0l-83 -0.000976562v74c-22.667 -31.333 -46.5 -54 -71.5 -68s-54.833 -21 -89.5 -21c-64.667 0 -111.667 26.667 -141 80c-24.667 -29.333 -49 -50 -73 -62s-53.333 -18 -88 -18c-49.333 0 -88 12.667 -116 38s-42 61.333 -42 108v598h95v-555
c0 -33.333 7.83301 -59.166 23.5 -77.499s38.5 -27.5 68.5 -27.5c34 0 62.167 13.167 84.5 39.5s33.5 58.833 33.5 97.5v523h95v-555c0 -70 30.333 -105 91 -105c34 0 62.167 13.167 84.5 39.5s33.5 58.833 33.5 97.5v523h95v-729z" />
    <glyph glyph-name="uni019D" unicode="&#x19d;" horiz-adv-x="722" 
d="M76 -76v805h101l381 -596v596h88v-729h-105l-377 591v-700c0 -35.333 -12.833 -62.333 -38.5 -81s-62.167 -28 -109.5 -28c-8.66699 0 -18 1 -28 3v76c11.333 -0.666992 18 -1 20 -1c45.333 0 68 21.333 68 64z" />
    <glyph glyph-name="uni019E" unicode="&#x19e;" horiz-adv-x="556" 
d="M70 524l76.999 -0.000976562v-88c23.333 36.667 48.5 63 75.5 79s59.833 24 98.5 24c50.667 0 91 -13 121 -39s45 -60.667 45 -104v-596h-83v563c0 31.333 -9.66699 56.333 -29 75s-45.666 28 -78.999 28c-42.667 0 -77 -16.167 -103 -48.5s-39 -75.166 -39 -128.499
v-289h-84v524z" />
    <glyph glyph-name="Obar" unicode="&#x19f;" horiz-adv-x="778" 
d="M742 353c0 -108 -32.001 -197.667 -96.001 -269s-149.333 -107 -256 -107c-105.333 0 -190.333 35.167 -255 105.5s-97 162.5 -97 276.5s32.333 206.167 97 276.5s149.334 105.5 254.001 105.5c106.667 0 192.167 -35.333 256.5 -106s96.5 -164.667 96.5 -282z
M647.999 385c-5.33301 83.333 -31.167 149.833 -77.5 199.5s-106.833 74.5 -181.5 74.5c-72.667 0 -132.5 -25 -179.5 -75s-72.833 -116.333 -77.5 -199h516zM646.998 315h-514.001c8 -78 35.167 -140.167 81.5 -186.5s104.833 -69.5 175.5 -69.5s129.334 23.333 176.001 70
s73.667 108.667 81 186z" />
    <glyph glyph-name="Ohorn" unicode="&#x1a0;" horiz-adv-x="788" 
d="M389 659c-77.333 0 -139.667 -27.5 -187 -82.5s-71 -127.5 -71 -217.5s23.833 -162.5 71.5 -217.5s110.167 -82.5 187.5 -82.5s139.833 27.333 187.5 82s71.5 126 71.5 214c0 92 -23.667 165.667 -71 221s-110.333 83 -189 83zM741.999 353
c0 -108 -32.001 -197.665 -96.001 -268.998s-149.333 -107 -256 -107c-105.333 0 -190.333 35.167 -255 105.5s-97 162.5 -97 276.5s32.333 206.167 97 276.5s149.334 105.5 254.001 105.5c41.333 0 80 -6 116 -18s65 -24 87 -36s37 -18 45 -18c16.667 0 29 0.5 37 1.5
s15 3.66699 21 8s9 11.166 9 20.499c0 15.333 -5.66699 29.666 -17 42.999l64 54c24.667 -28.667 37 -61.667 37 -99c0 -62 -35.667 -98.333 -107 -109c40.667 -64.667 61 -143 61 -235z" />
    <glyph glyph-name="ohorn" unicode="&#x1a1;" horiz-adv-x="565" 
d="M273 462c-46.667 0 -83.335 -18.1689 -110.002 -54.502s-40 -86.166 -40 -149.499s13.333 -113.166 40 -149.499s63.334 -54.5 110.001 -54.5c46 0 82.5 18.167 109.5 54.5s40.5 85.166 40.5 146.499c0 64.667 -13.167 115.334 -39.5 152.001s-63.166 55 -110.499 55z
M527.999 630.998c24.667 -28.667 37.001 -61.667 37.001 -99c0 -57.333 -30.667 -92.666 -92 -105.999c24.667 -46 37 -103.333 37 -172c0 -86 -21.167 -153.667 -63.5 -203s-100.166 -74 -173.499 -74c-74.667 0 -132.834 24.833 -174.501 74.5s-62.5 118.5 -62.5 206.5
s21 156.833 63 206.5s99.667 74.5 173 74.5c37.333 0 69.666 -5.83301 96.999 -17.5s45.333 -17.5 54 -17.5c20.667 0 35.5 2 44.5 6s13.5 12 13.5 24c0 15.333 -5.66699 29.666 -17 42.999z" />
    <glyph glyph-name="uni01A2" unicode="&#x1a2;" horiz-adv-x="944" 
d="M389 659c-77.333 0 -139.667 -27.5 -187 -82.5s-71 -127.5 -71 -217.5s23.833 -162.5 71.5 -217.5s110.167 -82.5 187.5 -82.5s139.833 27.333 187.5 82s71.5 126 71.5 214c0 92 -23.667 165.667 -71 221s-110.333 83 -189 83zM741.999 353
c0 -108 -31.999 -197.667 -95.999 -269s-149.333 -107 -256 -107c-105.333 0 -190.333 35.167 -255 105.5s-97 162.5 -97 276.5s32.333 206.167 97 276.5s149.334 105.5 254.001 105.5c75.333 0 141.666 -18.667 198.999 -56c56 40.667 116 61 180 61
c55.333 0 95.166 -17.167 119.499 -51.5s36.5 -79.5 36.5 -135.5v-559h-94v589c0 20 -5.16699 38.833 -15.5 56.5s-27.833 26.5 -52.5 26.5c-25.333 0 -45 -3.33301 -59 -10s-30.333 -18.667 -49 -36c58.667 -70 88 -161 88 -273z" />
    <glyph glyph-name="uni01A3" unicode="&#x1a3;" horiz-adv-x="722" 
d="M273 462c-46.667 0 -83.335 -18.1689 -110.002 -54.502s-40 -86.166 -40 -149.499s13.333 -113.166 40 -149.499s63.334 -54.5 110.001 -54.5c46 0 82.5 18.167 109.5 54.5s40.5 85.166 40.5 146.499c0 64.667 -13.167 115.334 -39.5 152.001s-63.166 55 -110.499 55z
M671.999 368.998v-568.999h-84v589c0 26 -3.66699 46 -11 60s-22.333 21 -45 21c-26 0 -50.667 -6.33301 -74 -19c34.667 -48.667 52 -114.334 52 -197.001c0 -86 -21.167 -153.667 -63.5 -203s-100.166 -74 -173.499 -74c-74.667 0 -132.834 24.833 -174.501 74.5
s-62.5 118.5 -62.5 206.5s21 156.833 63 206.5s99.667 74.5 173 74.5c56 0 102.667 -13.667 140 -41c42.667 27.333 84.667 41 126 41c46.667 0 80.667 -12.167 102 -36.5s32 -68.833 32 -133.5z" />
    <glyph glyph-name="uni01A4" unicode="&#x1a4;" horiz-adv-x="842" 
d="M359 391h194c44.667 0 79.5 11.333 104.5 34s37.5 54 37.5 94s-12.5 71.333 -37.5 94s-59.833 34 -104.5 34h-194v-256zM792 515c0 -62 -18.8291 -111.833 -56.4961 -149.5s-86.834 -56.5 -147.501 -56.5h-229v-309h-93v642h-82c-32.667 0 -49 -19.333 -49 -58
c0 -15.333 4.5 -28 13.5 -38s22.5 -15 40.5 -15c1.33301 0 4.66602 0.166992 9.99902 0.5s11.666 0.5 18.999 0.5v-79c-16 -3.33301 -31.667 -5 -47 -5c-82 0 -123 51.333 -123 154c0 32.667 10.167 62 30.5 88s54.166 39 101.499 39h387c72 0 127.5 -18.5 166.5 -55.5
s58.5 -89.833 58.5 -158.5z" />
    <glyph glyph-name="uni01A5" unicode="&#x1a5;" horiz-adv-x="556" 
d="M284 461c-44 0 -79.333 -18.5 -106 -55.5s-40 -86.167 -40 -147.5s13.333 -110.5 40 -147.5s62 -55.5 106 -55.5c45.333 0 82 18.5 110 55.5s42 85.167 42 144.5c0 62.667 -13.833 112.667 -41.5 150s-64.5 56 -110.5 56zM131 606l0.00292969 -161.001
c39.333 62.667 95 94 167 94c69.333 0 124.166 -25.667 164.499 -77s60.5 -121 60.5 -209c0 -83.333 -20.5 -150.166 -61.5 -200.499s-95.167 -75.5 -162.5 -75.5c-64.667 0 -118.334 26 -161.001 78v-273h-84v831c0 38 10.333 67.333 31 88s50 31 88 31
c14 0 29 -1.66699 45 -5v-69c-12.667 0.666992 -22.334 1 -29.001 1c-38.667 0 -58 -17.667 -58 -53z" />
    <glyph glyph-name="uni01A6" unicode="&#x1a6;" horiz-adv-x="666" 
d="M184 271h194c43.333 0 77.166 11.333 101.499 34s36.5 54 36.5 94s-12.167 71.333 -36.5 94s-58.166 34 -101.499 34h-194v-256zM184 189l0.000976562 -189.001h-93v729h93v-120h208c69.333 0 124 -18.833 164 -56.5s60 -89.5 60 -155.5
c0 -77.333 -28.667 -135.333 -86 -174c48.667 -28.667 73 -91 73 -187c0 -74 14.333 -120 43 -138v-23h-113c-13.333 30.667 -20 70.334 -20 119.001v65c0 44.667 -9.83301 77.5 -29.5 98.5s-49.834 31.5 -90.501 31.5h-209z" />
    <glyph glyph-name="uni01A7" unicode="&#x1a7;" horiz-adv-x="667" 
d="M327 59c39.333 0 73.167 5.16797 101.5 15.501s49.666 24.166 63.999 41.499s24.666 35 30.999 53s9.5 37.333 9.5 58v5h88c-0.666992 -40 -7.16699 -75.333 -19.5 -106s-27.833 -55.167 -46.5 -73.5s-41 -33.333 -67 -45s-51.5 -19.667 -76.5 -24
s-51.167 -6.5 -78.5 -6.5c-43.333 0 -82.166 5 -116.499 15s-61.833 22.667 -82.5 38s-37.667 33.166 -51 53.499s-22.5 40 -27.5 59s-7.5 38.167 -7.5 57.5c0 44.667 13.5 83 40.5 115s65.167 54.667 114.5 68l183 49c44 12 75 26 93 42s27 38 27 66
c0 36.667 -14.833 66.334 -44.5 89.001s-69.167 34 -118.5 34c-58 0 -102.667 -12.833 -134 -38.5s-47.333 -62.167 -48 -109.5h-88c0.666992 71.333 24.334 126.833 71.001 166.5s112 59.5 196 59.5c80 0 143.167 -19.167 189.5 -57.5s69.5 -90.5 69.5 -156.5
c0 -88.667 -47.667 -145.334 -143 -170.001l-181 -48c-89.333 -23.333 -134 -62.666 -134 -117.999c0 -15.333 2.5 -29.833 7.5 -43.5s13.667 -27.5 26 -41.5s31.5 -25.333 57.5 -34s57.667 -13 95 -13z" />
    <glyph glyph-name="uni01A8" unicode="&#x1a8;" horiz-adv-x="500" 
d="M371 156l87.998 -0.00195312c-4 -119.333 -73.667 -179 -209 -179c-66 0 -118.5 15 -157.5 45s-58.5 70.333 -58.5 121c0 38.667 11.667 69.5 35 92.5s61 40.833 113 53.5l80 19c34 8 58.667 17.833 74 29.5s23 26.834 23 45.501c0 24 -10 43.167 -30 57.5
s-47 21.5 -81 21.5c-68 0 -103 -28 -105 -84h-88c0.666992 51.333 17.334 91 50.001 119s79.334 42 140.001 42s109.334 -14.5 146.001 -43.5s55 -67.833 55 -116.5c0 -41.333 -12.167 -73.166 -36.5 -95.499s-67.5 -40.833 -129.5 -55.5l-78 -19
c-28.667 -6.66699 -49.334 -15.667 -62.001 -27s-19 -26.666 -19 -45.999c0 -24.667 11.167 -44.5 33.5 -59.5s51.833 -22.5 88.5 -22.5c46 0 77.667 9.16699 95 27.5s28.333 43.166 33 74.499z" />
    <glyph glyph-name="uni01A9" unicode="&#x1a9;" horiz-adv-x="611" 
d="M247 365l-217 280v84h525v-82h-410l219 -282l-219 -283h438v-82h-555v82z" />
    <glyph glyph-name="uni01AA" unicode="&#x1aa;" horiz-adv-x="333" 
d="M105 670c-16.667 0 -31.167 -6 -43.5 -18s-18.5 -26 -18.5 -42c0 -16.667 6.16699 -31 18.5 -43s26.833 -18 43.5 -18s31.167 6 43.5 18s18.5 26 18.5 42c0 17.333 -6 31.833 -18 43.5s-26.667 17.5 -44 17.5zM145 494c-12 -4.66699 -25.332 -6.99902 -39.999 -6.99902
c-33.333 0 -62.166 12.167 -86.499 36.5s-36.5 53.166 -36.5 86.499s12.167 62 36.5 86s53.166 36 86.499 36c38 0 68 -11.333 90 -34s33 -52.667 33 -90v-684c0 -26 5.16699 -44 15.5 -54s28.166 -15 53.499 -15c2 0 8.66699 0.333008 20 1v-71c-10 -2 -19.333 -3 -28 -3
c-96 0 -144 36.333 -144 109v603z" />
    <glyph glyph-name="uni01AB" unicode="&#x1ab;" horiz-adv-x="278" 
d="M170 -22c-27.333 2 -48.333 10.167 -63 24.5s-22 33.5 -22 57.5v396h-71v68h71v144h83v-144h86v-68h-86v-359c0 -18.667 3.16699 -31.167 9.5 -37.5s18.5 -9.5 36.5 -9.5c16.667 0 30 1.33301 40 4v-163c0 -72.667 -48 -109 -144 -109c-8.66699 0 -18 1 -28 3v71
c11.333 -0.666992 18 -1 20 -1c25.333 0 43 5 53 15s15 28 15 54v54z" />
    <glyph glyph-name="uni01AC" unicode="&#x1ac;" horiz-adv-x="611" 
d="M0 602c0 20.667 3.16602 39.668 9.49902 57.001s20 33.166 41 47.499s48.167 21.833 81.5 22.5h461v-82h-239v-647h-93v647h-43h-82c-32.667 0 -49 -19.333 -49 -58s18 -58 54 -58c6.66699 0 16.334 0.333008 29.001 1v-79c-16 -3.33301 -31.667 -5 -47 -5
c-82 0 -123 51.333 -123 154z" />
    <glyph glyph-name="uni01AD" unicode="&#x1ad;" horiz-adv-x="278" 
d="M168 606v-82h86v-68h-86v-359c0 -18.667 3.16699 -31.167 9.5 -37.5s18.5 -9.5 36.5 -9.5c16.667 0 30 1.33301 40 4v-70c-26 -4.66699 -48.667 -7 -68 -7c-32.667 0 -57.667 7.16699 -75 21.5s-26 34.833 -26 61.5v396h-71v68h71v89c0 37.333 10.833 66.5 32.5 87.5
s51.834 31.5 90.501 31.5c15.333 0 31 -1.66699 47 -5v-69c-12.667 0.666992 -22.334 1 -29.001 1c-38.667 0 -58 -17.667 -58 -53z" />
    <glyph glyph-name="uni01AE" unicode="&#x1ae;" horiz-adv-x="611" 
d="M261 -109v756h-240v82h572v-82h-239v-723c0 -39.333 22.667 -59 68 -59c2 0 8.66699 0.333008 20 1v-81c-10 -2 -19.333 -3 -28 -3c-48 0 -85.5 9.33301 -112.5 28s-40.5 45.667 -40.5 81z" />
    <glyph glyph-name="Uhorn" unicode="&#x1af;" horiz-adv-x="776" 
d="M739 856c24.667 -28.667 37 -61.668 37 -99.001c0 -68 -43.667 -105 -131 -111v-429c0 -73.333 -25.5 -131.666 -76.5 -174.999s-119.167 -65 -204.5 -65c-86.667 0 -154.834 21.5 -204.501 64.5s-74.5 101.5 -74.5 175.5v512h93v-512
c0 -52.667 16.833 -92.167 50.5 -118.5s78.834 -39.5 135.501 -39.5c58.667 0 104.667 14 138 42s50 66.667 50 116v512h93c16 0.666992 27.833 2.83398 35.5 6.50098s11.5 11.5 11.5 23.5c0 15.333 -5.66699 29.666 -17 42.999z" />
    <glyph glyph-name="uhorn" unicode="&#x1b0;" horiz-adv-x="624" 
d="M586 651c24.667 -28.667 37.0029 -61.666 37.0029 -98.999c0 -71.333 -47 -108.666 -141 -111.999v-440h-75v73c-24.667 -34.667 -50.334 -59.334 -77.001 -74.001s-59.334 -22 -98.001 -22c-50.667 0 -91.167 13 -121.5 39s-45.5 60.667 -45.5 104v404h83v-371
c0 -31.333 9.66699 -56.333 29 -75s45.666 -28 78.999 -28c43.333 0 78 16.167 104 48.5s39 75.166 39 128.499v297h93c16 0.666992 27.833 2.83398 35.5 6.50098s11.5 11.5 11.5 23.5c0 15.333 -5.66699 29.666 -17 42.999z" />
    <glyph glyph-name="uni01B1" unicode="&#x1b1;" horiz-adv-x="778" 
d="M303 653c-14.667 -6 -31.8301 -16.832 -51.4971 -32.499s-40.834 -36.334 -63.501 -62.001s-41.667 -58.334 -57 -98.001s-23 -81.167 -23 -124.5c0 -75.333 23.667 -138.666 71 -189.999s108.666 -77 183.999 -77c72.667 0 131.5 26.667 176.5 80
s67.5 116.666 67.5 189.999c0 66 -17.5 129 -52.5 189s-78.167 101.667 -129.5 125v76h264v-72h-164c52.667 -30.667 94 -74.667 124 -132s45 -119.666 45 -186.999c0 -92 -31.167 -172 -93.5 -240s-140.833 -102 -235.5 -102c-102.667 0 -186.334 32.333 -251.001 97
s-97 145 -97 241c0 70 17.333 134 52 192s80 101.667 136 131h-176v72h274v-76z" />
    <glyph glyph-name="uni01B2" unicode="&#x1b2;" horiz-adv-x="722" 
d="M334 -23c-36.667 0 -67.8301 2.50391 -93.4971 7.50391s-51.334 14.833 -77.001 29.5s-45.167 38.167 -58.5 70.5s-20 73.166 -20 122.499v522h93v-562c0 -21.333 4 -39.5 12 -54.5s18.667 -26.167 32 -33.5s26.666 -12.5 39.999 -15.5s27.333 -4.5 42 -4.5
c26 0 50.833 2.5 74.5 7.5s47.167 14 70.5 27s43.5 29.667 60.5 50s30.833 46.666 41.5 78.999s16 69.5 16 111.5v2c0 37.333 -3.5 72.5 -10.5 105.5s-19.167 67 -36.5 102s-32.833 63.833 -46.5 86.5s-34.834 55.667 -63.501 99h108
c94.667 -126.667 142 -254.334 142 -383.001c0 -116.667 -29.833 -207.334 -89.5 -272.001s-138.5 -97 -236.5 -97z" />
    <glyph glyph-name="uni01B3" unicode="&#x1b3;" horiz-adv-x="722" 
d="M671 617c-14 14 -29.332 21 -45.999 21c-7.33301 0 -14.666 -2.66699 -21.999 -8s-12.833 -10.5 -16.5 -15.5s-8.33398 -12.5 -14.001 -22.5s-8.83398 -15.333 -9.50098 -16l-179 -290v-286h-93v286l-281 443h115l214 -355l173 291c30 42.667 66.667 64 110 64
c6.66699 0 13.334 -0.5 20.001 -1.5s12.167 -2.16699 16.5 -3.5s9.16602 -3.5 14.499 -6.5s9.33301 -5.33301 12 -7l12 -7.5l11 -7z" />
    <glyph glyph-name="uni01B4" unicode="&#x1b4;" horiz-adv-x="556" 
d="M437 412l-191.999 -522c-27.333 -72 -72.333 -108 -135 -108c-20.667 0 -39.334 4.33301 -56.001 13v75c18 -4 32.667 -6 44 -6c17.333 0 31.166 3.83301 41.499 11.5s18.833 20.834 25.5 39.501l32 85l-177 524h89l134 -408l114 321c27.333 72 72.333 108 135 108
c20.667 0 39.334 -4.33301 56.001 -13v-75c-18 4 -32.667 6 -44 6c-17.333 0 -31 -3.83301 -41 -11.5s-18.667 -20.834 -26 -39.501z" />
    <glyph glyph-name="uni01B5" unicode="&#x1b5;" horiz-adv-x="611" 
d="M581 729v-84l-185 -239h77v-67h-129l-199 -257h438v-82h-555v82l199 257h-87v67h139l187 241h-410v82h525z" />
    <glyph glyph-name="uni01B6" unicode="&#x1b6;" horiz-adv-x="500" 
d="M443 524v-74l-123 -149h83v-67h-138l-133 -161h325v-73h-426v75l132 159h-93v67h149l125 150h-292v73h391z" />
    <glyph glyph-name="Yogh" unicode="&#x1b7;" horiz-adv-x="611" 
d="M325 466l141.003 180.998h-410v82h525v-84l-180 -232c20 -4.66699 37.333 -9.66699 52 -15s30.167 -13.333 46.5 -24s29.666 -23.167 39.999 -37.5s19 -33.166 26 -56.499s10.5 -49.666 10.5 -78.999v-3c-0.666992 -66.667 -26.834 -120.167 -78.501 -160.5
s-118.834 -60.5 -201.501 -60.5c-165.333 0 -253.333 76.333 -264 229h88c6 -100.667 65.667 -151 179 -151c54 0 98.667 12.833 134 38.5s53 60.167 53 103.5c0 105.333 -79 158 -237 158v75c14 0 26 1.83301 36 5.5s17.167 7.5 21.5 11.5s10.5 10.333 18.5 19z" />
    <glyph glyph-name="uni01B8" unicode="&#x1b8;" horiz-adv-x="611" 
d="M288 466c8 -8.66699 14.1699 -14.998 18.5029 -18.998s11.5 -7.83301 21.5 -11.5s22 -5.5 36 -5.5v-75c-158 0 -237 -52.667 -237 -158c0 -43.333 17.667 -77.833 53 -103.5s80 -38.5 134 -38.5c113.333 0 173 50.333 179 151h88
c-10.667 -152.667 -98.667 -229 -264 -229c-82.667 0 -149.834 20.167 -201.501 60.5s-77.834 93.833 -78.501 160.5v3c0 29.333 3.5 55.666 10.5 78.999s15.667 42.166 26 56.499s23.666 26.833 39.999 37.5s31.833 18.667 46.5 24s32 10.333 52 15l-180 232v84h525v-82
h-410z" />
    <glyph glyph-name="uni01B9" unicode="&#x1b9;" horiz-adv-x="500" 
d="M198 276l-142.998 174v74h391v-73h-292l143 -171v-75h-48c-98 0 -147 -42.667 -147 -128c0 -44.667 13 -79.5 39 -104.5s62 -37.5 108 -37.5c48 0 84 12.333 108 37s37.667 62.667 41 114h88c-10.667 -152.667 -88.667 -229 -234 -229c-72.667 0 -130.834 20 -174.501 60
s-65.5 93.667 -65.5 161c0 58.667 16.167 104.5 48.5 137.5s78.166 53.167 137.499 60.5z" />
    <glyph glyph-name="uni01BA" unicode="&#x1ba;" horiz-adv-x="500" 
d="M300 276c122 -14 183 -70 183 -168c0 -53.333 -21.167 -96.333 -63.5 -129s-95.833 -49 -160.5 -49c-13.333 0 -34.5 2.83301 -63.5 8.5s-48.167 8.5 -57.5 8.5c-16.667 0 -25 -5.33301 -25 -16c0 -18.667 10.167 -33.334 30.5 -44.001s48.5 -16 84.5 -16
c58 0 119.667 12.667 185 38l23 -69c-62 -22.667 -115 -36 -159 -40c-16 -1.33301 -32.333 -2 -49 -2c-64.667 0 -113.167 12.667 -145.5 38s-48.5 60 -48.5 104c0 52.667 32 79 96 79c19.333 0 44.333 -2.66699 75 -8s48.667 -8 54 -8c32 0 64.167 8.66699 96.5 26
s48.5 42 48.5 74c0 28.667 -13.833 52.834 -41.5 72.501s-65.5 29.5 -113.5 29.5h-48v75l143 171h-292v73h391v-74z" />
    <glyph glyph-name="uni01BB" unicode="&#x1bb;" horiz-adv-x="556" 
d="M50 463c4.66699 164 82.6699 245.999 234.003 245.999c67.333 0 122 -19.333 164 -58s63 -88.667 63 -150c0 -82 -43.333 -149.333 -130 -202l87 -36v-77l-167 68l-40 -21c-43.333 -23.333 -74.333 -46 -93 -68s-30.334 -48 -35.001 -78h373v-87h-472
c4 74 18.167 131.667 42.5 173s68.166 81 131.499 119l-83 34v77l161 -66l39 22c64 36.667 96 83.334 96 140.001c0 38 -13.333 69.667 -40 95s-60 38 -100 38c-88.667 0 -136.334 -56.333 -143.001 -169h-88z" />
    <glyph glyph-name="uni01BE" unicode="&#x1be;" horiz-adv-x="556" 
d="M496 171c0 -62 -20.001 -109.5 -60.001 -142.5s-91 -49.5 -153 -49.5c-69.333 0 -123.166 20.667 -161.499 62s-57.5 98.666 -57.5 171.999h79c0 -45.333 10.5 -83.666 31.5 -114.999s55.5 -47 103.5 -47c42 0 75 9.33301 99 28s36 47.334 36 86.001
c0 27.333 -6.33301 49.833 -19 67.5s-28 31.334 -46 41.001l-54 30c-18 10.333 -33.333 25.666 -46 45.999s-19 45.833 -19 76.5v30h-71v68h71v144h83v-144h86v-68h-86v-22c0 -20.667 6.33301 -38.5 19 -53.5s28 -28.167 46 -39.5s36 -23.333 54 -36
s33.333 -30.334 46 -53.001s19 -49.667 19 -81z" />
    <glyph glyph-name="wynn" unicode="&#x1bf;" horiz-adv-x="556" 
d="M138 360l-0.000976562 -334l47 30.5c8 5 25.167 17 51.5 36s46 34.5 59 46.5s30 28.833 51 50.5s36.833 41.5 47.5 59.5s20.334 38.667 29.001 62s13 46.333 13 69c0 27.333 -9.16699 47.833 -27.5 61.5s-41.5 20.5 -69.5 20.5c-69.333 0 -136.333 -34 -201 -102z
M137.999 -63l-0.000976562 -154.997h-84v742h84v-80c40.667 39.333 76.834 65.166 108.501 77.499s73.5 18.5 125.5 18.5c44 0 80.5 -15.667 109.5 -47s43.5 -73 43.5 -125c0 -32.667 -6.16699 -65.167 -18.5 -97.5s-30.166 -62.333 -53.499 -90
s-46.833 -52.834 -70.5 -75.501s-51.667 -45 -84 -67l-78 -52c-19.667 -12.667 -42.5 -26.334 -68.5 -41.001c-6.66699 -4 -11.334 -6.66699 -14.001 -8z" />
    <glyph glyph-name="uni01C0" unicode="&#x1c0;" horiz-adv-x="260" 
d="M100 729h60v-941h-60v941z" />
    <glyph glyph-name="uni01C1" unicode="&#x1c1;" horiz-adv-x="370" 
d="M210 729h60v-941h-60v941zM100 729h60v-941h-60v941z" />
    <glyph glyph-name="uni01C2" unicode="&#x1c2;" horiz-adv-x="584" 
d="M260 729h60v-376h214v-70h-214v-102h214v-70h-214v-323h-60v323h-210v70h210v102h-210v70h210v376z" />
    <glyph glyph-name="uni01C3" unicode="&#x1c3;" horiz-adv-x="278" 
d="M208 729v-338l-22 -223h-39l-22 223v338h83zM208 104v-104h-84v104h84z" />
    <glyph glyph-name="uni01C4" unicode="&#x1c4;" horiz-adv-x="1311" 
d="M1066 776h-95l-96 150h63l81 -96l79 96h64zM1281 729v-84l-436 -563h438v-82h-555v82l438 565h-410v82h525zM89 0l-0.000976562 729h281c92.667 0 165.334 -32.333 218.001 -97s79 -153.667 79 -267s-26.5 -202.5 -79.5 -267.5s-125.5 -97.5 -217.5 -97.5h-281z
M181.999 82h172c72 0 126.667 24 164 72s56 118 56 210c0 92.667 -18.667 163 -56 211s-92 72 -164 72h-172v-565z" />
    <glyph glyph-name="uni01C5" unicode="&#x1c5;" horiz-adv-x="1208" 
d="M1006 583h-95l-96 150h63l81 -96l79 96h64zM1151 524v-74l-311 -377h325v-73h-426v75l313 376h-292v73h391zM89 0l-0.000976562 729h281c92.667 0 165.334 -32.333 218.001 -97s79 -153.667 79 -267s-26.5 -202.5 -79.5 -267.5s-125.5 -97.5 -217.5 -97.5h-281z
M181.999 82h172c72 0 126.667 24 164 72s56 118 56 210c0 92.667 -18.667 163 -56 211s-92 72 -164 72h-172v-565z" />
    <glyph glyph-name="uni01C6" unicode="&#x1c6;" horiz-adv-x="1056" 
d="M854 583h-95l-96 150h63l81 -96l79 96h64zM999 524v-74l-311 -377h325v-73h-426v75l313 376h-292v73h391zM495 729l0.000976562 -728.999h-74v69c-22.667 -32.667 -47.167 -56.167 -73.5 -70.5s-57.5 -21.5 -93.5 -21.5c-70.667 0 -126.334 25.5 -167.001 76.5
s-61 120.833 -61 209.5c0 83.333 20.5 150.166 61.5 200.499s95.5 75.5 163.5 75.5c72 0 125.667 -27 161 -81v271h83zM265.001 461.001c-45.333 0 -81.999 -18.668 -109.999 -56.001s-42 -86.333 -42 -147c0 -61.333 14 -110.5 42 -147.5s65 -55.5 111 -55.5
c44 0 79.333 18.333 106 55s40 85.334 40 146.001c0 62.667 -13.333 112.5 -40 149.5s-62.334 55.5 -107.001 55.5z" />
    <glyph glyph-name="uni01C7" unicode="&#x1c7;" horiz-adv-x="1056" 
d="M777 55c42.667 0 72 14.001 88 42.001s24 67.667 24 119v513h93v-547c0 -63.333 -18.5 -113.333 -55.5 -150s-87.167 -55 -150.5 -55c-62.667 0 -112.167 17.333 -148.5 52s-54.5 81.667 -54.5 141v64h95v-47c0 -42.667 9.33301 -75.334 28 -98.001s45.667 -34 81 -34z
M173 729.001v-647h360v-82h-453v729h93z" />
    <glyph glyph-name="uni01C8" unicode="&#x1c8;" horiz-adv-x="778" 
d="M626 524h83v-633c0 -72.667 -47.667 -109 -143 -109c-8.66699 0 -18 1 -28 3v71c8 -1.33301 15.667 -2 23 -2c24 0 40.833 5.16699 50.5 15.5s14.5 28.5 14.5 54.5v600zM709 729v-105h-83v105h83zM173 729v-647h360v-82h-453v729h93z" />
    <glyph glyph-name="uni01C9" unicode="&#x1c9;" horiz-adv-x="444" 
d="M292 524h83v-633c0 -72.667 -47.667 -109 -143 -109c-8.66699 0 -18 1 -28 3v71c8 -1.33301 15.667 -2 23 -2c24 0 40.833 5.16699 50.5 15.5s14.5 28.5 14.5 54.5v600zM375 729v-105h-83v105h83zM152 729v-729h-84v729h84z" />
    <glyph glyph-name="uni01CA" unicode="&#x1ca;" horiz-adv-x="1158" 
d="M929 55c42.667 0 72 14.001 88 42.001s24 67.667 24 119v513h93v-547c0 -63.333 -18.5 -113.333 -55.5 -150s-87.167 -55 -150.5 -55c-62.667 0 -112.167 17.333 -148.5 52s-54.5 81.667 -54.5 141v64h95v-47c0 -42.667 9.33301 -75.334 28 -98.001s45.667 -34 81 -34z
M646 729.001v-729h-105l-377 591v-591h-88v729h101l381 -596v596h88z" />
    <glyph glyph-name="uni01CB" unicode="&#x1cb;" horiz-adv-x="944" 
d="M792 524h83v-633c0 -72.667 -47.667 -109 -143 -109c-8.66699 0 -18 1 -28 3v71c8 -1.33301 15.667 -2 23 -2c24 0 40.833 5.16699 50.5 15.5s14.5 28.5 14.5 54.5v600zM875 729v-105h-83v105h83zM646 729v-729h-105l-377 591v-591h-88v729h101l381 -596v596h88z" />
    <glyph glyph-name="uni01CC" unicode="&#x1cc;" horiz-adv-x="778" 
d="M626 524h83v-633c0 -72.667 -47.667 -109 -143 -109c-8.66699 0 -18 1 -28 3v71c8 -1.33301 15.667 -2 23 -2c24 0 40.833 5.16699 50.5 15.5s14.5 28.5 14.5 54.5v600zM709 729v-105h-83v105h83zM70 524l76.999 -0.000976562v-88c23.333 36.667 48.5 63 75.5 79
s59.833 24 98.5 24c50.667 0 91 -13 121 -39s45 -60.667 45 -104v-396h-83v363c0 31.333 -9.66699 56.333 -29 75s-45.666 28 -78.999 28c-42.667 0 -77 -16.167 -103 -48.5s-39 -75.166 -39 -128.499v-289h-84v524z" />
    <glyph glyph-name="uni01CD" unicode="&#x1cd;" horiz-adv-x="667" 
d="M384 781h-95l-96 150h63l81 -96l79 96h64zM474 219h-281l-77 -219h-99l260 729h120l256 -729h-104zM448 297l-112 332l-120 -332h232z" />
    <glyph glyph-name="uni01CE" unicode="&#x1ce;" horiz-adv-x="556" 
d="M322 579h-95l-96 150h63l81 -96l79 96h64zM65 369c4 113.333 73.999 170.002 209.999 170.002c64.667 0 113.667 -12.167 147 -36.5s50 -59.833 50 -106.5v-308c0 -27.333 15 -41 45 -41c6 0 12 0.666992 18 2v-63c-23.333 -6 -42.333 -9 -57 -9
c-26.667 0 -46.834 6.16699 -60.501 18.5s-22.167 31.833 -25.5 58.5c-56 -51.333 -115.333 -77 -178 -77c-52.667 0 -94.5 14 -125.5 42s-46.5 65.667 -46.5 113c0 15.333 1.5 29.333 4.5 42s6.33301 23.834 10 33.501s10.167 18.667 19.5 27l23.5 20.5
c6.33301 5.33301 17 10.5 32 15.5s26.5 8.66699 34.5 11s22 5.16602 42 8.49902s34.667 5.66602 44 6.99902l50 7c32.667 4 55.334 10.333 68.001 19s19 21.667 19 39v22c0 25.333 -10.167 44.666 -30.5 57.999s-49.166 20 -86.499 20c-38.667 0 -68 -7.5 -88 -22.5
s-31.667 -38.5 -35 -70.5h-84zM231.999 50.002c46 0 83.668 12.168 113.001 36.501s44 50.5 44 78.5v94c-16.667 -8 -41.834 -14.667 -75.501 -20l-87.5 -14c-24.667 -4 -47 -13.5 -67 -28.5s-30 -35.833 -30 -62.5s9 -47.334 27 -62.001s43.333 -22 76 -22z" />
    <glyph glyph-name="uni01CF" unicode="&#x1cf;" horiz-adv-x="278" 
d="M194 781h-95l-96 150h63l81 -96l79 96h64zM194 729v-729h-94v729h94z" />
    <glyph glyph-name="icaron" unicode="&#x1d0;" horiz-adv-x="251" 
d="M174 579h-95l-96 150h63l81 -96l79 96h64zM167 524v-524h-83v524h83z" />
    <glyph glyph-name="uni01D1" unicode="&#x1d1;" horiz-adv-x="778" 
d="M436 776h-95l-96 150h63l81 -96l79 96h64zM742 353c0 -108 -32.001 -197.667 -96.001 -269s-149.333 -107 -256 -107c-105.333 0 -190.333 35.167 -255 105.5s-97 162.5 -97 276.5s32.333 206.167 97 276.5s149.334 105.5 254.001 105.5
c106.667 0 192.167 -35.333 256.5 -106s96.5 -164.667 96.5 -282zM388.999 659c-77.333 0 -139.667 -27.5 -187 -82.5s-71 -127.5 -71 -217.5s23.833 -162.5 71.5 -217.5s110.167 -82.5 187.5 -82.5s139.833 27.333 187.5 82s71.5 126 71.5 214
c0 92 -23.667 165.667 -71 221s-110.333 83 -189 83z" />
    <glyph glyph-name="uni01D2" unicode="&#x1d2;" horiz-adv-x="556" 
d="M320 579h-95l-96 150h63l81 -96l79 96h64zM272 539c75.333 0 133.833 -24.832 175.5 -74.499s62.5 -119.834 62.5 -210.501c0 -86 -21.167 -153.667 -63.5 -203s-100.166 -74 -173.499 -74c-74.667 0 -132.834 24.833 -174.501 74.5s-62.5 118.5 -62.5 206.5
s21 156.833 63 206.5s99.667 74.5 173 74.5zM273 462.001c-46.667 0 -83.335 -18.1689 -110.002 -54.502s-40 -86.166 -40 -149.499s13.333 -113.166 40 -149.499s63.334 -54.5 110.001 -54.5c46 0 82.5 18.167 109.5 54.5s40.5 85.166 40.5 146.499
c0 64.667 -13.167 115.334 -39.5 152.001s-63.166 55 -110.499 55z" />
    <glyph glyph-name="uni01D3" unicode="&#x1d3;" horiz-adv-x="722" 
d="M412 776h-95l-96 150h63l81 -96l79 96h64zM552 729l93 -0.000976562v-512c0 -73.333 -25.5 -131.666 -76.5 -174.999s-119.167 -65 -204.5 -65c-86.667 0 -154.834 21.5 -204.501 64.5s-74.5 101.5 -74.5 175.5v512h93v-512c0 -52.667 16.833 -92.167 50.5 -118.5
s78.834 -39.5 135.501 -39.5c58.667 0 104.667 14 138 42s50 66.667 50 116v512z" />
    <glyph glyph-name="uni01D4" unicode="&#x1d4;" horiz-adv-x="556" 
d="M321 579h-95l-96 150h63l81 -96l79 96h64zM482 0l-74.9971 0.00195312v73c-24.667 -34.667 -50.334 -59.334 -77.001 -74.001s-59.334 -22 -98.001 -22c-50.667 0 -91.167 13 -121.5 39s-45.5 60.667 -45.5 104v404h83v-371c0 -31.333 9.66699 -56.333 29 -75
s45.666 -28 78.999 -28c43.333 0 78 16.167 104 48.5s39 75.166 39 128.499v297h83v-524z" />
    <glyph glyph-name="uni01D5" unicode="&#x1d5;" horiz-adv-x="722" 
d="M508 843v-104h-104v104h104zM329 843v-104h-104v104h104zM552 729l93 -0.000976562v-512c0 -73.333 -25.5 -131.666 -76.5 -174.999s-119.167 -65 -204.5 -65c-86.667 0 -154.834 21.5 -204.501 64.5s-74.5 101.5 -74.5 175.5v512h93v-512
c0 -52.667 16.833 -92.167 50.5 -118.5s78.834 -39.5 135.501 -39.5c58.667 0 104.667 14 138 42s50 66.667 50 116v512zM502 950.999v-70h-274v70h274z" />
    <glyph glyph-name="uni01D6" unicode="&#x1d6;" horiz-adv-x="556" 
d="M418 689v-104h-104v104h104zM239 689v-104h-104v104h104zM482 0l-74.9971 0.00195312v73c-24.667 -34.667 -50.334 -59.334 -77.001 -74.001s-59.334 -22 -98.001 -22c-50.667 0 -91.167 13 -121.5 39s-45.5 60.667 -45.5 104v404h83v-371
c0 -31.333 9.66699 -56.333 29 -75s45.666 -28 78.999 -28c43.333 0 78 16.167 104 48.5s39 75.166 39 128.499v297h83v-524zM411.003 821.002v-70h-274v70h274z" />
    <glyph glyph-name="uni01D7" unicode="&#x1d7;" horiz-adv-x="722" 
d="M510 843v-104h-104v104h104zM331 843v-104h-104v104h104zM552 729l93 -0.000976562v-512c0 -73.333 -25.5 -131.666 -76.5 -174.999s-119.167 -65 -204.5 -65c-86.667 0 -154.834 21.5 -204.501 64.5s-74.5 101.5 -74.5 175.5v512h93v-512
c0 -52.667 16.833 -92.167 50.5 -118.5s78.834 -39.5 135.501 -39.5c58.667 0 104.667 14 138 42s50 66.667 50 116v512zM401 999.999h113l-149 -148h-60z" />
    <glyph glyph-name="uni01D8" unicode="&#x1d8;" horiz-adv-x="556" 
d="M418 699v-104h-104v104h104zM239 699v-104h-104v104h104zM482 0l-74.9971 0.00195312v73c-24.667 -34.667 -50.334 -59.334 -77.001 -74.001s-59.334 -22 -98.001 -22c-50.667 0 -91.167 13 -121.5 39s-45.5 60.667 -45.5 104v404h83v-371
c0 -31.333 9.66699 -56.333 29 -75s45.666 -28 78.999 -28c43.333 0 78 16.167 104 48.5s39 75.166 39 128.499v297h83v-524zM340.003 903.002h113l-149 -148h-60z" />
    <glyph glyph-name="uni01D9" unicode="&#x1d9;" horiz-adv-x="722" 
d="M510 828v-104h-104v104h104zM331 828v-104h-104v104h104zM552 729l93 -0.000976562v-512c0 -73.333 -25.5 -131.666 -76.5 -174.999s-119.167 -65 -204.5 -65c-86.667 0 -154.834 21.5 -204.501 64.5s-74.5 101.5 -74.5 175.5v512h93v-512
c0 -52.667 16.833 -92.167 50.5 -118.5s78.834 -39.5 135.501 -39.5c58.667 0 104.667 14 138 42s50 66.667 50 116v512zM412 849.999h-95l-96 150h63l81 -96l79 96h64z" />
    <glyph glyph-name="uni01DA" unicode="&#x1da;" horiz-adv-x="556" 
d="M418 689v-104h-104v104h104zM239 689v-104h-104v104h104zM482 0l-74.9971 0.00195312v73c-24.667 -34.667 -50.334 -59.334 -77.001 -74.001s-59.334 -22 -98.001 -22c-50.667 0 -91.167 13 -121.5 39s-45.5 60.667 -45.5 104v404h83v-371
c0 -31.333 9.66699 -56.333 29 -75s45.666 -28 78.999 -28c43.333 0 78 16.167 104 48.5s39 75.166 39 128.499v297h83v-524zM322.003 755.002h-95l-96 150h63l81 -96l79 96h64z" />
    <glyph glyph-name="uni01DB" unicode="&#x1db;" horiz-adv-x="722" 
d="M510 843v-104h-104v104h104zM331 843v-104h-104v104h104zM552 729l93 -0.000976562v-512c0 -73.333 -25.5 -131.666 -76.5 -174.999s-119.167 -65 -204.5 -65c-86.667 0 -154.834 21.5 -204.501 64.5s-74.5 101.5 -74.5 175.5v512h93v-512
c0 -52.667 16.833 -92.167 50.5 -118.5s78.834 -39.5 135.501 -39.5c58.667 0 104.667 14 138 42s50 66.667 50 116v512zM330 999.999l96 -148h-60l-149 148h113z" />
    <glyph glyph-name="uni01DC" unicode="&#x1dc;" horiz-adv-x="556" 
d="M418 689v-104h-104v104h104zM239 689v-104h-104v104h104zM482 0l-74.9971 0.00195312v73c-24.667 -34.667 -50.334 -59.334 -77.001 -74.001s-59.334 -22 -98.001 -22c-50.667 0 -91.167 13 -121.5 39s-45.5 60.667 -45.5 104v404h83v-371
c0 -31.333 9.66699 -56.333 29 -75s45.666 -28 78.999 -28c43.333 0 78 16.167 104 48.5s39 75.166 39 128.499v297h83v-524zM208.003 903.002l96 -148h-60l-149 148h113z" />
    <glyph glyph-name="uni01DD" unicode="&#x1dd;" horiz-adv-x="556" 
d="M40 282l386.002 -0.00195312c-0.666992 48 -10 85.333 -28 112c-28.667 45.333 -70.667 68 -126 68c-68 0 -113.667 -35 -137 -105h-84c10.667 57.333 35.667 102 75 134s89 48 149 48c73.333 0 131.333 -24.833 174 -74.5s64 -117.5 64 -203.5
s-21.833 -154.833 -65.5 -206.5s-101.834 -77.5 -174.501 -77.5c-49.333 0 -92.833 12.333 -130.5 37s-64.834 58.334 -81.501 101.001c-14 36.667 -21 92.334 -21 167.001zM424.002 213.998h-293.999c-0.666992 -1.33301 -1 -3.33301 -1 -6c0 -43.333 14 -79.833 42 -109.5
s62.333 -44.5 103 -44.5c42 0 76.667 14.5 104 43.5s42.666 67.833 45.999 116.5z" />
    <glyph glyph-name="uni01DE" unicode="&#x1de;" horiz-adv-x="667" 
d="M482 857v-104h-104v104h104zM303 857v-104h-104v104h104zM474 219h-281l-77 -219h-99l260 729h120l256 -729h-104zM448 297l-112 332l-120 -332h232zM472 971v-70h-274v70h274z" />
    <glyph glyph-name="uni01DF" unicode="&#x1df;" horiz-adv-x="556" 
d="M420 697v-104h-104v104h104zM241 697v-104h-104v104h104zM65 369c4 113.333 73.999 170.002 209.999 170.002c64.667 0 113.667 -12.167 147 -36.5s50 -59.833 50 -106.5v-308c0 -27.333 15 -41 45 -41c6 0 12 0.666992 18 2v-63c-23.333 -6 -42.333 -9 -57 -9
c-26.667 0 -46.834 6.16699 -60.501 18.5s-22.167 31.833 -25.5 58.5c-56 -51.333 -115.333 -77 -178 -77c-52.667 0 -94.5 14 -125.5 42s-46.5 65.667 -46.5 113c0 15.333 1.5 29.333 4.5 42s6.33301 23.834 10 33.501s10.167 18.667 19.5 27l23.5 20.5
c6.33301 5.33301 17 10.5 32 15.5s26.5 8.66699 34.5 11s22 5.16602 42 8.49902s34.667 5.66602 44 6.99902l50 7c32.667 4 55.334 10.333 68.001 19s19 21.667 19 39v22c0 25.333 -10.167 44.666 -30.5 57.999s-49.166 20 -86.499 20c-38.667 0 -68 -7.5 -88 -22.5
s-31.667 -38.5 -35 -70.5h-84zM231.999 50.002c46 0 83.668 12.168 113.001 36.501s44 50.5 44 78.5v94c-16.667 -8 -41.834 -14.667 -75.501 -20l-87.5 -14c-24.667 -4 -47 -13.5 -67 -28.5s-30 -35.833 -30 -62.5s9 -47.334 27 -62.001s43.333 -22 76 -22zM410 825.003
v-70h-274v70h274z" />
    <glyph glyph-name="uni01E0" unicode="&#x1e0;" horiz-adv-x="667" 
d="M389 855v-104h-104v104h104zM474 219h-281l-77 -219h-99l260 729h120l256 -729h-104zM448 297l-112 332l-120 -332h232zM474 962v-70h-274v70h274z" />
    <glyph glyph-name="uni01E1" unicode="&#x1e1;" horiz-adv-x="556" 
d="M327 687v-104h-104v104h104zM65 369c4 113.333 73.999 170.002 209.999 170.002c64.667 0 113.667 -12.167 147 -36.5s50 -59.833 50 -106.5v-308c0 -27.333 15 -41 45 -41c6 0 12 0.666992 18 2v-63c-23.333 -6 -42.333 -9 -57 -9
c-26.667 0 -46.834 6.16699 -60.501 18.5s-22.167 31.833 -25.5 58.5c-56 -51.333 -115.333 -77 -178 -77c-52.667 0 -94.5 14 -125.5 42s-46.5 65.667 -46.5 113c0 15.333 1.5 29.333 4.5 42s6.33301 23.834 10 33.501s10.167 18.667 19.5 27l23.5 20.5
c6.33301 5.33301 17 10.5 32 15.5s26.5 8.66699 34.5 11s22 5.16602 42 8.49902s34.667 5.66602 44 6.99902l50 7c32.667 4 55.334 10.333 68.001 19s19 21.667 19 39v22c0 25.333 -10.167 44.666 -30.5 57.999s-49.166 20 -86.499 20c-38.667 0 -68 -7.5 -88 -22.5
s-31.667 -38.5 -35 -70.5h-84zM231.999 50.002c46 0 83.668 12.168 113.001 36.501s44 50.5 44 78.5v94c-16.667 -8 -41.834 -14.667 -75.501 -20l-87.5 -14c-24.667 -4 -47 -13.5 -67 -28.5s-30 -35.833 -30 -62.5s9 -47.334 27 -62.001s43.333 -22 76 -22zM412 801.003
v-70h-274v70h274z" />
    <glyph glyph-name="uni01E2" unicode="&#x1e2;" horiz-adv-x="1000" 
d="M758 871v-70h-274v70h274zM468 214h-269l-85 -214h-103l299 729h622v-82h-371v-233h352v-82h-352v-250h389v-82h-482v214zM468 296v351h-100l-138 -351h238z" />
    <glyph glyph-name="uni01E3" unicode="&#x1e3;" horiz-adv-x="896" 
d="M576 701v-70h-274v70h274zM467 234c0.666992 -34.667 6.00391 -64.5 16.0039 -89.5s23 -43.667 39 -56s32.167 -21.166 48.5 -26.499s33.166 -8 50.499 -8c67.333 0 113.333 35 138 105h84c-10.667 -56.667 -35.667 -101.167 -75 -133.5s-88.666 -48.5 -147.999 -48.5
c-90.667 0 -154.667 35.667 -192 107c-1.33301 1.33301 -2 2.33301 -2 3c-37.333 -38.667 -72.833 -66.667 -106.5 -84s-70.167 -26 -109.5 -26c-50.667 0 -91.334 14 -122.001 42s-46 65.667 -46 113c0 25.333 4.33301 47.5 13 66.5s20 34.5 34 46.5s32.667 22 56 30
s46.833 14 70.5 18s52.5 7.33301 86.5 10s57 8.33398 69 17.001s18 22.667 18 42v22c0 52 -39.333 78 -118 78c-74.667 0 -115.334 -31 -122.001 -93h-84c4 113.333 73.333 170 208 170c85.333 0 143.666 -27.333 174.999 -82c18 25.333 42.333 45.333 73 60s64 22 100 22
c48.667 0 91.667 -12.333 129 -37s64.666 -58.334 81.999 -101.001c14 -36.667 21 -92.334 21 -167.001h-386zM229.004 50c46.667 0 85.001 13.502 115.001 40.502s45 49.167 45 66.5v101c-20 -8.66699 -47.167 -15.834 -81.5 -21.501s-63.333 -10.167 -87 -13.5
s-44.834 -12.333 -63.501 -27s-28 -35.334 -28 -62.001c0 -26 9 -46.5 27 -61.5s42.333 -22.5 73 -22.5zM469.005 302.002h294c0 47.333 -13.333 85.833 -40 115.5s-61.334 44.5 -104.001 44.5c-42 0 -76.667 -14.5 -104 -43.5s-42.666 -67.833 -45.999 -116.5z" />
    </font>
</defs>
</svg>
