<?xml version="1.0" standalone="no"?>
<!DOCTYPE svg PUBLIC "-//W3C//DTD SVG 1.1//EN" "http://www.w3.org/Graphics/SVG/1.1/DTD/svg11.dtd" >
<svg>
<metadata>
Created by FontForge 20090914 at Thu Mar  7 11:37:45 2013
 By www-data
Copyleft 2002, 2003, 2005, 2008, 2009, 2010 Free Software Foundation.
</metadata>
<defs>
<font id="FreeSansBoldOblique" horiz-adv-x="0" >
  <font-face 
    font-family="FreeSans"
    font-weight="700"
    font-style="oblique"
    font-stretch="normal"
    units-per-em="1000"
    panose-1="2 11 7 4 2 2 2 9 2 4"
    ascent="800"
    descent="-200"
    x-height="540"
    cap-height="729"
    bbox="-907 -313 1591 1076"
    underline-thickness="69"
    underline-position="-111"
    slope="-12"
    unicode-range="U+0020-U+FFFD"
  />
<missing-glyph horiz-adv-x="700" 
d="M88 0l155 729h524l-155 -729h-524zM240 102h264l111 525h-264z" />
    <glyph glyph-name="IJ" unicode="IJ" horiz-adv-x="595" 
d="M368 729l-77 -361h-150l77 361h150zM530 729l150.001 -0.00195312l-115 -539c-16.667 -78.667 -50 -134.334 -100 -167.001c-47.333 -30.667 -107 -46 -179 -46c-58.667 0 -104.667 13.833 -138 41.5s-50 65.834 -50 114.501c0 22.667 2.33301 44.334 7 65.001l15 72h150
l-16 -77c-2.66699 -11.333 -4 -22.666 -4 -33.999c0 -16 6.16699 -29 18.5 -39s28.166 -15 47.499 -15c53.333 0 86.333 28.333 99 85z" />
    <glyph glyph-name="ij" unicode="ij" horiz-adv-x="488" 
d="M535 540l-134.998 -634c-9.33301 -43.333 -28.833 -74.833 -58.5 -94.5s-72.834 -29.5 -129.501 -29.5c-18.667 0 -33.667 1.66699 -45 5l24 111c3.33301 -2.66699 11.666 -4 24.999 -4c15.333 0 26.833 3.33301 34.5 10s13.167 18 16.5 34l128 602h140zM575.002 729
l-27 -125h-140l27 125h140zM322.002 540l-115 -540h-140l115 540h140zM362.002 729l-27 -125h-140l27 125h140z" />
    <glyph glyph-name="m_n_armenian" unicode="&#x574;&#x576;" horiz-adv-x="1243" 
d="M683 636c-17.333 0 -30.5029 -0.5 -39.5029 -1.5s-17.333 -4.16699 -25 -9.5s-11.5 -13.333 -11.5 -24c0 -8.66699 6 -19.334 18 -32.001s19.667 -22.334 23 -29.001h297l-74 -347c-2.66699 -10.667 -4 -21.667 -4 -33c0 -42.667 24.333 -64 73 -64
c34 0 63.5 9.66699 88.5 29s40.833 45 47.5 77l72 338h140l-115 -540h-140l14 64c-51.333 -58 -111.666 -87 -180.999 -87c-48 0 -84.5 11.333 -109.5 34s-37.5 55.334 -37.5 98.001c0 16.667 2 35 6 55l57 267h-142l-92 -431h-140l14 64
c-51.333 -58 -111.666 -87 -180.999 -87c-48 0 -84.5 11.333 -109.5 34s-37.5 55.334 -37.5 98.001c0 16.667 2 35 6 55l37 177h140l-31 -148c-2.66699 -10.667 -4 -21.667 -4 -33c0 -42.667 24.333 -64 73 -64c34 0 63.5 9.66699 88.5 29s40.833 45 47.5 77l49 229h-208
c-74.667 0 -112 30.333 -112 91c0 16 6.33301 48 19 96h105c-8 -24 -12 -41.333 -12 -52c0 -17.333 11.667 -26 35 -26h183c-2.66699 4 -7.66699 9.83301 -15 17.5s-12.666 13.5 -15.999 17.5l-36 45c-13.333 15.333 -20 31.333 -20 48c0 18.667 8 33.5 24 44.5
s37.667 16.5 65 16.5h191z" />
    <glyph glyph-name="m_e_armenian" unicode="&#x574;&#x565;" horiz-adv-x="1226" 
d="M423 668c0 18.667 7.99707 33.501 23.9971 44.501s37.667 16.5 65 16.5h476l-40 -189h343l-20 -93h-343l-54 -254c-2.66699 -10.667 -4 -21.667 -4 -33c0 -42.667 24.333 -64 73 -64c34 0 63.5 9.66699 88.5 29s40.833 45 47.5 77l12 58h140l-55 -260h-140l14 64
c-51.333 -58 -111.666 -87 -180.999 -87c-48 0 -84.5 11.333 -109.5 34s-37.5 55.334 -37.5 98.001c0 16.667 2 35 6 55l100 472c-143.333 -2 -216.666 -11.667 -219.999 -29c0 -0.666992 -0.166992 -1.66699 -0.5 -3s-0.5 -2.33301 -0.5 -3
c0 -8.66699 7.83301 -21.334 23.5 -38.001s23.5 -34.334 23.5 -53.001c0 -8.66699 -0.666992 -15.334 -2 -20.001l-104 -490h-140l14 64c-51.333 -58 -111.666 -87 -180.999 -87c-48 0 -84.5 11.333 -109.5 34s-37.5 55.334 -37.5 98.001c0 16.667 2 35 6 55l80 376h140
l-74 -347c-2.66699 -10.667 -4 -21.667 -4 -33c0 -42.667 24.333 -64 73 -64c34 0 63.5 9.66699 88.5 29s40.833 45 47.5 77l65 308c0.666992 2 1 5 1 9c0 6.66699 -1.5 12.667 -4.5 18s-8.5 12 -16.5 20s-13.667 14 -17 18l-36 45c-13.333 15.333 -20 31.333 -20 48z" />
    <glyph glyph-name="m_i_armenian" unicode="&#x574;&#x56b;" horiz-adv-x="1233" 
d="M423 668c0 18.667 7.99902 33.502 23.999 44.502s37.667 16.5 65 16.5h477l-57 -267c51.333 58 110.333 87 177 87c39.333 0 72.833 -10 100.5 -30s41.5 -53.333 41.5 -100c0 -16.667 -2 -35.667 -6 -57l-77 -362h-140l70 330c2.66699 11.333 4 23.333 4 36
c0 42.667 -23 64 -69 64c-31.333 0 -59.166 -10 -83.499 -30s-39.833 -45.333 -46.5 -76l-112 -524h-140l178 836c-142.667 0 -216.334 -9.66699 -221.001 -29c0 -0.666992 -0.166992 -1.66699 -0.5 -3s-0.5 -2.33301 -0.5 -3c0 -8.66699 7.83301 -21.334 23.5 -38.001
s23.5 -34.334 23.5 -53.001c0 -8.66699 -0.666992 -15.334 -2 -20.001l-104 -490h-140l14 64c-51.333 -58 -111.666 -87 -180.999 -87c-48 0 -84.5 11.333 -109.5 34s-37.5 55.334 -37.5 98.001c0 16.667 2 35 6 55l80 376h140l-74 -347c-2.66699 -10.667 -4 -21.667 -4 -33
c0 -42.667 24.333 -64 73 -64c34 0 63.5 9.66699 88.5 29s40.833 45 47.5 77l65 308c0.666992 2 1 5 1 9c0 6.66699 -1.5 12.667 -4.5 18s-8.5 12 -16.5 20s-13.667 14 -17 18l-36 45c-13.333 15.333 -20 31.333 -20 48z" />
    <glyph glyph-name="v_n_armenian" unicode="&#x57e;&#x576;" horiz-adv-x="1238" 
d="M184 542c0 48.667 17.166 91.998 51.499 129.998s74.166 57 119.499 57h348l-40 -189h282l-74 -347c-2.66699 -10.667 -4 -21.667 -4 -33c0 -42.667 24.333 -64 73 -64c34 0 63.5 9.66699 88.5 29s40.833 45 47.5 77l72 338h140l-115 -540h-140l14 64
c-51.333 -58 -111.666 -87 -180.999 -87c-48 0 -84.5 11.333 -109.5 34s-37.5 55.334 -37.5 98.001c0 16.667 2 35 6 55l58 272h-142l-116 -543h78l-20 -93h-218l57 264c-51.333 -58 -111.666 -87 -180.999 -87c-48 0 -84.5 11.333 -109.5 34s-37.5 55.334 -37.5 98.001
c0 16.667 2 35 6 55l44 208h140l-38 -179c-2.66699 -10.667 -4 -21.667 -4 -33c0 -42.667 24.333 -64 73 -64c34 0 63.5 9.66699 88.5 29s40.833 45 47.5 77l50 234h-208c-33.333 0 -59.833 9.5 -79.5 28.5s-29.5 44.833 -29.5 77.5zM344.999 624.998
c-18.667 0 -32.167 -6.66699 -40.5 -20s-12.5 -26.333 -12.5 -39c0 -17.333 11.667 -26 35 -26h196l18 85h-196z" />
    <glyph glyph-name="m_x_armenian" unicode="&#x574;&#x56d;" horiz-adv-x="1448" 
d="M423 668c0 18.667 7.99805 33.501 23.998 44.501s37.667 16.5 65 16.5h465l-40 -189h218l-74 -347c-2.66699 -10.667 -4 -21.667 -4 -33c0 -42.667 24.333 -64 73 -64c34 0 63.5 9.66699 88.5 29s40.833 45 47.5 77l72 338h140l-115 -540h-140l14 64
c-51.333 -58 -111.666 -87 -180.999 -87c-48 0 -84.5 11.333 -109.5 34s-37.5 55.334 -37.5 98.001c0 16.667 2 35 6 55l60 283h-78l-138 -647h-140l178 836c-135.333 0 -205 -9.66699 -209 -29c0 -0.666992 -0.166992 -1.66699 -0.5 -3s-0.5 -2.33301 -0.5 -3
c0 -8.66699 7.83301 -21.334 23.5 -38.001s23.5 -34.334 23.5 -53.001c0 -8.66699 -0.666992 -15.334 -2 -20.001l-104 -490h-140l14 64c-51.333 -58 -111.666 -87 -180.999 -87c-48 0 -84.5 11.333 -109.5 34s-37.5 55.334 -37.5 98.001c0 16.667 2 35 6 55l80 376h140
l-74 -347c-2.66699 -10.667 -4 -21.667 -4 -33c0 -42.667 24.333 -64 73 -64c34 0 63.5 9.66699 88.5 29s40.833 45 47.5 77l65 308c0.666992 2 1 5 1 9c0 6.66699 -1.5 12.667 -4.5 18s-8.5 12 -16.5 20s-13.667 14 -17 18l-36 45c-13.333 15.333 -20 31.333 -20 48z" />
    <glyph glyph-name="yodyodpatahhebrew" unicode="&#x5f2;&#x5b7;" horiz-adv-x="542" 
d="M99 220h200l-17 -82h-200zM421 333l-151 -57l69 324h139zM163 333l-151 -57l69 324h139z" />
    <glyph glyph-name="yi_yi_lig_ukrainian" unicode="&#x457;&#x457;" horiz-adv-x="533" 
d="M312 540l-115 -540h-140l115 540h140zM597 540l-115 -540h-140l115 540h140zM265 741l-26 -120h-110l26 120h110zM688 741l-26 -120h-110l26 120h110zM404 741l-26 -120h-110l26 120h110zM553 741l-26 -120h-110l26 120h110z" />
    <glyph glyph-name=".notdef" horiz-adv-x="700" 
d="M88 0l155 729h524l-155 -729h-524zM240 102h264l111 525h-264z" />
    <glyph glyph-name="space" unicode=" " horiz-adv-x="278" 
 />
    <glyph glyph-name="exclam" unicode="!" horiz-adv-x="333" 
d="M417 726l-45 -210l-107 -309h-67l24 309l45 210h150zM293 146l-31 -146h-150l31 146h150z" />
    <glyph glyph-name="quotedbl" unicode="&#x22;" horiz-adv-x="474" 
d="M579 729l-28 -130l-70 -129h-55l-13 129l28 130h138zM343 729l-28 -130l-70 -129h-55l-13 129l28 130h138z" />
    <glyph glyph-name="numbersign" unicode="#" horiz-adv-x="556" 
d="M138 -32h-105l83 204h-77l21 100h97l62 152h-99l22 100h118l71 173h106l-72 -173h103l71 173h106l-72 -173h87l-21 -100h-106l-62 -152h99l-21 -100h-119l-84 -204h-105l83 204h-102zM262 272h103l62 152h-102z" />
    <glyph glyph-name="dollar" unicode="$" horiz-adv-x="556" 
d="M461 709c111.333 -9.33301 166.999 -63.334 166.999 -162.001c0 -14 -1.66699 -30.333 -5 -49h-128c2 18.667 3 32 3 40c0 40 -19.333 63.333 -58 70l-43 -201c24.667 -7.33301 46.167 -15.166 64.5 -23.499s36.666 -19.166 54.999 -32.499s32.333 -29.666 42 -48.999
s14.5 -41 14.5 -65c0 -16 -1.66699 -32.667 -5 -50s-10.666 -37.833 -21.999 -61.5s-26.166 -45 -44.499 -64s-44.5 -36.333 -78.5 -52s-73 -25.834 -117 -30.501l-22 -105h-68l23 105c-58 6 -102.5 23.5 -133.5 52.5s-46.5 67.833 -46.5 116.5c0 17.333 2.66699 37 8 59
h130c-0.666992 -12.667 -1 -23.667 -1 -33c0 -50 21.667 -79.333 65 -88l46 213c-110 28 -165 86.667 -165 176c0 13.333 1.66699 28 5 44s10.5 34.833 21.5 56.5s25.167 41.167 42.5 58.5s41.833 33.166 73.5 47.499s68.167 23.5 109.5 27.5l11 54h68zM371.999 607.999
c-21.333 -4 -39.333 -10.834 -54 -20.501s-25 -20.5 -31 -32.5s-10 -22.167 -12 -30.5s-3 -16.166 -3 -23.499c0 -33.333 20.667 -58 62 -74zM370.999 281.998l-42 -196c32 7.33301 56.833 20.833 74.5 40.5s26.5 43.5 26.5 71.5c0 40 -19.667 68 -59 84z" />
    <glyph glyph-name="percent" unicode="%" horiz-adv-x="889" 
d="M756 709h77l-551 -729h-76zM352 701c44.667 0 81.334 -13.6689 110.001 -41.002s43 -61.666 43 -102.999c0 -57.333 -22.833 -108.333 -68.5 -153s-97.834 -67 -156.501 -67c-43.333 0 -79.333 13.833 -108 41.5s-43 62.167 -43 103.5
c0 56.667 22.833 107.334 68.5 152.001s97.167 67 154.5 67zM331 602.998c-26.667 0 -50.333 -10.3311 -71 -30.998s-31 -44.334 -31 -71.001c0 -18.667 7 -34.334 21 -47.001s31.333 -19 52 -19c27.333 0 51.333 10.167 72 30.5s31 43.833 31 70.5
c0 19.333 -7.16699 35.333 -21.5 48s-31.833 19 -52.5 19zM750.001 344c44.667 0 81.334 -13.6689 110.001 -41.002s43 -61.666 43 -102.999c0 -57.333 -22.833 -108.333 -68.5 -153s-97.834 -67 -156.501 -67c-43.333 0 -79.333 13.833 -108 41.5s-43 62.167 -43 103.5
c0 56.667 22.833 107.334 68.5 152.001s97.167 67 154.5 67zM729.001 245.998c-26.667 0 -50.333 -10.3311 -71 -30.998s-31 -44.334 -31 -71.001c0 -18.667 7 -34.334 21 -47.001s31.333 -19 52 -19c27.333 0 51.333 10.167 72 30.5s31 43.833 31 70.5
c0 19.333 -7.16699 35.333 -21.5 48s-31.833 19 -52.5 19z" />
    <glyph glyph-name="ampersand" unicode="&#x26;" horiz-adv-x="722" 
d="M624 605c0 -24 -4.66309 -47.168 -13.9961 -69.501s-19 -40.166 -29 -53.499s-24.833 -27.5 -44.5 -42.5s-32.334 -24.333 -38.001 -28s-16.834 -10.167 -33.501 -19.5l82 -137c16.667 15.333 29.5 31.666 38.5 48.999s16.167 40.333 21.5 69h113
c-5.33301 -36.667 -19 -74.667 -41 -114s-47.667 -72.333 -77 -99l94 -160h-160l-37 60c-46 -33.333 -83.167 -55.5 -111.5 -66.5s-61.833 -16.5 -100.5 -16.5c-62 0 -110.5 15.833 -145.5 47.5s-52.5 75.5 -52.5 131.5c0 51.333 16.167 96.333 48.5 135
s86.166 75.334 161.499 110.001c-35.333 50 -53 90.667 -53 122c0 53.333 22.5 100 67.5 140s97.5 60 157.5 60c45.333 0 82.166 -10.833 110.499 -32.5s42.5 -50.167 42.5 -85.5zM347.004 318.999l-52.001 -29c-46 -26 -69 -60.333 -69 -103
c0 -26 8.66699 -48.167 26 -66.5s38.333 -27.5 63 -27.5c16.667 0 34.334 4.16699 53.001 12.5s44.667 23.833 78 46.5zM419.003 469.999c53.333 28 80 62.668 80 104.001c0 12.667 -4.5 22.667 -13.5 30s-21.5 11 -37.5 11c-19.333 0 -35 -5.83301 -47 -17.5
s-18 -26.834 -18 -45.501c0 -8.66699 2 -17.5 6 -26.5s14 -27.5 30 -55.5z" />
    <glyph glyph-name="quotesingle" unicode="'" horiz-adv-x="238" 
d="M343 729l-28 -130l-70 -129h-55l-13 129l28 130h138z" />
    <glyph glyph-name="parenleft" unicode="(" horiz-adv-x="333" 
d="M458 729c-86 -117.333 -150 -222.667 -192 -316s-63 -193.666 -63 -300.999c0 -46 4.16699 -91.5 12.5 -136.5s23.5 -103.5 45.5 -175.5h-100c-51.333 118 -77 225.333 -77 322c0 100.667 21.833 199.667 65.5 297s113.167 200.666 208.5 309.999h100z" />
    <glyph glyph-name="parenright" unicode=")" horiz-adv-x="333" 
d="M-21 -200c86 117.333 150 222.667 192 316s63 193.666 63 300.999c0 46 -4.16699 91.5 -12.5 136.5s-23.5 103.5 -45.5 175.5h100c51.333 -118 77 -225.333 77 -322c0 -100.667 -21.833 -199.667 -65.5 -297s-113.167 -200.666 -208.5 -309.999h-100z" />
    <glyph glyph-name="asterisk" unicode="*" horiz-adv-x="389" 
d="M246 544l-101 36l37 69l101 -36l24 116h72l-25 -116l117 36l7 -70l-116 -35l47 -94l-67 -43l-47 94l-87 -94l-49 43z" />
    <glyph glyph-name="plus" unicode="+" horiz-adv-x="584" 
d="M596 292l-25 -120h-183l-39 -182h-119l39 182h-182l25 120h182l39 181h119l-39 -181h183z" />
    <glyph glyph-name="comma" unicode="," horiz-adv-x="278" 
d="M95 146l150 0.000976562l-29 -137c-9.33301 -54.667 -29.333 -96.834 -60 -126.501s-73.667 -48.5 -129 -56.5l12 56c61.333 10.667 98.333 50 111 118h-86z" />
    <glyph glyph-name="hyphen" unicode="-" horiz-adv-x="333" 
d="M371 342l-29 -135h-272l29 135h272z" />
    <glyph glyph-name="period" unicode="." horiz-adv-x="278" 
d="M245 146l-31 -146h-150l31 146h150z" />
    <glyph glyph-name="slash" unicode="/" horiz-adv-x="278" 
d="M360 714h67l-361 -728h-67z" />
    <glyph glyph-name="zero" unicode="0" horiz-adv-x="556" 
d="M421 724c60 0 107.167 -17.668 141.5 -53.001s51.5 -83.666 51.5 -144.999c0 -16 -1 -35.333 -3 -58s-6 -52 -12 -88s-14 -71.5 -24 -106.5s-23.833 -70.833 -41.5 -107.5s-38 -68.667 -61 -96s-52 -49.666 -87 -66.999s-73.167 -26 -114.5 -26
c-58.667 0 -105 17.833 -139 53.5s-51 84.167 -51 145.5c0 15.333 1 34.5 3 57.5s6 52.333 12 88s14 71 24 106s23.833 70.833 41.5 107.5s37.834 68.667 60.501 96s51.167 49.666 85.5 66.999s72.166 26 113.499 26zM394 611.999c-34.667 0 -64 -18.999 -88 -56.999
c-16.667 -26.667 -34.5 -83.167 -53.5 -169.5s-28.5 -153.833 -28.5 -202.5c0 -25.333 6.83301 -45.666 20.5 -60.999s32.167 -23 55.5 -23c29.333 0 53.333 10.667 72 32s35 56.666 49 105.999c13.333 47.333 25 99.833 35 157.5s15 102.167 15 133.5
c0 25.333 -7 45.666 -21 60.999s-32.667 23 -56 23z" />
    <glyph glyph-name="one" unicode="1" horiz-adv-x="556" 
d="M342 489h-170l20 93c122.667 0 204 42.333 244 127h93l-151 -709h-140z" />
    <glyph glyph-name="two" unicode="2" horiz-adv-x="556" 
d="M628 552c0 -44.667 -10.832 -86.165 -32.499 -124.498s-49.5 -71 -83.5 -98s-68.5 -51.5 -103.5 -73.5s-68.833 -44.5 -101.5 -67.5s-55.667 -44.167 -69 -63.5h300l-26 -125h-482c14 52 32.5 96.167 55.5 132.5s48.833 65.166 77.5 86.499s57.334 40 86.001 56
s60 35 94 57s63.333 46 88 72c36 36 54 78.667 54 128c0 25.333 -7.66699 45 -23 59s-36.333 21 -63 21c-34.667 0 -62.834 -12.833 -84.501 -38.5s-35.834 -62.834 -42.501 -111.501h-134c12.667 84 43.667 148.667 93 194s112.666 68 189.999 68
c64.667 0 115.334 -15.167 152.001 -45.5s55 -72.5 55 -126.5z" />
    <glyph glyph-name="three" unicode="3" horiz-adv-x="556" 
d="M422 230c0 35.333 -10.5 58.667 -31.5 70s-56.5 17 -106.5 17l20 94h12c44.667 0 80.667 12 108 36s41 55.667 41 95c0 20.667 -7.16699 37.5 -21.5 50.5s-32.833 19.5 -55.5 19.5c-10.667 0 -20.5 -1 -29.5 -3s-16.833 -5.16699 -23.5 -9.5
s-12.834 -8.83301 -18.501 -13.5s-10.667 -10.5 -15 -17.5s-7.83301 -13 -10.5 -18s-5.33398 -11.5 -8.00098 -19.5s-4.5 -13.833 -5.5 -17.5s-2.33301 -9 -4 -16s-2.5 -10.833 -2.5 -11.5h-129c15.333 81.333 45 141.333 89 180s104.667 58 182 58
c63.333 0 112.5 -13.167 147.5 -39.5s52.5 -63.5 52.5 -111.5c0 -79.333 -40 -143.666 -120 -192.999c48 -29.333 72 -70.333 72 -123c0 -80.667 -26.667 -147.5 -80 -200.5s-124.333 -79.5 -213 -79.5c-64.667 0 -115 15.167 -151 45.5s-54 73.166 -54 128.499
c0 15.333 2 34.333 6 57h136v-32c0.666992 -24.667 8.83398 -43.667 24.501 -57s37.834 -20 66.501 -20c33.333 0 62 13 86 39s36 56.667 36 92z" />
    <glyph glyph-name="four" unicode="4" horiz-adv-x="556" 
d="M580 273l-25 -116h-73l-34 -157h-140l34 157h-285l25 118l352 434h165l-93 -436h74zM366 273l65 304l-249 -304h184z" />
    <glyph glyph-name="five" unicode="5" horiz-adv-x="556" 
d="M572 300c0 -16.667 -2.33203 -36.6689 -6.99902 -60.002s-14.167 -50.833 -28.5 -82.5s-32.333 -60.5 -54 -86.5s-52 -48.167 -91 -66.5s-83.167 -27.5 -132.5 -27.5c-60 0 -108.333 15 -145 45s-55 69.667 -55 119c0 12.667 1.66699 27.334 5 44.001h138
c-1.33301 -12 -2 -19.333 -2 -22c0 -19.333 8 -34.833 24 -46.5s37.333 -17.5 64 -17.5c40.667 0 74.334 16.833 101.001 50.5s40 75.834 40 126.501c0 29.333 -7.83301 51.833 -23.5 67.5s-37.834 23.5 -66.501 23.5c-44.667 0 -78.334 -17.667 -101.001 -53h-126l146 395
h383l-27 -125h-296l-54 -148c43.333 28.667 87.333 43 132 43c54.667 0 97.667 -16 129 -48s47 -75.667 47 -131z" />
    <glyph glyph-name="six" unicode="6" horiz-adv-x="556" 
d="M85 171c0 18.667 1.16797 40.665 3.50098 65.998s7.16602 56 14.499 92s16.333 71.5 27 106.5s25.5 70.167 44.5 105.5s40.5 66.333 64.5 93s53.667 48.334 89 65.001s73.666 25 114.999 25c56.667 0 101.167 -13.667 133.5 -41s48.5 -64.666 48.5 -111.999
c0 -9.33301 -0.333008 -17 -1 -23h-130c-4.66699 22.667 -13.167 39 -25.5 49s-30.5 15 -54.5 15c-41.333 0 -72.333 -15 -93 -45s-41 -82 -61 -156c49.333 37.333 99 56 149 56c52.667 0 93.834 -14.833 123.501 -44.5s44.5 -70.5 44.5 -122.5c0 -18 -2.5 -39.333 -7.5 -64
s-14.5 -52.5 -28.5 -83.5s-31.5 -59.167 -52.5 -84.5s-49.333 -46.833 -85 -64.5s-75.5 -26.5 -119.5 -26.5c-60.667 0 -109 17.667 -145 53s-54 82.333 -54 141zM352.001 354.998c-36.667 0 -68.667 -16.5 -96 -49.5s-41 -72.167 -41 -117.5c0 -26 8 -47.333 24 -64
s36.667 -25 62 -25c36.667 0 68 16.667 94 50s39 73.333 39 120c0 25.333 -7.5 46 -22.5 62s-34.833 24 -59.5 24z" />
    <glyph glyph-name="seven" unicode="7" horiz-adv-x="556" 
d="M679 709l-23 -109.999c-87.333 -90 -148 -156 -182 -198c-92 -116.667 -159 -250.334 -201 -401.001h-142c40 121.333 87.833 225.5 143.5 312.5s132.167 177.5 229.5 271.5h-353l27 125h501z" />
    <glyph glyph-name="eight" unicode="8" horiz-adv-x="556" 
d="M620 570c0 -73.333 -43 -134.667 -129 -184c30.667 -18.667 52.334 -38 65.001 -58s19 -45 19 -75s-6.33301 -60.667 -19 -92s-30.834 -61 -54.501 -89s-55.167 -50.833 -94.5 -68.5s-83 -26.5 -131 -26.5c-66.667 0 -119.334 16 -158.001 48s-58 75.333 -58 130
c0 99.333 53.667 176.333 161 231c-23.333 18 -40 35.333 -50 52s-15 35.667 -15 57c0 62.667 26.167 116.5 78.5 161.5s114.833 67.5 187.5 67.5c58.667 0 106.334 -14.333 143.001 -43s55 -65.667 55 -111zM398 611.999c-33.333 0 -61.667 -10.8311 -85 -32.498
s-35 -48.167 -35 -79.5c0 -22.667 7.83301 -40.834 23.5 -54.501s36.167 -20.5 61.5 -20.5c35.333 0 65.333 11.167 90 33.5s37 49.5 37 81.5c0 21.333 -8.5 38.666 -25.5 51.999s-39.167 20 -66.5 20zM341.999 330.001c-38.667 0 -71.5 -14.501 -98.5 -43.501
s-40.5 -64.5 -40.5 -106.5c0 -23.333 8.83301 -42.666 26.5 -57.999s40.167 -23 67.5 -23c39.333 0 71.666 13.833 96.999 41.5s38 63.167 38 106.5c0 25.333 -8.16699 45.5 -24.5 60.5s-38.166 22.5 -65.499 22.5z" />
    <glyph glyph-name="nine" unicode="9" horiz-adv-x="556" 
d="M611 519c0 -20.667 -2.00293 -45.998 -6.00293 -75.998s-10.5 -66.333 -19.5 -109s-22.5 -84.167 -40.5 -124.5s-39.667 -78.333 -65 -114s-58.166 -64.334 -98.499 -86.001s-84.833 -32.5 -133.5 -32.5c-53.333 0 -96.666 14.333 -129.999 43s-50 66 -50 112
c0 8 1.33301 19 4 33h135v-12c0 -16 7.16699 -29 21.5 -39s33.166 -15 56.499 -15c34.667 0 64.334 13.5 89.001 40.5s45.334 77.5 62.001 151.5c-28 -24 -52.5 -40.5 -73.5 -49.5s-45.5 -13.5 -73.5 -13.5c-52 0 -93.167 15.667 -123.5 47s-45.5 74 -45.5 128
c0 89.333 28.333 165.166 85 227.499s126 93.5 208 93.5c60 0 108 -18.667 144 -56s54 -87 54 -149zM388.997 612.002c-36.667 0 -67.833 -17.5 -93.5 -52.5s-38.5 -77.833 -38.5 -128.5c0 -26.667 7.16699 -47.834 21.5 -63.501s33.833 -23.5 58.5 -23.5c40 0 74 17 102 51
s42 75.333 42 124c0 28.667 -8.33301 51.334 -25 68.001s-39 25 -67 25z" />
    <glyph glyph-name="colon" unicode=":" horiz-adv-x="333" 
d="M374 520l-31 -146h-150l31 146h150zM294 146l-31 -146h-150l31 146h150z" />
    <glyph glyph-name="semicolon" unicode=";" horiz-adv-x="333" 
d="M144 146l150 0.000976562l-29 -137c-9.33301 -54.667 -29.333 -96.834 -60 -126.501s-73.667 -48.5 -129 -56.5l12 56c61.333 10.667 98.333 50 111 118h-86zM374 520.001l-31 -146h-150l31 146h150z" />
    <glyph glyph-name="less" unicode="&#x3c;" horiz-adv-x="584" 
d="M630 474l-27 -129l-340 -113l292 -111l-28 -131l-450 182l26 121z" />
    <glyph glyph-name="equal" unicode="=" horiz-adv-x="584" 
d="M622 412l-25 -120h-485l25 120h485zM571 172l-25 -120h-485l25 120h485z" />
    <glyph glyph-name="greater" unicode="&#x3e;" horiz-adv-x="584" 
d="M38 -10l27 129l340 113l-292 111l28 131l450 -182l-26 -121z" />
    <glyph glyph-name="question" unicode="?" horiz-adv-x="611" 
d="M456 744c40.667 0 75.9971 -5.8252 105.997 -17.4922s52.5 -26.834 67.5 -45.501s25.833 -37.5 32.5 -56.5s10 -38.5 10 -58.5c0 -20.667 -2.66699 -40.834 -8 -60.501s-10.833 -36.334 -16.5 -50.001s-15 -27.834 -28 -42.501l-29 -32.5
c-6.33301 -7 -17.666 -16.167 -33.999 -27.5s-25.5 -17.5 -27.5 -18.5s-10 -5.83301 -24 -14.5c-34 -21.333 -56 -38.333 -66 -51s-18.333 -35.334 -25 -68.001h-122c3.33301 35.333 13.833 66.666 31.5 93.999s37.667 49.5 60 66.5l67 49c22.333 15.667 41 33.667 56 54
s22.5 43.166 22.5 68.499s-8.5 46.166 -25.5 62.499s-38.833 24.5 -65.5 24.5c-34 0 -62.667 -12.167 -86 -36.5s-39.333 -58.5 -48 -102.5h-136c4 19.333 8.16699 36.333 12.5 51s13.833 36.5 28.5 65.5s31.334 53 50.001 72s45.334 36.167 80.001 51.5s73.667 23 117 23z
M417.997 146.008l-31 -146h-150l31 146h150z" />
    <glyph glyph-name="at" unicode="@" horiz-adv-x="975" 
d="M1032 439c0 -54 -10.834 -105.668 -32.501 -155.001s-49 -90.166 -82 -122.499s-68.333 -58 -106 -77s-73.167 -28.5 -106.5 -28.5c-56.667 0 -92.667 23.333 -108 70c-50 -48.667 -103 -73 -159 -73c-40.667 0 -73.667 12.667 -99 38s-38 58 -38 98
c0 44 15.5 91.5 46.5 142.5s72.333 94.833 124 131.5s103.167 55 154.5 55c25.333 0 45.333 -5.33301 60 -16s27 -28.334 37 -53.001l27 59h90l-136 -280c-12.667 -24.667 -19 -42.667 -19 -54c0 -10.667 3.66699 -19.167 11 -25.5s16.666 -9.5 27.999 -9.5
c10.667 0 24.667 4 42 12s36 20.333 56 37s38.667 36 56 58s31.833 48.833 43.5 80.5s17.5 64.5 17.5 98.5c0 64 -27.167 119.5 -81.5 166.5s-126.5 70.5 -216.5 70.5c-50.667 0 -98.167 -6.83301 -142.5 -20.5s-82 -31.5 -113 -53.5s-59.167 -47.5 -84.5 -76.5
s-45.666 -58.167 -60.999 -87.5s-28.333 -59 -39 -89s-18 -56.5 -22 -79.5s-6 -42.833 -6 -59.5c0 -73.333 28.333 -133.333 85 -180s129.334 -70 218.001 -70c56 0 126.667 13.667 212 41l12 -79c-73.333 -30 -155.666 -45 -246.999 -45c-58.667 0 -111 7.33301 -157 22
s-82.5 33.167 -109.5 55.5s-49.5 48.166 -67.5 77.499s-30.167 57.333 -36.5 84s-9.5 53 -9.5 79c0 67.333 15.167 134.5 45.5 201.5s71.166 127.333 122.499 181s114.833 97.334 190.5 131.001s155.167 50.5 238.5 50.5c106 0 192.833 -29.667 260.5 -89
s101.5 -131.666 101.5 -216.999zM670.999 375.999c0 20.667 -6.5 37.5 -19.5 50.5s-29.833 19.5 -50.5 19.5c-42.667 0 -86.667 -26 -132 -78s-68 -103 -68 -153c0 -23.333 6.16699 -42.333 18.5 -57s28.5 -22 48.5 -22c44 0 88.833 28 134.5 84s68.5 108 68.5 156z" />
    <glyph glyph-name="A" unicode="A" horiz-adv-x="722" 
d="M532 147h-272l-81 -147h-153l407 729h173l97 -729h-153zM518 272l-35 283l-154 -283h189z" />
    <glyph glyph-name="B" unicode="B" horiz-adv-x="722" 
d="M562 729c38 0 70.833 -5.00195 98.5 -15.002s48.5 -23.167 62.5 -39.5s24 -33 30 -50s9 -34.833 9 -53.5c0 -70.667 -39 -131.667 -117 -183c25.333 -20 43.5 -40.333 54.5 -61s16.5 -44.667 16.5 -72c0 -14 -2 -30 -6 -48s-12.667 -39.667 -26 -65
s-30.5 -48.166 -51.5 -68.499s-50.833 -37.666 -89.5 -51.999s-83 -21.5 -133 -21.5h-328l155 729h325zM489 438.998c46.667 0 79 10.5 97 31.5s27 44.833 27 71.5c0 21.333 -7.16699 37 -21.5 47s-36.833 15 -67.5 15h-164l-35 -165h164zM437 124.998
c47.333 0 81 11.832 101 35.499s30 51.834 30 84.501c0 46 -30.333 69 -91 69h-178l-40 -189h178z" />
    <glyph glyph-name="C" unicode="C" horiz-adv-x="722" 
d="M107 235c0 92.667 18.333 177.672 55 255.005s87.667 138.5 153 183.5s138 67.5 218 67.5c77.333 0 140 -19.333 188 -58s72 -89 72 -151c0 -8.66699 -1.33301 -25.334 -4 -50.001h-141c0 87.333 -44 131 -132 131c-35.333 0 -67.333 -6.83301 -96 -20.5
s-52 -31.834 -70 -54.501s-33.5 -46.834 -46.5 -72.501s-22.833 -52.334 -29.5 -80.001s-11.334 -51.334 -14.001 -71.001s-4 -36.5 -4 -50.5c0 -106 49 -159 147 -159c48 0 89 12.5 123 37.5s58.333 60.5 73 106.5h143c-22 -85.333 -64.667 -152 -128 -200
s-140.666 -72 -231.999 -72c-85.333 0 -152.5 23 -201.5 69s-73.5 109 -73.5 189z" />
    <glyph glyph-name="D" unicode="D" horiz-adv-x="722" 
d="M77 0l155.001 729.002h285c90.667 0 156.5 -19.833 197.5 -59.5s61.5 -103.167 61.5 -190.5c0 -19.333 -1.33301 -40.5 -4 -63.5s-7.83398 -50.333 -15.501 -82s-17.667 -62.334 -30 -92.001s-29.333 -59.334 -51 -89.001s-46.5 -55.667 -74.5 -78
s-62.5 -40.333 -103.5 -54s-86.167 -20.5 -135.5 -20.5h-285zM254.001 125.002l134 -0.000976562c40 0 75.333 9.66699 106 29s54 42.333 70 69s29.167 57.334 39.5 92.001s16.833 64 19.5 88s4 46 4 66c0 90 -45.667 135 -137 135h-135z" />
    <glyph glyph-name="E" unicode="E" horiz-adv-x="667" 
d="M296 314l-40 -189h395l-27 -125h-545l155 729h528l-27 -125h-378l-35 -165h349l-26 -125h-349z" />
    <glyph glyph-name="F" unicode="F" horiz-adv-x="611" 
d="M291 314l-67 -314h-150l155 729h512l-27 -125h-362l-35 -165h320l-27 -125h-319z" />
    <glyph glyph-name="G" unicode="G" horiz-adv-x="778" 
d="M795 392l-84 -394h-90l7 90c-37.333 -39.333 -73.833 -67.666 -109.5 -84.999s-76.834 -26 -123.501 -26c-88 0 -158 25.667 -210 77s-78 120.666 -78 207.999c0 53.333 9.66699 107.5 29 162.5s46.833 106.333 82.5 154s82.167 86.667 139.5 117s120.333 45.5 189 45.5
c81.333 0 147 -19.5 197 -58.5s75 -90.167 75 -153.5c0 -3.33301 -0.666992 -14.333 -2 -33h-138c-4 37.333 -19.833 66.166 -47.5 86.499s-65.167 30.5 -112.5 30.5c-40 0 -76 -8.33301 -108 -25s-57.333 -37.5 -76 -62.5s-34.167 -53 -46.5 -84s-20.833 -59.5 -25.5 -85.5
s-7 -50 -7 -72c0 -51.333 16.167 -94 48.5 -128s72.833 -51 121.5 -51c32 0 61.5 5.83301 88.5 17.5s49 26.834 66 45.501s30.333 36.167 40 52.5s16.834 31.833 21.501 46.5h-166l27 125h292z" />
    <glyph glyph-name="H" unicode="H" horiz-adv-x="722" 
d="M577 331h-289l-70 -331h-150l155 729h150l-58 -273h288l58 273h151l-155 -729h-150z" />
    <glyph glyph-name="I" unicode="I" horiz-adv-x="278" 
d="M368 729l-155 -729h-150l155 729h150z" />
    <glyph glyph-name="J" unicode="J" horiz-adv-x="556" 
d="M491 729l150.001 -0.00292969l-115 -539c-30 -142 -123 -213 -279 -213c-58.667 0 -104.667 13.833 -138 41.5s-50 65.834 -50 114.501c0 22.667 2.33301 44.334 7 65.001l15 72h150l-16 -77c-2.66699 -11.333 -4 -22.666 -4 -33.999c0 -16 6.16699 -29 18.5 -39
s28.166 -15 47.499 -15c54 0 87 28.333 99 85z" />
    <glyph glyph-name="K" unicode="K" horiz-adv-x="722" 
d="M274 234l-50 -234h-150l155 729h150l-68 -320l354 320h178l-361 -319l235 -410h-179l-173 314z" />
    <glyph glyph-name="L" unicode="L" horiz-adv-x="611" 
d="M385 729l-128 -604h349l-27 -125h-499l155 729h150z" />
    <glyph glyph-name="M" unicode="M" horiz-adv-x="833" 
d="M497 0h-150l-7 619l-132 -619h-142l155 729h217l20 -560l254 560h219l-155 -729h-142l132 619z" />
    <glyph glyph-name="N" unicode="N" horiz-adv-x="722" 
d="M816 729l-155 -729h-148l-192 523l-111 -523h-142l155 729h150l192 -515l109 515h142z" />
    <glyph glyph-name="O" unicode="O" horiz-adv-x="778" 
d="M538 741c91.333 0 162.501 -25.168 213.501 -75.501s76.5 -120.5 76.5 -210.5c0 -41.333 -5.5 -83.5 -16.5 -126.5s-28.5 -85.667 -52.5 -128s-52.5 -80 -85.5 -113s-73.667 -59.667 -122 -80s-100.5 -30.5 -156.5 -30.5c-89.333 0 -159.833 25.5 -211.5 76.5
s-77.5 120.167 -77.5 207.5c0 39.333 5.5 80.5 16.5 123.5s28.5 85.833 52.5 128.5s52.5 80.834 85.5 114.501s73.667 61 122 82s100.166 31.5 155.499 31.5zM419.001 104.999c34.667 0 66.333 6.49902 95 19.499s52 30.333 70 52s33.667 44.834 47 69.501
s23.166 50 29.499 76s11 48.333 14 67s4.5 34.667 4.5 48c0 55.333 -14.167 98.5 -42.5 129.5s-67.5 46.5 -117.5 46.5c-34.667 0 -66.5 -6.5 -95.5 -19.5s-52.667 -30.167 -71 -51.5s-34.166 -44.166 -47.499 -68.499s-23.5 -49.5 -30.5 -75.5s-12 -48.5 -15 -67.5
s-4.5 -35.167 -4.5 -48.5c0 -54.667 14.667 -97.834 44 -129.501s69.333 -47.5 120 -47.5z" />
    <glyph glyph-name="P" unicode="P" horiz-adv-x="667" 
d="M539 729c39.333 0 73.3311 -5.33301 101.998 -16s50.334 -24.834 65.001 -42.501s25.167 -35.5 31.5 -53.5s9.5 -37 9.5 -57c0 -22.667 -3.16699 -46.667 -9.5 -72s-16.666 -51.666 -30.999 -78.999s-31.833 -52 -52.5 -74s-47.167 -40 -79.5 -54s-67.833 -21 -106.5 -21
h-187l-55 -260h-150l155 729h308zM460.998 385c26 0 48.502 4.5 67.502 13.5s33.167 21 42.5 36s16.166 30 20.499 45s6.5 30.167 6.5 45.5c0 23.333 -8.33301 42.333 -25 57s-38.334 22 -65.001 22h-154l-46 -219h153z" />
    <glyph glyph-name="Q" unicode="Q" horiz-adv-x="778" 
d="M686 103l64.001 -75.999l-93 -81l-69 81c-60 -33.333 -123.667 -50 -191 -50c-88.667 0 -158.834 25.667 -210.501 77s-77.5 120.666 -77.5 207.999c0 50.667 9.16699 103.167 27.5 157.5s44.5 105.833 78.5 154.5s79.167 88.667 135.5 120s118.833 47 187.5 47
c91.333 0 163 -25.667 215 -77s78 -121.666 78 -210.999c0 -61.333 -13.5 -124.833 -40.5 -190.5s-61.833 -118.834 -104.5 -159.501zM539.001 278.001l65 -77.999c23.333 29.333 42.166 65.833 56.499 109.5s21.5 85.834 21.5 126.501c0 55.333 -14.5 98.666 -43.5 129.999
s-69.167 47 -120.5 47c-53.333 0 -100.5 -17.833 -141.5 -53.5s-71 -78.167 -90 -127.5s-28.5 -99.333 -28.5 -150c0 -54.667 14.333 -97.834 43 -129.501s67.667 -47.5 117 -47.5c32.667 0 62.334 6.33301 89.001 19l-62 73z" />
    <glyph glyph-name="R" unicode="R" horiz-adv-x="722" 
d="M510 41c0 22.667 6.33301 57.9971 19 105.997s19 77 19 87c0 36.667 -28.333 55 -85 55h-172l-61 -289h-150l155 729h377c32.667 0 61 -5.16699 85 -15.5s42 -23.5 54 -39.5s20.667 -32 26 -48s8 -31.667 8 -47c0 -27.333 -4.5 -53 -13.5 -77s-19.167 -43.5 -30.5 -58.5
s-26.166 -29.5 -44.499 -43.5s-32.333 -23.667 -42 -29s-21.834 -11.666 -36.501 -18.999c52 -17.333 78 -44.666 78 -81.999c0 -22.667 -5.16699 -60.334 -15.5 -113.001s-15.5 -84.667 -15.5 -96c0 -13.333 6 -24.666 18 -33.999l-6 -27h-159
c-5.33301 16.667 -8 30.334 -8 41.001zM636 533.997c0 46.667 -36.667 70.002 -110 70.002h-168l-40 -190h181c26.667 0 49.5 4.16699 68.5 12.5s33.167 19.166 42.5 32.499s16 26.166 20 38.499s6 24.5 6 36.5z" />
    <glyph glyph-name="S" unicode="S" horiz-adv-x="667" 
d="M151 472c0 76.667 29.332 140.672 87.999 192.005s136.667 77 234 77c79.333 0 141.166 -15.167 185.499 -45.5s66.5 -72.5 66.5 -126.5c0 -16.667 -2.66699 -37.334 -8 -62.001h-140c1.33301 12 2 19.667 2 23c0 55.333 -44 83 -132 83
c-45.333 0 -81.166 -9.33301 -107.499 -28s-39.5 -44 -39.5 -76c0 -18.667 8.33301 -33.167 25 -43.5s48.667 -20.166 96 -29.499l109 -22c51.333 -10 90.333 -27.667 117 -53s40 -57.333 40 -96c0 -24 -3 -48 -9 -72s-17 -49.333 -33 -76s-36.333 -50 -61 -70
s-57.667 -36.667 -99 -50s-88 -20 -140 -20c-51.333 0 -95.5 6.16699 -132.5 18.5s-64.833 28.666 -83.5 48.999s-32.167 41.166 -40.5 62.499s-12.5 43.666 -12.5 66.999c0 11.333 1.33301 26 4 44h146c-1.33301 -12 -2 -19.667 -2 -23
c0 -28.667 12.5 -50.834 37.5 -66.501s60.167 -23.5 105.5 -23.5c52 0 93.5 10.167 124.5 30.5s46.5 47.166 46.5 80.499c0 23.333 -8.66699 41 -26 53s-48.666 22.667 -93.999 32l-98 20c-59.333 12 -102.333 29.833 -129 53.5s-40 56.167 -40 97.5z" />
    <glyph glyph-name="T" unicode="T" horiz-adv-x="611" 
d="M514 604l-129 -604h-150l129 604h-222l27 125h584l-27 -125h-212z" />
    <glyph glyph-name="U" unicode="U" horiz-adv-x="722" 
d="M659 729l149.997 0.000976562l-105 -494c-19.333 -88.667 -60.166 -153.834 -122.499 -195.501s-134.166 -62.5 -215.499 -62.5c-75.333 0 -135.333 17.167 -180 51.5s-67 80.5 -67 138.5c0 24 3.66699 53.333 11 88l101 474h150l-105 -494c-3.33301 -18 -5 -33 -5 -45
c0 -26.667 10.833 -47.5 32.5 -62.5s51.834 -22.5 90.501 -22.5c45.333 0 81 10.5 107 31.5s43.667 53.833 53 98.5z" />
    <glyph glyph-name="V" unicode="V" horiz-adv-x="667" 
d="M400 0h-127l-94 729h151l45 -549l276 549h151z" />
    <glyph glyph-name="W" unicode="W" horiz-adv-x="944" 
d="M730 0h-135l-4 555l-237 -555h-135l-51 729h159l-3 -546l224 546h158l-3 -548l225 548h159z" />
    <glyph glyph-name="X" unicode="X" horiz-adv-x="667" 
d="M499 372l156 -372h-179l-90 249l-189 -249h-175l310 367l-145 362h178l79 -236l183 236h175z" />
    <glyph glyph-name="Y" unicode="Y" horiz-adv-x="667" 
d="M477 270l-58 -270h-150l58 270l-145 459h167l82 -315l207 315h167z" />
    <glyph glyph-name="Z" unicode="Z" horiz-adv-x="611" 
d="M733 729l-27 -125l-474 -479h373l-27 -125h-548l27 125l474 479h-373l27 125h548z" />
    <glyph glyph-name="bracketleft" unicode="[" horiz-adv-x="333" 
d="M463 729l-22 -100h-113l-154 -729h113l-21 -100h-243l197 929h243z" />
    <glyph glyph-name="backslash" unicode="\" horiz-adv-x="278" 
d="M138 709h74l73 -732h-75z" />
    <glyph glyph-name="bracketright" unicode="]" horiz-adv-x="333" 
d="M-25 -200l22 100h113l154 729h-113l21 100h243l-197 -929h-243z" />
    <glyph glyph-name="asciicircum" unicode="^" horiz-adv-x="584" 
d="M580 270h-113l-58 300l-178 -300h-112l255 425h125z" />
    <glyph glyph-name="underscore" unicode="_" horiz-adv-x="556" 
d="M552 -120l-17 -80h-600l17 80h600z" />
    <glyph glyph-name="grave" unicode="`" horiz-adv-x="333" 
d="M175 757h119l45 -150h-63z" />
    <glyph glyph-name="a" unicode="a" horiz-adv-x="556" 
d="M386 549c38 0 70.4961 -3.83691 97.4961 -11.5039s46.833 -18 59.5 -31s21.667 -25.833 27 -38.5s8 -26 8 -40c0 -12 -2 -27 -6 -45l-63 -300c-2 -9.33301 -3 -16.333 -3 -21c0 -14 7 -29 21 -45l-4 -17h-153c-4.66699 10 -7 19 -7 27s1 17 3 27
c-57.333 -51.333 -113 -77 -167 -77c-44.667 0 -80.667 12 -108 36s-41 55.667 -41 95c0 10 1.33301 21.5 4 34.5s8.5 28.5 17.5 46.5s20.5 34.667 34.5 50s33.667 29.833 59 43.5s54.333 23.167 87 28.5l58 9c2.66699 0.666992 8.33398 1.5 17.001 2.5s15 1.83301 19 2.5
s10.167 1.83398 18.5 3.50098s14.5 3.33398 18.5 5.00098s9.33301 3.66699 16 6s11.834 5.16602 15.501 8.49902s7.33398 7.33301 11.001 12s6.33398 9.83398 8.00098 15.501s2.5 11.834 2.5 18.501c0 28.667 -24.333 43 -73 43c-32 0 -56.5 -5.66699 -73.5 -17
s-29.833 -30.666 -38.5 -57.999h-131c14 65.333 42.167 112.833 84.5 142.5s102.833 44.5 181.5 44.5zM399.996 216.996l8.00098 38.001c-8 -4.66699 -23.667 -9.33398 -47 -14.001l-66 -11c-32.667 -5.33301 -57.834 -16 -75.501 -32s-26.5 -35.667 -26.5 -59
c0 -33.333 24.333 -50 73 -50c34 0 62.5 11 85.5 33s39.167 53.667 48.5 95z" />
    <glyph glyph-name="b" unicode="b" horiz-adv-x="611" 
d="M214 729l139.999 0.000976562l-55 -259c44 52.667 99.333 79 166 79c52.667 0 95 -18.833 127 -56.5s48 -87.834 48 -150.501c0 -94.667 -30.167 -179.167 -90.5 -253.5s-129.166 -111.5 -206.499 -111.5c-66.667 0 -110.667 26 -132 78l-12 -55h-140zM408.999 437.001
c-42.667 0 -80.167 -23.5 -112.5 -70.5s-48.5 -101.833 -48.5 -164.5c0 -34 8 -61.333 24 -82s37.333 -31 64 -31c42.667 0 80.167 23.167 112.5 69.5s48.5 99.833 48.5 160.5c0 36.667 -7.83301 65.5 -23.5 86.5s-37.167 31.5 -64.5 31.5z" />
    <glyph glyph-name="c" unicode="c" horiz-adv-x="556" 
d="M398 549c60.667 0 109 -16.0049 145 -48.0049s54 -72 54 -120c0 -7.33301 -1.33301 -21.666 -4 -42.999h-134c-0.666992 33.333 -6 58.166 -16 74.499s-32 24.5 -66 24.5c-29.333 0 -55 -9 -77 -27s-38.333 -40.833 -49 -68.5s-18.5 -54.167 -23.5 -79.5
s-7.5 -48.666 -7.5 -69.999c0 -68.667 29.667 -103 89 -103c27.333 0 50 7.5 68 22.5s34.667 40.167 50 75.5h134c-20.667 -66.667 -54.5 -118.334 -101.5 -155.001s-102.833 -55 -167.5 -55c-40.667 0 -75.834 6.33301 -105.501 19s-52 29.334 -67 50.001
s-25.833 41.334 -32.5 62.001s-10 42 -10 64s2.33301 46.833 7 74.5s14.334 59.834 29.001 96.501s33.167 69.834 55.5 99.501s53.5 54.834 93.5 75.501s85.333 31 136 31z" />
    <glyph glyph-name="d" unicode="d" horiz-adv-x="611" 
d="M405 0l11.998 55c-45.333 -52 -100.666 -78 -165.999 -78c-52 0 -93.667 19 -125 57s-47 88.333 -47 151c0 42.667 7.16699 85.5 21.5 128.5s33.833 82 58.5 117s55.834 63.5 93.501 85.5s77.5 33 119.5 33c66 0 110.333 -26.333 133 -79l55 259h140l-155 -729h-140z
M379.998 437c-41.333 0 -78.002 -23.334 -110.002 -70.001s-48 -100.334 -48 -161.001c0 -36 7.83301 -64.5 23.5 -85.5s36.834 -31.5 63.501 -31.5c42.667 0 79.834 23.333 111.501 70s47.5 101.334 47.5 164.001c0 34.667 -7.83301 62.334 -23.5 83.001
s-37.167 31 -64.5 31z" />
    <glyph glyph-name="e" unicode="e" horiz-adv-x="556" 
d="M379 549c63.333 0 114.498 -18.3301 153.498 -54.9971s58.5 -84.334 58.5 -143.001c0 -38 -6 -79.667 -18 -125h-363c-2 -18.667 -3 -33.667 -3 -45c0 -27.333 8.66699 -49.5 26 -66.5s40.333 -25.5 69 -25.5c24 0 46.167 5.66699 66.5 17s35.5 26.666 45.5 45.999h138
c-27.333 -55.333 -65.166 -98.333 -113.499 -129s-102.833 -46 -163.5 -46c-62.667 0 -113.5 19.167 -152.5 57.5s-58.5 88.5 -58.5 150.5c0 16 1.66699 34.333 5 55s9 45.5 17 74.5s19.833 56.667 35.5 83s34.5 51.166 56.5 74.499s50.333 42 85 56s73.334 21 116.001 21z
M361.998 437.003c-67.333 0 -112 -39.334 -134 -118.001h220c0 18.667 -0.833008 33.834 -2.5 45.501s-5.16699 23.667 -10.5 36s-14 21.5 -26 27.5s-27.667 9 -47 9z" />
    <glyph glyph-name="f" unicode="f" horiz-adv-x="333" 
d="M425 529l-20.001 -93.001h-82l-93 -436h-140l93 436h-77l20 93h76l14 65c10 46.667 28.833 80.834 56.5 102.501s65.834 32.5 114.501 32.5c9.33301 0 35 -1 77 -3l-22 -105c-24 2.66699 -38 4 -42 4c-24 0 -39.333 -14.333 -46 -43l-12 -53h83z" />
    <glyph glyph-name="g" unicode="g" horiz-adv-x="611" 
d="M235 -218c-75.333 0 -129 12.167 -161 36.5s-48 52.833 -48 85.5c0 8.66699 1 19 3 31h144c-0.666992 -4.66699 -1 -8.66699 -1 -12c0 -14.667 8.16699 -26.834 24.5 -36.501s36.833 -14.5 61.5 -14.5c36.667 0 68.334 10.167 95.001 30.5s43.667 46.833 51 79.5l16 73
c-32 -29.333 -60 -49.666 -84 -60.999s-51.333 -17 -82 -17c-50.667 0 -92.5 18 -125.5 54s-49.5 81.333 -49.5 136c0 35.333 4.33301 71.166 13 107.499s21.667 70.833 39 103.5s37.833 61.834 61.5 87.501s51.5 46 83.5 61s66 22.5 102 22.5c58 0 100.333 -30.667 127 -92
l18 83h133l-119 -558c-13.333 -63.333 -46.333 -112.5 -99 -147.5s-120.334 -52.5 -203.001 -52.5zM379 437c-40.667 0 -77.001 -24 -109.001 -72s-48 -102.667 -48 -164c0 -34.667 7.5 -62 22.5 -82s35.5 -30 61.5 -30c44.667 0 83.334 22.5 116.001 67.5
s49 97.833 49 158.5c0 37.333 -8.33301 67 -25 89s-39 33 -67 33z" />
    <glyph glyph-name="h" unicode="h" horiz-adv-x="611" 
d="M222 729l140 -0.000976562l-58 -271c51.333 60.667 111.333 91 180 91c43.333 0 78.333 -12.167 105 -36.5s40 -56.166 40 -95.499c0 -18 -2 -36.333 -6 -55l-77 -362h-140l67 313c4 20.667 6 36.667 6 48c0 50.667 -24.333 76 -73 76c-32 0 -60.167 -12 -84.5 -36
s-40.833 -56.333 -49.5 -97l-65 -304h-140z" />
    <glyph glyph-name="i" unicode="i" horiz-adv-x="278" 
d="M322 540l-115 -540h-140l115 540h140zM362 729l-27 -125h-140l27 125h140z" />
    <glyph glyph-name="j" unicode="j" horiz-adv-x="278" 
d="M325 540l-134.998 -634c-9.33301 -43.333 -28.833 -74.833 -58.5 -94.5s-72.834 -29.5 -129.501 -29.5c-18.667 0 -33.667 1.66699 -45 5l24 111c3.33301 -2.66699 11.666 -4 24.999 -4c15.333 0 26.833 3.33301 34.5 10s13.167 18 16.5 34l128 602h140zM365.002 729
l-27 -125h-140l27 125h140z" />
    <glyph glyph-name="k" unicode="k" horiz-adv-x="556" 
d="M354 729l-85 -399l223 210h159l-232 -206l129 -334h-164l-79 239l-68 -62l-38 -177h-140l155 729h140z" />
    <glyph glyph-name="l" unicode="l" horiz-adv-x="278" 
d="M362 729l-155 -729h-140l155 729h140z" />
    <glyph glyph-name="m" unicode="m" horiz-adv-x="889" 
d="M175 540l139 -0.00195312l-17 -81c29.333 32.667 57 55.834 83 69.501s55.333 20.5 88 20.5c30.667 0 57.167 -7.33301 79.5 -22s37.166 -34.667 44.499 -60c52.667 54.667 111.667 82 177 82c44.667 0 79.5 -11.167 104.5 -33.5s37.5 -53.166 37.5 -92.499
c0 -14.667 -2.66699 -35 -8 -61l-77 -362h-140l72 340c3.33301 15.333 5 29 5 41c0 37.333 -19.333 56 -58 56c-31.333 0 -57.833 -9.83301 -79.5 -29.5s-36.167 -47.5 -43.5 -83.5l-69 -324h-140l74 346c2 10.667 3 21.667 3 33c0 17.333 -5.66699 31.333 -17 42
s-26.666 16 -45.999 16c-29.333 0 -54.5 -10.167 -75.5 -30.5s-35.167 -47.833 -42.5 -82.5l-69 -324h-140z" />
    <glyph glyph-name="n" unicode="n" horiz-adv-x="611" 
d="M178 540h139.996l-18 -82c26.667 32 54.334 55.167 83.001 69.5s61.667 21.5 99 21.5c44.667 0 80.334 -12 107.001 -36s40 -56 40 -96c0 -18 -2 -36.333 -6 -55l-77 -362h-140l67 313c4 22 6 38.333 6 49c0 50 -24.667 75 -74 75
c-33.333 0 -62.166 -11.833 -86.499 -35.5s-41.166 -56.167 -50.499 -97.5l-65 -304h-140z" />
    <glyph glyph-name="o" unicode="o" horiz-adv-x="611" 
d="M82 177c0 103.333 30.5 191.166 91.5 263.499s140.833 108.5 239.5 108.5c68.667 0 122.667 -17.833 162 -53.5s59 -84.5 59 -146.5c0 -105.333 -31 -193.666 -93 -264.999s-142.667 -107 -242 -107c-66 0 -118.667 18.167 -158 54.5s-59 84.833 -59 145.5zM324 89
c31.333 0 58.6689 9.16797 82.002 27.501s40.666 41 51.999 68s19.666 52.167 24.999 75.5s8 43.333 8 60c0 35.333 -9 63.666 -27 84.999s-42.333 32 -73 32c-45.333 0 -84.333 -22.833 -117 -68.5s-49 -100.167 -49 -163.5c0 -35.333 9 -63.5 27 -84.5s42 -31.5 72 -31.5z
" />
    <glyph glyph-name="p" unicode="p" horiz-adv-x="611" 
d="M312 540l-17 -80c46 59.333 102.333 89 169 89c53.333 0 95.5 -18.667 126.5 -56s46.5 -87.666 46.5 -150.999c0 -100.667 -28.667 -186.834 -86 -258.501s-126.333 -107.5 -207 -107.5c-68 0 -112.333 29.333 -133 88l-60 -282h-140l161 758h140zM406 437
c-42.667 0 -80 -23.501 -112 -70.501s-48 -102.167 -48 -165.5c0 -34 8 -61.333 24 -82s37.333 -31 64 -31c43.333 0 80.833 23.333 112.5 70s47.5 101.667 47.5 165c0 34.667 -8 62.334 -24 83.001s-37.333 31 -64 31z" />
    <glyph glyph-name="q" unicode="q" horiz-adv-x="611" 
d="M519 540h140.001l-161 -758h-140l60 282c-44.667 -58.667 -101.334 -88 -170.001 -88c-53.333 0 -96 18.667 -128 56s-48 86.666 -48 147.999c0 58.667 11.667 115.834 35 171.501s58.333 102.5 105 140.5s99 57 157 57c68.667 0 113 -29.667 133 -89zM377.001 437
c-43.333 0 -81.166 -23.499 -113.499 -70.499s-48.5 -101.833 -48.5 -164.5c0 -34.667 8.16699 -62.334 24.5 -83.001s37.833 -31 64.5 -31c43.333 0 81.166 23.5 113.499 70.5s48.5 102.167 48.5 165.5c0 34.667 -8 62.167 -24 82.5s-37.667 30.5 -65 30.5z" />
    <glyph glyph-name="r" unicode="r" horiz-adv-x="389" 
d="M178 540h140l-23 -106c23.333 36.667 50.333 65 81 85s62 30 94 30c6 0 11.667 -0.333008 17 -1l-30 -142c-16 2.66699 -30.333 4 -43 4c-82.667 0 -132.667 -41 -150 -123l-61 -287h-140z" />
    <glyph glyph-name="s" unicode="s" horiz-adv-x="556" 
d="M127 345c0 58.667 24.167 107.334 72.5 146.001s110.833 58 187.5 58c62.667 0 112 -12.833 148 -38.5s54 -61.167 54 -106.5c0 -10.667 -1.66699 -23.334 -5 -38.001h-135c2 9.33301 3 15.666 3 18.999c0 16 -7.83301 28.667 -23.5 38s-37.167 14 -64.5 14
c-26.667 0 -48 -4.83301 -64 -14.5s-24 -22.5 -24 -38.5c0 -10 4.5 -18.167 13.5 -24.5s26.167 -13.166 51.5 -20.499l96 -28c81.333 -24.667 122 -66 122 -124c0 -64 -25.167 -115 -75.5 -153s-117.833 -57 -202.5 -57c-42 0 -78.333 5 -109 15s-53.5 23.167 -68.5 39.5
s-26 32.333 -33 48s-10.5 31.5 -10.5 47.5c0 6.66699 1.33301 16.667 4 30h137c2.66699 -45.333 38 -68 106 -68c30.667 0 55.667 5.16699 75 15.5s29 23.5 29 39.5c0 11.333 -4.83301 20.333 -14.5 27s-30.167 15 -61.5 25l-79 25c-44 14.667 -76.5 32 -97.5 52
s-31.5 44 -31.5 72z" />
    <glyph glyph-name="t" unicode="t" horiz-adv-x="333" 
d="M414 529l-20 -93.001h-78l-62 -294c-4 -17.333 -6 -28.666 -6 -33.999c0 -16.667 12.667 -25 38 -25c8 0 19 1 33 3l-20 -98c-26 -7.33301 -54.333 -11 -85 -11c-36.667 0 -64.667 7.5 -84 22.5s-29 36.167 -29 63.5c0 12 1.66699 25.667 5 41l70 332h-69l20 93h69
l31 145h140l-31 -145h78z" />
    <glyph glyph-name="u" unicode="u" horiz-adv-x="611" 
d="M541 0l-139.999 -0.000976562l15 68c-26.667 -32 -54.334 -55.167 -83.001 -69.5s-61.667 -21.5 -99 -21.5c-44 0 -79.333 12 -106 36s-40 56 -40 96c0 18 2 36.333 6 55l80 376h140l-70 -327c-4 -23.333 -6 -39.666 -6 -48.999c0 -50 25.333 -75 76 -75
c32.667 0 61 12 85 36s40.333 56.333 49 97l68 318h140z" />
    <glyph glyph-name="v" unicode="v" horiz-adv-x="556" 
d="M350 0h-147l-74 540h148l30 -395l196 395h148z" />
    <glyph glyph-name="w" unicode="w" horiz-adv-x="778" 
d="M617 0h-145l-5 380l-166 -380h-144l-37 540h145l5 -378l159 378h144v-378l163 378h145z" />
    <glyph glyph-name="x" unicode="x" horiz-adv-x="556" 
d="M411 274l123 -274h-168l-59 168l-123 -168h-168l233 274l-111 266h168l51 -163l123 163h168z" />
    <glyph glyph-name="y" unicode="y" horiz-adv-x="556" 
d="M509 540h144.002l-358 -638c-16.667 -31.333 -31.334 -53.333 -44.001 -66c-38 -36.667 -94.667 -55 -170 -55c-18 0 -32.667 1.33301 -44 4l23 109c7.33301 -1.33301 16.666 -2 27.999 -2c34.667 0 62.167 8.33301 82.5 25s30.5 39.334 30.5 68.001
c-8.66699 71.333 -22.167 171.166 -40.5 299.499l-36.5 255.5h154l36 -393z" />
    <glyph glyph-name="z" unicode="z" horiz-adv-x="500" 
d="M575 540l-24 -113l-332 -314h274l-24 -113h-448l24 113l334 314h-249l24 113h421z" />
    <glyph glyph-name="braceleft" unicode="{" horiz-adv-x="389" 
d="M195 269c15.333 -2.66699 27.5 -5.33398 36.5 -8.00098s18.333 -9.16699 28 -19.5s14.5 -24.166 14.5 -41.499c0 -10.667 -1.66699 -24.334 -5 -41.001l-42 -195c-3.33301 -18.667 -5 -32 -5 -40c0 -16.667 13 -25 39 -25h35l-21 -99h-77c-28.667 0 -52 9.33301 -70 28
s-27 43 -27 73c0 14.667 1.33301 27.667 4 39l45 210c3.33301 16.667 5 28 5 34c0 25.333 -18 38 -54 38h-13l-4 1l20 92h16c42.667 0 68.667 21 78 63l45 211c9.33301 44.667 27.333 79.167 54 103.5s59.667 36.5 99 36.5h76l-21 -99h-37
c-18.667 0 -31.667 -3.66699 -39 -11s-13.333 -22.666 -18 -45.999l-41 -195c-8 -36 -21 -62.167 -39 -78.5s-45.333 -26.5 -82 -30.5z" />
    <glyph glyph-name="bar" unicode="|" horiz-adv-x="280" 
d="M335 729l-198 -929h-80l198 929h80z" />
    <glyph glyph-name="braceright" unicode="}" horiz-adv-x="389" 
d="M308 260c-15.333 2.66699 -27.5 5.33398 -36.5 8.00098s-18.333 9.16699 -28 19.5s-14.5 24.166 -14.5 41.499c0 10.667 1.66699 24.334 5 41.001l42 195c3.33301 18.667 5 32 5 40c0 16.667 -13 25 -39 25h-35l21 99h77c28.667 0 52 -9.33301 70 -28s27 -43 27 -73
c0 -14.667 -1.33301 -27.667 -4 -39l-45 -210c-3.33301 -16.667 -5 -28 -5 -34c0 -25.333 18 -38 54 -38h13l4 -1l-20 -92h-16c-42.667 0 -68.667 -21 -78 -63l-45 -211c-9.33301 -44.667 -27.333 -79.167 -54 -103.5s-59.667 -36.5 -99 -36.5h-76l21 99h37
c18.667 0 31.667 3.66699 39 11s13.333 22.666 18 45.999l41 195c8 36 21 62.167 39 78.5s45.333 26.5 82 30.5z" />
    <glyph glyph-name="asciitilde" unicode="~" horiz-adv-x="584" 
d="M504 288l77.001 0.000976562c-11.333 -47.333 -30.5 -83.5 -57.5 -108.5s-60.5 -37.5 -100.5 -37.5c-31.333 0 -57 8.66699 -77 26l-48 42c-18.667 16 -37.334 24 -56.001 24c-19.333 0 -33.666 -4.66699 -42.999 -14s-17.333 -26.333 -24 -51h-78
c26 96.667 79 145 159 145c31.333 0 56.666 -8.33301 75.999 -25l49 -42c18.667 -16.667 37.334 -25 56.001 -25s32.667 4.66699 42 14s17.666 26.666 24.999 51.999z" />
    <glyph glyph-name="nonbreakingspace" unicode="&#xa0;" horiz-adv-x="278" 
 />
    <glyph glyph-name="exclamdown" unicode="&#xa1;" horiz-adv-x="333" 
d="M26 -186l45 210l107 309h67l-24 -309l-45 -210h-150zM150 394l31 146h150l-31 -146h-150z" />
    <glyph glyph-name="cent" unicode="&#xa2;" horiz-adv-x="556" 
d="M434 547c27.333 -3.33301 51.5039 -10.3301 72.5039 -20.9971s37.167 -22.334 48.5 -35.001s20.333 -26.667 27 -42s11 -28.333 13 -39s3 -20.334 3 -29.001c0 -7.33301 -1.33301 -21.666 -4 -42.999h-134c0 30 -3.66699 52.167 -11 66.5s-20.333 24.5 -39 30.5l-73 -346
c20.667 4.66699 38 14.667 52 30s27 38 39 68h134c-18 -61.333 -49.333 -110.833 -94 -148.5s-96.334 -57.834 -155.001 -60.501l-21 -102h-66l22 104c-29.333 4.66699 -55 13.334 -77 26.001s-38.667 26 -50 40s-20.333 30 -27 48s-10.834 32.667 -12.501 44
s-2.5 22.666 -2.5 33.999c0 14.667 1.5 32.167 4.5 52.5s8.16699 44.833 15.5 73.5s18.166 56.334 32.499 83.001s31.666 52.167 51.999 76.5s46.333 44.666 78 60.999s67.167 26.166 106.5 29.499l19 86h66zM344.004 435.003c-24.667 -6.66699 -45.667 -21 -63 -43
s-29.833 -46.833 -37.5 -74.5s-13.167 -52 -16.5 -73s-5 -38.833 -5 -53.5c0 -27.333 3.83301 -48.5 11.5 -63.5s20.5 -26.5 38.5 -34.5z" />
    <glyph glyph-name="sterling" unicode="&#xa3;" horiz-adv-x="556" 
d="M288 496c0 -11.333 3.99902 -31.335 11.999 -60.002s13.333 -50.334 16 -65.001h139l-12 -55h-122c1.33301 -8.66699 2 -17.334 2 -26.001c0 -35.333 -11.5 -68.5 -34.5 -99.5s-61.833 -65.833 -116.5 -104.5c32 14.667 54.167 23.834 66.5 27.501s26.166 5.5 41.499 5.5
c14 0 35.167 -2.83301 63.5 -8.5s50.833 -8.5 67.5 -8.5c32.667 0 70.667 9.66699 114 29l18 -109c-58 -30 -109.667 -45 -155 -45c-24 0 -56 5 -96 15s-71.667 15 -95 15c-33.333 0 -71.666 -9.33301 -114.999 -28l-33 101c52 30.667 89 59.834 111 87.501
s33 58.834 33 93.501c0 13.333 -1.66699 31.666 -5 54.999h-89l12 55h60c-17.333 50.667 -26 86.334 -26 107.001c0 13.333 2.33301 28.833 7 46.5s13.834 38 27.501 61s30.334 43.833 50.001 62.5s46.667 34.5 81 47.5s72.5 19.5 114.5 19.5c136 0 204 -58.667 204 -176
c0 -14.667 -1.33301 -33 -4 -55h-131c0.666992 6.66699 1 15.334 1 26.001c0 62 -31 93 -93 93c-30.667 0 -57.334 -10.667 -80.001 -32s-34 -46.333 -34 -75z" />
    <glyph glyph-name="currency" unicode="&#xa4;" horiz-adv-x="556" 
d="M501 528l89 73l54 -69l-91 -75c6.66699 -22 10 -42 10 -60c0 -52.667 -18.667 -103 -56 -151l60 -76l-83 -68l-59 75c-40 -20 -76 -30 -108 -30c-44.667 0 -79 10.333 -103 31l-94 -78l-54 69l94 77c-7.33301 22 -11 43.333 -11 64c0 52.667 18.333 101.667 55 147
l-62 79l83 68l61 -77c36.667 20.667 76 31 118 31c36.667 0 69 -10 97 -30zM377 460c-36 0 -66.333 -12.5 -91 -37.5s-37 -55.833 -37 -92.5c0 -25.333 8 -45.833 24 -61.5s36.667 -23.5 62 -23.5c35.333 0 65.5 12.667 90.5 38s37.5 56 37.5 92c0 24.667 -8 45 -24 61
s-36.667 24 -62 24z" />
    <glyph glyph-name="yen" unicode="&#xa5;" horiz-adv-x="556" 
d="M574 352l-13 -60h-144l-11 -52h144l-13 -60h-144l-38 -180h-140l38 180h-146l13 60h146l11 52h-146l12 60h140l-128 352h139l85 -254l187 254h136l-267 -352h139z" />
    <glyph glyph-name="brokenbar" unicode="&#xa6;" horiz-adv-x="280" 
d="M335 729l-83 -389h-80l83 389h80zM220 189l-83 -389h-80l83 389h80z" />
    <glyph glyph-name="section" unicode="&#xa7;" horiz-adv-x="556" 
d="M496 27c0 -11.333 -2 -25.166 -6 -41.499s-12.167 -35.833 -24.5 -58.5s-27.666 -43.167 -45.999 -61.5s-43.833 -34 -76.5 -47s-69.667 -19.5 -111 -19.5c-54 0 -96.833 12.833 -128.5 38.5s-47.5 60.167 -47.5 103.5c0 17.333 3 37 9 59h131
c-2 -17.333 -3 -28.666 -3 -33.999c0 -36.667 21.667 -55 65 -55c25.333 0 46.666 7.16699 63.999 21.5s26 31.833 26 52.5c0 13.333 -2.83301 23 -8.5 29s-21.167 17.667 -46.5 35l-150 100c-36 24.667 -54 57.334 -54 98.001c0 38 9.16699 70.167 27.5 96.5
s51.5 54.5 99.5 84.5c-25.333 26 -38 58 -38 96c0 50.667 21.667 95.667 65 135c46 42.667 106.667 64 182 64c53.333 0 95.166 -11.333 125.499 -34s45.5 -54.334 45.5 -95.001c0 -10 -2.33301 -26.667 -7 -50h-127c0.666992 4.66699 1 10.667 1 18
c0 39.333 -20.667 59 -62 59c-21.333 0 -39.166 -6 -53.499 -18s-21.5 -26.667 -21.5 -44c0 -20 23.667 -44.667 71 -74l112 -70c46 -28.667 69 -66.334 69 -113.001c0 -48.667 -11.333 -86.334 -34 -113.001s-54.667 -47.667 -96 -63c32 -26 48 -59 48 -99zM258 247
l125 -77c43.333 20 65 45.667 65 77c0 12 -3.33301 22.167 -10 30.5s-18.667 17.833 -36 28.5l-127 76c-37.333 -19.333 -56 -46.333 -56 -81c0 -20.667 13 -38.667 39 -54z" />
    <glyph glyph-name="dieresis" unicode="&#xa8;" horiz-adv-x="333" 
d="M474 741l-26 -120h-110l26 120h110zM278 741l-26 -120h-110l26 120h110z" />
    <glyph glyph-name="copyright" unicode="&#xa9;" horiz-adv-x="737" 
d="M232 287c0 86 25.1689 158.336 75.502 217.003s112.166 88 185.499 88c46.667 0 84 -11.667 112 -35s42 -54.333 42 -93c0 -5.33301 -1 -16.333 -3 -33h-90c0 27.333 -6 47.166 -18 59.499s-31.333 18.5 -58 18.5c-30 0 -56 -8.33301 -78 -25s-38 -37.334 -48 -62.001
s-17 -46.667 -21 -66s-6 -36.333 -6 -51c0 -30.667 7.5 -54 22.5 -70s36.167 -24 63.5 -24c58 0 96.333 28.667 115 86h92c-14 -52.667 -41.333 -94 -82 -124s-89.334 -45 -146.001 -45c-48.667 0 -87.167 14.167 -115.5 42.5s-42.5 67.166 -42.5 116.499zM530.002 743.003
c88.667 0 162 -28.667 220 -86s87 -129.666 87 -216.999c0 -58.667 -13.333 -116.334 -40 -173.001s-61.834 -106 -105.501 -148s-94.667 -76 -153 -102s-117.833 -39 -178.5 -39c-88 0 -161 28.667 -219 86s-87 129.666 -87 216.999c0 58.667 13.333 116.334 40 173.001
s61.834 106 105.501 148s94.667 76 153 102s117.5 39 177.5 39zM514.002 671.003c-98 0 -185.833 -38.5 -263.5 -115.5s-116.5 -163.833 -116.5 -260.5c0 -70.667 23 -129.167 69 -175.5s104 -69.5 174 -69.5c98 0 185.833 38.5 263.5 115.5s116.5 164.167 116.5 261.5
c0 70.667 -23 129 -69 175s-104 69 -174 69z" />
    <glyph glyph-name="ordfeminine" unicode="&#xaa;" horiz-adv-x="370" 
d="M396 342l-16 -80h-284l17 80h283zM420 409l-2 -9.99902h-92c-2.66699 5.33301 -4 10.666 -4 15.999c0 4 0.666992 9.33301 2 16c-34.667 -30.667 -70.334 -46 -107.001 -46c-25.333 0 -45.5 7 -60.5 21s-22.5 33 -22.5 57c0 31.333 11.167 58.333 33.5 81
s51.833 36.667 88.5 42l34 6c36.667 5.33301 58.667 11.666 66 18.999c6.66699 6 10 14.333 10 25c0 16.667 -14.667 25 -44 25c-19.333 0 -34.166 -3.33301 -44.499 -10s-17.833 -18 -22.5 -34h-79c16.667 74.667 70.334 112 161.001 112
c35.333 0 63.166 -6.33301 83.499 -19s30.5 -30.334 30.5 -53.001c0 -7.33301 -1 -16.666 -3 -27.999l-39 -180c-0.666992 -3.33301 -1 -7.66602 -1 -12.999c0 -8 4 -17 12 -27zM344 529.001l5.00098 23.001c-6.66699 -2.66699 -12 -4.66699 -16 -6l-12 -2l-10 -1l-30 -6
c-18.667 -2.66699 -33.334 -8.83398 -44.001 -18.501s-16 -21.5 -16 -35.5c0 -20 14 -30 42 -30c20.667 0 38.167 6.66699 52.5 20s23.833 32 28.5 56z" />
    <glyph glyph-name="guillemotleft" unicode="&#xab;" horiz-adv-x="556" 
d="M135 218l24 114l199 149l-25 -117l-120 -89l82 -89l-24 -114zM348 218l24 114l199 149l-25 -117l-120 -89l82 -89l-24 -114z" />
    <glyph glyph-name="logicalnot" unicode="&#xac;" horiz-adv-x="584" 
d="M128 376h504l-61 -290h-119l36 170h-385z" />
    <glyph glyph-name="softhyphen" unicode="&#xad;" horiz-adv-x="333" 
d="M371 342l-29 -135h-272l29 135h272z" />
    <glyph glyph-name="registered" unicode="&#xae;" horiz-adv-x="737" 
d="M480 168c0 14 3.33301 34.832 10 62.499s10 43.5 10 47.5c0 23.333 -17.667 35 -53 35h-91l-37 -173h-96l94 442h238c66 0 99 -29.667 99 -89c0 -64 -32.333 -110.667 -97 -140c26 -12 39 -28.333 39 -49c0 -13.333 -5 -49.666 -15 -108.999l-1 -13
c0 -8.66699 4 -15.667 12 -21l-5 -21h-102c-3.33301 10.667 -5 20 -5 28zM475 393.999c24.667 0 43.833 5.33203 57.5 15.999s20.5 30.334 20.5 59.001c0 12 -4.16699 20.5 -12.5 25.5s-22.5 7.5 -42.5 7.5h-102l-23 -108h102zM529.999 742.998
c88.667 0 162.001 -28.667 220.001 -86s87 -129.666 87 -216.999c0 -78 -22.333 -152.833 -67 -224.5s-103.834 -129.167 -177.501 -172.5s-150.834 -65 -231.501 -65c-88 0 -161 28.667 -219 86s-87 129.666 -87 216.999c0 78 22.333 152.833 67 224.5
s103.834 129.167 177.501 172.5s150.5 65 230.5 65zM514 670.998c-64 0 -125.332 -17.668 -183.999 -53.001s-105.834 -82.166 -141.501 -140.499s-53.5 -119.166 -53.5 -182.499c0 -70.667 22.833 -129.167 68.5 -175.5s103.5 -69.5 173.5 -69.5
c64 0 125.5 17.667 184.5 53s106.333 82.166 142 140.499s53.5 119.5 53.5 183.5c0 70.667 -23 129 -69 175s-104 69 -174 69z" />
    <glyph glyph-name="macron" unicode="&#xaf;" horiz-adv-x="333" 
d="M467 722l-17 -80h-300l17 80h300z" />
    <glyph glyph-name="degree" unicode="&#xb0;" horiz-adv-x="606" 
d="M391 686c42 0 77.835 -14.833 107.502 -44.5s44.5 -65.167 44.5 -106.5c0 -42.667 -14.833 -78.667 -44.5 -108s-65.834 -44 -108.501 -44c-40.667 0 -75.834 15 -105.501 45s-44.5 65.667 -44.5 107s14.833 76.833 44.5 106.5s65.167 44.5 106.5 44.5zM392.002 623
c-24.667 0 -45.665 -8.66699 -62.998 -26s-26 -38.333 -26 -63c0 -23.333 8.66699 -43.833 26 -61.5s37.666 -26.5 60.999 -26.5c25.333 0 46.666 8.66699 63.999 26s26 38.333 26 63c0 24 -8.66699 44.667 -26 62s-38 26 -62 26z" />
    <glyph glyph-name="plusminus" unicode="&#xb1;" horiz-adv-x="584" 
d="M630 452l-25 -120h-183l-35 -162h-119l35 162h-182l25 120h182l39 181h119l-39 -181h183zM559 119l-25 -119h-484l25 119h484z" />
    <glyph glyph-name="twosuperior" unicode="&#xb2;" horiz-adv-x="350" 
d="M457 613c0 -32.667 -10.168 -62.668 -30.501 -90.001s-43.166 -48.666 -68.499 -63.999l-80 -49.5c-28 -17.667 -47 -32.834 -57 -45.501h184l-17 -80h-306c10 37.333 26.5 69.833 49.5 97.5s47.333 49 73 64l75 43c24.333 13.667 44.5 29.5 60.5 47.5s24 39.333 24 64
c0 30.667 -17.333 46 -52 46c-44 0 -69 -29.667 -75 -89h-91c8 52 27.333 91.833 58 119.5s70.667 41.5 120 41.5c42 0 74.667 -9.16699 98 -27.5s35 -44.166 35 -77.499z" />
    <glyph glyph-name="threesuperior" unicode="&#xb3;" horiz-adv-x="350" 
d="M240 471l12.998 62.9951c2.66699 -0.666992 6 -1 10 -1c26.667 0 47.834 6.5 63.501 19.5s23.5 30.833 23.5 53.5c0 12 -4.16699 21.667 -12.5 29s-19.166 11 -32.499 11c-19.333 0 -34 -5.5 -44 -16.5s-18 -30.5 -24 -58.5h-87c10 50.667 28.833 87.834 56.5 111.501
s66.167 35.5 115.5 35.5c40.667 0 72.167 -8.16699 94.5 -24.5s33.5 -39.166 33.5 -68.499c0 -46 -23.667 -83.667 -71 -113c28.667 -18 43 -42.333 43 -73c0 -49.333 -17 -89.666 -51 -120.999s-78.333 -47 -133 -47c-41.333 0 -73.5 9.33301 -96.5 28s-34.5 45 -34.5 79
c0 10 1.33301 22 4 36h91c-1.33301 -5.33301 -2 -11.333 -2 -18c0 -31.333 18.667 -47 56 -47c20 0 37.167 7.16699 51.5 21.5s21.5 31.5 21.5 51.5c0 16.667 -5.83301 28.834 -17.5 36.501s-31.167 11.834 -58.5 12.501h-13z" />
    <glyph glyph-name="acute" unicode="&#xb4;" horiz-adv-x="333" 
d="M475 757l-158 -150h-70l102 150h126z" />
    <glyph glyph-name="micro" unicode="&#xb5;" horiz-adv-x="667" 
d="M523 118l18.998 -9.00195l16 -76c-42.667 -23.333 -74 -35 -94 -35c-44 0 -69.667 15 -77 45c-40.667 -36.667 -87.667 -55 -141 -55c-7.33301 0 -14.166 0.333008 -20.499 1s-11.833 1.33398 -16.5 2.00098s-9.66699 2 -15 4l-12 4.5
c-2.66699 1 -6.16699 2.66699 -10.5 5s-7.16602 3.83301 -8.49902 4.5s-4 2.33398 -8 5.00098l-6 5l-55 -213h-138l191 737h138l-83 -322c-2.66699 -10 -4 -20.667 -4 -32c0 -20 6.33301 -38.667 19 -56s33.667 -26 63 -26c30 0 56.833 10 80.5 30s40.167 48 49.5 84l83 322
h136l-97 -376c-6 -22.667 -9 -39 -9 -49z" />
    <glyph glyph-name="paragraph" unicode="&#xb6;" horiz-adv-x="556" 
d="M121 435c0 30.667 6 62.667 18 96s28.667 65 50 95s49 54.667 83 74s70.667 29 110 29h302l-15 -73h-44l-180 -847h-98l180 847h-62l-180 -847h-98l97 458c-50 2.66699 -89.667 19 -119 49s-44 69.667 -44 119z" />
    <glyph glyph-name="periodcentered" unicode="&#xb7;" horiz-adv-x="278" 
d="M270 282l-22 -100h-105l22 100h105z" />
    <glyph glyph-name="cedilla" unicode="&#xb8;" horiz-adv-x="333" 
d="M154 0h49.998l-41 -62c16 4 30.333 6 43 6c20 0 35.667 -5 47 -15s17 -24 17 -42c0 -32.667 -13.667 -58.667 -41 -78s-63.666 -29 -108.999 -29c-39.333 0 -83.666 9.66699 -132.999 29l30 51c40.667 -20 73.334 -30 98.001 -30c18.667 0 34.667 4.33301 48 13
s20 19 20 31c0 10 -4 18 -12 24s-18.667 9 -32 9c-14.667 0 -32.334 -4.33301 -53.001 -13z" />
    <glyph glyph-name="onesuperior" unicode="&#xb9;" horiz-adv-x="248" 
d="M248 573h-106l13 61c77.333 0 128 25 152 75h63l-90 -425h-94z" />
    <glyph glyph-name="ordmasculine" unicode="&#xba;" horiz-adv-x="365" 
d="M410 342l-17 -80h-301l17 80h301zM140 506c0 60.667 18.333 112.999 55 156.999s84.667 66 144 66c41.333 0 73.666 -10.667 96.999 -32s35 -50.333 35 -87c0 -63.333 -18.667 -116.5 -56 -159.5s-86 -64.5 -146 -64.5c-39.333 0 -70.666 10.833 -93.999 32.5
s-35 50.834 -35 87.501zM326 660.999c-27.333 0 -50.668 -13.832 -70.001 -41.499s-29 -60.834 -29 -99.501c0 -21.333 5.33301 -38.5 16 -51.5s24.667 -19.5 42 -19.5c26.667 0 49.834 14 69.501 42s29.5 61 29.5 99c0 21.333 -5.33301 38.5 -16 51.5
s-24.667 19.5 -42 19.5z" />
    <glyph glyph-name="guillemotright" unicode="&#xbb;" horiz-adv-x="556" 
d="M326 335l-24 -115l-199 -148l25 117l120 89l-82 89l24 114zM533 335l-24 -115l-199 -148l25 117l120 89l-82 89l24 114z" />
    <glyph glyph-name="onequarter" unicode="&#xbc;" horiz-adv-x="869" 
d="M252 573h-106l13 61c77.333 0 128 25 152 75h63l-90 -425h-94zM733 715h85l-581 -735h-85zM881 166l-16 -73h-46l-19 -93h-94l20 93h-177l16 72l217 260h108l-55 -259h46zM742 166l35 166l-140 -166h105z" />
    <glyph glyph-name="onehalf" unicode="&#xbd;" horiz-adv-x="869" 
d="M258 573h-106l13 61c77.333 0 128 25 152 75h63l-90 -425h-94zM738 715h85l-581 -735h-85zM915 329c0 -32.667 -10.168 -62.668 -30.501 -90.001s-43.166 -48.666 -68.499 -63.999l-80 -49.5c-28 -17.667 -47 -32.834 -57 -45.501h184l-17 -80h-306
c10 37.333 26.5 69.833 49.5 97.5s47.333 49 73 64l75 43c24.333 13.667 44.5 29.5 60.5 47.5s24 39.333 24 64c0 30.667 -17.333 46 -52 46c-44 0 -69 -29.667 -75 -89h-91c8 52 27.333 91.833 58 119.5s70.667 41.5 120 41.5c42 0 74.667 -9.16699 98 -27.5
s35 -44.166 35 -77.499z" />
    <glyph glyph-name="threequarters" unicode="&#xbe;" horiz-adv-x="869" 
d="M247 471l12.998 62.9951c2.66699 -0.666992 6 -1 10 -1c26.667 0 47.834 6.5 63.501 19.5s23.5 30.833 23.5 53.5c0 12 -4.16699 21.667 -12.5 29s-19.166 11 -32.499 11c-19.333 0 -34 -5.5 -44 -16.5s-18 -30.5 -24 -58.5h-87c10 50.667 28.833 87.834 56.5 111.501
s66.167 35.5 115.5 35.5c40.667 0 72.167 -8.16699 94.5 -24.5s33.5 -39.166 33.5 -68.499c0 -46 -23.667 -83.667 -71 -113c28.667 -18 43 -42.333 43 -73c0 -49.333 -17 -89.666 -51 -120.999s-78.333 -47 -133 -47c-41.333 0 -73.5 9.33301 -96.5 28s-34.5 45 -34.5 79
c0 10 1.33301 22 4 36h91c-1.33301 -5.33301 -2 -11.333 -2 -18c0 -31.333 18.667 -47 56 -47c20 0 37.167 7.16699 51.5 21.5s21.5 31.5 21.5 51.5c0 16.667 -5.83301 28.834 -17.5 36.501s-31.167 11.834 -58.5 12.501h-13zM774.998 714.995h85l-581 -735h-85z
M877.998 165.995l-16 -73h-46l-19 -93h-94l20 93h-177l16 72l217 260h108l-55 -259h46zM738.998 165.995l35 166l-140 -166h105z" />
    <glyph glyph-name="questiondown" unicode="&#xbf;" horiz-adv-x="611" 
d="M268 -204c-40.667 0 -75.9971 5.8252 -105.997 17.4922s-52.5 26.834 -67.5 45.501s-25.833 37.5 -32.5 56.5s-10 38.5 -10 58.5c0 20.667 2.66699 40.834 8 60.501s10.833 36.334 16.5 50.001s15 27.834 28 42.501l29 32.5c6.33301 7 17.666 16.167 33.999 27.5
s25.5 17.5 27.5 18.5s10 5.83301 24 14.5c34 21.333 56 38.333 66 51s18.333 35.334 25 68.001h122c-3.33301 -35.333 -13.833 -66.666 -31.5 -93.999s-37.667 -49.5 -60 -66.5l-67 -49c-22.333 -15.667 -41 -33.667 -56 -54s-22.5 -43.166 -22.5 -68.499
s8.5 -46.166 25.5 -62.499s38.833 -24.5 65.5 -24.5c34 0 62.667 12.167 86 36.5s39.333 58.5 48 102.5h136c-4 -19.333 -8.16699 -36.333 -12.5 -51s-13.833 -36.5 -28.5 -65.5s-31.334 -53 -50.001 -72s-45.334 -36.167 -80.001 -51.5s-73.667 -23 -117 -23z
M306.003 393.992l31 146h150l-31 -146h-150z" />
    <glyph glyph-name="Agrave" unicode="&#xc0;" horiz-adv-x="722" 
d="M430 924h119l45 -150h-63zM532 147h-272l-81 -147h-153l407 729h173l97 -729h-153zM518 272l-35 283l-154 -283h189z" />
    <glyph glyph-name="Aacute" unicode="&#xc1;" horiz-adv-x="722" 
d="M691 930l-158 -150h-70l102 150h126zM532 147h-272l-81 -147h-153l407 729h173l97 -729h-153zM518 272l-35 283l-154 -283h189z" />
    <glyph glyph-name="Acircumflex" unicode="&#xc2;" horiz-adv-x="722" 
d="M511 936h108l71 -147h-78l-61 97l-103 -97h-76zM532 147h-272l-81 -147h-153l407 729h173l97 -729h-153zM518 272l-35 283l-154 -283h189z" />
    <glyph glyph-name="Atilde" unicode="&#xc3;" horiz-adv-x="722" 
d="M740 923c-12 -42 -29.833 -72.832 -53.5 -92.499s-50.167 -29.5 -79.5 -29.5c-18 0 -35 3.66699 -51 11l-50 25c-20 9.33301 -34.667 14 -44 14c-17.333 0 -34.333 -16 -51 -48h-54c11.333 37.333 27.5 66.166 48.5 86.499s45.167 30.5 72.5 30.5
c21.333 0 45 -5.66699 71 -17l50 -21c14 -6.66699 25 -10 33 -10c22 0 40 17 54 51h54zM532 147.001h-272l-81 -147h-153l407 729h173l97 -729h-153zM518 272.001l-35 283l-154 -283h189z" />
    <glyph glyph-name="Adieresis" unicode="&#xc4;" horiz-adv-x="722" 
d="M532 147h-272l-81 -147h-153l407 729h173l97 -729h-153zM518 272l-35 283l-154 -283h189zM714 921l-26 -120h-110l26 120h110zM518 921l-26 -120h-110l26 120h110z" />
    <glyph glyph-name="Aring" unicode="&#xc5;" horiz-adv-x="722" 
d="M532 147h-272l-81 -147h-153l407 729h173l97 -729h-153zM518 272l-35 283l-154 -283h189zM564 953c20.667 0 37.834 -6.66699 51.501 -20s20.5 -30.333 20.5 -51c0 -28.667 -11.333 -54 -34 -76s-48.667 -33 -78 -33c-20.667 0 -37.834 6.66699 -51.501 20
s-20.5 30.333 -20.5 51c0 28.667 11.333 54 34 76s48.667 33 78 33zM554 903c-13.333 0 -25.501 -4.83203 -36.501 -14.499s-16.5 -20.834 -16.5 -33.501c0 -9.33301 3.16699 -17 9.5 -23s14.5 -9 24.5 -9c13.333 0 25.333 5 36 15s16 21.333 16 34
c0 8.66699 -3.16699 16 -9.5 22s-14.166 9 -23.499 9z" />
    <glyph glyph-name="AE" unicode="&#xc6;" horiz-adv-x="1000" 
d="M464 152h-219l-85 -152h-159l420 729h683l-26 -125h-367l-36 -165h339l-26 -125h-339l-40 -189h386l-27 -125h-536zM491 277l70 327h-66l-185 -327h181z" />
    <glyph glyph-name="Ccedilla" unicode="&#xc7;" horiz-adv-x="722" 
d="M516 613c-34.667 0 -66.333 -6.83105 -95 -20.498s-52 -31.834 -70 -54.501s-33.667 -46.834 -47 -72.501s-23.166 -52.167 -29.499 -79.5s-11 -50.833 -14 -70.5s-4.5 -36.5 -4.5 -50.5c0 -106.667 49 -160 147 -160c48 0 89 12.5 123 37.5s58.333 60.5 73 106.5h143
c-20.667 -83.333 -62.667 -149.333 -126 -198s-139 -73.334 -227 -74.001l-26 -40c13.333 4.66699 27.666 7 42.999 7c20 0 35.667 -5 47 -15s17 -24 17 -42c0 -32.667 -13.833 -58.667 -41.5 -78s-64.167 -29 -109.5 -29c-38.667 0 -83 9.66699 -133 29l30 51
c42 -20 75 -30 99 -30c18.667 0 34.667 4.33301 48 13s20 19 20 31c0 10 -4 18 -12 24s-18.667 9 -32 9c-14 0 -32 -4.33301 -54 -13l55 84c-70.667 5.33301 -127.167 31.333 -169.5 78s-63.5 106.334 -63.5 179.001c0 92.667 18.333 177.667 55 255s87.667 138.5 153 183.5
s138 67.5 218 67.5c77.333 0 140 -19.333 188 -58s72 -89.334 72 -152.001c0 -9.33301 -1.33301 -25.666 -4 -48.999h-141c0 87.333 -44 131 -132 131z" />
    <glyph glyph-name="Egrave" unicode="&#xc8;" horiz-adv-x="667" 
d="M430 923h119l45 -150h-63zM296 314l-40 -189h395l-27 -125h-545l155 729h528l-27 -125h-378l-35 -165h349l-26 -125h-349z" />
    <glyph glyph-name="Eacute" unicode="&#xc9;" horiz-adv-x="667" 
d="M675 937l-158 -150h-70l102 150h126zM296 314l-40 -189h395l-27 -125h-545l155 729h528l-27 -125h-378l-35 -165h349l-26 -125h-349z" />
    <glyph glyph-name="Ecircumflex" unicode="&#xca;" horiz-adv-x="667" 
d="M494 936h108l71 -147h-78l-61 97l-103 -97h-76zM296 314l-40 -189h395l-27 -125h-545l155 729h528l-27 -125h-378l-35 -165h349l-26 -125h-349z" />
    <glyph glyph-name="Edieresis" unicode="&#xcb;" horiz-adv-x="667" 
d="M692 921l-26 -120h-110l26 120h110zM496 921l-26 -120h-110l26 120h110zM296 314l-40 -189h395l-27 -125h-545l155 729h528l-27 -125h-378l-35 -165h349l-26 -125h-349z" />
    <glyph glyph-name="Igrave" unicode="&#xcc;" horiz-adv-x="278" 
d="M204 926h119l45 -150h-63zM368 729l-155 -729h-150l155 729h150z" />
    <glyph glyph-name="Iacute" unicode="&#xcd;" horiz-adv-x="278" 
d="M488 937l-158 -150h-70l102 150h126zM368 729l-155 -729h-150l155 729h150z" />
    <glyph glyph-name="Icircumflex" unicode="&#xce;" horiz-adv-x="278" 
d="M288 936h108l71 -147h-78l-61 97l-103 -97h-76zM368 729l-155 -729h-150l155 729h150z" />
    <glyph glyph-name="Idieresis" unicode="&#xcf;" horiz-adv-x="278" 
d="M487 921l-26 -120h-110l26 120h110zM291 921l-26 -120h-110l26 120h110zM368 729l-155 -729h-150l155 729h150z" />
    <glyph glyph-name="Eth" unicode="&#xd0;" horiz-adv-x="722" 
d="M150 341h-77l17 80h76l66 308h285c90.667 0 156.5 -19.833 197.5 -59.5s61.5 -103.167 61.5 -190.5c0 -122.667 -37.333 -235.667 -112 -339c-36.667 -50.667 -78 -86.667 -124 -108s-105.333 -32 -178 -32h-285zM300 341l-45.9971 -216h134
c43.333 0 78.666 7.83301 105.999 23.5s51.666 42.167 72.999 79.5c17.333 29.333 31.666 67 42.999 113s17 88.667 17 128c0 90 -45.667 135 -137 135h-135l-39 -183h174l-17 -80h-173z" />
    <glyph glyph-name="Ntilde" unicode="&#xd1;" horiz-adv-x="722" 
d="M740 923c-12 -42 -29.833 -72.832 -53.5 -92.499s-50.167 -29.5 -79.5 -29.5c-18 0 -35 3.66699 -51 11l-50 25c-20 9.33301 -34.667 14 -44 14c-17.333 0 -34.333 -16 -51 -48h-54c11.333 37.333 27.5 66.166 48.5 86.499s45.167 30.5 72.5 30.5
c21.333 0 45 -5.66699 71 -17l50 -21c14 -6.66699 25 -10 33 -10c22 0 40 17 54 51h54zM816 729.001l-155 -729h-148l-192 523l-111 -523h-142l155 729h150l192 -515l109 515h142z" />
    <glyph glyph-name="Ograve" unicode="&#xd2;" horiz-adv-x="778" 
d="M430 926h119l45 -150h-63zM538 741c91.333 0 162.501 -25.168 213.501 -75.501s76.5 -120.5 76.5 -210.5c0 -41.333 -5.5 -83.5 -16.5 -126.5s-28.5 -85.667 -52.5 -128s-52.5 -80 -85.5 -113s-73.667 -59.667 -122 -80s-100.5 -30.5 -156.5 -30.5
c-89.333 0 -159.833 25.5 -211.5 76.5s-77.5 120.167 -77.5 207.5c0 39.333 5.5 80.5 16.5 123.5s28.5 85.833 52.5 128.5s52.5 80.834 85.5 114.501s73.667 61 122 82s100.166 31.5 155.499 31.5zM419.001 104.999c34.667 0 66.333 6.49902 95 19.499s52 30.333 70 52
s33.667 44.834 47 69.501s23.166 50 29.499 76s11 48.333 14 67s4.5 34.667 4.5 48c0 55.333 -14.167 98.5 -42.5 129.5s-67.5 46.5 -117.5 46.5c-34.667 0 -66.5 -6.5 -95.5 -19.5s-52.667 -30.167 -71 -51.5s-34.166 -44.166 -47.499 -68.499s-23.5 -49.5 -30.5 -75.5
s-12 -48.5 -15 -67.5s-4.5 -35.167 -4.5 -48.5c0 -54.667 14.667 -97.834 44 -129.501s69.333 -47.5 120 -47.5z" />
    <glyph glyph-name="Oacute" unicode="&#xd3;" horiz-adv-x="778" 
d="M731 935l-158 -150h-70l102 150h126zM538 741c91.333 0 162.501 -25.168 213.501 -75.501s76.5 -120.5 76.5 -210.5c0 -41.333 -5.5 -83.5 -16.5 -126.5s-28.5 -85.667 -52.5 -128s-52.5 -80 -85.5 -113s-73.667 -59.667 -122 -80s-100.5 -30.5 -156.5 -30.5
c-89.333 0 -159.833 25.5 -211.5 76.5s-77.5 120.167 -77.5 207.5c0 39.333 5.5 80.5 16.5 123.5s28.5 85.833 52.5 128.5s52.5 80.834 85.5 114.501s73.667 61 122 82s100.166 31.5 155.499 31.5zM419.001 104.999c34.667 0 66.333 6.49902 95 19.499s52 30.333 70 52
s33.667 44.834 47 69.501s23.166 50 29.499 76s11 48.333 14 67s4.5 34.667 4.5 48c0 55.333 -14.167 98.5 -42.5 129.5s-67.5 46.5 -117.5 46.5c-34.667 0 -66.5 -6.5 -95.5 -19.5s-52.667 -30.167 -71 -51.5s-34.166 -44.166 -47.499 -68.499s-23.5 -49.5 -30.5 -75.5
s-12 -48.5 -15 -67.5s-4.5 -35.167 -4.5 -48.5c0 -54.667 14.667 -97.834 44 -129.501s69.333 -47.5 120 -47.5z" />
    <glyph glyph-name="Ocircumflex" unicode="&#xd4;" horiz-adv-x="778" 
d="M542 937h108l71 -147h-78l-61 97l-103 -97h-76zM538 741c91.333 0 162.501 -25.168 213.501 -75.501s76.5 -120.5 76.5 -210.5c0 -41.333 -5.5 -83.5 -16.5 -126.5s-28.5 -85.667 -52.5 -128s-52.5 -80 -85.5 -113s-73.667 -59.667 -122 -80s-100.5 -30.5 -156.5 -30.5
c-89.333 0 -159.833 25.5 -211.5 76.5s-77.5 120.167 -77.5 207.5c0 39.333 5.5 80.5 16.5 123.5s28.5 85.833 52.5 128.5s52.5 80.834 85.5 114.501s73.667 61 122 82s100.166 31.5 155.499 31.5zM419.001 104.999c34.667 0 66.333 6.49902 95 19.499s52 30.333 70 52
s33.667 44.834 47 69.501s23.166 50 29.499 76s11 48.333 14 67s4.5 34.667 4.5 48c0 55.333 -14.167 98.5 -42.5 129.5s-67.5 46.5 -117.5 46.5c-34.667 0 -66.5 -6.5 -95.5 -19.5s-52.667 -30.167 -71 -51.5s-34.166 -44.166 -47.499 -68.499s-23.5 -49.5 -30.5 -75.5
s-12 -48.5 -15 -67.5s-4.5 -35.167 -4.5 -48.5c0 -54.667 14.667 -97.834 44 -129.501s69.333 -47.5 120 -47.5z" />
    <glyph glyph-name="Otilde" unicode="&#xd5;" horiz-adv-x="778" 
d="M538 741c91.333 0 162.501 -25.168 213.501 -75.501s76.5 -120.5 76.5 -210.5c0 -41.333 -5.5 -83.5 -16.5 -126.5s-28.5 -85.667 -52.5 -128s-52.5 -80 -85.5 -113s-73.667 -59.667 -122 -80s-100.5 -30.5 -156.5 -30.5c-89.333 0 -159.833 25.5 -211.5 76.5
s-77.5 120.167 -77.5 207.5c0 39.333 5.5 80.5 16.5 123.5s28.5 85.833 52.5 128.5s52.5 80.834 85.5 114.501s73.667 61 122 82s100.166 31.5 155.499 31.5zM419.001 104.999c34.667 0 66.333 6.49902 95 19.499s52 30.333 70 52s33.667 44.834 47 69.501
s23.166 50 29.499 76s11 48.333 14 67s4.5 34.667 4.5 48c0 55.333 -14.167 98.5 -42.5 129.5s-67.5 46.5 -117.5 46.5c-34.667 0 -66.5 -6.5 -95.5 -19.5s-52.667 -30.167 -71 -51.5s-34.166 -44.166 -47.499 -68.499s-23.5 -49.5 -30.5 -75.5s-12 -48.5 -15 -67.5
s-4.5 -35.167 -4.5 -48.5c0 -54.667 14.667 -97.834 44 -129.501s69.333 -47.5 120 -47.5zM769 922.998c-12 -42 -29.833 -72.832 -53.5 -92.499s-50.167 -29.5 -79.5 -29.5c-18 0 -35 3.66699 -51 11l-50 25c-20 9.33301 -34.667 14 -44 14c-17.333 0 -34.333 -16 -51 -48
h-54c11.333 37.333 27.5 66.166 48.5 86.499s45.167 30.5 72.5 30.5c21.333 0 45 -5.66699 71 -17l50 -21c14 -6.66699 25 -10 33 -10c22 0 40 17 54 51h54z" />
    <glyph glyph-name="Odieresis" unicode="&#xd6;" horiz-adv-x="778" 
d="M538 741c91.333 0 162.501 -25.168 213.501 -75.501s76.5 -120.5 76.5 -210.5c0 -41.333 -5.5 -83.5 -16.5 -126.5s-28.5 -85.667 -52.5 -128s-52.5 -80 -85.5 -113s-73.667 -59.667 -122 -80s-100.5 -30.5 -156.5 -30.5c-89.333 0 -159.833 25.5 -211.5 76.5
s-77.5 120.167 -77.5 207.5c0 39.333 5.5 80.5 16.5 123.5s28.5 85.833 52.5 128.5s52.5 80.834 85.5 114.501s73.667 61 122 82s100.166 31.5 155.499 31.5zM419.001 104.999c34.667 0 66.333 6.49902 95 19.499s52 30.333 70 52s33.667 44.834 47 69.501
s23.166 50 29.499 76s11 48.333 14 67s4.5 34.667 4.5 48c0 55.333 -14.167 98.5 -42.5 129.5s-67.5 46.5 -117.5 46.5c-34.667 0 -66.5 -6.5 -95.5 -19.5s-52.667 -30.167 -71 -51.5s-34.166 -44.166 -47.499 -68.499s-23.5 -49.5 -30.5 -75.5s-12 -48.5 -15 -67.5
s-4.5 -35.167 -4.5 -48.5c0 -54.667 14.667 -97.834 44 -129.501s69.333 -47.5 120 -47.5zM741 920.998l-26 -120h-110l26 120h110zM545 920.998l-26 -120h-110l26 120h110z" />
    <glyph glyph-name="multiply" unicode="&#xd7;" horiz-adv-x="584" 
d="M516 444l66 -84l-157 -129l101 -129l-102 -84l-101 129l-155 -128l-66 84l155 128l-101 128l102 85l101 -129z" />
    <glyph glyph-name="Oslash" unicode="&#xd8;" horiz-adv-x="778" 
d="M181 56l-106 -95l-41 46l111 99c-24 46 -36 98.333 -36 157c0 56.667 11.167 114.667 33.5 174s52.833 112 91.5 158c83.333 97.333 187.666 146 312.999 146c94 0 166 -27.333 216 -82l101 90l42 -45l-108 -97c22.667 -46 34 -97.667 34 -155
c0 -56.667 -11.167 -114.167 -33.5 -172.5s-52.833 -110.5 -91.5 -156.5c-83.333 -97.333 -187.333 -146 -312 -146c-95.333 0 -166.666 26.333 -213.999 79zM678 500l-383.999 -342.999c29.333 -34.667 71.666 -52 126.999 -52c76.667 0 140 35 190 105
c48 65.333 72 141.666 72 228.999c0 22 -1.66699 42.333 -5 61zM521.001 613.001c-41.333 0 -78.333 -9.49902 -111 -28.499s-58.167 -41.833 -76.5 -68.5s-33.5 -56.334 -45.5 -89.001s-20 -61 -24 -85s-6 -44.333 -6 -61c0 -23.333 2 -46 6 -68l386 344
c-30 37.333 -73 56 -129 56z" />
    <glyph glyph-name="Ugrave" unicode="&#xd9;" horiz-adv-x="722" 
d="M430 925h119l45 -150h-63zM659 729l149.997 0.000976562l-105 -494c-19.333 -88.667 -60.166 -153.834 -122.499 -195.501s-134.166 -62.5 -215.499 -62.5c-75.333 0 -135.333 17.167 -180 51.5s-67 80.5 -67 138.5c0 24 3.66699 53.333 11 88l101 474h150l-105 -494
c-3.33301 -18 -5 -33 -5 -45c0 -26.667 10.833 -47.5 32.5 -62.5s51.834 -22.5 90.501 -22.5c45.333 0 81 10.5 107 31.5s43.667 53.833 53 98.5z" />
    <glyph glyph-name="Uacute" unicode="&#xda;" horiz-adv-x="722" 
d="M692 937l-158 -150h-70l102 150h126zM659 729l149.997 0.000976562l-105 -494c-19.333 -88.667 -60.166 -153.834 -122.499 -195.501s-134.166 -62.5 -215.499 -62.5c-75.333 0 -135.333 17.167 -180 51.5s-67 80.5 -67 138.5c0 24 3.66699 53.333 11 88l101 474h150
l-105 -494c-3.33301 -18 -5 -33 -5 -45c0 -26.667 10.833 -47.5 32.5 -62.5s51.834 -22.5 90.501 -22.5c45.333 0 81 10.5 107 31.5s43.667 53.833 53 98.5z" />
    <glyph glyph-name="Ucircumflex" unicode="&#xdb;" horiz-adv-x="722" 
d="M516 936h108l71 -147h-78l-61 97l-103 -97h-76zM659 729l149.997 0.000976562l-105 -494c-19.333 -88.667 -60.166 -153.834 -122.499 -195.501s-134.166 -62.5 -215.499 -62.5c-75.333 0 -135.333 17.167 -180 51.5s-67 80.5 -67 138.5c0 24 3.66699 53.333 11 88
l101 474h150l-105 -494c-3.33301 -18 -5 -33 -5 -45c0 -26.667 10.833 -47.5 32.5 -62.5s51.834 -22.5 90.501 -22.5c45.333 0 81 10.5 107 31.5s43.667 53.833 53 98.5z" />
    <glyph glyph-name="Udieresis" unicode="&#xdc;" horiz-adv-x="722" 
d="M659 729l149.997 0.000976562l-105 -494c-19.333 -88.667 -60.166 -153.834 -122.499 -195.501s-134.166 -62.5 -215.499 -62.5c-75.333 0 -135.333 17.167 -180 51.5s-67 80.5 -67 138.5c0 24 3.66699 53.333 11 88l101 474h150l-105 -494c-3.33301 -18 -5 -33 -5 -45
c0 -26.667 10.833 -47.5 32.5 -62.5s51.834 -22.5 90.501 -22.5c45.333 0 81 10.5 107 31.5s43.667 53.833 53 98.5zM713.997 921.001l-26 -120h-110l26 120h110zM517.997 921.001l-26 -120h-110l26 120h110z" />
    <glyph glyph-name="Yacute" unicode="&#xdd;" horiz-adv-x="667" 
d="M669 937l-158 -150h-70l102 150h126zM477 270l-58 -270h-150l58 270l-145 459h167l82 -315l207 315h167z" />
    <glyph glyph-name="Thorn" unicode="&#xde;" horiz-adv-x="667" 
d="M514 609c40 0 74.332 -5.5 102.999 -16.5s50 -25.333 64 -43s24.167 -35.5 30.5 -53.5s9.5 -36.667 9.5 -56c0 -38.667 -8 -77.667 -24 -117s-37.333 -73.333 -64 -102c-51.333 -54 -114.666 -81 -189.999 -81h-187l-30 -140h-150l155 729h150l-26 -120h159zM434.999 265
c49.333 0 84.501 14.167 105.501 42.5s31.5 60.833 31.5 97.5c0 23.333 -8.33301 42.333 -25 57s-38.334 22 -65.001 22h-153l-47 -219h153z" />
    <glyph glyph-name="germandbls" unicode="&#xdf;" horiz-adv-x="611" 
d="M319 96c52 0.666992 93.001 15.3311 123.001 43.998s45 65.667 45 111c0 65.333 -37.667 98 -113 98h-15l20 95c39.333 0 71.166 10 95.499 30s36.5 46 36.5 78c0 20.667 -8 36.667 -24 48s-37.667 17 -65 17c-56 0 -89.667 -26.667 -101 -80l-114 -537h-140l119 558
c11.333 52 41 93.5 89 124.5s107 46.5 177 46.5c60.667 0 109.5 -13.5 146.5 -40.5s55.5 -62.5 55.5 -106.5c0 -38.667 -11 -73.5 -33 -104.5s-51.667 -53.167 -89 -66.5c31.333 -7.33301 55.5 -22.666 72.5 -45.999s25.5 -52.666 25.5 -87.999c0 -15.333 -2.5 -34 -7.5 -56
s-14.333 -47.667 -28 -77s-30.5 -56 -50.5 -80s-47 -44.5 -81 -61.5s-72 -25.5 -114 -25.5c-15.333 0 -38 2.33301 -68 7l24 112h14z" />
    <glyph glyph-name="agrave" unicode="&#xe0;" horiz-adv-x="556" 
d="M271 757h119l45 -150h-63zM386 549c38 0 70.4961 -3.83691 97.4961 -11.5039s46.833 -18 59.5 -31s21.667 -25.833 27 -38.5s8 -26 8 -40c0 -12 -2 -27 -6 -45l-63 -300c-2 -9.33301 -3 -16.333 -3 -21c0 -14 7 -29 21 -45l-4 -17h-153c-4.66699 10 -7 19 -7 27
s1 17 3 27c-57.333 -51.333 -113 -77 -167 -77c-44.667 0 -80.667 12 -108 36s-41 55.667 -41 95c0 10 1.33301 21.5 4 34.5s8.5 28.5 17.5 46.5s20.5 34.667 34.5 50s33.667 29.833 59 43.5s54.333 23.167 87 28.5l58 9c2.66699 0.666992 8.33398 1.5 17.001 2.5
s15 1.83301 19 2.5s10.167 1.83398 18.5 3.50098s14.5 3.33398 18.5 5.00098s9.33301 3.66699 16 6s11.834 5.16602 15.501 8.49902s7.33398 7.33301 11.001 12s6.33398 9.83398 8.00098 15.501s2.5 11.834 2.5 18.501c0 28.667 -24.333 43 -73 43
c-32 0 -56.5 -5.66699 -73.5 -17s-29.833 -30.666 -38.5 -57.999h-131c14 65.333 42.167 112.833 84.5 142.5s102.833 44.5 181.5 44.5zM399.996 216.996l8.00098 38.001c-8 -4.66699 -23.667 -9.33398 -47 -14.001l-66 -11c-32.667 -5.33301 -57.834 -16 -75.501 -32
s-26.5 -35.667 -26.5 -59c0 -33.333 24.333 -50 73 -50c34 0 62.5 11 85.5 33s39.167 53.667 48.5 95z" />
    <glyph glyph-name="aacute" unicode="&#xe1;" horiz-adv-x="556" 
d="M588 758l-158 -150h-70l102 150h126zM386 549c38 0 70.4961 -3.83691 97.4961 -11.5039s46.833 -18 59.5 -31s21.667 -25.833 27 -38.5s8 -26 8 -40c0 -12 -2 -27 -6 -45l-63 -300c-2 -9.33301 -3 -16.333 -3 -21c0 -14 7 -29 21 -45l-4 -17h-153
c-4.66699 10 -7 19 -7 27s1 17 3 27c-57.333 -51.333 -113 -77 -167 -77c-44.667 0 -80.667 12 -108 36s-41 55.667 -41 95c0 10 1.33301 21.5 4 34.5s8.5 28.5 17.5 46.5s20.5 34.667 34.5 50s33.667 29.833 59 43.5s54.333 23.167 87 28.5l58 9
c2.66699 0.666992 8.33398 1.5 17.001 2.5s15 1.83301 19 2.5s10.167 1.83398 18.5 3.50098s14.5 3.33398 18.5 5.00098s9.33301 3.66699 16 6s11.834 5.16602 15.501 8.49902s7.33398 7.33301 11.001 12s6.33398 9.83398 8.00098 15.501s2.5 11.834 2.5 18.501
c0 28.667 -24.333 43 -73 43c-32 0 -56.5 -5.66699 -73.5 -17s-29.833 -30.666 -38.5 -57.999h-131c14 65.333 42.167 112.833 84.5 142.5s102.833 44.5 181.5 44.5zM399.996 216.996l8.00098 38.001c-8 -4.66699 -23.667 -9.33398 -47 -14.001l-66 -11
c-32.667 -5.33301 -57.834 -16 -75.501 -32s-26.5 -35.667 -26.5 -59c0 -33.333 24.333 -50 73 -50c34 0 62.5 11 85.5 33s39.167 53.667 48.5 95z" />
    <glyph glyph-name="acircumflex" unicode="&#xe2;" horiz-adv-x="556" 
d="M386 756h108l71 -147h-78l-61 97l-103 -97h-76zM386 549c38 0 70.4961 -3.83691 97.4961 -11.5039s46.833 -18 59.5 -31s21.667 -25.833 27 -38.5s8 -26 8 -40c0 -12 -2 -27 -6 -45l-63 -300c-2 -9.33301 -3 -16.333 -3 -21c0 -14 7 -29 21 -45l-4 -17h-153
c-4.66699 10 -7 19 -7 27s1 17 3 27c-57.333 -51.333 -113 -77 -167 -77c-44.667 0 -80.667 12 -108 36s-41 55.667 -41 95c0 10 1.33301 21.5 4 34.5s8.5 28.5 17.5 46.5s20.5 34.667 34.5 50s33.667 29.833 59 43.5s54.333 23.167 87 28.5l58 9
c2.66699 0.666992 8.33398 1.5 17.001 2.5s15 1.83301 19 2.5s10.167 1.83398 18.5 3.50098s14.5 3.33398 18.5 5.00098s9.33301 3.66699 16 6s11.834 5.16602 15.501 8.49902s7.33398 7.33301 11.001 12s6.33398 9.83398 8.00098 15.501s2.5 11.834 2.5 18.501
c0 28.667 -24.333 43 -73 43c-32 0 -56.5 -5.66699 -73.5 -17s-29.833 -30.666 -38.5 -57.999h-131c14 65.333 42.167 112.833 84.5 142.5s102.833 44.5 181.5 44.5zM399.996 216.996l8.00098 38.001c-8 -4.66699 -23.667 -9.33398 -47 -14.001l-66 -11
c-32.667 -5.33301 -57.834 -16 -75.501 -32s-26.5 -35.667 -26.5 -59c0 -33.333 24.333 -50 73 -50c34 0 62.5 11 85.5 33s39.167 53.667 48.5 95z" />
    <glyph glyph-name="atilde" unicode="&#xe3;" horiz-adv-x="556" 
d="M604 731c-12 -42 -29.833 -72.832 -53.5 -92.499s-50.167 -29.5 -79.5 -29.5c-18 0 -35 3.66699 -51 11l-50 25c-20 9.33301 -34.667 14 -44 14c-17.333 0 -34.333 -16 -51 -48h-54c11.333 37.333 27.5 66.166 48.5 86.499s45.167 30.5 72.5 30.5
c21.333 0 45 -5.66699 71 -17l50 -21c14 -6.66699 25 -10 33 -10c22 0 40 17 54 51h54zM386 549.001c38 0 70.4961 -3.83691 97.4961 -11.5039s46.833 -18 59.5 -31s21.667 -25.833 27 -38.5s8 -26 8 -40c0 -12 -2 -27 -6 -45l-63 -300c-2 -9.33301 -3 -16.333 -3 -21
c0 -14 7 -29 21 -45l-4 -17h-153c-4.66699 10 -7 19 -7 27s1 17 3 27c-57.333 -51.333 -113 -77 -167 -77c-44.667 0 -80.667 12 -108 36s-41 55.667 -41 95c0 10 1.33301 21.5 4 34.5s8.5 28.5 17.5 46.5s20.5 34.667 34.5 50s33.667 29.833 59 43.5s54.333 23.167 87 28.5
l58 9c2.66699 0.666992 8.33398 1.5 17.001 2.5s15 1.83301 19 2.5s10.167 1.83398 18.5 3.50098s14.5 3.33398 18.5 5.00098s9.33301 3.66699 16 6s11.834 5.16602 15.501 8.49902s7.33398 7.33301 11.001 12s6.33398 9.83398 8.00098 15.501s2.5 11.834 2.5 18.501
c0 28.667 -24.333 43 -73 43c-32 0 -56.5 -5.66699 -73.5 -17s-29.833 -30.666 -38.5 -57.999h-131c14 65.333 42.167 112.833 84.5 142.5s102.833 44.5 181.5 44.5zM399.996 216.997l8.00098 38.001c-8 -4.66699 -23.667 -9.33398 -47 -14.001l-66 -11
c-32.667 -5.33301 -57.834 -16 -75.501 -32s-26.5 -35.667 -26.5 -59c0 -33.333 24.333 -50 73 -50c34 0 62.5 11 85.5 33s39.167 53.667 48.5 95z" />
    <glyph glyph-name="adieresis" unicode="&#xe4;" horiz-adv-x="556" 
d="M588 739l-26 -120h-110l26 120h110zM392 739l-26 -120h-110l26 120h110zM386 549c38 0 70.4961 -3.83691 97.4961 -11.5039s46.833 -18 59.5 -31s21.667 -25.833 27 -38.5s8 -26 8 -40c0 -12 -2 -27 -6 -45l-63 -300c-2 -9.33301 -3 -16.333 -3 -21c0 -14 7 -29 21 -45
l-4 -17h-153c-4.66699 10 -7 19 -7 27s1 17 3 27c-57.333 -51.333 -113 -77 -167 -77c-44.667 0 -80.667 12 -108 36s-41 55.667 -41 95c0 10 1.33301 21.5 4 34.5s8.5 28.5 17.5 46.5s20.5 34.667 34.5 50s33.667 29.833 59 43.5s54.333 23.167 87 28.5l58 9
c2.66699 0.666992 8.33398 1.5 17.001 2.5s15 1.83301 19 2.5s10.167 1.83398 18.5 3.50098s14.5 3.33398 18.5 5.00098s9.33301 3.66699 16 6s11.834 5.16602 15.501 8.49902s7.33398 7.33301 11.001 12s6.33398 9.83398 8.00098 15.501s2.5 11.834 2.5 18.501
c0 28.667 -24.333 43 -73 43c-32 0 -56.5 -5.66699 -73.5 -17s-29.833 -30.666 -38.5 -57.999h-131c14 65.333 42.167 112.833 84.5 142.5s102.833 44.5 181.5 44.5zM399.996 216.996l8.00098 38.001c-8 -4.66699 -23.667 -9.33398 -47 -14.001l-66 -11
c-32.667 -5.33301 -57.834 -16 -75.501 -32s-26.5 -35.667 -26.5 -59c0 -33.333 24.333 -50 73 -50c34 0 62.5 11 85.5 33s39.167 53.667 48.5 95z" />
    <glyph glyph-name="aring" unicode="&#xe5;" horiz-adv-x="556" 
d="M441 774c20.667 0 37.834 -6.66699 51.501 -20s20.5 -30.333 20.5 -51c0 -28.667 -11.333 -54 -34 -76s-48.667 -33 -78 -33c-20.667 0 -37.834 6.66699 -51.501 20s-20.5 30.333 -20.5 51c0 28.667 11.333 54 34 76s48.667 33 78 33zM431 724
c-13.333 0 -25.501 -4.83203 -36.501 -14.499s-16.5 -20.834 -16.5 -33.501c0 -9.33301 3.16699 -17 9.5 -23s14.5 -9 24.5 -9c13.333 0 25.333 5 36 15s16 21.333 16 34c0 8.66699 -3.16699 16 -9.5 22s-14.166 9 -23.499 9zM385.999 549.001
c38 0 70.4961 -3.83691 97.4961 -11.5039s46.833 -18 59.5 -31s21.667 -25.833 27 -38.5s8 -26 8 -40c0 -12 -2 -27 -6 -45l-63 -300c-2 -9.33301 -3 -16.333 -3 -21c0 -14 7 -29 21 -45l-4 -17h-153c-4.66699 10 -7 19 -7 27s1 17 3 27c-57.333 -51.333 -113 -77 -167 -77
c-44.667 0 -80.667 12 -108 36s-41 55.667 -41 95c0 10 1.33301 21.5 4 34.5s8.5 28.5 17.5 46.5s20.5 34.667 34.5 50s33.667 29.833 59 43.5s54.333 23.167 87 28.5l58 9c2.66699 0.666992 8.33398 1.5 17.001 2.5s15 1.83301 19 2.5s10.167 1.83398 18.5 3.50098
s14.5 3.33398 18.5 5.00098s9.33301 3.66699 16 6s11.834 5.16602 15.501 8.49902s7.33398 7.33301 11.001 12s6.33398 9.83398 8.00098 15.501s2.5 11.834 2.5 18.501c0 28.667 -24.333 43 -73 43c-32 0 -56.5 -5.66699 -73.5 -17s-29.833 -30.666 -38.5 -57.999h-131
c14 65.333 42.167 112.833 84.5 142.5s102.833 44.5 181.5 44.5zM399.995 216.997l8.00098 38.001c-8 -4.66699 -23.667 -9.33398 -47 -14.001l-66 -11c-32.667 -5.33301 -57.834 -16 -75.501 -32s-26.5 -35.667 -26.5 -59c0 -33.333 24.333 -50 73 -50
c34 0 62.5 11 85.5 33s39.167 53.667 48.5 95z" />
    <glyph glyph-name="ae" unicode="&#xe6;" horiz-adv-x="892" 
d="M718 549c63.333 0 113.996 -18.8359 151.996 -56.5029s57 -84.834 57 -141.501c0 -38 -6 -79.667 -18 -125h-362c-4.66699 -20 -7 -37 -7 -51c0 -25.333 8.83301 -46 26.5 -62s40.834 -24 69.501 -24c24.667 0 47.334 5.66699 68.001 17s36 26.666 46 45.999h138
c-26.667 -53.333 -65.334 -95.833 -116.001 -127.5s-106 -47.5 -166 -47.5c-91.333 0 -151.666 33.333 -180.999 100c-35.333 -37.333 -68.666 -63.333 -99.999 -78s-70 -22 -116 -22c-48.667 0 -86.667 11.333 -114 34s-41 54.334 -41 95.001c0 10 1 21 3 33
s7.16699 27.333 15.5 46s19.166 35.834 32.499 51.501s33.166 30.5 59.499 44.5s56.833 24 91.5 30l57 9c2 0 7.66699 0.666992 17 2s15.833 2.33301 19.5 3l18.5 3.5c8.66699 1.66699 15 3.33398 19 5.00098s9.33301 3.66699 16 6s11.834 5.16602 15.501 8.49902
s7.33398 7.33301 11.001 12s6.33398 9.83398 8.00098 15.501s2.5 11.834 2.5 18.501c0 28.667 -24.333 43 -73 43c-32 0 -56.5 -5.66699 -73.5 -17s-29.833 -30.666 -38.5 -57.999h-131c12 57.333 33 99.333 63 126c46 40.667 114.333 61 205 61
c75.333 0 129 -16.333 161 -49c48.667 32.667 103.667 49 165 49zM403.996 215.997l8.00293 38.001c-8.66699 -4 -17.334 -7.33301 -26.001 -10c-1.33301 0 -4.33301 -0.333008 -9 -1s-8.66699 -1.33398 -12 -2.00098l-66 -11c-32.667 -5.33301 -57.834 -16 -75.501 -32
s-26.5 -35.667 -26.5 -59c0 -33.333 23.667 -50 71 -50c34.667 0 63.667 10.833 87 32.5s39.666 53.167 48.999 94.5zM783.999 318.998v27c0 28.667 -7.33301 51 -22 67s-35.667 24 -63 24c-66 0 -109.667 -39.333 -131 -118h216z" />
    <glyph glyph-name="ccedilla" unicode="&#xe7;" horiz-adv-x="556" 
d="M561 187c-16 -50.667 -40.168 -92.502 -72.501 -125.502s-64 -55.333 -95 -67s-61.833 -17.5 -92.5 -17.5h-13l-26 -39c14.667 4 29 6 43 6c20 0 35.667 -5 47 -15s17 -24 17 -42c0 -32.667 -13.833 -58.667 -41.5 -78s-64.167 -29 -109.5 -29
c-39.333 0 -83.666 9.66699 -132.999 29l30 52c40.667 -20.667 73.667 -31 99 -31c18.667 0 34.667 4.33301 48 13s20 19 20 31c0 10 -4 18 -12 24s-18.667 9 -32 9c-14.667 0 -32.667 -4.33301 -54 -13l57 87c-29.333 5.33301 -54.833 14.666 -76.5 27.999
s-37.834 27 -48.501 41s-19.167 29.833 -25.5 47.5s-10.166 31.834 -11.499 42.501s-2 21.667 -2 33c0 46.667 9.33301 96.334 28 149.001s42.667 96.667 72 132c53.333 63.333 127 95 221 95c60.667 0 109 -16 145 -48s54 -72 54 -120
c0 -7.33301 -1.33301 -21.666 -4 -42.999h-134c-0.666992 33.333 -6 58.166 -16 74.499s-32 24.5 -66 24.5c-53.333 0 -93.333 -28.333 -120 -85c-24.667 -49.333 -37 -102.666 -37 -159.999c0 -68.667 29.667 -103 89 -103c27.333 0 50 7.5 68 22.5s34.667 40.167 50 75.5
h134z" />
    <glyph glyph-name="egrave" unicode="&#xe8;" horiz-adv-x="556" 
d="M271 757h119l45 -150h-63zM379 549c63.333 0 114.498 -18.3301 153.498 -54.9971s58.5 -84.334 58.5 -143.001c0 -38 -6 -79.667 -18 -125h-363c-2 -18.667 -3 -33.667 -3 -45c0 -27.333 8.66699 -49.5 26 -66.5s40.333 -25.5 69 -25.5c24 0 46.167 5.66699 66.5 17
s35.5 26.666 45.5 45.999h138c-27.333 -55.333 -65.166 -98.333 -113.499 -129s-102.833 -46 -163.5 -46c-62.667 0 -113.5 19.167 -152.5 57.5s-58.5 88.5 -58.5 150.5c0 16 1.66699 34.333 5 55s9 45.5 17 74.5s19.833 56.667 35.5 83s34.5 51.166 56.5 74.499
s50.333 42 85 56s73.334 21 116.001 21zM361.998 437.003c-67.333 0 -112 -39.334 -134 -118.001h220c0 18.667 -0.833008 33.834 -2.5 45.501s-5.16699 23.667 -10.5 36s-14 21.5 -26 27.5s-27.667 9 -47 9z" />
    <glyph glyph-name="eacute" unicode="&#xe9;" horiz-adv-x="556" 
d="M563 759l-158 -150h-70l102 150h126zM379 549c63.333 0 114.498 -18.3301 153.498 -54.9971s58.5 -84.334 58.5 -143.001c0 -38 -6 -79.667 -18 -125h-363c-2 -18.667 -3 -33.667 -3 -45c0 -27.333 8.66699 -49.5 26 -66.5s40.333 -25.5 69 -25.5
c24 0 46.167 5.66699 66.5 17s35.5 26.666 45.5 45.999h138c-27.333 -55.333 -65.166 -98.333 -113.499 -129s-102.833 -46 -163.5 -46c-62.667 0 -113.5 19.167 -152.5 57.5s-58.5 88.5 -58.5 150.5c0 16 1.66699 34.333 5 55s9 45.5 17 74.5s19.833 56.667 35.5 83
s34.5 51.166 56.5 74.499s50.333 42 85 56s73.334 21 116.001 21zM361.998 437.003c-67.333 0 -112 -39.334 -134 -118.001h220c0 18.667 -0.833008 33.834 -2.5 45.501s-5.16699 23.667 -10.5 36s-14 21.5 -26 27.5s-27.667 9 -47 9z" />
    <glyph glyph-name="ecircumflex" unicode="&#xea;" horiz-adv-x="556" 
d="M376 757h108l71 -147h-78l-61 97l-103 -97h-76zM379 549c63.333 0 114.498 -18.3301 153.498 -54.9971s58.5 -84.334 58.5 -143.001c0 -38 -6 -79.667 -18 -125h-363c-2 -18.667 -3 -33.667 -3 -45c0 -27.333 8.66699 -49.5 26 -66.5s40.333 -25.5 69 -25.5
c24 0 46.167 5.66699 66.5 17s35.5 26.666 45.5 45.999h138c-27.333 -55.333 -65.166 -98.333 -113.499 -129s-102.833 -46 -163.5 -46c-62.667 0 -113.5 19.167 -152.5 57.5s-58.5 88.5 -58.5 150.5c0 16 1.66699 34.333 5 55s9 45.5 17 74.5s19.833 56.667 35.5 83
s34.5 51.166 56.5 74.499s50.333 42 85 56s73.334 21 116.001 21zM361.998 437.003c-67.333 0 -112 -39.334 -134 -118.001h220c0 18.667 -0.833008 33.834 -2.5 45.501s-5.16699 23.667 -10.5 36s-14 21.5 -26 27.5s-27.667 9 -47 9z" />
    <glyph glyph-name="edieresis" unicode="&#xeb;" horiz-adv-x="556" 
d="M581 739l-26 -120h-110l26 120h110zM385 739l-26 -120h-110l26 120h110zM379 549c63.333 0 114.498 -18.3301 153.498 -54.9971s58.5 -84.334 58.5 -143.001c0 -38 -6 -79.667 -18 -125h-363c-2 -18.667 -3 -33.667 -3 -45c0 -27.333 8.66699 -49.5 26 -66.5
s40.333 -25.5 69 -25.5c24 0 46.167 5.66699 66.5 17s35.5 26.666 45.5 45.999h138c-27.333 -55.333 -65.166 -98.333 -113.499 -129s-102.833 -46 -163.5 -46c-62.667 0 -113.5 19.167 -152.5 57.5s-58.5 88.5 -58.5 150.5c0 16 1.66699 34.333 5 55s9 45.5 17 74.5
s19.833 56.667 35.5 83s34.5 51.166 56.5 74.499s50.333 42 85 56s73.334 21 116.001 21zM361.998 437.003c-67.333 0 -112 -39.334 -134 -118.001h220c0 18.667 -0.833008 33.834 -2.5 45.501s-5.16699 23.667 -10.5 36s-14 21.5 -26 27.5s-27.667 9 -47 9z" />
    <glyph glyph-name="igrave" unicode="&#xec;" horiz-adv-x="278" 
d="M161 757h119l45 -150h-63zM322 540l-115 -540h-140l115 540h140z" />
    <glyph glyph-name="iacute" unicode="&#xed;" horiz-adv-x="278" 
d="M448 757l-158 -150h-70l102 150h126zM322 540l-115 -540h-140l115 540h140z" />
    <glyph glyph-name="icircumflex" unicode="&#xee;" horiz-adv-x="278" 
d="M247 756h108l71 -147h-78l-61 97l-103 -97h-76zM322 540l-115 -540h-140l115 540h140z" />
    <glyph glyph-name="idieresis" unicode="&#xef;" horiz-adv-x="278" 
d="M449 740l-26 -120h-110l26 120h110zM253 740l-26 -120h-110l26 120h110zM322 540l-115 -540h-140l115 540h140z" />
    <glyph glyph-name="eth" unicode="&#xf0;" horiz-adv-x="611" 
d="M83 178c0 18.667 2 40.666 6 65.999s12.167 55.333 24.5 90s28.166 66 47.499 94s46.5 52 81.5 72s74.833 30 119.5 30c27.333 0 57.333 -9 90 -27c-24.667 42 -57 77.333 -97 106l-97 -45l-41 43l88 41l-70 46l70 50c38 -17.333 69.667 -34.333 95 -51l104 45l43 -43
l-93 -41c64.667 -48 110.667 -95.5 138 -142.5s41 -102.5 41 -166.5c0 -104.667 -30.5 -192.167 -91.5 -262.5s-139.833 -105.5 -236.5 -105.5c-69.333 0 -123.666 17.833 -162.999 53.5s-59 84.834 -59 147.501zM491 325.999c0 38 -10.498 65 -31.498 81
s-45.167 24 -72.5 24c-25.333 0 -48 -6.33301 -68 -19s-35.667 -27.834 -47 -45.501s-20.5 -37.667 -27.5 -60s-11.667 -41.666 -14 -57.999s-3.5 -30.5 -3.5 -42.5c0 -44 10.167 -74.5 30.5 -91.5s43.166 -25.5 68.499 -25.5c47.333 0 86.666 22.5 117.999 67.5
s47 101.5 47 169.5z" />
    <glyph glyph-name="ntilde" unicode="&#xf1;" horiz-adv-x="611" 
d="M639 731c-12 -42 -29.833 -72.832 -53.5 -92.499s-50.167 -29.5 -79.5 -29.5c-18 0 -35 3.66699 -51 11l-50 25c-20 9.33301 -34.667 14 -44 14c-17.333 0 -34.333 -16 -51 -48h-54c11.333 37.333 27.5 66.166 48.5 86.499s45.167 30.5 72.5 30.5
c21.333 0 45 -5.66699 71 -17l50 -21c14 -6.66699 25 -10 33 -10c22 0 40 17 54 51h54zM178 540.001h139.996l-18 -82c26.667 32 54.334 55.167 83.001 69.5s61.667 21.5 99 21.5c44.667 0 80.334 -12 107.001 -36s40 -56 40 -96c0 -18 -2 -36.333 -6 -55l-77 -362h-140
l67 313c4 22 6 38.333 6 49c0 50 -24.667 75 -74 75c-33.333 0 -62.166 -11.833 -86.499 -35.5s-41.166 -56.167 -50.499 -97.5l-65 -304h-140z" />
    <glyph glyph-name="ograve" unicode="&#xf2;" horiz-adv-x="611" 
d="M310 757h119l45 -150h-63zM82 177c0 103.333 30.5 191.166 91.5 263.499s140.833 108.5 239.5 108.5c68.667 0 122.667 -17.833 162 -53.5s59 -84.5 59 -146.5c0 -105.333 -31 -193.666 -93 -264.999s-142.667 -107 -242 -107c-66 0 -118.667 18.167 -158 54.5
s-59 84.833 -59 145.5zM324 89c31.333 0 58.6689 9.16797 82.002 27.501s40.666 41 51.999 68s19.666 52.167 24.999 75.5s8 43.333 8 60c0 35.333 -9 63.666 -27 84.999s-42.333 32 -73 32c-45.333 0 -84.333 -22.833 -117 -68.5s-49 -100.167 -49 -163.5
c0 -35.333 9 -63.5 27 -84.5s42 -31.5 72 -31.5z" />
    <glyph glyph-name="oacute" unicode="&#xf3;" horiz-adv-x="611" 
d="M600 758l-158 -150h-70l102 150h126zM82 177c0 103.333 30.5 191.166 91.5 263.499s140.833 108.5 239.5 108.5c68.667 0 122.667 -17.833 162 -53.5s59 -84.5 59 -146.5c0 -105.333 -31 -193.666 -93 -264.999s-142.667 -107 -242 -107c-66 0 -118.667 18.167 -158 54.5
s-59 84.833 -59 145.5zM324 89c31.333 0 58.6689 9.16797 82.002 27.501s40.666 41 51.999 68s19.666 52.167 24.999 75.5s8 43.333 8 60c0 35.333 -9 63.666 -27 84.999s-42.333 32 -73 32c-45.333 0 -84.333 -22.833 -117 -68.5s-49 -100.167 -49 -163.5
c0 -35.333 9 -63.5 27 -84.5s42 -31.5 72 -31.5z" />
    <glyph glyph-name="ocircumflex" unicode="&#xf4;" horiz-adv-x="611" 
d="M416 757h108l71 -147h-78l-61 97l-103 -97h-76zM82 177c0 103.333 30.5 191.166 91.5 263.499s140.833 108.5 239.5 108.5c68.667 0 122.667 -17.833 162 -53.5s59 -84.5 59 -146.5c0 -105.333 -31 -193.666 -93 -264.999s-142.667 -107 -242 -107
c-66 0 -118.667 18.167 -158 54.5s-59 84.833 -59 145.5zM324 89c31.333 0 58.6689 9.16797 82.002 27.501s40.666 41 51.999 68s19.666 52.167 24.999 75.5s8 43.333 8 60c0 35.333 -9 63.666 -27 84.999s-42.333 32 -73 32c-45.333 0 -84.333 -22.833 -117 -68.5
s-49 -100.167 -49 -163.5c0 -35.333 9 -63.5 27 -84.5s42 -31.5 72 -31.5z" />
    <glyph glyph-name="otilde" unicode="&#xf5;" horiz-adv-x="611" 
d="M631 731c-12 -42 -29.833 -72.832 -53.5 -92.499s-50.167 -29.5 -79.5 -29.5c-18 0 -35 3.66699 -51 11l-50 25c-20 9.33301 -34.667 14 -44 14c-17.333 0 -34.333 -16 -51 -48h-54c11.333 37.333 27.5 66.166 48.5 86.499s45.167 30.5 72.5 30.5
c21.333 0 45 -5.66699 71 -17l50 -21c14 -6.66699 25 -10 33 -10c22 0 40 17 54 51h54zM82 177.001c0 103.333 30.5 191.166 91.5 263.499s140.833 108.5 239.5 108.5c68.667 0 122.667 -17.833 162 -53.5s59 -84.5 59 -146.5c0 -105.333 -31 -193.666 -93 -264.999
s-142.667 -107 -242 -107c-66 0 -118.667 18.167 -158 54.5s-59 84.833 -59 145.5zM324 89.001c31.333 0 58.6689 9.16797 82.002 27.501s40.666 41 51.999 68s19.666 52.167 24.999 75.5s8 43.333 8 60c0 35.333 -9 63.666 -27 84.999s-42.333 32 -73 32
c-45.333 0 -84.333 -22.833 -117 -68.5s-49 -100.167 -49 -163.5c0 -35.333 9 -63.5 27 -84.5s42 -31.5 72 -31.5z" />
    <glyph glyph-name="odieresis" unicode="&#xf6;" horiz-adv-x="611" 
d="M611 739l-26 -120h-110l26 120h110zM415 739l-26 -120h-110l26 120h110zM82 177c0 103.333 30.5 191.166 91.5 263.499s140.833 108.5 239.5 108.5c68.667 0 122.667 -17.833 162 -53.5s59 -84.5 59 -146.5c0 -105.333 -31 -193.666 -93 -264.999
s-142.667 -107 -242 -107c-66 0 -118.667 18.167 -158 54.5s-59 84.833 -59 145.5zM324 89c31.333 0 58.6689 9.16797 82.002 27.501s40.666 41 51.999 68s19.666 52.167 24.999 75.5s8 43.333 8 60c0 35.333 -9 63.666 -27 84.999s-42.333 32 -73 32
c-45.333 0 -84.333 -22.833 -117 -68.5s-49 -100.167 -49 -163.5c0 -35.333 9 -63.5 27 -84.5s42 -31.5 72 -31.5z" />
    <glyph glyph-name="divide" unicode="&#xf7;" horiz-adv-x="584" 
d="M606 292l-25 -120h-504l25 120h504zM318 124c14.667 0 26.667 -4.83105 36 -14.498s14 -21.834 14 -36.501c0 -18.667 -7.83301 -35.5 -23.5 -50.5s-33.167 -22.5 -52.5 -22.5c-14.667 0 -26.667 4.66699 -36 14s-14 21 -14 35c0 19.333 7.83301 36.666 23.5 51.999
s33.167 23 52.5 23zM390 462.002c14.667 0 26.667 -4.83105 36 -14.498s14 -21.834 14 -36.501c0 -18.667 -7.83301 -35.5 -23.5 -50.5s-33.5 -22.5 -53.5 -22.5c-14 0 -25.667 4.66699 -35 14s-14 21 -14 35c0 19.333 7.83301 36.666 23.5 51.999s33.167 23 52.5 23z" />
    <glyph glyph-name="oslash" unicode="&#xf8;" horiz-adv-x="611" 
d="M636 344c0 -100 -31.002 -186.169 -93.002 -258.502s-141.667 -108.5 -239 -108.5c-71.333 0 -127.666 19.667 -168.999 59l-89 -74l-34 40l93 78c-14 30 -21 62.667 -21 98c0 64.667 13 124.834 39 180.501s64.833 101.334 116.5 137.001s110.834 53.5 177.501 53.5
c75.333 0 133 -21 173 -63l85 71l34 -41l-91 -76c12 -29.333 18 -61.333 18 -96zM327.998 88.998c25.333 0 48 6.33301 68 19s36 28.167 48 46.5s21.833 38.666 29.5 60.999s13 42.333 16 60s4.5 32.834 4.5 45.501c0 5.33301 -0.333008 10.333 -1 15l-247 -207
c18 -26.667 45.333 -40 82 -40zM394.998 436.998c-25.333 0 -48.166 -6.33398 -68.499 -19.001s-36.5 -28 -48.5 -46s-22 -38.167 -30 -60.5s-13.5 -42 -16.5 -59s-4.5 -31.833 -4.5 -44.5c0 -9.33301 0.333008 -17.666 1 -24.999l250 209c-18.667 30 -46.334 45 -83.001 45
z" />
    <glyph glyph-name="ugrave" unicode="&#xf9;" horiz-adv-x="611" 
d="M341 757h119l45 -150h-63zM541 0l-139.999 -0.000976562l15 68c-26.667 -32 -54.334 -55.167 -83.001 -69.5s-61.667 -21.5 -99 -21.5c-44 0 -79.333 12 -106 36s-40 56 -40 96c0 18 2 36.333 6 55l80 376h140l-70 -327c-4 -23.333 -6 -39.666 -6 -48.999
c0 -50 25.333 -75 76 -75c32.667 0 61 12 85 36s40.333 56.333 49 97l68 318h140z" />
    <glyph glyph-name="uacute" unicode="&#xfa;" horiz-adv-x="611" 
d="M589 758l-158 -150h-70l102 150h126zM541 0l-139.999 -0.000976562l15 68c-26.667 -32 -54.334 -55.167 -83.001 -69.5s-61.667 -21.5 -99 -21.5c-44 0 -79.333 12 -106 36s-40 56 -40 96c0 18 2 36.333 6 55l80 376h140l-70 -327c-4 -23.333 -6 -39.666 -6 -48.999
c0 -50 25.333 -75 76 -75c32.667 0 61 12 85 36s40.333 56.333 49 97l68 318h140z" />
    <glyph glyph-name="ucircumflex" unicode="&#xfb;" horiz-adv-x="611" 
d="M405 757h108l71 -147h-78l-61 97l-103 -97h-76zM541 0l-139.999 -0.000976562l15 68c-26.667 -32 -54.334 -55.167 -83.001 -69.5s-61.667 -21.5 -99 -21.5c-44 0 -79.333 12 -106 36s-40 56 -40 96c0 18 2 36.333 6 55l80 376h140l-70 -327
c-4 -23.333 -6 -39.666 -6 -48.999c0 -50 25.333 -75 76 -75c32.667 0 61 12 85 36s40.333 56.333 49 97l68 318h140z" />
    <glyph glyph-name="udieresis" unicode="&#xfc;" horiz-adv-x="611" 
d="M611 739l-26 -120h-110l26 120h110zM415 739l-26 -120h-110l26 120h110zM541 0l-139.999 -0.000976562l15 68c-26.667 -32 -54.334 -55.167 -83.001 -69.5s-61.667 -21.5 -99 -21.5c-44 0 -79.333 12 -106 36s-40 56 -40 96c0 18 2 36.333 6 55l80 376h140l-70 -327
c-4 -23.333 -6 -39.666 -6 -48.999c0 -50 25.333 -75 76 -75c32.667 0 61 12 85 36s40.333 56.333 49 97l68 318h140z" />
    <glyph glyph-name="yacute" unicode="&#xfd;" horiz-adv-x="556" 
d="M566 757l-158 -150h-70l102 150h126zM509 540h144.002l-358 -638c-16.667 -31.333 -31.334 -53.333 -44.001 -66c-38 -36.667 -94.667 -55 -170 -55c-18 0 -32.667 1.33301 -44 4l23 109c7.33301 -1.33301 16.666 -2 27.999 -2c34.667 0 62.167 8.33301 82.5 25
s30.5 39.334 30.5 68.001c-8.66699 71.333 -22.167 171.166 -40.5 299.499l-36.5 255.5h154l36 -393z" />
    <glyph glyph-name="thorn" unicode="&#xfe;" horiz-adv-x="611" 
d="M352 729l-57 -268.999c46 59.333 102.333 89 169 89c52.667 0 94.667 -18.667 126 -56s47 -87.333 47 -150c0 -100.667 -28.667 -186.834 -86 -258.501s-126.333 -107.5 -207 -107.5c-68 0 -112.333 29 -133 87l-60 -282h-140l201 947h140zM406 437.001
c-42.667 0 -80 -23.502 -112 -70.502s-48 -101.833 -48 -164.5c0 -34 8 -61.333 24 -82s37.333 -31 64 -31c43.333 0 80.833 23.333 112.5 70s47.5 101.334 47.5 164.001c0 34.667 -8 62.334 -24 83.001s-37.333 31 -64 31z" />
    <glyph glyph-name="ydieresis" unicode="&#xff;" horiz-adv-x="556" 
d="M588 741l-26 -120h-110l26 120h110zM392 741l-26 -120h-110l26 120h110zM509 540h144.002l-358 -638c-16.667 -31.333 -31.334 -53.333 -44.001 -66c-38 -36.667 -94.667 -55 -170 -55c-18 0 -32.667 1.33301 -44 4l23 109c7.33301 -1.33301 16.666 -2 27.999 -2
c34.667 0 62.167 8.33301 82.5 25s30.5 39.334 30.5 68.001c-8.66699 71.333 -22.167 171.166 -40.5 299.499l-36.5 255.5h154l36 -393z" />
    <glyph glyph-name="Amacron" unicode="&#x100;" horiz-adv-x="722" 
d="M688 881l-17 -80h-300l17 80h300zM532 147h-272l-81 -147h-153l407 729h173l97 -729h-153zM518 272l-35 283l-154 -283h189z" />
    <glyph glyph-name="amacron" unicode="&#x101;" horiz-adv-x="556" 
d="M577 722l-17 -80h-300l17 80h300zM386 549c38 0 70.4961 -3.83691 97.4961 -11.5039s46.833 -18 59.5 -31s21.667 -25.833 27 -38.5s8 -26 8 -40c0 -12 -2 -27 -6 -45l-63 -300c-2 -9.33301 -3 -16.333 -3 -21c0 -14 7 -29 21 -45l-4 -17h-153c-4.66699 10 -7 19 -7 27
s1 17 3 27c-57.333 -51.333 -113 -77 -167 -77c-44.667 0 -80.667 12 -108 36s-41 55.667 -41 95c0 10 1.33301 21.5 4 34.5s8.5 28.5 17.5 46.5s20.5 34.667 34.5 50s33.667 29.833 59 43.5s54.333 23.167 87 28.5l58 9c2.66699 0.666992 8.33398 1.5 17.001 2.5
s15 1.83301 19 2.5s10.167 1.83398 18.5 3.50098s14.5 3.33398 18.5 5.00098s9.33301 3.66699 16 6s11.834 5.16602 15.501 8.49902s7.33398 7.33301 11.001 12s6.33398 9.83398 8.00098 15.501s2.5 11.834 2.5 18.501c0 28.667 -24.333 43 -73 43
c-32 0 -56.5 -5.66699 -73.5 -17s-29.833 -30.666 -38.5 -57.999h-131c14 65.333 42.167 112.833 84.5 142.5s102.833 44.5 181.5 44.5zM399.996 216.996l8.00098 38.001c-8 -4.66699 -23.667 -9.33398 -47 -14.001l-66 -11c-32.667 -5.33301 -57.834 -16 -75.501 -32
s-26.5 -35.667 -26.5 -59c0 -33.333 24.333 -50 73 -50c34 0 62.5 11 85.5 33s39.167 53.667 48.5 95z" />
    <glyph glyph-name="Abreve" unicode="&#x102;" horiz-adv-x="722" 
d="M647 927h41.999c-7.33301 -41.333 -26.166 -75.5 -56.499 -102.5s-65.166 -40.5 -104.499 -40.5c-31.333 0 -56.833 9.66699 -76.5 29s-29.5 44.333 -29.5 75c0 11.333 2 24.333 6 39h42v-8c0 -18 6.5 -32 19.5 -42s31.167 -15 54.5 -15
c51.333 0 85.666 21.667 102.999 65zM531.999 147h-272l-81 -147h-153l407 729h173l97 -729h-153zM517.999 272l-35 283l-154 -283h189z" />
    <glyph glyph-name="abreve" unicode="&#x103;" horiz-adv-x="556" 
d="M544 751h41.999c-7.33301 -41.333 -26.166 -75.5 -56.499 -102.5s-65.166 -40.5 -104.499 -40.5c-31.333 0 -56.833 9.66699 -76.5 29s-29.5 44.333 -29.5 75c0 11.333 2 24.333 6 39h42v-8c0 -18 6.5 -32 19.5 -42s31.167 -15 54.5 -15
c51.333 0 85.666 21.667 102.999 65zM385.999 549c38 0 70.4961 -3.83691 97.4961 -11.5039s46.833 -18 59.5 -31s21.667 -25.833 27 -38.5s8 -26 8 -40c0 -12 -2 -27 -6 -45l-63 -300c-2 -9.33301 -3 -16.333 -3 -21c0 -14 7 -29 21 -45l-4 -17h-153
c-4.66699 10 -7 19 -7 27s1 17 3 27c-57.333 -51.333 -113 -77 -167 -77c-44.667 0 -80.667 12 -108 36s-41 55.667 -41 95c0 10 1.33301 21.5 4 34.5s8.5 28.5 17.5 46.5s20.5 34.667 34.5 50s33.667 29.833 59 43.5s54.333 23.167 87 28.5l58 9
c2.66699 0.666992 8.33398 1.5 17.001 2.5s15 1.83301 19 2.5s10.167 1.83398 18.5 3.50098s14.5 3.33398 18.5 5.00098s9.33301 3.66699 16 6s11.834 5.16602 15.501 8.49902s7.33398 7.33301 11.001 12s6.33398 9.83398 8.00098 15.501s2.5 11.834 2.5 18.501
c0 28.667 -24.333 43 -73 43c-32 0 -56.5 -5.66699 -73.5 -17s-29.833 -30.666 -38.5 -57.999h-131c14 65.333 42.167 112.833 84.5 142.5s102.833 44.5 181.5 44.5zM399.995 216.996l8.00098 38.001c-8 -4.66699 -23.667 -9.33398 -47 -14.001l-66 -11
c-32.667 -5.33301 -57.834 -16 -75.501 -32s-26.5 -35.667 -26.5 -59c0 -33.333 24.333 -50 73 -50c34 0 62.5 11 85.5 33s39.167 53.667 48.5 95z" />
    <glyph glyph-name="Aogonek" unicode="&#x104;" horiz-adv-x="722" 
d="M469 -155c0 22 5.66797 42.3301 17.001 60.9971s26.5 34.334 45.5 47.001s35.5 22.334 49.5 29.001s28.667 12.667 44 18h-75l-18 147h-272l-81 -147h-153l407 729h173l97 -729c-38.667 -16 -70.667 -37.167 -96 -63.5s-38 -51.833 -38 -76.5
c0 -28.667 18.333 -43 55 -43c26 0 50 3.66699 72 11l-11 -52c-26.667 -6 -53.334 -9 -80.001 -9c-43.333 0 -76.833 6.83301 -100.5 20.5s-35.5 32.834 -35.5 57.501zM518.001 271.997l-35 283l-154 -283h189z" />
    <glyph glyph-name="aogonek" unicode="&#x105;" horiz-adv-x="556" 
d="M386 549c38 0 70.4961 -3.83496 97.4961 -11.502s46.833 -18 59.5 -31s21.667 -25.833 27 -38.5s8 -26 8 -40c0 -12 -2 -27 -6 -45l-63 -300c-2 -8 -3 -15 -3 -21c0 -14 7 -29 21 -45l-4 -17c-87.333 -46.667 -131 -93.334 -131 -140.001c0 -28.667 17 -43 51 -43
c28.667 0 54 3.66699 76 11l-10 -52c-27.333 -6 -54.333 -9 -81 -9c-90 0 -135 26.333 -135 79c0 63.333 52 114.666 156 153.999h-79c-4.66699 10 -7 19 -7 27s1 17 3 27c-57.333 -51.333 -113 -77 -167 -77c-44.667 0 -80.667 12 -108 36s-41 55.667 -41 95
c0 10 1.33301 21.5 4 34.5s8.5 28.5 17.5 46.5s20.5 34.667 34.5 50s33.667 29.833 59 43.5s54.333 23.167 87 28.5l58 9c2.66699 0.666992 8.33398 1.5 17.001 2.5s15 1.83301 19 2.5s10.167 1.83398 18.5 3.50098s14.5 3.33398 18.5 5.00098s9.33301 3.66699 16 6
s11.834 5.16602 15.501 8.49902s7.33398 7.33301 11.001 12s6.33398 9.83398 8.00098 15.501s2.5 11.834 2.5 18.501c0 28.667 -24.333 43 -73 43c-32 0 -56.5 -5.66699 -73.5 -17s-29.833 -30.666 -38.5 -57.999h-131c14 65.333 42.167 112.833 84.5 142.5
s102.833 44.5 181.5 44.5zM399.996 216.998l8.00098 38.001c-8 -4.66699 -23.667 -9.33398 -47 -14.001l-66 -11c-32.667 -5.33301 -57.834 -16 -75.501 -32s-26.5 -35.667 -26.5 -59c0 -33.333 24.333 -50 73 -50c34 0 62.5 11 85.5 33s39.167 53.667 48.5 95z" />
    <glyph glyph-name="Cacute" unicode="&#x106;" horiz-adv-x="722" 
d="M709 937l-158 -150h-70l102 150h126zM107 235c0 92.667 18.333 177.672 55 255.005s87.667 138.5 153 183.5s138 67.5 218 67.5c77.333 0 140 -19.333 188 -58s72 -89 72 -151c0 -8.66699 -1.33301 -25.334 -4 -50.001h-141c0 87.333 -44 131 -132 131
c-35.333 0 -67.333 -6.83301 -96 -20.5s-52 -31.834 -70 -54.501s-33.5 -46.834 -46.5 -72.501s-22.833 -52.334 -29.5 -80.001s-11.334 -51.334 -14.001 -71.001s-4 -36.5 -4 -50.5c0 -106 49 -159 147 -159c48 0 89 12.5 123 37.5s58.333 60.5 73 106.5h143
c-22 -85.333 -64.667 -152 -128 -200s-140.666 -72 -231.999 -72c-85.333 0 -152.5 23 -201.5 69s-73.5 109 -73.5 189z" />
    <glyph glyph-name="cacute" unicode="&#x107;" horiz-adv-x="556" 
d="M398 549c60.667 0 109 -16.0049 145 -48.0049s54 -72 54 -120c0 -7.33301 -1.33301 -21.666 -4 -42.999h-134c-0.666992 33.333 -6 58.166 -16 74.499s-32 24.5 -66 24.5c-29.333 0 -55 -9 -77 -27s-38.333 -40.833 -49 -68.5s-18.5 -54.167 -23.5 -79.5
s-7.5 -48.666 -7.5 -69.999c0 -68.667 29.667 -103 89 -103c27.333 0 50 7.5 68 22.5s34.667 40.167 50 75.5h134c-20.667 -66.667 -54.5 -118.334 -101.5 -155.001s-102.833 -55 -167.5 -55c-40.667 0 -75.834 6.33301 -105.501 19s-52 29.334 -67 50.001
s-25.833 41.334 -32.5 62.001s-10 42 -10 64s2.33301 46.833 7 74.5s14.334 59.834 29.001 96.501s33.167 69.834 55.5 99.501s53.5 54.834 93.5 75.501s85.333 31 136 31zM588 757.995l-158 -150h-70l102 150h126z" />
    <glyph glyph-name="Ccircumflex" unicode="&#x108;" horiz-adv-x="722" 
d="M525 941h108l71 -147h-78l-61 97l-103 -97h-76zM107 235c0 92.667 18.333 177.672 55 255.005s87.667 138.5 153 183.5s138 67.5 218 67.5c77.333 0 140 -19.333 188 -58s72 -89 72 -151c0 -8.66699 -1.33301 -25.334 -4 -50.001h-141c0 87.333 -44 131 -132 131
c-35.333 0 -67.333 -6.83301 -96 -20.5s-52 -31.834 -70 -54.501s-33.5 -46.834 -46.5 -72.501s-22.833 -52.334 -29.5 -80.001s-11.334 -51.334 -14.001 -71.001s-4 -36.5 -4 -50.5c0 -106 49 -159 147 -159c48 0 89 12.5 123 37.5s58.333 60.5 73 106.5h143
c-22 -85.333 -64.667 -152 -128 -200s-140.666 -72 -231.999 -72c-85.333 0 -152.5 23 -201.5 69s-73.5 109 -73.5 189z" />
    <glyph glyph-name="ccircumflex" unicode="&#x109;" horiz-adv-x="556" 
d="M397 787h108l71 -147h-78l-61 97l-103 -97h-76zM398 549c60.667 0 109 -16.0049 145 -48.0049s54 -72 54 -120c0 -7.33301 -1.33301 -21.666 -4 -42.999h-134c-0.666992 33.333 -6 58.166 -16 74.499s-32 24.5 -66 24.5c-29.333 0 -55 -9 -77 -27
s-38.333 -40.833 -49 -68.5s-18.5 -54.167 -23.5 -79.5s-7.5 -48.666 -7.5 -69.999c0 -68.667 29.667 -103 89 -103c27.333 0 50 7.5 68 22.5s34.667 40.167 50 75.5h134c-20.667 -66.667 -54.5 -118.334 -101.5 -155.001s-102.833 -55 -167.5 -55
c-40.667 0 -75.834 6.33301 -105.501 19s-52 29.334 -67 50.001s-25.833 41.334 -32.5 62.001s-10 42 -10 64s2.33301 46.833 7 74.5s14.334 59.834 29.001 96.501s33.167 69.834 55.5 99.501s53.5 54.834 93.5 75.501s85.333 31 136 31z" />
    <glyph glyph-name="Cdotaccent" unicode="&#x10a;" horiz-adv-x="722" 
d="M630 922l-26 -120h-110l26 120h110zM107 235c0 92.667 18.333 177.672 55 255.005s87.667 138.5 153 183.5s138 67.5 218 67.5c77.333 0 140 -19.333 188 -58s72 -89 72 -151c0 -8.66699 -1.33301 -25.334 -4 -50.001h-141c0 87.333 -44 131 -132 131
c-35.333 0 -67.333 -6.83301 -96 -20.5s-52 -31.834 -70 -54.501s-33.5 -46.834 -46.5 -72.501s-22.833 -52.334 -29.5 -80.001s-11.334 -51.334 -14.001 -71.001s-4 -36.5 -4 -50.5c0 -106 49 -159 147 -159c48 0 89 12.5 123 37.5s58.333 60.5 73 106.5h143
c-22 -85.333 -64.667 -152 -128 -200s-140.666 -72 -231.999 -72c-85.333 0 -152.5 23 -201.5 69s-73.5 109 -73.5 189z" />
    <glyph glyph-name="cdotaccent" unicode="&#x10b;" horiz-adv-x="556" 
d="M494 742l-26 -120h-110l26 120h110zM398 549c60.667 0 109 -16.0049 145 -48.0049s54 -72 54 -120c0 -7.33301 -1.33301 -21.666 -4 -42.999h-134c-0.666992 33.333 -6 58.166 -16 74.499s-32 24.5 -66 24.5c-29.333 0 -55 -9 -77 -27s-38.333 -40.833 -49 -68.5
s-18.5 -54.167 -23.5 -79.5s-7.5 -48.666 -7.5 -69.999c0 -68.667 29.667 -103 89 -103c27.333 0 50 7.5 68 22.5s34.667 40.167 50 75.5h134c-20.667 -66.667 -54.5 -118.334 -101.5 -155.001s-102.833 -55 -167.5 -55c-40.667 0 -75.834 6.33301 -105.501 19
s-52 29.334 -67 50.001s-25.833 41.334 -32.5 62.001s-10 42 -10 64s2.33301 46.833 7 74.5s14.334 59.834 29.001 96.501s33.167 69.834 55.5 99.501s53.5 54.834 93.5 75.501s85.333 31 136 31z" />
    <glyph glyph-name="Ccaron" unicode="&#x10c;" horiz-adv-x="722" 
d="M107 235c0 92.667 18.333 177.672 55 255.005s87.667 138.5 153 183.5s138 67.5 218 67.5c77.333 0 140 -19.333 188 -58s72 -89 72 -151c0 -8.66699 -1.33301 -25.334 -4 -50.001h-141c0 87.333 -44 131 -132 131c-35.333 0 -67.333 -6.83301 -96 -20.5
s-52 -31.834 -70 -54.501s-33.5 -46.834 -46.5 -72.501s-22.833 -52.334 -29.5 -80.001s-11.334 -51.334 -14.001 -71.001s-4 -36.5 -4 -50.5c0 -106 49 -159 147 -159c48 0 89 12.5 123 37.5s58.333 60.5 73 106.5h143c-22 -85.333 -64.667 -152 -128 -200
s-140.666 -72 -231.999 -72c-85.333 0 -152.5 23 -201.5 69s-73.5 109 -73.5 189zM604 784.005h-108l-71 147h78l61 -97l103 97h76z" />
    <glyph glyph-name="ccaron" unicode="&#x10d;" horiz-adv-x="556" 
d="M458 610h-108l-71 147h78l61 -97l103 97h76zM398 549c60.667 0 109 -16.0049 145 -48.0049s54 -72 54 -120c0 -7.33301 -1.33301 -21.666 -4 -42.999h-134c-0.666992 33.333 -6 58.166 -16 74.499s-32 24.5 -66 24.5c-29.333 0 -55 -9 -77 -27s-38.333 -40.833 -49 -68.5
s-18.5 -54.167 -23.5 -79.5s-7.5 -48.666 -7.5 -69.999c0 -68.667 29.667 -103 89 -103c27.333 0 50 7.5 68 22.5s34.667 40.167 50 75.5h134c-20.667 -66.667 -54.5 -118.334 -101.5 -155.001s-102.833 -55 -167.5 -55c-40.667 0 -75.834 6.33301 -105.501 19
s-52 29.334 -67 50.001s-25.833 41.334 -32.5 62.001s-10 42 -10 64s2.33301 46.833 7 74.5s14.334 59.834 29.001 96.501s33.167 69.834 55.5 99.501s53.5 54.834 93.5 75.501s85.333 31 136 31z" />
    <glyph glyph-name="Dcaron" unicode="&#x10e;" horiz-adv-x="722" 
d="M77 0l155.001 729.002h285c90.667 0 156.5 -19.833 197.5 -59.5s61.5 -103.167 61.5 -190.5c0 -19.333 -1.33301 -40.5 -4 -63.5s-7.83398 -50.333 -15.501 -82s-17.667 -62.334 -30 -92.001s-29.333 -59.334 -51 -89.001s-46.5 -55.667 -74.5 -78
s-62.5 -40.333 -103.5 -54s-86.167 -20.5 -135.5 -20.5h-285zM254.001 125.002l134 -0.000976562c40 0 75.333 9.66699 106 29s54 42.333 70 69s29.167 57.334 39.5 92.001s16.833 64 19.5 88s4 46 4 66c0 90 -45.667 135 -137 135h-135zM552.001 784.001h-108l-71 147h78
l61 -97l103 97h76z" />
    <glyph glyph-name="dcaron" unicode="&#x10f;" horiz-adv-x="722" 
d="M405 0l11.998 55c-45.333 -52 -100.666 -78 -165.999 -78c-52 0 -93.667 19 -125 57s-47 88.333 -47 151c0 42.667 7.16699 85.5 21.5 128.5s33.833 82 58.5 117s55.834 63.5 93.501 85.5s77.5 33 119.5 33c66 0 110.333 -26.333 133 -79l55 259h140l-155 -729h-140z
M379.998 437c-41.333 0 -78.002 -23.334 -110.002 -70.001s-48 -100.334 -48 -161.001c0 -36 7.83301 -64.5 23.5 -85.5s36.834 -31.5 63.501 -31.5c42.667 0 79.834 23.333 111.501 70s47.5 101.334 47.5 164.001c0 34.667 -7.83301 62.334 -23.5 83.001
s-37.167 31 -64.5 31zM764.996 732.999l121.999 -0.000976562l-21 -96c-5.33301 -39.333 -22.666 -73.666 -51.999 -102.999s-63 -45.333 -101 -48l10 46c22 4 41 14.167 57 30.5s25.333 35.833 28 58.5h-67z" />
    <glyph glyph-name="Dcroat" unicode="&#x110;" horiz-adv-x="722" 
d="M150 341h-77l17 80h76l66 308h285c90.667 0 156.5 -19.833 197.5 -59.5s61.5 -103.167 61.5 -190.5c0 -122.667 -37.333 -235.667 -112 -339c-36.667 -50.667 -78 -86.667 -124 -108s-105.333 -32 -178 -32h-285zM300 341l-45.9971 -216h134
c43.333 0 78.666 7.83301 105.999 23.5s51.666 42.167 72.999 79.5c17.333 29.333 31.666 67 42.999 113s17 88.667 17 128c0 90 -45.667 135 -137 135h-135l-39 -183h174l-17 -80h-173z" />
    <glyph glyph-name="dcroat" unicode="&#x111;" horiz-adv-x="611" 
d="M546 663l13.999 66h140l-14 -66h60l-14 -67h-60l-127 -596h-140l12 55c-45.333 -52 -100.666 -78 -165.999 -78c-52 0 -93.667 19 -125 57s-47 88.333 -47 151c0 86.667 26 167.667 78 243c26.667 37.333 59 66.833 97 88.5s77.333 32.5 118 32.5
c66 0 110.333 -26.333 133 -79l27 126h-140l14 67h140zM379.999 437c-41.333 0 -78.002 -23.334 -110.002 -70.001s-48 -100.334 -48 -161.001c0 -36 7.83301 -64.5 23.5 -85.5s36.834 -31.5 63.501 -31.5c42.667 0 79.834 23.333 111.501 70s47.5 101.334 47.5 164.001
c0 34.667 -8 62.334 -24 83.001s-37.333 31 -64 31z" />
    <glyph glyph-name="Emacron" unicode="&#x112;" horiz-adv-x="667" 
d="M296 314l-40 -189h395l-27 -125h-545l155 729h528l-27 -125h-378l-35 -165h349l-26 -125h-349zM687 881l-17 -80h-300l17 80h300z" />
    <glyph glyph-name="emacron" unicode="&#x113;" horiz-adv-x="556" 
d="M580 722l-17 -80h-300l17 80h300zM379 549c63.333 0 114.498 -18.3301 153.498 -54.9971s58.5 -84.334 58.5 -143.001c0 -38 -6 -79.667 -18 -125h-363c-2 -18.667 -3 -33.667 -3 -45c0 -27.333 8.66699 -49.5 26 -66.5s40.333 -25.5 69 -25.5
c24 0 46.167 5.66699 66.5 17s35.5 26.666 45.5 45.999h138c-27.333 -55.333 -65.166 -98.333 -113.499 -129s-102.833 -46 -163.5 -46c-62.667 0 -113.5 19.167 -152.5 57.5s-58.5 88.5 -58.5 150.5c0 16 1.66699 34.333 5 55s9 45.5 17 74.5s19.833 56.667 35.5 83
s34.5 51.166 56.5 74.499s50.333 42 85 56s73.334 21 116.001 21zM361.998 437.003c-67.333 0 -112 -39.334 -134 -118.001h220c0 18.667 -0.833008 33.834 -2.5 45.501s-5.16699 23.667 -10.5 36s-14 21.5 -26 27.5s-27.667 9 -47 9z" />
    <glyph glyph-name="Ebreve" unicode="&#x114;" horiz-adv-x="667" 
d="M647 927h41.999c-7.33301 -41.333 -26.166 -75.5 -56.499 -102.5s-65.166 -40.5 -104.499 -40.5c-31.333 0 -56.833 9.66699 -76.5 29s-29.5 44.333 -29.5 75c0 11.333 2 24.333 6 39h42v-8c0 -18 6.5 -32 19.5 -42s31.167 -15 54.5 -15
c51.333 0 85.666 21.667 102.999 65zM295.999 314l-40 -189h395l-27 -125h-545l155 729h528l-27 -125h-378l-35 -165h349l-26 -125h-349z" />
    <glyph glyph-name="ebreve" unicode="&#x115;" horiz-adv-x="556" 
d="M524 751h41.999c-7.33301 -41.333 -26.166 -75.5 -56.499 -102.5s-65.166 -40.5 -104.499 -40.5c-31.333 0 -56.833 9.66699 -76.5 29s-29.5 44.333 -29.5 75c0 11.333 2 24.333 6 39h42v-8c0 -18 6.5 -32 19.5 -42s31.167 -15 54.5 -15
c51.333 0 85.666 21.667 102.999 65zM378.999 549c63.333 0 114.498 -18.3301 153.498 -54.9971s58.5 -84.334 58.5 -143.001c0 -38 -6 -79.667 -18 -125h-363c-2 -18.667 -3 -33.667 -3 -45c0 -27.333 8.66699 -49.5 26 -66.5s40.333 -25.5 69 -25.5
c24 0 46.167 5.66699 66.5 17s35.5 26.666 45.5 45.999h138c-27.333 -55.333 -65.166 -98.333 -113.499 -129s-102.833 -46 -163.5 -46c-62.667 0 -113.5 19.167 -152.5 57.5s-58.5 88.5 -58.5 150.5c0 16 1.66699 34.333 5 55s9 45.5 17 74.5s19.833 56.667 35.5 83
s34.5 51.166 56.5 74.499s50.333 42 85 56s73.334 21 116.001 21zM361.997 437.003c-67.333 0 -112 -39.334 -134 -118.001h220c0 18.667 -0.833008 33.834 -2.5 45.501s-5.16699 23.667 -10.5 36s-14 21.5 -26 27.5s-27.667 9 -47 9z" />
    <glyph glyph-name="Edotaccent" unicode="&#x116;" horiz-adv-x="667" 
d="M603 922l-26 -120h-110l26 120h110zM296 314l-40 -189h395l-27 -125h-545l155 729h528l-27 -125h-378l-35 -165h349l-26 -125h-349z" />
    <glyph glyph-name="edotaccent" unicode="&#x117;" horiz-adv-x="556" 
d="M464 742l-26 -120h-110l26 120h110zM379 549c63.333 0 114.498 -18.3301 153.498 -54.9971s58.5 -84.334 58.5 -143.001c0 -38 -6 -79.667 -18 -125h-363c-2 -18.667 -3 -33.667 -3 -45c0 -27.333 8.66699 -49.5 26 -66.5s40.333 -25.5 69 -25.5
c24 0 46.167 5.66699 66.5 17s35.5 26.666 45.5 45.999h138c-27.333 -55.333 -65.166 -98.333 -113.499 -129s-102.833 -46 -163.5 -46c-62.667 0 -113.5 19.167 -152.5 57.5s-58.5 88.5 -58.5 150.5c0 16 1.66699 34.333 5 55s9 45.5 17 74.5s19.833 56.667 35.5 83
s34.5 51.166 56.5 74.499s50.333 42 85 56s73.334 21 116.001 21zM361.998 437.003c-67.333 0 -112 -39.334 -134 -118.001h220c0 18.667 -0.833008 33.834 -2.5 45.501s-5.16699 23.667 -10.5 36s-14 21.5 -26 27.5s-27.667 9 -47 9z" />
    <glyph glyph-name="Eogonek" unicode="&#x118;" horiz-adv-x="667" 
d="M395 -156c0 30.667 13 60.001 39 88.001s65 50.667 117 68h-472l155 729h528l-27 -125h-378l-35 -165h349l-26 -125h-349l-40 -189h395l-27 -125c-45.333 -25.333 -78.166 -49.333 -98.499 -72s-30.5 -46.334 -30.5 -71.001c0 -26.667 18 -40 54 -40
c26.667 0 51 3.66699 73 11l-11 -52c-26.667 -6 -53.334 -9 -80.001 -9c-43.333 0 -76.833 6.66699 -100.5 20s-35.5 32.333 -35.5 57z" />
    <glyph glyph-name="eogonek" unicode="&#x119;" horiz-adv-x="556" 
d="M552 152c-14 -29.333 -34.835 -58.3281 -62.502 -86.9951s-53.5 -52.334 -77.5 -71.001s-45.167 -39.834 -63.5 -63.501s-27.5 -47.167 -27.5 -70.5c0 -28.667 17 -43 51 -43c26.667 0 50.334 3.66699 71.001 11l-11 -52c-30.667 -6 -56 -9 -76 -9
c-42.667 0 -75.667 7.16699 -99 21.5s-35 34.166 -35 59.499s8 47.666 24 66.999s45.667 42 89 68c-25.333 -4.66699 -45 -7 -59 -7c-62.667 0 -113.667 19.333 -153 58s-59 88.667 -59 150c0 16 1.66699 34.5 5 55.5s9 45.833 17 74.5s19.833 56.334 35.5 83.001
s34.5 51.667 56.5 75s50.333 42 85 56s73.334 21 116.001 21c63.333 0 114.5 -18.333 153.5 -55s58.5 -84.334 58.5 -143.001c0 -38 -6 -79.667 -18 -125h-363c-2 -18.667 -3 -33.667 -3 -45c0 -27.333 8.66699 -49.5 26 -66.5s40.333 -25.5 69 -25.5
c24 0 46.167 5.66699 66.5 17s35.5 26.666 45.5 45.999h138zM447.998 334.005c0 68.667 -28.667 103 -86 103c-67.333 0 -112 -39.333 -134 -118h220v15z" />
    <glyph glyph-name="Ecaron" unicode="&#x11a;" horiz-adv-x="667" 
d="M296 314l-40 -189h395l-27 -125h-545l155 729h528l-27 -125h-378l-35 -165h349l-26 -125h-349zM563 784h-108l-71 147h78l61 -97l103 97h76z" />
    <glyph glyph-name="ecaron" unicode="&#x11b;" horiz-adv-x="556" 
d="M458 610h-108l-71 147h78l61 -97l103 97h76zM379 549c63.333 0 114.498 -18.3301 153.498 -54.9971s58.5 -84.334 58.5 -143.001c0 -38 -6 -79.667 -18 -125h-363c-2 -18.667 -3 -33.667 -3 -45c0 -27.333 8.66699 -49.5 26 -66.5s40.333 -25.5 69 -25.5
c24 0 46.167 5.66699 66.5 17s35.5 26.666 45.5 45.999h138c-27.333 -55.333 -65.166 -98.333 -113.499 -129s-102.833 -46 -163.5 -46c-62.667 0 -113.5 19.167 -152.5 57.5s-58.5 88.5 -58.5 150.5c0 16 1.66699 34.333 5 55s9 45.5 17 74.5s19.833 56.667 35.5 83
s34.5 51.166 56.5 74.499s50.333 42 85 56s73.334 21 116.001 21zM361.998 437.003c-67.333 0 -112 -39.334 -134 -118.001h220c0 18.667 -0.833008 33.834 -2.5 45.501s-5.16699 23.667 -10.5 36s-14 21.5 -26 27.5s-27.667 9 -47 9z" />
    <glyph glyph-name="Gcircumflex" unicode="&#x11c;" horiz-adv-x="778" 
d="M532 939h108l71 -147h-78l-61 97l-103 -97h-76zM795 392l-84 -394h-90l7 90c-37.333 -39.333 -73.833 -67.666 -109.5 -84.999s-76.834 -26 -123.501 -26c-88 0 -158 25.667 -210 77s-78 120.666 -78 207.999c0 53.333 9.66699 107.5 29 162.5s46.833 106.333 82.5 154
s82.167 86.667 139.5 117s120.333 45.5 189 45.5c81.333 0 147 -19.5 197 -58.5s75 -90.167 75 -153.5c0 -3.33301 -0.666992 -14.333 -2 -33h-138c-4 37.333 -19.833 66.166 -47.5 86.499s-65.167 30.5 -112.5 30.5c-40 0 -76 -8.33301 -108 -25s-57.333 -37.5 -76 -62.5
s-34.167 -53 -46.5 -84s-20.833 -59.5 -25.5 -85.5s-7 -50 -7 -72c0 -51.333 16.167 -94 48.5 -128s72.833 -51 121.5 -51c32 0 61.5 5.83301 88.5 17.5s49 26.834 66 45.501s30.333 36.167 40 52.5s16.834 31.833 21.501 46.5h-166l27 125h292z" />
    <glyph glyph-name="gcircumflex" unicode="&#x11d;" horiz-adv-x="611" 
d="M408 787h108l71 -147h-78l-61 97l-103 -97h-76zM235 -218c-75.333 0 -129 12.167 -161 36.5s-48 52.833 -48 85.5c0 8.66699 1 19 3 31h144c-0.666992 -4.66699 -1 -8.66699 -1 -12c0 -14.667 8.16699 -26.834 24.5 -36.501s36.833 -14.5 61.5 -14.5
c36.667 0 68.334 10.167 95.001 30.5s43.667 46.833 51 79.5l16 73c-32 -29.333 -60 -49.666 -84 -60.999s-51.333 -17 -82 -17c-50.667 0 -92.5 18 -125.5 54s-49.5 81.333 -49.5 136c0 35.333 4.33301 71.166 13 107.499s21.667 70.833 39 103.5
s37.833 61.834 61.5 87.501s51.5 46 83.5 61s66 22.5 102 22.5c58 0 100.333 -30.667 127 -92l18 83h133l-119 -558c-13.333 -63.333 -46.333 -112.5 -99 -147.5s-120.334 -52.5 -203.001 -52.5zM379 437c-40.667 0 -77.001 -24 -109.001 -72s-48 -102.667 -48 -164
c0 -34.667 7.5 -62 22.5 -82s35.5 -30 61.5 -30c44.667 0 83.334 22.5 116.001 67.5s49 97.833 49 158.5c0 37.333 -8.33301 67 -25 89s-39 33 -67 33z" />
    <glyph glyph-name="Gbreve" unicode="&#x11e;" horiz-adv-x="778" 
d="M795 392l-84 -394h-90l7 90c-37.333 -39.333 -73.833 -67.666 -109.5 -84.999s-76.834 -26 -123.501 -26c-88 0 -158 25.667 -210 77s-78 120.666 -78 207.999c0 53.333 9.66699 107.5 29 162.5s46.833 106.333 82.5 154s82.167 86.667 139.5 117s120.333 45.5 189 45.5
c81.333 0 147 -19.5 197 -58.5s75 -90.167 75 -153.5c0 -3.33301 -0.666992 -14.333 -2 -33h-138c-4 37.333 -19.833 66.166 -47.5 86.499s-65.167 30.5 -112.5 30.5c-40 0 -76 -8.33301 -108 -25s-57.333 -37.5 -76 -62.5s-34.167 -53 -46.5 -84s-20.833 -59.5 -25.5 -85.5
s-7 -50 -7 -72c0 -51.333 16.167 -94 48.5 -128s72.833 -51 121.5 -51c32 0 61.5 5.83301 88.5 17.5s49 26.834 66 45.501s30.333 36.167 40 52.5s16.834 31.833 21.501 46.5h-166l27 125h292zM687 927h41.999c-7.33301 -41.333 -26.166 -75.5 -56.499 -102.5
s-65.166 -40.5 -104.499 -40.5c-31.333 0 -56.833 9.66699 -76.5 29s-29.5 44.333 -29.5 75c0 11.333 2 24.333 6 39h42v-8c0 -18 6.5 -32 19.5 -42s31.167 -15 54.5 -15c51.333 0 85.666 21.667 102.999 65z" />
    <glyph glyph-name="gbreve" unicode="&#x11f;" horiz-adv-x="611" 
d="M235 -218c-75.333 0 -129 12.167 -161 36.5s-48 52.833 -48 85.5c0 8.66699 1 19 3 31h144c-0.666992 -4.66699 -1 -8.66699 -1 -12c0 -14.667 8.16699 -26.834 24.5 -36.501s36.833 -14.5 61.5 -14.5c36.667 0 68.334 10.167 95.001 30.5s43.667 46.833 51 79.5l16 73
c-32 -29.333 -60 -49.666 -84 -60.999s-51.333 -17 -82 -17c-50.667 0 -92.5 18 -125.5 54s-49.5 81.333 -49.5 136c0 35.333 4.33301 71.166 13 107.499s21.667 70.833 39 103.5s37.833 61.834 61.5 87.501s51.5 46 83.5 61s66 22.5 102 22.5c58 0 100.333 -30.667 127 -92
l18 83h133l-119 -558c-13.333 -63.333 -46.333 -112.5 -99 -147.5s-120.334 -52.5 -203.001 -52.5zM379 437c-40.667 0 -77.001 -24 -109.001 -72s-48 -102.667 -48 -164c0 -34.667 7.5 -62 22.5 -82s35.5 -30 61.5 -30c44.667 0 83.334 22.5 116.001 67.5
s49 97.833 49 158.5c0 37.333 -8.33301 67 -25 89s-39 33 -67 33zM543.999 751h41.999c-7.33301 -41.333 -26.166 -75.5 -56.499 -102.5s-65.166 -40.5 -104.499 -40.5c-31.333 0 -56.833 9.66699 -76.5 29s-29.5 44.333 -29.5 75c0 11.333 2 24.333 6 39h42v-8
c0 -18 6.5 -32 19.5 -42s31.167 -15 54.5 -15c51.333 0 85.666 21.667 102.999 65z" />
    <glyph glyph-name="Gdotaccent" unicode="&#x120;" horiz-adv-x="778" 
d="M636 922l-26 -120h-110l26 120h110zM795 392l-84 -394h-90l7 90c-37.333 -39.333 -73.833 -67.666 -109.5 -84.999s-76.834 -26 -123.501 -26c-88 0 -158 25.667 -210 77s-78 120.666 -78 207.999c0 53.333 9.66699 107.5 29 162.5s46.833 106.333 82.5 154
s82.167 86.667 139.5 117s120.333 45.5 189 45.5c81.333 0 147 -19.5 197 -58.5s75 -90.167 75 -153.5c0 -3.33301 -0.666992 -14.333 -2 -33h-138c-4 37.333 -19.833 66.166 -47.5 86.499s-65.167 30.5 -112.5 30.5c-40 0 -76 -8.33301 -108 -25s-57.333 -37.5 -76 -62.5
s-34.167 -53 -46.5 -84s-20.833 -59.5 -25.5 -85.5s-7 -50 -7 -72c0 -51.333 16.167 -94 48.5 -128s72.833 -51 121.5 -51c32 0 61.5 5.83301 88.5 17.5s49 26.834 66 45.501s30.333 36.167 40 52.5s16.834 31.833 21.501 46.5h-166l27 125h292z" />
    <glyph glyph-name="gdotaccent" unicode="&#x121;" horiz-adv-x="611" 
d="M509 742l-26 -120h-110l26 120h110zM235 -218c-75.333 0 -129 12.167 -161 36.5s-48 52.833 -48 85.5c0 8.66699 1 19 3 31h144c-0.666992 -4.66699 -1 -8.66699 -1 -12c0 -14.667 8.16699 -26.834 24.5 -36.501s36.833 -14.5 61.5 -14.5
c36.667 0 68.334 10.167 95.001 30.5s43.667 46.833 51 79.5l16 73c-32 -29.333 -60 -49.666 -84 -60.999s-51.333 -17 -82 -17c-50.667 0 -92.5 18 -125.5 54s-49.5 81.333 -49.5 136c0 35.333 4.33301 71.166 13 107.499s21.667 70.833 39 103.5
s37.833 61.834 61.5 87.501s51.5 46 83.5 61s66 22.5 102 22.5c58 0 100.333 -30.667 127 -92l18 83h133l-119 -558c-13.333 -63.333 -46.333 -112.5 -99 -147.5s-120.334 -52.5 -203.001 -52.5zM379 437c-40.667 0 -77.001 -24 -109.001 -72s-48 -102.667 -48 -164
c0 -34.667 7.5 -62 22.5 -82s35.5 -30 61.5 -30c44.667 0 83.334 22.5 116.001 67.5s49 97.833 49 158.5c0 37.333 -8.33301 67 -25 89s-39 33 -67 33z" />
    <glyph glyph-name="Gcommaaccent" unicode="&#x122;" horiz-adv-x="778" 
d="M321 -73l122.001 0.000976562l-23 -102c-16.667 -75.333 -66.334 -117 -149.001 -125l10 46c50.667 9.33301 79 35.666 85 78.999h-67zM795.001 392.001l-84 -394h-90l7 90c-37.333 -39.333 -73.833 -67.666 -109.5 -84.999s-76.834 -26 -123.501 -26
c-88 0 -158 25.667 -210 77s-78 120.666 -78 207.999c0 53.333 9.66699 107.5 29 162.5s46.833 106.333 82.5 154s82.167 86.667 139.5 117s120.333 45.5 189 45.5c81.333 0 147 -19.5 197 -58.5s75 -90.167 75 -153.5c0 -3.33301 -0.666992 -14.333 -2 -33h-138
c-4 37.333 -19.833 66.166 -47.5 86.499s-65.167 30.5 -112.5 30.5c-40 0 -76 -8.33301 -108 -25s-57.333 -37.5 -76 -62.5s-34.167 -53 -46.5 -84s-20.833 -59.5 -25.5 -85.5s-7 -50 -7 -72c0 -51.333 16.167 -94 48.5 -128s72.833 -51 121.5 -51
c32 0 61.5 5.83301 88.5 17.5s49 26.834 66 45.501s30.333 36.167 40 52.5s16.834 31.833 21.501 46.5h-166l27 125h292z" />
    <glyph glyph-name="gcommaaccent" unicode="&#x123;" horiz-adv-x="611" 
d="M235 -218c-75.333 0 -129 12.167 -161 36.5s-48 52.833 -48 85.5c0 8.66699 1 19 3 31h144c-0.666992 -4.66699 -1 -8.66699 -1 -12c0 -14.667 8.16699 -26.834 24.5 -36.501s36.833 -14.5 61.5 -14.5c36.667 0 68.334 10.167 95.001 30.5s43.667 46.833 51 79.5l16 73
c-32 -29.333 -60 -49.666 -84 -60.999s-51.333 -17 -82 -17c-50.667 0 -92.5 18 -125.5 54s-49.5 81.333 -49.5 136c0 35.333 4.33301 71.166 13 107.499s21.667 70.833 39 103.5s37.833 61.834 61.5 87.501s51.5 46 83.5 61s66 22.5 102 22.5c58 0 100.333 -30.667 127 -92
l18 83h133l-119 -558c-13.333 -63.333 -46.333 -112.5 -99 -147.5s-120.334 -52.5 -203.001 -52.5zM379 437c-40.667 0 -77.001 -24 -109.001 -72s-48 -102.667 -48 -164c0 -34.667 7.5 -62 22.5 -82s35.5 -30 61.5 -30c44.667 0 83.334 22.5 116.001 67.5
s49 97.833 49 158.5c0 37.333 -8.33301 67 -25 89s-39 33 -67 33zM471.999 606l-122.001 -0.000976562l23 102c16.667 75.333 66.334 117 149.001 125l-10 -46c-50.667 -9.33301 -79 -35.666 -85 -78.999h67z" />
    <glyph glyph-name="Hcircumflex" unicode="&#x124;" horiz-adv-x="722" 
d="M510 948h108l71 -147h-78l-61 97l-103 -97h-76zM577 331h-289l-70 -331h-150l155 729h150l-58 -273h288l58 273h151l-155 -729h-150z" />
    <glyph glyph-name="hcircumflex" unicode="&#x125;" horiz-adv-x="611" 
d="M436 932h108l71 -147h-78l-61 97l-103 -97h-76zM222 729l140 -0.000976562l-58 -271c51.333 60.667 111.333 91 180 91c43.333 0 78.333 -12.167 105 -36.5s40 -56.166 40 -95.499c0 -18 -2 -36.333 -6 -55l-77 -362h-140l67 313c4 20.667 6 36.667 6 48
c0 50.667 -24.333 76 -73 76c-32 0 -60.167 -12 -84.5 -36s-40.833 -56.333 -49.5 -97l-65 -304h-140z" />
    <glyph glyph-name="Hbar" unicode="&#x126;" horiz-adv-x="722" 
d="M707 599h60l-14 -67h-60l-113 -532h-150l70 331h-289l-70 -331h-150l113 532h-60l14 67h60l27 130h150l-27 -130h288l27 130h151zM542 532h-288l-17 -76h288z" />
    <glyph glyph-name="hbar" unicode="&#x127;" horiz-adv-x="611" 
d="M482 549c37.333 0 70.498 -9.83203 99.498 -29.499s43.5 -52.5 43.5 -98.5c0 -18.667 -2.33301 -38.334 -7 -59.001l-76 -362h-140l70 330c3.33301 18 5 30.333 5 37c0 20 -6.5 35.5 -19.5 46.5s-29.833 16.5 -50.5 16.5c-31.333 0 -59.166 -9.83301 -83.499 -29.5
s-40.166 -45.167 -47.499 -76.5l-68 -324h-140l126 596h-59l14 67h59l14 66h140l-14 -66h134l-14 -67h-134l-28 -134c50 58 108.667 87 176 87z" />
    <glyph glyph-name="Itilde" unicode="&#x128;" horiz-adv-x="278" 
d="M514 921c-12 -42 -29.833 -72.832 -53.5 -92.499s-50.167 -29.5 -79.5 -29.5c-18 0 -35 3.66699 -51 11l-50 25c-20 9.33301 -34.667 14 -44 14c-17.333 0 -34.333 -16 -51 -48h-54c11.333 37.333 27.5 66.166 48.5 86.499s45.167 30.5 72.5 30.5
c21.333 0 45 -5.66699 71 -17l50 -21c14 -6.66699 25 -10 33 -10c22 0 40 17 54 51h54zM368 729.001l-155 -729h-150l155 729h150z" />
    <glyph glyph-name="itilde" unicode="&#x129;" horiz-adv-x="278" 
d="M478 762c-12 -42 -29.833 -72.832 -53.5 -92.499s-50.167 -29.5 -79.5 -29.5c-18 0 -35 3.66699 -51 11l-50 25c-20 9.33301 -34.667 14 -44 14c-17.333 0 -34.333 -16 -51 -48h-54c11.333 37.333 27.5 66.166 48.5 86.499s45.167 30.5 72.5 30.5
c21.333 0 45 -5.66699 71 -17l50 -21c14 -6.66699 25 -10 33 -10c22 0 40 17 54 51h54zM322 540.001l-115 -540h-140l115 540h140z" />
    <glyph glyph-name="Imacron" unicode="&#x12a;" horiz-adv-x="278" 
d="M476 881l-17 -80h-300l17 80h300zM368 729l-155 -729h-150l155 729h150z" />
    <glyph glyph-name="imacron" unicode="&#x12b;" horiz-adv-x="278" 
d="M322 540l-115 -540h-140l115 540h140zM442 722l-17 -80h-300l17 80h300z" />
    <glyph glyph-name="Ibreve" unicode="&#x12c;" horiz-adv-x="278" 
d="M431 942h41.999c-7.33301 -41.333 -26.166 -75.5 -56.499 -102.5s-65.166 -40.5 -104.499 -40.5c-31.333 0 -56.833 9.66699 -76.5 29s-29.5 44.333 -29.5 75c0 11.333 2 24.333 6 39h42v-8c0 -18 6.5 -32 19.5 -42s31.167 -15 54.5 -15
c51.333 0 85.666 21.667 102.999 65zM367.999 729l-155 -729h-150l155 729h150z" />
    <glyph glyph-name="ibreve" unicode="&#x12d;" horiz-adv-x="278" 
d="M392 783h41.999c-7.33301 -41.333 -26.166 -75.5 -56.499 -102.5s-65.166 -40.5 -104.499 -40.5c-31.333 0 -56.833 9.66699 -76.5 29s-29.5 44.333 -29.5 75c0 11.333 2 24.333 6 39h42v-8c0 -18 6.5 -32 19.5 -42s31.167 -15 54.5 -15
c51.333 0 85.666 21.667 102.999 65zM321.999 540l-115 -540h-140l115 540h140z" />
    <glyph glyph-name="Iogonek" unicode="&#x12e;" horiz-adv-x="278" 
d="M368 729l-155 -729.002c-30 -16 -55.667 -37.667 -77 -65s-32 -52 -32 -74c0 -29.333 15.333 -44 46 -44c18 0 38 3.66699 60 11l-11 -52c-29.333 -6 -53 -9 -71 -9c-37.333 0 -66.833 6.83301 -88.5 20.5s-32.5 32.834 -32.5 57.501c0 54.667 44 106.334 132 155.001
h-76l155 729h150z" />
    <glyph glyph-name="iogonek" unicode="&#x12f;" horiz-adv-x="268" 
d="M311 540l-115.001 -539.999c-66.667 -46.667 -100 -93.334 -100 -140.001c0 -28 15.667 -42 47 -42c11.333 0 28 3.33301 50 10l-11 -52c-27.333 -6 -48.333 -9 -63 -9c-37.333 0 -66.5 7.33301 -87.5 22s-31.5 35 -31.5 61s9.83301 50.5 29.5 73.5
s52.834 48.5 99.501 76.5h-73l115 540h140zM350.999 729.001l-26 -125h-140l26 125h140z" />
    <glyph glyph-name="Idotaccent" unicode="&#x130;" horiz-adv-x="278" 
d="M394 922l-26 -120h-110l26 120h110zM368 729l-155 -729h-150l155 729h150z" />
    <glyph glyph-name="dotlessi" unicode="&#x131;" horiz-adv-x="278" 
d="M322 540l-115 -540h-140l115 540h140z" />
    <glyph glyph-name="Jcircumflex" unicode="&#x134;" horiz-adv-x="556" 
d="M411 948h108l71 -147h-78l-61 97l-103 -97h-76zM491 729l150.001 -0.00292969l-115 -539c-30 -142 -123 -213 -279 -213c-58.667 0 -104.667 13.833 -138 41.5s-50 65.834 -50 114.501c0 22.667 2.33301 44.334 7 65.001l15 72h150l-16 -77
c-2.66699 -11.333 -4 -22.666 -4 -33.999c0 -16 6.16699 -29 18.5 -39s28.166 -15 47.499 -15c54 0 87 28.333 99 85z" />
    <glyph glyph-name="jcircumflex" unicode="&#x135;" horiz-adv-x="278" 
d="M250 756h108l71 -147h-78l-61 97l-103 -97h-76zM325 540l-134.998 -634c-9.33301 -43.333 -28.833 -74.833 -58.5 -94.5s-72.834 -29.5 -129.501 -29.5c-18.667 0 -33.667 1.66699 -45 5l24 111c3.33301 -2.66699 11.666 -4 24.999 -4c15.333 0 26.833 3.33301 34.5 10
s13.167 18 16.5 34l128 602h140z" />
    <glyph glyph-name="Kcommaaccent" unicode="&#x136;" horiz-adv-x="722" 
d="M302 -73l122.001 0.000976562l-23 -102c-16.667 -75.333 -66.334 -117 -149.001 -125l10 46c50.667 9.33301 79 35.666 85 78.999h-67zM274.001 234.001l-50 -234h-150l155 729h150l-68 -320l354 320h178l-361 -319l235 -410h-179l-173 314z" />
    <glyph glyph-name="kcommaaccent" unicode="&#x137;" horiz-adv-x="556" 
d="M212 -73l122.001 0.000976562l-23 -102c-16.667 -75.333 -66.334 -117 -149.001 -125l10 46c50.667 9.33301 79 35.666 85 78.999h-67zM354.001 729.001l-85 -399l223 210h159l-232 -206l129 -334h-164l-79 239l-68 -62l-38 -177h-140l155 729h140z" />
    <glyph glyph-name="kgreenlandic" unicode="&#x138;" horiz-adv-x="529" 
d="M274 351l202 189h148l-266 -244l190 -296h-182l-125 198l-42 -198h-140l115 540h140z" />
    <glyph glyph-name="Lacute" unicode="&#x139;" horiz-adv-x="611" 
d="M566 937l-158 -150h-70l102 150h126zM385 729l-128 -604h349l-27 -125h-499l155 729h150z" />
    <glyph glyph-name="lacute" unicode="&#x13a;" horiz-adv-x="278" 
d="M362 729l-155 -729h-140l155 729h140zM461 937l-158 -150h-70l102 150h126z" />
    <glyph glyph-name="Lcommaaccent" unicode="&#x13b;" horiz-adv-x="611" 
d="M260 -73l122.001 0.000976562l-23 -102c-16.667 -75.333 -66.334 -117 -149.001 -125l10 46c50.667 9.33301 79 35.666 85 78.999h-67zM385.001 729.001l-128 -604h349l-27 -125h-499l155 729h150z" />
    <glyph glyph-name="lcommaaccent" unicode="&#x13c;" horiz-adv-x="278" 
d="M59 -73l122.001 0.000976562l-23 -102c-16.667 -75.333 -66.334 -117 -149.001 -125l10 46c50.667 9.33301 79 35.666 85 78.999h-67zM362.001 729.001l-155 -729h-140l155 729h140z" />
    <glyph glyph-name="Lcaron" unicode="&#x13d;" horiz-adv-x="611" 
d="M385 729l-128 -604h349l-27 -125h-499l155 729h150zM539 730l121.999 -0.000976562l-21 -96c-5.33301 -39.333 -22.666 -73.666 -51.999 -102.999s-63 -45.333 -101 -48l10 46c22 4 41 14.167 57 30.5s25.333 35.833 28 58.5h-67z" />
    <glyph glyph-name="lcaron" unicode="&#x13e;" horiz-adv-x="444" 
d="M362 729l-155 -729h-140l155 729h140zM441 730l121.999 -0.000976562l-21 -96c-5.33301 -39.333 -22.666 -73.666 -51.999 -102.999s-63 -45.333 -101 -48l10 46c22 4 41 14.167 57 30.5s25.333 35.833 28 58.5h-67z" />
    <glyph glyph-name="Ldot" unicode="&#x13f;" horiz-adv-x="611" 
d="M553 414l-22 -100h-105l22 100h105zM385 729l-128 -604h349l-27 -125h-499l155 729h150z" />
    <glyph glyph-name="ldot" unicode="&#x140;" horiz-adv-x="556" 
d="M518 394l-22 -100h-105l22 100h105zM362 729l-155 -729h-140l155 729h140z" />
    <glyph glyph-name="Lslash" unicode="&#x141;" horiz-adv-x="611" 
d="M338 421l187 110l-20 -94l-187 -110l-43 -202h349l-27 -125h-499l56 262l-100 -61l20 94l100 61l79 373h150z" />
    <glyph glyph-name="lslash" unicode="&#x142;" horiz-adv-x="278" 
d="M296 435l76 45l-17 -82l-76 -45l-75 -353h-140l62 294l-76 -48l17 83l76 47l76 353h140z" />
    <glyph glyph-name="Nacute" unicode="&#x143;" horiz-adv-x="722" 
d="M711 937l-158 -150h-70l102 150h126zM816 729l-155 -729h-148l-192 523l-111 -523h-142l155 729h150l192 -515l109 515h142z" />
    <glyph glyph-name="nacute" unicode="&#x144;" horiz-adv-x="611" 
d="M178 540h139.996l-18 -82c26.667 32 54.334 55.167 83.001 69.5s61.667 21.5 99 21.5c44.667 0 80.334 -12 107.001 -36s40 -56 40 -96c0 -18 -2 -36.333 -6 -55l-77 -362h-140l67 313c4 22 6 38.333 6 49c0 50 -24.667 75 -74 75
c-33.333 0 -62.166 -11.833 -86.499 -35.5s-41.166 -56.167 -50.499 -97.5l-65 -304h-140zM599.996 751l-158 -150h-70l102 150h126z" />
    <glyph glyph-name="Ncommaaccent" unicode="&#x145;" horiz-adv-x="722" 
d="M321 -73l122.001 0.000976562l-23 -102c-16.667 -75.333 -66.334 -117 -149.001 -125l10 46c50.667 9.33301 79 35.666 85 78.999h-67zM816.001 729.001l-155 -729h-148l-192 523l-111 -523h-142l155 729h150l192 -515l109 515h142z" />
    <glyph glyph-name="ncommaaccent" unicode="&#x146;" horiz-adv-x="611" 
d="M220 -73l122.001 0.000976562l-23 -102c-16.667 -75.333 -66.334 -117 -149.001 -125l10 46c50.667 9.33301 79 35.666 85 78.999h-67zM178.001 540.001h139.996l-18 -82c26.667 32 54.334 55.167 83.001 69.5s61.667 21.5 99 21.5c44.667 0 80.334 -12 107.001 -36
s40 -56 40 -96c0 -18 -2 -36.333 -6 -55l-77 -362h-140l67 313c4 22 6 38.333 6 49c0 50 -24.667 75 -74 75c-33.333 0 -62.166 -11.833 -86.499 -35.5s-41.166 -56.167 -50.499 -97.5l-65 -304h-140z" />
    <glyph glyph-name="Ncaron" unicode="&#x147;" horiz-adv-x="722" 
d="M583 784h-108l-71 147h78l61 -97l103 97h76zM816 729l-155 -729h-148l-192 523l-111 -523h-142l155 729h150l192 -515l109 515h142z" />
    <glyph glyph-name="ncaron" unicode="&#x148;" horiz-adv-x="611" 
d="M178 540h139.996l-18 -82c26.667 32 54.334 55.167 83.001 69.5s61.667 21.5 99 21.5c44.667 0 80.334 -12 107.001 -36s40 -56 40 -96c0 -18 -2 -36.333 -6 -55l-77 -362h-140l67 313c4 22 6 38.333 6 49c0 50 -24.667 75 -74 75
c-33.333 0 -62.166 -11.833 -86.499 -35.5s-41.166 -56.167 -50.499 -97.5l-65 -304h-140zM457.996 610h-108l-71 147h78l61 -97l103 97h76z" />
    <glyph glyph-name="napostrophe" unicode="&#x149;" horiz-adv-x="656" 
d="M190 790l121.999 -0.000976562l-21 -96c-5.33301 -39.333 -22.666 -73.666 -51.999 -102.999s-63 -45.333 -101 -48l10 46c22 4 41 14.167 57 30.5s25.333 35.833 28 58.5h-67zM222.999 539.999h139.996l-18 -82c26.667 32 54.334 55.167 83.001 69.5
s61.667 21.5 99 21.5c44.667 0 80.334 -12 107.001 -36s40 -56 40 -96c0 -18 -2 -36.333 -6 -55l-77 -362h-140l67 313c4 22 6 38.333 6 49c0 50 -24.667 75 -74 75c-33.333 0 -62.166 -11.833 -86.499 -35.5s-41.166 -56.167 -50.499 -97.5l-65 -304h-140z" />
    <glyph glyph-name="Eng" unicode="&#x14a;" horiz-adv-x="720" 
d="M425 109c33.333 0 66.167 21.499 98.5 64.499s57.833 93.667 76.5 152s28 111.833 28 160.5c0 30 -4.33301 54.5 -13 73.5s-21.167 32.167 -37.5 39.5s-30.5 12 -42.5 14s-27.333 3 -46 3c-44 0 -84.667 -16.333 -122 -49s-61.666 -75.334 -72.999 -128.001l-93 -439
h-150l155 729h150l-16 -77c29.333 34.667 59.5 58.167 90.5 70.5s67.833 18.5 110.5 18.5c24 0 49.167 -4.66699 75.5 -14s52.166 -23.166 77.499 -41.499s46.166 -43.833 62.499 -76.5s24.5 -69.667 24.5 -111c0 -25.333 -2.66699 -50 -8 -74
c-32.667 -153.333 -81 -265 -145 -335s-137.667 -105 -221 -105c-14 0 -27.5 0.833008 -40.5 2.5s-22.833 3.33398 -29.5 5.00098s-13.167 3.5 -19.5 5.5s-10.166 3 -11.499 3l26 123c2 0 13.5 -2.33301 34.5 -7s40.5 -7 58.5 -7z" />
    <glyph glyph-name="eng" unicode="&#x14b;" horiz-adv-x="611" 
d="M178 540h139.998l-18 -82c26.667 32 54.334 55.167 83.001 69.5s61.667 21.5 99 21.5c44.667 0 80.334 -12 107.001 -36s40 -56 40 -96c0 -18 -2 -36.333 -6 -55l-98 -456c-9.33301 -43.333 -28.833 -74.833 -58.5 -94.5s-72.834 -29.5 -129.501 -29.5
c-18 0 -33 1.66699 -45 5l24 111c3.33301 -2.66699 11.666 -4 24.999 -4c15.333 0 26.833 3.33301 34.5 10s13.167 18 16.5 34l81 375c4 22 6 38.333 6 49c0 50 -24.667 75 -74 75c-33.333 0 -62.166 -11.833 -86.499 -35.5s-41.166 -56.167 -50.499 -97.5l-65 -304h-140z
" />
    <glyph glyph-name="Omacron" unicode="&#x14c;" horiz-adv-x="778" 
d="M715 881l-17 -80h-300l17 80h300zM538 741c91.333 0 162.501 -25.168 213.501 -75.501s76.5 -120.5 76.5 -210.5c0 -41.333 -5.5 -83.5 -16.5 -126.5s-28.5 -85.667 -52.5 -128s-52.5 -80 -85.5 -113s-73.667 -59.667 -122 -80s-100.5 -30.5 -156.5 -30.5
c-89.333 0 -159.833 25.5 -211.5 76.5s-77.5 120.167 -77.5 207.5c0 39.333 5.5 80.5 16.5 123.5s28.5 85.833 52.5 128.5s52.5 80.834 85.5 114.501s73.667 61 122 82s100.166 31.5 155.499 31.5zM419.001 104.999c34.667 0 66.333 6.49902 95 19.499s52 30.333 70 52
s33.667 44.834 47 69.501s23.166 50 29.499 76s11 48.333 14 67s4.5 34.667 4.5 48c0 55.333 -14.167 98.5 -42.5 129.5s-67.5 46.5 -117.5 46.5c-34.667 0 -66.5 -6.5 -95.5 -19.5s-52.667 -30.167 -71 -51.5s-34.166 -44.166 -47.499 -68.499s-23.5 -49.5 -30.5 -75.5
s-12 -48.5 -15 -67.5s-4.5 -35.167 -4.5 -48.5c0 -54.667 14.667 -97.834 44 -129.501s69.333 -47.5 120 -47.5z" />
    <glyph glyph-name="omacron" unicode="&#x14d;" horiz-adv-x="611" 
d="M595 722l-17 -80h-300l17 80h300zM82 177c0 103.333 30.5 191.166 91.5 263.499s140.833 108.5 239.5 108.5c68.667 0 122.667 -17.833 162 -53.5s59 -84.5 59 -146.5c0 -105.333 -31 -193.666 -93 -264.999s-142.667 -107 -242 -107c-66 0 -118.667 18.167 -158 54.5
s-59 84.833 -59 145.5zM324 89c31.333 0 58.6689 9.16797 82.002 27.501s40.666 41 51.999 68s19.666 52.167 24.999 75.5s8 43.333 8 60c0 35.333 -9 63.666 -27 84.999s-42.333 32 -73 32c-45.333 0 -84.333 -22.833 -117 -68.5s-49 -100.167 -49 -163.5
c0 -35.333 9 -63.5 27 -84.5s42 -31.5 72 -31.5z" />
    <glyph glyph-name="Obreve" unicode="&#x14e;" horiz-adv-x="778" 
d="M683 943h41.999c-7.33301 -41.333 -26.166 -75.5 -56.499 -102.5s-65.166 -40.5 -104.499 -40.5c-31.333 0 -56.833 9.66699 -76.5 29s-29.5 44.333 -29.5 75c0 11.333 2 24.333 6 39h42v-8c0 -18 6.5 -32 19.5 -42s31.167 -15 54.5 -15
c51.333 0 85.666 21.667 102.999 65zM537.999 741c91.333 0 162.501 -25.168 213.501 -75.501s76.5 -120.5 76.5 -210.5c0 -41.333 -5.5 -83.5 -16.5 -126.5s-28.5 -85.667 -52.5 -128s-52.5 -80 -85.5 -113s-73.667 -59.667 -122 -80s-100.5 -30.5 -156.5 -30.5
c-89.333 0 -159.833 25.5 -211.5 76.5s-77.5 120.167 -77.5 207.5c0 39.333 5.5 80.5 16.5 123.5s28.5 85.833 52.5 128.5s52.5 80.834 85.5 114.501s73.667 61 122 82s100.166 31.5 155.499 31.5zM419 104.999c34.667 0 66.333 6.49902 95 19.499s52 30.333 70 52
s33.667 44.834 47 69.501s23.166 50 29.499 76s11 48.333 14 67s4.5 34.667 4.5 48c0 55.333 -14.167 98.5 -42.5 129.5s-67.5 46.5 -117.5 46.5c-34.667 0 -66.5 -6.5 -95.5 -19.5s-52.667 -30.167 -71 -51.5s-34.166 -44.166 -47.499 -68.499s-23.5 -49.5 -30.5 -75.5
s-12 -48.5 -15 -67.5s-4.5 -35.167 -4.5 -48.5c0 -54.667 14.667 -97.834 44 -129.501s69.333 -47.5 120 -47.5z" />
    <glyph glyph-name="obreve" unicode="&#x14f;" horiz-adv-x="611" 
d="M544 751h41.999c-7.33301 -41.333 -26.166 -75.5 -56.499 -102.5s-65.166 -40.5 -104.499 -40.5c-31.333 0 -56.833 9.66699 -76.5 29s-29.5 44.333 -29.5 75c0 11.333 2 24.333 6 39h42v-8c0 -18 6.5 -32 19.5 -42s31.167 -15 54.5 -15
c51.333 0 85.666 21.667 102.999 65zM81.999 177c0 103.333 30.5 191.166 91.5 263.499s140.833 108.5 239.5 108.5c68.667 0 122.667 -17.833 162 -53.5s59 -84.5 59 -146.5c0 -105.333 -31 -193.666 -93 -264.999s-142.667 -107 -242 -107
c-66 0 -118.667 18.167 -158 54.5s-59 84.833 -59 145.5zM323.999 89c31.333 0 58.6689 9.16797 82.002 27.501s40.666 41 51.999 68s19.666 52.167 24.999 75.5s8 43.333 8 60c0 35.333 -9 63.666 -27 84.999s-42.333 32 -73 32c-45.333 0 -84.333 -22.833 -117 -68.5
s-49 -100.167 -49 -163.5c0 -35.333 9 -63.5 27 -84.5s42 -31.5 72 -31.5z" />
    <glyph glyph-name="Ohungarumlaut" unicode="&#x150;" horiz-adv-x="778" 
d="M630 919l-158 -147h-70l102 147h126zM818 919l-158 -147h-70l102 147h126zM538 741c91.333 0 162.501 -25.168 213.501 -75.501s76.5 -120.5 76.5 -210.5c0 -41.333 -5.5 -83.5 -16.5 -126.5s-28.5 -85.667 -52.5 -128s-52.5 -80 -85.5 -113s-73.667 -59.667 -122 -80
s-100.5 -30.5 -156.5 -30.5c-89.333 0 -159.833 25.5 -211.5 76.5s-77.5 120.167 -77.5 207.5c0 39.333 5.5 80.5 16.5 123.5s28.5 85.833 52.5 128.5s52.5 80.834 85.5 114.501s73.667 61 122 82s100.166 31.5 155.499 31.5zM419.001 104.999
c34.667 0 66.333 6.49902 95 19.499s52 30.333 70 52s33.667 44.834 47 69.501s23.166 50 29.499 76s11 48.333 14 67s4.5 34.667 4.5 48c0 55.333 -14.167 98.5 -42.5 129.5s-67.5 46.5 -117.5 46.5c-34.667 0 -66.5 -6.5 -95.5 -19.5s-52.667 -30.167 -71 -51.5
s-34.166 -44.166 -47.499 -68.499s-23.5 -49.5 -30.5 -75.5s-12 -48.5 -15 -67.5s-4.5 -35.167 -4.5 -48.5c0 -54.667 14.667 -97.834 44 -129.501s69.333 -47.5 120 -47.5z" />
    <glyph glyph-name="ohungarumlaut" unicode="&#x151;" horiz-adv-x="611" 
d="M515 757l-158 -147h-70l102 147h126zM703 757l-158 -147h-70l102 147h126zM82 177c0 103.333 30.5 191.166 91.5 263.499s140.833 108.5 239.5 108.5c68.667 0 122.667 -17.833 162 -53.5s59 -84.5 59 -146.5c0 -105.333 -31 -193.666 -93 -264.999
s-142.667 -107 -242 -107c-66 0 -118.667 18.167 -158 54.5s-59 84.833 -59 145.5zM324 89c31.333 0 58.6689 9.16797 82.002 27.501s40.666 41 51.999 68s19.666 52.167 24.999 75.5s8 43.333 8 60c0 35.333 -9 63.666 -27 84.999s-42.333 32 -73 32
c-45.333 0 -84.333 -22.833 -117 -68.5s-49 -100.167 -49 -163.5c0 -35.333 9 -63.5 27 -84.5s42 -31.5 72 -31.5z" />
    <glyph glyph-name="OE" unicode="&#x152;" horiz-adv-x="1000" 
d="M692 314l-40 -189h345l-26 -125h-490l12 59c-28 -30 -54.5 -51.167 -79.5 -63.5s-54.167 -18.5 -87.5 -18.5c-70.667 0 -127.667 24.5 -171 73.5s-65 113.833 -65 194.5c0 66 12.833 133.333 38.5 202s59.5 126 101.5 172c73.333 81.333 157.333 122 252 122
c32.667 0 60 -4.83301 82 -14.5s42.333 -26.167 61 -49.5l11 52h471l-27 -125h-326l-35 -165h298l-27 -125h-298zM482 613c-36.667 0 -69.834 -9.3291 -99.501 -27.9961s-53.167 -41.334 -70.5 -68.001s-31.666 -56.334 -42.999 -89.001s-19.166 -61.834 -23.499 -87.501
s-6.5 -47.834 -6.5 -66.501c0 -53.333 12.667 -94.833 38 -124.5s60.666 -44.5 105.999 -44.5c50 0 93.333 24.333 130 73l77 362c-18 48.667 -54 73 -108 73z" />
    <glyph glyph-name="oe" unicode="&#x153;" horiz-adv-x="962" 
d="M789 549c63.333 0 113.833 -18.8301 151.5 -56.4971s56.5 -84.834 56.5 -141.501c0 -38 -6 -79.667 -18 -125h-362c-4.66699 -20 -7 -37.333 -7 -52c0 -25.333 8.83301 -45.833 26.5 -61.5s40.834 -23.5 69.501 -23.5c24.667 0 47.334 5.66699 68.001 17
s36 26.666 46 45.999h138c-26.667 -53.333 -65.334 -95.833 -116.001 -127.5s-105.667 -47.5 -165 -47.5c-36.667 0 -70.334 6.66699 -101.001 20s-53 31 -67 53c-55.333 -48.667 -125.333 -73 -210 -73c-67.333 0 -120.333 17.833 -159 53.5s-58 84.167 -58 145.5
c0 101.333 30.667 188.833 92 262.5s141.333 110.5 240 110.5c39.333 0 74.833 -6.33301 106.5 -19s56.167 -30.334 73.5 -53.001c49.333 48 114.333 72 195 72zM324 89.0029c31.333 0 58.6689 9.16797 82.002 27.501s40.666 41 51.999 68s19.666 52.167 24.999 75.5
s8 43.333 8 60c0 35.333 -9 63.666 -27 84.999s-42.333 32 -73 32c-45.333 0 -84.333 -22.833 -117 -68.5s-49 -100.167 -49 -163.5c0 -35.333 9 -63.5 27 -84.5s42 -31.5 72 -31.5zM854.003 319.004v27.999c0 28.667 -7.5 50.834 -22.5 66.501s-35.833 23.5 -62.5 23.5
c-66 0 -109.667 -39.333 -131 -118h216z" />
    <glyph glyph-name="Racute" unicode="&#x154;" horiz-adv-x="722" 
d="M664 937l-158 -150h-70l102 150h126zM510 41c0 22.667 6.33301 57.9971 19 105.997s19 77 19 87c0 36.667 -28.333 55 -85 55h-172l-61 -289h-150l155 729h377c32.667 0 61 -5.16699 85 -15.5s42 -23.5 54 -39.5s20.667 -32 26 -48s8 -31.667 8 -47
c0 -27.333 -4.5 -53 -13.5 -77s-19.167 -43.5 -30.5 -58.5s-26.166 -29.5 -44.499 -43.5s-32.333 -23.667 -42 -29s-21.834 -11.666 -36.501 -18.999c52 -17.333 78 -44.666 78 -81.999c0 -22.667 -5.16699 -60.334 -15.5 -113.001s-15.5 -84.667 -15.5 -96
c0 -13.333 6 -24.666 18 -33.999l-6 -27h-159c-5.33301 16.667 -8 30.334 -8 41.001zM636 533.997c0 46.667 -36.667 70.002 -110 70.002h-168l-40 -190h181c26.667 0 49.5 4.16699 68.5 12.5s33.167 19.166 42.5 32.499s16 26.166 20 38.499s6 24.5 6 36.5z" />
    <glyph glyph-name="racute" unicode="&#x155;" horiz-adv-x="389" 
d="M515 753l-158 -150h-70l102 150h126zM178 540h140l-23 -106c23.333 36.667 50.333 65 81 85s62 30 94 30c6 0 11.667 -0.333008 17 -1l-30 -142c-16 2.66699 -30.333 4 -43 4c-82.667 0 -132.667 -41 -150 -123l-61 -287h-140z" />
    <glyph glyph-name="Rcommaaccent" unicode="&#x156;" horiz-adv-x="722" 
d="M302 -73l122.001 0.000976562l-23 -102c-16.667 -75.333 -66.334 -117 -149.001 -125l10 46c50.667 9.33301 79 35.666 85 78.999h-67zM510.001 41.001c0 22.667 6.33301 57.9971 19 105.997s19 77 19 87c0 36.667 -28.333 55 -85 55h-172l-61 -289h-150l155 729h377
c32.667 0 61 -5.16699 85 -15.5s42 -23.5 54 -39.5s20.667 -32 26 -48s8 -31.667 8 -47c0 -27.333 -4.5 -53 -13.5 -77s-19.167 -43.5 -30.5 -58.5s-26.166 -29.5 -44.499 -43.5s-32.333 -23.667 -42 -29s-21.834 -11.666 -36.501 -18.999c52 -17.333 78 -44.666 78 -81.999
c0 -22.667 -5.16699 -60.334 -15.5 -113.001s-15.5 -84.667 -15.5 -96c0 -13.333 6 -24.666 18 -33.999l-6 -27h-159c-5.33301 16.667 -8 30.334 -8 41.001zM636.001 533.998c0 46.667 -36.667 70.002 -110 70.002h-168l-40 -190h181c26.667 0 49.5 4.16699 68.5 12.5
s33.167 19.166 42.5 32.499s16 26.166 20 38.499s6 24.5 6 36.5z" />
    <glyph glyph-name="rcommaaccent" unicode="&#x157;" horiz-adv-x="389" 
d="M65 -73l122.001 0.000976562l-23 -102c-16.667 -75.333 -66.334 -117 -149.001 -125l10 46c50.667 9.33301 79 35.666 85 78.999h-67zM178.001 540.001h140l-23 -106c23.333 36.667 50.333 65 81 85s62 30 94 30c6 0 11.667 -0.333008 17 -1l-30 -142
c-16 2.66699 -30.333 4 -43 4c-82.667 0 -132.667 -41 -150 -123l-61 -287h-140z" />
    <glyph glyph-name="Rcaron" unicode="&#x158;" horiz-adv-x="722" 
d="M510 41c0 22.667 6.33301 57.9971 19 105.997s19 77 19 87c0 36.667 -28.333 55 -85 55h-172l-61 -289h-150l155 729h377c32.667 0 61 -5.16699 85 -15.5s42 -23.5 54 -39.5s20.667 -32 26 -48s8 -31.667 8 -47c0 -27.333 -4.5 -53 -13.5 -77s-19.167 -43.5 -30.5 -58.5
s-26.166 -29.5 -44.499 -43.5s-32.333 -23.667 -42 -29s-21.834 -11.666 -36.501 -18.999c52 -17.333 78 -44.666 78 -81.999c0 -22.667 -5.16699 -60.334 -15.5 -113.001s-15.5 -84.667 -15.5 -96c0 -13.333 6 -24.666 18 -33.999l-6 -27h-159
c-5.33301 16.667 -8 30.334 -8 41.001zM636 533.997c0 46.667 -36.667 70.002 -110 70.002h-168l-40 -190h181c26.667 0 49.5 4.16699 68.5 12.5s33.167 19.166 42.5 32.499s16 26.166 20 38.499s6 24.5 6 36.5zM547 783.999h-108l-71 147h78l61 -97l103 97h76z" />
    <glyph glyph-name="rcaron" unicode="&#x159;" horiz-adv-x="389" 
d="M178 540h140l-23 -106c23.333 36.667 50.333 65 81 85s62 30 94 30c6 0 11.667 -0.333008 17 -1l-30 -142c-16 2.66699 -30.333 4 -43 4c-82.667 0 -132.667 -41 -150 -123l-61 -287h-140zM395 610h-108l-71 147h78l61 -97l103 97h76z" />
    <glyph glyph-name="Sacute" unicode="&#x15a;" horiz-adv-x="667" 
d="M665 929l-158 -150h-70l102 150h126zM151 472c0 76.667 29.332 140.672 87.999 192.005s136.667 77 234 77c79.333 0 141.166 -15.167 185.499 -45.5s66.5 -72.5 66.5 -126.5c0 -16.667 -2.66699 -37.334 -8 -62.001h-140c1.33301 12 2 19.667 2 23
c0 55.333 -44 83 -132 83c-45.333 0 -81.166 -9.33301 -107.499 -28s-39.5 -44 -39.5 -76c0 -18.667 8.33301 -33.167 25 -43.5s48.667 -20.166 96 -29.499l109 -22c51.333 -10 90.333 -27.667 117 -53s40 -57.333 40 -96c0 -24 -3 -48 -9 -72s-17 -49.333 -33 -76
s-36.333 -50 -61 -70s-57.667 -36.667 -99 -50s-88 -20 -140 -20c-51.333 0 -95.5 6.16699 -132.5 18.5s-64.833 28.666 -83.5 48.999s-32.167 41.166 -40.5 62.499s-12.5 43.666 -12.5 66.999c0 11.333 1.33301 26 4 44h146c-1.33301 -12 -2 -19.667 -2 -23
c0 -28.667 12.5 -50.834 37.5 -66.501s60.167 -23.5 105.5 -23.5c52 0 93.5 10.167 124.5 30.5s46.5 47.166 46.5 80.499c0 23.333 -8.66699 41 -26 53s-48.666 22.667 -93.999 32l-98 20c-59.333 12 -102.333 29.833 -129 53.5s-40 56.167 -40 97.5z" />
    <glyph glyph-name="sacute" unicode="&#x15b;" horiz-adv-x="556" 
d="M127 345c0 58.667 24.167 107.334 72.5 146.001s110.833 58 187.5 58c62.667 0 112 -12.833 148 -38.5s54 -61.167 54 -106.5c0 -10.667 -1.66699 -23.334 -5 -38.001h-135c2 9.33301 3 15.666 3 18.999c0 16 -7.83301 28.667 -23.5 38s-37.167 14 -64.5 14
c-26.667 0 -48 -4.83301 -64 -14.5s-24 -22.5 -24 -38.5c0 -10 4.5 -18.167 13.5 -24.5s26.167 -13.166 51.5 -20.499l96 -28c81.333 -24.667 122 -66 122 -124c0 -64 -25.167 -115 -75.5 -153s-117.833 -57 -202.5 -57c-42 0 -78.333 5 -109 15s-53.5 23.167 -68.5 39.5
s-26 32.333 -33 48s-10.5 31.5 -10.5 47.5c0 6.66699 1.33301 16.667 4 30h137c2.66699 -45.333 38 -68 106 -68c30.667 0 55.667 5.16699 75 15.5s29 23.5 29 39.5c0 11.333 -4.83301 20.333 -14.5 27s-30.167 15 -61.5 25l-79 25c-44 14.667 -76.5 32 -97.5 52
s-31.5 44 -31.5 72zM563 757l-158 -150h-70l102 150h126z" />
    <glyph glyph-name="Scircumflex" unicode="&#x15c;" horiz-adv-x="667" 
d="M468 932h108l71 -147h-78l-61 97l-103 -97h-76zM151 472c0 76.667 29.332 140.672 87.999 192.005s136.667 77 234 77c79.333 0 141.166 -15.167 185.499 -45.5s66.5 -72.5 66.5 -126.5c0 -16.667 -2.66699 -37.334 -8 -62.001h-140c1.33301 12 2 19.667 2 23
c0 55.333 -44 83 -132 83c-45.333 0 -81.166 -9.33301 -107.499 -28s-39.5 -44 -39.5 -76c0 -18.667 8.33301 -33.167 25 -43.5s48.667 -20.166 96 -29.499l109 -22c51.333 -10 90.333 -27.667 117 -53s40 -57.333 40 -96c0 -24 -3 -48 -9 -72s-17 -49.333 -33 -76
s-36.333 -50 -61 -70s-57.667 -36.667 -99 -50s-88 -20 -140 -20c-51.333 0 -95.5 6.16699 -132.5 18.5s-64.833 28.666 -83.5 48.999s-32.167 41.166 -40.5 62.499s-12.5 43.666 -12.5 66.999c0 11.333 1.33301 26 4 44h146c-1.33301 -12 -2 -19.667 -2 -23
c0 -28.667 12.5 -50.834 37.5 -66.501s60.167 -23.5 105.5 -23.5c52 0 93.5 10.167 124.5 30.5s46.5 47.166 46.5 80.499c0 23.333 -8.66699 41 -26 53s-48.666 22.667 -93.999 32l-98 20c-59.333 12 -102.333 29.833 -129 53.5s-40 56.167 -40 97.5z" />
    <glyph glyph-name="scircumflex" unicode="&#x15d;" horiz-adv-x="556" 
d="M391 787h108l71 -147h-78l-61 97l-103 -97h-76zM127 345c0 58.667 24.167 107.334 72.5 146.001s110.833 58 187.5 58c62.667 0 112 -12.833 148 -38.5s54 -61.167 54 -106.5c0 -10.667 -1.66699 -23.334 -5 -38.001h-135c2 9.33301 3 15.666 3 18.999
c0 16 -7.83301 28.667 -23.5 38s-37.167 14 -64.5 14c-26.667 0 -48 -4.83301 -64 -14.5s-24 -22.5 -24 -38.5c0 -10 4.5 -18.167 13.5 -24.5s26.167 -13.166 51.5 -20.499l96 -28c81.333 -24.667 122 -66 122 -124c0 -64 -25.167 -115 -75.5 -153s-117.833 -57 -202.5 -57
c-42 0 -78.333 5 -109 15s-53.5 23.167 -68.5 39.5s-26 32.333 -33 48s-10.5 31.5 -10.5 47.5c0 6.66699 1.33301 16.667 4 30h137c2.66699 -45.333 38 -68 106 -68c30.667 0 55.667 5.16699 75 15.5s29 23.5 29 39.5c0 11.333 -4.83301 20.333 -14.5 27
s-30.167 15 -61.5 25l-79 25c-44 14.667 -76.5 32 -97.5 52s-31.5 44 -31.5 72z" />
    <glyph glyph-name="Scedilla" unicode="&#x15e;" horiz-adv-x="667" 
d="M151 472c0 76.667 29.332 140.669 87.999 192.002s136.667 77 234 77c79.333 0 141.166 -15.167 185.499 -45.5s66.5 -72.5 66.5 -126.5c0 -16.667 -2.66699 -37.334 -8 -62.001h-140c1.33301 12 2 19.667 2 23c0 55.333 -44 83 -132 83
c-45.333 0 -81.166 -9.33301 -107.499 -28s-39.5 -44 -39.5 -76c0 -18.667 8.33301 -33.167 25 -43.5s48.667 -20.166 96 -29.499l109 -22c51.333 -10 90.333 -27.667 117 -53s40 -57.333 40 -96c0 -24.667 -2.83301 -49 -8.5 -73s-16.5 -49.167 -32.5 -75.5
s-36.167 -49.5 -60.5 -69.5s-57 -36.5 -98 -49.5s-87.833 -19.833 -140.5 -20.5l-27 -39c14.667 4 29.334 6 44.001 6c19.333 0 34.666 -5 45.999 -15s17 -24 17 -42c0 -32.667 -13.667 -58.667 -41 -78s-63.666 -29 -108.999 -29c-39.333 0 -83.666 9.66699 -132.999 29
l30 51c40.667 -20 73.667 -30 99 -30c18.667 0 34.5 4.33301 47.5 13s19.5 19 19.5 31c0 10 -4 18 -12 24s-18.667 9 -32 9c-14.667 0 -32.334 -4.33301 -53.001 -13l55 84c-74.667 11.333 -130.334 32.333 -167.001 63s-55 75 -55 133c0 11.333 1.33301 26 4 44h146
c-1.33301 -12 -2 -19.333 -2 -22c0 -28.667 12.5 -51 37.5 -67s60.167 -24 105.5 -24c52 0 93.5 10.167 124.5 30.5s46.5 47.166 46.5 80.499c0 23.333 -8.66699 41.166 -26 53.499s-48.666 22.833 -93.999 31.5l-98 20c-59.333 12 -102.333 29.833 -129 53.5
s-40 56.167 -40 97.5z" />
    <glyph glyph-name="scedilla" unicode="&#x15f;" horiz-adv-x="556" 
d="M127 345c0 58.667 24.167 107.334 72.5 146.001s110.833 58 187.5 58c62.667 0 112 -12.833 148 -38.5s54 -61.167 54 -106.5c0 -10.667 -1.66699 -23.334 -5 -38.001h-135c2 9.33301 3 15.666 3 18.999c0 16 -7.83301 28.667 -23.5 38s-37.167 14 -64.5 14
c-26.667 0 -48 -4.83301 -64 -14.5s-24 -22.5 -24 -38.5c0 -10 4.5 -18.167 13.5 -24.5s26.167 -13.166 51.5 -20.499l96 -28c81.333 -24.667 122 -66 122 -124c0 -63.333 -24.5 -114 -73.5 -152s-114.833 -57 -197.5 -57l-26 -40c14.667 4 29 6 43 6
c19.333 0 34.666 -5 45.999 -15s17 -24 17 -42c0 -32.667 -13.667 -58.667 -41 -78s-63.666 -29 -108.999 -29c-38.667 0 -83 9.66699 -133 29l30 51c40.667 -20 73.334 -30 98.001 -30c18.667 0 34.667 4.33301 48 13s20 19 20 31c0 10 -4 18 -12 24s-18.667 9 -32 9
c-14.667 0 -32.334 -4.33301 -53.001 -13l54 85c-10.667 0 -25.167 2.66699 -43.5 8s-37.833 13.333 -58.5 24s-38.5 26.167 -53.5 46.5s-22.5 43.5 -22.5 69.5c0 7.33301 1.33301 17.333 4 30h137c2.66699 -45.333 38 -68 106 -68c30.667 0 55.667 5.16699 75 15.5
s29 23.5 29 39.5c0 11.333 -4.83301 20.333 -14.5 27s-30.167 15 -61.5 25l-79 25c-44 14.667 -76.5 32 -97.5 52s-31.5 44 -31.5 72z" />
    <glyph glyph-name="Scaron" unicode="&#x160;" horiz-adv-x="667" 
d="M534 784h-108l-71 147h78l61 -97l103 97h76zM151 472c0 76.667 29.332 140.672 87.999 192.005s136.667 77 234 77c79.333 0 141.166 -15.167 185.499 -45.5s66.5 -72.5 66.5 -126.5c0 -16.667 -2.66699 -37.334 -8 -62.001h-140c1.33301 12 2 19.667 2 23
c0 55.333 -44 83 -132 83c-45.333 0 -81.166 -9.33301 -107.499 -28s-39.5 -44 -39.5 -76c0 -18.667 8.33301 -33.167 25 -43.5s48.667 -20.166 96 -29.499l109 -22c51.333 -10 90.333 -27.667 117 -53s40 -57.333 40 -96c0 -24 -3 -48 -9 -72s-17 -49.333 -33 -76
s-36.333 -50 -61 -70s-57.667 -36.667 -99 -50s-88 -20 -140 -20c-51.333 0 -95.5 6.16699 -132.5 18.5s-64.833 28.666 -83.5 48.999s-32.167 41.166 -40.5 62.499s-12.5 43.666 -12.5 66.999c0 11.333 1.33301 26 4 44h146c-1.33301 -12 -2 -19.667 -2 -23
c0 -28.667 12.5 -50.834 37.5 -66.501s60.167 -23.5 105.5 -23.5c52 0 93.5 10.167 124.5 30.5s46.5 47.166 46.5 80.499c0 23.333 -8.66699 41 -26 53s-48.666 22.667 -93.999 32l-98 20c-59.333 12 -102.333 29.833 -129 53.5s-40 56.167 -40 97.5z" />
    <glyph glyph-name="scaron" unicode="&#x161;" horiz-adv-x="556" 
d="M127 345c0 58.667 24.167 107.334 72.5 146.001s110.833 58 187.5 58c62.667 0 112 -12.833 148 -38.5s54 -61.167 54 -106.5c0 -10.667 -1.66699 -23.334 -5 -38.001h-135c2 9.33301 3 15.666 3 18.999c0 16 -7.83301 28.667 -23.5 38s-37.167 14 -64.5 14
c-26.667 0 -48 -4.83301 -64 -14.5s-24 -22.5 -24 -38.5c0 -10 4.5 -18.167 13.5 -24.5s26.167 -13.166 51.5 -20.499l96 -28c81.333 -24.667 122 -66 122 -124c0 -64 -25.167 -115 -75.5 -153s-117.833 -57 -202.5 -57c-42 0 -78.333 5 -109 15s-53.5 23.167 -68.5 39.5
s-26 32.333 -33 48s-10.5 31.5 -10.5 47.5c0 6.66699 1.33301 16.667 4 30h137c2.66699 -45.333 38 -68 106 -68c30.667 0 55.667 5.16699 75 15.5s29 23.5 29 39.5c0 11.333 -4.83301 20.333 -14.5 27s-30.167 15 -61.5 25l-79 25c-44 14.667 -76.5 32 -97.5 52
s-31.5 44 -31.5 72zM458 610h-108l-71 147h78l61 -97l103 97h76z" />
    <glyph glyph-name="Tcedilla" unicode="&#x162;" horiz-adv-x="611" 
d="M514 604l-129.002 -604h-37l-40 -61c16 4 30.333 6 43 6c20 0 35.667 -5 47 -15s17 -24 17 -42c0 -32.667 -13.667 -58.667 -41 -78s-63.666 -29 -108.999 -29c-39.333 0 -83.666 9.66699 -132.999 29l30 51c40.667 -20 73.334 -30 98.001 -30
c18.667 0 34.667 4.33301 48 13s20 19 20 31c0 10 -4 18 -12 24s-18.667 9 -32 9c-14.667 0 -32.334 -4.33301 -53.001 -13l67 105h-63l129 604h-222l27 125h584l-27 -125h-212z" />
    <glyph glyph-name="tcedilla" unicode="&#x163;" horiz-adv-x="333" 
d="M414 529l-20.002 -93.001h-78l-62 -294c-4 -17.333 -6 -28.666 -6 -33.999c0 -16.667 12.667 -25 38 -25c8 0 19 1 33 3l-20 -98c-26 -7.33301 -54.333 -11 -85 -11h-9l-31 -47c16 4 30.333 6 43 6c20 0 35.667 -5 47 -15s17 -24 17 -42
c0 -32.667 -13.667 -58.667 -41 -78s-63.666 -29 -108.999 -29c-39.333 0 -83.666 9.66699 -132.999 29l30 51c40.667 -20 73.334 -30 98.001 -30c18.667 0 34.667 4.33301 48 13s20 19 20 31c0 10 -4 18 -12 24s-18.667 9 -32 9c-14.667 0 -32.334 -4.33301 -53.001 -13
l63 98c-39.333 12.667 -59 39 -59 79c0 11.333 1.66699 25 5 41l70 332h-69l20 93h69l31 145h140l-31 -145h78z" />
    <glyph glyph-name="Tcaron" unicode="&#x164;" horiz-adv-x="611" 
d="M514 604l-129 -604h-150l129 604h-222l27 125h584l-27 -125h-212zM530 775h-108l-71 147h78l61 -97l103 97h76z" />
    <glyph glyph-name="tcaron" unicode="&#x165;" horiz-adv-x="444" 
d="M478 790l121.999 -0.000976562l-21 -96c-5.33301 -39.333 -22.666 -73.666 -51.999 -102.999s-63 -45.333 -101 -48l10 46c22 4 41 14.167 57 30.5s25.333 35.833 28 58.5h-67zM413.999 528.999l-20 -93.001h-78l-62 -294c-4 -17.333 -6 -28.666 -6 -33.999
c0 -16.667 12.667 -25 38 -25c8 0 19 1 33 3l-20 -98c-26 -7.33301 -54.333 -11 -85 -11c-36.667 0 -64.667 7.5 -84 22.5s-29 36.167 -29 63.5c0 12 1.66699 25.667 5 41l70 332h-69l20 93h69l31 145h140l-31 -145h78z" />
    <glyph glyph-name="Tbar" unicode="&#x166;" horiz-adv-x="611" 
d="M534 357l-17 -80h-73l-59 -277h-150l59 277h-77l17 80h77l53 247h-222l27 125h584l-27 -125h-212l-53 -247h73z" />
    <glyph glyph-name="tbar" unicode="&#x167;" horiz-adv-x="404" 
d="M390 357l-17 -80.001h-91l-28 -135c-4 -17.333 -6 -28.666 -6 -33.999c0 -16.667 12.667 -25 38 -25c8 0 19 1 33 3l-20 -98c-26 -7.33301 -54.333 -11 -85 -11c-36.667 0 -64.667 7.5 -84 22.5s-29 36.167 -29 63.5c0 11.333 1.66699 25 5 41l36 173h-69l17 80h69l17 79
h-69l20 93h69l31 145h140l-31 -145h78l-20 -93h-78l-17 -79h91z" />
    <glyph glyph-name="Utilde" unicode="&#x168;" horiz-adv-x="722" 
d="M746 922c-12 -42 -29.833 -72.832 -53.5 -92.499s-50.167 -29.5 -79.5 -29.5c-18 0 -35 3.66699 -51 11l-50 25c-20 9.33301 -34.667 14 -44 14c-17.333 0 -34.333 -16 -51 -48h-54c11.333 37.333 27.5 66.166 48.5 86.499s45.167 30.5 72.5 30.5
c21.333 0 45 -5.66699 71 -17l50 -21c14 -6.66699 25 -10 33 -10c22 0 40 17 54 51h54zM659 729.001l149.997 0.000976562l-105 -494c-19.333 -88.667 -60.166 -153.834 -122.499 -195.501s-134.166 -62.5 -215.499 -62.5c-75.333 0 -135.333 17.167 -180 51.5
s-67 80.5 -67 138.5c0 24 3.66699 53.333 11 88l101 474h150l-105 -494c-3.33301 -18 -5 -33 -5 -45c0 -26.667 10.833 -47.5 32.5 -62.5s51.834 -22.5 90.501 -22.5c45.333 0 81 10.5 107 31.5s43.667 53.833 53 98.5z" />
    <glyph glyph-name="utilde" unicode="&#x169;" horiz-adv-x="611" 
d="M641 762c-12 -42 -29.833 -72.832 -53.5 -92.499s-50.167 -29.5 -79.5 -29.5c-18 0 -35 3.66699 -51 11l-50 25c-20 9.33301 -34.667 14 -44 14c-17.333 0 -34.333 -16 -51 -48h-54c11.333 37.333 27.5 66.166 48.5 86.499s45.167 30.5 72.5 30.5
c21.333 0 45 -5.66699 71 -17l50 -21c14 -6.66699 25 -10 33 -10c22 0 40 17 54 51h54zM541 0.000976562l-139.999 -0.000976562l15 68c-26.667 -32 -54.334 -55.167 -83.001 -69.5s-61.667 -21.5 -99 -21.5c-44 0 -79.333 12 -106 36s-40 56 -40 96c0 18 2 36.333 6 55
l80 376h140l-70 -327c-4 -23.333 -6 -39.666 -6 -48.999c0 -50 25.333 -75 76 -75c32.667 0 61 12 85 36s40.333 56.333 49 97l68 318h140z" />
    <glyph glyph-name="Umacron" unicode="&#x16a;" horiz-adv-x="722" 
d="M701 881l-17 -80h-300l17 80h300zM659 729l149.997 0.000976562l-105 -494c-19.333 -88.667 -60.166 -153.834 -122.499 -195.501s-134.166 -62.5 -215.499 -62.5c-75.333 0 -135.333 17.167 -180 51.5s-67 80.5 -67 138.5c0 24 3.66699 53.333 11 88l101 474h150
l-105 -494c-3.33301 -18 -5 -33 -5 -45c0 -26.667 10.833 -47.5 32.5 -62.5s51.834 -22.5 90.501 -22.5c45.333 0 81 10.5 107 31.5s43.667 53.833 53 98.5z" />
    <glyph glyph-name="umacron" unicode="&#x16b;" horiz-adv-x="611" 
d="M599 722l-17 -80h-300l17 80h300zM541 0l-139.999 -0.000976562l15 68c-26.667 -32 -54.334 -55.167 -83.001 -69.5s-61.667 -21.5 -99 -21.5c-44 0 -79.333 12 -106 36s-40 56 -40 96c0 18 2 36.333 6 55l80 376h140l-70 -327c-4 -23.333 -6 -39.666 -6 -48.999
c0 -50 25.333 -75 76 -75c32.667 0 61 12 85 36s40.333 56.333 49 97l68 318h140z" />
    <glyph glyph-name="Ubreve" unicode="&#x16c;" horiz-adv-x="722" 
d="M652 928h41.999c-7.33301 -41.333 -26.166 -75.5 -56.499 -102.5s-65.166 -40.5 -104.499 -40.5c-31.333 0 -56.833 9.66699 -76.5 29s-29.5 44.333 -29.5 75c0 11.333 2 24.333 6 39h42v-8c0 -18 6.5 -32 19.5 -42s31.167 -15 54.5 -15
c51.333 0 85.666 21.667 102.999 65zM658.999 729l149.997 0.000976562l-105 -494c-19.333 -88.667 -60.166 -153.834 -122.499 -195.501s-134.166 -62.5 -215.499 -62.5c-75.333 0 -135.333 17.167 -180 51.5s-67 80.5 -67 138.5c0 24 3.66699 53.333 11 88l101 474h150
l-105 -494c-3.33301 -18 -5 -33 -5 -45c0 -26.667 10.833 -47.5 32.5 -62.5s51.834 -22.5 90.501 -22.5c45.333 0 81 10.5 107 31.5s43.667 53.833 53 98.5z" />
    <glyph glyph-name="ubreve" unicode="&#x16d;" horiz-adv-x="611" 
d="M544 751h41.999c-7.33301 -41.333 -26.166 -75.5 -56.499 -102.5s-65.166 -40.5 -104.499 -40.5c-31.333 0 -56.833 9.66699 -76.5 29s-29.5 44.333 -29.5 75c0 11.333 2 24.333 6 39h42v-8c0 -18 6.5 -32 19.5 -42s31.167 -15 54.5 -15
c51.333 0 85.666 21.667 102.999 65zM540.999 0l-139.999 -0.000976562l15 68c-26.667 -32 -54.334 -55.167 -83.001 -69.5s-61.667 -21.5 -99 -21.5c-44 0 -79.333 12 -106 36s-40 56 -40 96c0 18 2 36.333 6 55l80 376h140l-70 -327c-4 -23.333 -6 -39.666 -6 -48.999
c0 -50 25.333 -75 76 -75c32.667 0 61 12 85 36s40.333 56.333 49 97l68 318h140z" />
    <glyph glyph-name="Uring" unicode="&#x16e;" horiz-adv-x="722" 
d="M564 953c20.667 0 37.834 -6.66699 51.501 -20s20.5 -30.333 20.5 -51c0 -28.667 -11.333 -54 -34 -76s-48.667 -33 -78 -33c-20.667 0 -37.834 6.66699 -51.501 20s-20.5 30.333 -20.5 51c0 28.667 11.333 54 34 76s48.667 33 78 33zM554 903
c-13.333 0 -25.501 -4.83203 -36.501 -14.499s-16.5 -20.834 -16.5 -33.501c0 -9.33301 3.16699 -17 9.5 -23s14.5 -9 24.5 -9c13.333 0 25.333 5 36 15s16 21.333 16 34c0 8.66699 -3.16699 16 -9.5 22s-14.166 9 -23.499 9zM658.999 729.001l149.997 0.000976562
l-105 -494c-19.333 -88.667 -60.166 -153.834 -122.499 -195.501s-134.166 -62.5 -215.499 -62.5c-75.333 0 -135.333 17.167 -180 51.5s-67 80.5 -67 138.5c0 24 3.66699 53.333 11 88l101 474h150l-105 -494c-3.33301 -18 -5 -33 -5 -45
c0 -26.667 10.833 -47.5 32.5 -62.5s51.834 -22.5 90.501 -22.5c45.333 0 81 10.5 107 31.5s43.667 53.833 53 98.5z" />
    <glyph glyph-name="uring" unicode="&#x16f;" horiz-adv-x="611" 
d="M463 759c20.667 0 37.834 -6.66699 51.501 -20s20.5 -30.333 20.5 -51c0 -28.667 -11.333 -54 -34 -76s-48.667 -33 -78 -33c-20.667 0 -37.834 6.66699 -51.501 20s-20.5 30.333 -20.5 51c0 28.667 11.333 54 34 76s48.667 33 78 33zM453 709
c-13.333 0 -25.501 -4.83203 -36.501 -14.499s-16.5 -20.834 -16.5 -33.501c0 -9.33301 3.16699 -17 9.5 -23s14.5 -9 24.5 -9c13.333 0 25.333 5 36 15s16 21.333 16 34c0 8.66699 -3.16699 16 -9.5 22s-14.166 9 -23.499 9zM540.999 0.000976562l-139.999 -0.000976562
l15 68c-26.667 -32 -54.334 -55.167 -83.001 -69.5s-61.667 -21.5 -99 -21.5c-44 0 -79.333 12 -106 36s-40 56 -40 96c0 18 2 36.333 6 55l80 376h140l-70 -327c-4 -23.333 -6 -39.666 -6 -48.999c0 -50 25.333 -75 76 -75c32.667 0 61 12 85 36s40.333 56.333 49 97
l68 318h140z" />
    <glyph glyph-name="Uhungarumlaut" unicode="&#x170;" horiz-adv-x="722" 
d="M659 729l149.997 0.000976562l-105 -494c-19.333 -88.667 -60.166 -153.834 -122.499 -195.501s-134.166 -62.5 -215.499 -62.5c-75.333 0 -135.333 17.167 -180 51.5s-67 80.5 -67 138.5c0 24 3.66699 53.333 11 88l101 474h150l-105 -494c-3.33301 -18 -5 -33 -5 -45
c0 -26.667 10.833 -47.5 32.5 -62.5s51.834 -22.5 90.501 -22.5c45.333 0 81 10.5 107 31.5s43.667 53.833 53 98.5zM632.997 918.001l-158 -147h-70l102 147h126zM820.997 918.001l-158 -147h-70l102 147h126z" />
    <glyph glyph-name="uhungarumlaut" unicode="&#x171;" horiz-adv-x="611" 
d="M541 0l-139.999 -0.000976562l15 68c-26.667 -32 -54.334 -55.167 -83.001 -69.5s-61.667 -21.5 -99 -21.5c-44 0 -79.333 12 -106 36s-40 56 -40 96c0 18 2 36.333 6 55l80 376h140l-70 -327c-4 -23.333 -6 -39.666 -6 -48.999c0 -50 25.333 -75 76 -75
c32.667 0 61 12 85 36s40.333 56.333 49 97l68 318h140zM523.001 756.999l-158 -147h-70l102 147h126zM711.001 756.999l-158 -147h-70l102 147h126z" />
    <glyph glyph-name="Uogonek" unicode="&#x172;" horiz-adv-x="722" 
d="M569 -172l-11 -52.001c-30 -6 -55.333 -9 -76 -9c-44.667 0 -79.167 6.66699 -103.5 20s-36.5 32 -36.5 56c0 20.667 4.66699 39.667 14 57s22.333 32 39 44s30.167 21 40.5 27s22.833 12.333 37.5 19c-43.333 -8.66699 -78.333 -13 -105 -13
c-76.667 0 -137.334 17 -182.001 51s-67 80.333 -67 139c0 24 3.66699 53.333 11 88l101 474h150l-105 -494c-3.33301 -18 -5 -33 -5 -45c0 -26.667 10.833 -47.5 32.5 -62.5s51.834 -22.5 90.501 -22.5c45.333 0 81 10.5 107 31.5s43.667 53.833 53 98.5l105 494h150
l-105 -494c-10.667 -45.333 -25.5 -83.5 -44.5 -114.5s-38 -53.5 -57 -67.5s-41.167 -31.333 -66.5 -52s-46 -42 -62 -64c-21.333 -29.333 -32 -54.666 -32 -75.999c0 -29.333 18.667 -44 56 -44c25.333 0 49 3.66699 71 11z" />
    <glyph glyph-name="uogonek" unicode="&#x173;" horiz-adv-x="611" 
d="M656 540l-114.999 -540.001c-83.333 -42.667 -125 -90 -125 -142c0 -27.333 17.667 -41 53 -41c22 0 44.667 3.66699 68 11l-11 -52c-28.667 -6 -52 -9 -70 -9c-92.667 0 -139 26.333 -139 79c0 58.667 49.667 110 149 154h-65l15 68
c-26.667 -32 -54.334 -55.167 -83.001 -69.5s-61.667 -21.5 -99 -21.5c-44 0 -79.333 12 -106 36s-40 56 -40 96c0 18 2 36.333 6 55l80 376h140l-70 -327c-4 -23.333 -6 -39.666 -6 -48.999c0 -50 25.333 -75 76 -75c32.667 0 61 12 85 36s40.333 56.333 49 97l68 318h140z
" />
    <glyph glyph-name="Wcircumflex" unicode="&#x174;" horiz-adv-x="944" 
d="M621 938h108l71 -147h-78l-61 97l-103 -97h-76zM730 0h-135l-4 555l-237 -555h-135l-51 729h159l-3 -546l224 546h158l-3 -548l225 548h159z" />
    <glyph glyph-name="wcircumflex" unicode="&#x175;" horiz-adv-x="778" 
d="M502 787h108l71 -147h-78l-61 97l-103 -97h-76zM617 0h-145l-5 380l-166 -380h-144l-37 540h145l5 -378l159 378h144v-378l163 378h145z" />
    <glyph glyph-name="Ycircumflex" unicode="&#x176;" horiz-adv-x="667" 
d="M484 929h108l71 -147h-78l-61 97l-103 -97h-76zM477 270l-58 -270h-150l58 270l-145 459h167l82 -315l207 315h167z" />
    <glyph glyph-name="ycircumflex" unicode="&#x177;" horiz-adv-x="556" 
d="M390 787h108l71 -147h-78l-61 97l-103 -97h-76zM509 540h144.002l-358 -638c-16.667 -31.333 -31.334 -53.333 -44.001 -66c-38 -36.667 -94.667 -55 -170 -55c-18 0 -32.667 1.33301 -44 4l23 109c7.33301 -1.33301 16.666 -2 27.999 -2
c34.667 0 62.167 8.33301 82.5 25s30.5 39.334 30.5 68.001c-8.66699 71.333 -22.167 171.166 -40.5 299.499l-36.5 255.5h154l36 -393z" />
    <glyph glyph-name="Ydieresis" unicode="&#x178;" horiz-adv-x="667" 
d="M688 921l-26 -120h-110l26 120h110zM492 921l-26 -120h-110l26 120h110zM477 270l-58 -270h-150l58 270l-145 459h167l82 -315l207 315h167z" />
    <glyph glyph-name="Zacute" unicode="&#x179;" horiz-adv-x="611" 
d="M617 937l-158 -150h-70l102 150h126zM733 729l-27 -125l-474 -479h373l-27 -125h-548l27 125l474 479h-373l27 125h548z" />
    <glyph glyph-name="zacute" unicode="&#x17a;" horiz-adv-x="500" 
d="M554 753l-158 -150h-70l102 150h126zM575 540l-24 -113l-332 -314h274l-24 -113h-448l24 113l334 314h-249l24 113h421z" />
    <glyph glyph-name="Zdotaccent" unicode="&#x17b;" horiz-adv-x="611" 
d="M733 729l-27 -125l-474 -479h373l-27 -125h-548l27 125l474 479h-373l27 125h548zM550 922l-26 -120h-110l26 120h110z" />
    <glyph glyph-name="zdotaccent" unicode="&#x17c;" horiz-adv-x="500" 
d="M464 742l-26 -120h-110l26 120h110zM575 540l-24 -113l-332 -314h274l-24 -113h-448l24 113l334 314h-249l24 113h421z" />
    <glyph glyph-name="Zcaron" unicode="&#x17d;" horiz-adv-x="611" 
d="M733 729l-27 -125l-474 -479h373l-27 -125h-548l27 125l474 479h-373l27 125h548zM502 784h-108l-71 147h78l61 -97l103 97h76z" />
    <glyph glyph-name="zcaron" unicode="&#x17e;" horiz-adv-x="500" 
d="M433 607h-108l-71 147h78l61 -97l103 97h76zM575 540l-24 -113l-332 -314h274l-24 -113h-448l24 113l334 314h-249l24 113h421z" />
    <glyph glyph-name="longs" unicode="&#x17f;" horiz-adv-x="333" 
d="M230 0l-140.001 -0.000976562l93 436h-77l20 93h76l14 65c10 46.667 28.833 80.834 56.5 102.501s65.834 32.5 114.501 32.5c9.33301 0 35 -1 77 -3l-22 -105c-24 2.66699 -38 4 -42 4c-24.667 0 -40 -14.333 -46 -43z" />
    <glyph glyph-name="uni0180" unicode="&#x180;" horiz-adv-x="611" 
d="M262 94c32 0 60.667 12.668 86 38.001s44 54.666 56 87.999s18 66 18 98c0 34.667 -7.83301 62.334 -23.5 83.001s-37.167 31 -64.5 31c-29.333 0 -55.333 -9.16699 -78 -27.5s-39.5 -40.833 -50.5 -67.5s-19 -51.334 -24 -74.001s-7.5 -41.667 -7.5 -57
c0 -34.667 7.66699 -62 23 -82s37 -30 65 -30zM565 345.001c0 -55.333 -12 -110.833 -36 -166.5s-59.5 -103.167 -106.5 -142.5s-98.5 -59 -154.5 -59c-66.667 0 -110.667 26 -132 78l-12 -55h-140l127 596h-60l14 67h60l14 66h140l-14 -66h133l-14 -67h-133l-27 -126
c44 52.667 99.333 79 166 79c53.333 0 95.833 -18.5 127.5 -55.5s47.5 -86.5 47.5 -148.5z" />
    <glyph glyph-name="uni0181" unicode="&#x181;" horiz-adv-x="963" 
d="M601 125c48 0 82.333 12.332 103 36.999s31 52.334 31 83.001c0 46 -31.333 69 -94 69h-179l-40 -189h179zM652 438.999c44.667 0 76.833 10.667 96.5 32s29.5 45 29.5 71c0 41.333 -30.333 62 -91 62h-163l-35 -165h163zM724.999 728.999
c40 0 74.1689 -5.16699 102.502 -15.5s49.166 -24.166 62.499 -41.499s22.666 -34 27.999 -50s8 -33 8 -51c0 -26 -4.83301 -49.833 -14.5 -71.5s-23.667 -40.5 -42 -56.5s-32 -27 -41 -33s-21.5 -13.667 -37.5 -23c58 -38.667 87 -85 87 -139
c0 -34.667 -10.167 -70.167 -30.5 -106.5s-46.5 -65.833 -78.5 -88.5c-49.333 -35.333 -114.333 -53 -195 -53h-328l123 579h-66c-36 0 -61.5 -7 -76.5 -21s-22.5 -30.667 -22.5 -50c0 -28 28 -42 84 -42l-31 -150c-124 0 -186 50.667 -186 152
c0 73.333 24.333 135.166 73 185.499s112 75.5 190 75.5h391z" />
    <glyph glyph-name="uni0182" unicode="&#x182;" horiz-adv-x="722" 
d="M488 439c35.333 0 66.834 -4 94.501 -12s49.667 -18.333 66 -31s29.666 -27.5 39.999 -44.5s17.333 -33.5 21 -49.5s5.5 -32.667 5.5 -50c0 -37.333 -10.5 -74.333 -31.5 -111s-47.167 -66 -78.5 -88c-49.333 -35.333 -114.333 -53 -195 -53h-328l155 729h512l-27 -125
h-362l-35 -165h163zM438.001 125c48 0 82.333 12.332 103 36.999s31 52.334 31 83.001c0 46 -31.333 69 -94 69h-179l-40 -189h179z" />
    <glyph glyph-name="uni0183" unicode="&#x183;" horiz-adv-x="611" 
d="M334 432c-29.333 0 -55.333 -8.99902 -78 -26.999s-39.5 -40.333 -50.5 -67s-19 -51.334 -24 -74.001s-7.5 -42 -7.5 -58c0 -34.667 7.66699 -62 23 -82s37 -30 65 -30c32 0 60.667 12.667 86 38s44 54.666 56 87.999s18 66 18 98c0 34.667 -7.83301 62.334 -23.5 83.001
s-37.167 31 -64.5 31zM564 342.001c0 -52 -9.33301 -101.334 -28 -148.001s-42.5 -85.5 -71.5 -116.5s-60.833 -55.5 -95.5 -73.5s-68.334 -27 -101.001 -27c-66.667 0 -110.667 26 -132 78l-12 -55h-140l155 729h379l-27 -125h-239l-28 -134c44 52.667 99.333 79 166 79
c20.667 0 40.334 -3.16699 59.001 -9.5s37 -16.666 55 -30.999s32.5 -35.833 43.5 -64.5s16.5 -62.667 16.5 -102z" />
    <glyph glyph-name="uni0184" unicode="&#x184;" horiz-adv-x="687" 
d="M611 295c0 -88 -26.667 -159.167 -80 -213.5s-123.333 -81.5 -210 -81.5h-322l99 468l-81 75l286 186l-55 -260h187c55.333 0 98.5 -15.5 129.5 -46.5s46.5 -73.5 46.5 -127.5zM315 125c28 0 52 4.66602 72 13.999s35 21.5 45 36.5s17.167 30.333 21.5 46
s6.5 31.834 6.5 48.501c0 49.333 -32.667 74 -98 74h-140l-47 -219h140z" />
    <glyph glyph-name="uni0185" unicode="&#x185;" horiz-adv-x="611" 
d="M262 94c32 0 60.667 12.668 86 38.001s44 54.666 56 87.999s18 66 18 98c0 34.667 -7.83301 62.334 -23.5 83.001s-37.167 31 -64.5 31c-29.333 0 -55.333 -9.16699 -78 -27.5s-39.5 -40.833 -50.5 -67.5s-19 -51.334 -24 -74.001s-7.5 -41.667 -7.5 -57
c0 -34.667 7.66699 -62 23 -82s37 -30 65 -30zM565 345.001c0 -55.333 -12 -110.833 -36 -166.5s-59.5 -103.167 -106.5 -142.5s-98.5 -59 -154.5 -59c-66.667 0 -110.667 26 -132 78l-12 -55h-140l105 493l-80 81l270 155l-55 -259c44 52.667 99.333 79 166 79
c53.333 0 95.833 -18.5 127.5 -55.5s47.5 -86.5 47.5 -148.5z" />
    <glyph glyph-name="uni0186" unicode="&#x186;" horiz-adv-x="722" 
d="M752 483c0 -92.667 -18.333 -177.672 -55 -255.005s-87.667 -138.5 -153 -183.5s-138 -67.5 -218 -67.5c-77.333 0 -140 19.333 -188 58s-72 89 -72 151c0 8.66699 1.33301 25.334 4 50.001h141c0 -87.333 44 -131 132 -131c35.333 0 67.333 6.83301 96 20.5
s52 31.834 70 54.501s33.5 46.834 46.5 72.501s22.833 52.334 29.5 80.001s11.334 51.334 14.001 71.001s4 36.5 4 50.5c0 106 -49 159 -147 159c-48 0 -89 -12.5 -123 -37.5s-58.333 -60.5 -73 -106.5h-143c22 85.333 64.667 152 128 200s140.666 72 231.999 72
c85.333 0 152.5 -23 201.5 -69s73.5 -109 73.5 -189z" />
    <glyph glyph-name="uni0187" unicode="&#x187;" horiz-adv-x="752" 
d="M436 613c-40.667 0 -76.8301 -10.167 -108.497 -30.5s-56.334 -44.666 -74.001 -72.999s-32.167 -59.833 -43.5 -94.5s-18.833 -64.167 -22.5 -88.5s-5.5 -44.833 -5.5 -61.5c0 -52 12 -92 36 -120s59 -42 105 -42c47.333 0 88.666 13 123.999 39s58 61.667 68 107h146
c-18 -82.667 -61.167 -148.667 -129.5 -198s-148.166 -74 -239.499 -74c-83.333 0 -147.833 23.5 -193.5 70.5s-68.5 112.167 -68.5 195.5c0 37.333 4.33301 75.666 13 114.999c25.333 118 75.166 211.333 149.499 280s162.833 103 265.5 103
c67.333 0 122.666 -14.667 165.999 -44c20.667 34 58.667 51 114 51c24.667 0 52 -1.66699 82 -5l-24 -112c-8 2.66699 -12.667 4 -14 4c-28 0 -45 -14 -51 -42l-24 -111h-143c0 87.333 -42.667 131 -128 131z" />
    <glyph glyph-name="uni0188" unicode="&#x188;" horiz-adv-x="562" 
d="M22 172c0 65.333 13.002 126.5 39.002 183.5s64.333 103.5 115 139.5s108.334 54 173.001 54c46.667 0 85 -9 115 -27c24 24 60 36 108 36c19.333 0 44.666 -1.66699 75.999 -5l-24 -112c-8 2.66699 -16 4 -24 4c-15.333 0 -26.833 -3.16699 -34.5 -9.5
s-12.834 -17.166 -15.501 -32.499l-13 -65h-134c-0.666992 35.333 -6.83398 60.5 -18.501 75.5s-31.834 22.5 -60.501 22.5c-31.333 0 -58.333 -10.333 -81 -31s-39.167 -45.834 -49.5 -75.501s-17.666 -55.667 -21.999 -78s-6.5 -40.833 -6.5 -55.5
c0 -34 7.33301 -60.167 22 -78.5s35.667 -27.5 63 -27.5s50.166 7.5 68.499 22.5s35.833 39.833 52.5 74.5h134c-20.667 -64.667 -56.167 -115.834 -106.5 -153.501s-108.166 -56.5 -173.499 -56.5s-115.5 16.833 -150.5 50.5s-52.5 81.834 -52.5 144.501z" />
    <glyph glyph-name="uni0189" unicode="&#x189;" horiz-adv-x="722" 
d="M150 341h-77l17 80h76l66 308h285c90.667 0 156.5 -19.833 197.5 -59.5s61.5 -103.167 61.5 -190.5c0 -122.667 -37.333 -235.667 -112 -339c-36.667 -50.667 -78 -86.667 -124 -108s-105.333 -32 -178 -32h-285zM300 341l-45.9971 -216h134
c43.333 0 78.666 7.83301 105.999 23.5s51.666 42.167 72.999 79.5c17.333 29.333 31.666 67 42.999 113s17 88.667 17 128c0 90 -45.667 135 -137 135h-135l-39 -183h174l-17 -80h-173z" />
    <glyph glyph-name="uni018A" unicode="&#x18a;" horiz-adv-x="968" 
d="M557 125c37.333 0 70.501 9.50098 99.501 28.501s51.5 41.833 67.5 68.5s29.167 56.667 39.5 90s17.166 62.166 20.499 86.499s5 45.833 5 64.5c0 94 -43.333 141 -130 141h-135l-102 -479h135zM685.001 729.001c82 0 145 -18.3311 189 -54.998s66 -102 66 -196
c0 -74 -15 -146.833 -45 -218.5s-68.667 -129.834 -116 -174.501c-59.333 -56.667 -142 -85 -248 -85h-285l123 579h-66c-36 0 -61.5 -7 -76.5 -21s-22.5 -30.667 -22.5 -50c0 -28 28 -42 84 -42l-31 -150c-124 0 -186 50.667 -186 152c0 73.333 24.333 135.166 73 185.499
s112 75.5 190 75.5h351z" />
    <glyph glyph-name="uni018B" unicode="&#x18b;" horiz-adv-x="722" 
d="M382 439h162.999l35 165h-362l26 125h512l-155 -729h-328c-143.333 0 -215 56 -215 168c0 22 3.83301 45 11.5 69s20.167 48.167 37.5 72.5s38.333 46 63 65s55.334 34.5 92.001 46.5s76.667 18 120 18zM297.999 125h179.001l40 189h-179c-22 0 -41.667 -3.33301 -59 -10
s-30.5 -14.5 -39.5 -23.5s-16.333 -19.5 -22 -31.5s-9.33398 -22.167 -11.001 -30.5s-2.5 -16.5 -2.5 -24.5c0 -46 31.333 -69 94 -69z" />
    <glyph glyph-name="uni018C" unicode="&#x18c;" horiz-adv-x="611" 
d="M358 432c-43.333 0 -80.833 -23.332 -112.5 -69.999s-47.5 -98.334 -47.5 -155.001c0 -33.333 7.16699 -60.5 21.5 -81.5s36.5 -31.5 66.5 -31.5c31.333 0 59.5 12.167 84.5 36.5s43.833 54 56.5 89s19 70.5 19 106.5c0 70.667 -29.333 106 -88 106zM351 549.001
c67.333 0 111.668 -26.333 133.001 -79l29 134h-239l26 125h379l-155 -729h-140l11 55c-43.333 -52 -98.333 -78 -165 -78c-49.333 0 -91 19 -125 57s-51 88.333 -51 151c0 28.667 4.16699 59.5 12.5 92.5s21.166 65.5 38.499 97.5s37.5 61 60.5 87s50.833 47 83.5 63
s66.667 24 102 24z" />
    <glyph glyph-name="uni018d" unicode="&#x18d;" horiz-adv-x="609" 
d="M357 426c-30.667 0 -57.833 -5.66602 -81.5 -16.999s-42 -25 -55 -41s-23.833 -34 -32.5 -54s-14.334 -37.333 -17.001 -52s-4 -27.334 -4 -38.001c0 -61.333 35 -92 105 -92c26.667 0 51 5.66699 73 17s39.333 25.333 52 42s23.334 35 32.001 55s14.5 37.833 17.5 53.5
s4.5 29.167 4.5 40.5c0 57.333 -31.333 86 -94 86zM599.001 378.001c0 -34 -5.83496 -69.3281 -17.502 -105.995s-28.334 -72 -50.001 -106s-51 -63.667 -88 -89s-78.5 -42 -124.5 -50l131 -105l-27 -102h-453l31 113h219l-93 76
c-1.33301 0.666992 -5.66602 4.16699 -12.999 10.5s-12.666 11.166 -15.999 14.499l-16.5 16.5c-7.66699 7.66699 -13.667 14.5 -18 20.5s-9.5 13.833 -15.5 23.5s-10.5 19 -13.5 28s-5.66699 19.667 -8 32s-3.5 24.833 -3.5 37.5c0 17.333 2 36.666 6 57.999
s10.5 46.166 19.5 74.499s22.667 55.166 41 80.499s40.333 49 66 71s58.834 39.667 99.501 53s86 20 136 20c41.333 0 76.666 -5.5 105.999 -16.5s50.833 -25.833 64.5 -44.5s23.334 -36.834 29.001 -54.501s8.5 -36.167 8.5 -55.5z" />
    <glyph glyph-name="uni018E" unicode="&#x18e;" horiz-adv-x="667" 
d="M515 314h-349l28 125h349l35 165h-378l26 125h528l-155 -729h-545l26 125h395z" />
    <glyph glyph-name="uni018F" unicode="&#x18f;" horiz-adv-x="778" 
d="M211 293c0 -125.333 52 -188 156 -188c50.667 0 97.167 17 139.5 51s74.5 79.667 96.5 137h-392zM59 262c0 50 8.99902 102.001 26.999 156.001h544c0 18 -0.5 33.667 -1.5 47s-4.33301 30 -10 50s-13.667 36.5 -24 49.5s-25.833 24.333 -46.5 34s-45 14.5 -73 14.5
c-78 0 -142.667 -36.333 -194 -109h-157c9.33301 17.333 20 34.666 32 51.999s29.333 37.833 52 61.5s47.167 44 73.5 61s58.833 31.667 97.5 44s79.334 18.5 122.001 18.5c53.333 0 99.333 -8.66699 138 -26s67.834 -40.5 87.501 -69.5s33.834 -59 42.501 -90
s13 -63.833 13 -98.5c0 -42 -6 -85 -18 -129s-30.333 -87 -55 -129s-54.167 -79.5 -88.5 -112.5s-75.833 -59.5 -124.5 -79.5s-100.667 -30 -156 -30c-42.667 0 -80.834 6 -114.501 18s-60.834 27.5 -81.501 46.5s-37.5 41.333 -50.5 67s-22 51 -27 76
s-7.5 50.833 -7.5 77.5z" />
    <glyph glyph-name="uni0190" unicode="&#x190;" horiz-adv-x="672" 
d="M142 178c0 -25.333 11.502 -45.167 34.502 -59.5s54.833 -21.5 95.5 -21.5c103.333 0 166 40.333 188 121h146c-20 -78 -60 -137.667 -120 -179s-136.333 -62 -229 -62c-82.667 0 -146.334 16.167 -191.001 48.5s-67 78.166 -67 137.499c0 15.333 1.5 31.166 4.5 47.499
s8.33301 35.166 16 56.499s20.5 41.833 38.5 61.5s40 35.834 66 48.501c-26.667 24 -40 55.333 -40 94c0 80.667 29.667 145.834 89 195.501s137.666 74.5 234.999 74.5c47.333 0 87.833 -5.33301 121.5 -16s59.167 -25 76.5 -43s29.833 -36.5 37.5 -55.5
s11.5 -39.167 11.5 -60.5c0 -17.333 -2 -37 -6 -59h-140c0.666992 4 1 10 1 18c0 64 -44 96 -132 96c-43.333 0 -78.5 -10.167 -105.5 -30.5s-40.5 -48.166 -40.5 -83.499c0 -52.667 40 -79 120 -79h76l-23 -120h-102c-48 0 -86.833 -12.333 -116.5 -37
s-44.5 -55.667 -44.5 -93z" />
    <glyph glyph-name="uni0191" unicode="&#x191;" horiz-adv-x="611" 
d="M263 439l318.997 0.00195312l-27 -125h-318l-86 -408c-9.33301 -44 -25.833 -75.667 -49.5 -95s-57.167 -29 -100.5 -29c-23.333 0 -50.666 1.66699 -81.999 5l24 112c2.66699 -0.666992 4.5 -1.33398 5.5 -2.00098s1.83301 -1.16699 2.5 -1.5s2.33398 -0.5 5.00098 -0.5
c15.333 0 26.833 3.16699 34.5 9.5s12.834 17.166 15.501 32.499l169 792h512l-27 -125h-362z" />
    <glyph glyph-name="florin" unicode="&#x192;" horiz-adv-x="333" 
d="M425 529l-19.002 -92.999h-83l-113 -530c-9.33301 -44 -25.666 -75.667 -48.999 -95s-56.666 -29 -99.999 -29c-24.667 0 -52 1.66699 -82 5l24 112c8 -2.66699 16 -4 24 -4c14.667 0 25.834 3.16699 33.501 9.5s13.167 17.166 16.5 32.499l106 499h-76l19 93h76l14 65
c19.333 90 75 135 167 135c27.333 0 53.666 -1 78.999 -3l-22 -105c-11.333 2 -24.333 3 -39 3c-25.333 0 -41 -14 -47 -42l-12 -53h83z" />
    <glyph glyph-name="uni0193" unicode="&#x193;" horiz-adv-x="778" 
d="M449 613c-42 0 -79.665 -9.33594 -112.998 -28.0029s-59.166 -41 -77.499 -67s-33.5 -55.167 -45.5 -87.5s-19.833 -60 -23.5 -83s-5.5 -42.833 -5.5 -59.5c0 -55.333 14.5 -99.666 43.5 -132.999s68.167 -50 117.5 -50c53.333 0 101.333 17.333 144 52
s68 71.334 76 110.001h-166l26 125h292l-83 -392h-90l2 94c-37.333 -41.333 -75.333 -71.166 -114 -89.499s-82.334 -27.5 -131.001 -27.5c-82.667 0 -148.5 26 -197.5 78s-73.5 120.667 -73.5 206c0 30 3.66699 62.667 11 98c24.667 113.333 77 205.333 157 276
s172.333 106 277 106c71.333 0 130.333 -15 177 -45c21.333 34.667 59.666 52 114.999 52c24.667 0 52 -1.66699 82 -5l-24 -112c-8 2.66699 -12.667 4 -14 4c-28 0 -45 -14 -51 -42l-21 -97h-141c-10.667 78 -60.334 117 -149.001 117z" />
    <glyph glyph-name="uni0194" unicode="&#x194;" horiz-adv-x="667" 
d="M372 136c-18.667 -15.333 -28 -29 -28 -41c0 -10 5.33301 -15 16 -15c7.33301 0 13.333 2.5 18 7.5s7 12.167 7 21.5c0 6.66699 -4.33301 15.667 -13 27zM476 270c24.667 -59.333 36.999 -112.667 36.999 -160c0 -24.667 -6 -46 -18 -64s-27.5 -31.5 -46.5 -40.5
s-37.667 -15.5 -56 -19.5s-36.166 -6 -53.499 -6c-41.333 0 -73.5 7.33301 -96.5 22s-34.5 34.667 -34.5 60c0 22 11 51.667 33 89s50.333 77 85 119l-144 459h167l81 -322l207 322h168z" />
    <glyph glyph-name="uni0195" unicode="&#x195;" horiz-adv-x="940" 
d="M471 330c3.33301 14.667 4.99902 26.668 4.99902 36.001c0 42.667 -23 64 -69 64c-31.333 0 -59.333 -10 -84 -30s-40.334 -45.333 -47.001 -76l-69 -324h-140l155 729h140l-57 -267c51.333 58 110.333 87 177 87c39.333 0 73 -10 101 -30s42 -53.333 42 -100
c0 -18.667 -2.33301 -37.667 -7 -57l-26 -124c-6 -26 -9 -48.333 -9 -67c0 -22.667 5.83301 -39.334 17.5 -50.001s31.834 -16 60.501 -16c36.667 0 64 11.167 82 33.5s32 57.5 42 105.5l63 296h138l-70 -328c-32 -152 -125 -228 -279 -228
c-73.333 0 -125.166 12.5 -155.499 37.5s-45.5 60.833 -45.5 107.5c0 22 3.33301 49.667 10 83z" />
    <glyph glyph-name="uni0196" unicode="&#x196;" horiz-adv-x="278" 
d="M195 97c-2 -8.66699 -2.99902 -14.167 -2.99902 -16.5s1 -3.83301 3 -4.5s7.33301 -1 16 -1c14.667 0 26 1 34 3l33 9l-26 -124l-21 -4c-28.667 -4.66699 -53.334 -7 -74.001 -7c-34 0 -60.167 7.16699 -78.5 21.5s-27.5 34.5 -27.5 60.5c0 8 1 16.667 3 26l147 694h133z
" />
    <glyph glyph-name="uni0197" unicode="&#x197;" horiz-adv-x="395" 
d="M107 293h-122l25 125h123l66 311h150l-66 -311h120l-26 -125h-120l-62 -293h-150z" />
    <glyph glyph-name="uni0198" unicode="&#x198;" horiz-adv-x="778" 
d="M698 568c0 8 -3.33203 16.833 -9.99902 26.5s-17 14.5 -31 14.5c-13.333 0 -28 -5 -44 -15l-209 -179l234 -415h-179l-171 322l-91 -78l-52 -244h-150l155 729h150l-68 -320l277 248c67.333 58.667 126 88 176 88c37.333 0 70.166 -14.333 98.499 -43
s42.5 -57.667 42.5 -87c0 -74.667 -38 -144.667 -114 -210l-71 82c38 33.333 57 60.333 57 81z" />
    <glyph glyph-name="uni0199" unicode="&#x199;" horiz-adv-x="556" 
d="M269 330l221.001 209.999h159l-227 -204l126 -336h-164l-79 238l-69 -61l-37 -177h-140l128 605c9.33301 44 25.666 75.667 48.999 95s56.666 29 99.999 29c24.667 0 52 -1.66699 82 -5l-23 -112c-8.66699 2.66699 -17 4 -25 4c-15.333 0 -26.666 -3.16699 -33.999 -9.5
s-12.333 -17.166 -15 -32.499z" />
    <glyph glyph-name="uni019a" unicode="&#x19a;" horiz-adv-x="333" 
d="M166 314h-124l25 117h124l68 323h134l-68 -323h125l-25 -117h-125l-72 -339h-134z" />
    <glyph glyph-name="uni019b" unicode="&#x19b;" horiz-adv-x="620" 
d="M354 334l-193.002 -335.999h-144l277 464l-165 -91l19 89l172 95c-4 22.667 -10 37.5 -18 44.5s-19.333 10.5 -34 10.5c-10.667 0 -23.167 -1.5 -37.5 -4.5s-29.166 -5.16699 -44.499 -6.5l41 122c36 12 62.667 18 80 18c39.333 0 68.833 -10.5 88.5 -31.5
s33.834 -50.5 42.501 -88.5l157 86l-19 -88l-125 -69l3 -16l63 -389c2.66699 -12.667 4.66699 -20.834 6 -24.501s3.33301 -5.5 6 -5.5c8.66699 0 26 7 52 21l10 -112c-50 -23.333 -88.333 -35 -115 -35c-28.667 0 -48.167 7.33301 -58.5 22s-17.833 37 -22.5 67
c-26 164.667 -39.667 250.667 -41 258z" />
    <glyph glyph-name="uni019C" unicode="&#x19c;" horiz-adv-x="889" 
d="M757 0l-149 0.000976562l15 67c-29.333 -27.333 -56.333 -46.833 -81 -58.5s-52.334 -17.5 -83.001 -17.5c-33.333 0 -61.5 7 -84.5 21s-38.167 33.667 -45.5 59c-51.333 -53.333 -109.666 -80 -174.999 -80c-46.667 0 -83.667 11.167 -111 33.5s-41 53.166 -41 92.499
c0 10.667 1.66699 24.334 5 41.001l121 571h150l-114 -539c-1.33301 -8 -2 -14 -2 -18c0 -16 5.5 -28.667 16.5 -38s26.5 -14 46.5 -14c60 0 98 35.333 114 106l106 503h150l-114 -539c-1.33301 -4.66699 -2 -11.334 -2 -20.001c0 -33.333 19.333 -50 58 -50
c30 0 55.5 9.33301 76.5 28s35.167 44.667 42.5 78l106 503h150z" />
    <glyph glyph-name="uni019D" unicode="&#x19d;" horiz-adv-x="722" 
d="M171 729l151.998 0.000976562l183 -496l106 496h150l-155 -729h-150l-186 502l-126 -596c-9.33301 -44 -25.833 -75.667 -49.5 -95s-57.167 -29 -100.5 -29c-23.333 0 -50.666 1.66699 -81.999 5l24 112c8.66699 -2.66699 13.667 -4 15 -4
c15.333 0 26.833 3.16699 34.5 9.5s12.834 17.166 15.501 32.499z" />
    <glyph glyph-name="uni019E" unicode="&#x19e;" horiz-adv-x="611" 
d="M141 540l140.002 0.000976562l-17 -78c51.333 58 111.666 87 180.999 87c48 0 84.5 -11.333 109.5 -34s37.5 -55.334 37.5 -98.001c0 -16.667 -2 -35 -6 -55l-120 -563h-140l114 534c2.66699 16 4 26.667 4 32c0 43.333 -24.667 65 -74 65
c-34 0 -63.333 -9.66699 -88 -29s-40.334 -45 -47.001 -77l-69 -324h-140z" />
    <glyph glyph-name="uni019F" unicode="&#x19f;" horiz-adv-x="778" 
d="M471 741c53.333 0 99.334 -8.6709 138.001 -26.0039s67.834 -40.5 87.501 -69.5s33.834 -59 42.501 -90s13 -63.833 13 -98.5c0 -56.667 -10.333 -113.167 -31 -169.5s-49.334 -107.666 -86.001 -153.999s-83.5 -84 -140.5 -113s-118.5 -43.5 -184.5 -43.5
c-53.333 0 -99.333 8.83301 -138 26.5s-67.834 41.334 -87.501 71.001s-33.834 59.834 -42.501 90.501s-13 63 -13 97c0 40 5.83301 81.5 17.5 124.5s29.667 85.667 54 128s53.5 80.333 87.5 114s75.5 60.834 124.5 81.501s101.833 31 158.5 31zM181.001 292.996
l0.000976562 -13c0 -54.667 13.667 -97.5 41 -128.5s65.666 -46.5 114.999 -46.5c50.667 0 97.167 17 139.5 51s74.5 79.667 96.5 137h-392zM600.002 417.996c0 2.66699 0.166992 6.33203 0.5 10.999s0.5 8 0.5 10c0 54.667 -13.5 97.334 -40.5 128.001s-65.5 46 -115.5 46
c-52 0 -99.333 -17.5 -142 -52.5s-74.667 -82.5 -96 -142.5h393z" />
    <glyph glyph-name="Ohorn" unicode="&#x1a0;" horiz-adv-x="808" 
d="M519 613c-40 0 -75.999 -9.16895 -107.999 -27.502s-57.5 -40.666 -76.5 -66.999s-34.667 -55.5 -47 -87.5s-20.833 -60.5 -25.5 -85.5s-7 -46.833 -7 -65.5c0 -54.667 13.667 -97.5 41 -128.5s65.666 -46.5 114.999 -46.5c75.333 0 138 33.833 188 101.5
s75 145.167 75 232.5c0 54.667 -13.5 97.334 -40.5 128.001s-65.167 46 -114.5 46zM545.001 740.998c100 0 174.999 -31.999 224.999 -95.999c22.667 28 35.334 67.333 38.001 118h142c-2 -23.333 -9 -45.333 -21 -66s-26.5 -37.667 -43.5 -51s-32.333 -23.833 -46 -31.5
s-27.167 -13.834 -40.5 -18.501c18 -39.333 27 -84.666 27 -135.999c0 -84.667 -19 -163.834 -57 -237.501s-91.333 -133 -160 -178s-144 -67.5 -226 -67.5c-88 0 -156.833 25.5 -206.5 76.5s-74.5 118.833 -74.5 203.5c0 44 6.33301 88.667 19 134s31.667 89 57 131
s55.333 79.167 90 111.5s76 58.333 124 78s99 29.5 153 29.5z" />
    <glyph glyph-name="ohorn" unicode="&#x1a1;" horiz-adv-x="673" 
d="M395 436c-48.667 0 -89.166 -24 -121.499 -72s-48.5 -100.333 -48.5 -157c0 -36 8.5 -64.5 25.5 -85.5s40.5 -31.5 70.5 -31.5c45.333 0 85 22.833 119 68.5s51 99.5 51 161.5c0 36.667 -8.33301 65.167 -25 85.5s-40.334 30.5 -71.001 30.5zM777.001 585
c-2 -22 -8.3291 -42.668 -18.9961 -62.001s-22.834 -35.166 -36.501 -47.499s-27.834 -23 -42.501 -32s-26.834 -15.5 -36.501 -19.5s-15.5 -6 -17.5 -6c6 -22 9 -46 9 -72c0 -44 -7.16699 -87.333 -21.5 -130s-34.833 -82 -61.5 -118s-62.167 -65.167 -106.5 -87.5
s-93.5 -33.5 -147.5 -33.5c-68.667 0 -121.667 17.833 -159 53.5s-56 85.5 -56 149.5c0 42 6.83301 84 20.5 126s33.667 81.5 60 118.5s61.666 67 105.999 90s94.166 34.5 149.499 34.5c85.333 0 146 -26 182 -78c20.667 27.333 32.334 65.333 35.001 114h142z" />
    <glyph glyph-name="uni01A2" unicode="&#x1a2;" horiz-adv-x="1111" 
d="M463 613c-40 0 -75.999 -9.16895 -107.999 -27.502s-57.5 -40.666 -76.5 -66.999s-34.667 -55.5 -47 -87.5s-20.833 -60.5 -25.5 -85.5s-7 -46.833 -7 -65.5c0 -54.667 13.667 -97.5 41 -128.5s65.666 -46.5 114.999 -46.5c60 0 113.333 23 160 69s78 106.333 94 181
c6 30 9 58 9 84c0 54.667 -13.5 97.334 -40.5 128.001s-65.167 46 -114.5 46zM58.001 358.998c24 112 75.666 203.666 154.999 274.999s171.333 107 276 107c92 0 161.333 -25.667 208 -77c54.667 58.667 125.334 88 212.001 88c63.333 0 111.666 -13.5 144.999 -40.5
s50 -65.5 50 -115.5c0 -18 -2 -37 -6 -57l-157 -739h-150l157 739c2 8.66699 3 17.334 3 26.001c0 39.333 -22 59 -66 59c-28.667 0 -51 -7.5 -67 -22.5s-27.333 -39.167 -34 -72.5l-14 -66v-9c0 -30 -3.66699 -63.333 -11 -100
c-23.333 -107.333 -74.666 -197 -153.999 -269s-172 -108 -278 -108c-88 0 -156.667 25.5 -206 76.5s-74 119.167 -74 204.5c0 35.333 3.66699 69 11 101z" />
    <glyph glyph-name="uni01a3" unicode="&#x1a3;" horiz-adv-x="722" 
d="M366 437c-38.667 0 -72.499 -15.666 -101.499 -46.999s-49.5 -75.333 -61.5 -132c-5.33301 -24 -8 -46.333 -8 -67c0 -36 8.16699 -63.667 24.5 -83s39.833 -29 70.5 -29c38 0 71.667 15.5 101 46.5s49.666 74.167 60.999 129.5c5.33301 25.333 8 48.666 8 69.999
c0 74.667 -31.333 112 -94 112zM775.001 369.001l-125.998 -593.998h-134l131 614c2.66699 15.333 4 26.333 4 33v6c-0.666992 9.33301 -5.66699 14.666 -15 15.999c-2.66699 0.666992 -5.33398 1 -8.00098 1c-14.667 0 -27.667 -1.66699 -39 -5c8 -25.333 12 -54 12 -86
c0 -30.667 -3.66699 -64 -11 -100c-20 -92.667 -59.333 -166.167 -118 -220.5s-128 -81.5 -208 -81.5c-66.667 0 -118 18.5 -154 55.5s-54 88.833 -54 155.5c0 29.333 3.66699 61 11 95c20 95.333 59.167 170.166 117.5 224.499s127.833 81.5 208.5 81.5
c54.667 0 99 -12 133 -36c47.333 24 91.666 36 132.999 36c44.667 0 77 -9.5 97 -28.5s30 -47.5 30 -85.5c0 -22.667 -3.33301 -49.667 -10 -81z" />
    <glyph glyph-name="uni01A4" unicode="&#x1a4;" horiz-adv-x="914" 
d="M617 385c36 0 65.5 8.16699 88.5 24.5s38.167 34.5 45.5 54.5s11 41.667 11 65c0 50 -32.667 75 -98 75h-140l-47 -219h140zM71 468c0 73.333 24.333 135.167 73 185.5s112 75.5 190 75.5h388c64 0 112.5 -13.667 145.5 -41s49.5 -67.333 49.5 -120
c0 -18 -2.66699 -39.667 -8 -65c-15.333 -74 -47.5 -133 -96.5 -177s-107.167 -66 -174.5 -66h-187l-55 -260h-150l123 579h-66c-36 0 -61.5 -7 -76.5 -21s-22.5 -30.667 -22.5 -50c0 -28 28 -42 84 -42l-31 -150c-124 0 -186 50.667 -186 152z" />
    <glyph glyph-name="uni01A5" unicode="&#x1a5;" horiz-adv-x="611" 
d="M371 432c-29.333 0 -55.167 -9.16699 -77.5 -27.5s-39 -40.833 -50 -67.5s-19.167 -51.5 -24.5 -74.5s-8 -42.167 -8 -57.5c0 -34.667 7.83301 -62 23.5 -82s37.167 -30 64.5 -30c24 0 45.833 6.33301 65.5 19s35.167 28.167 46.5 46.5s21 38.5 29 60.5
s13.333 41.333 16 58s4 31 4 43c0 34.667 -7.83301 62 -23.5 82s-37.5 30 -65.5 30zM591.999 258c-16.667 -80.667 -52.3311 -147.834 -106.998 -201.501s-114 -80.5 -178 -80.5c-66.667 0 -110.667 29.333 -132 88l-60 -282h-140l161 758h140l-17 -80
c46.667 59.333 103 89 169 89c36.667 0 70 -9.66699 100 -29c24 26.667 61.333 40 112 40c23.333 0 50.666 -1.66699 81.999 -5l-24 -112c-8.66699 2.66699 -16.667 4 -24 4c-15.333 0 -26.833 -3.16699 -34.5 -9.5s-12.834 -17.166 -15.501 -32.499z" />
    <glyph glyph-name="uni01a6" unicode="&#x1a6;" horiz-adv-x="647" 
d="M273 297l122 -0.000976562c27.333 0 48.333 4.83301 63 14.5s24.667 25.834 30 48.501c1.33301 7.33301 2 14 2 20c0 33.333 -22.333 50 -67 50h-122zM250 186.999l-40 -187h-150l155 729h150l-40 -189h151c29.333 0 54.833 -3.66699 76.5 -11s38.167 -17.5 49.5 -30.5
s19.5 -26.5 24.5 -40.5s7.5 -29.333 7.5 -46c0 -12 -1.33301 -24.333 -4 -37c-6 -28 -16.667 -54.333 -32 -79s-32.333 -44 -51 -58c33.333 -16 50 -47.667 50 -95c0 -19.333 -2.66699 -41.333 -8 -66l-36 -169c-2 -11.333 -3 -21.166 -3 -29.499s1.33301 -15.5 4 -21.5
s5.16699 -10 7.5 -12s5.83301 -4.66699 10.5 -8l-5 -27h-161c-6 17.333 -9 33 -9 47s2.66699 33.333 8 58l37 174c1.33301 6 2 11.667 2 17c0 23.333 -9.33301 42.666 -28 57.999s-40.667 23 -66 23h-100z" />
    <glyph glyph-name="uni01A7" unicode="&#x1a7;" horiz-adv-x="667" 
d="M481 321l-106.005 -20.0029c-1.33301 0 -3.33301 -0.333008 -6 -1c-14 -2.66699 -25.5 -5 -34.5 -7s-22.167 -6 -39.5 -12s-31.333 -13 -42 -21s-20.334 -19 -29.001 -33s-13 -29.667 -13 -47c0 -23.333 11.5 -41.666 34.5 -54.999s55.5 -20 97.5 -20
c30.667 0 57.834 3.66699 81.501 11s41.834 15.5 54.501 24.5s23.334 19.833 32.001 32.5s14 21.834 16 27.501s3.33301 11.167 4 16.5l1 1h146c-20 -71.333 -61.167 -129.333 -123.5 -174s-143.833 -67 -244.5 -67c-45.333 0 -84.5 4.83301 -117.5 14.5
s-58.333 23.167 -76 40.5s-30.5 35.833 -38.5 55.5s-12 41.5 -12 65.5c0 14.667 1.16699 29.667 3.5 45s8.33301 35 18 59s22.667 45.5 39 64.5s40.5 37.167 72.5 54.5s69.333 30 112 38l118 22c22 4 39.833 7.66699 53.5 11s28 8 43 14s26.667 12.5 35 19.5
s15.333 16 21 27s8.5 23.833 8.5 38.5c0 21.333 -9.66699 37.833 -29 49.5s-46.666 17.5 -81.999 17.5c-96 0 -154.333 -34.333 -175 -103v-3h-140c8.66699 42.667 24.167 79.5 46.5 110.5s49.5 55.333 81.5 73s65.833 30.5 101.5 38.5s73.5 12 113.5 12
c74 0 130.833 -15.5 170.5 -46.5s59.5 -72.167 59.5 -123.5c0 -28 -4 -54 -12 -78s-18 -44 -30 -60s-26.833 -30.667 -44.5 -44s-33.667 -23.666 -48 -30.999s-30.666 -13.833 -48.999 -19.5s-31.666 -9.5 -39.999 -11.5s-17.5 -3.66699 -27.5 -5
c-2 -0.666992 -3.66699 -1 -5 -1z" />
    <glyph glyph-name="uni01A8" unicode="&#x1a8;" horiz-adv-x="556" 
d="M395 221l-90.001 -25.002c-1.33301 -0.666992 -3.33301 -1.33398 -6 -2.00098c-15.333 -4 -27 -7.33301 -35 -10s-17.5 -6.66699 -28.5 -12s-19 -11.333 -24 -18s-7.5 -14.667 -7.5 -24c0 -12 7.5 -21.833 22.5 -29.5s35.5 -11.5 61.5 -11.5c68 0 113 22.667 135 68h137
c-11.333 -50 -43.166 -92.5 -95.499 -127.5s-118.5 -52.5 -198.5 -52.5c-66 0 -116.833 11.667 -152.5 35s-53.5 56 -53.5 98c0 12.667 1.16699 25.167 3.5 37.5s7.5 26.666 15.5 42.999s18.5 31.5 31.5 45.5s31.833 27.833 56.5 41.5s53 24.834 85 33.501l108 28
c14.667 4 26 7.33301 34 10s16.833 6.33398 26.5 11.001s16.667 10.334 21 17.001s6.5 14.334 6.5 23.001c0 11.333 -6.16699 20.333 -18.5 27s-29.166 10 -50.499 10c-20.667 0 -38.834 -2.5 -54.501 -7.5s-27.167 -10.667 -34.5 -17s-13.166 -13.5 -17.499 -21.5
s-6.83301 -13.667 -7.5 -17s-1 -6 -1 -8h-135c11.333 58 42.666 103 93.999 135s111.333 48 180 48c60 0 106.5 -12.167 139.5 -36.5s49.5 -56.5 49.5 -96.5c0 -28 -5.5 -53.167 -16.5 -75.5s-26.5 -41 -46.5 -56s-40.667 -27.333 -62 -37s-45.333 -18.5 -72 -26.5z" />
    <glyph glyph-name="uni01A9" unicode="&#x1a9;" horiz-adv-x="688" 
d="M615 -25h-616l30 123l301 288l-135 239l29 118h562l-33 -134h-368l126 -223l-292 -277h429z" />
    <glyph glyph-name="uni01aa" unicode="&#x1aa;" horiz-adv-x="441" 
d="M317 628c-10.667 0 -20.834 -4.16797 -30.501 -12.501s-14.5 -18.166 -14.5 -29.499c0 -8 2.83301 -14.833 8.5 -20.5s12.834 -8.5 21.501 -8.5c11.333 0 21.833 4.33301 31.5 13s14.5 18.667 14.5 30c0 8.66699 -2.83301 15.5 -8.5 20.5s-13.167 7.5 -22.5 7.5z
M279 444.999c-35.333 0 -64.166 11.1689 -86.499 33.502s-33.5 50.5 -33.5 84.5c0 44.667 18.667 85.334 56 122.001s79.333 55 126 55c38 0 67.667 -9.83301 89 -29.5s32 -46.834 32 -81.501c0 -6.66699 -1.33301 -19.334 -4 -38.001l-136 -637c-2 -14 -3 -22 -3 -24
c0 -6.66699 2.5 -11.667 7.5 -15s15.167 -5 30.5 -5c2 0 8.33301 0.333008 19 1l26 2l-25 -118l-21 -5c-13.333 -2 -24.333 -3 -33 -3c-46.667 0 -82.334 8.66699 -107.001 26s-37 42.666 -37 75.999c0 10 1 20.667 3 32l112 525c-3.33301 -0.666992 -8.33301 -1 -15 -1z
" />
    <glyph glyph-name="uni01AB" unicode="&#x1ab;" horiz-adv-x="333" 
d="M365 529l-20.002 -92.998h-78l-62 -294c-3.33301 -14.667 -5 -25.334 -5 -32.001c0 -10 2.83301 -17 8.5 -21s15.5 -6 29.5 -6c6.66699 0 17.667 1 33 3l-38 -180c-9.33301 -44 -25.833 -75.667 -49.5 -95s-57.167 -29 -100.5 -29c-23.333 0 -50.666 1.66699 -81.999 5
l24 112c8 -2.66699 16 -4 24 -4c15.333 0 26.833 3.16699 34.5 9.5s12.834 17.166 15.501 32.499l10 48c-38 12 -57 38.667 -57 80c0 10.667 1.66699 23.667 5 39l70 332h-69l20 93h69l31 145h140l-31 -145h78z" />
    <glyph glyph-name="uni01AC" unicode="&#x1ac;" horiz-adv-x="742" 
d="M336 729l470.001 -0.00292969l-26 -125h-213l-128 -604h-150l128 604h-107c-20 0 -37.333 -2.66699 -52 -8s-25.334 -11.833 -32.001 -19.5s-11.334 -14.5 -14.001 -20.5s-4 -11.333 -4 -16c0 -14 7.5 -25.667 22.5 -35s36.833 -14 65.5 -14l-27 -125
c-36.667 0 -67.167 3.83301 -91.5 11.5s-44.833 21.834 -61.5 42.501c-24.667 31.333 -37 61.333 -37 90c0 11.333 1.83301 24.833 5.5 40.5s11.334 34.334 23.001 56.001s26.5 41.334 44.5 59.001s43 32.667 75 45s68.333 18.5 109 18.5z" />
    <glyph glyph-name="uni01AD" unicode="&#x1ad;" horiz-adv-x="333" 
d="M338 529l-18.999 -93.001h-78l-63 -294c-2.66699 -11.333 -4 -22 -4 -32s2.83301 -17 8.5 -21s15.5 -6 29.5 -6c7.33301 0 18 1 32 3l-21 -98c-24 -7.33301 -51.667 -11 -83 -11c-76 0 -114 29.333 -114 88c0 13.333 1.33301 26.333 4 39l71 332h-69l19 93h69l17 76
c8.66699 44 24.834 75.667 48.501 95s57.167 29 100.5 29c23.333 0 50.666 -1.66699 81.999 -5l-24 -112c-8 2.66699 -16 4 -24 4c-14.667 0 -25.834 -3.16699 -33.501 -9.5s-13.167 -17.166 -16.5 -32.499l-10 -45h78z" />
    <glyph glyph-name="uni01AE" unicode="&#x1ae;" horiz-adv-x="611" 
d="M161 -94l147.998 698h-221l27 125h584l-27 -125h-213l-142 -667c-0.666992 -4 -1 -9 -1 -15c0 -18 8.66699 -27 26 -27c4.66699 0 12.334 1.33301 23.001 4l-24 -112c-31.333 -3.33301 -59.333 -5 -84 -5c-35.333 0 -61.166 6.16699 -77.499 18.5s-24.5 32.5 -24.5 60.5
c0 12.667 2 27.667 6 45z" />
    <glyph glyph-name="Uhorn" unicode="&#x1af;" horiz-adv-x="789" 
d="M360 -23c-29.333 0 -57.1641 2.99902 -83.4971 8.99902s-51.833 15.833 -76.5 29.5s-44.334 33.5 -59.001 59.5s-22 57 -22 93c0 22 2.33301 44.333 7 67l105 494h150l-105 -494c-3.33301 -16.667 -5 -30.334 -5 -41.001c0 -59.333 39 -89 117 -89
c92 0 147.333 43.333 166 130l105 494h24c84 8 128.667 63.333 134 166h142c-2 -23.333 -9 -45.166 -21 -65.499s-26.5 -37.166 -43.5 -50.499s-32.333 -24 -46 -32s-26.834 -14.333 -39.501 -19l-105 -493c-8.66699 -39.333 -22.334 -74.5 -41.001 -105.5
s-39.667 -55.833 -63 -74.5s-49.5 -34 -78.5 -46s-56.5 -20.333 -82.5 -25s-52.333 -7 -79 -7z" />
    <glyph glyph-name="uhorn" unicode="&#x1b0;" horiz-adv-x="684" 
d="M541 0l-140.001 -0.00292969l14 64c-51.333 -58 -111.666 -87 -180.999 -87c-47.333 0 -83.666 11.333 -108.999 34s-38 55.334 -38 98.001c0 16.667 2 35 6 55l80 376h140l-74 -347c-2.66699 -16 -4 -27 -4 -33c0 -42.667 24.667 -64 74 -64c34 0 63.333 9.66699 88 29
s40.334 45 47.001 77l72 338c29.333 0 54.166 5 74.499 15s35.333 24 45 42s16.5 35.5 20.5 52.5s6.66699 36.167 8 57.5h142c-2 -23.333 -9 -45.166 -21 -65.499s-26.5 -37.166 -43.5 -50.499s-32.333 -24 -46 -32s-26.834 -14.333 -39.501 -19z" />
    <glyph glyph-name="uni01B1" unicode="&#x1b1;" horiz-adv-x="780" 
d="M52 239c0 75.333 17.8359 146.331 53.5029 212.998s84.5 120.334 146.5 161.001h-118l31 126h324l-30 -121c-18.667 -6.66699 -37.5 -15.167 -56.5 -25.5s-41.5 -25.666 -67.5 -45.999s-48.667 -42.666 -68 -66.999s-36 -55.166 -50 -92.499s-21 -77 -21 -119
c0 -15.333 1.5 -30.666 4.5 -45.999s8.33301 -31 16 -47s17.5 -29.833 29.5 -41.5s28.167 -21.334 48.5 -29.001s43.166 -11.5 68.499 -11.5c40 0 78.167 10.5 114.5 31.5s66.5 48 90.5 81s43 69.167 57 108.5s21 77.666 21 114.999c0 88 -38.333 150.667 -115 188l30 122
h314l-31 -126h-122c42 -46.667 63 -103.334 63 -170.001c0 -39.333 -6.83301 -80.833 -20.5 -124.5s-33.834 -86.334 -60.501 -128.001s-57.834 -79.167 -93.501 -112.5s-77.667 -60.166 -126 -80.499s-98.5 -30.5 -150.5 -30.5c-53.333 0 -99.333 8.16699 -138 24.5
s-68 38.5 -88 66.5s-34.333 56.833 -43 86.5s-13 61.167 -13 94.5z" />
    <glyph glyph-name="uni01b2" unicode="&#x1b2;" horiz-adv-x="722" 
d="M112 243l103.002 488.002h143l-112 -528c-1.33301 -5.33301 -2 -10.333 -2 -15c0 -21.333 8.83301 -38 26.5 -50s37.5 -18 59.5 -18c20 0 39.667 1.5 59 4.5s40.166 9.33301 62.499 19s42.5 22 60.5 37s34.667 35.667 50 62s26.666 56.833 33.999 91.5v2
c8.66699 38.667 13 74 13 106c0 39.333 -5.5 76.166 -16.5 110.499s-29.833 80.833 -56.5 139.5l-17 39h167l5 -10c43.333 -80.667 65 -162.334 65 -245.001c0 -40.667 -4.66699 -84 -14 -130c-26.667 -122.667 -75.167 -213 -145.5 -271s-158.833 -87 -265.5 -87
c-152 0 -228 59 -228 177c0 24 3 50 9 78z" />
    <glyph glyph-name="uni01B3" unicode="&#x1b3;" horiz-adv-x="762" 
d="M711 557c0 14 -5.16699 23.999 -15.5 29.999s-19.833 9 -28.5 9c-24.667 0 -50 -18.667 -76 -56l-192 -270l-57 -270h-150l57 270l-145 459h167l81 -322l125 194c58 85.333 125.333 128 202 128c50 0 92.333 -15 127 -45s52 -69 52 -117c0 -43.333 -20.333 -94 -61 -152
l-121 65c23.333 34.667 35 60.334 35 77.001z" />
    <glyph glyph-name="uni01B4" unicode="&#x1b4;" horiz-adv-x="706" 
d="M605 560c12 0 25.501 -1.6709 40.501 -5.00391s31.5 -9.16602 49.5 -17.499s33 -21.666 45 -39.999s18 -40.166 18 -65.499c0 -35.333 -10 -72 -30 -110l-14 -28l-104 35c16.667 34 25 59.333 25 76c0 23.333 -15.333 35 -46 35c-14 0 -26.5 -6.5 -37.5 -19.5
s-23.5 -33.833 -37.5 -62.5l-255 -457c-23.333 -41.333 -48.833 -71.666 -76.5 -90.999s-70.834 -29 -129.501 -29c-14.667 0 -31 1.33301 -49 4l22 105c13.333 -4 25.333 -6 36 -6c24 0 46.333 8.33301 67 25s34 39.667 40 69l-81 562h154l35 -393l136 273
c46 93.333 110 140 192 140z" />
    <glyph glyph-name="uni01b5" unicode="&#x1b5;" horiz-adv-x="611" 
d="M733 729l-27 -125l-202 -205h107l-14 -67h-159l-205 -207h372l-27 -125h-548l27 125l205 207h-103l14 67h155l203 205h-373l27 125h548z" />
    </font>
</defs>
</svg>
