<?xml version="1.0" standalone="no"?> <!DOCTYPE svg PUBLIC "-//W3C//DTD SVG 1.0//EN" "http://www.w3.org/TR/2001/REC-SVG-20010904/DTD/svg10.dtd" > <svg xmlns="http://www.w3.org/2000/svg" width="100%" height="100%">
<defs >
<font id="futurbol" horiz-adv-x="626" ><font-face
    font-family="Futura"
    units-per-em="1000"
    panose-1="2 0 8 3 0 0 0 2 0 3"
    ascent="830"
    descent="-256"
    alphabetic="0" />
<missing-glyph horiz-adv-x="343" />
<glyph unicode=" " glyph-name="space" horiz-adv-x="343" />
<glyph unicode="!" glyph-name="exclam" horiz-adv-x="384" d="M192 214Q216 214 237 205T275 180T300 143T309 97Q309 73 300 52T275 15T238 -10T192 -20Q168 -20 147 -11T109 14T84 51T75 97Q75 121 84 142T109 180T146 205T192 214ZM98 754H287V256H98V754Z" />
<glyph unicode="&quot;" glyph-name="quotedbl" horiz-adv-x="500" d="M217 754L190 423H74L47 754H217ZM453 754L426 423H310L283 754H453Z" />
<glyph unicode="#" glyph-name="numbersign" horiz-adv-x="686" d="M371 726L332 523H433L472 726H577L538 523H618V410H520L496 286H590V173H472L439 0H333L366 173H265L232 0H126L159 173H68V286H181L205 410H109V523H226L265 726H371ZM287 286H389L415 410H311L287
286Z" />
<glyph unicode="$" glyph-name="dollar" horiz-adv-x="686" d="M150 238Q167 222 188 207T233 180T282 161T331 154Q347 154 363 158T393 172T416 195T425 227Q425 248 412 261T376 284T326 302T268 322Q239 333 211 348T160 385T125 440T111 518Q111 562 125
603T167 676T231 729T315 753V874H408V753Q456 748 502 735T590 695L516 550Q489 572 456 585T388 599Q355 599 329 586T303 543Q303 526 313 513T339 491T371 476T401 465Q444 451 483 435T552 394T600 334T618 246Q618 193 604 153T562 84T496 34T408 2V-123H315V-4Q282
-4 250 2T186 21Q154 33 124 48T68 87L150 238Z" />
<glyph unicode="%" glyph-name="percent" horiz-adv-x="975" d="M225 764Q267 764 304 753T370 718T414 660T431 581Q431 535 415 501T371 443T306 407T225 395Q182 395 145 407T79 442T35 500T19 581Q19 626 35 660T80 717T145 752T225 764ZM225 664Q190 664
165 639T140 579Q140 544 165 520T225 495Q260 495 285 519T310 579Q310 614 285 639T225 664ZM755 754L317 0H219L657 754H755ZM750 359Q792 359 829 348T895 313T939 255T956 176Q956 130 940 96T896 38T831 2T750 -10Q707 -10 670 2T604 37T560 95T544 176Q544
221 560 255T605 312T670 347T750 359ZM750 259Q715 259 690 234T665 174Q665 139 690 115T750 90Q785 90 810 114T835 174Q835 209 810 234T750 259Z" />
<glyph unicode="&amp;" glyph-name="ampersand" horiz-adv-x="848" d="M312 315Q300 307 288 298T265 278T248 254T241 225Q241 208 248 195T268 174T296 161T326 156Q354 156 381 164T431 187L312 315ZM393 479Q419 493 441 516T463 571Q463 600 445 620T397
641Q371 641 353 624T334 579Q334 565 340 552T354 525T373 501T393 479ZM538 70Q481 32 415 6T280 -20Q231 -20 187 -6T110 36T58 104T38 196Q38 238 50 270T83 327T134 371T200 406L218 414L202 436Q193 448 184 461T166 490T153 525T148 567Q148 616 167 654T219
719T294 760T382 774Q427 774 469 760T545 720T598 656T618 569Q618 534 607 507T577 458T533 420T478 388L573 288Q601 313 626 339T672 395L783 289L688 187L679 178L848 0H603L538 70Z" />
<glyph unicode="&apos;" glyph-name="quotesingle" horiz-adv-x="250" d="M210 754L183 423H67L40 754H210Z" />
<glyph unicode="(" glyph-name="parenleft" horiz-adv-x="352" d="M303 728Q272 678 251 623T215 510T195 392T188 274Q188 220 194 160T215 40T251 -76T303 -178L194 -240Q155 -189 127 -124T82 11T57 152T49 286Q49 348 58 415T85 549T130 677T194 790L303 728Z" />
<glyph unicode=")" glyph-name="parenright" horiz-adv-x="352" d="M158 790Q195 739 222 678T267 550T294 416T303 286Q303 223 295 152T270 11T225 -124T158 -240L49 -178Q79 -133 100 -77T136 40T157 160T164 274Q164 332 158 391T137 509T102 623T49 728L158 790Z" />
<glyph unicode="*" glyph-name="asterisk" horiz-adv-x="483" d="M286 754L281 647L370 703L415 627L320 577L414 525L369 450L281 507L285 406H195L201 506L116 452L71 528L161 578L68 629L114 705L201 650L196 754H286Z" />
<glyph unicode="+" glyph-name="plus" horiz-adv-x="686" d="M268 513H418V332H599V182H418V0H268V182H87V332H268V513Z" />
<glyph unicode="," glyph-name="comma" horiz-adv-x="343" d="M323 191L139 -141H22L152 191H323Z" />
<glyph unicode="-" glyph-name="hyphen" horiz-adv-x="392" d="M339 396V246H53V396H339Z" />
<glyph unicode="." glyph-name="period" horiz-adv-x="343" d="M172 214Q196 214 217 205T255 180T280 143T289 97Q289 73 280 52T255 15T218 -10T172 -20Q148 -20 127 -11T89 14T64 51T55 97Q55 121 64 142T89 180T126 205T172 214Z" />
<glyph unicode="/" glyph-name="slash" horiz-adv-x="579" d="M552 830L170 -93H27L409 830H552Z" />
<glyph unicode="0" glyph-name="zero" horiz-adv-x="686" d="M343 784Q427 784 487 748T587 654T644 523T663 377Q663 303 645 231T587 100T488 6T343 -30Q259 -30 199 6T99 100T42 230T23 377Q23 450 41 523T99 654T198 748T343 784ZM343 611Q305 611 281 585T243
522T224 445T218 378Q218 351 223 311T243 233T281 170T343 143Q381 143 405 169T443 233T462 310T468 378Q468 405 463 445T443 522T405 585T343 611Z" />
<glyph unicode="1" glyph-name="one" horiz-adv-x="686" d="M161 588V754H465V0H269V588H161Z" />
<glyph unicode="2" glyph-name="two" horiz-adv-x="686" d="M639 166V0H33L341 335Q374 371 400 419T427 520Q427 538 421 555T404 587T376 609T341 618Q301 618 280 591T259 526Q259 510 262 494H46Q48 559 69 612T128 704T219 763T340 784Q399 784 452 765T544
712T607 627T631 516Q631 475 623 443T599 382T561 327T509 275L392 166H639Z" />
<glyph unicode="3" glyph-name="three" horiz-adv-x="686" d="M73 537Q79 597 102 642T161 719Q197 751 246 767T353 784Q404 784 448 770T524 728T575 659T594 565Q594 520 575 477T515 410Q545 402 568 382T606 336T630 280T638 220Q638 158 614 112T548 34T454
-14T345 -30Q280 -30 223 -11T120 55Q103 72 87 94T59 142T40 194T34 245H234Q234 200 263 169T339 138Q384 138 414 165T444 239Q444 260 436 278T413 310T380 332T340 340Q331 340 323 338T306 334V465H326Q364 465 388 487T412 548Q412 583 390 603T335 624Q297
624 276 599T255 537H73Z" />
<glyph unicode="4" glyph-name="four" horiz-adv-x="686" d="M655 306V156H564V0H382V156H16V281L307 754H564V306H655ZM382 596H380L204 306H382V596Z" />
<glyph unicode="5" glyph-name="five" horiz-adv-x="689" d="M304 588L291 502L353 507Q411 511 460 492T544 435T600 347T620 237Q620 177 595 124T523 33Q478 -3 419 -16T303 -30Q238 -30 175 -14T57 38L86 223Q130 184 183 160T296 136Q319 136 341 144T379
166T406 201T416 247Q416 281 401 305T363 345T310 368T251 376Q213 376 177 369T107 345L173 754H565V588H304Z" />
<glyph unicode="6" glyph-name="six" horiz-adv-x="686" d="M528 754L314 499L316 497Q342 508 367 514T421 520Q476 520 521 498T597 439T646 355T663 255Q663 186 637 133T566 43T462 -11T339 -30Q284 -30 226 -15T124 35Q79 73 51 128T23 242Q23 283 33 323T59
401T98 474T144 542L306 754H528ZM338 124Q364 124 386 134T424 161T450 200T459 249Q459 274 450 296T425 336T386 362T338 372Q312 372 290 363T251 336T224 297T214 249Q214 223 224 201T250 161T289 134T338 124Z" />
<glyph unicode="7" glyph-name="seven" horiz-adv-x="686" d="M71 588V754H690L257 0H42L386 588H71Z" />
<glyph unicode="8" glyph-name="eight" horiz-adv-x="686" d="M343 648Q326 648 311 642T284 624T267 597T260 563Q260 545 266 530T284 503T310 485T343 478Q360 478 375 484T401 502T419 529T426 563Q426 581 420 596T402 623T375 641T343 648ZM343 317Q324
317 308 310T279 290T260 260T253 223Q253 204 260 187T279 158T307 138T343 131Q362 131 378 138T407 157T426 187T433 223Q433 242 426 259T407 289T379 309T343 317ZM343 784Q391 784 437 771T520 731T578 664T600 569Q600 539 591 512T567 463T529 424T481
398V396Q549 373 590 323T631 198Q631 139 605 97T536 26T443 -16T343 -30Q294 -30 243 -17T150 25T82 96T55 198Q55 273 96 323T205 396V398Q179 407 157 423T120 462T95 512T86 569Q86 623 108 663T166 730T248 770T343 784Z" />
<glyph unicode="9" glyph-name="nine" horiz-adv-x="686" d="M158 0L373 254L371 256Q345 245 320 239T265 233Q209 233 165 255T89 314T40 399T23 499Q23 568 49 621T120 711T223 765T347 784Q402 784 460 769T562 719Q608 682 635 627T663 511Q663 470 653 430T627
352T588 279T542 211L381 0H158ZM348 629Q322 629 300 620T262 593T236 554T227 505Q227 479 236 457T261 417T300 391T348 381Q374 381 396 390T436 417T463 456T473 505Q473 531 463 553T436 593T397 619T348 629Z" />
<glyph unicode=":" glyph-name="colon" horiz-adv-x="343" d="M172 214Q196 214 217 205T255 180T280 143T289 97Q289 73 280 52T255 15T218 -10T172 -20Q148 -20 127 -11T89 14T64 51T55 97Q55 121 64 142T89 180T126 205T172 214ZM172 551Q196 551 217 542T255
517T280 480T289 434Q289 410 280 389T255 352T218 327T172 317Q148 317 127 326T89 351T64 388T55 434Q55 458 64 479T89 517T126 542T172 551Z" />
<glyph unicode=";" glyph-name="semicolon" horiz-adv-x="343" d="M309 191L125 -141H8L138 191H309ZM218 551Q242 551 263 542T301 517T326 480T335 434Q335 410 326 389T301 352T264 327T218 317Q194 317 173 326T135 351T110 388T101 434Q101 458 110 479T135
517T172 542T218 551Z" />
<glyph unicode="&lt;" glyph-name="less" horiz-adv-x="686" d="M99 317L588 499V349L314 258V256L588 165V15L99 197V317Z" />
<glyph unicode="=" glyph-name="equal" horiz-adv-x="686" d="M599 452V302H87V452H599ZM599 212V62H87V212H599Z" />
<glyph unicode="&gt;" glyph-name="greater" horiz-adv-x="686" d="M588 197L99 15V165L373 256V258L99 349V499L588 317V197Z" />
<glyph unicode="?" glyph-name="question" horiz-adv-x="595" d="M186 446Q209 441 228 441Q249 441 272 447T314 465T345 496T357 540Q357 571 337 593T284 615Q249 615 232 593T214 539H15Q15 596 38 640T99 713T187 758T289 774Q337 774 382 759T464 712Q502
680 526 635T550 539Q550 497 536 463T498 401T440 355T369 323V252H186V446ZM281 214Q305 214 326 205T364 180T389 143T398 97Q398 73 389 52T364 15T327 -10T281 -20Q257 -20 236 -11T198 14T173 51T164 97Q164 121 173 142T198 180T235 205T281 214Z" />
<glyph unicode="@" glyph-name="at" horiz-adv-x="740" d="M280 354Q280 317 299 290T356 262Q379 262 396 272T424 298T441 333T450 372Q455 415 435 442T378 469Q357 469 339 459T308 433T288 396T280 354ZM542 310Q540 301 538 289T535 267T539 250T554 244Q567
245 583 260T614 300T639 354T652 418Q655 481 635 530T579 612T492 663T384 680Q321 680 269 658T179 595T120 499T99 377Q99 308 122 252T185 157T281 96T401 74Q464 74 510 86T580 114L662 48Q609 21 542 1T393 -20Q312 -20 242 10T119 93T36 218T5 377Q5 462
34 534T116 660T237 743T387 774Q453 774 512 753T622 687Q673 642 703 584T734 453Q734 390 718 335T672 240Q636 192 595 171T518 152Q497 153 480 169T456 210Q436 187 405 170T328 152Q295 152 265 166T211 206T174 265T160 338Q160 384 174 427T215 504T279
558T364 579Q402 579 433 564T487 517L497 570H592L542 310Z" />
<glyph unicode="A" glyph-name="A" horiz-adv-x="781" d="M256 131L204 0H-4L286 754H500L784 0H575L526 131H256ZM393 521H391L310 281H473L393 521Z" />
<glyph unicode="B" glyph-name="B" horiz-adv-x="677" d="M260 150H285Q307 150 334 151T385 159T425 182T441 230Q441 264 425 281T385 305T332 312T280 312H260V150ZM64 0V754H344Q394 754 435 744T506 710T552 650T568 558Q568 507 550 467T485 404V402Q566
391 602 340T639 210Q639 151 616 111T554 46T467 11T366 0H64ZM260 458H282Q301 458 320 460T354 470T378 492T388 531Q388 557 378 571T351 593T314 602T274 604H260V458Z" />
<glyph unicode="C" glyph-name="C" horiz-adv-x="660" d="M603 501Q573 542 528 563T431 584Q386 584 349 568T286 524T245 457T230 375Q230 330 244 293T286 228T350 186T434 170Q482 170 527 191T603 250V15Q554 0 515 -10T430 -20Q351 -20 279 8T147 91Q84
148 55 219T26 376Q26 454 54 525T137 652Q193 709 268 741T424 774Q472 774 515 764T603 736V501Z" />
<glyph unicode="D" glyph-name="D" horiz-adv-x="752" d="M64 754H342Q421 754 490 725T612 645T694 525T725 377Q725 297 695 229T612 109T490 29T342 0H64V754ZM260 166H304Q348 166 387 178T456 216T503 282T521 377Q521 428 505 467T461 533T393 574T306 588H260V166Z"
/>
<glyph unicode="E" glyph-name="E" horiz-adv-x="550" d="M260 588V462H481V296H260V166H493V0H64V754H493V588H260Z" />
<glyph unicode="F" glyph-name="F" horiz-adv-x="542" d="M260 588V462H475V296H260V0H64V754H497V588H260Z" />
<glyph unicode="G" glyph-name="G" horiz-adv-x="842" d="M816 421Q815 380 813 342T802 266T779 194T739 123Q683 45 603 10T428 -25Q339 -25 265 4T138 85T56 211T26 373Q26 465 55 540T139 668T268 750T435 779Q552 779 639 727T775 568L589 490Q569 544 528
577T426 610Q378 610 341 589T280 534T243 458T230 372Q230 328 243 286T281 210T343 157T429 136Q493 136 537 168T587 267H427V421H816Z" />
<glyph unicode="H" glyph-name="H" horiz-adv-x="803" d="M543 463V754H739V0H543V309H260V0H64V754H260V463H543Z" />
<glyph unicode="I" glyph-name="I" horiz-adv-x="324" d="M260 0H64V754H260V0Z" />
<glyph unicode="J" glyph-name="J" horiz-adv-x="489" d="M429 754V245Q429 185 414 137T367 53T289 -1T179 -20Q116 -20 68 9T-15 91L98 210Q115 187 136 167T177 146Q199 146 210 157T227 186T232 222T233 257V754H429Z" />
<glyph unicode="K" glyph-name="K" horiz-adv-x="758" d="M499 754H742L442 397L769 0H515L262 327H260V0H64V754H260V443H262L499 754Z" />
<glyph unicode="L" glyph-name="L" horiz-adv-x="495" d="M260 166H495V0H64V754H260V166Z" />
<glyph unicode="M" glyph-name="M" horiz-adv-x="983" d="M147 754H340L493 351L655 754H850L964 0H768L713 434H711L530 0H452L279 434H277L214 0H19L147 754Z" />
<glyph unicode="N" glyph-name="N" horiz-adv-x="881" d="M64 754H260L619 293H621V754H817V0H621L262 462H260V0H64V754Z" />
<glyph unicode="O" glyph-name="O" horiz-adv-x="887" d="M443 779Q524 779 599 751T733 671T825 548T860 391Q860 299 829 223T743 92T611 6T443 -25Q352 -25 276 5T144 91T57 223T26 391Q26 476 60 547T153 670T286 750T443 779ZM443 589Q399 589 361 573T293
529T247 465T230 390Q230 341 247 300T293 229T360 182T443 165Q487 165 525 182T593 229T639 300T656 390Q656 429 639 465T593 528T526 572T443 589Z" />
<glyph unicode="P" glyph-name="P" horiz-adv-x="661" d="M64 754H364Q425 754 475 740T562 695T618 618T638 506Q638 372 569 311T371 250H260V0H64V754ZM260 408H293Q320 408 345 409T390 419T422 446T434 500Q434 536 423 555T392 584T347 594T293 596H260V408Z" />
<glyph unicode="Q" glyph-name="Q" horiz-adv-x="887" d="M621 263Q638 287 647 316T656 374Q656 416 640 455T595 524T527 571T444 589Q400 589 361 573T293 529T247 465T230 390Q230 341 247 300T293 229T361 182T444 165Q475 165 504 175L383 295L568 318L621
263ZM710 -47L650 24Q606 -2 555 -13T443 -25Q352 -25 276 5T144 91T57 223T26 391Q26 476 60 547T153 670T286 750T443 779Q531 779 607 751T739 669T828 542T860 375Q860 300 836 235T763 110L890 -19L710 -47Z" />
<glyph unicode="R" glyph-name="R" horiz-adv-x="680" d="M691 0H447L262 290H260V0H64V754H357Q413 754 461 741T544 699T599 626T619 522Q619 483 609 448T577 384T525 336T454 309L691 0ZM260 416H279Q303 416 327 419T370 432T402 460T415 510Q415 541 403
559T371 588T327 601T279 604H260V416Z" />
<glyph unicode="S" glyph-name="S" horiz-adv-x="616" d="M478 560Q451 583 418 596T348 610Q334 610 320 606T293 594T272 575T264 547Q264 530 273 519T295 499T323 485T351 475L401 460Q440 448 474 432T533 391T572 334T587 254Q587 198 571 144T509 51Q464
13 408 -3T295 -20Q223 -20 156 2T30 66L114 224Q151 192 194 169T288 146Q305 146 322 150T352 164T374 187T383 222Q383 243 371 257T340 281T301 297T264 308Q218 321 181 335T116 373T75 431T60 521Q60 578 79 625T133 705T215 756T320 774Q348 774 379 770T441
757T501 738T556 712L478 560Z" />
<glyph unicode="T" glyph-name="T" horiz-adv-x="533" d="M364 0H168V588H6V754H526V588H364V0Z" />
<glyph unicode="U" glyph-name="U" horiz-adv-x="778" d="M718 754V330Q718 294 716 258T707 188T683 123T639 64Q615 41 586 25T524 -1T457 -15T389 -20Q356 -20 322 -16T255 -1T193 25T139 64Q111 91 95 122T72 188T62 258T60 330V754H256V357Q256 320 259 284T275
218T315 170T389 152Q436 152 463 170T503 217T519 283T522 357V754H718Z" />
<glyph unicode="V" glyph-name="V" horiz-adv-x="761" d="M380 296L563 754H776L454 0H302L-15 754H198L380 296Z" />
<glyph unicode="W" glyph-name="W" horiz-adv-x="1117" d="M320 267H322L480 754H636L784 267H786L928 754H1132L891 0H691L559 437H557L409 0H210L-15 754H189L320 267Z" />
<glyph unicode="X" glyph-name="X" horiz-adv-x="789" d="M46 754H287L402 559L517 754H758L517 403L796 0H560L402 246L229 0H-8L287 403L46 754Z" />
<glyph unicode="Y" glyph-name="Y" horiz-adv-x="714" d="M-19 754H216L357 549L498 754H733L455 362V0H259V362L-19 754Z" />
<glyph unicode="Z" glyph-name="Z" horiz-adv-x="707" d="M657 166V0H11L368 588H72V754H696L341 166H657Z" />
<glyph unicode="[" glyph-name="bracketleft" horiz-adv-x="350" d="M191 -134H298V-240H52V790H298V684H191V-134Z" />
<glyph unicode="\" glyph-name="backslash" horiz-adv-x="579" d="M171 830L552 0H410L27 830H171Z" />
<glyph unicode="]" glyph-name="bracketright" horiz-adv-x="350" d="M159 684H52V790H298V-240H52V-134H159V684Z" />
<glyph unicode="^" glyph-name="asciicircum" horiz-adv-x="686" d="M103 407L283 784H403L583 407L469 340L343 609L217 340L103 407Z" />
<glyph unicode="_" glyph-name="underscore" horiz-adv-x="500" d="M0 -188V-113H500V-188H0Z" />
<glyph unicode="`" glyph-name="grave" horiz-adv-x="402" d="M186 820L327 648L246 589L75 740L186 820Z" />
<glyph unicode="a" glyph-name="a" horiz-adv-x="682" d="M328 372Q300 372 279 363T242 338T219 301T211 256Q211 207 241 174T328 141Q384 141 414 174T445 256Q445 280 437 301T414 337T378 362T328 372ZM621 0H439V57H437Q413 19 370 1T282 -17Q225 -17 178
5T96 64T42 152T23 257Q23 312 42 361T94 448T175 508T280 530Q325 530 367 514T439 463V513H621V0Z" />
<glyph unicode="b" glyph-name="b" horiz-adv-x="682" d="M54 830H236V463Q265 497 307 513T395 530Q452 530 499 508T580 449T633 362T652 257Q652 201 633 152T580 65T498 5T393 -17Q348 -17 306 1T238 57H236V0H54V830ZM347 372Q319 372 298 363T261 338T238
301T230 256Q230 207 260 174T347 141Q403 141 433 174T464 256Q464 280 456 301T433 337T397 362T347 372Z" />
<glyph unicode="c" glyph-name="c" horiz-adv-x="483" d="M430 346Q410 361 386 371T336 382Q310 382 287 373T247 346T221 307T211 257Q211 201 246 166T339 131Q363 131 387 140T430 166V12Q400 -3 368 -10T302 -17Q245 -17 195 3T106 59T45 144T23 251Q23 313
45 364T106 452T197 509T310 530Q342 530 372 523T430 500V346Z" />
<glyph unicode="d" glyph-name="d" horiz-adv-x="682" d="M446 57H444Q420 19 377 1T289 -17Q232 -17 185 5T103 64T49 152T30 257Q30 312 49 361T101 448T182 508T287 530Q332 530 374 514T446 463V830H628V0H446V57ZM335 372Q307 372 286 363T249 338T226 301T218
256Q218 207 248 174T335 141Q391 141 421 174T452 256Q452 280 444 301T421 337T385 362T335 372Z" />
<glyph unicode="e" glyph-name="e" horiz-adv-x="610" d="M418 331Q411 368 382 390T315 412Q275 412 245 392T207 331H418ZM587 226H204Q204 170 232 141T318 112Q347 112 368 122T405 159H580Q569 114 544 81T483 26T405 -6T319 -17Q255 -17 201 1T107 53T45
139T22 256Q22 320 43 371T101 457T191 511T306 530Q373 530 425 510T513 453T568 364T587 245V226Z" />
<glyph unicode="f" glyph-name="f" horiz-adv-x="388" d="M260 0H78V363H14V513H78V578Q78 605 79 628T85 673T100 716T130 758Q164 798 210 819T309 840Q330 840 349 836T387 822V665Q371 672 356 677T323 682Q288 682 274 661T260 596V513H387V363H260V0Z" />
<glyph unicode="g" glyph-name="g" horiz-adv-x="677" d="M623 50Q623 -32 603 -90T545 -185T452 -239T326 -256Q282 -256 233 -245T142 -209T70 -148T34 -60H238Q242 -74 251 -83T272 -99Q296 -111 324 -111Q361 -111 383 -100T419 -69T436 -22T441 36V60Q406
25 368 8T278 -10Q222 -10 176 10T96 65T44 148T25 252Q25 308 44 358T97 447T180 507T288 530Q333 530 372 514T439 459H441V513H623V50ZM330 376Q302 376 281 367T244 342T221 305T213 260Q213 211 243 178T330 145Q386 145 416 178T447 260Q447 284 439 305T416
341T380 366T330 376Z" />
<glyph unicode="h" glyph-name="h" horiz-adv-x="661" d="M242 830V448H244Q276 490 315 510T408 530Q457 530 493 515T553 471T589 403T601 314V0H419V263Q419 285 417 307T406 346T381 374T337 385Q310 385 292 375T263 347T247 307T242 263V0H60V830H242Z" />
<glyph unicode="i" glyph-name="i" horiz-adv-x="302" d="M242 0H60V513H242V0ZM151 812Q172 812 190 804T223 782T245 750T253 710Q253 689 245 671T223 638T191 616T151 608Q130 608 112 616T79 638T57 670T49 710Q49 731 57 749T79 782T111 804T151 812Z" />
<glyph unicode="j" glyph-name="j" horiz-adv-x="302" d="M242 -256H60V513H242V-256ZM151 812Q172 812 190 804T223 782T245 750T253 710Q253 689 245 671T223 638T191 616T151 608Q130 608 112 616T79 638T57 670T49 710Q49 731 57 749T79 782T111 804T151 812Z" />
<glyph unicode="k" glyph-name="k" horiz-adv-x="688" d="M242 328L431 513H680L423 276L696 0H441L242 209V0H60V830H242V328Z" />
<glyph unicode="l" glyph-name="l" horiz-adv-x="302" d="M242 0H60V830H242V0Z" />
<glyph unicode="m" glyph-name="m" horiz-adv-x="989" d="M242 449H244Q276 492 316 511T406 530Q462 530 507 507T581 432Q607 480 654 505T755 530Q804 530 837 515T891 473T921 409T930 327V0H748V245Q748 265 747 289T740 335T718 370T673 385Q641 385 624
372T598 338T588 293T586 245V0H404V245Q404 266 403 291T394 338T370 374T323 389Q293 389 277 375T253 339T244 292T242 245V0H60V513H242V449Z" />
<glyph unicode="n" glyph-name="n" horiz-adv-x="661" d="M242 447H244Q276 494 315 512T408 530Q460 530 496 515T556 471T590 404T601 317V0H419V250Q419 268 419 291T412 336T388 371T337 385Q309 385 291 376T262 350T247 312T242 266V0H60V513H242V447Z" />
<glyph unicode="o" glyph-name="o" horiz-adv-x="662" d="M331 530Q393 530 449 512T547 459T615 373T640 256Q640 191 615 140T548 54T449 1T331 -17Q269 -17 214 1T115 54T47 139T22 256Q22 322 47 373T114 459T213 512T331 530ZM331 372Q303 372 282 363T245
338T222 301T214 256Q214 207 244 174T331 141Q387 141 417 174T448 256Q448 280 440 301T417 337T381 362T331 372Z" />
<glyph unicode="p" glyph-name="p" horiz-adv-x="682" d="M236 455H238Q263 493 305 511T393 530Q450 530 498 508T580 448T633 360T652 255Q652 199 633 150T581 64T500 5T395 -17Q350 -17 308 -1T236 49V-256H54V513H236V455ZM347 372Q319 372 298 363T261 338T238
301T230 256Q230 207 260 174T347 141Q403 141 433 174T464 256Q464 280 456 301T433 337T397 362T347 372Z" />
<glyph unicode="q" glyph-name="q" horiz-adv-x="682" d="M628 -256H446V49Q417 15 375 -1T287 -17Q230 -17 183 4T101 63T49 150T30 255Q30 310 49 359T102 447T184 507T289 530Q334 530 377 512T444 455H446V513H628V-256ZM335 372Q307 372 286 363T249 338T226
301T218 256Q218 207 248 174T335 141Q391 141 421 174T452 256Q452 280 444 301T421 337T385 362T335 372Z" />
<glyph unicode="r" glyph-name="r" horiz-adv-x="453" d="M242 429H244Q270 477 313 498T410 520H445V345Q426 356 408 359T368 362Q330 362 306 350T267 318T248 269T242 207V0H60V513H242V429Z" />
<glyph unicode="s" glyph-name="s" horiz-adv-x="513" d="M399 381Q378 392 351 399T301 406Q293 406 283 404T265 398T250 388T244 371Q244 358 253 350T276 338T303 331T326 326Q358 320 385 309T432 279T463 236T475 174Q475 123 454 87T399 28T321 -6T233
-17Q178 -17 126 -2T26 42L92 169Q106 159 124 150T161 134T199 122T236 117Q245 117 255 119T273 126T287 138T293 156Q293 171 283 179T257 193T221 203T179 213Q158 219 138 227T101 251T75 290T65 348Q65 395 84 429T136 486T208 519T291 530Q335 530 377 523T460
497L399 381Z" />
<glyph unicode="t" glyph-name="t" horiz-adv-x="360" d="M259 0H77V363H18V513H77V667H259V513H362V363H259V0Z" />
<glyph unicode="u" glyph-name="u" horiz-adv-x="659" d="M239 513V239Q239 215 242 195T256 159T284 136T330 128Q358 128 376 136T404 159T417 194T421 239V513H603V204Q603 141 582 99T524 31T438 -6T330 -17Q272 -17 222 -6T136 30T78 98T57 204V513H239Z" />
<glyph unicode="v" glyph-name="v" horiz-adv-x="623" d="M312 250L434 513H638L370 0H254L-15 513H189L312 250Z" />
<glyph unicode="w" glyph-name="w" horiz-adv-x="996" d="M315 235L444 513H552L681 235L810 513H1011L743 0H625L498 281L371 0H253L-15 513H187L315 235Z" />
<glyph unicode="x" glyph-name="x" horiz-adv-x="712" d="M33 513H264L356 407L448 513H683L471 278L727 0H488L356 152L224 0H-15L241 278L33 513Z" />
<glyph unicode="y" glyph-name="y" horiz-adv-x="654" d="M-15 513H195L332 250L466 513H673L262 -256H58L233 70L-15 513Z" />
<glyph unicode="z" glyph-name="z" horiz-adv-x="559" d="M528 151V0H8L249 362H40V513H552L312 151H528Z" />
<glyph unicode="{" glyph-name="braceleft" horiz-adv-x="352" d="M36 331Q43 331 55 331T78 336T98 352T106 384V637Q106 677 118 706T149 753T186 781T219 790H316V670H291Q274 670 265 665T251 651T246 632T245 611V386Q245 354 235 334T209 303T178 287T149
280V278Q161 276 177 273T209 258T234 224T245 161V-61Q245 -72 245 -82T250 -101T264 -115T291 -120H316V-240H219Q205 -240 186 -231T149 -204T119 -157T106 -89V164Q106 190 98 203T79 221T55 227T36 227V331Z" />
<glyph unicode="|" glyph-name="bar" horiz-adv-x="579" d="M365 0H215V830H365V0Z" />
<glyph unicode="}" glyph-name="braceright" horiz-adv-x="352" d="M316 227Q308 227 297 227T274 222T254 203T246 164V-89Q246 -128 234 -156T203 -203T166 -231T133 -240H36V-120H61Q78 -120 87 -115T101 -102T106 -83T107 -61V161Q107 201 117 223T143 257T174
272T203 278V280Q191 282 175 287T143 303T118 334T107 386V611Q107 621 107 632T102 651T88 664T61 670H36V790H133Q146 790 165 781T203 754T233 706T246 637V384Q246 363 254 352T273 337T296 332T316 331V227Z" />
<glyph unicode="~" glyph-name="asciitilde" horiz-adv-x="686" d="M637 276Q624 254 607 227T568 176T520 136T462 120Q425 120 395 136T339 168Q305 188 278 207T227 226Q217 226 208 218T190 196T175 169T162 142L49 238Q65 257 83 284T122 336T168 378T225
395Q256 395 290 378T353 339Q377 320 407 305T461 289Q471 289 480 298T498 321T513 348T523 373L637 276Z" />
</font>
</defs>
</svg>
