<?xml version="1.0" standalone="no"?> <!DOCTYPE svg PUBLIC "-//W3C//DTD SVG 1.0//EN" "http://www.w3.org/TR/2001/REC-SVG-20010904/DTD/svg10.dtd" > <svg xmlns="http://www.w3.org/2000/svg" width="100%" height="100%">
<defs >
<font id="osp_helvetica_serif02" horiz-adv-x="493" ><font-face
    font-family="OSP_helvetica_serif"
    units-per-em="1000"
    panose-1="2 11 5 4 2 2 2 2 2 4"
    ascent="900"
    descent="-300"
    alphabetic="0" />
<missing-glyph horiz-adv-x="500" d="M468 977V0H67V977H468ZM401 910H134V67H401V910Z" />
<glyph unicode=" " glyph-name="space" horiz-adv-x="278" />
<glyph unicode="!" glyph-name="exclam" horiz-adv-x="278" d="M208 729V391L186 168H147L125 391V729H208ZM208 104V0H124V104H208Z" />
<glyph unicode="&quot;" glyph-name="quotedbl" horiz-adv-x="355" d="M52 709H145V598L118 464H79L52 598V709ZM212 709H305V598L278 464H239L212 598V709Z" />
<glyph unicode="#" glyph-name="numbersign" horiz-adv-x="556" d="M485 697L449 501H542V433H436L405 259H510V191H393L354 -20H278L316 191H192L153 -20H77L115 191H14V259H128L159 433H51V501H172L208 697H284L248 501H373L408 697H485ZM360 433H236L204 259H329L360
433Z" />
<glyph unicode="$" glyph-name="dollar" horiz-adv-x="556" d="M518 195Q518 99 463 42T302 -23V-126H243V-23Q142 -16 88 39T33 191V208H112Q114 188 114 182T118 157T124 131T134 108T150 86T172 69T203 55T243 46V318Q150 346 117 370Q46 421 46 516Q46 601
96 652T243 716V770H302V716Q393 709 444 657T496 519H417Q416 574 384 609T302 646V397Q306 396 332 389T372 377T411 361T452 337T485 304T510 256T518 195ZM243 405V645Q187 637 157 606T127 526Q127 436 243 405ZM302 46Q369 54 402 91T436 183Q436 232 408
259T302 309V46Z" />
<glyph unicode="%" glyph-name="percent" horiz-adv-x="889" d="M199 685Q271 685 320 635T370 512Q370 443 320 393T200 343T80 393T29 514T79 634T199 685ZM199 615Q158 615 128 586T98 514Q98 473 128 443T200 413Q241 413 271 442T301 513Q301 556 272 585T199
615ZM609 709H675L280 -20H214L609 709ZM688 322Q760 322 809 272T859 150Q859 81 809 31T689 -19Q618 -19 568 31T518 152T568 272T688 322ZM688 252Q647 252 617 223T587 152Q587 110 617 81T689 51Q730 51 760 80T790 150Q790 193 761 222T688 252Z" />
<glyph unicode="&amp;" glyph-name="ampersand" horiz-adv-x="667" d="M466 78Q455 68 443 56T412 29T371 4T320 -15T257 -23Q165 -23 109 31T52 176Q52 244 86 289T214 389Q167 448 150 482T133 552Q133 618 183 663T304 709T421 665T467 552Q467 498 437 460T329
378L462 215Q493 270 493 330V334H573Q573 240 515 151L637 0H528L466 78ZM285 431Q344 468 366 494T388 554Q388 591 364 615T301 639Q262 639 239 616T215 553Q215 526 227 505T285 431ZM418 137L258 337Q190 294 163 260T136 183Q136 130 174 93T267 55Q340
55 418 137Z" />
<glyph unicode="&apos;" glyph-name="quotesingle" horiz-adv-x="191" d="M48 709H142V598L115 464H75L48 598V709Z" />
<glyph unicode="(" glyph-name="parenleft" horiz-adv-x="333" d="M236 729H291Q154 508 154 259Q154 11 291 -212H236Q161 -114 117 13T73 259T117 504T236 729Z" />
<glyph unicode=")" glyph-name="parenright" horiz-adv-x="333" d="M93 -212H38Q175 9 175 258Q175 506 38 729H93Q168 631 212 504T256 258T212 13T93 -212Z" />
<glyph unicode="*" glyph-name="asterisk" horiz-adv-x="389" d="M160 729H223L218 617L324 655L343 596L235 566L305 477L254 441L192 534L129 441L79 477L148 566L40 596L59 655L165 617L160 729Z" />
<glyph unicode="+" glyph-name="plus" horiz-adv-x="584" d="M534 267V197H327V-10H257V197H50V267H257V474H327V267H534Z" />
<glyph unicode="," glyph-name="comma" horiz-adv-x="278" d="M87 104H192V-16Q192 -147 87 -147V-109Q122 -108 134 -89T147 -18V0H87V104Z" />
<glyph unicode="-" glyph-name="hyphen" horiz-adv-x="333" d="M284 312V240H46V312H284Z" />
<glyph unicode="." glyph-name="period" horiz-adv-x="278" d="M191 104V0H87V104H191Z" />
<glyph unicode="/" glyph-name="slash" horiz-adv-x="278" d="M229 729H284L47 -20H-8L229 729Z" />
<glyph unicode="0" glyph-name="zero" horiz-adv-x="556" d="M43 343Q43 432 58 500T96 606T151 669T212 701T275 709Q507 709 507 337Q507 162 448 70T275 -23Q161 -23 102 70T43 343ZM417 631T275 631T133 342Q133 50 273 50Q347 50 382 122T417 345Q417 631 275 631Z" />
<glyph unicode="1" glyph-name="one" horiz-adv-x="611" d="M441 81V0H347V81H441ZM259 81V0H165V81H259ZM259 505H102V568Q204 581 235 604T289 709H347V0H259V505Z" />
<glyph unicode="2" glyph-name="two" horiz-adv-x="556" d="M506 168V87H412V168H506ZM50 463Q57 709 284 709Q385 709 448 651T511 501Q511 369 361 287L261 233Q196 198 168 165T133 87H506V0H34Q40 117 81 180T233 307L325 359Q421 414 421 499Q421 556 381
594T281 632Q148 632 138 463H50Z" />
<glyph unicode="3" glyph-name="three" horiz-adv-x="556" d="M270 632Q194 632 166 591T135 480H47Q52 709 269 709Q370 709 427 657T485 514Q485 406 386 367Q450 345 478 306T506 198Q506 97 441 37T266 -23Q48 -23 32 206H120Q125 129 161 92T269 55Q338 55
377 92T416 197Q416 326 269 326L232 325H221V400Q316 402 355 424T395 511Q395 567 362 599T270 632Z" />
<glyph unicode="4" glyph-name="four" horiz-adv-x="556" d="M509 81V0H415V81H509ZM327 81V0H233V81H327ZM327 170H28V263L350 709H415V249H520V170H415V0H327V170ZM327 249V559L105 249H327Z" />
<glyph unicode="5" glyph-name="five" horiz-adv-x="556" d="M476 709V622H181L153 424Q212 467 284 467Q386 467 449 402T513 231Q513 119 445 48T270 -23Q229 -23 195 -14T138 7T97 40T69 76T51 115T40 148T35 174H123Q154 55 268 55Q340 55 381 99T423 219Q423
298 381 343T268 389Q227 389 198 375T138 323H57L110 709H476Z" />
<glyph unicode="6" glyph-name="six" horiz-adv-x="556" d="M43 323Q43 417 60 488T102 601T163 667T230 701T297 709Q378 709 431 660T498 524H410Q399 575 368 603T291 631Q215 631 175 562T133 362Q191 441 296 441Q391 441 452 378T513 216Q513 112 448 45T281
-23Q43 -23 43 323ZM285 363Q220 363 179 322T138 214Q138 146 179 101T282 55Q343 55 383 98T423 209Q423 280 386 321T285 363Z" />
<glyph unicode="7" glyph-name="seven" horiz-adv-x="556" d="M140 622V541H46V622H140ZM520 709V635Q400 475 331 323T232 0H138Q178 175 240 308T429 622H46V709H520Z" />
<glyph unicode="8" glyph-name="eight" horiz-adv-x="556" d="M391 373Q513 315 513 196Q513 99 447 38T275 -23T104 38T37 197Q37 315 158 373Q104 407 83 439T62 520Q62 603 121 656T275 709T428 656T488 520Q488 470 467 438T391 373ZM331 631T275 631T186
601T152 519Q152 469 185 439T275 408Q330 408 364 438T398 518Q398 570 365 600ZM341 334T275 334T168 296T127 195T167 94T273 55Q340 55 381 93T423 195Q423 257 382 295Z" />
<glyph unicode="9" glyph-name="nine" horiz-adv-x="556" d="M509 363Q509 269 492 198T450 85T389 19T321 -15T254 -23Q173 -23 120 26T53 162H141Q152 111 183 83T260 55Q336 55 376 124T418 324Q352 245 256 245T99 308T38 470Q38 574 103 641T270 709Q509
709 509 363ZM269 632Q208 632 168 588T128 477Q128 406 165 365T266 323T371 365T413 472Q413 541 372 586T269 632Z" />
<glyph unicode=":" glyph-name="colon" horiz-adv-x="278" d="M214 104V0H110V104H214ZM214 524V420H110V524H214Z" />
<glyph unicode=";" glyph-name="semicolon" horiz-adv-x="278" d="M215 524V420H111V524H215ZM110 104H215V-16Q215 -147 110 -147V-109Q145 -108 157 -89T170 -18V0H110V104Z" />
<glyph unicode="&lt;" glyph-name="less" horiz-adv-x="584" d="M45 198V267L534 474V395L140 234L534 70V-9L45 198Z" />
<glyph unicode="=" glyph-name="equal" horiz-adv-x="584" d="M534 353V283H50V353H534ZM534 181V111H50V181H534Z" />
<glyph unicode="&gt;" glyph-name="greater" horiz-adv-x="584" d="M539 267V198L50 -9V70L444 231L50 395V474L539 267Z" />
<glyph unicode="?" glyph-name="question" horiz-adv-x="556" d="M509 549Q509 503 491 466T446 405T394 358T349 307T330 246V199H240V254Q240 291 258 324T303 381T356 429T400 483T419 549Q419 600 384 631T291 663Q218 663 190 622T162 507H77Q77 622 132
681T296 741Q393 741 451 689T509 549ZM330 104V0H240V104H330Z" />
<glyph unicode="@" glyph-name="at" horiz-adv-x="1015" d="M759 501V420H665V501H759ZM665 501H748L658 221Q646 186 646 171Q646 153 661 140T696 127Q760 127 812 198T864 357Q864 482 760 573T512 664Q354 664 237 547T119 273Q119 130 227 33T494 -65Q573
-65 687 -33L715 -100Q603 -142 489 -142Q365 -142 260 -89T95 57T34 258Q34 356 76 450T192 612Q258 672 347 706T525 741Q700 741 825 631T951 369Q951 246 865 146Q789 57 679 57Q583 57 569 134Q503 62 427 62Q357 62 311 114T264 245Q264 354 342 438T521
522Q605 522 643 435L665 501ZM453 126Q518 126 563 209T609 368Q609 406 582 432T515 458Q452 458 403 393T354 244Q354 195 383 161T453 126Z" />
<glyph unicode="A" glyph-name="A" horiz-adv-x="860" d="M546 0V81H612L565 219H284L235 81H301V0H14V81H137L339 648H274V729H368H488L716 81H838V0H546ZM539 297L427 629L307 297H539Z" />
<glyph unicode="B" glyph-name="B" horiz-adv-x="761" d="M493 82Q542 82 573 103T614 151T624 207Q624 264 590 298T493 333H266V82H493ZM592 415T592 531T446 647H266V415H446Q592 415 592 531ZM717 208Q717 114 658 57T502 0H173H79V81H173V648H79V729H173H469Q530
729 575 711T642 664T675 605T685 544Q685 432 584 385Q654 358 685 316T717 208Z" />
<glyph unicode="C" glyph-name="C" horiz-adv-x="722" d="M65 211T57 259T48 356T56 455T89 557T148 649T244 715T381 741Q498 741 568 683V742H662V503H567Q551 581 504 620T370 659Q264 659 203 578T141 359T205 140T378 59Q468 59 516 109T581 266H677Q644
-23 377 -23Q302 -23 243 2T148 67T89 158Z" />
<glyph unicode="D" glyph-name="D" horiz-adv-x="816" d="M183 81V0H89V81H183ZM183 729V648H89V729H183ZM183 0V729H464Q603 729 682 632T761 365T682 98T464 0H183ZM276 82H448Q556 82 612 154T668 364Q668 503 612 575T448 647H276V82Z" />
<glyph unicode="E" glyph-name="E" horiz-adv-x="761" d="M184 82V1H90V82H184ZM184 730V649H90V730H184ZM707 164V83H613V164H707ZM689 648V567H595V648H689ZM277 333V83H707V1H184V730H689V648H277V415H674V333H277Z" />
<glyph unicode="F" glyph-name="F" horiz-adv-x="705" d="M371 81V0H277V81H371ZM673 647V566H579V647H673ZM184 729V648H90V729H184ZM184 81V0H90V81H184ZM277 332V0H184V729H673V647H277V414H625V332H277Z" />
<glyph unicode="G" glyph-name="G" horiz-adv-x="778" d="M699 747V508H605V747H699ZM137 362Q137 324 144 286T169 205T215 132T291 80T398 59Q498 59 562 122T627 283V303H405V385H709V-4H650L627 93Q523 -23 378 -23Q230 -23 137 83T44 357Q44 405 53 453T87
555T149 648T250 714T394 741Q519 741 599 680T699 508H604Q589 578 533 618T393 659Q277 659 207 578T137 362Z" />
<glyph unicode="H" glyph-name="H" horiz-adv-x="916" d="M838 81V0H744V81H838ZM838 729V648H744V729H838ZM651 729V648H557V729H651ZM651 81V0H557V81H651ZM370 81V0H276V81H370ZM370 729V648H276V729H370ZM183 81V0H89V81H183ZM183 729V648H89V729H183ZM651
332H276V0H183V729H276V414H651V729H744V0H651V332Z" />
<glyph unicode="I" glyph-name="I" horiz-adv-x="466" d="M366 81V0H272V81H366ZM366 729V648H272V729H366ZM178 81V0H84V81H178ZM178 729V648H84V729H178ZM272 729V0H178V729H272Z" />
<glyph unicode="J" glyph-name="J" horiz-adv-x="594" d="M520 729V648H426V729H520ZM333 729V648H239V729H333ZM221 55Q285 55 309 97T333 216V729H426V182Q426 87 371 32T220 -23Q126 -23 72 29T17 170V234H112V187Q112 123 140 89T221 55Z" />
<glyph unicode="K" glyph-name="K" horiz-adv-x="761" d="M629 729V648H535V729H629ZM360 81V0H266V81H360ZM360 729V648H266V729H360ZM173 81V0H79V81H173ZM173 729V648H79V729H173ZM266 255V0H173V729H266V360L629 729H749L452 432L752 0H642L385 374L266 255Z" />
<glyph unicode="L" glyph-name="L" horiz-adv-x="659" d="M370 729V648H276V729H370ZM636 163V82H542V163H636ZM183 81V0H89V81H183ZM183 729V648H89V729H183ZM276 729V82H636V0H183V729H276Z" />
<glyph unicode="M" glyph-name="M" horiz-adv-x="1032" d="M771 81V0H677V81H771ZM355 81V0H261V81H355ZM173 81V0H79V81H173ZM953 81V0H859V81H953ZM953 729V648H859V729H953ZM173 729V648H79V729H173ZM566 0H468L261 611V0H173V729H302L518 94L730 729H859V0H771V611L566
0Z" />
<glyph unicode="N" glyph-name="N" horiz-adv-x="913" d="M837 729V648H743V729H837ZM355 81V0H261V81H355ZM173 81V0H79V81H173ZM173 729V648H79V729H173ZM743 729V0H638L261 591V0H173V729H274L655 133V729H743Z" />
<glyph unicode="O" glyph-name="O" horiz-adv-x="778" d="M742 353Q742 191 646 84T390 -23Q232 -23 135 82T38 359T135 635T389 741Q549 741 645 635T742 353ZM389 659Q273 659 202 577T131 359T202 142T390 59T577 141T649 355Q649 493 578 576T389 659Z" />
<glyph unicode="P" glyph-name="P" horiz-adv-x="760" d="M371 81V0H277V81H371ZM184 81V0H90V81H184ZM184 729V648H90V729H184ZM710 515Q710 422 654 366T506 309H277V0H184V729H485Q593 729 651 674T710 515ZM277 391H471Q538 391 575 425T613 519T576 613T471
647H277V391Z" />
<glyph unicode="Q" glyph-name="Q" horiz-adv-x="778" d="M733 -1L686 -59L581 28Q495 -23 390 -23Q232 -23 135 82T38 359T135 635T390 741Q547 741 644 636T742 361Q742 189 639 76L733 -1ZM481 205L570 132Q649 221 649 360Q649 494 578 576T390 659T203 577T131
359T202 142T389 59Q449 59 509 87L435 149L481 205Z" />
<glyph unicode="R" glyph-name="R" horiz-adv-x="864" d="M820 81V0H726V81H820ZM374 81V0H280V81H374ZM187 81V0H93V81H187ZM187 729V648H93V729H187ZM630 360Q662 346 683 327T714 284T727 239T730 189Q730 180 730 163T729 138Q729 97 738 69T773 23V0H660Q640
46 640 119V184Q640 251 611 282T520 314H280V0H187V729H523Q630 729 687 679T745 534Q745 472 718 431T630 360ZM648 521Q648 593 610 620T505 647H280V396H505Q579 396 613 426T648 521Z" />
<glyph unicode="S" glyph-name="S" horiz-adv-x="667" d="M342 59Q398 59 437 72T494 106T520 147T528 191Q528 273 394 309L213 357Q70 395 70 527Q70 626 139 683T329 741Q440 741 508 695V747H602V515H596H508Q507 586 460 624T326 663Q252 663 208 629T163
540Q163 498 190 474T283 432L466 383Q540 363 580 315T621 200Q621 171 614 143T586 84T535 30T453 -8T336 -23Q295 -23 258 -17T181 7T114 52T68 126T48 232H136V227Q136 196 145 169T176 116T240 75T342 59Z" />
<glyph unicode="T" glyph-name="T" horiz-adv-x="611" d="M448 81V0H354V81H448ZM261 81V0H167V81H261ZM593 647V566H499V647H593ZM115 647V566H21V647H115ZM354 647V0H261V647H21V729H593V647H354Z" />
<glyph unicode="U" glyph-name="U" horiz-adv-x="910" d="M833 729V648H739V729H833ZM179 729V648H85V729H179ZM646 729V648H552V729H646ZM366 729V648H272V729H366ZM646 729H739V217Q739 107 663 42T458 -23Q328 -23 254 41T179 217V729H272V217Q272 138 322
99T458 59Q546 59 596 101T646 217V729Z" />
<glyph unicode="V" glyph-name="V" horiz-adv-x="855" d="M833 729V648H739V729H833ZM124 729V648H30V729H124ZM640 729V648H546V729H640ZM318 729V648H224V729H318ZM486 0H386L124 729H224L438 112L640 729H739L486 0Z" />
<glyph unicode="W" glyph-name="W" horiz-adv-x="944" d="M825 729V648H731V729H825ZM220 729V648H126V729H220ZM744 0H642L474 599L311 0H209L22 729H126L263 137L425 729H525L691 137L825 729H929L744 0Z" />
<glyph unicode="X" glyph-name="X" horiz-adv-x="855" d="M837 81V0H743V81H837ZM116 81V0H22V81H116ZM132 729V648H38V729H132ZM825 729V648H731V729H825ZM628 81V0H534V81H628ZM323 81V0H229V81H323ZM620 729V648H526V729H620ZM339 729V648H245V729H339ZM485
374L743 0H628L429 304L229 0H116L374 374L132 729H245L432 443L620 729H731L485 374Z" />
<glyph unicode="Y" glyph-name="Y" horiz-adv-x="857" d="M575 81V0H481V81H575ZM388 81V0H294V81H388ZM849 729V648H755V729H849ZM644 729V648H550V729H644ZM316 729V648H222V729H316ZM107 729V648H13V729H107ZM481 286V0H388V286L107 729H222L436 374L644 729H755L481
286Z" />
<glyph unicode="Z" glyph-name="Z" horiz-adv-x="611" d="M583 163V82H489V163H583ZM150 647V566H56V647H150ZM581 729V645L145 82H583V0H28V82L466 647H56V729H581Z" />
<glyph unicode="[" glyph-name="bracketleft" horiz-adv-x="278" d="M250 729V657H147V-140H250V-212H64V729H250Z" />
<glyph unicode="\" glyph-name="backslash" horiz-adv-x="278" d="M47 729L284 -20H229L-8 729H47Z" />
<glyph unicode="]" glyph-name="bracketright" horiz-adv-x="278" d="M23 -212V-140H126V657H23V729H209V-212H23Z" />
<glyph unicode="^" glyph-name="asciicircum" horiz-adv-x="469" d="M197 709H270L425 329H356L234 629L113 329H44L197 709Z" />
<glyph unicode="_" glyph-name="underscore" horiz-adv-x="556" d="M578 -126V-176H-22V-126H578Z" />
<glyph unicode="`" glyph-name="grave" horiz-adv-x="333" d="M135 740L231 592H171L22 740H135Z" />
<glyph unicode="a" glyph-name="a" horiz-adv-x="627" d="M565 68V0H421V69Q387 20 348 -1T254 -23Q148 -23 87 53T26 263Q26 388 87 463T251 539Q359 539 412 458V525H495V68H565ZM265 461Q197 461 155 405T113 258Q113 166 155 111T266 55Q332 55 372 110T412
256Q412 350 372 405T265 461Z" />
<glyph unicode="b" glyph-name="b" horiz-adv-x="627" d="M125 0V661H54V729H208V453Q265 539 369 539T534 465T594 263T532 56T365 -23T200 67V0H125ZM507 349T466 405T356 461T248 406T208 258T248 111T355 55T464 110T507 257Z" />
<glyph unicode="c" glyph-name="c" horiz-adv-x="500" d="M400 495Q341 538 264 539Q158 539 95 461T31 253Q31 126 93 52T263 -23Q357 -23 413 30T477 180H393Q372 54 265 54Q196 54 157 107T118 253Q118 351 156 406T263 462Q315 462 347 433T387 348H471V542H400V495Z" />
<glyph unicode="d" glyph-name="d" horiz-adv-x="627" d="M265 461Q332 461 372 406T412 256Q412 165 372 110T266 55Q197 55 155 110T113 258Q113 349 155 405T265 461ZM495 68V729H341V661H413L412 458Q359 539 251 539Q149 539 88 464T26 263Q26 130 87 54T254
-23Q308 -23 347 -2T421 69V0H566V68H495Z" />
<glyph unicode="e" glyph-name="e" horiz-adv-x="556" d="M513 234H127Q128 162 155 122Q198 54 281 54Q383 54 418 159H502Q486 73 427 25T278 -23Q168 -23 104 51T40 255T105 461T280 539Q354 539 410 502T492 401Q513 346 513 234ZM129 302H423Q424 304 424
308Q424 373 382 417T279 462Q216 462 175 419T129 302Z" />
<glyph unicode="f" glyph-name="f" horiz-adv-x="278" d="M171 68H242V0H17V68H88V456H18V524H88V613Q88 669 120 700T211 732Q234 732 258 727V658Q239 659 229 659Q171 659 171 606V524H258V456H171V68Z" />
<glyph unicode="g" glyph-name="g" horiz-adv-x="627" d="M261 462Q194 462 155 407T116 258Q116 163 155 109T262 54Q328 54 366 107T404 255Q404 353 367 407T261 462ZM489 456V86Q489 11 480 -39T447 -133T376 -197T255 -218Q163 -218 108 -176T46 -60H131Q145
-148 258 -148Q342 -148 373 -101T404 44V71Q369 21 332 -1T245 -23Q153 -23 91 52T29 253Q29 381 90 460T252 539Q350 539 412 448V524H560V456H489Z" />
<glyph unicode="h" glyph-name="h" horiz-adv-x="698" d="M141 661H70V729H224V452Q261 500 298 519T392 539Q468 539 512 500Q557 463 557 396V68H628V0H474V363Q474 418 441 442T366 466Q302 466 263 418T224 289V68H295V0H70V68H141V661Z" />
<glyph unicode="i" glyph-name="i" horiz-adv-x="363" d="M220 729V624H136V729H220ZM137 450V62H66V-6H291V62H220V518H66V450H137Z" />
<glyph unicode="j" glyph-name="j" horiz-adv-x="222" d="M153 729V624H70V729H153ZM70 456H-1V524H153V-109Q153 -218 10 -218Q-3 -218 -18 -215Q-18 -215 -18 -144Q-1 -145 2 -145Q40 -145 55 -130T70 -76V456Z" />
<glyph unicode="k" glyph-name="k" horiz-adv-x="604" d="M129 661H58V729H212V302L434 524H541L359 343L532 68H604V0H470L293 284L212 204V0H58V68H129V661Z" />
<glyph unicode="l" glyph-name="l" horiz-adv-x="364" d="M139 661V68H68V0H294V68H223V729H68V661H139Z" />
<glyph unicode="m" glyph-name="m" horiz-adv-x="972" d="M529 68V329Q529 386 565 426T652 466Q698 466 723 439T749 361V0H904V68H833V393Q833 464 794 501T681 539Q629 539 593 521T520 459Q476 539 379 539Q327 539 290 518T218 450V524H70V456H141V68H70V0H296V68H225V329Q225
386 261 426T348 466Q394 466 419 439T445 361V0H600V68H529Z" />
<glyph unicode="n" glyph-name="n" horiz-adv-x="698" d="M558 68V396Q558 461 513 500T392 539Q334 539 294 515T218 436V524H70V456H141V68H70V0H296V68H225V289Q225 369 264 417T367 466Q417 466 446 438T475 363V0H629V68H558Z" />
<glyph unicode="o" glyph-name="o" horiz-adv-x="556" d="M272 539Q385 539 447 465T510 254Q510 125 447 51T273 -23Q161 -23 99 51T36 258T99 464T272 539ZM273 462Q203 462 163 408T123 258T163 109T273 54Q342 54 382 108T423 255Q423 352 384 407T273 462Z" />
<glyph unicode="p" glyph-name="p" horiz-adv-x="627" d="M355 461Q424 461 465 405T507 255Q507 166 465 111T355 55Q289 55 249 110T209 258T249 405T355 461ZM125 456V-150H54V-218H280V-150H209V55Q273 -23 370 -23Q471 -23 532 52T594 253Q594 385 534 462T369
539Q261 539 202 445V524H54V456H125Z" />
<glyph unicode="q" glyph-name="q" horiz-adv-x="627" d="M266 461Q197 461 155 405T113 258Q113 166 155 111T266 55Q332 55 372 110T412 255Q412 349 373 405T266 461ZM495 -150H566V-218H341V-150H412V60Q355 -23 250 -23Q146 -23 86 51T26 252Q26 382 88 460T254
539Q361 539 421 454V524H566V456H495V-150Z" />
<glyph unicode="r" glyph-name="r" horiz-adv-x="404" d="M140 456V68H69V0H295V68H223L224 272Q225 375 266 412Q308 449 392 451V536Q371 539 360 539Q320 539 287 514T217 429V524H69V456H140Z" />
<glyph unicode="s" glyph-name="s" horiz-adv-x="500" d="M122 156Q128 109 154 82T250 54Q305 54 338 76T372 136Q372 165 353 182T291 209L213 228Q120 250 84 283T47 379Q47 452 102 495T248 539T388 497T438 378H350Q347 462 245 462Q194 462 164 441T134
383Q134 355 157 338T231 308L311 289Q389 270 424 236T459 143Q459 67 401 22T243 -23Q40 -23 34 156H122Z" />
<glyph unicode="t" glyph-name="t" horiz-adv-x="278" d="M254 524V456H168V97Q168 69 177 60T214 50Q239 50 254 54V-16Q215 -23 186 -23Q137 -23 111 -2T85 60V456H14V524H85V668H168V524H254Z" />
<glyph unicode="u" glyph-name="u" horiz-adv-x="698" d="M136 456V120Q136 55 181 16T303 -23Q361 -23 401 -1T478 73V0H624V68H553V524H399V456H470V227Q470 147 431 98Q392 50 327 50Q277 50 248 78T219 153V524H65V456H136Z" />
<glyph unicode="v" glyph-name="v" horiz-adv-x="561" d="M95 456L255 0H346L547 524H382V456H429L305 99L165 524H0V456H95Z" />
<glyph unicode="w" glyph-name="w" horiz-adv-x="845" d="M753 456L619 0H524L418 411L317 0H223L91 456H0V524H234V456H181L270 116L370 524H472L575 116L662 456H608V524H844V456H753Z" />
<glyph unicode="x" glyph-name="x" horiz-adv-x="500" d="M157 68H183V0H-54V68H66L202 267L73 456H-44V524H193V456H167V456L248 334L330 456H311V524H539V456H421L292 271L428 68H544V0H305V68H332L245 201L157 68Z" />
<glyph unicode="y" glyph-name="y" horiz-adv-x="500" d="M-44 456V524H109L243 116L364 456H317V524H478L245 -110Q204 -218 110 -218Q79 -218 54 -205V-130Q81 -136 98 -136Q124 -136 139 -124Q154 -113 165 -85L197 -2L43 456H-44Z" />
<glyph unicode="z" glyph-name="z" horiz-adv-x="500" d="M386 73H132L443 450V524H52V383H123V451H344L31 75V0H457V141H386V73Z" />
<glyph unicode="{" glyph-name="braceleft" horiz-adv-x="334" d="M276 729V664H261Q224 664 211 650T198 597V416Q198 347 180 312T116 259Q198 221 198 101V-80Q198 -119 211 -133T261 -147H276V-212H230Q178 -212 150 -178T121 -81V86Q121 155 104 185T43 224V293Q87
302 104 331T121 431V598Q121 660 149 694T230 729H276Z" />
<glyph unicode="|" glyph-name="bar" horiz-adv-x="260" d="M100 729H160V-212H100V729Z" />
<glyph unicode="}" glyph-name="braceright" horiz-adv-x="334" d="M29 -212V-147H45Q82 -147 95 -133T109 -80V101Q109 221 191 258Q109 296 109 416V597Q109 636 96 650T45 664H29V729H76Q128 729 157 695T186 598V431Q186 362 202 332T262 293V224Q219 215
203 185T186 86V-81Q186 -143 157 -177T76 -212H29Z" />
<glyph unicode="~" glyph-name="asciitilde" horiz-adv-x="584" d="M181 371Q134 371 128 293H75Q79 363 106 400T183 438Q210 438 237 422L354 353Q382 336 404 336Q431 336 443 352T455 406V411H508V395Q508 337 480 303T403 268Q364 268 322 294L224 357Q201
371 181 371Z" />
<glyph unicode="&#x80;" glyph-name="uni0080" horiz-adv-x="578" d="M474 83H557V0H474V83ZM65 369Q71 539 275 539Q372 539 422 503T472 396V88Q472 47 517 47Q526 47 535 49V-14Q500 -23 478 -23Q438 -23 418 -5T392 54Q308 -23 214 -23Q135 -23 89 19T42 132Q42
155 46 174T56 207T76 234T99 255T131 270T166 281T208 290T252 297T302 304Q351 310 370 323T389 362V384Q389 422 359 442T272 462Q214 462 184 440T149 369H65ZM232 50Q301 50 345 86T389 165V259Q364 247 314 239T226 225T159 197T129 134T156 72T232 50Z"
/>
</font>
</defs>
</svg>
