<?xml version="1.0" standalone="no"?> <!DOCTYPE svg PUBLIC "-//W3C//DTD SVG 1.0//EN" "http://www.w3.org/TR/2001/REC-SVG-20010904/DTD/svg10.dtd" > <svg xmlns="http://www.w3.org/2000/svg" width="100%" height="100%">
<defs >
<font id="plrr-regular" horiz-adv-x="239" ><font-face
    font-family="PLRR"
    units-per-em="1000"
    panose-1="2 0 5 3 0 0 0 0 0 0"
    ascent="635"
    descent="-166"
    alphabetic="0" />
<missing-glyph horiz-adv-x="1000" />
<glyph unicode=" " glyph-name="space" horiz-adv-x="181" />
<glyph unicode="!" glyph-name="exclam" horiz-adv-x="194" d="M118 118H76Q62 118 62 132V474Q62 489 76 489H118Q124 489 128 485T133 474V132Q133 118 118 118ZM118 -1H76Q62 -1 62 14V48Q62 62 76 62H118Q133 62 133 48V14Q133 8 129 4T118 -1Z" />
<glyph unicode="&quot;" glyph-name="quotedbl" horiz-adv-x="206" d="M172 371Q170 351 156 351H138Q124 351 122 370L115 474Q114 480 118 486T129 493Q132 493 141 493T155 494T167 493T177 486T180 473L172 371ZM82 371Q80 351 66 351H48Q34 351 32 370L25
474Q24 480 28 486T39 493Q42 493 51 493T65 494T77 493T87 486T90 473L82 371Z" />
<glyph unicode="#" glyph-name="numbersign" horiz-adv-x="457" d="M409 246H365Q350 246 348 229L343 156Q342 149 347 144T360 139H405Q419 139 417 119Q417 114 415 103T412 85Q410 72 400 72H355Q340 72 338 56L333 13Q331 1 321 1H278Q273 1 269 4T266 12Q266
14 267 18T269 27Q275 72 254 72H181Q166 72 164 56L159 13Q157 0 147 0H104Q89 0 92 16Q95 31 97 55Q98 62 93 67T80 72H43Q29 72 31 93Q31 98 33 109T36 127Q38 139 48 139H85Q100 139 102 156L107 229Q108 236 103 241T90 246H52Q38 246 40 267Q40 272 42 283T45
301Q47 313 57 313H95Q110 313 112 330Q112 334 112 344T114 359T116 372T121 383T130 387H172Q190 387 185 370Q184 364 182 351T179 331Q178 324 183 319T196 313H269Q284 313 286 330L291 376Q293 388 303 388H346Q358 388 358 372Q358 365 353 330Q352 323
357 318T370 313H414Q428 313 426 293Q426 288 424 277T421 259Q419 246 409 246ZM264 246H191Q176 246 174 229Q174 222 171 201T168 169Q168 139 186 139H259Q274 139 276 156L281 229Q282 236 277 241T264 246Z" />
<glyph unicode="$" glyph-name="dollar" horiz-adv-x="253" d="M152 1L150 0V1V-2Q149 -7 149 -44Q149 -59 135 -59H106Q100 -59 96 -55T91 -44V3Q61 14 42 37T18 90Q17 95 22 100T33 105H78Q88 105 92 94Q99 71 124 71Q164 71 164 112Q164 168 119 215Q115 219
111 223T102 233T93 241Q70 263 58 276T35 317T23 376Q23 453 94 480H91V533Q91 547 106 547H135Q150 547 150 533V480Q204 462 214 406Q215 400 211 396T200 391H156Q149 391 141 402T122 413Q94 413 94 380Q94 352 108 328T143 284T185 244T220 193T235 127Q235
72 212 41T152 1Z" />
<glyph unicode="%" glyph-name="percent" horiz-adv-x="420" d="M149 337T119 337T68 358T47 410V413Q47 443 68 464T120 486T171 465T193 413V410Q193 380 171 359ZM121 14Q114 -1 106 -1H65Q59 -1 53 4T50 14L300 471Q307 485 315 485H357Q364 485 369 481T371
471L121 14ZM329 -3T299 -3T248 18T227 70V73Q227 103 248 124T300 146T351 125T373 73V70Q373 40 351 19ZM140 413Q140 433 120 433Q101 433 101 413V410Q101 390 120 390Q129 390 135 395T141 410L140 413ZM320 73Q320 93 300 93Q281 93 281 73V70Q281 50 300
50Q309 50 315 55T321 70L320 73Z" />
<glyph unicode="&amp;" glyph-name="ampersand" horiz-adv-x="414" d="M69 259V257Q27 306 27 369V378Q27 423 59 454T138 486Q179 486 208 459T237 378Q237 312 184 259Q179 254 179 249T182 241L183 239L237 182Q241 178 248 178Q254 178 258 182Q272 199 279
199H330Q344 199 344 185Q344 178 341 175L302 132Q298 126 298 122Q298 116 302 112L385 24Q389 20 389 14Q389 -1 375 -1H325Q319 -1 314 4L259 60Q254 65 248 65Q241 65 238 60L210 29Q183 -1 136 -1T57 31T25 129Q25 188 69 239Q72 245 72 247Q72 250 69 256H71L69
259ZM134 415Q118 415 108 405T98 378V363Q98 337 116 311Q121 304 128 304Q136 304 141 310Q166 335 166 375Q166 397 156 406T134 415ZM191 130L136 187Q132 191 126 191Q118 191 114 185Q96 159 96 126Q96 102 111 88T144 73Q158 73 172 87L192 109Q196 113
196 119T191 130Z" />
<glyph unicode="&apos;" glyph-name="quotesingle" horiz-adv-x="146" d="M97 371Q94 351 81 351H64Q57 351 52 357T47 370L41 474Q41 481 44 487T54 493Q57 493 66 493T81 494T94 493T104 486T106 473L97 371Z" />
<glyph unicode="(" glyph-name="parenleft" horiz-adv-x="234" d="M169 493Q169 486 160 481T141 466T132 442V69Q132 42 158 32Q169 28 169 19V-22Q167 -36 153 -36L152 -35V-35V-35Q115 -28 90 1T65 69V442Q65 481 90 510T152 547H153Q167 547 169 534V493Z" />
<glyph unicode=")" glyph-name="parenright" horiz-adv-x="227" d="M78 -35L76 -36Q63 -36 61 -22V19Q61 28 72 32Q98 42 98 69V442Q98 457 89 466T71 480T61 493V534Q63 547 77 547H78Q115 540 140 511T165 442V69Q165 30 140 1T78 -35Z" />
<glyph unicode="*" glyph-name="asterisk" horiz-adv-x="332" d="M294 115H242Q232 115 232 104Q232 101 233 99L260 39Q267 26 254 19L223 1Q213 -4 205 9L177 64Q173 70 167 70Q162 70 158 64L131 11Q123 -4 110 2L80 16Q68 22 72 33L102 99Q103 101 103 104Q103
115 92 115H38Q32 115 28 119T23 130V160Q23 166 27 170T38 175H93Q104 175 104 185Q104 187 103 189L75 252Q69 264 82 270L111 285Q125 292 131 278L158 223Q161 218 167 218Q174 218 177 223L205 278Q213 291 222 286Q233 283 242 277L256 270Q267 265 261 251L231
189V186Q231 175 241 175H294Q300 175 304 171T309 160V130Q309 124 305 120T294 115Z" />
<glyph unicode="+" glyph-name="plus" horiz-adv-x="276" d="M268 126Q268 120 264 116T254 111L187 112Q181 112 177 108T172 97V93V90V86V83V79V76V72V68V65V61V57V54V50V46V43V39V35V31V27V23V15Q172 0 158 0H116Q110 0 106 4T101 15V97Q101 112 87 112L20
111Q14 111 10 115T5 126V168Q5 182 20 182L87 183Q101 183 101 197V282Q101 296 116 296H158Q172 296 172 282V197Q172 183 187 183L254 182Q259 182 263 178T268 168V126Z" />
<glyph unicode="," glyph-name="comma" horiz-adv-x="196" d="M103 -57Q97 -71 83 -71H63Q48 -71 51 -57L76 48Q80 62 94 62H136Q142 62 144 58T145 49L103 -57Z" />
<glyph unicode="-" glyph-name="hyphen" horiz-adv-x="225" d="M158 86H67Q53 86 53 100V134Q53 149 67 149H158Q172 149 172 134V100Q172 86 158 86Z" />
<glyph unicode="." glyph-name="period" horiz-adv-x="196" d="M119 -1H77Q63 -1 63 14V48Q63 62 77 62H119Q134 62 134 48V14Q134 8 130 4T119 -1Z" />
<glyph unicode="/" glyph-name="slash" horiz-adv-x="284" d="M117 14Q113 -1 103 -1H61Q55 -1 50 3T46 14L166 471Q170 485 181 485H223Q229 485 233 481T237 471L117 14Z" />
<glyph unicode="0" glyph-name="zero" horiz-adv-x="290" d="M191 -2T145 -2T67 30T34 107V377Q34 422 66 453T145 485T223 454T255 377V107Q255 62 223 30ZM185 377Q185 394 174 405T145 417T117 406T105 377V107Q105 90 116 79T145 67T173 78T185 107V377Z" />
<glyph unicode="1" glyph-name="one" horiz-adv-x="213" d="M150 -1H109Q103 -1 99 3T94 14V342Q94 356 80 356Q74 356 71 353Q68 351 63 351Q48 351 48 365V406Q48 419 58 431L90 470Q95 483 109 483H150Q164 483 164 469L165 14Q165 8 161 4T150 -1Z" />
<glyph unicode="2" glyph-name="two" horiz-adv-x="283" d="M240 -1H44Q38 -1 34 3T29 14V55Q29 68 37 82L161 293Q183 332 183 374Q183 390 172 402T143 414Q113 414 104 385Q100 374 90 374H48Q42 374 38 378T33 389Q38 429 69 456T143 483Q189 483 221 451T254
374Q254 306 227 261L128 92Q125 88 125 84Q125 69 139 69L240 70Q254 70 254 55V14Q254 -1 240 -1Z" />
<glyph unicode="3" glyph-name="three" horiz-adv-x="266" d="M237 401L180 323Q178 321 178 314Q178 305 184 302Q241 270 241 206V108Q241 63 209 31T130 -1Q88 -1 57 26T21 94Q21 108 35 108H78Q88 108 92 97Q101 68 130 68Q147 68 159 80T171 108V197Q167
204 161 215T141 241T119 256H105Q91 256 91 271V303Q91 319 100 330L146 392Q148 396 148 399Q148 413 134 413H55Q49 413 45 417T40 428V469Q40 483 55 483H231Q245 483 245 469V427Q245 411 237 401Z" />
<glyph unicode="4" glyph-name="four" horiz-adv-x="270" d="M237 77Q232 77 229 73T225 62V14Q225 -1 211 -1H169Q155 -1 155 14V62Q155 77 141 77H35Q21 77 21 91V133Q21 145 25 161L105 469Q108 483 123 483H164Q178 483 175 469L96 161Q95 155 98 151T107
147H141Q155 147 155 162V213Q155 227 170 227H211Q226 227 226 213V162Q226 147 237 147Q249 147 249 133V91Q249 77 237 77Z" />
<glyph unicode="5" glyph-name="five" horiz-adv-x="280" d="M240 413H113Q99 413 99 398V326Q99 320 104 316T114 312Q126 315 139 315Q160 315 179 307Q210 295 229 268T249 206V108Q249 63 217 31T139 -1Q97 -1 66 26T29 93Q29 99 33 103T44 108H86Q96 108
100 97Q109 68 139 68Q156 68 167 80T179 108V206Q179 222 168 234T139 246T110 234Q106 230 100 230T91 233L39 265Q26 272 26 286V469Q26 483 41 483H240Q254 483 254 469V427Q254 413 240 413Z" />
<glyph unicode="6" glyph-name="six" horiz-adv-x="281" d="M187 -1T141 -1T63 31T30 108V377Q30 422 62 453T141 485Q183 485 214 458T250 391Q250 377 236 377H193Q183 377 179 388Q170 417 141 417Q124 417 113 406T101 377V291Q101 276 115 276Q116 276 117
276T119 277Q133 279 141 279Q187 279 219 247T251 170V108Q251 63 219 31ZM181 170Q181 187 169 199T141 211Q124 211 113 200T101 171V108Q101 92 112 80T141 68T169 80T181 108V170Z" />
<glyph unicode="7" glyph-name="seven" horiz-adv-x="265" d="M240 404L120 13Q116 -1 101 -1H59Q46 -1 49 13L170 401Q174 415 160 415H34Q20 415 20 430V471Q20 485 34 485H230Q245 485 245 471V432Q245 424 240 404Z" />
<glyph unicode="8" glyph-name="eight" horiz-adv-x="282" d="M187 -1T141 -1T63 31T30 108V181Q30 217 53 247Q56 250 56 256Q56 261 52 265Q30 293 30 330V377Q30 422 62 454T141 486T219 455T252 378V331Q252 294 230 266Q226 262 226 257Q226 251 229 248Q252
218 252 182V109Q252 64 220 32ZM181 377Q181 394 170 405T141 417T113 406T101 377V330Q101 314 112 302T141 290T169 302T181 330V377ZM181 181Q181 198 170 209T141 221T113 210T101 181V108Q101 92 112 80T141 68T169 80T181 108V181Z" />
<glyph unicode="9" glyph-name="nine" horiz-adv-x="275" d="M138 -1Q96 -1 65 26T28 94Q28 108 42 108H85Q95 108 99 97Q108 68 138 68Q154 68 166 80T178 108V192Q178 206 163 206H162L161 205H160Q146 203 138 203Q92 203 60 235T27 312V377Q27 422 59 454T138
486T216 454T248 377V108Q248 63 216 31T138 -1ZM178 377Q178 394 166 405T138 417T110 406T98 377V312Q98 296 110 284T138 272T166 284T178 312V377Z" />
<glyph unicode=":" glyph-name="colon" horiz-adv-x="194" d="M118 174H76Q62 174 62 189V223Q62 237 76 237H118Q133 237 133 223V189Q133 183 129 179T118 174ZM118 -1H76Q62 -1 62 14V48Q62 62 76 62H118Q133 62 133 48V14Q133 8 129 4T118 -1Z" />
<glyph unicode=";" glyph-name="semicolon" horiz-adv-x="192" d="M131 173H89Q75 173 75 188V222Q75 236 89 236H131Q145 236 145 222V188Q145 173 131 173ZM98 -59Q92 -73 79 -73H58Q44 -73 47 -59L71 46Q74 60 89 60H131Q137 60 139 56T140 47L98 -59Z" />
<glyph unicode="&lt;" glyph-name="less" horiz-adv-x="257" d="M187 0H159Q149 0 138 13L60 118Q50 130 60 143L138 251Q148 263 159 263H187Q193 263 196 259T197 249L135 144Q127 130 135 116L197 14Q200 9 197 5T187 0Z" />
<glyph unicode="=" glyph-name="equal" horiz-adv-x="296" d="M228 165H67Q53 165 53 179V216Q53 231 67 231H228Q242 231 242 216V179Q242 165 228 165ZM228 64H67Q53 64 53 78V115Q53 130 67 130H228Q242 130 242 115V78Q242 64 228 64Z" />
<glyph unicode="&gt;" glyph-name="greater" horiz-adv-x="257" d="M119 13Q108 0 98 0H70Q64 0 61 4T60 14L122 116Q130 130 122 144L60 249Q57 254 60 258T70 263H98Q109 263 119 251L197 143Q207 130 197 118L119 13Z" />
<glyph unicode="?" glyph-name="question" horiz-adv-x="225" d="M142 63Q156 63 156 49V14Q156 0 142 0H100Q86 0 86 14V49Q86 63 100 63H142ZM74 390Q83 416 109 416Q124 416 134 406T145 380T115 312T84 220V133Q84 119 99 119H142Q156 119 156 133L155 220Q155
246 185 295T216 380Q216 424 185 455T109 487Q70 487 40 461T3 396Q3 390 7 385T18 380H61Q72 380 74 390Z" />
<glyph unicode="@" glyph-name="at" horiz-adv-x="447" d="M282 -1Q253 -1 221 28Q189 -1 146 -1T73 29T43 103V210Q43 253 73 283T147 314Q166 314 179 310Q180 310 182 310T185 309L186 310Q187 310 189 311T194 313H199H238Q252 313 252 299V98Q252 85 262
74T287 62Q303 62 313 74T323 104V264Q323 318 290 361T203 405Q135 405 100 368Q94 361 84 367L52 393Q44 402 51 409Q113 473 203 473Q276 473 329 418T383 290V106Q383 61 355 30T282 -1ZM163 250T147 250T120 239T108 211V104Q108 88 119 77T147 65T174 76T186
104V211Q186 227 175 238Z" />
<glyph unicode="A" glyph-name="A" horiz-adv-x="293" d="M242 -1H200Q186 -1 184 14L178 49Q176 63 162 63H131Q123 63 118 57T112 43T110 26T109 14Q107 -1 93 -1H51Q45 -1 41 3T38 14L106 471Q108 486 123 486H170Q184 486 186 471L255 14Q256 8 252 4T242
-1ZM159 167Q157 181 144 181Q138 181 135 177T130 169T128 158T127 149Q126 144 131 139T142 134H147Q153 134 158 138T162 148L159 167Z" />
<glyph unicode="B" glyph-name="B" horiz-adv-x="284" d="M150 -1H52Q46 -1 42 3T37 14V471Q37 477 41 481T52 486H153Q194 486 220 459T247 391V303Q247 277 232 252L231 250Q229 246 229 243L232 234Q247 213 247 183V96Q247 56 219 28T150 -1ZM176 391Q176
401 169 408T150 416H122Q108 416 108 402V292Q108 278 122 278H150Q160 278 168 285T176 303V391ZM176 183Q176 193 168 201T150 209H122Q108 209 108 194V85Q108 70 122 70H150Q160 70 168 78T176 96V183Z" />
<glyph unicode="C" glyph-name="C" horiz-adv-x="269" d="M226 378H184Q174 378 170 387Q163 414 135 414Q120 414 110 404T99 378V106Q99 91 109 81T135 70Q163 70 170 98Q173 106 183 106H226Q241 106 241 91Q235 52 205 26T135 -1Q91 -1 60 30T28 106V378Q28
422 59 453T135 485Q175 485 205 459T241 393Q241 378 226 378Z" />
<glyph unicode="D" glyph-name="D" horiz-adv-x="278" d="M243 96Q243 56 216 28T147 -1H48Q34 -1 34 14V471Q34 485 49 485H151Q191 485 217 457T244 389L243 96ZM173 389Q173 399 166 406T147 414H119Q105 414 105 400V88Q105 73 119 73H147Q157 73 165 81T173 99V389Z" />
<glyph unicode="E" glyph-name="E" horiz-adv-x="276" d="M230 -1H46Q40 -1 36 3T31 14V471Q31 477 35 481T46 486H230Q236 486 240 482T245 471V431Q245 425 241 421T230 416H117Q102 416 102 402V305Q102 291 117 291H196Q202 291 206 287T211 276V234Q211 221
196 221L117 220Q102 220 102 206V85Q102 71 117 71L230 70Q245 70 245 56V14Q245 8 241 4T230 -1Z" />
<glyph unicode="F" glyph-name="F" horiz-adv-x="275" d="M230 416H116Q102 416 102 402V305Q102 291 116 291H196Q210 291 210 276V234Q210 220 196 220L116 219Q102 219 102 206V14Q102 8 98 4T87 -1H45Q31 -1 31 14V471Q31 486 45 486H230Q244 486 244 471V431Q244
416 230 416Z" />
<glyph unicode="G" glyph-name="G" horiz-adv-x="284" d="M186 -1T142 -1T67 30T35 106V378Q35 422 66 453T142 485Q182 485 212 459T248 393Q248 378 233 378H190Q181 378 177 387Q170 414 142 414Q127 414 117 404T106 378V106Q106 91 116 81T142 70T167 80T178
106V177Q178 191 164 191H158Q152 191 148 195T143 206V245Q143 259 158 259H235Q249 259 249 245V106Q249 62 218 31Z" />
<glyph unicode="H" glyph-name="H" horiz-adv-x="286" d="M235 -1H193Q179 -1 179 14V206Q179 220 165 220H121Q107 220 107 206V14Q107 8 103 4T92 -1H51Q45 -1 41 3T36 14V470Q36 476 40 480T51 485H92Q98 485 102 481T107 470V307Q107 292 121 292H165Q179
292 179 307V470Q179 485 193 485H235Q241 485 245 481T250 470V14Q250 8 246 4T235 -1Z" />
<glyph unicode="I" glyph-name="I" horiz-adv-x="177" d="M109 -1H67Q53 -1 53 14V471Q53 485 67 485H110Q124 485 124 471V14Q124 8 120 4T109 -1Z" />
<glyph unicode="J" glyph-name="J" horiz-adv-x="254" d="M233 104Q233 60 202 29T126 -3Q86 -3 56 23T20 89Q20 104 35 104H78Q88 104 91 96Q98 68 126 68Q141 68 151 78T162 104L163 471Q163 485 177 485H219Q234 485 234 471L233 104Z" />
<glyph unicode="K" glyph-name="K" horiz-adv-x="273" d="M170 312Q164 298 167 286L237 13Q240 0 226 0H184Q169 0 166 13L133 144Q129 159 118 159Q104 159 104 144V14Q104 8 100 4T89 -1H47Q33 -1 33 14V471Q33 477 37 481T48 486H90Q104 486 104 471V392Q104
377 118 377Q128 377 131 385L169 472Q175 486 189 486H231Q237 486 239 482T240 472L170 312Z" />
<glyph unicode="L" glyph-name="L" horiz-adv-x="268" d="M226 -1H43Q29 -1 29 14L28 471Q28 477 33 481T44 485H86Q100 485 100 471V85Q100 71 114 71H226Q240 71 240 56V14Q240 -1 226 -1Z" />
<glyph unicode="M" glyph-name="M" horiz-adv-x="319" d="M268 -1H226Q220 -1 216 3T211 14V138Q211 152 197 152Q193 152 190 150T184 144T181 137T179 128T177 121Q174 107 159 107Q155 107 152 109T146 113T142 121T140 128T138 136T136 143Q133 153 122 153Q108
153 108 139V14Q108 8 104 4T93 -1H51Q45 -1 41 3T36 14L37 471Q37 485 51 485H93Q108 485 111 471L145 357Q150 342 159 342Q170 342 174 356L208 472Q211 485 227 485H268Q282 485 282 471V14Q282 -1 268 -1Z" />
<glyph unicode="N" glyph-name="N" horiz-adv-x="288" d="M237 -1H195Q180 -1 177 13L136 151Q132 162 122 162Q108 162 108 147V14Q108 8 104 4T93 -1H51Q37 -1 37 14V471Q37 485 51 485H93Q108 485 112 471L153 332Q156 322 167 322Q181 322 181 336V471Q181
485 195 485H238Q251 485 251 471L252 14Q252 8 248 4T237 -1Z" />
<glyph unicode="O" glyph-name="O" horiz-adv-x="292" d="M146 -1Q99 -1 67 31T34 109V376Q34 422 66 454T146 486Q192 486 224 454T257 376V109Q257 63 225 31T146 -1ZM186 376Q186 393 174 405T146 417T118 405T105 376V109Q105 93 117 81T146 69Q162 69 174
80T186 109V376Z" />
<glyph unicode="P" glyph-name="P" horiz-adv-x="281" d="M156 198H121Q107 198 107 183V14Q107 8 103 4T92 -1H51Q45 -1 41 3T36 14V471Q36 485 50 485H148H149Q190 485 217 457T245 389V287Q245 250 219 224T156 198ZM174 389Q174 400 167 407T149 414H121Q106
414 106 400V290Q106 276 121 276H149Q159 276 166 283T174 301V389Z" />
<glyph unicode="Q" glyph-name="Q" horiz-adv-x="286" d="M248 106Q248 72 229 45Q226 40 226 36Q226 31 231 26Q234 23 234 16Q234 10 230 5T220 -1H192Q190 -1 188 1L187 2Q182 5 178 5H174Q154 -1 141 -1Q97 -1 67 30T37 106V378Q37 423 67 454T141 485T217
454T249 378L248 106ZM177 378Q177 393 167 403T141 414T116 404T106 378V106Q106 92 115 82T138 70Q152 70 152 85Q152 99 166 99Q177 101 177 112V378Z" />
<glyph unicode="R" glyph-name="R" horiz-adv-x="284" d="M205 206L213 204Q208 203 216 155T234 60L244 13Q246 -1 233 -1H191Q178 -1 174 13L137 188Q135 199 122 199Q108 199 108 185V14Q108 -1 94 -1H52Q38 -1 38 14L37 471Q37 477 41 481T52 486H150Q191
486 219 458T247 389V289Q247 244 211 217Q207 213 205 206ZM176 390Q176 400 169 407T150 415H122Q108 415 108 400V292Q108 278 122 278H150Q160 278 168 285T176 303V390Z" />
<glyph unicode="S" glyph-name="S" horiz-adv-x="266" d="M130 -1Q71 -1 37 51Q24 72 24 87Q22 106 39 106H84Q94 106 98 95Q105 73 130 73Q170 73 170 114Q170 170 125 217Q117 226 99 242Q76 264 64 277T41 318T29 377Q29 431 58 458T128 485Q163 485 189 463T221
407Q222 401 218 396T207 391H163Q157 391 149 399L146 404Q138 414 128 414Q100 414 100 381Q100 353 114 329T149 285T191 246T226 195T241 129Q241 63 209 31T130 -1Z" />
<glyph unicode="T" glyph-name="T" horiz-adv-x="257" d="M220 414H181Q166 414 166 400V14Q166 -1 152 -1H110Q104 -1 100 3T95 14V400Q95 414 81 414H37Q31 414 27 418T22 429V470Q22 476 26 480T37 485H220Q226 485 230 481T235 470V429Q235 423 231 419T220 414Z" />
<glyph unicode="U" glyph-name="U" horiz-adv-x="284" d="M186 -1T142 -1T67 30T35 106V470Q35 484 50 484H92Q106 484 106 470V106Q106 91 116 81T142 70T167 80T178 106V470Q178 484 193 484H235Q249 484 249 470V106Q249 62 218 31Z" />
<glyph unicode="V" glyph-name="V" horiz-adv-x="270" d="M174 14Q172 -1 157 -1H113Q98 -1 96 14L26 470Q24 484 38 484H81Q95 484 97 470L120 321Q122 306 135 306Q147 306 149 321L172 470Q174 484 189 484H231Q245 484 243 470L174 14Z" />
<glyph unicode="W" glyph-name="W" horiz-adv-x="299" d="M248 14Q248 8 244 4T233 -1H192Q186 -1 181 3T173 14T168 26T165 40T163 50Q160 60 150 60T136 49L125 13Q122 -1 107 -1H65Q59 -1 55 3T50 14L28 470Q28 484 41 484H84Q99 484 99 470L106 308Q106 294
121 294Q129 294 134 306T150 318Q159 318 164 306T178 294Q193 294 193 308L201 470Q201 484 216 484H258Q271 484 271 470L248 14Z" />
<glyph unicode="X" glyph-name="X" horiz-adv-x="250" d="M221 -1H179Q164 -1 160 13L138 85Q134 94 125 94T112 85L90 13Q86 -1 71 -1H29Q16 -1 19 13L86 231Q89 244 86 258L20 472Q17 485 30 485H73Q87 485 91 472L112 408Q115 399 125 399Q136 399 139 408L159
473Q163 485 178 485H220Q233 485 230 472L164 258Q161 244 164 231L231 13Q234 -1 221 -1Z" />
<glyph unicode="Y" glyph-name="Y" horiz-adv-x="243" d="M156 261Q151 241 151 233V14Q151 -1 137 -1H105Q99 -1 95 3T90 14V233Q90 245 86 261L17 472Q13 485 27 485H69Q85 485 88 472L108 404Q111 396 121 396T134 404L155 472Q158 485 174 485H216Q230 485
226 472L156 261Z" />
<glyph unicode="Z" glyph-name="Z" horiz-adv-x="258" d="M230 401L104 91Q103 89 103 85Q103 79 107 75T118 70H221Q235 70 235 56V14Q235 -1 221 -1H36Q22 -1 22 14V56Q22 72 27 84L150 394Q151 396 151 400Q151 414 137 414H37Q23 414 23 429V471Q23 485 37
485H222Q236 485 236 471V429Q236 415 230 401Z" />
<glyph unicode="[" glyph-name="bracketleft" horiz-adv-x="226" d="M161 -37H65Q51 -37 51 -23V531Q51 546 65 546H161Q175 546 175 531V493Q175 478 161 478H135Q121 478 121 464V46Q121 32 135 32H161Q175 32 175 17V-23Q175 -37 161 -37Z" />
<glyph unicode="\" glyph-name="backslash" horiz-adv-x="284" d="M223 -1H181Q171 -1 167 14L46 471Q45 477 50 481T61 485H103Q114 485 117 471L237 14Q238 8 234 4T223 -1Z" />
<glyph unicode="]" glyph-name="bracketright" horiz-adv-x="226" d="M161 -37H65Q51 -37 51 -23V17Q51 32 65 32H91Q105 32 105 46V464Q105 478 91 478H65Q51 478 51 493V531Q51 546 65 546H161Q175 546 175 531V-23Q175 -37 161 -37Z" />
<glyph unicode="^" glyph-name="asciicircum" horiz-adv-x="272" d="M226 401Q226 386 213 391L148 413Q134 418 121 413Q110 410 92 403Q51 388 46 396Q45 398 45 401V422Q45 437 57 444L122 482Q134 489 147 482L214 444Q227 437 227 422L226 401Z" />
<glyph unicode="_" glyph-name="underscore" horiz-adv-x="369" d="M310 -74H59Q45 -74 45 -60V-26Q45 -11 59 -11H310Q324 -11 324 -26V-60Q324 -74 310 -74Z" />
<glyph unicode="`" glyph-name="grave" horiz-adv-x="266" d="M199 401Q199 395 195 392T185 390L81 415Q67 418 67 432V474Q67 489 94 480Q103 477 131 465Q165 450 186 442Q200 436 200 422L199 401Z" />
<glyph unicode="a" glyph-name="a" horiz-adv-x="274" d="M228 -1H217H178Q175 -1 172 1T167 3H164H157Q140 -2 124 -2Q83 -2 58 24T32 83V100Q32 136 58 160T124 184H161Q176 184 176 198V219Q174 233 163 243T137 253Q109 253 100 226Q98 220 86 216H46Q32 216
32 231Q45 270 72 295T137 320Q181 320 212 289T243 213V14Q243 8 239 4T228 -1ZM176 93V118Q176 132 161 132H136Q119 132 108 121T96 93V89Q96 72 108 61T136 49T164 60T176 89V93Z" />
<glyph unicode="b" glyph-name="b" horiz-adv-x="270" d="M136 -1Q116 -1 103 3H97Q92 3 90 2Q84 -1 82 -1H42Q28 -1 28 14V306V471Q28 485 42 485H80Q94 485 94 471V332Q94 325 95 322Q99 318 109 318H112Q124 321 136 321Q180 321 211 290T242 214V106Q242 62
211 31T136 -1ZM175 213Q175 230 164 241T135 253Q119 253 108 242T96 213L95 105Q95 88 106 77T135 65T163 76T175 104V213Z" />
<glyph unicode="c" glyph-name="c" horiz-adv-x="263" d="M133 -1Q89 -1 57 30T26 106L27 215Q28 259 58 290T133 321Q171 321 201 297T237 235V232Q237 217 223 217H211H183V218Q173 219 170 227Q161 253 132 253Q116 253 104 242T92 213V105Q92 88 104 77T132
65Q160 65 169 93Q172 103 183 103H211H223Q237 103 237 88V85Q231 48 201 24T133 -1Z" />
<glyph unicode="d" glyph-name="d" horiz-adv-x="283" d="M234 -1H194Q191 -1 188 1T183 3H179H173Q160 -1 140 -1Q96 -1 65 30T34 106V215Q34 259 65 290T140 321L164 318H165H167Q181 318 181 332V471Q181 485 196 485H233Q248 485 248 471V306V14Q248 -1 234
-1ZM180 213Q180 230 170 241T140 253Q124 253 113 242T101 213V105Q101 88 112 77T141 65Q157 65 168 76T180 105V213Z" />
<glyph unicode="e" glyph-name="e" horiz-adv-x="281" d="M233 152H115Q101 152 101 137V106Q101 90 112 78T141 66Q169 66 178 93Q181 103 191 103H219H231Q245 103 245 88V85Q239 48 209 24T141 -1Q97 -1 65 30T34 106L35 215Q36 259 66 290T141 321T216 290T247
215V166Q247 152 233 152ZM176 234Q156 254 141 254Q118 254 106 234L105 230Q104 227 104 226Q104 212 118 212H163H164Q178 212 178 226Q178 230 176 234Z" />
<glyph unicode="f" glyph-name="f" horiz-adv-x="187" d="M139 257H116Q101 257 101 243V14Q101 -1 87 -1H49Q43 -1 39 3T34 14V386Q34 425 59 454T122 491Q137 491 138 478V437Q138 427 128 423Q101 411 101 386V339Q101 325 116 325H139Q153 325 153 310V271Q153
257 139 257Z" />
<glyph unicode="g" glyph-name="g" horiz-adv-x="284" d="M161 -165H159Q147 -165 145 -152V-111Q145 -103 163 -91T182 -61V-9V-8Q182 6 168 6H164Q152 3 140 3Q96 3 65 34T34 109V215Q34 259 65 290T141 322Q160 322 173 318Q175 317 180 317Q183 317 187 319L189
320Q193 322 194 322Q209 321 234 321Q248 321 248 307V17L249 -60Q250 -98 224 -128T161 -165ZM181 216Q181 232 170 244T141 256T113 244T101 216V110Q101 94 112 83T141 71T169 82T181 110V216Z" />
<glyph unicode="h" glyph-name="h" horiz-adv-x="277" d="M231 -1H193Q187 -1 183 3T178 14V216Q178 233 167 244T139 256Q122 256 111 244T99 216V14Q99 -1 85 -1H45Q31 -1 31 14V478Q31 493 45 493H83Q89 493 93 489T98 478V333Q103 318 112 318H114H115Q131
321 139 321Q183 321 214 290T246 215V14Q246 8 242 4T231 -1Z" />
<glyph unicode="i" glyph-name="i" horiz-adv-x="149" d="M94 434H56Q42 434 42 449V478Q42 493 56 493H94Q108 493 108 478V449Q108 434 94 434ZM94 -1H56Q42 -1 42 14V307Q42 322 56 322H94Q108 322 108 307V14Q108 -1 94 -1Z" />
<glyph unicode="j" glyph-name="j" horiz-adv-x="164" d="M120 431H82Q68 431 68 445V478Q68 493 82 493H120Q134 493 134 478V445Q134 431 120 431ZM47 -165H46Q32 -165 30 -152V-111Q30 -101 41 -97Q69 -86 69 -60L68 314Q68 329 82 329H120Q134 329 134 314V-60Q134
-99 109 -128T47 -165Z" />
<glyph unicode="k" glyph-name="k" horiz-adv-x="255" d="M221 -1H180Q164 -1 161 13L127 127Q123 139 113 139Q106 139 101 132L96 127Q92 121 92 106V14Q92 8 88 4T77 -1H39Q25 -1 25 14V478Q25 492 39 492H77Q91 492 91 478V269Q91 255 106 255Q114 255 118
262L151 308Q161 320 174 320H219Q225 320 227 316T225 308L171 234Q163 224 167 208L231 13Q234 -1 221 -1Z" />
<glyph unicode="l" glyph-name="l" horiz-adv-x="171" d="M122 -1H121H120Q83 6 58 35T33 104V477Q33 491 47 491H85Q100 491 100 477V104Q100 89 109 80T127 66T137 53V13Q137 12 135 9T130 3T122 -1Z" />
<glyph unicode="m" glyph-name="m" horiz-adv-x="424" d="M379 -1H340Q326 -1 326 14V214Q326 230 314 242T286 254T258 242T246 214V14Q246 -1 232 -1H194Q188 -1 184 3T179 14V216Q179 232 168 243T139 255T111 244T100 216V14Q100 8 96 4T85 -1H47Q41 -1 37
3T32 14V306Q32 312 36 316T47 321H87Q88 321 92 319T101 317H107Q120 321 140 321Q178 321 206 298Q209 295 215 295Q222 295 226 299L249 313Q266 320 287 320Q331 320 362 289T393 213V14Q393 -1 379 -1Z" />
<glyph unicode="n" glyph-name="n" horiz-adv-x="283" d="M233 -1H195Q181 -1 181 14V216Q181 232 170 243T141 255T113 244T101 216V14Q101 -1 87 -1H48Q34 -1 34 14V306Q34 321 48 321H88Q91 321 94 319T99 317H103H109Q122 321 142 321Q186 321 217 290T248
214V14Q248 8 244 4T233 -1Z" />
<glyph unicode="o" glyph-name="o" horiz-adv-x="275" d="M244 103Q243 60 212 30T138 -1Q94 -1 62 30T31 106L32 214Q33 259 63 290T138 321T213 290T244 214Q244 108 246 108V103H244ZM177 213Q177 230 166 241T137 253Q121 253 110 242T98 213L97 105Q97 88
108 77T137 65T165 76T177 105V213Z" />
<glyph unicode="p" glyph-name="p" horiz-adv-x="274" d="M138 -1L114 2H113H111Q102 2 99 0T96 -12V-151Q96 -165 82 -165H44Q30 -165 30 -151V14V306Q30 321 44 321H84Q87 321 90 319T95 317H99Q103 317 105 318Q115 321 138 321Q182 321 213 290T244 214V106Q244
62 213 31T138 -1ZM177 216Q177 232 166 243T137 255T109 244T97 216L98 107Q98 91 109 79T137 67T165 78T177 107V216Z" />
<glyph unicode="q" glyph-name="q" horiz-adv-x="280" d="M232 -165H194Q180 -165 180 -151V-12Q175 2 166 2H162Q150 -1 138 -1Q94 -1 63 30T32 106V214Q32 258 63 289T139 321Q161 321 171 318Q173 317 178 317Q182 317 184 318Q190 321 192 321H232Q238 321
242 317T247 306V14V-151Q247 -165 232 -165ZM179 216Q179 232 168 243T139 255T111 244T99 216V107Q99 90 110 79T139 67Q157 67 168 79T179 107V216Z" />
<glyph unicode="r" glyph-name="r" horiz-adv-x="248" d="M216 217H205H177V218Q166 220 163 227Q159 239 149 247T125 255Q109 255 98 244T86 215V14Q86 8 82 4T71 -1H33Q27 -1 23 3T18 14V306Q18 312 22 316T33 321H73Q74 321 78 319T87 317Q91 317 93 318Q103
321 126 321Q165 321 192 296T231 232Q231 226 227 222T216 217Z" />
<glyph unicode="s" glyph-name="s" horiz-adv-x="232" d="M117 -1Q74 -1 51 22T21 73V75Q21 89 36 89H72Q79 89 88 76T114 63Q128 63 137 72T146 96Q146 116 114 134Q112 136 106 139T95 146Q65 166 50 185T35 236Q35 269 60 295T122 321Q189 321 206 254Q206
252 202 244T192 236H161Q152 236 147 245L143 250Q135 262 122 262T102 254T94 234Q94 216 132 192Q180 161 189 150Q210 125 210 94Q210 53 181 26T117 -1Z" />
<glyph unicode="t" glyph-name="t" horiz-adv-x="189" d="M139 252H116Q102 252 102 237V104Q102 89 111 80T129 66T139 53V13Q137 -1 124 -1H122Q85 6 61 34T35 101V478Q35 493 49 493H87Q93 493 97 489T102 478L101 334Q101 328 105 324T116 319H139Q154 319
154 305V266Q154 252 139 252Z" />
<glyph unicode="u" glyph-name="u" horiz-adv-x="273" d="M229 -1H189Q186 -1 183 1T178 3H174H168Q155 -1 135 -1Q91 -1 60 30T29 106V306Q29 312 33 316T44 321H82Q96 321 96 306V105Q96 88 108 77T136 65T164 76T176 105V306Q176 321 190 321H229Q243 321 243
306V14Q243 -1 229 -1Z" />
<glyph unicode="v" glyph-name="v" horiz-adv-x="255" d="M165 13Q162 -1 147 -1H109Q94 -1 91 13L16 307Q15 313 18 317T27 321H66Q80 321 84 307L115 180Q116 171 128 171Q139 171 142 179L172 307Q176 321 190 321H228Q242 321 239 307L165 13Z" />
<glyph unicode="w" glyph-name="w" horiz-adv-x="303" d="M241 14Q239 -1 224 -1H197Q182 -1 179 13L165 68Q162 78 151 78Q142 78 138 69L122 13Q118 -1 103 -1H77Q62 -1 60 14L18 306Q16 321 30 321H64Q78 321 80 306L92 207Q92 193 107 193Q118 193 121 202Q121
203 122 209T125 220T128 232T134 245T142 253T152 257Q166 257 169 244L183 201Q188 193 196 193Q210 193 210 207L222 306Q224 321 238 321H273Q287 321 285 306L241 14Z" />
<glyph unicode="x" glyph-name="x" horiz-adv-x="247" d="M165 176Q159 162 165 149L227 12Q229 7 227 3T218 -1H179Q165 -1 159 12L135 62Q132 69 123 69T110 63L88 12Q82 -1 68 -1H28Q22 -1 20 3T19 12L79 150Q85 163 79 176L20 310Q18 315 20 318T29 322H68Q82
322 88 308L110 259Q113 251 123 251Q131 251 135 259L160 309Q167 322 180 322H220Q234 322 228 309L165 176Z" />
<glyph unicode="y" glyph-name="y" horiz-adv-x="273" d="M156 -165H155Q141 -165 139 -152V-111Q139 -104 148 -99T167 -84T176 -60V-17V-16V-9L171 -7Q174 -3 171 1T162 5H159Q143 1 135 1Q91 1 60 33T29 109V306Q29 321 43 321H81Q87 321 91 317T96 306V107Q96
90 107 79T135 68T163 79T175 107V306Q175 312 179 316T190 321H229Q243 321 243 306V-60Q243 -99 218 -128T156 -165Z" />
<glyph unicode="z" glyph-name="z" horiz-adv-x="266" d="M227 -1H41Q27 -1 27 14V52Q27 68 35 78L151 234Q152 236 152 241Q152 255 138 255H41Q35 255 31 259T26 270V307Q26 313 30 317T41 322H226Q240 322 240 307V268Q240 252 232 242L121 89Q118 86 118 80Q118
66 132 66H227Q241 66 241 51V14Q241 -1 227 -1Z" />
<glyph unicode="{" glyph-name="braceleft" horiz-adv-x="211" d="M170 457Q170 450 161 445T143 430T133 406L132 306L110 239Q106 222 110 211L132 146L133 33Q133 18 142 9T161 -5T170 -18V-58Q168 -72 154 -72H153Q116 -65 91 -36T66 33V171Q65 173 58 184T47
201T39 220T41 238L66 281V406Q66 445 91 474T153 511H154Q168 511 170 497V457Z" />
<glyph unicode="|" glyph-name="bar" horiz-adv-x="284" d="M163 -1H122Q116 -1 112 3T107 14L106 478Q106 492 121 492H163Q177 492 177 478L178 14Q178 8 174 4T163 -1Z" />
<glyph unicode="}" glyph-name="braceright" horiz-adv-x="211" d="M169 212L145 171V33Q145 -6 120 -35T58 -72H57Q43 -72 41 -58V-18Q41 -11 50 -6T69 9T78 33L79 146L101 211Q105 222 101 239L79 306L78 406Q78 421 69 430T51 444T41 457V497Q43 511 57 511H58Q95
504 120 475T145 406V281Q146 279 154 268T165 250T172 231T169 212Z" />
<glyph unicode="~" glyph-name="asciitilde" horiz-adv-x="271" d="M212 140Q209 132 198 132Q195 132 191 134Q171 145 144 135Q101 118 58 140Q46 146 51 159L59 182Q62 189 73 189Q77 189 81 187Q102 176 128 187Q170 207 213 180Q225 172 220 161L212 140Z" />
</font>
</defs>
</svg>
